<?xml version="1.0" encoding="utf-8"?>
<!-- Generator: Adobe Illustrator 23.0.3, SVG Export Plug-In . SVG Version: 6.00 Build 0)  -->
<svg version="1.1" id="Layer_1" xmlns="http://www.w3.org/2000/svg" xmlns:xlink="http://www.w3.org/1999/xlink" x="0px" y="0px"
	 viewBox="0 0 298 123.3" style="enable-background:new 0 0 298 123.3;" xml:space="preserve">
<title>archivedEmt</title>
<g>
	<g id="Layer_1-2">
		<path style="opacity:0.35;fill:#E5E5E5;enable-background:new    ;" d="M288.2,77.9H211c-1.9-2.6-2.1-5.1-0.7-7.7h44
			c5.3,0,9.6-4.3,9.6-9.6l0,0c0-5.3-4.3-9.6-9.6-9.6l0,0H134.7c-1.8-2.7-1.7-5.4,0.2-8.2h40.7c5.3,0,9.6-4.3,9.6-9.6c0,0,0,0,0,0
			l0,0c0-5.3-4.3-9.6-9.6-9.6l0,0H9.6c-5.3,0-9.6,4.3-9.6,9.6c0,0,0,0,0,0l0,0c0,5.3,4.3,9.6,9.6,9.6h59.7c1.6,2.5,1.7,5.6,0.2,8.2
			H34.7c-5.3,0-9.6,4.3-9.6,9.6c0,0,0,0,0,0l0,0c0,5.3,4.3,9.6,9.6,9.6h111.2c1.2,2.5,1,5.4-0.6,7.7H63c-5.3,0-9.6,4.3-9.6,9.6l0,0
			c0,5.3,4.3,9.6,9.6,9.6h72c1.1,2.2,1.1,4.8,0,7h-32.6c-5.3,0-9.6,4.3-9.6,9.6c0,5.3,4.3,9.6,9.6,9.6h114.5c5.3,0,9.6-4.3,9.6-9.6
			c0-5.3-4.3-9.6-9.6-9.6h-17.2c-1.4-2.1-1.4-4.9,0-7h88.7c5.3,0,9.6-4.3,9.6-9.6c0,0,0,0,0,0l0,0C297.9,82.2,293.5,77.9,288.2,77.9
			z"/>
		
			<polygon style="opacity:0.7;fill:none;stroke:#DADADA;stroke-width:0.75;stroke-miterlimit:10;enable-background:new    ;" points="
			76.5,70.3 79.3,70.7 77.4,72.7 77.9,75.3 75.4,74.2 73,75.5 73.4,72.8 71.4,70.9 74.1,70.4 75.2,67.9 		"/>
		<g style="opacity:0.7;">
			
				<circle style="fill:none;stroke:#DADADA;stroke-width:0.75;stroke-miterlimit:10;stroke-dasharray:0.97,0.97;" cx="66.6" cy="22.7" r="4.3"/>
		</g>
		<g style="opacity:0.7;">
			
				<circle style="fill:none;stroke:#DADADA;stroke-width:0.75;stroke-miterlimit:10;stroke-dasharray:1.03,1.03;" cx="192.3" cy="117.7" r="4.3"/>
		</g>
		
			<polygon style="opacity:0.7;fill:none;stroke:#DADADA;stroke-width:0.75;stroke-miterlimit:10;enable-background:new    ;" points="
			139.2,17.2 141.2,17.3 139.8,18.8 140.2,20.8 138.5,19.8 136.7,20.8 137,18.8 135.6,17.5 137.5,17.2 138.3,15.4 		"/>
		
			<polygon style="opacity:0.7;fill:none;stroke:#DADADA;stroke-width:0.75;stroke-miterlimit:10;enable-background:new    ;" points="
			215.1,2.4 217.1,2.8 215.7,4.2 216.1,6 214.4,5.2 212.6,6.2 212.9,4.2 211.5,2.8 213.4,2.5 214.2,0.8 		"/>
		<g style="opacity:0.7;">
			
				<circle style="fill:none;stroke:#DADADA;stroke-width:0.75;stroke-miterlimit:10;stroke-dasharray:1.01,1.01;" cx="260.9" cy="54.2" r="8"/>
		</g>
		<path style="fill:none;stroke:#C9C9C9;stroke-miterlimit:10;" d="M120.7,101.6h49.2c6.8,0,12.4-5.6,12.4-12.4V52.9h-52.2v39.3
			C130.1,97.4,125.9,101.6,120.7,101.6C120.7,101.6,120.7,101.6,120.7,101.6L120.7,101.6c-5.2,0-9.4-4.2-9.4-9.4c0,0,0,0,0,0V40.8
			h60.8v5.1"/>
		<rect x="146.5" y="64.7" style="fill:none;stroke:#C9C9C9;stroke-miterlimit:10;" width="19.4" height="3.4"/>
		<line style="fill:none;stroke:#C9C9C9;stroke-miterlimit:10;" x1="120.5" y1="91.5" x2="120.5" y2="49.1"/>
	</g>
</g>
</svg>
