<svg xmlns="http://www.w3.org/2000/svg" width="298" height="136.16" viewBox="0 0 298 136.16"><defs><style>.cls-1{fill:#e5e5e5;opacity:0.25;}.cls-1,.cls-2,.cls-5,.cls-6{isolation:isolate;}.cls-2,.cls-4{fill:none;stroke:#dadada;stroke-miterlimit:10;stroke-width:0.75px;}.cls-2,.cls-3{opacity:0.7;}.cls-4{stroke-dasharray:0.97 0.97;}.cls-5{fill:#d6d6d6;}.cls-5,.cls-6,.cls-8{opacity:0.4;}.cls-6,.cls-9{fill:gray;}.cls-7{fill:#fff;}</style></defs><title>task</title><g id="Layer_2" data-name="Layer 2"><g id="Layer_1-2" data-name="Layer 1"><path class="cls-1" d="M288.2,78.06H211c-1.9-2.6-2.1-5.1-.7-7.7h44a9.6,9.6,0,0,0,9.6-9.6h0a9.6,9.6,0,0,0-9.6-9.6H134.7c-1.8-2.7-1.7-5.4.2-8.2h40.7a9.6,9.6,0,0,0,9.6-9.6h0a9.6,9.6,0,0,0-9.6-9.6H9.6A9.6,9.6,0,0,0,0,33.36H0A9.6,9.6,0,0,0,9.6,43H69.3a7.81,7.81,0,0,1,.2,8.2H34.7a9.6,9.6,0,0,0-9.6,9.6h0a9.6,9.6,0,0,0,9.6,9.6H145.9a7.61,7.61,0,0,1-.6,7.7H63a9.6,9.6,0,0,0-9.6,9.6h0a9.6,9.6,0,0,0,9.6,9.6h72a7.84,7.84,0,0,1,0,7H102.4a9.6,9.6,0,0,0,0,19.2H216.9a9.6,9.6,0,0,0,0-19.2H199.7a6.36,6.36,0,0,1,0-7h88.7a9.6,9.6,0,0,0,9.6-9.6h0A9.77,9.77,0,0,0,288.2,78.06Z"/><polygon class="cls-2" points="76.5 70.46 79.3 70.76 77.4 72.76 77.9 75.46 75.4 74.26 73 75.66 73.4 72.96 71.4 71.06 74.1 70.56 75.2 68.06 76.5 70.46"/><g class="cls-3"><circle class="cls-4" cx="66.6" cy="22.76" r="4.3"/></g><polygon class="cls-2" points="139.2 17.26 141.2 17.46 139.8 18.86 140.2 20.86 138.5 19.96 136.7 20.96 137 18.96 135.6 17.66 137.5 17.36 138.3 15.56 139.2 17.26"/><polygon class="cls-2" points="215.1 2.56 217.1 2.86 215.7 4.26 216.1 6.16 214.4 5.36 212.6 6.26 212.9 4.36 211.5 2.96 213.4 2.66 214.2 0.86 215.1 2.56"/><rect class="cls-5" x="125.7" y="36.66" width="53.1" height="68.2"/><circle class="cls-6" cx="140.9" cy="57.06" r="1.5"/><path class="cls-6" d="M168.9,57.56H149.5a.5.5,0,0,1,0-1h19.4a.47.47,0,0,1,.5.5A.54.54,0,0,1,168.9,57.56Z"/><circle class="cls-6" cx="140.9" cy="67.06" r="1.5"/><path class="cls-6" d="M161.9,67.56H149.5a.5.5,0,0,1,0-1h12.4a.47.47,0,0,1,.5.5A.54.54,0,0,1,161.9,67.56Z"/><polygon class="cls-5" points="120.8 44.16 94.6 61.96 120.8 99.36 120.8 44.16"/><polygon class="cls-7" points="120.8 37.96 96.7 53.56 120.8 87.46 120.8 37.96"/><path class="cls-7" d="M148.5,94.16a2.33,2.33,0,0,1-2-1l-7.6-9.8a2.5,2.5,0,0,1,4-3l6,7.9,18.6-14.2a2.5,2.5,0,0,1,3,4l-20.6,15.7A3.26,3.26,0,0,1,148.5,94.16Z"/><rect class="cls-5" x="192.1" y="58.56" width="8.4" height="43"/><g class="cls-8"><path class="cls-9" d="M138.6,37h27.2a1.75,1.75,0,0,0,1.7-1.7v-6.9a1.75,1.75,0,0,0-1.7-1.7h-7.7a5.91,5.91,0,0,0-11.8,0h-7.7a1.75,1.75,0,0,0-1.7,1.7v6.9A1.75,1.75,0,0,0,138.6,37Zm-.7-8.6a.68.68,0,0,1,.7-.7h8.2a.56.56,0,0,0,.5-.6,5,5,0,0,1,5-5,4.81,4.81,0,0,1,4.9,5,.6.6,0,0,0,.1.4.52.52,0,0,0,.4.2h8.2a.68.68,0,0,1,.7.7v6.9a.68.68,0,0,1-.7.7H138.7a.68.68,0,0,1-.7-.7l-.1-6.9Z"/><path class="cls-9" d="M178.5,31h-8a.5.5,0,0,0,0,1h8a4.69,4.69,0,0,1,4.7,4.7v67.7a4.69,4.69,0,0,1-4.7,4.7H126a4.69,4.69,0,0,1-4.7-4.7V36.66A4.69,4.69,0,0,1,126,32h8a.5.5,0,0,0,0-1h-8a5.7,5.7,0,0,0-5.7,5.7v67.7a5.7,5.7,0,0,0,5.7,5.7h52.5a5.7,5.7,0,0,0,5.7-5.7V36.66A5.76,5.76,0,0,0,178.5,31Z"/><path class="cls-9" d="M203.4,58.06H201v-3.9a.47.47,0,0,0-.5-.5h-8.4a.47.47,0,0,0-.5.5v47.7a.37.37,0,0,0,.1.3l4.2,6a.5.5,0,0,0,.8,0l4.2-6a.37.37,0,0,0,.1-.3V59.06h1.9v11.5a.5.5,0,1,0,1,0v-12A.47.47,0,0,0,203.4,58.06Zm-3.4-3.4v3.4h-7.4v-3.4Zm0,47-3.7,5.3-3.7-5.3V59.06H200v42.6Z"/></g><path class="cls-6" d="M132.3,136.16a.66.66,0,0,1-.5-.4c-.1-.3.1-.5.4-.6A86.4,86.4,0,0,1,146,134c17.7-.2,21.3-4.4,21.9-6.8.6-2.8-1.9-5.8-3.4-6.6a2.52,2.52,0,0,1-1.6-2.9c.4-1.4,3.3-5.7,25-3.7,2.8.2,7-.2,7.3-1.4a.51.51,0,1,1,1,.2c-.6,2.5-7.1,2.3-8.3,2.2-17.7-1.6-23.4,1.1-23.9,2.9a1.55,1.55,0,0,0,1,1.7c1.8.9,4.7,4.3,4,7.7s-5.4,7.4-22.8,7.6a98.37,98.37,0,0,0-13.9,1.3Z"/></g></g></svg>
