<?xml version="1.0" encoding="utf-8"?>
<!-- Generator: Adobe Illustrator 23.0.3, SVG Export Plug-In . SVG Version: 6.00 Build 0)  -->
<svg version="1.1" id="Layer_1" xmlns="http://www.w3.org/2000/svg" xmlns:xlink="http://www.w3.org/1999/xlink" x="0px" y="0px"
	 viewBox="0 0 298 108.8" style="enable-background:new 0 0 298 108.8;" xml:space="preserve">
<title>reportsEmt</title>
<g>
	<g id="Layer_1-2">
		<path style="opacity:0.35;fill:#E5E5E5;enable-background:new    ;" d="M288.2,63.4H211c-1.9-2.6-2.1-5.1-0.7-7.7h44
			c5.3,0,9.6-4.3,9.6-9.6l0,0c0-5.3-4.3-9.6-9.6-9.6l0,0H134.7c-1.8-2.7-1.7-5.4,0.2-8.2h40.7c5.3,0,9.6-4.3,9.6-9.6c0,0,0,0,0,0
			l0,0c0-5.3-4.3-9.6-9.6-9.6l0,0H9.6C4.3,9.1,0,13.4,0,18.7l0,0c0,5.3,4.3,9.6,9.6,9.6l0,0h59.7c1.6,2.5,1.7,5.6,0.2,8.2H34.7
			c-5.3,0-9.6,4.3-9.6,9.6c0,0,0,0,0,0l0,0c0,5.3,4.3,9.6,9.6,9.6h111.2c1.2,2.5,1,5.4-0.6,7.7H63c-5.3,0-9.6,4.3-9.6,9.6
			c0,0,0,0,0,0l0,0c0,5.3,4.3,9.6,9.6,9.6h72c1.1,2.2,1.1,4.8,0,7h-32.6c-5.3,0-9.6,4.3-9.6,9.6c0,5.3,4.3,9.6,9.6,9.6l0,0h114.5
			c5.3,0,9.6-4.3,9.6-9.6c0-5.3-4.3-9.6-9.6-9.6h-17.2c-1.4-2.1-1.4-4.9,0-7h88.7c5.3,0,9.6-4.3,9.6-9.6c0,0,0,0,0,0l0,0
			C297.9,67.7,293.5,63.4,288.2,63.4z"/>
		
			<polygon style="opacity:0.7;fill:none;stroke:#DADADA;stroke-width:0.75;stroke-miterlimit:10;enable-background:new    ;" points="
			76.5,55.8 79.3,56.2 77.4,58.2 77.9,60.8 75.4,59.7 73,61 73.4,58.3 71.4,56.4 74.1,55.9 75.2,53.4 		"/>
		<g style="opacity:0.7;">
			
				<circle style="fill:none;stroke:#DADADA;stroke-width:0.75;stroke-miterlimit:10;stroke-dasharray:0.97,0.97;" cx="66.6" cy="8.2" r="4.3"/>
		</g>
		<g style="opacity:0.7;">
			
				<circle style="fill:none;stroke:#DADADA;stroke-width:0.75;stroke-miterlimit:10;stroke-dasharray:1.03,1.03;" cx="192.3" cy="103.2" r="4.3"/>
		</g>
		
			<polygon style="opacity:0.7;fill:none;stroke:#DADADA;stroke-width:0.75;stroke-miterlimit:10;enable-background:new    ;" points="
			139.2,2.7 141.2,2.8 139.8,4.3 140.2,6.3 138.5,5.3 136.7,6.3 137,4.3 135.6,3 137.5,2.7 138.3,0.9 		"/>
		
			<polygon style="opacity:0.7;fill:none;stroke:#DADADA;stroke-width:0.75;stroke-miterlimit:10;enable-background:new    ;" points="
			215.1,7.9 217.1,8.3 215.7,9.7 216.1,11.4 214.4,10.7 212.6,11.7 212.9,9.7 211.5,8.3 213.4,8 214.2,6.3 		"/>
		<g style="opacity:0.7;">
			
				<circle style="fill:none;stroke:#DADADA;stroke-width:0.75;stroke-miterlimit:10;stroke-dasharray:1.01,1.01;" cx="260.9" cy="39.7" r="8"/>
		</g>
		<path style="opacity:0.5;fill:#D6D6D6;enable-background:new    ;" d="M128.4,102.4L128.4,102.4c-4.1,0-7.5-3.3-7.5-7.5
			c0,0,0,0,0,0V52.3c0-4.1,3.3-7.5,7.5-7.5c0,0,0,0,0,0l0,0c4.1,0,7.5,3.3,7.5,7.5c0,0,0,0,0,0v42.6
			C135.9,99,132.5,102.4,128.4,102.4z M158.6,94.9V21.8c0-4.1-3.3-7.5-7.5-7.5c0,0,0,0,0,0l0,0c-4.1,0-7.5,3.3-7.5,7.5c0,0,0,0,0,0
			v73.1c0,4.1,3.3,7.5,7.5,7.5c0,0,0,0,0,0l0,0C155.2,102.4,158.6,99,158.6,94.9C158.6,94.9,158.6,94.9,158.6,94.9L158.6,94.9z
			 M181.3,94.9V37c0-4.1-3.3-7.5-7.5-7.5c0,0,0,0,0,0l0,0c-4.1,0-7.5,3.3-7.5,7.5c0,0,0,0,0,0v57.9c0,4.1,3.3,7.5,7.5,7.5
			c0,0,0,0,0,0l0,0C177.9,102.4,181.3,99.1,181.3,94.9C181.3,94.9,181.3,94.9,181.3,94.9L181.3,94.9z"/>
		<path style="fill:none;stroke:#C9C9C9;stroke-linecap:round;stroke-linejoin:round;" d="M131.4,102.4L131.4,102.4
			c-4.1,0-7.5-3.3-7.5-7.5c0,0,0,0,0,0V52.3c0-4.1,3.3-7.5,7.5-7.5c0,0,0,0,0,0l0,0c4.1,0,7.5,3.3,7.5,7.5c0,0,0,0,0,0v42.6
			C138.9,99,135.6,102.4,131.4,102.4C131.4,102.4,131.4,102.4,131.4,102.4z"/>
		<path style="fill:none;stroke:#C9C9C9;stroke-linecap:round;stroke-linejoin:round;" d="M154.1,102.4L154.1,102.4
			c-4.1,0-7.5-3.3-7.5-7.5c0,0,0,0,0,0V21.8c0-4.1,3.3-7.5,7.5-7.5c0,0,0,0,0,0l0,0c4.1,0,7.5,3.3,7.5,7.5c0,0,0,0,0,0v73.1
			c0.1,4.1-3.2,7.4-7.2,7.5C154.3,102.4,154.2,102.4,154.1,102.4z"/>
		<path style="fill:none;stroke:#C9C9C9;stroke-linecap:round;stroke-linejoin:round;" d="M176.8,102.4L176.8,102.4
			c-4.1,0-7.5-3.3-7.5-7.5c0,0,0,0,0,0V37c0-4.1,3.3-7.5,7.5-7.5c0,0,0,0,0,0l0,0c4.1,0,7.5,3.3,7.5,7.5c0,0,0,0,0,0v57.9
			c0,4.1-3.3,7.5-7.4,7.5C176.9,102.4,176.8,102.4,176.8,102.4z"/>
	</g>
</g>
</svg>
