<?xml version="1.0" encoding="utf-8"?>
<!-- Generator: Adobe Illustrator 23.0.3, SVG Export Plug-In . SVG Version: 6.00 Build 0)  -->
<svg version="1.1" id="Layer_1" xmlns="http://www.w3.org/2000/svg" xmlns:xlink="http://www.w3.org/1999/xlink" x="0px" y="0px"
	 viewBox="0 0 298 123.5" style="enable-background:new 0 0 298 123.5;" xml:space="preserve">
<title>cloudEmt</title>
<g>
	<g id="Layer_1-2">
		<path style="opacity:0.35;fill:#E5E5E5;enable-background:new    ;" d="M288.2,78.1H211c-1.9-2.6-2.1-5.1-0.7-7.7h44
			c5.3,0,9.6-4.3,9.6-9.6l0,0c0-5.3-4.3-9.6-9.6-9.6l0,0H134.7c-1.8-2.7-1.7-5.4,0.2-8.2h40.7c5.3,0,9.6-4.3,9.6-9.6c0,0,0,0,0,0
			l0,0c0-5.3-4.3-9.6-9.6-9.6l0,0H9.6c-5.3,0-9.6,4.3-9.6,9.6c0,0,0,0,0,0l0,0C0,38.7,4.3,43,9.6,43c0,0,0,0,0,0h59.7
			c1.6,2.5,1.7,5.6,0.2,8.2H34.7c-5.3,0-9.6,4.3-9.6,9.6c0,0,0,0,0,0l0,0c0,5.3,4.3,9.6,9.6,9.6h111.2c1.2,2.5,1,5.4-0.6,7.7H63
			c-5.3,0-9.6,4.3-9.6,9.6l0,0c0,5.3,4.3,9.6,9.6,9.6h72c1.1,2.2,1.1,4.8,0,7h-32.6c-5.3,0-9.6,4.3-9.6,9.6c0,5.3,4.3,9.6,9.6,9.6
			l0,0h114.5c5.3,0,9.6-4.3,9.6-9.6c0-5.3-4.3-9.6-9.6-9.6h-17.2c-1.4-2.1-1.4-4.9,0-7h88.7c5.3,0,9.6-4.3,9.6-9.6c0,0,0,0,0,0l0,0
			C297.9,82.3,293.6,78,288.2,78.1z"/>
		
			<polygon style="opacity:0.7;fill:none;stroke:#DADADA;stroke-width:0.75;stroke-miterlimit:10;enable-background:new    ;" points="
			76.5,70.5 79.3,70.8 77.4,72.8 77.9,75.5 75.4,74.3 73,75.7 73.4,73 71.4,71.1 74.1,70.6 75.2,68.1 		"/>
		<g style="opacity:0.7;">
			
				<circle style="fill:none;stroke:#DADADA;stroke-width:0.75;stroke-miterlimit:10;stroke-dasharray:0.97,0.97;" cx="66.6" cy="22.8" r="4.3"/>
		</g>
		<g style="opacity:0.7;">
			
				<circle style="fill:none;stroke:#DADADA;stroke-width:0.75;stroke-miterlimit:10;stroke-dasharray:1.03,1.03;" cx="192.3" cy="117.8" r="4.3"/>
		</g>
		
			<polygon style="opacity:0.7;fill:none;stroke:#DADADA;stroke-width:0.75;stroke-miterlimit:10;enable-background:new    ;" points="
			139.2,17.3 141.2,17.5 139.8,18.9 140.2,20.9 138.5,20 136.7,21 137,19 135.6,17.7 137.5,17.4 138.3,15.6 		"/>
		
			<polygon style="opacity:0.7;fill:none;stroke:#DADADA;stroke-width:0.75;stroke-miterlimit:10;enable-background:new    ;" points="
			215.1,2.6 217.1,2.9 215.7,4.3 216.1,6.2 214.4,5.4 212.6,6.3 212.9,4.4 211.5,3 213.4,2.7 214.2,0.9 		"/>
		<g style="opacity:0.7;">
			
				<circle style="fill:none;stroke:#DADADA;stroke-width:0.75;stroke-miterlimit:10;stroke-dasharray:1.01,1.01;" cx="260.9" cy="54.3" r="8"/>
		</g>
	</g>
</g>
</svg>
