<?xml version="1.0" encoding="utf-8"?>
<!-- Generator: Adobe Illustrator 23.0.3, SVG Export Plug-In . SVG Version: 6.00 Build 0)  -->
<svg version="1.1" id="Layer_1" xmlns="http://www.w3.org/2000/svg" xmlns:xlink="http://www.w3.org/1999/xlink" x="0px" y="0px"
	 viewBox="0 0 587.1 331.1" style="enable-background:new 0 0 587.1 331.1;" xml:space="preserve">
<title>bg00_13</title>
<g>
	<g id="Layer_1-2">

			<radialGradient id="SVGID_1_" cx="255.55" cy="151.95" r="272.66" gradientTransform="matrix(1 0 0 -1 0 334)" gradientUnits="userSpaceOnUse">
			<stop  offset="0" style="stop-color:#EEEEEE"/>
			<stop  offset="1" style="stop-color:#FFFFFF"/>
		</radialGradient>
		<path style="fill:url(#SVGID_1_);" d="M583.5,177.9c-4.5-2.8-9.1-5.5-13.5-8.4c-6.2-4-12.3-8.1-18.3-12.2c-1.6-1.1-3-2.4-4.3-3.8
			c-0.7-0.7-1.1-1.5-1.3-2.4c-0.1-0.8-0.6-1.5-1.4-1.8c-1.4-0.6-2.8-1-4.3-1.4c-6-1-12.1-2-18.1-2.9c-4.9-0.8-9.9-1-14.8-0.7
			c-12,1-24,1.8-36,2.6c-1.8,0.1-3.4-1.3-3.5-3.1c0-1.8-0.1-3.7,0-5.5s0-3.4-1.4-4.7c0,0,0-0.2,0.1-0.4l2.2-0.4
			c7.1-1.4,14.2-2.6,21.2-4.2c7.9-1.7,15.5-4.4,22.6-8.1c4.6-2.4,8.8-5.6,12.3-9.3c0.7-0.7,1.1-1.7,1.1-2.7c-0.1-1.9,0-3.8,0-5.7
			c0-0.5-0.1-1-0.3-1.4c-1.3,1.3-2.5,2.5-3.7,3.6c-9,8.1-19.5,13.3-31.1,16.5c-9.7,2.7-19.6,3.6-29.5,5.1c-0.7,0.1-1.5-0.2-1.9-0.9
			c-2-2.3-4-4.7-5.9-7c-0.2-0.3-0.4-0.7-0.6-1.1c0.5-0.1,0.9-0.1,1.2-0.2c6.8-0.6,13.6-1,20.3-1.7c8.7-0.8,17.3-2.8,25.5-6
			c6.8-2.6,13.1-6.6,18.2-11.7c3-2.9,5.3-6.4,6.9-10.3c0.3-0.7,0.5-1.5,0.7-2.3c-0.3-0.1-0.5-0.2-0.8-0.2c-5.7-0.6-11.3-2.3-16.4-5
			c-9.5-5-18.3-11-26.5-18c-11-9.2-21.2-19.3-31.3-29.6c-7.9-8-15.8-16-23.8-23.8c-2.9-2.6-5.9-5.1-9.1-7.3
			c-2.2-1.6-5.1-1.9-7.5-0.6c-2.5,1.2-5,2.3-7.3,3.6c-15.2,8.2-30.7,15.8-46.5,22.9c-15,6.7-29.9,13.4-45.5,18.6
			c-20.6,6.9-41.5,12.6-62.6,17.5c-13.7,3.2-27.5,6-41.3,8.9c-1,0.2-2,0.2-3,0c-11.7-3.5-22.9-8.6-33.3-15.2
			c-10.7-7.1-20.8-15.2-29.9-24.3c-6-5.8-11.9-11.8-18-17.5c-2-1.8-4.1-3.5-6.3-5.1c-2.4-2-5.8-2.4-8.7-0.9
			c-2.9,1.4-5.8,2.6-8.6,4.2c-10.2,5.8-20,12.2-29.4,19.2C47,49.8,23.9,66.9,0.8,84.2c-0.3,0.3-0.6,0.6-0.8,0.9h26.6v101
			c1.2,0,2.2,0,3.2,0c32.2-0.9,64.5-1.7,96.7-2.7c17.1-0.6,34.3-1.5,51.4-2.4c16.6-0.9,33.3-2,49.8-4.2c5-0.7,9.9-1.8,14.8-2.8
			c1.3-0.3,2.5-0.8,3.5-1.5c1.7-1.2,1.8-2.9,0.2-4.3c-1.1-0.9-2.3-1.7-3.6-2.3c-3.2-1.4-6.4-2.5-9.7-3.8c-5.3-2-10.7-3.9-16-6.1
			c-2.3-1-4.4-2.4-6.4-3.9c-1.1-0.9-2-2-2.6-3.3c-0.9-1.8-0.5-2.8,1.3-3.7c1.8-0.9,3.8-1.6,5.7-2.1c10-2.7,20.2-4.2,30.4-5.7
			c8.8-1.2,17.7-2.4,26.5-3.4c9.2-1.1,18.4-2.1,27.6-3.1c8.8-0.9,17.6-1.8,26.4-2.6c9.5-0.9,19.1-1.8,28.6-2.7
			c8.6-0.8,17.2-1.5,25.8-2.2c9-0.8,18-1.5,27-2.3c9.8-0.8,19.7-1.6,29.5-2.3c2.2-0.2,4.4-0.3,6.8-0.5c0.1,3.7,0.2,7.1,0.4,10.6
			c-4,0.6-7.8,1.1-11.6,1.6c-14,1.8-28.1,3.6-42.1,5.5c-16.5,2.2-33,4.4-49.5,6.8c-15.7,2.3-31.3,4.8-47,7.4
			c-5,0.8-9.8,2.2-14.7,3.4c-1.1,0.3-2.7,0.4-2.9,1.9s1.1,2.4,2.3,3.1c1.7,1.1,3.5,2.1,5.4,2.9c4.7,1.9,9.4,3.6,14.1,5.4
			c6.9,2.6,13.9,5.2,20.7,8.1c2.7,1.3,5.3,2.8,7.7,4.6c1.2,0.9,2.2,2.1,2.9,3.4c1.1,1.8,0.8,3-0.9,4.3c-0.7,0.6-1.5,1.2-2.4,1.6
			c-2.8,1.3-5.5,2.7-8.3,3.9c-10.9,4.4-22.1,7.8-33.3,11c-34.3,10-68.9,18.5-103.6,26.9c-0.5,0.1-1,0.2-1.6,0.2
			c-0.9-1.2-1.6-2.4-2.5-3.6c-1.9-2.6-4.5-4.6-7.6-5.7c-3.5-1.4-7.6-0.4-10,2.6c-1.1,1.2-1.9,2.5-2.6,3.9c-1.1,2.3-1.9,4.8-2.8,7.2
			c-0.2,0.6-0.4,1.3-0.6,1.9l-5.4,1.2c-0.2-0.9-0.4-1.7-0.6-2.5c-1.1-3.7-2.1-7.5-3.4-11.1c-1.1-3.4-2.9-6.5-5.2-9.2
			c-1.3-1.5-2.8-2.7-4.5-3.7c-3.7-2.3-8.6-1.4-11.3,2c-1.3,1.4-2.4,3-3.2,4.7c-1.4,3-2.5,6.2-3.4,9.4c-1,3.8-1.6,7.6-2.4,11.7
			c-0.2-0.7-0.4-1.3-0.5-1.9c-1.4-4.9-2.6-9.9-4.1-14.7c-1.9-6.1-4.5-11.8-8-17.1c-1.6-2.6-3.6-4.8-5.9-6.7
			c-6.6-5.1-14.5-3.8-19.1,3.2c-1.5,2.4-2.6,4.9-3.3,7.6c-2.1,8.1-2.3,16.3-1.8,24.5c0.1,1.7,0.2,3.5,0.3,5.2h-0.2
			c-0.4-0.5-0.7-1-1.1-1.5c-3.3-5-7.2-9.4-11.7-13.3c-2.4-2.1-5.2-3.7-8.2-4.9c-7.5-2.8-13.4-0.6-17.2,6.4
			c-1.7,3.3-2.9,6.7-3.7,10.3c-1.9,8.8-2.9,17.9-2.8,26.9c-0.1,21.9,0,43.8,0,65.7c0,0.6,0.1,1.2,0.1,1.9c0.6,0,1,0.1,1.5,0.1h30.4
			c0.7,0,1.5-0.1,2.2-0.4c10.5-3.4,20.8-7.3,30.9-11.7c12.4-5.5,24.9-11,37.4-16.2c10.3-4.3,20.8-8,31.1-12.3
			c21.2-9.1,42.2-18.5,63.4-27.7c10-4.4,20.2-8.2,30.1-12.6c29.2-12.9,58.3-25.9,87.4-39c11-5,21.7-10.4,32.5-15.7
			c2.5-1.3,5-2.8,7.3-4.5c2.6-1.8,4.7-4.4,5.9-7.4c1.7-3.9,0.2-8.5-3.4-10.7c-1.2-0.8-2.5-1.4-3.8-1.8c-2.5-0.9-5.1-1.6-7.6-2.4
			c-6.8-2.3-13.5-4.5-20.2-7c-2.1-0.9-4.2-2-6-3.3c-1.3-0.9-2.2-2.3-2.5-3.9c-0.3-1.2,0.2-2.4,1.3-2.9c1.3-0.7,2.7-1.3,4.1-1.7
			c3.9-0.9,7.8-1.9,11.8-2.4c13.1-1.7,26.2-3.2,39.3-4.9s26.2-3.5,39.2-5.2l5.4-0.7c0.1,0.9,0.1,1.7,0.1,2.6
			c-0.2,1.4,0.5,2.7,1.6,3.5c1.6,1.2,3.1,2.6,4.7,4c-2.8,1.5-5.9,2.3-9,2.5c-12.2,1.1-24.5,2.3-36.8,3.6c-4.1,0.4-8.2,1.1-12.2,2
			c-3,0.6-4.9,3.4-4.3,6.4c0.2,1,0.6,1.9,1.3,2.6c1.1,1.3,2.5,2.4,4.1,3.3c2.5,1.2,5.1,2.3,7.7,3.2c1.6,0.6,3.4,1.1,5,1.7
			c1.2,0.5,2.3,1.1,3.4,1.8c2.6,1.8,2.9,3.9,1.1,6.4c-0.7,1-1.6,1.9-2.5,2.7c-1.2,1-2.5,1.9-3.7,2.9c-1.1,0.9-1.1,1.5,0.1,2.2
			c1.4,0.8,2.8,1.4,4.3,1.9c6,1.8,12.1,3.2,18.3,4.1c4.7,0.8,9.4,1.4,14.1,2.1c1.2,0.2,2.4,0.4,2.7,2.2c-2.3,0-4.4,0.1-6.6,0
			c-1.2-0.2-2.4,0.5-2.7,1.7c-4.9,12.1-10,24.1-14.9,36.2c-0.2,0.6-0.4,1.1-0.6,1.7c2.8,1.8,5.7,3.1,8.7,5.1c-0.7,0.2-1,0.4-1.4,0.4
			c-3,0.8-5.9,1.6-8.9,2.2c-1.2,0.2-2.2,1-2.9,2c-8.8,13.2-17.7,26.3-26.6,39.5c-0.4,0.5-0.7,1.1-1.2,1.9l15.9,6.3l1.1-1l2.9,1
			l2.9-4.2l0.3,0.2c-0.3,1.4-0.6,2.9-1,4.5l6.3,1.1c2.1,0.4,4.3-0.5,6.4,0.6v3.4l29.1,9.6c-1.1,5.9-2.1,11.6-3.1,17.4h20.6
			c-0.1-5.6-0.2-11-0.4-16.5l31.7-11.8v-2.1l1.4,1.9c1.1-0.2,2.2-0.3,3.3-0.2c0.6,0.2,1.3,0.2,1.9,0l20.1-4.4c0.6-0.1,1.2-0.4,2-0.6
			c-0.4-0.8-0.7-1.4-1.1-2c-7-12.6-14-25.2-20.9-37.9c-2.2-4.4-5.3-8.3-9-11.4c-0.6-0.5-1.1-1.1-1.8-1.7l7.2-6.4
			c-2.1-5.8-4.2-11.4-6.2-17s-4.3-11.2-6.2-17.1h1.5c12.4,0.6,24.8,0.4,37.1-0.5c11.4-0.8,22.7-2.5,33.9-5c5.9-1.2,11.6-3.1,17-5.7
			c2.6-1.1,4.9-2.9,6.6-5.2v-2.9C586.2,179.9,585,178.7,583.5,177.9z"/>
		<path style="fill:#FFFFFF;" d="M23.9,113.8c0,0,143.4,11.9,198.1-2.2c6.3-1.6,11.8-5.4,15.4-10.8c2-2.9,5.6-5.7,12.2-5.7
			c13.4,0,279.4-7.4,279.4-7.4L264,98.4c0,0-16.8-0.4-17.6,10.3c-1,13.2-87,23.2-222.5,16.3L23.9,113.8z M493.9,201l-3,0.8l-3-7
			l-6.7-2.4l4.8-9.2L471.4,147l-5.3-4.6v-9.5l-16.8-19.7v-4.4l19.2,22.8l0.2,9.1l5.1,5.3l16.1,37.6l-4.4,8l6,1.8L493.9,201z"/>
		<g style="opacity:0.8;">
			<g id="Layer_14">
				<path style="fill:#A7C09B;" d="M363.8,300"/>
				<path style="fill:#A7C09B;" d="M363.6,300c0.1,0.1,0.2,0.1,0.3,0.1C363.7,300.1,363.8,300.1,363.6,300L363.6,300z"/>
				<path style="fill:#A7C09B;" d="M362.7,302.5"/>
				<path style="fill:#A7C09B;" d="M363,301.5"/>
				<path style="fill:#A7C09B;" d="M363,300.7c0.1,0,0.1,0,0.2,0.1C363.1,300.8,363.1,300.7,363,300.7z"/>
				<polygon style="fill:#A7C09B;" points="362.3,311.1 362.3,311.1 362.2,311.1 				"/>
				<path style="fill:#A7C09B;" d="M361.9,305.8c0.1,0,0.1,0.1,0.2,0C362,305.7,361.9,305.7,361.9,305.8
					C361.9,305.8,361.9,305.8,361.9,305.8z"/>
				<path style="fill:#A7C09B;" d="M362.7,309.8h-0.1C362.7,309.8,362.8,309.9,362.7,309.8z"/>
				<path style="fill:#A7C09B;" d="M362.7,307.8"/>
				<path style="fill:#A7C09B;" d="M362.9,310.1L362.9,310.1c-0.1-0.1-0.1-0.1-0.2-0.1h0.1c-0.1,0,0-0.1-0.2-0.1h0.1
					c0,0-0.2-0.1-0.1-0.1s0,0.1,0.2,0h0.1c0-0.1-0.1-0.1,0-0.1h-0.2c-0.1-0.1,0.3-0.1,0.2-0.1s-0.3,0-0.2-0.1h0.2
					c0-0.1-0.2,0-0.1-0.1h0.1c0.1,0-0.1,0-0.1-0.1h0.1c0-0.1-0.1-0.1-0.2-0.2h0.1c-0.1-0.1,0-0.2,0.1-0.3l0,0
					c-0.1-0.1-0.2-0.2-0.1-0.2l0,0c0,0-0.2-0.1-0.1-0.1l0,0c0.1-0.1-0.1-0.2,0.1-0.3c-0.2,0,0.1-0.1-0.2-0.1c0.1-0.1,0.2,0,0.2-0.1
					c-0.1,0-0.1,0-0.2-0.1h0.1c-0.1,0,0.1-0.1,0.2-0.1l-0.1-0.1h0.1c-0.1-0.1,0.1,0,0-0.1h-0.1c0.1,0,0.1-0.1,0-0.1h0.1v-0.2h0.1
					c-0.1,0,0.1-0.1,0-0.1l0,0V307c-0.1,0-0.1,0-0.2-0.1c0.1-0.1,0.1-0.1,0.1-0.2c0-0.1-0.1,0-0.2,0c0.1,0,0.1-0.1,0.2,0
					c0-0.1,0-0.1-0.1-0.2l0,0c-0.2-0.1,0.3-0.2,0.1-0.3l0,0l-0.1-0.1h0.1c-0.2-0.1,0-0.1-0.1-0.2c0.3,0,0-0.2,0.2-0.3h-0.1
					c-0.1-0.2,0.1-0.3,0.2-0.5s-0.4-0.1-0.2-0.1h0.1c-0.1-0.1,0-0.3-0.1-0.4h0.1c0.1,0,0-0.1-0.1-0.1h0.1c0,0-0.1-0.1,0-0.1l0,0
					c0-0.1,0-0.1-0.1-0.1l0,0c0.1,0,0-0.1,0-0.1s0.1-0.1-0.1-0.1c0.2,0,0.2-0.1,0.1-0.1h0.1c0-0.1,0-0.1-0.1-0.1l0,0
					c0.2,0-0.2-0.2,0.1-0.1c-0.1-0.1-0.1-0.2-0.2-0.3c0.2,0,0,0.1,0.2,0.1c-0.1-0.1-0.2-0.2-0.1-0.2s0.1,0,0.1,0
					c-0.1-0.1-0.1-0.1,0-0.2c0,0,0,0,0,0l0,0c-0.1,0-0.2-0.1-0.3-0.1c0.2,0.1,0.1-0.1,0.4,0l0,0c0-0.1,0-0.1-0.1-0.1l0,0h0.1
					c-0.1,0-0.1,0-0.1-0.1l0,0h0.1c0-0.1-0.2-0.2-0.1-0.2s0.1,0,0.2,0l0,0c0,0-0.1-0.1,0-0.1h0.1v-0.1h-0.1c-0.1-0.1-0.2,0-0.1-0.1
					h0.1c0,0-0.1-0.1,0-0.1h0.2c-0.1,0,0-0.1-0.1-0.1h0.1c0,0-0.2,0-0.1-0.1l0,0c0.1,0,0-0.1,0-0.2c0.2,0,0,0.1,0.2,0.1
					c0-0.1-0.1-0.2-0.1-0.3l0,0c-0.2-0.1,0.1,0,0-0.1h0.1c0-0.1,0-0.1-0.1-0.2h0.1c0.1,0,0-0.1,0.1-0.1h-0.1c0.3,0-0.1-0.2,0.2-0.3
					l0,0v-0.1h-0.1l-0.1-0.1h0.1c0.2,0-0.2-0.1-0.1-0.1l0,0l-0.1-0.1c0.1,0,0,0,0.1,0.1s-0.2-0.1-0.1-0.1v0.1h0.2
					c-0.3-0.1,0-0.1-0.2-0.2c0.2,0.1,0.1,0,0.2,0.1h0.1c-0.1,0,0.1,0,0-0.1l0,0c-0.1-0.1,0.2-0.1,0-0.2s-0.2-0.1-0.2-0.2
					c0.1,0,0.1,0,0.1,0.1l0,0c0.1,0,0.1,0,0-0.1h0.1l-0.1-0.1c0.1,0,0.1,0,0.1,0.1l-0.1-0.1c0.1,0,0.1,0,0.1,0.1
					c0-0.1,0-0.1-0.1-0.1l0,0l0,0c-0.2,0,0,0.1,0,0.1l-0.2-0.1l0.1,0.1c-0.1,0-0.1,0-0.2-0.1h-0.1c-0.1,0,0.1,0.1,0,0.1l0,0
					c0,0.1,0.1,0,0.2,0.1h-0.2c-0.1,0,0,0.1-0.2,0.1h0.1c-0.2,0,0,0.1-0.1,0.1s0-0.1-0.1,0c0.2,0.1-0.1,0,0,0.1s0,0.1,0.1,0.1
					c-0.1,0.1-0.1,0.1-0.2,0.1l0,0c0.1,0,0.1,0,0.1,0.1l0,0c-0.1,0-0.1,0-0.2-0.1l0,0c0.1,0,0.1,0,0.1,0.1l0,0h-0.1
					c0,0,0.1,0.1,0,0.1c0.1,0,0.3,0,0.3,0.1s-0.1,0-0.2-0.1h-0.2l0.1,0.1h-0.1c0,0.1,0,0.1,0.1,0.1l0,0l0,0c0.1,0.1-0.1,0.1-0.1,0.2
					l0,0c0,0.1,0,0.1,0.1,0.1h-0.1c0,0,0.1,0,0,0.1l0,0c0,0-0.1,0,0,0.1l0,0v0.1h-0.1c-0.2,0,0.2,0.2,0,0.2l0,0
					c-0.1,0,0.2,0.1,0.1,0.1s0.2,0,0.2,0.1h-0.3c-0.1,0-0.1,0.1-0.1,0h0.1c-0.1,0,0,0.1-0.1,0.1h0.1c-0.1,0.1,0.1,0.1,0.1,0.1h-0.3
					c0.1,0.1-0.1,0.1-0.1,0.1l0,0c0.1,0,0.2,0,0.2,0.1s0,0.1-0.1,0c0.1-0.1-0.1,0-0.1-0.1l0,0c-0.1,0,0.1,0.1,0.1,0.1h0.1
					c-0.1,0,0,0,0,0.1l0,0c0.1,0,0.1,0,0.1,0.1h-0.1c0.1,0.1-0.1,0-0.1,0.1h-0.2c0.1,0.1-0.1,0,0,0.1h0.2l-0.1-0.1l0.1,0.1v-0.1h0.1
					c-0.2,0,0.1,0.1,0,0.1h-0.2c-0.1,0,0.1,0.1,0,0.2l0,0c0.1,0,0,0,0,0.1H362c0.1,0,0,0.1,0.1,0.1H362c-0.1,0.1,0.2,0.1,0.2,0.2
					s-0.1,0-0.2-0.1l0,0c-0.1,0,0.1,0.1,0,0.1h0.1c-0.3,0,0,0.2-0.2,0.2v0.1l0,0c-0.1,0,0.2,0.1,0.1,0.1h-0.1c-0.3,0,0,0.1-0.1,0.1
					l0,0c-0.1,0,0.1,0.1,0.1,0.1l0,0c0.1,0,0.2,0.1,0.2,0.2h-0.2c0,0,0.2,0,0.2,0.1h-0.2c-0.1,0,0,0.1,0,0.1h-0.1
					c0,0.1,0.2,0.1,0.2,0.2l0,0c0.2,0.1-0.1,0,0,0.1h-0.2c0.1,0,0.1,0.1,0.2,0.2c-0.1,0-0.1,0-0.2-0.1c0,0.1,0,0.1,0.1,0.1l0,0
					c0.1,0,0.1,0,0.2,0.1c-0.3,0-0.1,0.1-0.3,0.1c0.1,0.1-0.1,0.2-0.1,0.3h0.3l-0.2,0.1h-0.3c0.1,0,0.1,0,0.1,0.1h0.1
					c0.1,0.1-0.2,0-0.1,0.1h-0.1c0,0,0,0.1,0.2,0.2h-0.1c0,0.1,0.2,0.2,0.1,0.3h-0.1c0,0,0.1,0,0,0.1h-0.1l0.1,0.1h-0.1
					c-0.1,0.1,0.2,0.1,0.2,0.2c-0.1,0-0.2,0-0.3,0.1l0,0c0,0.1,0.1,0.2,0.2,0.3c-0.2,0-0.1,0.2-0.2,0.3h0.2c0,0,0.1,0.1,0,0.1l0,0
					c-0.2,0-0.1,0.1-0.1,0.1h0.2c-0.3,0.1,0.1,0.2-0.2,0.3c0.1,0,0.1,0,0.1,0.1l0,0h-0.1v0.2h-0.1l0.3,0.1h-0.2c0,0.1-0.2,0.1,0,0.2
					h-0.1c0,0-0.1,0.1,0.1,0.1c-0.2,0,0,0.1,0.1,0.1h-0.1c0.1,0,0.2,0,0.2,0.1s-0.1,0-0.1,0s0.1,0,0,0.1h-0.1l0.1,0.1
					c0.1,0.1,0,0.1-0.1,0.1c0.1,0,0.1,0,0.1,0.1h-0.1c-0.1,0.1,0.1,0.1,0,0.1h-0.1v-0.1h-0.3c0.1,0,0.3,0.1,0.2,0.1l0,0
					c-0.1,0,0,0-0.1,0.1h0.2c0,0,0.1,0,0,0.1h0.2c-0.2,0-0.2,0.1-0.3,0.1c0.1,0.1,0,0.2,0.3,0.2h-0.2c0.1,0,0,0.1,0.2,0.1h-0.1
					c-0.2,0.1,0.4,0.2,0.1,0.3h0.1c-0.1,0.2,0.1,0.3-0.1,0.5c0.1,0,0.1,0,0.1,0.1l0,0l0,0c0.1,0.1-0.3,0.1-0.1,0.2h0.1
					c0,0,0.1,0.1,0,0.1h-0.1l0.1,0.1c0,0.1-0.3,0-0.3,0.1c0.1,0,0.1,0,0.2,0.1h0.1c0.2,0,0.3,0,0.5-0.1h0.1c-0.1,0,0-0.1-0.1-0.1
					c0.1,0,0-0.1,0.2-0.1c-0.1,0-0.1,0-0.2-0.1c0.2,0,0-0.1,0.2-0.1c-0.2,0-0.1-0.1-0.2-0.1l0,0c0.1,0,0.1,0,0.1-0.1l0,0
					c-0.1,0-0.2,0-0.3-0.1h0.3c-0.1,0-0.1-0.1-0.2,0l0,0c0.1,0,0.2,0,0.1-0.1C362.8,310.1,362.9,310.1,362.9,310.1z"/>
				<path style="fill:#A7C09B;" d="M363.5,300.9"/>
				<path style="fill:#A7C09B;" d="M363.2,303.2"/>
				<path style="fill:#A7C09B;" d="M363.1,302.5"/>
				<path style="fill:#A7C09B;" d="M363.1,302.5"/>
				<path style="fill:#A7C09B;" d="M363.8,300.1L363.8,300.1C363.9,300.2,363.9,300.1,363.8,300.1z"/>
				<path style="fill:#A7C09B;" d="M363.8,300.4"/>
				<path style="fill:#A7C09B;" d="M363.2,300.5"/>
				<path style="fill:#A7C09B;" d="M363.1,300.7C363.1,300.6,363,300.7,363.1,300.7z"/>
				<path style="fill:#A7C09B;" d="M362.8,301.8L362.8,301.8z"/>
				<polygon style="fill:#A7C09B;" points="363.3,302.2 363.3,302.2 363.3,302.1 				"/>
				<path style="fill:#A7C09B;" d="M362.5,302.2L362.5,302.2z"/>
				<path style="fill:#A7C09B;" d="M362.2,304.1L362.2,304.1z"/>
				<path style="fill:#A7C09B;" d="M362.2,305"/>
				<path style="fill:#A7C09B;" d="M361.8,307.6L361.8,307.6z"/>
				<path style="fill:#A7C09B;" d="M368.6,301.5C368.5,301.5,368.5,301.4,368.6,301.5z"/>
				<path style="fill:#A7C09B;" d="M368.3,301.4c0,0.1,0.1,0.2,0.2,0.2L368.3,301.4c0.1,0,0.1,0,0.1,0.1v-0.1H368.3z"/>
				<path style="fill:#A7C09B;" d="M367.1,302.3"/>
				<path style="fill:#A7C09B;" d="M367.5,301.7l0.1,0.1L367.5,301.7z"/>
				<path style="fill:#A7C09B;" d="M367.2,302.1"/>
				<polygon style="fill:#A7C09B;" points="362.9,310.1 362.9,310.1 362.8,310.1 				"/>
				<path style="fill:#A7C09B;" d="M364.5,305.4c0.1,0,0.1,0.1,0.2,0.1C364.6,305.4,364.5,305.4,364.5,305.4z"/>
				<path style="fill:#A7C09B;" d="M363.8,309.2"/>
				<path style="fill:#A7C09B;" d="M364.5,307.4"/>
				<path style="fill:#A7C09B;" d="M363.8,309.5c-0.1-0.1-0.1-0.1-0.2-0.1C363.5,309.3,363.7,309.4,363.8,309.5
					c0-0.1-0.2-0.2-0.2-0.2h0.1c-0.1-0.1,0-0.1-0.1-0.2l0,0l-0.2-0.1h0.1c0.1,0,0,0,0.1,0.1l-0.1-0.1c0.1,0,0,0.1,0.2,0.1h-0.1
					c0.2,0,0,0,0.2,0.1s0-0.1,0-0.1s-0.1,0-0.2-0.1s0.3,0.1,0.2-0.1c-0.1,0-0.2-0.1-0.1-0.1l0.1,0.1c0,0-0.2-0.1-0.1-0.1
					s0,0.1,0.1,0.1s-0.1-0.1-0.1-0.1h0.1c0-0.1,0-0.1-0.1-0.2h0.1c0-0.1,0.1-0.2,0.2-0.2l-0.1-0.1h0.1c-0.1,0-0.1,0-0.1-0.1l0,0h0.1
					c-0.1-0.1-0.1-0.2,0-0.2l0,0c0.1,0-0.2-0.1-0.1-0.1l0,0c0.1-0.1,0-0.2,0.2-0.2c-0.2-0.1,0.1-0.1-0.1-0.2h0.3l-0.1-0.1l0.1,0.1
					l-0.1-0.1l0,0c0-0.1,0.1,0,0.2,0l-0.1-0.1c0.1,0,0.1,0,0.1,0.1l0,0h-0.1c0.1,0,0.1,0,0.1-0.1h0.1c0-0.1,0-0.1,0.1-0.2
					c-0.1,0-0.1,0-0.2-0.1l0.1,0.1c-0.1,0-0.1,0-0.1-0.1c0.1,0.1,0.1,0.1,0.2,0.1V307c0.1,0,0.1,0,0.1,0.1l0,0c-0.1-0.1,0.1,0,0-0.1
					l0,0v-0.2l-0.1-0.1c0.1,0,0.2,0,0.2-0.1c0-0.1,0-0.1-0.1-0.1l0,0c0.1,0,0.1,0,0.2,0.1v-0.2l0,0c-0.1-0.2,0.4,0,0.2-0.2l0,0
					l-0.1-0.1l0.1,0.1c-0.1-0.2,0.1-0.1,0-0.2c0.3,0.1,0.1-0.2,0.3-0.1h-0.1c-0.1-0.1,0,0,0.1,0h-0.1c0-0.2,0.3-0.2,0.4-0.3
					s-0.3-0.2-0.1-0.2l0.1,0.1c-0.1-0.2,0.1-0.2,0.1-0.4c0,0,0.1,0,0,0.1c0.1,0,0.1-0.1,0-0.1h0.1c0,0-0.1-0.1,0-0.1l0,0v-0.1
					c0.1,0,0-0.1,0.1-0.1c-0.1-0.1,0.1,0-0.1-0.1c0.2,0.1,0.2,0,0.1,0c0.1,0,0.1,0,0.1,0.1l0,0c0-0.1,0-0.1-0.1-0.1l0,0
					c0.2,0.1-0.1-0.2,0.2-0.1v-0.3c0.1,0.1,0,0.1,0.1,0.2c0-0.1-0.1-0.2,0-0.3c0.1,0,0.1,0,0.1,0.1l0,0c0-0.1,0.1-0.1,0.1-0.2l0,0
					V304l0,0l-0.2-0.2c0.2,0.2,0.1,0,0.3,0.2c0-0.1,0-0.1-0.1-0.1l0,0l0.1,0.1c0-0.1,0-0.1-0.1-0.1l0,0l0.1,0.1c0-0.1-0.1-0.1,0-0.1
					l0,0c0-0.1-0.1-0.2,0-0.2s0.1,0,0.2,0.1v-0.1h-0.1v-0.1h-0.1c0-0.1-0.2-0.1-0.1-0.1h0.1c0,0-0.1-0.1,0-0.1s0.1,0.1,0.2,0.1
					c-0.1-0.1,0-0.1-0.1-0.2l0.1,0.1l-0.1-0.1c0.1,0,0.1,0,0.1,0.1l0,0c0,0-0.2-0.1-0.1-0.1l0,0c0.1,0,0-0.1,0.1-0.1s0,0.1,0.1,0.1
					V303l0,0c-0.2-0.1,0.1,0,0.1-0.1l0.1,0.1c0.1,0,0-0.1,0-0.2h0.1l-0.1-0.1c0.3,0.1,0-0.2,0.2-0.1l0,0v-0.1l-0.1-0.1
					c-0.1,0-0.1-0.1,0-0.1s0.1,0.1,0.2,0.1l-0.1-0.1c0.2,0.1-0.1-0.1,0-0.1l0,0v-0.1c0.1,0.1,0,0.1,0.1,0.1s-0.1-0.2,0-0.1v0.1
					c0.1,0.1,0.1,0,0.1,0h0.1c-0.2-0.2,0-0.1-0.1-0.3c0.1,0.2,0.1,0.1,0.2,0.2c0.1,0,0.1,0,0.1,0.1l0,0c-0.1-0.1,0.1,0,0-0.1
					l0.1,0.1c-0.1,0-0.1,0-0.1-0.1l0,0c-0.1-0.1,0.2,0,0.1-0.1s-0.1-0.2-0.1-0.3l0.1,0.1c0.1,0,0.1,0,0.1-0.1l0.1,0.1
					c0,0-0.1-0.1,0-0.1l0.1,0.1v-0.2l0.1,0.1c0-0.1,0-0.1-0.1-0.2l0,0l0.1,0.1c0,0.1-0.1,0-0.1,0l0,0c-0.2-0.2,0,0.1-0.1,0.1
					l-0.1-0.1l0.1,0.1l-0.1-0.1c-0.1,0,0,0.1-0.1,0l0,0v0.1l-0.1-0.1c-0.1,0,0,0.1-0.1,0.1l0,0c0,0.1,0.1,0.1,0.2,0.2l-0.2-0.2
					l0.1,0.1h-0.1c0,0.1,0,0,0.1,0.1c-0.1-0.1,0,0.1-0.2,0c0.1,0.1,0.1,0,0.1,0.1c-0.2-0.1,0,0.1-0.1,0s0-0.1-0.1-0.1
					c0.1,0.1-0.1,0-0.1,0.1s0,0.1,0,0.2h-0.2c0.1,0.1,0.1,0.1,0.1,0.2l-0.1-0.1l0,0v0.1l-0.1-0.1v0.1l0.3,0.3l-0.1-0.1l0,0l-0.1-0.1
					c0,0,0.1,0.1,0,0.1l-0.1-0.1H367l0.1,0.1l-0.1-0.1l0.1,0.1H367c0,0.1,0,0.1,0.1,0.1l0,0l0,0c0,0.1,0,0.1-0.1,0.1l0,0l0,0v0.2
					c-0.1,0-0.1,0-0.1-0.1l0,0v0.1c-0.1,0-0.1,0,0-0.1s-0.1,0,0,0.1c-0.1-0.1-0.1-0.1-0.1,0h0.1l-0.1-0.1c-0.2,0,0.1,0.3-0.1,0.2
					c0.1,0.1,0.1,0,0.2,0.1l-0.2-0.1c-0.1,0,0.1,0.2,0,0.2l0.2,0.2c0.1,0.1-0.2-0.1-0.2-0.1l0,0c0-0.1,0-0.1-0.1-0.1l0,0h-0.1
					c0,0.1,0,0.1,0.1,0.1l0,0c-0.1,0,0,0.1-0.1,0.1h0.1c-0.1,0,0,0.1,0,0.1s-0.1-0.1-0.1,0c-0.1,0-0.1,0-0.1-0.1l0,0
					c0,0.1-0.1,0-0.1,0l0,0c0,0.1,0.1,0.1,0.2,0.2c-0.1,0,0,0.1-0.1,0c0.1,0-0.1-0.1-0.1-0.1l0,0c-0.1,0,0.1,0.1,0.1,0.2
					c-0.1,0-0.1,0-0.1-0.1l0,0l0.1,0.1c-0.1,0,0,0.1,0,0.1l0,0c0.1,0,0,0.1,0,0.1l0,0c0.1,0.1-0.1,0-0.1,0.1c-0.1,0-0.1,0-0.1-0.1
					l0,0c0,0.1-0.1,0-0.1,0.1s0.1,0,0.1,0.1v-0.1l0.1,0.1v-0.1c0,0.1,0,0.1,0.1,0.1c-0.1-0.1,0,0.1-0.1,0.1l-0.2-0.1
					c-0.1,0,0,0.2,0,0.2l0,0c0.1,0.1,0,0,0,0.1l-0.1-0.1l0.1,0.1H366c-0.1,0,0.1,0.2,0.1,0.2s-0.1-0.1-0.2-0.1v0.1
					c0,0,0.1,0.1,0,0.1l0.1,0.1l0,0c0,0.1,0,0.1,0.1,0.1l0,0c-0.2-0.1-0.1,0.1-0.3,0.1v0.1l0,0c-0.1,0,0.2,0.2,0.1,0.2
					s0-0.1-0.1-0.1s0,0.1-0.2,0l0,0c-0.1,0,0,0.1,0,0.1l0,0c0.1,0.1,0.1,0.1,0.1,0.2l-0.1-0.1l0.1,0.1c-0.1,0-0.1,0-0.2-0.1l0,0
					c-0.1-0.1,0,0-0.1,0l0,0c0,0.1,0.1,0.1,0.1,0.2l0,0c0.1,0.1-0.1,0,0,0.1l-0.1-0.1c0,0.1,0.1,0.1,0.1,0.2l-0.2-0.2v0.1l0,0
					c0.1,0.1,0.1,0.1,0.1,0.2c-0.3-0.2-0.1,0.1-0.4,0c0.1,0.1-0.1,0.1-0.2,0.2c0.2,0.1,0,0,0.2,0.2h-0.2c-0.1,0,0,0-0.1-0.1h-0.2
					c0.1,0,0.1,0,0.1,0.1l0,0h0.1c0.1,0.1-0.2-0.1-0.1,0.1l-0.1-0.1c0,0.1-0.1,0.1,0.1,0.2c-0.1,0-0.1,0-0.1-0.1l0,0
					c-0.1,0.1,0.1,0.3,0,0.3l0,0c0,0,0.1,0.1,0,0.1h-0.1c0,0,0.1,0.1,0,0.1l0,0c-0.1,0,0.1,0.2,0.1,0.3c-0.1-0.1-0.2-0.1-0.3,0
					c0,0,0,0,0,0l0,0c-0.1,0.1,0.1,0.2,0.1,0.3c-0.2,0-0.2,0.1-0.3,0.2c0.1,0,0.1,0,0.1,0.1s0.1,0.1-0.1,0l0,0c-0.2-0.1-0.1,0-0.2,0
					l0.2,0.1c-0.3-0.1,0,0.3-0.3,0.2c0,0.1,0,0.1,0.1,0.1l0,0h-0.1l-0.1,0.1h-0.1l0.3,0.2l-0.2-0.1c0,0.1-0.2,0.1-0.1,0.2h-0.1
					c0,0-0.2,0.1,0.1,0.2c-0.1-0.1,0,0.1,0,0.1l-0.1-0.1c0.1,0.1,0.2,0.1,0.2,0.2s-0.1,0-0.1,0s0.1,0.1,0,0.1h-0.1l0.1,0.1
					c0.1,0.1-0.1,0-0.1,0c0.1,0,0.1,0,0.1,0.1l0,0h-0.1c-0.1,0,0.1,0.1,0,0.1h-0.1v-0.1c-0.1,0-0.1,0-0.2-0.1
					c0.1,0.1,0.2,0.2,0.1,0.2h-0.1c0.1,0,0.1,0.1,0.2,0.1l0,0c0,0,0.1,0.1,0,0.1l0.2,0.1c-0.2,0-0.3,0-0.4-0.1c0,0.1,0,0.1,0.2,0.3
					h-0.1c0,0.1,0,0.1,0.1,0.2c-0.1,0-0.1-0.1-0.1,0l0,0c-0.3,0,0.3,0.3,0,0.3h0.1c-0.2,0.1,0,0.3-0.2,0.4s0,0.1,0.1,0.1h-0.1
					l0.1,0.1c0.1,0.1-0.3,0-0.2,0.1h0.1c0,0.1,0,0.1-0.1,0.1l0,0h-0.1l0.1,0.1c-0.1,0-0.2-0.1-0.3,0c0.1,0.1,0.1,0.1,0.2,0.1h0.1
					c0.2,0.1,0.3,0.1,0.5,0.1l-0.1-0.1h0.1c0.1,0,0,0,0-0.1h0.1l-0.2-0.1c0.1,0,0.1,0.1,0.2,0c-0.1,0-0.2,0-0.2-0.1h0.2
					c0-0.1,0-0.1-0.1-0.1l0,0c0.1,0,0-0.1,0.2,0l-0.1-0.1c0.2,0.1,0-0.1,0.2,0c-0.2-0.1,0-0.1-0.1-0.2h0.1c-0.1,0-0.2-0.1-0.3-0.2
					c0.2,0,0.2,0.1,0.3,0.1c-0.1,0-0.1-0.1-0.2-0.1C363.6,309.5,363.7,309.5,363.8,309.5L363.8,309.5L363.8,309.5z M363.9,308.4
					L363.9,308.4z"/>
				<polygon style="fill:#A7C09B;" points="364.5,307.5 364.5,307.5 364.5,307.6 				"/>
				<path style="fill:#A7C09B;" d="M366.9,303.2"/>
				<path style="fill:#A7C09B;" d="M366.9,303.3"/>
				<path style="fill:#A7C09B;" d="M368.5,301.6"/>
				<path style="fill:#A7C09B;" d="M368.3,301.8"/>
				<path style="fill:#A7C09B;" d="M367.8,301.7L367.8,301.7C367.8,301.6,367.7,301.6,367.8,301.7
					C367.6,301.5,367.8,301.6,367.8,301.7z"/>
				<path style="fill:#A7C09B;" d="M367.6,301.7"/>
				<path style="fill:#A7C09B;" d="M366.9,302.5"/>
				<path style="fill:#A7C09B;" d="M367.1,303l0.1,0.1L367.1,303z"/>
				<path style="fill:#A7C09B;" d="M366.5,302.7L366.5,302.7z"/>
				<path style="fill:#A7C09B;" d="M365.4,304.2l0.1,0.1C365.5,304.2,365.4,304.1,365.4,304.2z"/>
				<path style="fill:#A7C09B;" d="M365.1,304.9"/>
				<path style="fill:#A7C09B;" d="M363.7,306.9L363.7,306.9z"/>
				<path style="fill:#A7C09B;" d="M368.1,307.4"/>
				<path style="fill:#A7C09B;" d="M367.9,307.2c0,0.1,0.1,0.2,0.2,0.3L367.9,307.2c0,0.1,0,0.1,0.1,0.1l0,0v-0.1H367.9z"/>
				<path style="fill:#A7C09B;" d="M368,307.6"/>
				<path style="fill:#A7C09B;" d="M367.4,307.1l0.1,0.1C367.5,307.3,367.5,307.2,367.4,307.1z"/>
				<path style="fill:#A7C09B;" d="M365.7,308.5l0.2,0.2C365.8,308.6,365.8,308.5,365.7,308.5z"/>
				<path style="fill:#A7C09B;" d="M366.4,308"/>
				<path style="fill:#A7C09B;" d="M365.7,310.5c-0.1-0.1-0.1-0.1-0.2-0.1C365.4,310.4,365.6,310.5,365.7,310.5
					c-0.1-0.1-0.1-0.1-0.2-0.1h0.1l-0.1-0.1l0,0l-0.2-0.1h0.1l0.1,0.1l-0.1-0.1l0.1,0.1h-0.1l0.2,0.1v-0.1l-0.2-0.1
					c-0.1-0.1,0.3,0.1,0.2,0s-0.2-0.1-0.1-0.1l0.1,0.1c0,0-0.2-0.1-0.1-0.1h0.1c0.1,0-0.1-0.1-0.1-0.1l0.1,0.1l-0.1-0.1
					c0.1,0,0.1,0,0.1,0.1l0,0c0-0.1,0-0.1,0.1,0l-0.1-0.1h0.1c-0.1,0-0.1,0-0.1-0.1l0,0h0.1c-0.1-0.1-0.2-0.2,0-0.1l0,0
					c0.1,0-0.2-0.1-0.1-0.1l0,0c0.1,0,0-0.1,0.2,0c-0.1-0.1,0.1,0-0.1-0.1c0.1,0,0.1,0.1,0.2,0.1l-0.1-0.1l0.1,0.1l-0.1-0.1l0.1,0.1
					h-0.1c0.1,0,0.1,0,0.1,0.1l0,0l-0.1-0.1c0.1,0,0.1,0,0.1,0.1l0,0l0,0l-0.1-0.1h0.1l0.1,0.1v-0.1c-0.1,0-0.1-0.1-0.2-0.1l0.1,0.1
					c-1-0.7-1.3-2-0.6-3c0.7-1,2-1.3,3-0.6c1,0.7,1.3,2,0.6,3c-0.6,1-2,1.3-2.9,0.6c0,0,0,0-0.1,0l0,0l0.1,0.1l0,0v-0.1l-0.1-0.1
					h0.1l-0.1-0.1c0.1,0.1,0.1,0,0.1,0.1v-0.1c-0.1,0-0.1,0-0.1-0.1l0,0h0.1c-0.1-0.1,0.3,0.1,0.1,0l0,0l-0.1-0.1l0.1,0.1
					c-0.1-0.1,0.1,0,0-0.1c0.2,0.2,0-0.1,0.2,0h-0.1c0-0.1,0,0,0.1,0c-0.1,0-0.1,0-0.1-0.1l0,0c0-0.1,0.2,0,0.3,0s-0.3-0.3-0.1-0.2
					l0.1,0.1c-0.1-0.1,0.1-0.1,0-0.2s0.1,0.1,0,0.1c0.1,0.1,0,0,0-0.1c0.1,0,0.1,0,0.1,0.1l0,0l0,0l-0.1-0.1c0.1,0,0-0.1,0,0
					c-0.1-0.1,0.1,0-0.1-0.1c0.1,0.1,0.1,0.1,0.1,0l0.1,0.1l-0.1-0.1c0.2,0.1-0.1-0.2,0.1,0c0-0.1-0.1-0.1-0.1-0.2
					c0.1,0.1,0,0,0.1,0.2c0-0.1,0-0.1-0.1-0.2c0.1,0,0,0.1,0.1,0.1s0.1,0,0-0.1l0,0c-0.1-0.1-0.1-0.2-0.2-0.3c0.2,0.2,0.1,0,0.2,0.3
					c0-0.1,0-0.1-0.1-0.1l0,0c0.1,0,0.1,0,0.1,0.1l0,0l-0.1-0.1l0.1,0.1c0-0.1,0-0.1-0.1-0.1l0,0l0,0c0,0-0.1-0.2,0-0.2s0,0,0.1,0.2
					l0,0l-0.1-0.1l0,0l0,0c0-0.1-0.1-0.2-0.1-0.1l0.1,0.1l0,0c0,0-0.1-0.1,0-0.1l0.1,0.2c-0.1-0.1,0,0-0.1-0.2c0,0.1,0,0.1,0.1,0.1
					l0,0l-0.1-0.1l0.1,0.1l-0.1-0.1l0,0v-0.1l0.1,0.1c0,0-0.1-0.2,0-0.2l0,0c-0.1-0.2,0.1,0.1,0,0c0,0.1,0,0.1,0.1,0.1l0,0v-0.1h0.1
					c0-0.1,0-0.1-0.1-0.1l0,0c0.2,0.2,0-0.2,0.1,0l0,0v-0.1l-0.1-0.1c-0.1-0.1,0-0.1,0-0.1s0.1,0.1,0.1,0.2l-0.1-0.1
					c0.1,0.1-0.1-0.2,0-0.1l0,0v-0.1l0.1,0.1c0,0-0.1-0.2,0-0.1s0,0,0,0.1l0.1,0.1l0,0c-0.1-0.2,0-0.1-0.1-0.2
					c0,0.1,0.1,0.1,0.1,0.2c0,0.1,0,0.1,0.1,0.1l0,0c0-0.1,0.1,0.1,0-0.1c0,0.1,0,0.1,0.1,0.1l0,0c0-0.1,0-0.1-0.1-0.1l0,0
					c-0.1-0.1,0.1,0.1,0.1-0.1s-0.1-0.2-0.1-0.3l0.1,0.1l0,0c0,0.1,0,0.1,0.1,0.1l0,0c0,0-0.1-0.1,0-0.1l0.1,0.1l-0.1-0.1l0.1,0.1
					c0-0.1,0-0.1-0.1-0.2l0,0l0.1,0.1l-0.1-0.1l0,0l-0.1-0.1l0.1,0.1l-0.1-0.1c-0.1-0.1,0,0.1,0,0l0,0c0,0-0.1-0.1,0-0.1
					c-0.1-0.1,0,0.1,0,0l0,0c0,0.1,0.1,0.1,0.1,0.2l-0.2-0.2l0.1,0.1l0,0c0,0.1,0,0,0.1,0.1c-0.1-0.1,0,0.1-0.1-0.1
					c0,0.1,0,0.1,0.1,0.1l0,0c-0.1-0.2,0,0-0.1,0s0-0.1-0.1-0.1l0,0c0.1,0.1,0,0.1,0,0.1c-0.1,0-0.1,0-0.1-0.1l0,0l0,0
					c0.1,0.1,0,0.1,0.1,0.1l-0.1-0.1l0,0v0.1l-0.1-0.1v0.1c0.1,0.1,0.1,0.2,0.2,0.3l-0.1-0.1l0,0l0,0c0-0.1,0,0-0.1-0.1l0,0
					l-0.1-0.1c0,0.1,0,0.1,0.1,0.1l0,0l-0.1-0.1l0.1,0.1l-0.1-0.1l0.1,0.1l0,0c0,0.1-0.1,0-0.1,0l0,0v0.1l-0.1-0.1l0,0l-0.1-0.1
					l0.1,0.1l0,0l-0.1-0.1c-0.1-0.1,0.1,0.3-0.1,0.1c0.1,0.1,0.1,0,0.1,0.1l-0.2-0.1c0,0,0.1,0.2,0.1,0.1c0.1,0,0.2,0.1,0.2,0.2
					s-0.1,0.2-0.2,0.2c-0.1,0-0.2-0.1-0.2-0.2c0-0.1,0.1-0.1,0.2-0.2l0,0c0-0.1,0-0.1-0.1-0.1l0,0l0,0c-0.1,0-0.1,0-0.1-0.1l0,0
					c0,0.1,0,0.1,0.1,0.1l0,0h-0.1l0.1,0.1c-0.1,0,0,0.1,0,0.1c-0.1,0-0.1,0-0.1-0.1l0,0l-0.1-0.1c0,0.1-0.1,0-0.1,0l0,0l0.1,0.1
					l0,0c0,0.1,0.1,0.1,0.2,0.2s0,0.1-0.1,0l-0.1-0.1l0,0l0.1,0.1c0-0.1,0-0.1-0.1-0.1l0,0l0.1,0.1l0,0v0.1l0,0
					c0.1,0.1-0.1-0.1-0.1,0l-0.1-0.1c0,0.1-0.1-0.1,0,0l0.1,0.1v-0.1l0.1,0.1l0,0l0.1,0.1c-0.1-0.1,0,0.1,0,0l-0.2-0.2
					c-0.1-0.1,0.1,0.1,0,0.1l0,0c0.1,0.1,0,0,0,0.1l-0.1-0.1l0.1,0.1l-0.1-0.1l0.1,0.2c-0.1,0-0.1-0.1-0.1-0.2l0,0l0.1,0.1l0,0
					l0.1,0.1c-0.2-0.2,0,0.1-0.2-0.1v0.1l0,0c-0.1,0,0.2,0.2,0.1,0.1s0-0.1-0.1-0.1c-0.2-0.2,0,0-0.1,0l0,0c-0.1-0.1,0,0.1,0,0.1
					l0,0c0.1,0.1,0.1,0.1,0.1,0.2l-0.1-0.1l0.1,0.1c-0.1,0-0.1-0.1-0.2-0.1l0,0c0.1,0.1,0.1,0.1,0.1,0.2l0,0l-0.1-0.1
					c0,0.1,0.1,0.1,0.1,0.2l-0.2-0.2v0.1l0,0c0.1,0.1,0.1,0.1,0.1,0.2c-0.2-0.2-0.1,0-0.3-0.2c0.1,0.1-0.1,0-0.1,0.1
					c0.2,0.1,0,0,0.2,0.2l0,0l-0.1-0.1c-0.1,0,0,0-0.1-0.1l-0.1-0.1l0.1,0.1l0.1,0.1c0.1,0.1-0.2-0.1-0.1,0l-0.1-0.1l0.1,0.2
					c-0.1,0-0.1,0-0.1-0.1l0,0c0,0,0.1,0.2,0,0.1l0,0c0,0,0.1,0.1,0,0.1h-0.1c-0.1,0,0.1,0.1,0.1,0.2c-0.1-0.1-0.1-0.1-0.2-0.1l0,0
					c0.1,0.1,0.1,0.1,0.1,0.2c-0.2-0.1-0.1,0-0.2,0l0.1,0.1l0,0c-0.1-0.1-0.1,0-0.1,0l0.2,0.1c-0.3-0.1,0,0.1-0.2,0l0.1,0.1
					l-0.1-0.1c-0.1,0-0.1,0-0.1,0.1l0,0l-0.1-0.1l0.3,0.2l-0.2-0.1c0,0-0.2,0,0,0.1h-0.1c0,0-0.1,0,0.1,0.1c-0.1-0.1,0,0,0,0.1
					l-0.1-0.1c0.1,0,0.1,0.1,0.2,0.1h-0.1c-0.1,0,0.1,0.1,0,0.1h-0.1l0.1,0.1c0.1,0.1,0,0-0.1,0c0.1,0,0.1,0,0.1,0.1l0,0h-0.1
					c-0.1,0,0.1,0.1,0,0.1h-0.1c-0.1,0-0.1,0-0.2-0.1l0.2,0.2h-0.1c0.1,0,0.1,0.1,0.2,0.1l0,0l0.2,0.1c-0.1-0.1-0.2-0.1-0.3-0.1
					c0,0.1,0,0.1,0.2,0.2h-0.1l0.1,0.1c-0.1,0-0.1-0.1-0.1,0l0,0c-0.2-0.1,0.3,0.2,0,0.2l0,0c-0.2,0,0.1,0.2-0.2,0.1l0.1,0.1h-0.1
					l0.1,0.1c0.1,0.1-0.3-0.1-0.1,0h0.1c0,0,0,0.1-0.1,0h-0.1l0.1,0.1c-0.1,0-0.2-0.1-0.3-0.1c0.1,0,0.1,0.1,0.2,0.1h0.1
					c0.2,0.1,0.3,0.1,0.5,0.2l-0.1-0.1h0.2l-0.2-0.1c0.1,0,0.1,0.1,0.2,0.1c-0.1,0-0.1,0-0.2-0.1c0.1,0,0.1,0.1,0.1,0h0.1l-0.1-0.1
					h0.2l-0.1-0.1C365.6,310.6,365.4,310.5,365.7,310.5c-0.2,0-0.1,0-0.2-0.1l0,0C365.6,310.5,365.6,310.5,365.7,310.5
					c-0.1-0.1-0.2-0.1-0.3-0.2C365.5,310.4,365.6,310.4,365.7,310.5l-0.2-0.2C365.6,310.3,365.6,310.3,365.7,310.5
					c-0.2-0.2,0-0.1-0.1-0.2c0.1,0,0.2,0.1,0.1,0L365.7,310.5z"/>
				<path style="fill:#A7C09B;" d="M367.2,307.9"/>
				<path style="fill:#A7C09B;" d="M367.9,307.6L367.9,307.6C368,307.6,367.9,307.5,367.9,307.6z"/>
				<path style="fill:#A7C09B;" d="M367.6,307.2"/>
				<path style="fill:#A7C09B;" d="M367.5,307.2L367.5,307.2C367.4,307.1,367.4,307.2,367.5,307.2z"/>
				<path style="fill:#A7C09B;" d="M367.1,307.5"/>
				<polygon style="fill:#A7C09B;" points="367.3,308 367.4,308 367.3,307.9 				"/>
				<path style="fill:#A7C09B;" d="M366.2,308"/>
				<path style="fill:#A7C09B;" d="M366,308.4"/>
				<path style="fill:#A7C09B;" d="M252,282.7"/>
				<path style="fill:#A7C09B;" d="M251.8,282.9h0.2C251.9,282.9,251.9,282.8,251.8,282.9z"/>
				<path style="fill:#A7C09B;" d="M252.1,286"/>
				<path style="fill:#A7C09B;" d="M251.9,284.8"/>
				<path style="fill:#A7C09B;" d="M251.6,284L251.6,284z"/>
				<polygon style="fill:#A7C09B;" points="255.1,296 255.1,296 255,296 				"/>
				<path style="fill:#A7C09B;" d="M252.8,290c0.1-0.1,0.1,0,0.2-0.1C253,290,252.8,290,252.8,290z"/>
				<path style="fill:#A7C09B;" d="M252.2,286.8"/>
				<path style="fill:#A7C09B;" d="M253.3,287.6"/>
				<path style="fill:#A7C09B;" d="M255.4,294.7c0-0.1-0.1,0-0.2,0H255.4c-0.1-0.1-0.2-0.1-0.3-0.1h0.1c-0.1,0,0-0.1-0.2-0.1l0,0
					c-0.1,0-0.1,0.1-0.2,0.1h0.1c0.1-0.1,0.1,0,0.2,0c-0.1,0-0.2,0-0.2-0.1s0.1,0.1,0.2,0v0.1l0.2-0.1c0-0.1,0-0.1-0.1-0.1h0H255
					c-0.2-0.1,0.3-0.2,0.1-0.2s-0.3,0.1-0.2,0h0.2c0-0.1-0.2,0-0.2-0.1h0.1c0.1-0.1-0.1,0-0.1,0l0.1-0.1c0-0.1-0.2-0.1-0.2-0.2h0.1
					c-0.1-0.1-0.1-0.2,0-0.3c0,0,0,0,0,0l0,0c-0.1,0-0.3-0.1-0.2-0.2l0,0c0-0.1-0.3,0-0.2-0.1l0,0c0-0.1-0.1-0.2,0-0.4
					c-0.2,0,0-0.1-0.2-0.1l0.2-0.2h-0.2l0.1-0.1h-0.1c0-0.1,0-0.1,0.1-0.2l-0.1-0.1h0.1c-0.1,0,0.1,0,0-0.1h-0.1c0,0,0.1-0.1,0-0.1
					h0.1c0-0.1-0.1-0.2-0.1-0.3l-0.2,0.1l0,0c0.1-0.1,0.1-0.1,0.2-0.1l0,0c-0.1,0,0.1-0.1,0-0.1l0,0c0-0.1-0.1-0.1-0.1-0.2H254
					c0-0.1,0-0.1,0.1-0.2c0-0.1-0.1,0-0.2,0c0.1,0,0.1-0.1,0.2-0.1s-0.1-0.1-0.2-0.2h-0.1c0-0.1,0-0.1,0.1-0.1h0l0,0
					c-0.2-0.1,0.2-0.3,0-0.4l0,0l-0.1-0.1h0.1c-0.2-0.1,0-0.2-0.2-0.2c0.3-0.1-0.1-0.2,0.1-0.4h-0.1c-0.1,0,0,0,0-0.1h-0.1
					c-0.1-0.2,0-0.4,0-0.6s-0.4,0-0.2-0.1h0.1c-0.2-0.1-0.1-0.3-0.2-0.4h0.1c0.1-0.1,0-0.1-0.1-0.1h0.1c0,0-0.1,0,0-0.1l0,0
					c0-0.1,0-0.1-0.1-0.1h0c0-0.1-0.1-0.1,0-0.2c-0.1,0,0-0.1-0.1-0.1c0.2,0,0.1-0.1,0-0.1h0.1c0,0-0.1-0.1-0.1,0
					c0.2-0.1-0.2-0.1,0.1-0.2l-0.3-0.3c0.2,0,0,0.1,0.2,0.1c-0.1-0.1-0.3-0.1-0.2-0.2h0.1c-0.1-0.1,0-0.2-0.1-0.3l0,0
					c-0.1,0.1-0.3,0-0.3,0c0.2,0,0-0.1,0.3-0.1l0,0c-0.1-0.1-0.1,0-0.2-0.1h0.1c-0.1,0-0.2,0-0.1-0.1s0.1,0,0.1,0s-0.2-0.1-0.2-0.2
					c0.2,0,0.1,0,0.2-0.1h-0.2l-0.1-0.1h0.1l0,0h-0.2l0.1-0.1l0,0c-0.1,0-0.1,0-0.1-0.1h0.2c-0.1,0-0.1-0.1-0.2-0.1h0.1
					c0-0.1-0.2,0.1-0.1,0l0,0c0-0.1-0.1-0.1-0.1-0.2h0.2c0-0.1-0.2-0.2-0.2-0.3l0,0c-0.2,0,0.1-0.1,0-0.1h0.1c0-0.1-0.1-0.1-0.2-0.2
					h0.1v-0.1h-0.1c0.3-0.2-0.2-0.2,0-0.4h0.1l-0.1-0.1c-0.1,0-0.1,0-0.1,0.1l0,0h-0.1c0.1,0,0.1,0,0.2-0.1h-0.1
					c0.2-0.1-0.2,0-0.1-0.1l0,0c-0.1,0-0.1,0-0.1-0.1l0,0h0.1c0,0-0.2,0-0.1-0.1h0.1l0.1-0.1l0,0v-0.1l0,0c-0.3,0-0.1-0.1-0.3-0.1
					h0.2c0,0,0.1-0.1,0.1,0s0.1-0.1-0.1-0.1l0,0c-0.1,0,0.1-0.2-0.1-0.2c-0.1-0.1-0.2-0.1-0.3-0.1h0.1c0.1,0,0-0.1,0-0.1h0.2
					c-0.1,0-0.1,0-0.2-0.1h0.2c0-0.1-0.1-0.1-0.2-0.1h0.1c0.1,0,0,0.1-0.1,0.1l0,0c-0.2,0.1,0.1,0.1,0,0.1h-0.3c-0.1,0,0.1,0,0,0.1
					l0,0c-0.1,0.1,0.1,0.1,0,0.1l0,0c0.1,0.1,0.1,0,0.3,0l-0.3,0.1h0.1c-0.1,0.1,0.1,0.1-0.1,0.2c0.1,0,0.1-0.1,0.1,0
					c-0.2,0,0,0,0,0.1s-0.1,0-0.1,0c0.2,0,0,0.1,0,0.1c0.1,0,0.1,0,0.1,0.1l0,0c-0.1,0.1-0.1,0.1-0.1,0.2l0,0c0.2,0,0.1,0,0.2,0.1
					h-0.2c0,0,0.2,0.1,0.1,0.2c0.1,0,0.3-0.1,0.4,0h-0.3l-0.1,0.1h0.1c-0.1,0-0.1,0-0.1,0.1l0,0l0,0c0.1,0,0,0.1,0.2,0.1l0,0
					c0.1,0.1,0,0.2,0,0.3l0,0c0.1,0,0,0.1,0.1,0.1h-0.1c0,0,0.1,0,0,0.1h-0.1c0,0.1-0.1,0.1,0,0.1c-0.1,0-0.1,0-0.1,0.1l0,0h0.1v0.1
					h-0.1c-0.1,0.1,0.3,0.1,0.1,0.3c0.1,0,0.1-0.1,0.2-0.1s-0.2,0.1-0.2,0.2s0.2,0,0.2,0.1s0.2-0.1,0.2,0s-0.2,0.1-0.2,0.1h-0.1
					c0,0.1,0,0.1-0.1,0.1h0h0.1c-0.1,0.1,0,0.1,0,0.2h0.1c0,0.1,0.1,0,0.1,0.1s-0.2,0-0.1,0.1h-0.2c0.1,0,0,0.1,0,0.2h0.3
					c0,0,0.1,0.1-0.1,0.1c0-0.1-0.1,0-0.2,0l0,0c-0.1,0.1,0.1,0,0.2,0.1c-0.1,0-0.1,0-0.1,0.1h0.2c0,0.1,0.1,0,0.1,0.1l0,0
					c0.1,0-0.1,0.1,0,0.1c-0.1,0-0.1,0-0.2,0.1c0.1,0-0.1,0.1,0,0.1h0.2l-0.1-0.1h0.2c-0.1,0-0.1,0-0.1-0.1l0,0h0.1
					c-0.1,0.1,0.1,0.1,0,0.1l-0.2,0.1c-0.1,0.1,0.2,0.1,0.1,0.2l0,0c0.1,0,0,0,0.1,0.1c-0.1,0-0.1,0-0.2,0.1c0.1,0,0,0.1,0.2,0
					l-0.1,0.1c0,0.1,0.2,0,0.2,0.1h-0.2c0.1,0,0.1,0,0.1,0.1l0,0h0.2c-0.2,0.1,0.1,0.2-0.1,0.3l0.1,0.1l0,0c-0.1,0.1,0.2,0,0.2,0.1
					s-0.1,0-0.1,0c-0.3,0.1,0.1,0.1-0.1,0.2l0,0c-0.1,0.1,0.1,0.1,0.1,0.1l0,0c0.1,0,0.2,0,0.3,0.1l0,0c-0.1,0.1-0.1,0.1-0.2,0.1
					l0,0c-0.1,0.1,0,0.1,0,0.1l0,0c0,0.1,0.2,0,0.2,0.1l0,0c0.2,0-0.1,0.1,0,0.1l-0.2,0.1c0.1,0,0.1,0,0.2,0.1c-0.1,0-0.2,0-0.3-0.1
					c0,0.1,0,0.1,0.1,0.1h0l0,0c0.1,0,0.2,0,0.2,0.1c-0.3,0.1,0,0.2-0.3,0.3c0.1,0.1,0,0.2,0.1,0.3c0.2-0.1,0,0,0.3,0l0,0l-0.1,0.1
					h-0.1c-0.1,0.1-0.1,0.1-0.2,0.1h0.1l0.1-0.1c0.2,0-0.2,0.1,0,0.2h-0.1c0.1,0,0,0.2,0.2,0.1h-0.1c0,0.1,0.3,0.2,0.2,0.3h-0.1
					c0.1,0,0.1,0,0.1,0.1l0,0h-0.1c-0.1,0.1,0.2,0.1,0.3,0.2c-0.1,0-0.2,0.1-0.2,0.2l0,0c0,0.1,0.2,0.2,0.3,0.2
					c-0.2,0.1,0,0.2-0.1,0.4h0.2c0,0,0.1,0,0,0.1l0,0l-0.1,0.1l0.2-0.1c-0.3,0.2,0.2,0.2-0.1,0.4l0,0v0.2h-0.1c0,0.1,0.3,0,0.4,0
					l-0.2,0.1c0,0.1-0.1,0.2,0.1,0.3h-0.1c0,0-0.1,0.2,0.2,0.1c-0.1,0,0,0.1,0.1,0.1l0,0c0,0.1,0.1,0,0.1,0.1l0,0
					c0.1,0,0,0.1-0.1,0.1l0,0c0,0.1,0.2,0.1,0.1,0.2h-0.1V294c-0.1,0-0.1,0.1-0.3,0.1c0.1,0,0.3,0,0.2,0.1l0,0c-0.1,0,0,0.1,0,0.1
					s0.1,0,0.2-0.1l0,0v-0.1h0.3c-0.1,0.1-0.2,0.2-0.3,0.2c0.1,0,0.1,0.2,0.3,0.1l-0.1,0.1h-0.1c0.1,0,0.1,0.1,0.2,0.1
					s-0.1,0-0.1,0.1l0,0c-0.2,0.2,0.4,0.1,0.2,0.4l0,0c-0.1,0.2,0.2,0.3,0.1,0.6c0,0.1,0.1,0,0.1,0l0,0c0.1,0-0.2,0.2,0,0.3h0.1
					c0,0,0.1,0.1,0,0.1l0,0c0,0.1-0.2,0.1-0.2,0.2h0.2l0.1-0.1l0,0c0.2,0,0.3-0.1,0.5-0.2l0,0c0.1-0.1,0,0-0.1,0
					c0.1,0,0.1,0,0.1-0.1l0,0h-0.2c0.1,0,0.1,0,0.2-0.1c-0.1,0-0.1,0.1-0.2,0.1l0.1-0.1h0.1c-0.1,0,0-0.1-0.1,0
					c0.1-0.1-0.1-0.1,0.1-0.1h-0.2c0.2,0,0-0.1,0.2-0.2c-0.2,0-0.1-0.1-0.2-0.1l0,0l0.1-0.1h-0.3
					C254.9,295.1,255.1,294.9,255.4,294.7c-0.1,0.1-0.1,0-0.2,0.1C255.2,294.7,255.3,294.7,255.4,294.7c-0.2,0.1-0.1,0-0.2,0
					C255.3,294.6,255.4,294.6,255.4,294.7C255.3,294.6,255.4,294.6,255.4,294.7z"/>
				<path style="fill:#A7C09B;" d="M252.2,284"/>
				<path style="fill:#A7C09B;" d="M252.5,285.9"/>
				<path style="fill:#A7C09B;" d="M252.5,285.9"/>
				<path style="fill:#A7C09B;" d="M252.1,283.3"/>
				<path style="fill:#A7C09B;" d="M251.7,283.7L251.7,283.7C251.7,283.6,251.6,283.7,251.7,283.7
					C251.5,283.7,251.7,283.6,251.7,283.7z"/>
				<path style="fill:#A7C09B;" d="M251.9,285.3L251.9,285.3z"/>
				<polygon style="fill:#A7C09B;" points="252.5,285.5 252.6,285.4 252.5,285.4 				"/>
				<path style="fill:#A7C09B;" d="M251.8,285.8L251.8,285.8z"/>
				<path style="fill:#A7C09B;" d="M252.4,288.1h0.1C252.4,288,252.3,288.1,252.4,288.1z"/>
				<path style="fill:#A7C09B;" d="M252.7,289.1"/>
				<polygon style="fill:#A7C09B;" points="253.3,292.1 253.3,292.1 253.3,292.2 				"/>
				<path style="fill:#A7C09B;" d="M256.9,290.1"/>
				<path style="fill:#A7C09B;" d="M256.6,290.2h0.1C256.6,290.1,256.6,290.1,256.6,290.2z"/>
				<path style="fill:#A7C09B;" d="M256.2,290.6L256.2,290.6z"/>
				<path style="fill:#A7C09B;" d="M255.9,293.2L255.9,293.2z"/>
				<path style="fill:#A7C09B;" d="M256.7,295.3h-0.1C256.6,295.4,256.7,295.4,256.7,295.3z"/>
				<path style="fill:#A7C09B;" d="M256.8,295.5L256.8,295.5c-0.1,0-0.1,0-0.2-0.1h0.1c-0.1,0,0-0.1-0.2-0.1h0.1
					c0,0-0.2-0.1-0.1-0.1h0.3c0,0-0.1,0,0-0.1h-0.2c-0.1,0,0.4,0,0.2-0.1l0,0c0,0-0.2,0-0.1-0.1h0.1l-0.1-0.1h0.1
					c-0.1-0.1,0-0.1,0.1-0.1l0,0c-0.1,0-0.2-0.1-0.1-0.1l0,0c0.1,0-0.2,0-0.1-0.1l0,0c0.1-0.1,0-0.1,0.1-0.1c-0.2,0,0.1,0-0.2-0.1
					h0.2l-0.1-0.1l0,0c0.1,0,0.1,0,0-0.1h0.1V294l0,0v-0.1h-0.2c0.1,0,0.1,0,0.1-0.1l0,0l0,0l-0.1-0.1h0.1c-0.2-0.1,0.3-0.1,0.1-0.2
					l0,0l-0.1-0.1h0.1c-0.2-0.1,0-0.1-0.1-0.1c0.3,0,0-0.1,0.2-0.1h-0.1c-0.1-0.1,0.1-0.2,0.2-0.3s-0.4,0-0.2-0.1h0.1
					c-0.2-0.1,0-0.1-0.1-0.2h0.1c0.1,0,0,0-0.1-0.1l0,0c0.1,0,0,0,0-0.1s0.1,0-0.1-0.1c0.2,0,0.2,0,0.1-0.1l0,0
					c0.2,0-0.2-0.1,0.1-0.1c-0.1,0-0.1-0.1-0.2-0.2c0.2,0,0,0.1,0.2,0.1c-0.1,0-0.1,0-0.2-0.1h0.1c-0.1,0,0-0.1-0.1-0.1h-0.1
					c-0.1,0-0.2,0-0.3-0.1h0.4c-0.1,0-0.1,0-0.1-0.1l0,0h0.1c-0.1,0-0.2,0-0.1-0.1h0.1c0,0-0.2-0.1-0.1-0.1h0.1
					c-0.1,0-0.1,0-0.1-0.1l0,0l0,0c-0.1,0,0,0-0.2-0.1h0.2c0,0-0.1-0.1,0-0.1h0.2c0,0-0.2-0.1-0.1-0.1h0.1c0-0.1,0-0.1-0.1-0.1l0,0
					h0.1l0.1-0.1h-0.1c0.3,0-0.2-0.1,0.1-0.1h-0.2c0,0-0.2,0-0.1-0.1h0.3c-0.3,0,0,0-0.2-0.1h0.2c-0.1,0,0.2,0,0-0.1
					s-0.2-0.1-0.3-0.1h0.3c-0.1,0-0.1,0-0.1-0.1l0,0h0.1c-0.1-0.1-0.1-0.1-0.2-0.1l0,0c-0.2,0,0,0,0,0.1h-0.4c-0.1,0,0.1,0.1,0,0.1
					l0,0c0.1,0,0.1,0,0.3,0.1h-0.2c-0.1,0,0,0.1-0.1,0h-0.2c0.1,0,0.1,0,0.1,0.1c-0.1,0-0.1,0-0.1,0.1l0,0l0,0c0.1,0,0.1,0,0.1,0.1
					H256l0.1,0.1l0,0c0.1,0,0,0.1,0.1,0l0,0c0.1,0-0.1,0.1,0,0.1l0,0c0,0.1,0,0.1,0.1,0.1l0,0H256c-0.2,0,0.3,0.1,0,0.1l0,0
					c-0.1,0,0.2,0,0.1,0.1H256c-0.1,0,0,0-0.1,0.1h0.1c-0.1,0,0.1,0,0.1,0.1h-0.3c0.1,0-0.1,0-0.1,0.1l0,0c-0.1,0,0.1,0,0.1,0.1h0.1
					c0.1,0-0.1,0,0,0.1h0.1c-0.1,0,0.1,0,0,0.1h-0.2c-0.1,0,0.1,0.1,0.1,0.1h-0.1l0.2,0.1l0,0c-0.3,0,0,0.1-0.2,0.1l0.1,0.1l0,0
					c-0.1,0,0.2,0,0.1,0.1s-0.1,0-0.1,0h-0.1c-0.1,0,0.1,0,0.1,0.1l0,0c0.1,0,0.1,0,0.2,0.1h-0.3c0,0,0.2,0,0.2,0.1h-0.2
					c0.1,0,0.1,0,0.2,0.1c-0.1,0-0.2,0-0.2-0.1l0.1,0.1l0,0c0.1,0,0.1,0,0.2,0.1c-0.3,0-0.1,0.1-0.3,0.1c0.1,0.1-0.1,0.1,0,0.1l0,0
					c0.1,0-0.2,0-0.1,0.1h-0.1c0,0,0,0.1,0.2,0.1h-0.1c0,0,0.2,0.1,0.1,0.1h-0.1c-0.1,0,0.2,0.1,0.2,0.1h-0.3c0,0.1,0.1,0.1,0.2,0.2
					c-0.2,0-0.1,0.1-0.2,0.1h0.3c-0.3,0,0.1,0.1-0.2,0.1l0,0v0.1h-0.1l0.3,0.1h-0.2c0,0-0.2,0.1,0,0.1h-0.1c0,0-0.1,0.1,0.1,0.1
					c-0.2,0,0,0,0,0.1h-0.1c0.1,0,0.2,0,0.2,0.1h-0.2c-0.1,0,0.1,0.1,0,0.1h-0.4c0.1,0,0.1,0,0.2,0.1l0,0c0.1,0.1,0.1,0.1,0.2,0.1
					h-0.1c0.1,0,0,0.1,0.2,0.1h-0.1c-0.2,0,0.4,0.1,0.1,0.2h0.1c-0.1,0.1,0.1,0.2-0.1,0.2h0.1c0.1,0-0.3,0-0.1,0.1h-0.2
					c0.1,0,0.1,0.1,0.2,0.1h0.9c-0.2,0-0.1-0.1-0.2-0.1h0.1c-0.1,0-0.2,0-0.3-0.1C256.4,295.3,256.6,295.4,256.8,295.5
					c-0.2-0.1-0.2-0.1-0.3-0.1h0.1C256.7,295.4,256.7,295.4,256.8,295.5z"/>
				<path style="fill:#A7C09B;" d="M256.8,294.3L256.8,294.3z"/>
				<path style="fill:#A7C09B;" d="M256.9,290.4"/>
				<path style="fill:#A7C09B;" d="M256.4,290.5L256.4,290.5C256.2,290.5,256.4,290.4,256.4,290.5z"/>
				<path style="fill:#A7C09B;" d="M256.3,290.5L256.3,290.5C256.2,290.6,256.3,290.6,256.3,290.5z"/>
				<path style="fill:#A7C09B;" d="M256.3,291.2h-0.1C256.2,291.2,256.2,291.1,256.3,291.2z"/>
				<polygon style="fill:#A7C09B;" points="256,291.3 256,291.3 256.1,291.3 				"/>
				<path style="fill:#A7C09B;" d="M256,292.4h0.1C256.1,292.4,255.9,292.3,256,292.4z"/>
				<path style="fill:#A7C09B;" d="M256.1,292.8"/>
				<path style="fill:#A7C09B;" d="M255.8,294.1L255.8,294.1z"/>
				<path style="fill:#A7C09B;" d="M259.3,289.8C259.3,289.7,259.2,289.7,259.3,289.8z"/>
				<path style="fill:#A7C09B;" d="M259.1,289.7c0.1,0.1,0.2,0.1,0.3,0.2C259.2,289.8,259.3,289.8,259.1,289.7c0.1,0,0.1,0,0.2,0.1
					l0,0L259.1,289.7z"/>
				<path style="fill:#A7C09B;" d="M258.5,290l0.1,0.1L258.5,290z"/>
				<polygon style="fill:#A7C09B;" points="257,296.9 257,296.9 256.9,296.9 				"/>
				<path style="fill:#A7C09B;" d="M257.1,293.3c0.1,0,0.1,0.1,0.2,0.1C257.2,293.3,257.2,293.3,257.1,293.3z"/>
				<path style="fill:#A7C09B;" d="M257.6,296.1h-0.1C257.5,296.1,257.6,296.2,257.6,296.1z"/>
				<path style="fill:#A7C09B;" d="M259.2,290"/>
				<path style="fill:#A7C09B;" d="M257.7,296.3L257.7,296.3c-0.1-0.1-0.1-0.1-0.2-0.1h0.1c-0.1,0,0-0.1-0.2-0.1h0.1
					c0,0-0.2-0.1-0.1-0.1s0,0.1,0.2,0h0.1c0,0-0.1-0.1,0-0.1h-0.2c-0.1-0.1,0.4,0,0.2-0.1s-0.3,0-0.2-0.1h0.2c0,0-0.2,0-0.1-0.1
					s0,0,0.1,0l0,0c-0.1-0.1-0.1-0.1-0.1-0.2h0.1c-0.1-0.1,0-0.1,0.1-0.2l0,0c-0.1,0-0.2-0.1-0.1-0.2l0,0c0.1,0-0.2-0.1-0.1-0.1l0,0
					c0.1-0.1,0-0.2,0.2-0.2c-0.2,0,0.1-0.1-0.2-0.1h0.3c-0.1,0-0.1,0-0.2-0.1h0.3l-0.1-0.1h0.1c-0.1-0.1,0.1,0,0,0h-0.1
					c0.1,0,0.1,0,0.1-0.1h0.1v-0.2h0.1c-0.1,0,0.1,0,0-0.1l0,0v-0.1c-0.1,0-0.1,0-0.2-0.1c0.1,0,0.1,0,0.1-0.1l0,0
					c-0.1,0-0.1,0-0.2-0.1h0.2c0-0.1,0-0.1-0.1-0.1l0,0l0,0c-0.1-0.1,0.3-0.1,0.1-0.2l0,0l-0.1-0.1h0.1c-0.2-0.1,0-0.1-0.1-0.2
					c0.3,0,0-0.1,0.2-0.1h-0.1c-0.1-0.1,0.2-0.2,0.3-0.3s-0.4-0.1-0.2-0.1l0.1,0.1c-0.1-0.1,0.1-0.2,0-0.3h0.1c0.1,0,0-0.1-0.1-0.1
					h0.1c0,0-0.1-0.1,0-0.1l0,0l-0.1-0.1c0.1,0,0-0.1,0-0.1s0.1,0-0.1-0.1c0.2,0.1,0.2,0,0.1,0h0.1c0-0.1,0-0.1-0.1-0.1l0,0
					c0.2,0-0.1-0.1,0.1-0.1c-0.1-0.1-0.1-0.1-0.1-0.2c0.2,0.1,0,0.1,0.2,0.1c-0.1-0.1-0.2-0.2-0.1-0.2h0.1c-0.1-0.1,0.1-0.1,0-0.2
					l0,0c-0.1,0-0.2-0.1-0.3-0.2c0.2,0.1,0.1,0,0.3,0.1c-0.1,0-0.1,0-0.1-0.1l0,0h0.1l-0.1-0.1h0.1c-0.1,0-0.1,0-0.1-0.1l0,0l0,0
					c0,0-0.2-0.2-0.1-0.2s0.1,0,0.2,0.1h-0.1c0,0-0.1-0.1,0-0.1h0.1v-0.1h-0.1c-0.1-0.1-0.2-0.1-0.1-0.1h0.1c0,0-0.1-0.1,0-0.1
					l0.2,0.1c-0.1-0.1,0-0.1-0.1-0.1l0.1,0.1l0,0c0,0-0.2-0.1-0.1-0.1l0,0c0.1,0,0-0.1,0-0.1l0.1,0.1c0-0.1,0-0.1-0.1-0.2l0,0
					c-0.2-0.1,0.1,0,0-0.1h0.1c0-0.1,0-0.1-0.1-0.2h0.1l-0.1-0.1c0.3,0.1-0.1-0.2,0.2-0.1l0,0v-0.1h-0.1l-0.1-0.1
					c0.1,0,0.1,0.1,0.2,0.1h-0.1c0.2,0-0.2-0.1,0-0.1l0,0c0,0-0.1-0.1,0-0.1s0,0,0.1,0.1s-0.2-0.1-0.1-0.1v0.1h0.2
					c-0.2-0.2,0-0.1-0.2-0.2c0.1,0.1,0.1,0.1,0.2,0.1h0.1c-0.1-0.1,0.1,0,0-0.1h0.1c-0.1,0-0.1,0-0.1-0.1l0,0c-0.1-0.1,0.2,0,0-0.1
					c0-0.1-0.2-0.1-0.2-0.2c0.1,0,0.1,0,0.1,0.1l0,0h0.1l-0.1-0.1l0.1,0.1l-0.1-0.1l0.1,0.1c0-0.1,0-0.1-0.1-0.1l0,0l0,0
					c0.1,0,0.1,0,0.1,0.1l0,0c0.1,0.1,0,0-0.1,0l0,0c-0.2-0.1,0,0.1,0,0.1l-0.1-0.1l0.1,0.1c-0.1,0-0.1,0-0.1-0.1l0,0l-0.1-0.1
					c-0.1,0,0.1,0.1,0,0.1l0,0c0,0.1,0.1,0.1,0.2,0.2l-0.3-0.1l0.1,0.1h-0.1l0.1,0.1c-0.1,0,0,0.1-0.2,0c0.1,0.1,0.1,0,0.1,0.1
					c-0.2-0.1,0,0-0.1,0s0,0-0.1-0.1c0.2,0.1-0.1,0,0,0.1s0,0.1,0.1,0.1h-0.2l0.1,0.1c-0.1,0-0.1,0-0.1-0.1l0,0l0,0
					c0.1,0,0.1,0,0.1,0.1l0,0l-0.1-0.1c0,0,0.1,0.1,0,0.1c0.1,0,0.3,0.1,0.3,0.2s-0.1-0.1-0.2-0.1l0,0l-0.1-0.1c0.1,0,0.1,0,0.1,0.1
					l0,0h-0.2c0.1,0,0.1,0,0.1,0.1l0,0h-0.1l0.1,0.1h-0.1c0,0.1,0,0.1,0.1,0.1l0,0l0,0c0.1,0.1-0.1,0.1-0.1,0.1l0,0
					c0,0.1,0,0.1,0.1,0.1l0,0h-0.1c0,0,0.1,0.1,0,0.1l0,0c0,0-0.1,0,0,0.1c-0.1-0.1-0.1,0-0.1,0h0.1l-0.1-0.1
					c-0.2,0,0.2,0.2-0.1,0.1c0.1,0,0.1,0,0.2,0.1h-0.2c-0.1,0,0.2,0.1,0.1,0.1c0.1,0,0.1,0.1,0.2,0.1c-0.1,0-0.2,0-0.2-0.1h-0.1
					c-0.1,0,0,0-0.1,0.1h0.1c-0.1,0,0.1,0.1,0.1,0.1s-0.2-0.1-0.1,0c-0.1,0-0.1,0-0.2-0.1c0.1,0.1-0.1,0-0.1,0l0,0
					c0.1,0,0.1,0,0.2,0.1c0,0,0,0.1-0.1,0c0.1,0-0.1,0-0.1-0.1l0,0c-0.1,0,0.1,0.1,0.1,0.1h-0.1c0.1,0,0.1,0,0.2,0.1
					c-0.1,0,0,0,0,0.1l0,0c0.1,0,0.1,0,0.1,0.1h-0.1c0.1,0.1-0.1,0-0.1,0.1h-0.2c0.1,0.1-0.1,0,0,0.1s0.1,0,0.2,0.1v-0.1l0.1,0.1
					v-0.1c0.1,0,0.1,0,0.1,0.1l0,0c-0.1,0,0.1,0.1,0,0.1l-0.2-0.1c-0.1,0,0.1,0.1,0,0.1l0,0c0.1,0,0,0,0,0.1h-0.2c0.1,0,0,0,0.1,0.1
					l0,0c-0.1,0,0.2,0.1,0.2,0.1s-0.1,0-0.2-0.1l0,0c0,0,0.1,0.1,0,0.1c0.1,0,0.1,0,0.1,0.1l0,0l0,0l0.1,0.1c-0.2,0,0,0.1-0.2,0.1
					v0.1l0,0c-0.1,0,0.2,0.1,0.1,0.1h-0.1c-0.3-0.1,0,0.1-0.1,0l0,0c-0.1,0,0.1,0.1,0,0.1l0,0c0.1,0,0.1,0.1,0.2,0.2
					c-0.1,0-0.1,0-0.2-0.1c0,0,0.2,0,0.2,0.1h-0.3c0,0,0.2,0.1,0.1,0.1l0,0c0.1,0.1-0.1,0,0,0.1h-0.2c0.1,0,0.1,0.1,0.2,0.1
					c-0.1,0-0.1,0-0.2-0.1c0,0.1,0,0.1,0.1,0.1l0,0l0,0c0.1,0.1,0.1,0.1,0.2,0.1c-0.3-0.1-0.1,0.1-0.3,0c0.1,0.1-0.1,0.1-0.1,0.2
					c0.2,0,0,0,0.2,0.1h-0.5c0.1,0,0.1,0,0.1,0.1h0.1c0.1,0.1-0.2,0-0.1,0.1h-0.1c0,0,0,0.1,0.2,0.2H257c0,0.1,0.2,0.2,0,0.2h-0.2
					l0.1,0.1h-0.1c-0.1,0,0.1,0.1,0.2,0.2h-0.3c0,0.1,0.1,0.1,0.2,0.2c-0.2,0-0.1,0.1-0.2,0.2h0.3c-0.3,0,0.1,0.2-0.2,0.2
					c0.1,0,0,0,0.1,0.1h-0.1c0,0-0.1,0.1,0,0.1h-0.1l0.3,0.1h-0.2c0,0-0.2,0.1,0,0.2h-0.1c0,0-0.1,0.1,0.1,0.1c-0.2,0,0,0,0,0.1
					h-0.1c0.1,0,0.2,0,0.2,0.1h-0.1c-0.1,0,0.1,0,0,0.1h-0.1l0.1,0.1c0.1,0.1,0,0-0.1,0l0,0c-0.1,0,0.1,0.1,0,0.1h-0.1v-0.1h-0.3
					c0.1,0,0.1,0,0.2,0.1l0,0c0.1,0,0,0.1,0.2,0.2h-0.1c0.1,0,0,0.1,0.2,0.1h-0.1c-0.2,0.1,0.4,0.2,0.1,0.2h0.1
					c-0.1,0.1,0.1,0.2-0.1,0.3l0.1,0.1l0,0c0.1,0-0.3,0.1-0.1,0.1h0.1v0.1h-0.1l0.1,0.1h-0.3c0.1,0,0.1,0.1,0.2,0.1h0.7
					c-0.1,0,0,0-0.1-0.1c0.1,0,0-0.1,0.2,0h0.1c-0.2,0-0.1-0.1-0.2-0.1h0.1c-0.1,0-0.2,0-0.3-0.1h0.2
					C257.6,296.4,257.7,296.4,257.7,296.3z"/>
				<path style="fill:#A7C09B;" d="M257.8,294.8L257.8,294.8z"/>
				<path style="fill:#A7C09B;" d="M258.5,291.8"/>
				<path style="fill:#A7C09B;" d="M258.4,291.3"/>
				<polygon style="fill:#A7C09B;" points="258.5,292.4 258.4,292.4 258.4,292.4 				"/>
				<path style="fill:#A7C09B;" d="M258.5,291.3"/>
				<path style="fill:#A7C09B;" d="M259.2,290.1L259.2,290.1C259.3,290.1,259.1,290,259.2,290.1z"/>
				<path style="fill:#A7C09B;" d="M258.7,290L258.7,290C258.5,289.9,258.7,289.9,258.7,290z"/>
				<path style="fill:#A7C09B;" d="M258.6,290"/>
				<path style="fill:#A7C09B;" d="M258.2,290.8"/>
				<path style="fill:#A7C09B;" d="M258.6,291.1L258.6,291.1z"/>
				<path style="fill:#A7C09B;" d="M257.4,292.2h0.1C257.6,292.3,257.4,292.2,257.4,292.2z"/>
				<path style="fill:#A7C09B;" d="M257.4,292.8"/>
				<path style="fill:#A7C09B;" d="M256.8,294.5L256.8,294.5z"/>
			</g>
			<g id="Layer_13">
				<g style="opacity:0.41;">
					<ellipse style="fill:#C6C6C6;" cx="303.9" cy="309.3" rx="105.7" ry="9.9"/>
				</g>
				<ellipse style="fill:#353535;" cx="304.3" cy="314.2" rx="20.8" ry="2.6"/>

					<ellipse transform="matrix(0.9953 -9.706179e-02 9.706179e-02 0.9953 -28.9308 27.4387)" style="fill:#353535;" cx="267.6" cy="311.1" rx="19.6" ry="3.9"/>

					<ellipse transform="matrix(9.706178e-02 -0.9953 0.9953 9.706178e-02 -1.8463 620.1978)" style="fill:#353535;" cx="340.9" cy="311.1" rx="3.9" ry="19.6"/>
			</g>
			<g id="Layer_2-2">
				<path style="fill:#FFEAD4;stroke:#565656;stroke-miterlimit:10;" d="M288.1,184.7l0.3,2.9c0,0,6.1,2.6,13.9-3.4L301,181
					C301,180.9,296.5,185.3,288.1,184.7z"/>

					<ellipse transform="matrix(0.9676 -0.2524 0.2524 0.9676 -30.9535 77.6686)" style="fill:#FFEAD4;stroke:#565656;stroke-miterlimit:10;" cx="287.3" cy="159.5" rx="21.7" ry="25"/>
				<path style="fill:#EAC3A0;" d="M267.8,165.1c0,0,6.3,20.7,24.9,17.7C292.7,182.8,278,183.9,267.8,165.1z"/>
				<path style="fill:#EAC3A0;" d="M288.3,164.9c0,0-1.5,5.1,0.6,4.7s2.8-1.5,2.8-1.5S288.1,169.5,288.3,164.9z"/>
				<path d="M260.1,158.1c-1.5-2.9-2.7-6.1-3.3-9.3c-1.7-9.6,3.2-19.8,11.4-25s19.3-5.1,27.7-0.4c0.8-2.4-0.1-5-2.1-6.5
					c1.7,0,3.2,1,4,2.5c0.7,1.5,1.2,3.1,1.2,4.8c-0.3-2.7,1.1-5.2,3.5-6.4c-1.5,2.2-2.2,4.8-2.2,7.5c1.4-2.2,4.2-3.1,6.6-2.1
					c-2.1,0.2-4,1.5-4.9,3.4c4.4,2.2,6.9,7,7.5,11.9c0.7,4.7,0.6,9.5-0.5,14.2l-1.3,0.4c-0.2-2-1.5-4.1-2.6-5.7
					c-2.1-3-5.7-3.7-7.6-6.8c0.3,0.6,0.4,1.2,0.4,1.9c-1.8-1-3.2-2.6-3.8-4.6h-0.3c-2.4,3.6-6,6.1-10.2,7.1c2.4-1.2,4.2-3.2,5.1-5.7
					c-3.1,3.4-7.1,5.8-11.6,6.8c2.8-1.2,5-3.5,5.9-6.4c-2.9,3.3-6.8,5.4-11.1,6.1c-0.3,2.1-1.3,4.1-2.9,5.5l-0.2-2
					c-3.3,2.5,0.3,9.4-2.7,12.3c-0.3-0.6-0.1-2-0.6-2.4c0.7,1.9,0.1,4,0.3,6c-2.4-2.1-4.5-4.7-6-7.5"/>
				<path style="fill:#FFEAD4;" d="M308.7,155.3c0-0.1,0-0.2-0.1-0.2l-0.3-0.5c0.1-0.4,0.1-0.9,0-1.3c0-0.1,0-0.2-0.1-0.2
					c0.1-0.1,0.3-0.2,0.4-0.3l0.5-0.6c0.1-0.1,0.2-0.3,0.3-0.4l0.2-0.2c0.4-0.6,1-1.1,1.7-1.4c0.5-0.3,1.2-0.4,1.8-0.3
					c1,0.3,0.9,1.5,1.1,2.4c0.5,2-0.1,3-0.2,4.5c0,0.5-0.1,1.1-0.2,1.6c-0.4,1.1-0.6,1.9-1,3c-0.4,0.8-1,1.4-1.8,1.8
					c-0.7,0.2-1.4-0.2-1.6-0.9c0,0,0,0,0,0v-0.1c0-1,0.1-2,0.3-2.9C309.7,157.8,309,156.6,308.7,155.3z"/>
				<path style="fill:#606060;" d="M309.2,155.2c-0.1-0.6-0.6-1.3-0.4-1.9c0.2-0.3,0.4-0.6,0.7-0.8c0.7-0.8,1.4-1.9,2.5-2
					c1.9-0.2,1.9,2.5,1.9,3.7c-0.1,2.7-0.6,6.8-2.6,8.4c-2.1,0.5-2.3-1.6-1.7-2.8v-1.2C309.6,157.4,309.5,156.3,309.2,155.2
					c-0.1-0.2-0.4-0.4-0.6-0.3c-0.2,0.1-0.3,0.3-0.3,0.5c0.4,1.1,0.7,2.3,0.8,3.5c-0.2,1.1-0.2,2.1-0.2,3.2c0.2,0.9,0.9,1.5,1.8,1.5
					c2.6-0.1,3.5-4.4,3.7-6.3c0.3-1.4,0.4-2.9,0.3-4.4c-0.1-0.9-0.2-2.5-1-3.1c-2.3-1.7-4.3,1.9-5.7,2.9c-0.2,0.1-0.3,0.3-0.2,0.5
					c0,0,0,0,0,0c0.2,0.6,0,1.1,0.1,1.6c0.2,0.2,0.3,0.4,0.3,0.7C308.4,156,309.3,155.7,309.2,155.2z"/>
				<path style="fill:#EAC3A0;" d="M272.1,155.6c0.6-2,1.8-3.8,3.5-5.1c0.8-0.8,1.9-1.1,3-0.8c0.2,0.1,0.3,0.2,0.4,0.4
					c0.1,0.3-0.3,0.5-0.6,0.6c-2.4,0.8-4.5,2.4-5.8,4.6c0,0.1-0.1,0.1-0.1,0.2s-0.2-0.1-0.1-0.1"/>
				<path style="fill:#EAC3A0;" d="M298.5,148.7c-1.5-1.5-3.4-2.5-5.5-2.8c-1.1-0.3-2.2,0-3,0.8c-0.1,0.1-0.2,0.3-0.1,0.5
					c0.1,0.3,0.5,0.3,0.9,0.2c2.5-0.6,5.1-0.1,7.3,1.2c0.1,0,0.1,0.1,0.2,0.1s0.1-0.1,0-0.2"/>
				<path style="fill:#141414;" d="M276.6,163.1c0.2-3.5,4.7-5.1,5.8-1.2c0.2,0.8,1.4,0.4,1.2-0.3c-0.6-2.1-2.2-3.6-4.5-3.2
					c-2.2,0.5-3.7,2.5-3.7,4.7C275.4,163.8,276.6,163.8,276.6,163.1z"/>
				<path d="M278.6,160c-0.3,0.5-0.3,1.1-0.2,1.6c0.1,0.2,0.2,0.5,0.3,0.7c0.3,0.5,0.8,0.7,1.4,0.7c0.6,0,1.1-0.4,1.3-0.9
					c0.1-0.3,0.2-0.6,0.2-0.9c0-0.8-0.4-1.5-1-1.9c-0.6-0.4-1.5-0.2-1.8,0.4c0,0,0,0.1-0.1,0.1L278.6,160z"/>
				<path style="fill:#111111;" d="M278.1,159.7c-0.7,1.2-0.3,2.8,0.8,3.6c1.1,0.6,2.4,0.3,3.1-0.7c0.1-0.1,0.1-0.2,0.1-0.3
					c0.5-1.2,0.1-2.6-1-3.4c-0.5-0.3-1.1-0.4-1.7-0.2C278.9,158.9,278.5,159.2,278.1,159.7c-0.4,0.5,0.5,1.4,1,0.8
					c0.3-0.3,0.5-0.7,1-0.7s0.9,0.8,0.9,1.4s-0.5,1.4-1.3,1.1c-0.7-0.4-1-1.3-0.6-2C279.4,159.7,278.4,159,278.1,159.7z"/>
				<path style="fill:#606060;" d="M278.5,164.4c1.4,0.3,2.9-0.1,4-1c0.6-0.5-0.3-1.3-0.9-0.9c-0.8,0.6-1.9,0.9-2.9,0.7
					C278.1,163.1,277.7,164.2,278.5,164.4z"/>
				<path style="fill:#FFEAD4;" d="M266.5,166c0-0.1,0-0.1-0.1-0.2v-0.6c-0.3-0.3-0.5-0.7-0.7-1.1c0-0.1-0.1-0.2-0.1-0.3h-0.5
					l-0.8-0.2c-0.2-0.1-0.3-0.1-0.5-0.2l-0.2-0.1c-0.7-0.2-1.5-0.3-2.2-0.2c-0.6,0-1.2,0.3-1.6,0.8c-0.7,0.8,0.1,1.7,0.5,2.6
					c0.7,2,1.8,2.5,2.7,3.7c0.3,0.5,0.7,0.9,1.1,1.3c0.9,0.7,1.6,1.3,2.5,2c0.7,0.5,1.6,0.7,2.5,0.5c0.7-0.3,1.1-1,0.8-1.8
					c0,0,0,0,0,0c-0.3-0.9-1.3-1.5-1.9-2.3C267.2,168.8,267,167.3,266.5,166z"/>
				<path style="fill:#606060;" d="M267,165.9c-0.1-0.3,0-0.5-0.1-0.8c-0.2-0.5-0.6-0.9-0.8-1.5c-0.1-0.2-0.2-0.3-0.4-0.3
					c-1.8-0.1-5.8-2-6.5,0.9c-0.3,1.1,0.9,3,1.4,3.8c0.8,1.2,1.8,2.3,2.8,3.3c1.2,1.3,4.8,4.6,6.6,2.5c0.6-0.7,0.6-1.8,0-2.5
					c-0.5-0.9-1.4-1.4-1.9-2.3C267.6,168,267.2,167,267,165.9c-0.2-0.5-1.1-0.3-0.9,0.3c0.3,1,0.6,2,1,3c0.3,0.6,1.9,2.1,1.9,2.4
					c0.7,0.8,1.2,2.4-1.3,1.9c-0.6-0.3-1.2-0.6-1.7-1.1c-0.4-0.3-0.8-0.7-1.2-1c-0.8-0.7-1.5-1.5-2.2-2.4c-0.7-0.9-1.3-1.8-1.8-2.8
					c-0.6-0.5-0.7-1.3-0.4-2c0.4-1.2,2.1-1,3.2-0.4c0.2,0.1,0.5,0.2,0.7,0.2l1.1,0.3c0.6,0.4,0.5,1.3,0.8,1.9
					C266.3,166.7,267.2,166.4,267,165.9z"/>
				<path style="fill:#141414;" d="M292.4,158.9c0.2-3.5,4.7-5.1,5.8-1.2c0.2,0.8,1.4,0.4,1.2-0.3c-0.6-2.1-2.2-3.6-4.5-3.2
					c-2.2,0.5-3.7,2.5-3.7,4.7c0,0.3,0.3,0.6,0.6,0.6S292.4,159.2,292.4,158.9z"/>
				<path d="M294.4,155.9c-0.3,0.5-0.3,1.1-0.2,1.6c0.1,0.2,0.2,0.5,0.3,0.7c0.5,0.7,1.5,0.9,2.2,0.4c0.2-0.2,0.4-0.4,0.5-0.6
					c0.1-0.3,0.2-0.6,0.2-0.9c0-0.8-0.4-1.5-1-1.9c-0.6-0.4-1.5-0.2-1.8,0.4c0,0,0,0.1-0.1,0.1L294.4,155.9z"/>
				<path style="fill:#111111;" d="M293.9,155.6c-0.7,1.2-0.3,2.8,0.8,3.6c1.1,0.6,2.4,0.3,3.1-0.7c0.1-0.1,0.1-0.2,0.1-0.3
					c0.5-1.2,0.1-2.6-1-3.4c-0.5-0.3-1.1-0.4-1.7-0.2C294.7,154.8,294.3,155.1,293.9,155.6c-0.4,0.5,0.5,1.4,1,0.8
					c0.3-0.3,0.5-0.7,1-0.7s0.9,0.8,0.9,1.4s-0.5,1.4-1.3,1.1c-0.7-0.4-1-1.3-0.6-2C295.2,155.6,294.3,154.9,293.9,155.6z"/>
				<path style="fill:#606060;" d="M294.4,160.2c1.4,0.3,2.9-0.1,4-1c0.6-0.5-0.3-1.3-0.9-0.9c-0.8,0.6-1.9,0.9-2.9,0.7
					C293.9,158.9,293.6,160.1,294.4,160.2z"/>

					<circle style="opacity:0.25;fill:#F0FAFC;stroke:#606060;stroke-miterlimit:10;enable-background:new    ;" cx="295.6" cy="157.9" r="6.5"/>
				<path style="fill:#606060;" d="M286.1,159.8c0.9-0.5,1.9-0.8,3-0.9c0.6-0.1,0.6-1,0-0.9c-1.2,0.1-2.3,0.5-3.4,1
					c-0.2,0.1-0.4,0.3-0.3,0.6S285.7,159.9,286.1,159.8C286,159.8,286,159.8,286.1,159.8z"/>
				<path style="fill:#606060;" d="M286.5,161c0.7-0.7,1.6-1,2.6-0.9c0.6,0.1,0.6-0.9,0-0.9c-1.2-0.1-2.4,0.3-3.3,1.2
					C285.4,160.8,286.1,161.4,286.5,161L286.5,161z"/>
				<path d="M271.9,154.7c0.6-2,1.8-3.8,3.5-5.1c0.8-0.8,1.9-1.1,3-0.8c0.2,0.1,0.3,0.2,0.4,0.4c0.1,0.3-0.3,0.5-0.6,0.6
					c-2.4,0.8-4.5,2.4-5.8,4.6c0,0.1-0.1,0.1-0.2,0.2s-0.2-0.1-0.1-0.1"/>
				<path d="M298.3,147.9c-1.5-1.5-3.4-2.5-5.5-2.8c-1.1-0.3-2.2,0-3,0.8c-0.1,0.1-0.2,0.3-0.1,0.5c0.1,0.3,0.5,0.3,0.9,0.2
					c2.5-0.6,5.1-0.1,7.3,1.2c0.1,0,0.1,0.1,0.2,0.1s0.1-0.1,0-0.2"/>
				<g style="opacity:0.56;">
					<path style="fill:#FFFFFF;" d="M280.8,162.3c0.3,0,0.6-0.3,0.6-0.6c0-0.3-0.3-0.6-0.6-0.6c-0.3,0-0.6,0.3-0.6,0.6
						c0,0.3,0.2,0.6,0.4,0.6C280.7,162.3,280.7,162.3,280.8,162.3z"/>
				</g>
				<g style="opacity:0.56;">
					<path style="fill:#FFFFFF;" d="M296.7,158.3c0.3,0,0.6-0.3,0.6-0.6c0-0.3-0.3-0.6-0.6-0.6c-0.3,0-0.6,0.3-0.6,0.6
						c0,0.3,0.2,0.6,0.4,0.6C296.6,158.3,296.6,158.3,296.7,158.3z"/>
				</g>
				<path style="fill:#EAC3A0;" d="M267,171.6c0,0-3.6-1.1-4.3-3.6s0.5-2.4,0.5-2.4S262.9,169.1,267,171.6z"/>
				<path style="fill:#EAC3A0;" d="M311,159.4c0,0,2.2-3.1,1.2-5.5s-1.9-1.6-1.9-1.6S312.8,155,311,159.4z"/>
				<path style="fill:#606060;" d="M265.6,163.9l7-1.8c0.2-0.1,0.4-0.4,0.3-0.6c-0.1-0.2-0.3-0.3-0.5-0.3l-7,1.8
					c-0.2,0.1-0.4,0.4-0.3,0.6C265.1,163.8,265.3,163.9,265.6,163.9C265.5,163.9,265.5,163.9,265.6,163.9z"/>
				<path style="fill:#606060;" d="M266.4,164.6c2.1-0.4,4.3-0.8,6.4-1.1c0.6-0.1,0.3-1-0.2-0.9c-2.1,0.3-4.3,0.7-6.4,1.1
					C265.5,163.8,265.8,164.7,266.4,164.6z"/>
				<path style="fill:#606060;" d="M302,155.1c0.9-0.5,2-0.9,3-1.1l3.3-1c0.2-0.1,0.4-0.4,0.3-0.6c-0.1-0.2-0.3-0.3-0.5-0.3
					l-3.8,1.1c-1,0.2-1.9,0.6-2.7,1.1C301.1,154.7,301.5,155.4,302,155.1L302,155.1z"/>
				<path style="fill:#606060;" d="M302.5,156.6c0.8-0.7,1.8-1.3,2.8-1.6l3-1.4c0.5-0.3,0.1-1-0.5-0.8c-1.9,0.9-4.4,1.7-5.9,3.2
					C301.4,156.3,302.1,157,302.5,156.6z"/>
				<path style="fill:#606060;" d="M265.3,167.9c0.2,1.4,0.9,2.6,2,3.4c0.5,0.3,0.9-0.5,0.5-0.8c-0.9-0.7-1.5-1.7-1.6-2.9
					C266.1,167.1,265.2,167.4,265.3,167.9z"/>
				<path style="fill:#606060;" d="M310.1,156.6c0.4,0.9,0.5,1.9,0.3,2.9c-0.1,0.6,0.8,0.8,0.9,0.2c0.3-1.2,0.1-2.5-0.4-3.7
					c-0.2-0.2-0.5-0.3-0.7-0.1C309.9,156,309.9,156.3,310.1,156.6z"/>
				<path style="fill:#D6696E;" d="M292.7,141.3c0.3-0.5,0.6-1,0.9-1.5l-0.3-0.1l-0.3,2.1c0,0.1,0,0.1,0.1,0.2c0.1,0,0.1,0,0.1-0.1
					c0.4-0.5,0.7-1.1,0.9-1.7c0.1-0.2-0.2-0.3-0.3-0.2c-0.3,0.6-0.6,1.1-0.9,1.7l0.3,0.1c0-0.7,0.1-1.4,0.3-2c0-0.1,0-0.2-0.1-0.2
					s-0.1,0-0.2,0.1l-0.9,1.5C292.3,141.3,292.6,141.5,292.7,141.3L292.7,141.3z"/>
				<path style="fill:#606060;" d="M291.3,167.7c-0.6,0.5-1.3,0.9-2,1.1c-0.5,0.1-1.4,0.4-1.6-0.5c0-0.3,0.1-0.6,0.2-0.9
					c0.2-0.9,0.3-1.9,0.4-2.8c0-0.3-0.2-0.4-0.5-0.4c-0.2,0-0.4,0.2-0.4,0.4c0,0.9-0.1,1.7-0.3,2.6c-0.2,0.7-0.5,1.6,0.1,2.2
					c1.2,1.4,3.9-0.1,4.9-1.1C292.4,167.9,291.8,167.3,291.3,167.7L291.3,167.7z"/>

					<circle style="opacity:0.25;fill:#F0FAFC;stroke:#606060;stroke-miterlimit:10;enable-background:new    ;" cx="279.5" cy="162" r="6.5"/>

					<circle style="opacity:0.9;fill:none;stroke:#606060;stroke-miterlimit:10;enable-background:new    ;" cx="295.6" cy="157.9" r="6.5"/>

					<circle style="opacity:0.9;fill:none;stroke:#606060;stroke-miterlimit:10;enable-background:new    ;" cx="279.5" cy="162" r="6.5"/>
				<path style="fill:#EAC3A0;" d="M294.5,176.3c-0.2-0.7-0.5-1.4-1-1.9c-0.5-0.6-1.3-0.9-2.1-0.6
					C292.7,174.1,293.9,175,294.5,176.3z"/>
				<path style="fill:#606060;" d="M291,174c0.7-1.2,2.3-0.2,2.8,0.7c0.3,0.4,0.4,0.8,0.3,1.3c-0.3,0.8-0.9,0-0.9-0.5
					c0.1-0.8-1.2-0.8-1.2,0c-0.1,1,0.6,1.9,1.6,2c0.1,0,0.2,0,0.2,0c1.2,0,1.7-1.2,1.6-2.3c-0.2-1.2-0.9-2.2-2-2.7
					c-1.1-0.7-2.6-0.3-3.3,0.8c0,0,0,0,0,0C289.5,174.1,290.6,174.7,291,174L291,174z"/>
			</g>
			<g id="Layer_9">
				<path style="fill:#333333;stroke:#333333;stroke-miterlimit:10;" d="M258.7,299.4c0,0-9.2-1-9.8,5.2s3,7.9,8.1,9.2
					c5.1,1.3,26.6-4.9,27.1-6.4c0.3-0.9,2.1-2,1.2-6.5c-0.2-1,0.1-7.3-1.7-5.9C275.7,301.7,258.7,299.4,258.7,299.4z"/>
				<path style="fill:#545454;stroke:#333333;stroke-linecap:round;stroke-linejoin:round;" d="M249.3,305.4c0,0,1,7.3,11.3,7.3
					c10.3,0,22.6-6.5,22.6-6.5s-25.9,7.7-32.1-0.2c0,0-1.9-2.3-1-3.7C249.5,303.2,249.3,304.3,249.3,305.4z"/>
				<path style="fill:#545454;stroke:#333333;stroke-linecap:round;stroke-linejoin:round;" d="M253.6,300.7
					c-0.2,0.1-0.5,0.1-0.8,0.2c-0.8,0.3-1.2,1.2-1,2c0.4,1.5,1.7,2.7,3.2,3.1c1.9,0.6,3.6-1,3.6-1.7c-0.1-0.6-0.4-1.2-0.9-1.7
					c-0.5-0.8-1.2-1.6-2-2.2C255,300.1,254.2,300.2,253.6,300.7z"/>
				<path style="fill:#333333;stroke:#333333;stroke-miterlimit:10;" d="M348,299.4c0,0,9.2-1,9.8,5.2s-3,7.9-8.1,9.2
					s-26.6-4.9-27.1-6.4c-0.3-0.9-2.1-2-1.2-6.5c0.2-1-0.1-7.3,1.7-5.9C331,301.7,348,299.4,348,299.4z"/>
				<path style="fill:#545454;stroke:#333333;stroke-linecap:round;stroke-linejoin:round;" d="M357.4,305.4c0,0-1,7.3-11.3,7.3
					s-22.6-6.5-22.6-6.5s25.9,7.7,32.1-0.2c0,0,1.9-2.3,1-3.7C357.1,303.2,357.4,304.3,357.4,305.4z"/>
				<path style="fill:#545454;stroke:#333333;stroke-linecap:round;stroke-linejoin:round;" d="M353.1,300.7
					c0.2,0.1,0.5,0.1,0.8,0.2c0.8,0.3,1.2,1.2,1,2c-0.4,1.5-1.7,2.7-3.2,3.1c-1.8,0.6-3.6-1-3.6-1.7c0.1-0.6,0.4-1.2,0.9-1.7
					c0.5-0.8,1.2-1.6,2-2.2C351.7,300.1,352.4,300.2,353.1,300.7z"/>
			</g>
			<g id="Layer_4">
				<path style="fill:#CEAA6A;stroke:#4C4C4C;stroke-linecap:round;stroke-linejoin:round;" d="M262.4,246.7c0,0-14.8,15-11.7,25.4
					c1.1,3.8,5.7,8.7,7,9.8s3,4,3.9,5.2c2.5,3.4,3.5,8.5-1.5,11.6c-3.5,2.2,9.6,1.7,17.1,1.4c2.7-0.1,9.1-2.5,9-5.2l-2.4-5.2
					c0-1.6-2.9-4.6-3.4-6.1l-3.4-8.1c-3.7-8.1,3.6-11.5,6.3-13.1l7.3-1.1l27.7,1.7l7.7,2.5c2.6,0.8,4,3.6,3.2,6.2
					c-0.1,0.3-0.2,0.5-0.3,0.8c-2.1,4-5.7,9.1-6.6,13.1c-0.4,1.9-1.6,2.7-2,6.4c-0.4,3.1-1,6,3.8,7.6l1.7,0.9
					c1.1,1.8,3.8,0.8,5.9,0.9c3.7,0.2,9.5,0.3,11-0.7c2.3-1.5-3.7-5.5-3.3-7.3c0.2-0.8,0.6-1.6,1-2.3c0.4-0.7,1-1.5,1.6-2.4
					c3.2-4.5,8.4-10.6,10.6-16.8c4.3-12.1-8.4-20.9-21.9-28.7s-28.8-4.6-28.8-4.6l-28.3,1.7c-3.2,0.2-6.2,1.5-8.6,3.7L262.4,246.7z"
					/>
			</g>
			<g id="Layer_11">
				<path style="fill:#0DBA0D;stroke:#4C4C4C;stroke-linecap:round;stroke-linejoin:round;" d="M292.7,312c0,0-4.1-4.7-0.4-15.8
					s0-14.2,0-14.2c3.3,3.5,4.2,8.7,2.1,13c-3.5,7.7,2,17.8,2,17.8C295.1,313,293.8,312.7,292.7,312z"/>
				<path style="fill:#0DBA0D;stroke:#4C4C4C;stroke-linecap:round;stroke-linejoin:round;" d="M300.2,312.8c0,0,4.1-3.7,3.3-7.4
					s-1.7-3.9-0.7-8l1-4.1c-0.5,2-0.6,4.1-0.3,6.2c0.5,3.4,3.8,6.8,2.8,9.3s-1.4,3.9-1.4,3.9L300.2,312.8z"/>
				<path style="fill:#0DBA0D;stroke:#4C4C4C;stroke-linecap:round;stroke-linejoin:round;" d="M307.9,312.1c0,0,5.2-5.4,3.5-10.4
					s-2.2-7.6-0.8-11.7c0.8-2.3,1-4.8,0.5-7.2c0,0,3.1,5.6,1.9,9.7c-1.2,3.5-0.9,7.2,0.7,10.5c1.5,3.2-0.7,8.2-0.7,8.2
					S309.5,313,307.9,312.1z"/>
				<path style="fill:#0DBA0D;stroke:#4C4C4C;stroke-linecap:round;stroke-linejoin:round;" d="M285.8,309.3
					c-1.8-2.1-2.8-4.8-2.6-7.6c0.2-4.8,1.3-7.5,0-8.5c2.2,0.8,3.4,3,3,5.3C285.7,302.8,283.8,300.8,285.8,309.3z"/>
				<path style="fill:#0DBA0D;stroke:#4C4C4C;stroke-linecap:round;stroke-linejoin:round;" d="M318.2,309.3
					c1.8-0.1,3.3-1.4,3.6-3.1c0.9-3.2-2.6-7.2-1.4-10.1l1.2-2.9c-1,1.5-1,3.5-0.1,5.1c1.5,2.9,3.2,5.5,3,6.9s-0.2,2.6-1.4,3.3
					S318.2,309.3,318.2,309.3z"/>
			</g>
			<g id="Layer_10">
				<path style="fill:#9B7A45;" d="M262,251.6c0,0-15.4,14.9-6.7,24.6C255.3,276.2,249.2,269,262,251.6z"/>
				<path style="fill:#9B7A45;" d="M263.5,296.1c0.7-1,1.6-1.7,2.7-2.1l1.7-0.6c0,0-2.2,0.9-2.9-0.9L263.5,296.1z"/>
				<path style="fill:#9B7A45;" d="M328.1,265.9c0,0,1.8,1,8.5,0l6.7-1l-10.2,3.7c2.4,0.2,4.8,0.2,7.2-0.2c0,0-7.7,1.7-10.6,3.9
					C330.5,270,329.9,267.4,328.1,265.9z"/>
				<path style="fill:#9B7A45;" d="M276.1,267.8c0,0-1.5,1.4-8.3,2l-6.8,0.6l10.8,1.2c-2.3,0.8-4.6,1.3-7,1.5c0,0,7.9-0.2,11.2,1.3
					C274.6,272.4,274.7,269.7,276.1,267.8z"/>
				<path style="fill:#9B7A45;" d="M351.4,269.7c0,0-6.2,13-12,18.6c0,0,10.9-16,9.9-23.3c-0.9-6.2-1.6-6-1.6-6
					C350.9,261.5,352.4,265.7,351.4,269.7z"/>
			</g>
			<g id="Layer_8">

					<path style="opacity:0.49;fill:#F2FCFC;stroke:#4C4C4C;stroke-linecap:round;stroke-linejoin:round;enable-background:new    ;" d="
					M324.8,265.1c0-0.9-10.9-1.6-24.3-1.6s-24.4,0.7-24.4,1.6H324.8z"/>
			</g>
			<g id="Layer_5">
				<path style="fill:#E6B641;stroke:#5B5B5B;stroke-linecap:round;stroke-linejoin:round;" d="M266.8,212.9c0,0-4-6.5-6.5,0
					c0,0-15.9,16.8,3.7,39.4c12.6,14.5,30.1,18,43.6,17.3c7.1-0.5,13.6-4,17.8-9.7c3.9-5.5,5.7-7.7,7.9-13.3
					c3.3-8.4,4.3-7.9,13.3-11.3c1-0.4,9.3-3.2,14.8-16.4c0,0,3-6.6,4.5-7.6s-1.4-2.4-6.7,1.9s-14.7,3.7-17.6,7.1s-3.4,4.1-3.4,4.1
					c0.2-2.9,0-5.7-0.7-8.5c-0.5-2.1-0.5-4.3-0.1-6.5c0.7-3.6,1.3-9.4-1-12.8c-1.6,3.8-3.6,7.5-6,10.8c-2.5,3.3-5.1,10.6-5.2,15.1
					c0,2.4,1.7,11.9,0.9,14.2c-1.2,4.1-4.1,7.4-8,9.2c-4.3,2-25.2,6.8-32.2-14.6c-0.8-2.4-2-4.7-3.5-6.8c-2.1-2.8-4.5-5.4-7.1-7.8
					c-0.2-0.2-0.5-0.4-0.7-0.6c-1.5-1.1-2.5-2.8-2.9-4.6c-1-3.6-3.7-3.3-3.6-0.1s3.3,6.7,3.3,6.7L266.8,212.9z"/>
				<path style="fill:#969696;" d="M264.2,227.7c0,0-0.7,7.6,6.3,6.5C270.5,234.3,260.9,236.8,264.2,227.7z"/>
				<path style="fill:#EDFCF7;" d="M283.5,248c0,0,1.2,4.5-3.5,5C280,253,286.2,253.9,283.5,248z"/>
				<path style="fill:#F7D631;" d="M287.5,243.1c0,0,1.2,4.5-3.5,5C284,248.1,290.3,249,287.5,243.1z"/>
				<path style="fill:#F7D631;" d="M288.3,247.2c0,0,1.2,4.5-3.5,5C284.9,252.2,291.1,253.1,288.3,247.2z"/>
				<path style="fill:#F7D631;" d="M292,242.3c0,0,1.2,4.5-3.5,5C288.5,247.3,294.8,248.2,292,242.3z"/>
				<path style="fill:#F7D631;" d="M294,246c0,0,1.2,4.5-3.5,5C290.6,250.9,296.8,251.9,294,246z"/>
				<path style="fill:#F7D631;" d="M284.7,252.9c0,0,1.2,4.5-3.5,5C281.2,257.9,287.5,258.8,284.7,252.9z"/>
				<path style="fill:#F7D631;" d="M289.2,252.1c0,0,1.2,4.5-3.5,5C285.7,257,291.9,258,289.2,252.1z"/>
				<path style="fill:#F7D631;" d="M293.6,250.9c0,0,1.2,4.5-3.5,5C290.1,255.8,296.4,256.8,293.6,250.9z"/>
				<path style="fill:#EDFCF7;" d="M298.5,247.6c0,0,1.2,4.5-3.5,5C295,252.6,301.3,253.5,298.5,247.6z"/>
				<path style="fill:#EDFCF7;" d="M290.4,256.2c0,0,1.2,4.5-3.5,5C286.9,261.1,293.2,262.1,290.4,256.2z"/>
				<path style="fill:#F7D631;" d="M294.9,256.2c0,0,1.2,4.5-3.5,5C291.4,261.1,297.7,262.1,294.9,256.2z"/>
				<path style="fill:#F7D631;" d="M285.1,257.4c0,0,1.2,4.5-3.5,5C281.6,262.3,287.9,263.3,285.1,257.4z"/>
				<path style="fill:#C5FCEC;" d="M290.8,261.9c0,0,1.2,4.5-3.5,5C287.3,266.8,293.6,267.8,290.8,261.9z"/>
				<path style="fill:#F7D631;" d="M299.8,252.5c0,0,1.2,4.5-3.5,5C296.3,257.5,302.5,258.4,299.8,252.5z"/>
				<path style="fill:#F7D631;" d="M302.6,248.5c0,0,2.2,3.3-1.4,5C301.2,253.6,306.6,252.5,302.6,248.5z"/>
				<path style="fill:#F7D631;" d="M304.3,253c0,0,2.2,3.3-1.4,5C302.9,258,308.2,257,304.3,253z"/>
				<path style="fill:#F7D631;" d="M297.7,257.9c0,0,2.2,3.3-1.4,5C296.3,262.9,301.7,261.9,297.7,257.9z"/>
				<path style="fill:#EDFCF7;" d="M301.4,256.3c0,0,2.2,3.3-1.4,5C300,261.3,305.4,260.3,301.4,256.3z"/>
				<path style="fill:#F7D631;" d="M303,259.9c0,0,2.2,3.3-1.4,5C301.6,265,307,263.9,303,259.9z"/>
				<path style="fill:#F7D631;" d="M299.4,262.4c0,0,2.2,3.3-1.4,5C298,267.4,303.3,266.4,299.4,262.4z"/>
				<path style="fill:#F7D631;" d="M306.3,257.1c0,0,2.2,3.3-1.4,5C304.9,262.1,310.3,261.1,306.3,257.1z"/>
				<path style="fill:#F7D631;" d="M309.2,259.5c0,0,2.2,3.3-1.4,5C307.7,264.6,313.1,263.5,309.2,259.5z"/>
				<path style="fill:#F7D631;" d="M318.2,253.8c0,0,3.1,2.6,0,5.2C318.2,259,323.1,256.6,318.2,253.8z"/>
				<path style="fill:#EDFCF7;" d="M313.4,247.9c1.3,0.4,2,1.9,1.5,3.2c-0.1,0.2-0.2,0.4-0.3,0.6
					C314.7,251.7,317.6,248.6,313.4,247.9z"/>
				<path style="fill:#F7D631;" d="M306.7,249.3c0,0,3.1,2.5,0.1,5.2C306.8,254.6,311.7,252,306.7,249.3z"/>
				<path style="fill:#F7D631;" d="M309.1,253c0,0,3.1,2.5,0.1,5.2C309.3,258.2,314.1,255.7,309.1,253z"/>
				<path style="fill:#F7D631;" d="M309.8,248.8c0,0,3.8,1.3,2,4.8C311.8,253.7,315.4,249.6,309.8,248.8z"/>
				<path style="fill:#F7D631;" d="M313.5,252.5c0,0,3.8,1.3,2,4.8C315.4,257.3,319.1,253.2,313.5,252.5z"/>
				<path style="fill:#EDFCF7;" d="M311.9,256.7c0,0,3.2,2.4,0.3,5.2C312.2,261.9,316.9,259.1,311.9,256.7z"/>
				<path style="fill:#F7D631;" d="M316.7,248c0,0,3.8,1.3,2,4.8C318.7,252.9,322.3,248.7,316.7,248z"/>
				<path style="fill:#F7D631;" d="M322,245.2c0,0,3.4,1,1.8,3.8C323.8,248.9,326.9,245.8,322,245.2z"/>
				<path style="fill:#EDFCF7;" d="M321.6,249.2c0,0,3.4,1,1.8,3.8C323.4,253,326.5,249.9,321.6,249.2z"/>
				<path style="fill:#D1660D;stroke:#5B5B5B;stroke-miterlimit:10;" d="M264.1,252.3c0,0,2.8,19.3,9.2,23.7s-0.9-7.8-0.9-7.8
					s1.9,2.3,3.1,0c0.7-1.3,0.5-2.8-0.6-3.8c0,0,2.1,3,3.3,1.8s-3-4.5-3-4.5C270.9,259.2,267.2,256,264.1,252.3z"/>
				<path style="fill:#E58007;" d="M285.6,231.6c0,0,0.6,5.8-3.4,9.6s-3.8,7.5-3.8,7.5s7.8-1.3,9-12.5L285.6,231.6z"/>
				<path style="fill:#DD7F31;" d="M362.2,211.8c0,0-10.2,15.6-15.6,18.2s-11.3,0.1-14.7,8.6c-4.7,11.7-9.5,28.4-33.6,26.6
					c-15.1-1.1-31.7-11.3-38.9-29c-1.4-3.4-2.1-7-2.1-10.6c-0.1-3.7,0.5-8.3,1.6-9.9c0,0-12.1,15.2,5.5,35.8
					c17.3,20.3,43.1,17.7,47.3,16.3s15-4.8,21.2-21.9c3.1-8.5,5.3-9.4,13.1-11.1C354.9,233,362.2,211.8,362.2,211.8z"/>
				<path style="fill:#F7D631;" d="M335.2,205.6c0,0-8.4,9.6-2.5,17.4c2.6,3.5-4.4,3.1-4.4,3.1S323.9,214.7,335.2,205.6z"/>
				<path style="fill:#D1660D;stroke:#5B5B5B;stroke-miterlimit:10;" d="M322.3,263.4c0,0,5.7-11,7.2-10.5s1.1,4.8,1.1,4.8
					s3.5-6.3,4.7-3.8c1.2,2.5,3.3-4.3,4.9-2.2S329.8,264.8,322.3,263.4z"/>
				<path style="fill:#D1660D;stroke:#5B5B5B;stroke-miterlimit:10;" d="M314.3,246.7c0,0,5.7-0.8,7.9-4.9c0.6-1.1-3-1.1-3-1.1
					s4.6-2.3,3.1-3.3s3.3-2.3,2.1-3.6S314.4,241,314.3,246.7z"/>
				<path style="fill:#F7D631;" d="M285.1,230.2c0,0,0.3,6-3.7,9.8s-3.8,7.5-3.8,7.5c2.7-0.7,5.1-2.4,6.5-4.9
					c2.1-3.3,2.6-7.5,1.3-11.2L285.1,230.2z"/>
				<path style="fill:#DD7F31;" d="M260.4,213.7c0,0,5.1,3.4,5.8,5.9c-0.9-3-2.6-5.7-4.9-7.7L260.4,213.7z"/>
				<circle style="fill:#FFFFFF;" cx="268.2" cy="230.1" r="3.7"/>
				<circle style="fill:#595959;" cx="268.8" cy="229.8" r="2.1"/>
				<circle style="fill:#FFFFFF;" cx="268.9" cy="228.9" r="0.5"/>
				<circle style="fill:#FFFFFF;" cx="269.7" cy="229.5" r="0.3"/>
				<path style="fill:#FFFFFF;" d="M270,269c0,0-0.2-3.1,1.6-3.2c0,0-3.5-5.3-6-10.2S270,263.8,270,269z"/>
			</g>
			<g id="Layer_7">
				<circle style="fill:#F2FCFC;stroke:#4C4C4C;stroke-linecap:round;stroke-linejoin:round;" cx="302.4" cy="297.5" r="1.5"/>
				<circle style="fill:#F2FCFC;stroke:#4C4C4C;stroke-linecap:round;stroke-linejoin:round;" cx="306.3" cy="293.4" r="1.4"/>
				<circle style="fill:#F2FCFC;stroke:#4C4C4C;stroke-linecap:round;stroke-linejoin:round;" cx="309.8" cy="300.9" r="0.8"/>
				<circle style="fill:#F2FCFC;stroke:#4C4C4C;stroke-linecap:round;stroke-linejoin:round;" cx="288.7" cy="286.7" r="1.9"/>
				<circle style="fill:#F2FCFC;stroke:#4C4C4C;stroke-linecap:round;stroke-linejoin:round;" cx="288.2" cy="292.1" r="0.6"/>
				<circle style="fill:#F2FCFC;stroke:#4C4C4C;stroke-linecap:round;stroke-linejoin:round;" cx="294.2" cy="290.3" r="0.8"/>
				<circle style="fill:#F2FCFC;stroke:#4C4C4C;stroke-linecap:round;stroke-linejoin:round;" cx="315.8" cy="287.5" r="2"/>
				<circle style="fill:#F2FCFC;stroke:#4C4C4C;stroke-linecap:round;stroke-linejoin:round;" cx="275.6" cy="289.3" r="1"/>
				<circle style="fill:#F2FCFC;stroke:#4C4C4C;stroke-linecap:round;stroke-linejoin:round;" cx="328.8" cy="293.5" r="1.4"/>
				<circle style="fill:#F2FCFC;stroke:#4C4C4C;stroke-linecap:round;stroke-linejoin:round;" cx="290.7" cy="307.8" r="1.6"/>
				<circle style="fill:#F2FCFC;stroke:#4C4C4C;stroke-linecap:round;stroke-linejoin:round;" cx="301.2" cy="309.9" r="1.2"/>
				<circle style="fill:#F2FCFC;stroke:#4C4C4C;stroke-linecap:round;stroke-linejoin:round;" cx="279.8" cy="300.4" r="1.4"/>
				<path style="fill:#1CC1F4;" d="M288.1,302c-0.8-0.2-1.5-3.4-1.5-3.4c0.7,0,1.4,0.4,1.8,1c0,0,0.4,3.9,4.9,0.8s8.4,1,8.4,1
					c1.3,1,0,1.6,0,1.6s-4.1-1.9-6.1-1.6S292.7,303.3,288.1,302z"/>

					<path style="opacity:0.79;fill:#F9F4ED;stroke:#4C4C4C;stroke-linecap:round;stroke-linejoin:round;enable-background:new    ;" d="
					M301.7,301.4c-0.7-0.7-1.6-1.3-2.5-1.7c-1.9-0.9-4.2-0.6-5.9,0.7c-4.4,3.1-4.9-0.8-4.9-0.8c-0.4-0.6-1.1-1-1.8-1
					c0,0,0.8,2.9,1.5,3.4c0,0-1.7,0.1-2.1,1.1c0.7,0.5,1.8,0.5,2.5,0c1.4-0.9,3.1,0.4,3.1,0.4s6,4,10.1-0.4
					C301.7,303,303,302.4,301.7,301.4z"/>
				<path style="fill:#F2FCFC;stroke:#4C4C4C;stroke-linecap:round;stroke-linejoin:round;" d="M301.7,303c-0.7,0.2-1.5,0.1-2.2-0.3
					"/>
				<circle style="fill:#F2FCFC;stroke:#4C4C4C;stroke-linecap:round;stroke-linejoin:round;" cx="299.5" cy="301.4" r="0.5"/>

					<path style="opacity:0.78;fill:#F4EDD3;stroke:#4C4C4C;stroke-linecap:round;stroke-linejoin:round;enable-background:new    ;" d="
					M298.6,299.3c0,0-1.7-2.2-3.3-2.3c0,0,0.8,0.5,0.6,0.9s-0.9,1.3-1.2,1.3C295.9,298.6,297.3,298.7,298.6,299.3z"/>

					<path style="opacity:0.78;fill:#F4EDD3;stroke:#4C4C4C;stroke-linecap:round;stroke-linejoin:round;enable-background:new    ;" d="
					M297.5,305.2c0,0-2.4,0.4-3.4-0.2c0,0,1.6,1,1,1.7L297.5,305.2z"/>
				<path style="fill:#1CC1F4;" d="M329.4,291.5c0.8-0.2,1.5-3.3,1.5-3.3c-0.7,0-1.4,0.4-1.8,1c0,0-0.4,3.8-4.9,0.8s-8.6,1-8.6,1
					c-1.3,1,0,1.5,0,1.5s4.1-1.8,6.2-1.5S324.7,292.7,329.4,291.5z"/>

					<path style="opacity:0.79;fill:#F7CC19;stroke:#4C4C4C;stroke-linecap:round;stroke-linejoin:round;enable-background:new    ;" d="
					M315.5,290.9c0.8-0.7,1.6-1.2,2.6-1.6c2-0.8,4.2-0.6,6,0.6c4.5,3,4.9-0.8,4.9-0.8c0.4-0.6,1.1-1,1.8-1c0,0-0.9,2.8-1.5,3.3
					c0,0,1.7,0.1,2.1,1c-0.8,0.5-1.8,0.5-2.6,0c-1.5-0.9-3.1,0.4-3.1,0.4s-6.1,3.9-10.3-0.4C315.5,292.5,314.2,291.9,315.5,290.9z"
					/>
				<path style="fill:#F2FCFC;stroke:#4C4C4C;stroke-linecap:round;stroke-linejoin:round;" d="M315.5,292.5
					c0.8,0.2,1.6,0.1,2.3-0.3"/>
				<circle style="fill:#F2FCFC;stroke:#4C4C4C;stroke-linecap:round;stroke-linejoin:round;" cx="317.8" cy="290.9" r="0.5"/>

					<path style="opacity:0.78;fill:#F7CC19;stroke:#4C4C4C;stroke-linecap:round;stroke-linejoin:round;enable-background:new    ;" d="
					M318.7,288.9c0,0,1.7-2.1,3.3-2.2c0,0-0.8,0.5-0.6,0.9s0.9,1.3,1.2,1.3C321.3,288.3,319.9,288.3,318.7,288.9z"/>

					<path style="opacity:0.78;fill:#F7CC19;stroke:#4C4C4C;stroke-linecap:round;stroke-linejoin:round;enable-background:new    ;" d="
					M319.8,294.6c0,0,2.5,0.4,3.5-0.2c0,0-1.7,0.9-1,1.6L319.8,294.6z"/>
				<path style="fill:#F2FCFC;stroke:#4C4C4C;stroke-linecap:round;stroke-linejoin:round;" d="M230.9,222.2c0,0-9.8-9.7-16-7.3
					s-0.5,5.8,3.2,5.6S230.9,222.2,230.9,222.2z"/>
				<path style="fill:#F2FCFC;stroke:#4C4C4C;stroke-linecap:round;stroke-linejoin:round;" d="M238.7,247.1
					c-9.8-0.5-19.2,9.8-14.8,11.3s10.6-7.1,10.6-7.1L238.7,247.1z"/>
				<path style="fill:#F2FCFC;stroke:#4C4C4C;stroke-linecap:round;stroke-linejoin:round;" d="M346.3,185.2c0,0,8.3-11.1,13.9-9
					s2.7,5.6,0.6,5.9S348.5,182.1,346.3,185.2z"/>
				<path style="fill:#F2FCFC;stroke:#4C4C4C;stroke-linecap:round;stroke-linejoin:round;" d="M366.2,243.1c0,0,12.3-4.4,16.1,0.8
					s-3.1,6-4.1,5.4S370.2,243.4,366.2,243.1z"/>
				<path style="fill:#F2FCFC;stroke:#4C4C4C;stroke-linecap:round;stroke-linejoin:round;" d="M374.7,225.7c0,0,13.6-9.9,20.1-6.8
					s-1.7,7.1-3.1,7S379.7,224.1,374.7,225.7z"/>
			</g>
			<g id="Layer_6" style="opacity:0.71;">
				<path style="fill:#CDECF9;stroke:#4C4C4C;stroke-linecap:round;stroke-linejoin:round;" d="M275.3,279.1
					c-5.5,4.8-9.2,15.5-0.3,24.5c16.4,16.6,45.9,10,55.2-0.5c4.7-5.2,6.2-11.8,5-16.2c-0.7-2.7-3.3-5.8-5.8-8.3L275.3,279.1z"/>
				<path style="fill:#FFFFFF;stroke:#4C4C4C;stroke-linecap:round;stroke-linejoin:round;" d="M329.3,278.6c-1.1-1.1-2.1-2-3-2.8
					c-3.8-3.4-8.9-7.5-4.9-8.3c5.6-1.2,4.3-3.3,4.3-3.3s-40.1,0.2-46.1,0s2.6,3.2,2.6,3.2c2.5,0.3,1.7,3.9,1.7,3.9s-3.8,3.4-8.8,7.8
					L329.3,278.6z"/>
			</g>
			<g id="Layer_12">
				<path style="fill:none;stroke:#4C4C4C;stroke-linecap:round;stroke-linejoin:round;" d="M275.3,279.2
					c-5.5,4.8-9.2,15.6-0.3,24.5c16.4,16.6,45.9,10,55.2-0.5c4.7-5.2,6.2-11.8,5-16.2c-0.7-2.7-3.3-5.8-5.8-8.3L275.3,279.2z"/>
				<path style="fill:none;stroke:#4C4C4C;stroke-linecap:round;stroke-linejoin:round;" d="M329.3,278.7c-1.1-1.1-2.1-2-3-2.8
					c-3.8-3.4-8.9-7.5-4.9-8.3c5.6-1.2,4.3-3.3,4.3-3.3s-40.1,0.2-46.1,0s2.6,3.2,2.6,3.2c2.5,0.3,1.7,3.9,1.7,3.9s-3.8,3.4-8.8,7.8
					L329.3,278.7z"/>
			</g>
			<g id="Layer_3">
				<path style="fill:#D6696E;stroke:#4C4C4C;stroke-linecap:round;stroke-linejoin:round;" d="M288.4,187.5c0,0-19.6-6.5-20,6.1
					s5.3,25.2,5.3,25.2s4.4,0.5,10.5-3.1c0,0,11.2,21.9,14.8,25.7s8.7,10.4,10.8,10.1s1.8-3.4,1.8-4.9s4.2-30.9,3.9-34.1
					c-0.2-2-0.5-4-0.9-6c-0.6-3,6.8-0.2,11.1-2.6c0,0,0.3-16.9-2.9-23.9s-9.4-9.3-20.6,4C302.3,184.1,297,189.1,288.4,187.5z"/>
				<path style="fill:#FFEAD4;stroke:#565656;stroke-miterlimit:10;" d="M325.1,204.5l-1.2,7.7c0,0,2.2,8.2-4.9,30.1
					c0,0,6.8,1.3,4.8,8.9c0,0-0.6,1.5-1.7,1.1c0,0-0.1,2.4-3,1.2c-0.7,0.4-1.6,0.2-2.1-0.5v-0.1c-0.8-1.4-0.9-4.3-4.1-3
					c0,0,1.2,1.3,1,2s-2,2.2-3.3,1.1c-1.4-1.5-2.3-3.3-2.6-5.3c0-0.9,2.4-4.4,3.6-5.8s0.8-24.4,3.4-27.9l-0.7-7.6
					C314.3,206.5,322.1,206.2,325.1,204.5z"/>
				<path style="fill:#FFEAD4;stroke:#565656;stroke-miterlimit:10;" d="M274.6,218.7l4,5.1c0,0,0.3,6.3,15.2,19
					c0,0-6.9,5.8-1.2,10.4c0.7,0.3,1.4,0.1,1.9-0.4c0,0,1.9,1.4,4.2-0.9c0,0,1.6-0.1,1.8-1.5s-2.7-4,0.7-4.5c0,0-0.3,2.6,0.2,3.1
					s2.6,1.6,3.4,0.1s-0.3-5.4-0.6-6.1c-1.1-1.4-2.5-2.4-4.2-2.9c-1.6-0.4-8.5-17.8-12.3-19.1l-2.2-5.9
					C285.5,215,278.1,218.6,274.6,218.7z"/>
				<path style="fill:#C45F66;" d="M279.7,192.7c0,0,4.7,12.4,6.4,20.3c0,0-2.9-18.1-3.2-18.4S279.7,192.7,279.7,192.7z"/>
				<polygon style="fill:#C45F66;" points="310.4,185.1 313.2,206.4 308.9,188.1 				"/>
				<path style="fill:#C45F66;" d="M301.3,186.3c0,0-6.4,3.7-12.3,2.5s4.6,2,4.6,2s-2.9,0.3-8.9-1.6s3.4,2.4,6.5,3.2
					s7.5-1.4,8.4-0.8s7-3.3,7-3.3c-2,0.4-4,0.7-6,0.8c-1.1-0.1,3.8-3,3.8-3L301.3,186.3z"/>
				<path style="fill:#C45F66;" d="M297.9,234.3c2.2,0.6,4.6,0.6,6.8,0l3.8-1c0,0-5.2,2.8-7,2.8S297.9,234.3,297.9,234.3z"/>
				<path style="fill:#C45F66;" d="M311.2,234.3c-1.8,1.5-3.9,2.4-6.2,2.7l-3.9,0.6c0,0,5.9,0.5,7.6-0.2
					C309.8,236.6,310.7,235.5,311.2,234.3z"/>
				<path style="fill:#C45F66;" d="M313.6,208.2c0,0-0.1,7.1-5.1,10.6l-5,3.5c0,0,6.3-1.8,8.6-4.8S313.6,208.2,313.6,208.2z"/>
				<path style="fill:#EAC3A0;" d="M317.4,242.6c0,0,5.5-21.6,5.9-24.9c0,0-0.2,10.3-5,25L317.4,242.6z"/>
				<path style="fill:#EAC3A0;" d="M309.8,245.7l-1.2,1.9l2.9,3.5C311.4,251.1,308.8,247.8,309.8,245.7z"/>
				<path style="fill:#EAC3A0;" d="M316.5,243.9c0,0,6.9,0,6.6,3.6s-0.2,2.5-0.2,2.5s0.1-2.9-0.8-3.7
					C320.5,244.9,318.5,244,316.5,243.9z"/>
				<polygon style="fill:#EAC3A0;" points="314.5,242 317.8,242 318.2,242.7 				"/>
				<path style="fill:#EAC3A0;" d="M295.9,244c-0.2,0.1-3.8,2.2-3.8,3.5s4.8-0.9,4.8-0.9s0.4-2.7,2.6-2.9S295.9,244,295.9,244z"/>
				<path style="fill:#EAC3A0;" d="M282.6,217.1c1.5,1.2,2.2,3,2,4.9c5.2,5.2,9.4,11.3,12.3,18c0,0-5.1-13.6-9-17.4l-1.2-1.7
					l-2.2-4.9L282.6,217.1z"/>
				<path style="fill:#EAC3A0;" d="M278.5,222.5c1.2,0.6,2.5,0.7,3.7,0.3c-1,0.4-1.6,1.4-1.5,2.5L278.5,222.5z"/>
				<path style="fill:#EAC3A0;" d="M315.6,208.2c0,0-0.4,4.3,3.8,4.9c-1.7,0.3-3.1,1.4-3.8,3C315.6,216.1,315.7,209.9,315.6,208.2z"
					/>
			</g>
		</g>
	</g>
</g>
</svg>
