<?xml version="1.0" standalone="no"?>
<!DOCTYPE svg PUBLIC "-//W3C//DTD SVG 1.1//EN" "http://www.w3.org/Graphics/SVG/1.1/DTD/svg11.dtd" >
<svg xmlns="http://www.w3.org/2000/svg">
<metadata>Generated by IcoMoon</metadata>
<defs>
<font id="icomoon" horiz-adv-x="1024">
<font-face units-per-em="1024" ascent="960" descent="-64" />
<missing-glyph horiz-adv-x="1024" />
<glyph unicode="&#x20;" horiz-adv-x="512" d="" />
<glyph unicode="&#xf200;" glyph-name="pagesense" d="M904.533 938.667h-785.067c-54.187 0-98.133-43.947-98.133-98.133v-785.067c0-54.187 43.947-98.133 98.133-98.133h785.067c54.187 0 98.133 43.947 98.133 98.133v785.067c0 54.187-43.947 98.133-98.133 98.133zM965.973 55.467c0-33.92-27.52-61.44-61.44-61.44h-785.067c-33.92 0-61.44 27.52-61.44 61.44v619.52h797.44c10.24 0 18.347 8.32 18.347 18.347s-8.32 18.347-18.347 18.347h-797.44v128.853c0 33.92 27.52 61.44 61.44 61.44h785.067c33.92 0 61.44-27.52 61.44-61.44v-785.067zM154.24 831.787c-16.213 0-29.227-13.013-29.227-29.227s13.013-29.227 29.227-29.227c16.213 0 29.227 13.013 29.227 29.227-0.213 16.213-13.227 29.227-29.227 29.227zM265.6 831.787c-16.213 0-29.227-13.013-29.227-29.227s13.013-29.227 29.227-29.227c16.213 0 29.227 13.013 29.227 29.227s-13.013 29.227-29.227 29.227zM377.173 831.787c-16.213 0-29.227-13.013-29.227-29.227s13.013-29.227 29.227-29.227c16.213 0 29.227 13.013 29.227 29.227s-13.227 29.227-29.227 29.227zM217.387 407.467c-10.24 0-18.347-8.32-18.347-18.347v-283.733c0-10.24 8.32-18.347 18.347-18.347s18.347 8.32 18.347 18.347v283.733c0 10.027-8.32 18.347-18.347 18.347zM369.067 505.6c-10.24 0-18.347-8.32-18.347-18.347v-381.867c0-10.24 8.32-18.347 18.347-18.347s18.347 8.32 18.347 18.347v381.867c0.213 10.027-8.107 18.347-18.347 18.347zM520.96 432c-10.24 0-18.347-8.32-18.347-18.347v-308.267c0-10.24 8.32-18.347 18.347-18.347 10.24 0 18.347 8.32 18.347 18.347v308.267c0.213 10.027-8.107 18.347-18.347 18.347zM672.853 554.667c-10.24 0-18.347-8.32-18.347-18.347v-430.933c0-10.24 8.32-18.347 18.347-18.347s18.347 8.32 18.347 18.347v430.933c0 10.027-8.107 18.347-18.347 18.347zM824.747 333.867c-10.24 0-18.347-8.32-18.347-18.347v-210.133c0-10.24 8.32-18.347 18.347-18.347 10.24 0 18.347 8.32 18.347 18.347v210.133c0 10.027-8.107 18.347-18.347 18.347z" />
<glyph unicode="&#xf201;" glyph-name="add-component" d="M0 723.2c0 73.6 0 147.2 0 224 0 9.6 3.2 12.8 16 12.8 147.2 0 297.6 0 444.8 0 12.8 0 16-3.2 16-16 0-147.2 0-297.6 0-444.8 0-12.8-3.2-16-16-16-147.2 0-297.6 0-444.8 0-12.8 0-16 3.2-16 16 0 73.6 0 150.4 0 224v0zM236.8 908.8c-57.6 0-115.2 0-172.8 0-12.8 0-16-3.2-16-16 0-115.2 0-230.4 0-342.4 0-12.8 3.2-16 16-16 115.2 0 230.4 0 342.4 0 12.8 0 16 3.2 16 16 0 115.2 0 227.2 0 342.4 0 12.8-3.2 16-16 16-54.4 0-112 0-169.6 0zM1024 723.2c0-73.6 0-147.2 0-224 0-12.8-3.2-16-16-16-147.2 0-297.6 0-444.8 0-12.8 0-16 3.2-16 16 0 147.2 0 297.6 0 444.8 0 12.8 3.2 16 16 16 147.2 0 297.6 0 444.8 0 12.8 0 16-3.2 16-16 0-73.6 0-147.2 0-220.8zM972.8 723.2c0 57.6 0 115.2 0 172.8 0 12.8-3.2 16-16 16-115.2 0-230.4 0-342.4 0-12.8 0-16-3.2-16-16 0-115.2 0-230.4 0-342.4 0-12.8 3.2-16 16-16 115.2 0 230.4 0 342.4 0 12.8 0 16 3.2 16 16 0 54.4 0 112 0 169.6v0zM236.8 409.6c73.6 0 147.2 0 224 0 12.8 0 16-3.2 16-16 0-147.2 0-297.6 0-444.8 0-12.8-3.2-16-16-16-147.2 0-297.6 0-444.8 0-12.8 3.2-16 3.2-16 16 0 147.2 0 297.6 0 444.8 0 12.8 3.2 16 16 16 73.6 0 147.2 0 220.8 0zM425.6 172.8c0 57.6 0 115.2 0 172.8 0 12.8-3.2 16-16 16-115.2 0-230.4 0-342.4 0-12.8 0-16-3.2-16-16 0-115.2 0-230.4 0-342.4 0-12.8 3.2-16 16-16 115.2 0 230.4 0 342.4 0 12.8 0 16 3.2 16 16-3.2 57.6 0 112 0 169.6v0zM812.8 377.6c0 32 0 32-35.2 35.2-12.8 0-16-3.2-16-16 0-60.8 0-121.6 0-179.2 0-12.8-3.2-16-16-16-54.4 0-105.6 0-160 0-38.4 0-38.4 0-38.4-38.4 0-12.8 3.2-16 16-16 60.8 0 118.4 0 179.2 0 16 0 19.2-6.4 19.2-19.2 0-51.2 0-105.6 0-160 0-35.2 0-35.2 35.2-35.2 12.8 0 16 3.2 16 16 0 60.8 0 121.6 0 182.4 0 9.6 3.2 16 12.8 12.8 54.4 0 108.8 0 163.2 0 35.2 0 32 0 35.2 35.2 0 16-3.2 16-19.2 16-57.6 0-115.2 0-176 0-16 0-19.2 6.4-19.2 19.2 0 28.8 0 57.6 0 86.4 3.2 28.8 3.2 51.2 3.2 76.8v0z" />
<glyph unicode="&#xf202;" glyph-name="attach16" d="M707.2 652.8c12.8 12.8 12.8 38.4 0 51.2s-38.4 12.8-51.2 0l-384-380.8c-44.8-44.8-44.8-121.6 0-166.4s121.6-44.8 166.4 0l400 400c3.2 3.2 6.4 3.2 9.6 6.4 54.4 54.4 195.2 195.2 57.6 332.8-51.2 51.2-115.2 73.6-182.4 57.6-54.4-12.8-108.8-44.8-166.4-102.4l-428.8-432c-51.2-51.2-80-124.8-76.8-201.6 3.2-73.6 35.2-147.2 86.4-198.4s124.8-80 198.4-83.2c3.2 0 3.2 0 6.4 0 73.6 0 140.8 28.8 192 76.8l425.6 428.8c12.8 12.8 12.8 38.4 0 51.2s-38.4 12.8-51.2 0l-425.6-425.6c-38.4-38.4-89.6-57.6-147.2-57.6-54.4 0-108.8 22.4-147.2 60.8-83.2 83.2-86.4 220.8-9.6 297.6l435.2 435.2c44.8 44.8 89.6 73.6 128 83.2 41.6 9.6 80-3.2 115.2-38.4s44.8-64 32-102.4c-9.6-28.8-28.8-57.6-60.8-92.8-3.2-3.2-6.4-3.2-6.4-6.4l-435.2-438.4c-16-16-44.8-16-64 0s-16 44.8 0 64l384 380.8z" />
<glyph unicode="&#xf203;" glyph-name="checkmark" d="M864 832l-480-480-224 224-160-160 384-384 640 640-160 160z" />
<glyph unicode="&#xf204;" glyph-name="comment-new" horiz-adv-x="1088" d="M412.8-64v0c-16 0-25.6 6.4-35.2 19.2l-112 195.2h-153.6c-60.8-3.2-112 41.6-112 102.4v604.8c6.4 60.8 54.4 108.8 112 102.4h857.6c60.8 6.4 112-41.6 112-102.4v-611.2c-6.4-60.8-54.4-105.6-112-102.4h-416l-112-195.2c-6.4-6.4-19.2-12.8-28.8-12.8zM112 883.2c-16 0-32-9.6-35.2-25.6v-611.2c3.2-12.8 19.2-22.4 35.2-22.4h176c16 0 25.6-6.4 35.2-19.2l89.6-150.4 89.6 156.8c6.4 9.6 19.2 16 35.2 16h438.4c16 0 35.2 9.6 35.2 25.6v604.8c-6.4 16-19.2 25.6-35.2 25.6 0 0-864 0-864 0zM684.8 592h-457.6c-19.2 0-41.6 16-41.6 41.6s16 38.4 41.6 38.4h457.6c19.2 0 41.6-16 41.6-41.6s-19.2-38.4-41.6-38.4zM473.6 419.2h-252.8c-19.2 0-41.6 16-41.6 41.6s19.2 35.2 41.6 35.2h252.8c19.2 0 41.6-16 41.6-41.6s-22.4-35.2-41.6-35.2z" />
<glyph unicode="&#xf205;" glyph-name="comment" d="M835.2 540.8c0-16-12.8-25.6-25.6-25.6h-595.2c-16 0-25.6 12.8-25.6 25.6s12.8 25.6 25.6 25.6h592c16 3.2 28.8-9.6 28.8-25.6zM643.2 435.2h-428.8c-16 0-25.6-12.8-25.6-25.6s12.8-25.6 25.6-25.6h428.8c16 0 25.6 12.8 25.6 25.6s-9.6 25.6-25.6 25.6zM809.6 704h-595.2c-12.8 0-25.6-12.8-25.6-25.6s12.8-25.6 25.6-25.6h592c16 0 25.6 12.8 25.6 25.6s-9.6 25.6-22.4 25.6zM1024 864v-646.4c0-16-12.8-25.6-25.6-25.6h-528l-182.4-179.2c-6.4-9.6-44.8-19.2-44.8 19.2v160h-217.6c-12.8 0-25.6 12.8-25.6 25.6v646.4c0 16 12.8 25.6 25.6 25.6h969.6c16 3.2 28.8-9.6 28.8-25.6zM969.6 838.4h-915.2v-592h214.4c16 0 25.6-12.8 25.6-25.6v-124.8l144 144c6.4 6.4 12.8 9.6 19.2 9.6h508.8l3.2 588.8z" />
<glyph unicode="&#xf206;" glyph-name="department" d="M969.6 265.6h-28.8v115.2c0 44.8-38.4 83.2-83.2 83.2h-316.8v124.8h150.4c22.4 0 44.8 19.2 44.8 44.8v179.2c0 22.4-19.2 41.6-44.8 41.6h-358.4c-22.4 0-44.8-19.2-44.8-41.6v-179.2c0-22.4 19.2-44.8 44.8-44.8h150.4v-124.8h-316.8c-44.8 0-83.2-38.4-83.2-83.2v-115.2h-28.8c-28.8 0-54.4-22.4-54.4-54.4v-118.4c0-28.8 22.4-54.4 54.4-54.4h118.4c28.8 3.2 51.2 25.6 51.2 54.4v118.4c0 28.8-22.4 54.4-54.4 54.4h-28.8v115.2c0 12.8 9.6 25.6 22.4 25.6h316.8v-140.8h-28.8c-28.8 0-54.4-22.4-54.4-54.4v-118.4c0-28.8 22.4-54.4 54.4-54.4h118.4c28.8 0 54.4 22.4 54.4 54.4v118.4c0 28.8-22.4 54.4-54.4 54.4h-28.8v140.8h316.8c12.8 0 22.4-9.6 22.4-25.6v-115.2h-28.8c-28.8 0-54.4-22.4-54.4-54.4v-118.4c0-28.8 22.4-54.4 54.4-54.4h118.4c28.8 0 54.4 22.4 54.4 54.4v118.4c0 32-22.4 54.4-54.4 54.4v0z" />
<glyph unicode="&#xf207;" glyph-name="edit-mp-012" d="M467.2 176l-230.4 230.4 486.4 486.4 230.4-230.4c0 0-486.4-486.4-486.4-486.4zM323.2 406.4l144-144 396.8 400-144 144-396.8-400zM467.2 198.4l-211.2 214.4c-6.4 6.4-19.2 0-19.2-6.4l-6.4-224 230.4-6.4c16 0 19.2 16 6.4 22.4zM672 771.2l48 48 147.2-150.4-48-48c0 0-147.2 150.4-147.2 150.4z" />
<glyph unicode="&#xf208;" glyph-name="expand" d="M752 515.2l-227.2-227.2c-6.4-6.4-12.8-9.6-19.2-9.6s-12.8 3.2-19.2 9.6l-217.6 217.6c-9.6 9.6-9.6 25.6 0 38.4s25.6 9.6 38.4 0l198.4-198.4 208 208c9.6 9.6 25.6 9.6 38.4 0s12.8-28.8 0-38.4zM1024 448c0-281.6-230.4-512-512-512s-512 230.4-512 512 230.4 512 512 512 512-230.4 512-512zM969.6 448c0 252.8-204.8 457.6-457.6 457.6s-457.6-204.8-457.6-457.6 204.8-457.6 457.6-457.6 457.6 204.8 457.6 457.6z" />
<glyph unicode="&#xf209;" glyph-name="expand1" d="M512 960c-281.6 0-512-230.4-512-512s230.4-512 512-512c281.6 0 512 230.4 512 512s-230.4 512-512 512zM512 3.2c-243.2 0-444.8 201.6-444.8 444.8s201.6 444.8 444.8 444.8c243.2 0 444.8-198.4 444.8-444.8 0-243.2-201.6-444.8-444.8-444.8zM707.2 560l-198.4-198.4-198.4 198.4c-12.8 12.8-35.2 12.8-48 0s-12.8-35.2 0-48l224-224c6.4-6.4 16-9.6 25.6-9.6s19.2 3.2 25.6 9.6l220.8 224c12.8 12.8 12.8 35.2 0 48s-38.4 12.8-51.2 0z" />
<glyph unicode="&#xf20a;" glyph-name="flag5" d="M633.6 812.8c-44.8 0-89.6-9.6-131.2-19.2s-83.2-16-124.8-16c-32 0-60.8 6.4-86.4 16-3.2 0-6.4 0-6.4 0s0 0 0 0 0 0 0 0c-3.2 0-6.4 0-6.4 0s0 0 0 0-3.2 0-3.2 0-3.2 0-3.2-3.2c0 0 0 0 0 0-3.2-3.2-6.4-6.4-6.4-9.6 0 0 0 0 0 0 0-3.2 0-6.4 0-6.4v-662.4c0-12.8 9.6-22.4 22.4-22.4s22.4 9.6 22.4 22.4v329.6c22.4-6.4 44.8-9.6 70.4-9.6 44.8 0 89.6 9.6 131.2 19.2s83.2 16 124.8 16c32 0 57.6-6.4 86.4-16 6.4-3.2 16-3.2 19.2 3.2s9.6 9.6 9.6 19.2v300.8c0 9.6-6.4 16-12.8 19.2-35.2 12.8-67.2 19.2-105.6 19.2zM707.2 502.4c-22.4 6.4-44.8 9.6-70.4 9.6-44.8 0-89.6-9.6-131.2-19.2s-83.2-16-124.8-16c-25.6 0-48 3.2-70.4 9.6v256c22.4-6.4 44.8-9.6 70.4-9.6 44.8 0 89.6 9.6 131.2 19.2s83.2 16 121.6 16c25.6 0 48-3.2 70.4-9.6l3.2-256c0 0 0 0 0 0z" />
<glyph unicode="&#xf20b;" glyph-name="forward-new" horiz-adv-x="1504" d="M851.2-64c-16 0-28.8 6.4-44.8 6.4-6.4 0-16 6.4-16 6.4-22.4 16-28.8 35.2-28.8 64v195.2h-704c-35.2 0-57.6 22.4-57.6 51.2v384c0 28.8 22.4 57.6 57.6 57.6h707.2v179.2c0 28.8 22.4 57.6 51.2 73.6s64 16 92.8-6.4l576-425.6c22.4-16 35.2-35.2 35.2-64 0-22.4-16-44.8-28.8-57.6l-12.8-16-585.6-432c-12.8-16-28.8-22.4-41.6-16zM828.8 38.4v0 0zM108.8 316.8h707.2c28.8 0 57.6-22.4 57.6-57.6v-201.6l512 380.8-521.6 384v-179.2c0-28.8-22.4-57.6-57.6-57.6h-697.6c0 0 0-268.8 0-268.8zM1404.8 470.4v0zM1404.8 470.4v0zM822.4 851.2v0 0z" />
<glyph unicode="&#xf20c;" glyph-name="insight" d="M489.6 428.8l-192 406.4c-3.2 9.6-16 12.8-25.6 9.6-169.6-80-278.4-252.8-272-441.6s121.6-355.2 297.6-422.4c54.4-22.4 115.2-32 172.8-32 124.8 0 243.2 48 332.8 137.6 9.6 9.6 9.6 22.4 0 28.8l-313.6 313.6zM470.4-12.8c-54.4 0-108.8 9.6-160 28.8-160 64-265.6 214.4-272 387.2-3.2 166.4 86.4 316.8 233.6 393.6l182.4-390.4c0-3.2 3.2-3.2 3.2-6.4l304-304c-80-70.4-182.4-108.8-291.2-108.8v0zM1017.6 540.8c-25.6 150.4-124.8 281.6-265.6 345.6-9.6 6.4-22.4 0-25.6-9.6l-188.8-409.6c-3.2-6.4-3.2-16 3.2-22.4l320-320c3.2-3.2 9.6-6.4 12.8-6.4s9.6 3.2 12.8 6.4c108.8 108.8 156.8 265.6 131.2 416v0zM870.4 169.6l-294.4 294.4 176 377.6c118.4-60.8 201.6-176 224-307.2 22.4-134.4-16-268.8-105.6-364.8zM704 908.8c-121.6 57.6-259.2 57.6-380.8 0l188.8-409.6c0 0 192 409.6 192 409.6z" />
<glyph unicode="&#xf20d;" glyph-name="JIRA_logo1" horiz-adv-x="768" d="M544 320c230.4 224 220.8 384 220.8 384 0 38.4-32 16-32 16-60.8-48-150.4-48-150.4-48-25.6-108.8-163.2-246.4-198.4-278.4-22.4 22.4-176 166.4-204.8 281.6 0 0-86.4 0-147.2 48 0 0-32 19.2-32-19.2 0 0-6.4-153.6 220.8-377.6s256-316.8 243.2-377.6h166.4c0 0 9.6 172.8-124.8 336 9.6 9.6 22.4 22.4 38.4 35.2v0zM230.4 240c-105.6-153.6-96-304-96-304h166.4c-6.4 38.4 0 86.4 51.2 166.4-38.4 48-76.8 92.8-121.6 137.6v0zM297.6 659.2h166.4c0 0 22.4 3.2 16-25.6-6.4-41.6-96-121.6-96-121.6s-64 60.8-92.8 118.4c-3.2-3.2-12.8 28.8 6.4 28.8zM598.4 902.4c38.4 0 70.4-32 70.4-73.6s-32-70.4-70.4-70.4-70.4 32-70.4 70.4 32 73.6 70.4 73.6zM176 902.4c38.4 0 70.4-32 70.4-73.6s-32-70.4-70.4-70.4-73.6 32-73.6 70.4 32 73.6 73.6 73.6zM390.4 960c38.4 0 70.4-32 70.4-73.6s-32-73.6-70.4-73.6-70.4 35.2-70.4 73.6 32 73.6 70.4 73.6z" />
<glyph unicode="&#xf20e;" horiz-adv-x="1344" d="M668.8-64c-201.6 0-403.2 0-604.8 0-48 0-64 16-64 60.8 0 300.8 0 601.6 0 902.4 0 44.8 16 60.8 60.8 60.8 406.4 0 812.8 0 1216 0 48 0 64-16 64-60.8 0-300.8 0-601.6 0-902.4 0-44.8-16-60.8-64-60.8-201.6 0-403.2 0-608 0v0zM1200 406.4c35.2 0 73.6 0 108.8 0 12.8 0 16 3.2 16 16 0 35.2 0 70.4 0 102.4 0 12.8-3.2 16-16 16-73.6 0-144 0-217.6 0-12.8 0-16-3.2-16-16 0-35.2 0-67.2 0-102.4 0-12.8 3.2-16 16-16 35.2 3.2 73.6 0 108.8 0v0zM140.8 256c35.2 0 73.6 0 108.8 0 12.8 0 16 3.2 16 16 0 35.2 0 70.4 0 102.4 0 12.8-3.2 16-16 16-73.6 0-144 0-217.6 0-12.8 0-16-3.2-16-16 0-35.2 0-67.2 0-102.4 0-12.8 3.2-16 16-16 38.4 0 73.6 0 108.8 0v0zM409.6 390.4c-35.2 0-73.6 0-112 0-12.8 0-16-3.2-16-16 0-35.2 0-70.4 0-102.4 0-12.8 3.2-16 16-16 73.6 0 144 0 217.6 0 12.8 0 16 3.2 16 16 0 35.2 0 70.4 0 102.4 0 12.8-3.2 16-16 16-35.2-3.2-70.4 0-105.6 0zM668.8 256c35.2 0 70.4 0 102.4 0 16 0 22.4 3.2 22.4 19.2 0 32 0 64 0 92.8 0 16-6.4 19.2-19.2 19.2-70.4 0-137.6 0-208 0-12.8 0-19.2 0-19.2-16 0-32 0-67.2 0-99.2 0-12.8 6.4-16 16-16 35.2 0 70.4 0 105.6 0v0zM934.4 256c35.2 0 73.6 0 108.8 0 12.8 0 16 3.2 16 12.8 0 35.2 0 70.4 0 102.4 0 12.8-3.2 16-12.8 16-73.6 0-144 0-217.6 0-12.8 0-16-3.2-16-12.8 0-35.2 0-70.4 0-102.4 0-12.8 3.2-16 12.8-16 35.2 0 73.6 0 108.8 0v0zM1200 390.4c-35.2 0-73.6 0-108.8 0-12.8 0-16-3.2-16-16 0-35.2 0-70.4 0-102.4 0-12.8 3.2-16 16-16 73.6 0 144 0 217.6 0 12.8 0 16 3.2 16 16 0 35.2 0 67.2 0 102.4 0 12.8-3.2 16-16 16-38.4-3.2-73.6 0-108.8 0v0zM140.8 105.6c35.2 0 73.6 0 108.8 0 12.8 0 16 3.2 16 16 0 32 0 67.2 0 102.4 0 12.8-3.2 16-16 16-70.4 0-144 0-214.4 0-12.8 0-16-3.2-16-16 0-32 0-67.2 0-102.4 0-16 6.4-16 19.2-16 32 0 67.2 0 102.4 0v0zM406.4 105.6c35.2 0 73.6 0 108.8 0 9.6 0 16 0 16 12.8 0 35.2 0 70.4 0 105.6 0 9.6-3.2 12.8-12.8 12.8-73.6 0-147.2 0-220.8 0-9.6 0-12.8-3.2-12.8-12.8 0-35.2 0-70.4 0-102.4 0-12.8 3.2-16 16-16 32 0 67.2 0 105.6 0zM668.8 105.6c35.2 0 73.6 0 108.8 0 12.8 0 16 3.2 16 16 0 35.2 0 70.4 0 102.4 0 12.8-3.2 16-16 16-73.6 0-144 0-217.6 0-12.8 0-16-3.2-16-16 0-35.2 0-70.4 0-102.4 0-12.8 3.2-16 16-16 38.4 0 73.6 0 108.8 0v0zM931.2 105.6c35.2 0 73.6 0 108.8 0 9.6 0 16 0 16 16 0 35.2 0 70.4 0 102.4 0 12.8-3.2 12.8-16 12.8-73.6 0-144 0-217.6 0-12.8 0-12.8-3.2-12.8-16 0-35.2 0-70.4 0-102.4 0-12.8 3.2-12.8 16-12.8 35.2 0 70.4 0 105.6 0v0zM1196.8 105.6c35.2 0 70.4 0 105.6 0 12.8 0 19.2 0 19.2 16 0 32 0 67.2 0 99.2 0 12.8-3.2 16-16 16-70.4 0-140.8 0-211.2 0-12.8 0-16-3.2-16-16 0-32 0-67.2 0-99.2 0-12.8 3.2-16 16-16 32 0 67.2 0 102.4 0v0zM406.4-44.8c35.2 0 73.6 0 108.8 0 9.6 0 16 0 16 12.8 0 35.2 0 70.4 0 105.6 0 9.6-3.2 12.8-12.8 12.8-73.6 0-147.2 0-217.6 0-9.6 0-12.8-3.2-12.8-12.8 0-35.2 0-70.4 0-102.4 0-12.8 3.2-16 16-16 28.8 0 64 0 102.4 0zM668.8-44.8c35.2 0 70.4 0 102.4 0 16 0 22.4 3.2 22.4 19.2 0 32 0 64 0 92.8 0 12.8-3.2 19.2-16 19.2-70.4 0-140.8 0-211.2 0-12.8 0-16-3.2-16-16 0-32 0-64 0-96 0-16 6.4-19.2 19.2-19.2 32 0 64 0 99.2 0v0zM934.4-44.8c35.2 0 73.6 0 108.8 0 12.8 0 16 3.2 16 16 0 32 0 67.2 0 102.4 0 12.8-3.2 16-16 16-70.4 0-144 0-214.4 0-12.8 0-16-3.2-16-16 0-32 0-67.2 0-102.4 0-12.8 3.2-16 16-16 35.2 0 70.4 0 105.6 0v0zM931.2 406.4c35.2 0 73.6 0 108.8 0 9.6 0 16 0 16 16 0 35.2 0 70.4 0 102.4 0 12.8-3.2 12.8-16 12.8-73.6 0-144 0-217.6 0-12.8 0-12.8-3.2-12.8-16 0-35.2 0-70.4 0-102.4 0-12.8 3.2-12.8 16-12.8 35.2 3.2 70.4 0 105.6 0v0zM672 540.8c-35.2 0-70.4 0-105.6 0-12.8 0-19.2-3.2-16-16 0-32 0-67.2 0-99.2 0-16 6.4-16 19.2-16 70.4 0 140.8 0 211.2 0 16 0 19.2 6.4 16 19.2 0 32 0 64 0 96 0 16-6.4 19.2-19.2 16-38.4 0-73.6 0-105.6 0zM403.2 406.4c35.2 0 73.6 0 108.8 0 12.8 0 16 3.2 16 16 0 35.2 0 67.2 0 102.4 0 12.8-3.2 16-16 16-70.4 0-144 0-214.4 0-12.8 0-16-3.2-16-16 0-35.2 0-67.2 0-102.4 0-16 6.4-16 19.2-16 35.2 3.2 67.2 0 102.4 0v0zM140.8 406.4c35.2 0 73.6 0 108.8 0 12.8 0 16 3.2 16 16 0 35.2 0 70.4 0 102.4 0 12.8-3.2 16-16 16-73.6 0-144 0-217.6 0-12.8 0-16-3.2-16-16 0-35.2 0-67.2 0-102.4 0-12.8 3.2-16 16-16 38.4 3.2 73.6 0 108.8 0v0zM1200 560c35.2 0 70.4 0 102.4 0 12.8 0 19.2 0 19.2 16 0 32 0 67.2 0 102.4 0 12.8-3.2 16-16 16-70.4 0-144 0-214.4 0-12.8 0-16-3.2-16-16 0-32 0-67.2 0-99.2 0-16 6.4-19.2 19.2-16 35.2-3.2 70.4-3.2 105.6-3.2v0zM934.4 560c35.2 0 73.6 0 108.8 0 9.6 0 16 3.2 16 12.8 0 35.2 0 70.4 0 102.4 0 12.8-3.2 16-16 12.8-73.6 0-144 0-217.6 0-12.8 0-16-6.4-16-16 0-32 0-67.2 0-99.2 0-12.8 3.2-16 16-16 38.4 3.2 73.6 3.2 108.8 3.2v0zM668.8 560c35.2 0 73.6 0 108.8 0 9.6 0 16 3.2 16 12.8 0 35.2 0 70.4 0 102.4 0 12.8-3.2 16-16 16-73.6 0-144 0-217.6 0-9.6 0-16-3.2-16-12.8 0-35.2 0-70.4 0-102.4 0-12.8 3.2-12.8 16-12.8 38.4-3.2 73.6-3.2 108.8-3.2zM403.2 560c35.2 0 73.6 0 108.8 0 12.8 0 16 0 16 16 0 32 0 67.2 0 102.4 0 12.8-3.2 16-16 16-70.4 0-144 0-214.4 0-9.6-3.2-16-6.4-16-19.2 0-32 0-67.2 0-102.4 0-12.8 3.2-16 16-16 35.2 3.2 70.4 3.2 105.6 3.2v0zM140.8 560c35.2 0 73.6 0 108.8 0 12.8 0 16 3.2 16 16 0 35.2 0 70.4 0 102.4 0 12.8-3.2 16-16 16-73.6 0-144 0-217.6 0-12.8 0-16-3.2-16-16 0-35.2 0-67.2 0-102.4 0-12.8 3.2-16 16-16 38.4 0 73.6 0 108.8 0v0zM1200 841.6c-38.4 0-73.6 0-112 0-12.8 0-16-3.2-16-16 0-35.2 0-70.4 0-102.4 0-12.8 3.2-16 16-16 73.6 0 144 0 217.6 0 12.8 0 16 6.4 16 16 0 32 0 67.2 0 99.2 0 12.8-3.2 16-16 16-35.2 3.2-70.4 3.2-105.6 3.2v0zM934.4 710.4c35.2 0 73.6 0 108.8 0 12.8 0 16 3.2 16 16 0 35.2 0 70.4 0 102.4 0 12.8-3.2 16-16 16-73.6 0-144 0-217.6 0-12.8 0-16-3.2-16-16 0-35.2 0-67.2 0-102.4 0-12.8 3.2-16 16-16 38.4 0 73.6 0 108.8 0v0zM668.8 841.6c-35.2 0-73.6 0-108.8 0-9.6 0-16-3.2-16-12.8 0-35.2 0-70.4 0-102.4 0-12.8 3.2-16 16-16 73.6 0 144 0 217.6 0 12.8 0 16 6.4 16 16 0 32 0 67.2 0 99.2 0 12.8-3.2 16-16 16-35.2 0-73.6 0-108.8 0v0zM406.4 841.6c-35.2 0-73.6 0-108.8 0-12.8 0-16-3.2-16-16 0-35.2 0-70.4 0-102.4 0-12.8 3.2-16 16-16 73.6 0 144 0 217.6 0 12.8 0 16 3.2 16 16 0 35.2 0 67.2 0 102.4 0 12.8-3.2 16-16 16-38.4 0-73.6 0-108.8 0v0zM144 841.6c-38.4 0-73.6 0-112 0-12.8 0-16-3.2-16-16 0-35.2 0-70.4 0-102.4 0-12.8 3.2-16 16-16 73.6 0 144 0 217.6 0 12.8 0 16 3.2 16 16 0 35.2 0 67.2 0 102.4 0 12.8-3.2 16-16 16-35.2 0-70.4 0-105.6 0zM144 86.4c-38.4 0-73.6 0-112 0-9.6 0-16-3.2-16-12.8 0-25.6 0-54.4 0-80s12.8-38.4 38.4-38.4c64 0 128 0 192 0 12.8 0 16 3.2 16 16 0 32 0 67.2 0 102.4 0 12.8-3.2 16-16 16-32-3.2-67.2-3.2-102.4-3.2zM1200 86.4c-35.2 0-73.6 0-108.8 0-9.6 0-16 0-16-16 0-35.2 0-70.4 0-102.4 0-12.8 3.2-12.8 16-12.8 64 0 128 0 192 0 25.6 0 38.4 12.8 38.4 38.4s0 51.2 0 76.8c0 12.8-6.4 16-16 16-35.2 0-70.4 0-105.6 0z" />
<glyph unicode="&#xf20f;" horiz-adv-x="1344" d="M1075.2 425.6c0 32 0 67.2 0 102.4 0 12.8 3.2 16 16 16 73.6 0 144 0 217.6 0 12.8 0 16-3.2 16-16 0-35.2 0-70.4 0-102.4 0-12.8-3.2-16-16-16-35.2 0-73.6 0-108.8 0s-70.4 0-105.6 0c-16-3.2-19.2 3.2-19.2 16v0zM249.6 390.4c-73.6 0-144 0-217.6 0-12.8 0-16-3.2-16-16 0-35.2 0-67.2 0-102.4 0-12.8 3.2-16 16-16 35.2 0 70.4 0 105.6 0s73.6 0 108.8 0c12.8 0 16 3.2 16 16 0 35.2 0 70.4 0 102.4 3.2 12.8 0 16-12.8 16v0zM1305.6 390.4c-35.2 0-70.4 0-105.6 0s-73.6 0-108.8 0c-12.8 0-16-3.2-16-16 0-35.2 0-70.4 0-102.4 0-12.8 3.2-16 16-16 73.6 0 144 0 217.6 0 12.8 0 16 3.2 16 16 0 35.2 0 67.2 0 102.4-3.2 12.8-6.4 16-19.2 16v0zM265.6 224c0 12.8-3.2 16-16 16-70.4 0-144 0-214.4 0-12.8 0-16-3.2-16-16 0-32 0-67.2 0-102.4 0-16 6.4-16 19.2-16 35.2 0 70.4 0 102.4 0 35.2 0 73.6 0 108.8 0 12.8 0 16 3.2 16 16-3.2 32-3.2 67.2 0 102.4v0zM1094.4 105.6c35.2 0 70.4 0 102.4 0 35.2 0 70.4 0 105.6 0 12.8 0 19.2 0 19.2 16 0 32 0 67.2 0 99.2 0 12.8-3.2 16-16 16-70.4 0-140.8 0-211.2 0-12.8 0-16-3.2-16-16 0-32 0-67.2 0-99.2-3.2-12.8 3.2-16 16-16zM528 73.6c0 9.6-3.2 12.8-12.8 12.8-73.6 0-147.2 0-217.6 0-9.6 0-12.8-3.2-12.8-12.8 0-35.2 0-70.4 0-102.4 0-12.8 3.2-16 16-16 35.2 0 70.4 0 105.6 0s73.6 0 108.8 0c9.6 0 16 0 16 12.8-3.2 35.2-3.2 70.4-3.2 105.6zM793.6 67.2c0 12.8-3.2 19.2-16 19.2-70.4 0-140.8 0-211.2 0-12.8 0-16-3.2-16-16 0-32 0-64 0-96 0-16 6.4-19.2 19.2-19.2 32 0 67.2 0 102.4 0s70.4 0 102.4 0c16 0 22.4 3.2 22.4 19.2-6.4 32-3.2 64-3.2 92.8v0zM1040 86.4c-70.4 0-144 0-214.4 0-12.8 0-16-3.2-16-16 0-32 0-67.2 0-102.4 0-12.8 3.2-16 16-16 35.2 0 70.4 0 105.6 0s73.6 0 108.8 0c12.8 0 16 3.2 16 16 0 32 0 67.2 0 102.4 0 12.8-3.2 16-16 16zM35.2 406.4c35.2 0 70.4 0 105.6 0s73.6 0 108.8 0c12.8 0 16 3.2 16 16 0 35.2 0 70.4 0 102.4 0 12.8-3.2 16-16 16-73.6 0-144 0-217.6 0-12.8 0-16-3.2-16-16 0-35.2 0-67.2 0-102.4 3.2-12.8 6.4-16 19.2-16v0zM1094.4 560c35.2 0 70.4 0 105.6 0s70.4 0 102.4 0c12.8 0 19.2 0 19.2 16 0 32 0 67.2 0 102.4 0 12.8-3.2 16-16 16-70.4 0-144 0-214.4 0-12.8 0-16-3.2-16-16 0-32 0-67.2 0-99.2 0-19.2 6.4-19.2 19.2-19.2v0zM35.2 560c35.2 0 70.4 0 105.6 0s73.6 0 108.8 0c12.8 0 16 3.2 16 16 0 35.2 0 70.4 0 102.4 0 12.8-3.2 16-16 16-73.6 0-144 0-217.6 0-12.8 0-16-3.2-16-16 0-35.2 0-67.2 0-102.4 3.2-12.8 6.4-19.2 19.2-16v0zM1075.2 723.2c0-12.8 3.2-16 16-16 73.6 0 144 0 217.6 0 12.8 0 16 6.4 16 16 0 32 0 67.2 0 99.2 0 12.8-3.2 16-16 16-35.2 0-70.4 0-102.4 0-38.4 0-73.6 0-112 0-12.8 0-16-3.2-16-16-3.2-28.8-3.2-64-3.2-99.2v0zM828.8 710.4c35.2 0 70.4 0 105.6 0s73.6 0 108.8 0c12.8 0 16 3.2 16 16 0 35.2 0 70.4 0 102.4 0 12.8-3.2 16-16 16-73.6 0-144 0-217.6 0-12.8 0-16-3.2-16-16 0-35.2 0-67.2 0-102.4 0-12.8 6.4-16 19.2-16v0zM547.2 723.2c0-12.8 3.2-16 16-16 73.6 0 144 0 217.6 0 12.8 0 16 6.4 16 16 0 32 0 67.2 0 99.2 0 12.8-3.2 16-16 16-35.2 0-70.4 0-105.6 0s-73.6 0-108.8 0c-9.6 0-16-3.2-16-12.8-3.2-32-3.2-67.2-3.2-102.4v0zM512 841.6c-35.2 0-70.4 0-105.6 0s-73.6 0-108.8 0c-12.8 0-16-3.2-16-16 0-35.2 0-70.4 0-102.4 0-12.8 3.2-16 16-16 73.6 0 144 0 217.6 0 12.8 0 16 3.2 16 16 0 35.2 0 67.2 0 102.4-3.2 12.8-6.4 16-19.2 16v0zM19.2 723.2c0-12.8 3.2-16 16-16 70.4 0 144 0 217.6 0 12.8 0 16 3.2 16 16 0 35.2 0 67.2 0 102.4 0 12.8-3.2 16-16 16-35.2 0-70.4 0-102.4 0-38.4 0-73.6 0-112 0-12.8 0-16-3.2-16-16-3.2-32-3.2-67.2-3.2-102.4v0zM246.4 86.4c-35.2 0-70.4 0-102.4 0-38.4 0-73.6 0-112 0-9.6 0-16-3.2-16-12.8 0-25.6 0-54.4 0-80s12.8-38.4 38.4-38.4c64 0 128 0 192 0 12.8 0 16 3.2 16 16 0 32 0 67.2 0 102.4 3.2 9.6 0 12.8-16 12.8zM1305.6 86.4c-35.2 0-70.4 0-102.4 0-35.2 0-73.6 0-108.8 0-9.6 0-16 0-16-16 0-35.2 0-70.4 0-102.4 0-12.8 3.2-12.8 16-12.8 64 0 128 0 192 0 25.6 0 38.4 12.8 38.4 38.4s0 51.2 0 76.8c-3.2 16-9.6 16-19.2 16v0z" />
<glyph unicode="&#xf210;" horiz-adv-x="1347" d="M1273.6-64h-1200c-0.384-0.007-0.837-0.012-1.292-0.012-39.941 0-72.32 32.379-72.32 72.32 0 0.454 0.004 0.907 0.013 1.359l-0.001-0.068v876.8c-0.007 0.384-0.012 0.837-0.012 1.292 0 39.941 32.379 72.32 72.32 72.32 0.454 0 0.907-0.004 1.359-0.013l-0.068 0.001h1200c0.384 0.007 0.837 0.012 1.292 0.012 39.941 0 72.32-32.379 72.32-72.32 0-0.454-0.004-0.907-0.013-1.359l0.001 0.068v-876.8c0.007-0.384 0.012-0.837 0.012-1.292 0-39.941-32.379-72.32-72.32-72.32-0.454 0-0.907 0.004-1.359 0.013l0.068-0.001zM73.6 915.2c-17.673 0-32-14.327-32-32v0-876.8c0-17.673 14.327-32 32-32v0h1200c17.673 0 32 14.327 32 32v0 880c0 17.673-14.327 32-32 32v0 0z" />
<glyph unicode="&#xf211;" horiz-adv-x="1347" d="M977.6 242.56c-11.211 19.516-31.936 32.447-55.681 32.447-12.569 0-24.292-3.623-34.181-9.882l0.262 0.155-328 138.56s0 0 0 1.92c0 35.346-28.654 64-64 64s-64-28.654-64-64v0c-0.076-1.291-0.119-2.8-0.119-4.32s0.043-3.029 0.129-4.528l-0.009 0.208-283.2-284.16 22.72-22.72 275.2 275.2c11.825-14.266 29.549-23.285 49.379-23.285 23.010 0 43.184 12.143 54.463 30.371l0.158 0.274 313.28-135.36c-4.281-8.356-6.79-18.23-6.79-28.689 0-35.346 28.654-64 64-64 27.258 0 50.537 17.041 59.762 41.051l0.148 0.438c3.365 7.436 5.359 16.115 5.44 25.251v0.029l229.44 50.24-3.2 32zM520.96 386.24c-5.763-7.44-14.617-12.246-24.602-12.479l-0.038-0.001c-11.112 0.134-20.847 5.912-26.484 14.596l-0.076 0.124c-3.304 4.855-5.32 10.821-5.44 17.25v0.030c0.294 14.22 9.82 26.138 22.813 30.022l0.227 0.058c2.64 1.069 5.697 1.76 8.894 1.917l0.066 0.003c12.576-0.228 23.358-7.676 28.397-18.365l0.083-0.195c2.050-3.904 3.33-8.502 3.518-13.38l0.002-0.060c-0.22-7.465-2.963-14.25-7.402-19.571l0.042 0.051zM952.64 205.76c0.073-1.005 0.114-2.178 0.114-3.36s-0.041-2.355-0.123-3.516l0.009 0.156c-5.094-11.324-16.278-19.066-29.27-19.066-4.695 0-9.155 1.011-13.172 2.828l0.201-0.081c-12.224 4.687-20.745 16.326-20.745 29.955 0 17.673 14.327 32 32 32 5.23 0 10.167-1.255 14.526-3.479l-0.181 0.084c10.425-5.418 17.422-16.135 17.422-28.487 0-2.493-0.285-4.92-0.825-7.249l0.042 0.216z" />
<glyph unicode="&#xf212;" horiz-adv-x="1347" d="M1216 597.76l-499.84-42.88c-8.962 25.103-32.484 42.766-60.146 42.88h-0.014c-15.143-0.019-29.012-5.457-39.777-14.479l0.097 0.079-174.72 131.2c4.035 7.839 6.401 17.107 6.401 26.927 0 0.096 0 0.192-0.001 0.288v-0.015c0.006 0.333 0.010 0.726 0.010 1.12 0 35.352-28.658 64.010-64.010 64.010-34.958 0-63.37-28.023-63.999-62.831l-0.001-0.059-168-176.64v-46.4l177.92 186.88c2.888-4.31 5.941-8.075 9.3-11.541l-0.020 0.021c12.79-10.875 29.496-17.489 47.746-17.489 5.762 0 11.37 0.659 16.752 1.906l-0.498-0.097c6.968 2.216 13.025 5.376 18.401 9.395l-0.161-0.115 175.68-131.84c-2.931-7.195-4.684-15.537-4.8-24.273v-0.047c-0.147-1.63-0.231-3.525-0.231-5.44 0-35.474 28.757-64.231 64.231-64.231 33.559 0 61.106 25.736 63.983 58.548l0.017 0.243 498.56 42.88zM416 736c-3.325-14.398-16.037-24.97-31.218-24.97-0.275 0-0.549 0.003-0.822 0.010l0.040-0.001c-3.059 0.246-5.89 0.814-8.59 1.674l0.27-0.074c-10.509 2.924-18.704 10.802-22.016 20.894l-0.064 0.226c-0.849 2.356-1.421 5.082-1.596 7.915l-0.004 0.085c0.25 6.236 2.247 11.96 5.511 16.751l-0.071-0.111c5.579 9.060 15.337 15.078 26.52 15.359l0.040 0.001c17.673 0 32-14.327 32-32v0c0.106-0.864 0.167-1.865 0.167-2.88s-0.061-2.016-0.178-2.999l0.012 0.119zM686.080 521.28c-5.303-10.772-16.202-18.053-28.801-18.053-17.607 0-31.893 14.22-31.999 31.803v0.010s0 2.24 0 3.52c1.256 11.62 8.57 21.278 18.678 25.839l0.202 0.081c3.681 1.61 7.969 2.551 12.477 2.56h0.003c17.673 0 32-14.327 32-32v0c-0.028-5.515-1.447-10.692-3.924-15.206l0.084 0.166z" />
<glyph unicode="&#xf213;" glyph-name="overview-icon1" d="M969.6 422.4c-44.8-16-86.4-28.8-134.4-25.6-22.4 0-38.4 6.4-54.4 19.2-51.2 38.4-99.2 80-147.2 121.6-19.2 16-38.4 32-57.6 48-9.6 9.6-22.4 9.6-35.2 3.2-38.4-22.4-70.4-51.2-102.4-76.8-22.4-19.2-48-38.4-70.4-54.4-32-25.6-64-22.4-96-6.4-48 25.6-86.4 64-128 102.4-28.8 25.6-28.8 25.6-64 3.2-16-12.8-25.6-22.4-38.4-28.8-9.6-9.6-19.2-16-35.2-28.8 0 22.4 0 38.4 0 57.6 0 9.6 0 9.6 3.2 9.6 32 22.4 76.8 60.8 108.8 54.4 12.8-3.2 22.4-6.4 32-12.8 41.6-35.2 80-76.8 128-102.4s38.4-25.6 76.8 3.2c44.8 32 86.4 67.2 128 99.2 16 12.8 32 22.4 54.4 32s48 6.4 70.4-9.6c60.8-51.2 121.6-99.2 182.4-150.4 35.2-32 70.4-35.2 115.2-22.4 38.4 12.8 76.8 25.6 115.2 41.6 0-3.2 0-3.2 0-3.2-3.2-57.6 0-57.6-51.2-73.6v0z" />
<glyph unicode="&#xf214;" glyph-name="overview-icon2" d="M156.8 272c0-12.8 0-28.8-19.2-28.8s-22.4 12.8-22.4 28.8c0 115.2 0 230.4 0 348.8 0 12.8 0 28.8 19.2 28.8s22.4-12.8 22.4-28.8c0-57.6 0-118.4 0-176s-3.2-115.2 0-172.8zM620.8 444.8c0 57.6 0 118.4 0 176 0 16-3.2 28.8-22.4 28.8-16 0-19.2-16-19.2-28.8 0-115.2 0-230.4 0-348.8 0-16 3.2-28.8 22.4-28.8 16 0 19.2 16 19.2 28.8 0 57.6 0 115.2 0 172.8zM76.8 611.2c-16 0-19.2-16-19.2-28.8 0-51.2 0-102.4 0-153.6s0-105.6 0-156.8c0-16 3.2-28.8 22.4-28.8 16 0 16 16 16 28.8 0 102.4 0 204.8 0 310.4 0 16 0 28.8-19.2 28.8v0zM214.4 425.6c0 51.2 0 102.4 0 153.6 0 16 0 28.8-19.2 28.8s-19.2-16-19.2-28.8c0-102.4 0-204.8 0-307.2 0-16 0-28.8 19.2-28.8s19.2 16 19.2 28.8c0 51.2 0 102.4 0 153.6zM563.2 425.6c0 51.2 0 102.4 0 153.6 0 16 0 28.8-19.2 28.8-16 0-19.2-12.8-19.2-28.8 0-102.4 0-208 0-313.6 0-16 3.2-25.6 19.2-25.6s19.2 12.8 19.2 28.8c-3.2 54.4 0 105.6 0 156.8zM678.4 425.6c0 51.2 0 102.4 0 153.6 0 16 0 28.8-19.2 28.8-16 0-19.2-12.8-19.2-28.8 0-102.4 0-208 0-313.6 0-16 3.2-25.6 19.2-25.6s19.2 12.8 19.2 28.8c0 54.4 0 105.6 0 156.8zM716.8 556.8c-16 0-19.2-16-19.2-28.8 0-41.6 0-86.4 0-128s0-86.4 0-128c0-16 3.2-28.8 22.4-28.8 16 0 19.2 16 19.2 28.8 0 86.4 0 169.6 0 256-3.2 16-6.4 32-22.4 28.8v0zM486.4 556.8c-16 0-22.4-12.8-22.4-25.6 0-44.8 0-86.4 0-131.2s0-86.4 0-131.2c0-12.8 3.2-25.6 19.2-25.6s22.4 12.8 22.4 25.6c0 86.4 0 172.8 0 262.4-3.2 12.8-3.2 25.6-19.2 25.6v0zM252.8 556.8c-16 0-22.4-12.8-22.4-25.6 0-86.4 0-172.8 0-262.4 0-12.8 3.2-25.6 19.2-25.6s22.4 12.8 22.4 25.6c0 41.6 0 86.4 0 128 0 44.8 0 89.6 0 134.4 0 12.8-3.2 25.6-19.2 25.6zM38.4 400c0 44.8 0 89.6 0 134.4 0 16-3.2 25.6-22.4 25.6-12.8-3.2-16-16-16-28.8 0-86.4 0-172.8 0-262.4 0-16 3.2-25.6 22.4-25.6 16 0 19.2 12.8 19.2 25.6-3.2 44.8-3.2 86.4-3.2 131.2zM310.4 515.2c-16 0-19.2-12.8-19.2-25.6 0-70.4 0-144 0-214.4 0-12.8 3.2-25.6 19.2-28.8 16 0 19.2 12.8 19.2 25.6 0 35.2 0 70.4 0 105.6s0 73.6 0 108.8c0 16-3.2 28.8-19.2 28.8zM425.6 515.2c-16 0-19.2-12.8-19.2-25.6 0-73.6 0-144 0-217.6 0-12.8 3.2-25.6 19.2-25.6s19.2 12.8 19.2 25.6c0 35.2 0 73.6 0 108.8s0 73.6 0 108.8c0 12.8-3.2 25.6-19.2 25.6zM774.4 515.2c-16 0-19.2-12.8-19.2-25.6 0-35.2 0-70.4 0-105.6s0-73.6 0-108.8c0-12.8 3.2-25.6 19.2-28.8 16 0 19.2 12.8 19.2 25.6 0 70.4 0 144 0 214.4 0 16 0 28.8-19.2 28.8zM1027.2 377.6c0 38.4 0 73.6 0 112 0 16-3.2 25.6-22.4 25.6-16 0-19.2-12.8-19.2-25.6 0-73.6 0-144 0-217.6 0-16 3.2-25.6 22.4-25.6 16 0 19.2 12.8 19.2 25.6 0 35.2 0 70.4 0 105.6zM387.2 368c0 35.2 0 67.2 0 102.4 0 16-3.2 25.6-22.4 25.6-16 0-19.2-12.8-19.2-25.6 0-67.2 0-131.2 0-198.4 0-16 3.2-25.6 22.4-25.6 16 0 19.2 12.8 19.2 25.6 0 32 0 64 0 96zM835.2 470.4c-16 0-22.4-12.8-22.4-25.6 0-57.6 0-115.2 0-172.8 0-12.8 3.2-25.6 19.2-25.6s22.4 12.8 22.4 25.6c0 28.8 0 57.6 0 86.4s0 57.6 0 86.4c-3.2 12.8-6.4 25.6-19.2 25.6zM947.2 470.4c-16 0-19.2-9.6-19.2-25.6 0-28.8 0-57.6 0-86.4s0-60.8 0-89.6c0-12.8 3.2-25.6 19.2-25.6s19.2 9.6 19.2 25.6c0 57.6 0 118.4 0 176 3.2 16-3.2 25.6-19.2 25.6zM892.8 451.2c-16 0-22.4-9.6-22.4-22.4 0-54.4 0-105.6 0-160 0-12.8 6.4-22.4 19.2-22.4 16 0 22.4 9.6 22.4 22.4 0 25.6 0 54.4 0 80s0 54.4 0 80c0 12.8-6.4 22.4-19.2 22.4v0z" />
<glyph unicode="&#xf215;" glyph-name="overview-icon3" horiz-adv-x="2592" d="M19.2-48c0 51.2 0 726.4 0 771.2 0 22.4 0 22.4 6.4 25.6 83.2 60.8 192 150.4 272 137.6 35.2-6.4 60.8-12.8 83.2-35.2 102.4-92.8 201.6-188.8 320-262.4s96-64 192 6.4c112 83.2 214.4 172.8 323.2 256 41.6 32 83.2 60.8 134.4 80 57.6 22.4 121.6 19.2 176-28.8 150.4-128 307.2-249.6 457.6-380.8 86.4-76.8 179.2-92.8 288-57.6 99.2 32 204.8 67.2 304 102.4h3.2l-3.2-608-2556.8-6.4z" />
<glyph unicode="&#xf216;" glyph-name="prop" d="M419.2-9.6v0 0 0c9.6-3.2 19.2 0 22.4 9.6 19.2 25.6 57.6 32 83.2 12.8 9.6-6.4 22.4-6.4 32 3.2l416 556.8c6.4 9.6 6.4 22.4-3.2 32-25.6 19.2-32 57.6-12.8 83.2 6.4 9.6 6.4 22.4-3.2 32l-217.6 163.2c-9.6 6.4-22.4 6.4-32-3.2-19.2-25.6-57.6-32-83.2-12.8-9.6 6.4-22.4 6.4-32-3.2l-12.8-16-243.2 64c-6.4 0-12.8 0-16-3.2-9.6-6.4-12.8-12.8-12.8-16-3.2-16-12.8-28.8-25.6-35.2-12.8-9.6-28.8-12.8-44.8-6.4-6.4 0-12.8 0-16-3.2s-9.6-9.6-9.6-16l-160-649.6c-3.2-12.8 3.2-22.4 16-25.6 28.8-6.4 48-38.4 41.6-67.2 0-6.4 0-12.8 3.2-16 3.2-6.4 9.6-9.6 12.8-9.6 0 0 297.6-73.6 297.6-73.6zM544 806.4l-374.4-502.4c-6.4-9.6-6.4-22.4 3.2-32 25.6-19.2 32-57.6 12.8-83.2-6.4-9.6-6.4-22.4 3.2-32l134.4-99.2-172.8 41.6c0 38.4-22.4 76.8-57.6 92.8l153.6 611.2c19.2 0 38.4 3.2 54.4 16 16 9.6 28.8 25.6 38.4 41.6 0 0 204.8-54.4 204.8-54.4zM419.2 41.6l-185.6 140.8c16 38.4 9.6 80-16 112l390.4 524.8c38.4-16 80-9.6 112 16l185.6-140.8c-16-38.4-9.6-80 16-112l-390.4-524.8c-35.2 19.2-80 12.8-112-16 0 0 0 0 0 0zM764.8 662.4l-28.8 6.4-12.8 25.6c-3.2 9.6-12.8 12.8-22.4 12.8v0c-9.6 0-19.2-6.4-22.4-12.8l-12.8-25.6-25.6-6.4c-9.6 0-16-6.4-19.2-16s0-19.2 6.4-25.6l19.2-19.2-6.4-28.8c-3.2-9.6 3.2-19.2 9.6-25.6 3.2-3.2 9.6-3.2 12.8-3.2s9.6 0 12.8 3.2l25.6 12.8 25.6-12.8c9.6-3.2 19.2-3.2 25.6 0s12.8 16 9.6 25.6l-6.4 28.8 19.2 19.2c6.4 6.4 9.6 16 6.4 25.6 0 9.6-6.4 16-16 16zM636.8 470.4l-28.8 3.2-12.8 25.6c0 9.6-9.6 12.8-19.2 12.8v0c-9.6 0-19.2-6.4-22.4-12.8l-9.6-25.6-28.8-3.2c-9.6 0-16-6.4-19.2-16s0-19.2 6.4-25.6l19.2-19.2-6.4-28.8c-3.2-9.6 3.2-19.2 9.6-25.6 3.2-3.2 9.6-3.2 12.8-3.2s9.6 0 12.8 3.2l25.6 12.8 25.6-12.8c9.6-3.2 19.2-3.2 25.6 0 6.4 6.4 12.8 16 9.6 25.6l-6.4 28.8 19.2 19.2c6.4 6.4 9.6 16 6.4 25.6 0 6.4-9.6 12.8-19.2 16zM508.8 297.6l-28.8 3.2-12.8 25.6c-3.2 9.6-12.8 12.8-22.4 12.8v0c-9.6 0-19.2-6.4-22.4-12.8l-12.8-25.6-25.6-3.2c-9.6 0-16-6.4-19.2-16s0-19.2 6.4-25.6l19.2-19.2-6.4-28.8c-3.2-9.6 3.2-19.2 9.6-25.6 3.2-3.2 9.6-3.2 12.8-3.2s9.6 0 12.8 3.2l25.6 12.8 25.6-12.8c9.6-3.2 19.2-3.2 25.6 0 6.4 6.4 12.8 16 9.6 25.6l-6.4 28.8 19.2 19.2c6.4 6.4 9.6 16 6.4 25.6 0 9.6-6.4 16-16 16z" />
<glyph unicode="&#xf217;" glyph-name="r-area" horiz-adv-x="1042" d="M841.949 96.074h-666.729c-8.201 0-14.849 6.648-14.849 14.849v0 175.22c0 0.044-0.001 0.097-0.001 0.149 0 4.886 2.314 9.232 5.905 12.001l0.035 0.026 142.552 103.647c2.405 1.682 5.392 2.687 8.613 2.687s6.207-1.005 8.662-2.719l-0.049 0.032 166.014-115.23 190.961 324.306c2.619 4.452 7.387 7.393 12.841 7.393 1.785 0 3.496-0.315 5.081-0.892l-0.103 0.033 145.819-53.457c5.763-2.127 9.798-7.571 9.8-13.958v0-439.239c0-0.001 0-0.002 0-0.003 0-8.097-6.48-14.68-14.537-14.846h-0.016zM188.585 125.773h638.515v413.995l-124.436 45.439-193.336-326.682c-2.543-4.462-7.269-7.421-12.685-7.421-3.149 0-6.064 1-8.445 2.7l0.044-0.030-170.469 118.794-127.703-93.847zM1035.285 36.381l-126.218 87.016c-2.358 1.533-5.242 2.445-8.339 2.445-5.091 0-9.607-2.464-12.42-6.264l-0.030-0.042c-1.921-2.477-3.079-5.63-3.079-9.053 0-4.758 2.238-8.994 5.719-11.711l0.033-0.025 77.216-53.16h-851.749v844.622l45.735-78.701c2.651-4.305 7.339-7.132 12.687-7.132 0.134 0 0.267 0.002 0.4 0.005h-0.020c2.71 0.023 5.261 0.678 7.521 1.826l-0.096-0.044c4.428 2.697 7.34 7.498 7.34 12.98 0 2.764-0.74 5.354-2.033 7.585l0.039-0.073-73.652 125.921c-2.458 4.322-6.957 7.234-12.15 7.424l-0.026 0.001c-0.179 0.008-0.389 0.012-0.6 0.012-5.149 0-9.698-2.569-12.435-6.496l-0.033-0.049-86.422-126.218c-2.726-2.694-4.415-6.432-4.415-10.565 0-8.201 6.648-14.849 14.849-14.849 6.342 0 11.756 3.976 13.884 9.572l0.034 0.102 59.397 87.016v-882.636h896.891l-89.095-52.269c-4.385-2.635-7.273-7.365-7.273-12.771 0-8.148 6.562-14.763 14.69-14.848h0.008c0.087-0.002 0.189-0.003 0.292-0.003 2.611 0 5.068 0.661 7.213 1.824l-0.080-0.040 126.515 73.652c4.245 2.537 7.118 6.991 7.423 12.135l0.002 0.042c-0.162 5.47-3.2 10.195-7.647 12.731l-0.075 0.039zM998.459 24.798v0 0z" />
<glyph unicode="&#xf218;" d="M512-64c-281.6 0-512 230.4-512 512v0c0 281.6 230.4 512 515.2 512h9.6l-6.4-179.2c0-9.6 0-16-9.6-16 0 0 0 0 0 0-86.4 0-163.2-35.2-220.8-92.8v0c-57.6-57.6-92.8-134.4-92.8-224 0-176 140.8-316.8 316.8-316.8s316.8 140.8 316.8 316.8c0 80-32 156.8-80 211.2v0l140.8 134.4 3.2-3.2c80-89.6 131.2-208 131.2-342.4 0-281.6-230.4-512-512-512 0 0 0 0 0 0v0 0zM502.4 940.8c-265.6-6.4-483.2-224-483.2-492.8 0-272 220.8-492.8 492.8-492.8s492.8 220.8 492.8 492.8v0c0 118.4-35.2 220.8-115.2 310.4l-112-105.6c51.2-60.8 73.6-124.8 73.6-204.8 0-185.6-150.4-332.8-336-332.8s-336 150.4-336 336c0 92.8 35.2 176 96 236.8v0c57.6 57.6 137.6 96 224 99.2v0l3.2 153.6z" />
<glyph unicode="&#xf219;" d="M739.2 668.8l-9.6 9.6c-54.4 51.2-124.8 83.2-204.8 86.4v0 9.6l9.6 185.6c128-6.4 246.4-57.6 329.6-140.8v0l19.2-19.2-144-131.2zM544 784c76.8-6.4 144-38.4 195.2-86.4v0l115.2 102.4-3.2 3.2c-86.4 83.2-185.6 128-300.8 134.4l-6.4-153.6z" />
<glyph unicode="&#xf21a;" horiz-adv-x="864" d="M659.2 528h-441.6l-211.2 352c-3.2 6.4-6.4 16-6.4 25.6s3.2 19.2 6.4 28.8v0c9.6 16 28.8 25.6 48 25.6h761.6c0 0 0 0 0 0 19.2 0 38.4-9.6 48-25.6v0c3.2-6.4 6.4-16 6.4-25.6s-3.2-22.4-6.4-32v0l-204.8-348.8zM236.8 563.2h403.2l192 332.8c3.2 3.2 3.2 6.4 3.2 9.6 0 9.6-9.6 19.2-19.2 19.2 0 0 0 0 0 0h-761.6c0 0 0 0 0 0-9.6 0-19.2-9.6-19.2-19.2 0-3.2 0-6.4 3.2-9.6v0l198.4-332.8z" />
<glyph unicode="&#xf21b;" horiz-adv-x="864" d="M611.2-64h-316.8v419.2l-70.4 153.6h428.8l-41.6-137.6v-435.2zM329.6-28.8h246.4v403.2l28.8 96h-326.4l51.2-108.8v-390.4z" />
<glyph unicode="&#xf21c;" horiz-adv-x="928" d="M697.6 512h-467.2l-224 374.4c-3.2 6.4-6.4 12.8-6.4 22.4s3.2 19.2 6.4 25.6v0c9.6 16 25.6 25.6 41.6 25.6 0 0 0 0 0 0h822.4c0 0 0 0 0 0 19.2 0 35.2-9.6 41.6-25.6v0c3.2-6.4 6.4-16 6.4-25.6s-3.2-19.2-6.4-25.6v0l-214.4-371.2zM243.2 531.2h441.6l211.2 364.8c3.2 3.2 3.2 9.6 3.2 16 0 16-12.8 28.8-28.8 28.8h-819.2c-16 0-28.8-12.8-28.8-28.8 0-6.4 0-9.6 3.2-16v0l217.6-364.8z" />
<glyph unicode="&#xf21d;" horiz-adv-x="928" d="M566.4 150.4h-208v150.4l-115.2 201.6h444.8l-121.6-204.8v-147.2zM380.8 169.6h163.2v131.2l105.6 179.2h-368l99.2-176v-134.4z" />
<glyph unicode="&#xf21e;" horiz-adv-x="928" d="M563.2-64h-201.6v201.6h201.6v-201.6zM384-41.6h160v160h-160v-160z" />
<glyph unicode="&#xf21f;" horiz-adv-x="1344" d="M1273.6-64h-1200c-41.6 0-73.6 32-73.6 73.6v876.8c0 41.6 32 73.6 73.6 73.6h1200c41.6 0 73.6-32 73.6-73.6v-876.8c0-41.6-32-73.6-73.6-73.6v0zM73.6 915.2c-16 0-32-12.8-32-32v-876.8c0-16 12.8-32 32-32h1200c16 0 32 12.8 32 32v880c0 16-12.8 32-32 32v0l-1200-3.2z" />
<glyph unicode="&#xf220;" horiz-adv-x="1344" d="M1206.4 675.2l-105.6 57.6c-9.6 35.2-38.4 64-76.8 64-44.8 0-80-35.2-80-80 0-9.6 3.2-19.2 6.4-28.8v0l-278.4-339.2c-9.6 6.4-25.6 9.6-38.4 9.6-25.6 0-48-12.8-60.8-28.8v0l-233.6 208c0 3.2 0 3.2 0 6.4 0 44.8-35.2 80-80 80s-80-35.2-80-80c0-9.6 3.2-22.4 6.4-32v0l-57.6-44.8v-54.4l83.2 67.2c12.8-9.6 28.8-16 44.8-16 25.6 0 48 12.8 60.8 32v0l233.6-208c0-3.2 0-3.2 0-6.4 0-44.8 35.2-80 80-80s80 35.2 80 80v0c0 12.8-3.2 28.8-9.6 38.4v0l275.2 332.8c12.8-9.6 28.8-12.8 44.8-12.8 32 0 60.8 19.2 73.6 48v0l112-57.6v44.8zM259.2 508.8c-19.2 0-35.2 16-35.2 35.2s16 35.2 35.2 35.2c19.2 0 35.2-16 35.2-35.2v0c0-19.2-16-35.2-35.2-35.2v0zM630.4 243.2c-19.2 0-35.2 16-35.2 35.2s16 35.2 35.2 35.2c19.2 0 35.2-16 35.2-35.2v0c3.2-19.2-12.8-35.2-35.2-35.2v0zM1020.8 681.6c-19.2 0-35.2 16-35.2 35.2s16 35.2 35.2 35.2c19.2 0 35.2-16 35.2-35.2v0c0-19.2-16-35.2-35.2-35.2v0z" />
<glyph unicode="&#xf221;" horiz-adv-x="1472" d="M0 960v-1024h1468.8v1024h-1468.8zM1449.6-44.8h-1430.4v985.6h1430.4v-985.6z" />
<glyph unicode="&#xf222;" horiz-adv-x="1472" d="M128 182.4v0c32 0 54.4 25.6 54.4 54.4 0 12.8-6.4 25.6-12.8 35.2v0l172.8 204.8c6.4-3.2 16-6.4 28.8-6.4 19.2 0 35.2 9.6 44.8 22.4v0l147.2-73.6c0-3.2-3.2-9.6-3.2-16 0-32 25.6-54.4 54.4-54.4s54.4 25.6 54.4 54.4c0 12.8-3.2 25.6-12.8 35.2v0l169.6 185.6c9.6-6.4 19.2-9.6 28.8-9.6 12.8 0 28.8 6.4 38.4 12.8v0l156.8-121.6c-3.2-6.4-6.4-16-6.4-25.6 0-32 25.6-54.4 54.4-54.4 12.8 0 25.6 6.4 38.4 12.8v0l156.8-121.6c-3.2-6.4-6.4-16-6.4-25.6 0-32 25.6-54.4 54.4-54.4s54.4 25.6 54.4 54.4c0 32-25.6 54.4-54.4 54.4-16 0-28.8-6.4-38.4-16v0l-156.8 121.6c3.2 6.4 6.4 16 6.4 25.6 0 32-25.6 54.4-54.4 54.4-12.8 0-28.8-6.4-38.4-12.8v0l-156.8 121.6c3.2 6.4 6.4 16 6.4 25.6 0 32-25.6 54.4-54.4 54.4s-54.4-25.6-54.4-54.4c0-12.8 3.2-25.6 12.8-35.2v0l-169.6-182.4c-9.6 6.4-19.2 9.6-28.8 9.6-19.2 0-35.2-9.6-44.8-22.4v0l-144 76.8c0 3.2 3.2 9.6 3.2 16 0 32-25.6 54.4-54.4 54.4s-54.4-25.6-54.4-54.4c0-12.8 3.2-25.6 12.8-35.2v0l-176-204.8c-6.4 3.2-16 6.4-28.8 6.4-32 0-54.4-25.6-54.4-54.4s25.6-57.6 54.4-57.6v0 0c0 0 0 0 0 0zM1344 326.4c19.2 0 35.2-16 35.2-35.2s-16-35.2-35.2-35.2-35.2 16-35.2 35.2v0c0 19.2 16 35.2 35.2 35.2v0zM1100.8 518.4c19.2 0 35.2-16 35.2-35.2s-16-35.2-35.2-35.2-35.2 16-35.2 35.2v0 0c0 19.2 16 35.2 35.2 35.2v0c0 0 0 0 0 0zM857.6 704c19.2 0 35.2-16 35.2-35.2s-16-35.2-35.2-35.2-35.2 16-35.2 35.2v0 0c0 19.2 16 35.2 35.2 35.2v0 0zM614.4 438.4c19.2 0 35.2-16 35.2-35.2s-16-35.2-35.2-35.2-35.2 16-35.2 35.2v0c0 19.2 16 35.2 35.2 35.2v0 0 0zM371.2 563.2c19.2 0 35.2-16 35.2-35.2s-16-35.2-35.2-35.2-35.2 16-35.2 35.2v0c0 19.2 16 35.2 35.2 35.2v0zM128 272c19.2 0 35.2-16 35.2-35.2s-16-35.2-35.2-35.2-35.2 16-35.2 35.2v0 0c0 22.4 16 35.2 35.2 35.2v0 0z" />
<glyph unicode="&#xf223;" d="M512-64c0 0 0 0 0 0-131.2 0-249.6 48-339.2 128v0l-12.8 12.8 12.8 12.8 342.4 345.6 508.8 44.8v-19.2c0-3.2 0-6.4 0-9.6 0-284.8-230.4-515.2-512-515.2 0 0 0 0 0 0v0 0zM208 80c83.2-67.2 188.8-108.8 304-108.8 262.4 0 473.6 211.2 476.8 470.4v0l-457.6-41.6-323.2-320z" />
<glyph unicode="&#xf224;" d="M140.8 92.8l-12.8 16c-80 89.6-128 208-128 339.2 0 275.2 214.4 496 486.4 512v0h16v-502.4l-361.6-364.8zM470.4 924.8c-246.4-22.4-435.2-227.2-435.2-476.8 0-115.2 41.6-220.8 108.8-304v0l326.4 326.4v454.4z" />
<glyph unicode="&#xf225;" d="M524.8 460.8v489.6l16 9.6h6.4c243.2-16 438.4-198.4 473.6-435.2v-3.2l3.2-19.2-16-3.2-483.2-38.4zM563.2 921.6v-425.6l419.2 35.2c-38.4 208-208 368-419.2 390.4 0 0 0 0 0 0z" />
<glyph unicode="&#xf226;" d="M166.4 70.4l-9.6 9.6c-96 92.8-156.8 224-156.8 368 0 272 211.2 492.8 480 512v0 0h9.6v-499.2l-323.2-390.4zM473.6 937.6c-256-19.2-454.4-230.4-454.4-489.6 0-137.6 54.4-259.2 144-348.8v0l307.2 368v470.4z" />
<glyph unicode="&#xf227;" d="M886.4 96l-352 352v512h9.6c268.8-16 480-240 480-512 0-131.2-51.2-252.8-131.2-342.4v0l-6.4-9.6zM550.4 457.6l332.8-332.8c73.6 86.4 118.4 198.4 118.4 323.2 0 259.2-198.4 470.4-451.2 489.6h-3.2l3.2-480z" />
<glyph unicode="&#xf228;" d="M512-64c0 0 0 0 0 0-115.2 0-224 38.4-307.2 102.4v0l-9.6 6.4 316.8 371.2 342.4-342.4v-9.6h-3.2c-89.6-80-208-128-339.2-128v0 0zM227.2 48c80-57.6 179.2-92.8 288-92.8 121.6 0 230.4 44.8 316.8 115.2v0l-320 316.8-284.8-339.2z" />
<glyph unicode="&#xf229;" glyph-name="r-table1" horiz-adv-x="1472" d="M0 960v-1024h1472v1024h-1472zM1449.6 758.4h-284.8v182.4h284.8v-182.4zM864 758.4v182.4h278.4v-182.4h-278.4zM1145.6 736v-256h-281.6v256h281.6zM844.8 758.4h-281.6v182.4h281.6v-182.4zM844.8 736v-256h-281.6v256h281.6zM540.8 480h-521.6v256h521.6v-256zM540.8 457.6v-249.6h-521.6v249.6h521.6zM563.2 457.6h281.6v-249.6h-281.6v249.6zM844.8 188.8v-230.4h-281.6v230.4h281.6zM864 188.8h278.4v-230.4h-278.4v230.4zM864 208v249.6h278.4v-249.6h-278.4zM1164.8 457.6h284.8v-249.6h-284.8v249.6zM1164.8 480v256h284.8v-256h-284.8zM540.8 940.8v-182.4h-521.6v182.4h521.6zM19.2 188.8h521.6v-230.4h-521.6v230.4zM1164.8-44.8v230.4h284.8v-230.4h-284.8z" />
<glyph unicode="&#xf22a;" glyph-name="r-table2" horiz-adv-x="1344" d="M1273.6 960h-1200c-41.6 0-73.6-32-73.6-73.6v-876.8c0-41.6 32-73.6 73.6-73.6h1200c41.6 0 73.6 32 73.6 73.6v876.8c0 41.6-32 73.6-73.6 73.6 0 0 0 0 0 0zM1305.6 886.4v-182.4h-393.6v211.2h361.6c16 0 32-12.8 32-28.8v0 0zM473.6 211.2v214.4h396.8v-214.4h-396.8zM870.4 169.6v-188.8h-396.8v188.8h396.8zM870.4 662.4v-192h-396.8v192h396.8zM473.6 704v211.2h396.8v-211.2h-396.8zM428.8 470.4h-384v192h387.2v-192zM428.8 425.6v-214.4h-384v214.4h384zM912 425.6h390.4v44.8h-390.4v192h393.6v-448h-393.6v211.2zM73.6 915.2h355.2v-211.2h-384v182.4c0 16 12.8 28.8 28.8 28.8 0 0 0 0 0 0zM44.8 9.6v160h387.2v-188.8h-358.4c-16 0-28.8 12.8-28.8 28.8 0 0 0 0 0 0zM1273.6-19.2h-361.6v188.8h393.6v-160c0-16-16-28.8-32-28.8v0c0 0 0 0 0 0z" />
<glyph unicode="&#xf22b;" glyph-name="r-vbar1" d="M300.8-64h-300.8v1024h300.8v-1024zM32-32h233.6v960h-233.6v-960zM665.6-64h-300.8v771.2h300.8v-771.2zM400-32h233.6v707.2h-233.6v-707.2zM1030.4-64h-300.8v518.4h300.8v-518.4zM764.8-32h233.6v454.4h-233.6v-454.4z" />
<glyph unicode="&#xf22c;" horiz-adv-x="1472" d="M806.4-64h134.4v1024h-134.4v-1024zM828.8 940.8h96v-982.4h-96c0 0 0 982.4 0 982.4zM0-64h134.4v960h-134.4v-960zM19.2 873.6h96v-918.4h-96c0 0 0 918.4 0 918.4z" />
<glyph unicode="&#xf22d;" horiz-adv-x="1472" d="M1078.4-64h134.4v684.8h-134.4v-684.8zM1097.6 601.6h96v-646.4h-96c0 0 0 646.4 0 646.4zM268.8-64h134.4v684.8h-134.4v-684.8zM288 601.6h96v-646.4h-96c0 0 0 646.4 0 646.4z" />
<glyph unicode="&#xf22e;" horiz-adv-x="1472" d="M1347.2 691.2v-755.2h134.4v755.2h-134.4zM1462.4-44.8h-96v713.6h96v-713.6zM537.6-64h134.4v889.6h-134.4v-889.6zM560 806.4h96v-848h-96c0 0 0 848 0 848z" />
<glyph unicode="&#xf22f;" d="M294.4-64h-294.4v761.6h294.4v-761.6zM32-32h230.4v697.6h-230.4v-697.6zM656-64h-294.4v448h294.4v-448zM393.6-32h230.4v384h-230.4v-384zM1017.6-64h-294.4v316.8h294.4v-316.8zM755.2-32h230.4v249.6h-230.4v-249.6z" />
<glyph unicode="&#xf230;" d="M294.4 713.6h-294.4v246.4h294.4v-246.4zM32 745.6h230.4v182.4h-230.4v-182.4zM656 396.8h-294.4v316.8h294.4v-316.8zM393.6 428.8h230.4v249.6h-230.4v-249.6zM1017.6 262.4h-294.4v201.6h294.4v-201.6zM755.2 297.6h230.4v137.6h-230.4v-137.6z" />
<glyph unicode="&#xf231;" horiz-adv-x="1472" d="M137.6-64h-137.6v716.8h137.6v-716.8zM19.2-44.8h99.2v675.2h-99.2v-675.2zM406.4-64h-137.6v572.8h137.6v-572.8zM291.2-44.8h99.2v534.4h-99.2v-534.4zM947.2-64h-137.6v617.6h137.6v-617.6zM828.8-44.8h99.2v579.2h-99.2v-579.2zM1216-64h-137.6v268.8h137.6v-268.8zM1097.6-44.8h99.2v230.4h-99.2v-230.4zM1484.8-64h-137.6v566.4h137.6v-566.4zM1366.4-44.8h99.2v528h-99.2v-528zM678.4-64h-137.6v537.6h137.6v-537.6zM560-44.8h99.2v499.2h-99.2v-499.2z" />
<glyph unicode="&#xf232;" horiz-adv-x="1472" d="M137.6 659.2h-137.6v224h137.6v-224zM19.2 678.4h99.2v182.4h-99.2v-182.4zM406.4 515.2h-137.6v105.6h137.6v-105.6zM291.2 537.6h99.2v67.2h-99.2v-67.2zM947.2 563.2h-137.6v396.8h137.6v-396.8zM828.8 582.4h99.2v358.4h-99.2v-358.4zM1216 214.4h-137.6v409.6h137.6v-409.6zM1097.6 233.6h99.2v368h-99.2v-368zM1484.8 508.8h-137.6v179.2h137.6v-179.2zM1366.4 528h99.2v140.8h-99.2v-140.8zM678.4 483.2h-137.6v342.4h137.6v-342.4zM560 502.4h99.2v304h-99.2v-304z" />
<glyph unicode="&#xf233;" d="M300.8-64h-300.8v758.4h300.8v-758.4zM32-32h233.6v691.2h-233.6v-691.2zM665.6-64h-300.8v624h300.8v-624zM400-32h233.6v560h-233.6v-560zM1030.4-64h-300.8v691.2h300.8v-691.2zM764.8-32h233.6v627.2h-233.6v-627.2z" />
<glyph unicode="&#xf234;" d="M1030.4 643.2h-300.8v316.8h300.8v-316.8zM764.8 678.4h233.6v249.6h-233.6v-249.6zM665.6 576h-300.8v384h300.8v-384zM400 611.2h233.6v316.8h-233.6v-316.8zM300.8 710.4h-300.8v249.6h300.8v-249.6zM32 742.4h233.6v185.6h-233.6v-185.6z" />
<glyph unicode="&#xf235;" horiz-adv-x="1472" d="M137.6-64h-137.6v793.6h137.6v-793.6zM19.2-44.8h99.2v755.2h-99.2v-755.2zM406.4-64h-137.6v908.8h137.6v-908.8zM288-44.8h99.2v870.4h-99.2v-870.4zM944-64h-137.6v633.6h137.6v-633.6zM828.8-44.8h99.2v592h-99.2v-592zM1216-64h-137.6v620.8h137.6v-620.8zM1097.6-44.8h99.2v579.2h-99.2v-579.2zM1484.8-64h-140.8v848h137.6v-848zM1366.4-44.8h99.2v809.6h-99.2v-809.6zM675.2-64h-137.6v672h137.6v-672zM560-44.8h99.2v633.6h-99.2v-633.6z" />
<glyph unicode="&#xf236;" horiz-adv-x="1472" d="M137.6 736h-137.6v224h137.6v-224zM19.2 758.4h99.2v179.2h-99.2v-179.2zM406.4 851.2h-137.6v108.8h137.6v-108.8zM288 873.6h99.2v64h-99.2v-64zM944 579.2h-137.6v380.8h137.6v-380.8zM828.8 598.4h99.2v339.2h-99.2v-339.2zM1216 563.2h-137.6v396.8h137.6v-396.8zM1097.6 582.4h99.2v355.2h-99.2v-355.2zM1484.8 790.4h-140.8v169.6h137.6v-169.6zM1366.4 809.6h99.2v128h-99.2v-128zM675.2 614.4h-137.6v345.6h137.6v-345.6zM560 636.8h99.2v300.8h-99.2v-300.8z" />
<glyph unicode="&#xf237;" glyph-name="replyall-new" horiz-adv-x="1792" d="M579.2-28.8c-12.8 0-22.4 0-28.8 6.4l-486.4 352c-41.6 35.2-64 80-64 128 0 41.6 22.4 80 57.6 108.8l515.2 371.2c22.4 12.8 57.6 12.8 70.4-6.4 22.4-22.4 22.4-57.6 0-80 0 0-6.4 0-6.4-6.4l-515.2-364.8c-6.4-6.4-12.8-12.8-12.8-28.8s6.4-28.8 19.2-35.2l480-352c22.4-12.8 28.8-51.2 6.4-80-6.4-6.4-19.2-12.8-35.2-12.8 0 0 0 0 0 0zM1724.8-64h-6.4c-22.4 0-41.6 12.8-57.6 28.8-6.4 6.4-12.8 12.8-12.8 22.4-64 115.2-172.8 201.6-294.4 236.8-99.2 28.8-201.6 28.8-300.8 6.4v-208c0-22.4-12.8-51.2-28.8-64-6.4-6.4-6.4-6.4-12.8-6.4-28.8-12.8-64-12.8-92.8 6.4l-576 422.4-12.8 6.4c-28.8 22.4-41.6 64-22.4 99.2 6.4 6.4 12.8 12.8 22.4 22.4l585.6 428.8c22.4 22.4 57.6 22.4 86.4 9.6s41.6-41.6 51.2-70.4v-179.2c192-6.4 694.4-41.6 752-681.6 0-44.8-35.2-80-80-80 0 0 0 0 0 0zM982.4 44.8v0zM428.8 451.2l515.2-380.8v201.6c0 22.4 12.8 41.6 35.2 51.2 128 41.6 272 41.6 400 6.4 115.2-35.2 214.4-108.8 294.4-192-99.2 428.8-473.6 451.2-636.8 457.6h-51.2c-28.8 0-51.2 28.8-51.2 57.6v169.6c0 0-505.6-371.2-505.6-371.2zM988.8 860.8v0 0z" />
<glyph unicode="&#xf238;" glyph-name="reports-area" d="M515.2 960c-284.8 0-515.2-227.2-515.2-512 0-281.6 227.2-512 512-512 281.6 0 512 227.2 512 512 0 281.6-227.2 512-508.8 512zM512-38.4c-268.8 0-486.4 217.6-486.4 486.4s217.6 486.4 486.4 486.4c268.8 0 486.4-217.6 486.4-486.4s-217.6-486.4-486.4-486.4zM739.2 659.2c-150.4 0-297.6 0-448 0-32 0-44.8-12.8-44.8-41.6 0-112 0-227.2 0-339.2 0-32 12.8-44.8 44.8-44.8 73.6 0 147.2 0 220.8 0s147.2 0 224 0c32 0 44.8 12.8 44.8 44.8 0 112 0 227.2 0 339.2 0 28.8-12.8 41.6-41.6 41.6v0zM755.2 502.4c-35.2 12.8-70.4 25.6-105.6 38.4-9.6 3.2-16 3.2-22.4-9.6-38.4-60.8-80-118.4-121.6-179.2-12.8-19.2-12.8-19.2-28.8-3.2-38.4 38.4-73.6 73.6-112 108.8-6.4 6.4-12.8 9.6-22.4 0-22.4-19.2-44.8-35.2-70.4-54.4 0 70.4 0 137.6 0 204.8 0 12.8 6.4 19.2 19.2 19.2 3.2 0 6.4 0 9.6 0 140.8 0 281.6 0 422.4 0 28.8 0 32-3.2 32-32 0-25.6 0-57.6 0-92.8v0z" />
<glyph unicode="&#xf239;" glyph-name="reports-funnel" d="M515.2 960c-284.8 0-515.2-227.2-515.2-512 0-281.6 227.2-512 512-512 281.6 0 512 227.2 512 512 0 281.6-227.2 512-508.8 512v0zM512-38.4c-268.8 0-486.4 217.6-486.4 486.4s217.6 486.4 486.4 486.4c268.8 0 486.4-217.6 486.4-486.4s-217.6-486.4-486.4-486.4zM726.4 697.6c-70.4 0-140.8 0-211.2 0s-140.8 0-214.4 0c-6.4 0-12.8 0-19.2 0-25.6-6.4-38.4-32-28.8-57.6 3.2-9.6 9.6-16 12.8-22.4 51.2-73.6 99.2-147.2 150.4-220.8 6.4-9.6 9.6-19.2 9.6-28.8 0-38.4 0-73.6 0-112s22.4-57.6 57.6-57.6c16 0 35.2 0 51.2 0 41.6 0 64 22.4 64 64 0 35.2 0 73.6 0 108.8 0 9.6 3.2 19.2 9.6 28.8 51.2 76.8 105.6 153.6 156.8 230.4 9.6 16 19.2 35.2 6.4 51.2-6.4 16-25.6 16-44.8 16v0zM640 480c-16-25.6-35.2-51.2-54.4-76.8-6.4-9.6-9.6-19.2-9.6-28.8 0-38.4 0-76.8 0-115.2 0-25.6-9.6-38.4-38.4-38.4-16 0-35.2 0-51.2 0-25.6 0-35.2 12.8-35.2 35.2 0 38.4 0 80 0 118.4 0 9.6-3.2 22.4-9.6 28.8-22.4 32-44.8 67.2-70.4 102.4 96 0 188.8 0 281.6 0 0-9.6-9.6-16-12.8-25.6v0z" />
<glyph unicode="&#xf23a;" glyph-name="reports-line" d="M512 960c-281.6 0-512-227.2-512-512 0-281.6 227.2-512 508.8-512 284.8 0 512 227.2 515.2 512 0 281.6-227.2 512-512 512zM512-38.4c-268.8 0-486.4 217.6-486.4 486.4s217.6 486.4 486.4 486.4c268.8 0 486.4-217.6 486.4-486.4s-217.6-486.4-486.4-486.4zM736 659.2c-150.4 0-297.6 0-448 0-32 0-44.8-12.8-44.8-41.6 0-112 0-227.2 0-339.2 0-32 12.8-44.8 44.8-44.8 73.6 0 147.2 0 220.8 0s147.2 0 224 0c32 0 44.8 12.8 44.8 44.8 0 112 0 227.2 0 339.2 3.2 28.8-9.6 41.6-41.6 41.6v0zM755.2 284.8c0-22.4-3.2-25.6-25.6-25.6-73.6 0-144 0-217.6 0-70.4 0-140.8 0-214.4 0-25.6 0-28.8 3.2-28.8 28.8 0 108.8 0 217.6 0 323.2 0 22.4 3.2 25.6 25.6 25.6 144 0 288 0 432 0 22.4 0 25.6-3.2 25.6-25.6 3.2-112 3.2-217.6 3.2-326.4v0zM739.2 499.2c-6.4-12.8-19.2-9.6-32-3.2-6.4 3.2-16 6.4-22.4 9.6-9.6 3.2-16 6.4-22.4-3.2-3.2-3.2-9.6-6.4-9.6-3.2-19.2 6.4-25.6-9.6-35.2-22.4-28.8-41.6-57.6-86.4-89.6-131.2-6.4-6.4-6.4-12.8-6.4-22.4 3.2-19.2-9.6-35.2-28.8-35.2-16 0-28.8 12.8-28.8 28.8 0 9.6-3.2 16-9.6 22.4-25.6 25.6-48 51.2-73.6 76.8-9.6 12.8-38.4 12.8-51.2 0-6.4-6.4-12.8-12.8-22.4-19.2-6.4-6.4-16-6.4-19.2 0 0 6.4-3.2 16 3.2 19.2 3.2 3.2 9.6 9.6 12.8 12.8 9.6 9.6 19.2 16 22.4 32 0 12.8 12.8 22.4 28.8 22.4s25.6-9.6 28.8-22.4c0-9.6 6.4-19.2 12.8-25.6 25.6-25.6 48-51.2 73.6-76.8 12.8-16 25.6-12.8 35.2 3.2 35.2 51.2 67.2 102.4 102.4 153.6 3.2 6.4 6.4 12.8 6.4 19.2 6.4 22.4 32 35.2 48 16s35.2-22.4 51.2-32c16-3.2 32-3.2 25.6-19.2v0z" />
<glyph unicode="&#xf23b;" glyph-name="reports-pie" d="M515.2 960c-284.8 0-515.2-227.2-515.2-512s227.2-512 512-512c284.8 0 512 227.2 512 508.8 0 284.8-227.2 515.2-508.8 515.2zM512-38.4c-268.8 0-486.4 217.6-486.4 486.4s217.6 486.4 486.4 486.4c268.8 0 486.4-217.6 486.4-486.4s-217.6-486.4-486.4-486.4zM768 435.2c-38.4 0-80 0-118.4 0s-80 0-118.4 0c-9.6 0-16-3.2-22.4-9.6-51.2-57.6-102.4-115.2-153.6-172.8-9.6-9.6-9.6-16 3.2-22.4 83.2-57.6 172.8-67.2 265.6-25.6s144 118.4 156.8 220.8c0 6.4 0 9.6-12.8 9.6v0zM752 396.8c-38.4-166.4-220.8-243.2-361.6-160-9.6 6.4-6.4 9.6-3.2 16 44.8 48 86.4 99.2 131.2 150.4 6.4 6.4 9.6 9.6 19.2 9.6 35.2 0 67.2 0 102.4 0s67.2 0 99.2 0c9.6 0 16-3.2 12.8-16v0zM492.8 476.8c0 38.4 0 73.6 0 112s0 76.8 0 115.2c0 9.6 0 12.8-12.8 12.8-102.4-22.4-176-76.8-214.4-172.8s-22.4-188.8 41.6-268.8c6.4-9.6 9.6-9.6 19.2 0 51.2 60.8 105.6 121.6 156.8 182.4 6.4 3.2 9.6 9.6 9.6 19.2v0zM467.2 489.6c0-12.8-3.2-19.2-9.6-28.8-44.8-51.2-92.8-105.6-137.6-156.8-38.4 51.2-54.4 108.8-44.8 172.8 9.6 99.2 83.2 179.2 176 208 16 3.2 19.2 0 19.2-16-3.2-60.8-3.2-121.6-3.2-179.2v0zM540.8 470.4c38.4 0 73.6 0 112 0s73.6 0 112 0c16 0 16 6.4 16 19.2-19.2 118.4-118.4 214.4-236.8 224-9.6 0-12.8-3.2-12.8-12.8 0-73.6 0-144 0-217.6-3.2-9.6 0-12.8 9.6-12.8v0zM553.6 672c0 9.6 3.2 12.8 12.8 9.6 92.8-25.6 153.6-83.2 182.4-176 3.2-9.6 0-12.8-9.6-12.8-28.8 0-57.6 0-86.4 0s-54.4 0-83.2 0c-9.6 0-16 0-16 12.8 0 57.6 0 112 0 166.4v0z" />
<glyph unicode="&#xf23c;" glyph-name="reports-table1" d="M515.2 960c-284.8 0-515.2-227.2-515.2-512 0-281.6 227.2-512 512-512 281.6 0 512 227.2 512 512 0 281.6-227.2 512-508.8 512zM512-38.4c-268.8 0-486.4 217.6-486.4 486.4s217.6 486.4 486.4 486.4c268.8 0 486.4-217.6 486.4-486.4s-217.6-486.4-486.4-486.4zM732.8 707.2c-147.2 0-297.6 0-444.8 0-28.8 0-41.6-12.8-41.6-41.6 0-73.6 0-147.2 0-220.8s0-147.2 0-224c0-28.8 12.8-41.6 41.6-41.6 150.4 0 297.6 0 448 0 28.8 0 41.6 12.8 41.6 41.6 0 147.2 0 294.4 0 441.6 0 32-12.8 44.8-44.8 44.8zM611.2 611.2c0 9.6 3.2 9.6 9.6 9.6 19.2 0 41.6 0 60.8 0s41.6 0 60.8 0c9.6 0 9.6-3.2 9.6-9.6 0-22.4 0-41.6 0-64 0-9.6-3.2-9.6-9.6-9.6-41.6 0-80 0-121.6 0-9.6 0-9.6 3.2-9.6 9.6 0 19.2 0 41.6 0 64v0zM620.8 512c41.6 0 80 0 121.6 0 9.6 0 9.6-3.2 9.6-9.6 0-22.4 0-41.6 0-64 0-9.6-3.2-9.6-9.6-9.6-22.4 0-41.6 0-64 0-19.2 0-38.4 0-57.6 0-9.6 0-9.6 3.2-9.6 9.6 0 22.4 0 41.6 0 64 0 6.4 0 9.6 9.6 9.6v0zM448 620.8c41.6 0 83.2 0 124.8 0 9.6 0 9.6-3.2 9.6-9.6 0-22.4 0-41.6 0-64 0-9.6-3.2-9.6-9.6-9.6-22.4 0-41.6 0-64 0-19.2 0-41.6 0-60.8 0-9.6 0-9.6 3.2-9.6 9.6 0 22.4 0 41.6 0 64 0 6.4 3.2 9.6 9.6 9.6zM272 611.2c0 9.6 3.2 12.8 12.8 12.8 38.4 0 80 0 118.4 0 9.6 0 12.8-3.2 12.8-12.8 0-22.4 0-41.6 0-64 0-9.6-3.2-12.8-12.8-12.8-19.2 0-41.6 0-60.8 0s-38.4 0-57.6 0c-9.6 0-12.8 0-12.8 12.8 0 22.4 0 41.6 0 64zM412.8 326.4c0-9.6-3.2-12.8-12.8-12.8-19.2 0-41.6 0-60.8 0s-38.4 0-57.6 0c-9.6 0-12.8 3.2-12.8 12.8 0 22.4 0 41.6 0 64 0 9.6 3.2 12.8 12.8 12.8 38.4 0 80 0 118.4 0 9.6 0 12.8-3.2 12.8-12.8 0-22.4 0-44.8 0-64v0zM412.8 214.4c0-9.6-3.2-12.8-12.8-12.8-35.2 0-73.6 0-108.8 0-16 0-22.4 6.4-22.4 22.4s0 35.2 0 51.2c0 9.6 3.2 12.8 12.8 12.8 19.2 0 41.6 0 60.8 0s38.4 0 57.6 0c9.6 0 12.8-3.2 12.8-12.8 0-19.2 0-38.4 0-60.8v0zM396.8 425.6c-19.2 0-38.4 0-57.6 0s-38.4 0-54.4 0c-9.6 0-16 0-16 12.8 0 19.2 0 38.4 0 57.6 0 9.6 3.2 12.8 12.8 12.8 38.4 0 80 0 118.4 0 12.8 0 12.8-3.2 12.8-16 0-19.2 0-38.4 0-54.4 3.2-9.6 0-16-16-12.8zM585.6 214.4c0-9.6-3.2-9.6-9.6-9.6-41.6 0-83.2 0-124.8 0-9.6 0-9.6 3.2-9.6 9.6 0 22.4 0 41.6 0 64 0 9.6 3.2 9.6 9.6 9.6 22.4 0 41.6 0 64 0s41.6 0 64 0c9.6 0 9.6-3.2 9.6-9.6-3.2-22.4-3.2-41.6-3.2-64zM585.6 323.2c0-6.4-3.2-9.6-9.6-9.6-22.4 0-41.6 0-64 0s-41.6 0-64 0c-6.4 0-9.6 3.2-9.6 9.6 0 22.4 0 44.8 0 67.2 0 6.4 3.2 9.6 9.6 9.6 41.6 0 83.2 0 128 0 6.4 0 9.6-3.2 9.6-9.6 0-22.4 0-44.8 0-67.2zM585.6 438.4c0-9.6-3.2-12.8-12.8-12.8-41.6 0-80 0-121.6 0-12.8 0-12.8 3.2-12.8 16 0 19.2 0 38.4 0 57.6 0 9.6 3.2 16 16 16 19.2 0 41.6 0 60.8 0s38.4 0 57.6 0c9.6 0 12.8-3.2 12.8-12.8 0-25.6 0-44.8 0-64v0zM752 224c0-12.8-6.4-19.2-19.2-19.2-38.4 0-76.8 0-115.2 0-6.4 0-9.6 3.2-9.6 9.6 0 22.4 0 44.8 0 67.2 0 9.6 3.2 9.6 9.6 9.6 19.2 0 41.6 0 60.8 0s41.6 0 60.8 0c9.6 0 9.6-3.2 9.6-9.6 3.2-22.4 3.2-38.4 3.2-57.6zM742.4 313.6c-19.2 0-41.6 0-60.8 0s-38.4 0-57.6 0c-9.6 0-12.8 3.2-12.8 12.8 0 22.4 0 41.6 0 64 0 9.6 3.2 12.8 12.8 12.8 38.4 0 80 0 118.4 0 9.6 0 12.8-3.2 12.8-12.8 0-22.4 0-41.6 0-64-3.2-9.6-6.4-12.8-12.8-12.8v0z" />
<glyph unicode="&#xf23d;" glyph-name="resize" d="M56.142-67.954l-56.142 59.305 968.649 968.649 55.351-56.142zM1021.628 494.258l-55.351 56.142-559.049-559.049 56.142-55.351zM1016.093 98.891l-56.142 56.142-165.263-166.054 55.351-55.351z" />
<glyph unicode="&#xf23e;" glyph-name="set-as-default" d="M0 502.4c0-12.8 3.2-16 16-16 147.2 0 294.4 0 441.6 0 12.8 0 16 3.2 16 16 0 147.2 0 294.4 0 441.6 0 12.8-3.2 16-16 16-73.6 0-147.2 0-220.8 0s-147.2 0-220.8 0c-12.8 0-16-3.2-16-16 0-147.2 0-294.4 0-441.6v0zM51.2 892.8c0 9.6 3.2 16 12.8 16 115.2 0 230.4 0 345.6 0 12.8 0 16-6.4 16-16 0-57.6 0-112 0-169.6s0-115.2 0-172.8c0-9.6-3.2-16-12.8-16-115.2 0-230.4 0-345.6 0-9.6 0-16 3.2-16 12.8 0 118.4 0 233.6 0 345.6v0zM547.2 496c0 150.4 0 300.8 0 448 0 9.6 3.2 12.8 12.8 12.8 150.4 0 300.8 0 448 0 9.6 3.2 16 3.2 16-6.4 0-118.4 0-236.8 0-361.6-6.4 6.4-9.6 12.8-16 16-32 22.4-38.4 51.2-35.2 86.4 3.2 67.2 0 134.4 0 201.6 0 12.8-3.2 16-16 16-115.2 0-227.2 0-342.4 0-12.8 0-16-3.2-16-16 0-115.2 0-227.2 0-342.4 0-12.8 3.2-16 16-16 57.6 0 115.2 0 172.8 0 6.4 0 12.8 0 22.4 0-19.2-19.2-32-32-48-48-3.2-3.2-9.6-3.2-12.8-3.2-60.8 0-124.8 0-185.6 0-12.8 0-16 3.2-16 12.8v0zM275.2-25.6c12.8-12.8 25.6-22.4 38.4-38.4-19.2 0-38.4 0-54.4 0-80 0-163.2 0-243.2 0-12.8 0-16 3.2-16 16 0 147.2 0 294.4 0 444.8 0 12.8 3.2 16 16 16 147.2 0 297.6 0 444.8 0 9.6 0 16-3.2 16-16 0-60.8 0-121.6 0-182.4 0-9.6-3.2-16-9.6-22.4-12.8-12.8-25.6-25.6-41.6-41.6 0 28.8 0 54.4 0 80 0 38.4 0 80 0 118.4 0 9.6-3.2 12.8-12.8 12.8-115.2 0-230.4 0-348.8 0-9.6 0-12.8-3.2-12.8-12.8 0-19.2 0-38.4 0-57.6 0-16 0-28.8-6.4-41.6-6.4-9.6-6.4-25.6 0-35.2 6.4-12.8 6.4-28.8 6.4-41.6 0-54.4 0-112 0-166.4 0-12.8 3.2-16 16-16 57.6 0 118.4 0 176 0 16-3.2 25.6-6.4 32-16v0zM384-32c-9.6-9.6-16-12.8-28.8 0-83.2 83.2-169.6 166.4-252.8 249.6-9.6 9.6-12.8 16 0 25.6 9.6 6.4 12.8 16 22.4 25.6 6.4-6.4 9.6-9.6 16-12.8 70.4-70.4 144-140.8 214.4-214.4 12.8-12.8 16-12.8 32 0 179.2 179.2 361.6 361.6 540.8 540.8 12.8 12.8 19.2 16 32 0 19.2-22.4 19.2-22.4 0-41.6-192-192-384-380.8-576-572.8v0zM1024-51.2c0-9.6-3.2-12.8-12.8-12.8-150.4 0-300.8 0-448 0-9.6 0-12.8 3.2-12.8 12.8 0 32 0 67.2 0 99.2 0 6.4 0 9.6 3.2 16 16 16 28.8 28.8 48 48 0-41.6 0-73.6 0-108.8 0-9.6 3.2-12.8 12.8-12.8 115.2 0 230.4 0 345.6 0 9.6 0 12.8 3.2 12.8 12.8 0 115.2 0 230.4 0 345.6 0 9.6-3.2 12.8-12.8 12.8-35.2 0-70.4 0-108.8 0 19.2 19.2 35.2 32 48 48 3.2 3.2 9.6 3.2 12.8 3.2 32 0 67.2 0 99.2 0 9.6 0 12.8-3.2 12.8-12.8 0-150.4 0-300.8 0-451.2v0zM601.6 352c6.4-28.8-16-41.6-32-57.6-6.4-6.4-9.6-12.8-16-19.2 0 0-3.2 3.2-6.4 3.2 0 41.6 0 83.2 0 124.8 0 9.6 6.4 6.4 9.6 6.4 41.6 0 80 0 121.6 0 0 0 3.2-3.2 3.2-3.2-16-12.8-28.8-28.8-44.8-41.6-9.6-9.6-19.2-3.2-28.8-6.4-3.2 0-9.6 3.2-6.4-6.4v0zM1027.2 524.8c0 0-3.2 0 0 0-3.2 0-3.2 0 0 0-3.2 0-3.2 3.2-3.2 6.4 0 0 0-3.2 3.2-6.4v0zM1024 524.8c0-41.6 0-41.6-48-38.4 16 12.8 32 25.6 48 38.4zM473.6-22.4c0-51.2 12.8-41.6-41.6-41.6 16 12.8 28.8 28.8 41.6 41.6z" />
<glyph unicode="&#xf23f;" glyph-name="solution_new1" d="M515.2 726.4c-144 0-262.4-118.4-262.4-259.2 0-57.6 19.2-115.2 57.6-160 6.4-9.6 16-19.2 22.4-28.8v0c25.6-28.8 51.2-57.6 60.8-92.8 3.2-6.4 3.2-22.4 3.2-35.2v-19.2c0-19.2 16-32 32-32h176c19.2 0 32 16 32 32v19.2c0 16 0 25.6 3.2 32 9.6 35.2 38.4 67.2 64 96v0c6.4 9.6 12.8 16 19.2 25.6 35.2 48 57.6 102.4 57.6 160-3.2 147.2-121.6 262.4-265.6 262.4v0zM668.8 345.6c-6.4-6.4-12.8-16-19.2-22.4v0c-28.8-35.2-64-73.6-76.8-121.6-3.2-6.4-3.2-16-3.2-38.4h-108.8c0 22.4-3.2 32-3.2 38.4-12.8 48-48 86.4-73.6 118.4v0c-6.4 9.6-16 16-22.4 25.6-28.8 35.2-41.6 76.8-41.6 121.6 0 108.8 89.6 195.2 195.2 195.2s195.2-86.4 195.2-195.2c0-44.8-12.8-86.4-41.6-121.6v0zM601.6 89.6h-176c-19.2 0-32-16-32-32s16-32 32-32h176c19.2 0 32 16 32 32s-16 32-32 32zM556.8 12.8h-86.4c-19.2 0-32-16-32-32s16-32 32-32h86.4c19.2 0 32 16 32 32s-12.8 32-32 32zM972.8 499.2h-115.2c-19.2 0-32-16-32-32s16-32 32-32h115.2c19.2 0 32 16 32 32s-12.8 32-32 32zM201.6 467.2c0 19.2-16 32-32 32h-115.2c-19.2 0-32-16-32-32s16-32 32-32h115.2c19.2-3.2 32 12.8 32 32zM515.2 774.4c19.2 0 32 16 32 32v115.2c0 19.2-16 32-32 32s-32-16-32-32v-115.2c-3.2-16 12.8-32 32-32v0zM780.8 249.6c-12.8 12.8-35.2 12.8-48 0s-12.8-35.2 0-48l80-80c6.4-6.4 16-9.6 22.4-9.6s16 3.2 22.4 9.6c12.8 12.8 12.8 35.2 0 48l-76.8 80zM246.4 684.8c6.4-6.4 16-9.6 22.4-9.6s19.2 3.2 25.6 9.6c12.8 12.8 12.8 35.2 0 48l-83.2 80c-12.8 12.8-35.2 12.8-48 0s-12.8-35.2 0-48c3.2 0 83.2-80 83.2-80zM246.4 249.6l-80-80c-12.8-12.8-12.8-35.2 0-48 6.4-6.4 16-9.6 22.4-9.6s16 3.2 22.4 9.6l80 80c12.8 12.8 12.8 35.2 0 48-9.6 12.8-32 12.8-44.8 0v0zM758.4 675.2c9.6 0 16 3.2 22.4 9.6l83.2 80c12.8 12.8 12.8 35.2 0 48s-35.2 12.8-48 0l-80-80c-12.8-12.8-12.8-35.2 0-48 3.2-6.4 12.8-9.6 22.4-9.6v0z" />
<glyph unicode="&#xf240;" horiz-adv-x="1344" d="M668.8 960c201.6 0 403.2 0 604.8 0 48 0 60.8-16 60.8-60.8 0-300.8 0-598.4 0-899.2 0-48-16-64-64-64-403.2 0-806.4 0-1209.6 0-44.8 0-60.8 16-60.8 60.8 0 300.8 0 601.6 0 902.4 0 44.8 16 60.8 60.8 60.8 201.6 0 406.4 0 608 0v0zM1193.6 537.6c-35.2 0-70.4 0-108.8 0-12.8 0-16-3.2-16-16 0-35.2 0-67.2 0-102.4 0-12.8 3.2-16 16-16 70.4 0 144 0 214.4 0 12.8 0 16 3.2 16 16 0 35.2 0 67.2 0 102.4 0 12.8-3.2 16-16 16-35.2 0-70.4 0-105.6 0v0zM140.8 256c35.2 0 70.4 0 108.8 0 12.8 0 16 3.2 16 16 0 35.2 0 67.2 0 102.4 0 12.8-3.2 16-16 16-70.4 0-144 0-214.4 0-12.8 0-16-3.2-16-16 0-35.2 0-67.2 0-102.4 0-12.8 3.2-16 16-16 35.2 0 70.4 0 105.6 0v0zM406.4 387.2c-35.2 0-73.6 0-108.8 0-12.8 0-16-3.2-16-16 0-35.2 0-70.4 0-102.4 0-12.8 3.2-16 16-16 70.4 0 144 0 217.6 0 12.8 0 16 3.2 16 16 0 35.2 0 70.4 0 102.4 0 12.8-3.2 16-16 16-38.4 0-73.6 0-108.8 0v0zM665.6 256c35.2 0 70.4 0 102.4 0 16 0 22.4 3.2 22.4 19.2 0 32 0 64 0 92.8 0 16-6.4 19.2-19.2 19.2-70.4 0-137.6 0-208 0-12.8 0-19.2 0-19.2-16 0-32 0-67.2 0-99.2 0-12.8 6.4-16 16-16 35.2 0 70.4 0 105.6 0v0zM931.2 256c35.2 0 70.4 0 108.8 0 12.8 0 16 3.2 16 12.8 0 35.2 0 70.4 0 102.4 0 12.8-3.2 16-12.8 16-70.4 0-144 0-217.6 0-12.8 0-16-3.2-16-12.8 0-35.2 0-70.4 0-102.4 0-12.8 3.2-16 12.8-16 35.2 0 70.4 0 108.8 0zM1193.6 387.2c-35.2 0-70.4 0-105.6 0-12.8 0-16-3.2-16-16 0-35.2 0-67.2 0-102.4 0-12.8 3.2-16 16-12.8 70.4 0 144 0 217.6 0 12.8 0 16 3.2 12.8 16 0 35.2 0 70.4 0 102.4 0 12.8-3.2 16-16 12.8-38.4 0-73.6 0-108.8 0zM140.8 105.6c35.2 0 70.4 0 108.8 0 12.8 0 16 3.2 16 16 0 32 0 67.2 0 102.4 0 12.8-3.2 16-16 16-70.4 0-140.8 0-214.4 0-12.8 0-16-3.2-16-16 0-32 0-67.2 0-102.4 0-16 6.4-16 19.2-16 32 0 67.2 0 102.4 0v0zM403.2 105.6c35.2 0 70.4 0 108.8 0 9.6 0 16 0 16 12.8 0 35.2 0 70.4 0 105.6 0 9.6-3.2 12.8-12.8 12.8-73.6 0-147.2 0-217.6 0-9.6 0-12.8-3.2-12.8-12.8 0-35.2 0-70.4 0-102.4 0-12.8 3.2-16 16-16 32 0 67.2 0 102.4 0v0zM665.6 105.6c35.2 0 70.4 0 108.8 0 12.8 0 16 3.2 16 16 0 35.2 0 70.4 0 102.4 0 12.8-3.2 16-16 16-70.4 0-144 0-217.6 0-12.8 0-16-3.2-16-16 0-35.2 0-70.4 0-102.4 0-12.8 3.2-16 16-16 38.4 0 73.6 0 108.8 0zM928 105.6c35.2 0 70.4 0 108.8 0 9.6 0 16 0 16 16 0 35.2 0 70.4 0 102.4 0 12.8-3.2 12.8-16 12.8-70.4 0-144 0-217.6 0-12.8 0-12.8-3.2-12.8-16 0-35.2 0-70.4 0-102.4 0-12.8 3.2-12.8 16-12.8 35.2 0 70.4 0 105.6 0v0zM1190.4 105.6c35.2 0 70.4 0 105.6 0 12.8 0 19.2 0 19.2 16 0 32 0 67.2 0 99.2 0 12.8-3.2 16-16 16-70.4 0-140.8 0-211.2 0-12.8 0-16-3.2-16-16 0-32 0-67.2 0-99.2 0-12.8 3.2-16 16-16 35.2 0 70.4 0 102.4 0zM403.2-44.8c35.2 0 70.4 0 108.8 0 9.6 0 16 0 16 12.8 0 35.2 0 70.4 0 105.6 0 9.6-3.2 12.8-12.8 12.8-73.6 0-144 0-217.6 0-9.6 0-12.8-3.2-12.8-12.8 0-35.2 0-67.2 0-102.4 0-12.8 3.2-16 16-16 32 0 67.2 0 102.4 0v0zM665.6-44.8c35.2 0 67.2 0 102.4 0 16 0 22.4 3.2 22.4 19.2 0 32 0 64 0 92.8 0 12.8-3.2 19.2-16 19.2-70.4 0-140.8 0-211.2 0-12.8 0-16-3.2-16-16 0-32 0-64 0-96 0-16 6.4-19.2 19.2-19.2 32 0 64 0 99.2 0v0zM928-44.8c35.2 0 70.4 0 108.8 0 12.8 0 16 3.2 16 16 0 32 0 67.2 0 102.4 0 12.8-3.2 16-16 16-70.4 0-140.8 0-214.4 0-12.8 0-16-3.2-16-16 0-32 0-67.2 0-102.4 0-12.8 3.2-16 16-16 35.2 0 70.4 0 105.6 0zM928 406.4c35.2 0 70.4 0 108.8 0 9.6 0 16 0 16 16 0 35.2 0 67.2 0 102.4 0 12.8-3.2 12.8-16 12.8-70.4 0-144 0-214.4 0-12.8 0-16-3.2-12.8-16 0-35.2 0-67.2 0-102.4 0-12.8 3.2-16 16-12.8 32 0 67.2 0 102.4 0v0zM668.8 537.6c-35.2 0-67.2 0-102.4 0-12.8 0-19.2-3.2-19.2-19.2 0-32 0-64 0-96 0-12.8 3.2-16 16-16 70.4 0 140.8 0 211.2 0 16 0 19.2 6.4 16 19.2 0 32 0 64 0 92.8 0 16-6.4 19.2-22.4 19.2-32 0-67.2 0-99.2 0v0zM403.2 406.4c35.2 0 70.4 0 108.8 0 12.8 0 16 3.2 16 16 0 32 0 67.2 0 102.4 0 12.8-3.2 16-16 16-70.4 0-140.8 0-214.4 0-12.8 0-16-3.2-16-16 0-32 0-67.2 0-102.4 0-16 6.4-16 19.2-16 32 0 67.2 0 102.4 0v0zM140.8 406.4c35.2 0 70.4 0 108.8 0 12.8 0 16 3.2 16 16 0 35.2 0 67.2 0 102.4 0 12.8-3.2 16-16 16-73.6 0-144 0-217.6 0-12.8 0-16-3.2-16-16 0-35.2 0-67.2 0-102.4 0-12.8 3.2-16 16-16 38.4 0 73.6 0 108.8 0v0zM1193.6 556.8c35.2 0 70.4 0 102.4 0 12.8 0 19.2 0 19.2 16 0 35.2 0 67.2 0 102.4 0 12.8-3.2 16-16 16-70.4 0-140.8 0-214.4 0-12.8 0-16-3.2-16-16 0-35.2 0-67.2 0-102.4 0-12.8 3.2-16 16-16 38.4 0 73.6 0 108.8 0v0zM931.2 688c-35.2 0-70.4 0-108.8 0-12.8 0-16-3.2-16-16 0-35.2 0-70.4 0-102.4 0-12.8 3.2-16 16-16 70.4 0 144 0 217.6 0 12.8 0 16 3.2 16 16 0 35.2 0 70.4 0 102.4 0 12.8-3.2 16-16 16-38.4 0-73.6 0-108.8 0zM668.8 688c-35.2 0-73.6 0-112 0-9.6 0-12.8-3.2-12.8-16 0-35.2 0-70.4 0-102.4 0-12.8 3.2-16 16-16 70.4 0 144 0 217.6 0 12.8 0 16 3.2 16 16 0 35.2 0 70.4 0 102.4 0 12.8-3.2 16-16 16-38.4 0-73.6 0-108.8 0v0zM403.2 556.8c35.2 0 70.4 0 105.6 0 12.8 0 19.2 0 19.2 16 0 32 0 67.2 0 99.2 0 12.8-6.4 16-16 16-70.4 0-140.8 0-208 0-16 0-19.2-6.4-19.2-19.2 0-32 0-64 0-92.8 0-16 6.4-19.2 19.2-19.2 32 0 64 0 99.2 0v0zM140.8 556.8c35.2 0 70.4 0 108.8 0 12.8 0 16 3.2 16 16 0 35.2 0 67.2 0 102.4 0 12.8-3.2 16-16 16-73.6 0-144 0-217.6 0-9.6-3.2-12.8-6.4-12.8-19.2 0-35.2 0-67.2 0-102.4 0-12.8 3.2-16 16-16 35.2 3.2 70.4 3.2 105.6 3.2v0zM1196.8 838.4c-35.2 0-73.6 0-112 0-12.8 0-16-3.2-16-16 0-35.2 0-70.4 0-102.4 0-12.8 3.2-16 16-16 70.4 0 144 0 217.6 0 12.8 0 16 3.2 16 16 0 35.2 0 70.4 0 102.4 0 12.8-3.2 16-16 16-35.2 0-70.4 0-105.6 0v0zM931.2 707.2c35.2 0 70.4 0 108.8 0 12.8 0 16 3.2 16 16 0 35.2 0 70.4 0 102.4 0 12.8-3.2 16-16 16-70.4 0-144 0-217.6 0-12.8 0-16-3.2-16-16 0-35.2 0-70.4 0-102.4 0-12.8 3.2-16 16-16 35.2 0 70.4 0 108.8 0zM665.6 838.4c-35.2 0-70.4 0-108.8 0-12.8 0-16-3.2-16-12.8 0-35.2 0-70.4 0-102.4 0-12.8 3.2-16 12.8-16 70.4 0 144 0 217.6 0 12.8 0 16 6.4 16 16 0 32 0 67.2 0 99.2 0 12.8-3.2 16-16 16-35.2 0-70.4 0-105.6 0v0zM403.2 707.2c35.2 0 70.4 0 108.8 0 12.8 0 16 3.2 16 16 0 35.2 0 67.2 0 102.4 0 12.8-3.2 16-16 16-70.4 0-140.8 0-214.4 0-12.8 0-16-3.2-16-16 0-35.2 0-67.2 0-102.4 0-16 6.4-16 19.2-16 32 0 67.2 0 102.4 0zM140.8 707.2c35.2 0 70.4 0 108.8 0 12.8 0 16 3.2 16 16 0 35.2 0 67.2 0 102.4 0 12.8-3.2 16-16 16-70.4 0-144 0-217.6 0-12.8 0-16-3.2-16-16 0-35.2 0-67.2 0-102.4 3.2-12.8 6.4-19.2 19.2-19.2 35.2 3.2 70.4 3.2 105.6 3.2zM144 86.4c-35.2 0-73.6 0-108.8 0-9.6 0-16-3.2-16-12.8 0-25.6 0-54.4 0-80s12.8-38.4 38.4-38.4c64 0 128 0 192 0 12.8 0 16 3.2 16 16 0 32 0 67.2 0 99.2 0 12.8-3.2 16-16 16-38.4 0-73.6 0-105.6 0v0zM1193.6 86.4c-35.2 0-70.4 0-108.8 0-9.6 0-16 0-16-16 0-35.2 0-67.2 0-102.4 0-12.8 3.2-12.8 16-12.8 64 0 128 0 192 0 25.6 0 35.2 12.8 38.4 38.4 0 25.6 0 51.2 0 76.8 0 12.8-6.4 16-16 16-35.2 0-70.4 0-105.6 0v0z" />
<glyph unicode="&#xf241;" horiz-adv-x="1344" d="M19.2 272c0 32 0 67.2 0 102.4 0 12.8 3.2 16 16 16 70.4 0 144 0 214.4 0 12.8 0 16-3.2 16-16 0-35.2 0-67.2 0-102.4 0-12.8-3.2-16-16-16-35.2 0-70.4 0-108.8 0-35.2 0-70.4 0-105.6 0-12.8 0-16 3.2-16 16zM262.4 220.8c0 12.8-3.2 16-16 16-70.4 0-140.8 0-214.4 0-12.8 0-16-3.2-16-16 0-32 0-67.2 0-102.4 0-16 6.4-16 19.2-16 35.2 0 67.2 0 102.4 0s70.4 0 108.8 0c12.8 0 16 3.2 16 16 0 35.2 0 70.4 0 102.4zM1084.8 406.4c70.4 0 144 0 214.4 0 12.8 0 16 3.2 16 16 0 35.2 0 67.2 0 102.4 0 12.8-3.2 16-16 16-35.2 0-70.4 0-105.6 0s-70.4 0-108.8 0c-12.8 0-16-3.2-16-16 0-35.2 0-67.2 0-102.4 3.2-12.8 6.4-16 16-16v0zM1052.8 521.6c0 12.8-3.2 12.8-16 12.8-70.4 0-144 0-214.4 0-12.8 0-16-3.2-12.8-16 0-35.2 0-67.2 0-102.4 0-12.8 3.2-16 16-12.8 35.2 0 70.4 0 105.6 0s70.4 0 108.8 0c9.6 0 16 0 16 16-3.2 35.2-3.2 70.4-3.2 102.4zM768 537.6c-32 0-67.2 0-102.4 0s-67.2 0-102.4 0c-12.8 0-19.2-3.2-19.2-19.2 0-32 0-64 0-96 0-12.8 3.2-16 16-16 70.4 0 140.8 0 211.2 0 16 0 19.2 6.4 16 19.2 0 32 0 64 0 92.8 3.2 16-3.2 19.2-19.2 19.2v0zM528 521.6c0 12.8-3.2 16-16 16-70.4 0-140.8 0-214.4 0-12.8 0-16-3.2-16-16 0-32 0-67.2 0-102.4 0-16 6.4-16 19.2-16 35.2 0 67.2 0 102.4 0s70.4 0 108.8 0c12.8 0 16 3.2 16 16-3.2 35.2-3.2 67.2 0 102.4zM35.2 406.4c35.2 0 70.4 0 105.6 0s70.4 0 108.8 0c12.8 0 16 3.2 16 16 0 35.2 0 67.2 0 102.4 0 12.8-3.2 16-16 16-73.6 0-144 0-217.6 0-12.8 0-16-3.2-16-16 0-35.2 0-67.2 0-102.4 3.2-12.8 6.4-16 19.2-16v0zM35.2 556.8c35.2 0 70.4 0 105.6 0s70.4 0 108.8 0c12.8 0 16 3.2 16 16 0 35.2 0 67.2 0 102.4 0 12.8-3.2 16-16 16-73.6 0-144 0-217.6 0-9.6-3.2-12.8-6.4-12.8-19.2 0-35.2 0-67.2 0-102.4 0-9.6 3.2-12.8 16-12.8v0zM35.2 707.2c35.2 0 70.4 0 105.6 0s70.4 0 108.8 0c12.8 0 16 3.2 16 16 0 35.2 0 67.2 0 102.4 0 12.8-3.2 16-16 16-70.4 0-144 0-217.6 0-12.8 0-16-3.2-16-16 0-35.2 0-67.2 0-102.4 3.2-12.8 6.4-16 19.2-16zM524.8 73.6c0 9.6-3.2 12.8-12.8 12.8-73.6 0-144 0-217.6 0-9.6 0-12.8-3.2-12.8-12.8 0-35.2 0-67.2 0-102.4 0-12.8 3.2-16 16-16 35.2 0 70.4 0 105.6 0s70.4 0 108.8 0c9.6 0 16 0 16 12.8-3.2 35.2-3.2 70.4-3.2 105.6v0zM790.4 67.2c0 12.8-3.2 19.2-16 19.2-70.4 0-140.8 0-211.2 0-12.8 0-16-3.2-16-16 0-32 0-64 0-96 0-16 6.4-19.2 19.2-19.2 32 0 67.2 0 102.4 0s67.2 0 102.4 0c16 0 22.4 3.2 22.4 19.2-6.4 32-6.4 60.8-3.2 92.8v0zM1036.8 86.4c-70.4 0-140.8 0-214.4 0-12.8 0-16-3.2-16-16 0-32 0-67.2 0-102.4 0-12.8 3.2-16 16-16 35.2 0 70.4 0 105.6 0s70.4 0 108.8 0c12.8 0 16 3.2 16 16 0 32 0 67.2 0 102.4 0 12.8-3.2 16-16 16zM246.4 86.4c-35.2 0-67.2 0-102.4 0s-73.6 0-108.8 0c-9.6 0-16-3.2-16-12.8 0-25.6 0-54.4 0-80s12.8-38.4 38.4-38.4c64 0 128 0 192 0 12.8 0 16 3.2 16 16 0 32 0 67.2 0 99.2-3.2 12.8-6.4 16-19.2 16zM1299.2 86.4c-35.2 0-67.2 0-102.4 0s-70.4 0-108.8 0c-9.6 0-16 0-16-16 0-35.2 0-67.2 0-102.4 0-12.8 3.2-12.8 16-12.8 64 0 128 0 192 0 25.6 0 35.2 12.8 38.4 38.4 0 25.6 0 51.2 0 76.8-3.2 12.8-6.4 16-19.2 16z" />
<glyph unicode="&#xf242;" glyph-name="t-line2" d="M982.4 646.4c-25.6 60.8-64 115.2-108.8 163.2s-102.4 83.2-163.2 108.8c-60.8 28.8-128 41.6-198.4 41.6-92.8 0-182.4-25.6-259.2-70.4-48-28.8-89.6-64-124.8-102.4v76.8c0 19.2-12.8 32-32 32s-32-12.8-32-32v-172.8c0-3.2 0-6.4 0-9.6v-9.6c0-19.2 12.8-32 32-32h160c19.2 0 32 12.8 32 32s-12.8 32-32 32h-112c83.2 118.4 220.8 192 368 192 246.4 0 448-201.6 448-448s-201.6-448-448-448c-185.6 0-355.2 115.2-419.2 288-6.4 16-25.6 25.6-41.6 19.2s-25.6-25.6-19.2-41.6c19.2-48 44.8-92.8 73.6-134.4 32-41.6 67.2-76.8 108.8-105.6 89.6-57.6 192-89.6 297.6-89.6 70.4 0 137.6 12.8 198.4 41.6 60.8 25.6 115.2 64 163.2 108.8s83.2 102.4 108.8 163.2c25.6 64 41.6 131.2 41.6 198.4s-12.8 137.6-41.6 198.4v0zM480 768c-19.2 0-32-12.8-32-32v-320c0-19.2 12.8-32 32-32h256c19.2 0 32 12.8 32 32s-12.8 32-32 32h-224v288c0 19.2-12.8 32-32 32z" />
<glyph unicode="&#xf243;" glyph-name="tabular-report2" horiz-adv-x="1344" d="M1267.2 960c-403.2 0-803.2 0-1206.4 0-44.8 0-60.8-16-60.8-57.6 0-300.8 0-601.6 0-905.6 0-44.8 16-60.8 60.8-60.8 201.6 0 400 0 601.6 0s403.2 0 601.6 0c48 0 60.8 16 60.8 60.8 0 300.8 0 601.6 0 902.4 3.2 44.8-12.8 60.8-57.6 60.8v0zM1081.6 835.2c35.2 0 70.4 0 108.8 0s70.4 0 108.8 0c12.8 0 16-3.2 16-16 0-35.2 0-67.2 0-102.4 0-12.8-3.2-16-16-12.8-70.4 0-144 0-214.4 0-12.8 0-16 3.2-16 16 0 35.2 0 67.2 0 102.4-3.2 9.6 0 12.8 12.8 12.8v0zM1308.8 118.4c0-12.8-3.2-16-16-16-35.2 0-70.4 0-108.8 0s-70.4 0-108.8 0c-12.8 0-16 3.2-16 16 0 35.2 0 67.2 0 102.4 0 12.8 3.2 16 16 16 70.4 0 144 0 214.4 0 12.8 0 16-3.2 16-16 3.2-35.2 3.2-67.2 3.2-102.4v0zM1308.8 268.8c0-12.8-3.2-16-16-16-35.2 0-73.6 0-108.8 0s-70.4 0-105.6 0c-12.8 0-16 3.2-16 16 0 35.2 0 67.2 0 102.4 0 12.8 3.2 16 16 16 70.4 0 144 0 214.4 0 12.8 0 16-3.2 16-16 0-35.2 0-70.4 0-102.4v0zM1065.6 668.8c0 12.8 3.2 16 16 16 35.2 0 70.4 0 108.8 0s70.4 0 108.8 0c12.8 0 16-3.2 16-16 0-35.2 0-67.2 0-102.4 0-12.8-3.2-16-16-16-70.4 0-144 0-214.4 0-12.8 0-16 3.2-16 16-3.2 35.2-3.2 70.4-3.2 102.4v0zM1065.6 521.6c0 12.8 3.2 16 16 16 35.2 0 70.4 0 108.8 0s70.4 0 108.8 0c12.8 0 16-3.2 16-16 0-35.2 0-67.2 0-102.4 0-12.8-3.2-16-16-16-70.4 0-144 0-214.4 0-12.8 0-16 3.2-16 16-3.2 32-3.2 67.2-3.2 102.4v0zM819.2 835.2c35.2 0 70.4 0 108.8 0s70.4 0 108.8 0c12.8 0 16-3.2 16-16 0-35.2 0-67.2 0-102.4 0-12.8-3.2-16-16-12.8-70.4 0-144 0-214.4 0-12.8 0-16 3.2-16 16 0 35.2 0 67.2 0 102.4-3.2 9.6 0 12.8 12.8 12.8v0zM819.2 684.8c35.2 0 70.4 0 108.8 0s70.4 0 108.8 0c12.8 0 16-3.2 12.8-16 0-35.2 0-67.2 0-102.4 0-12.8-3.2-16-16-12.8-70.4 0-144 0-214.4 0-12.8 0-16 3.2-12.8 16 0 35.2 0 67.2 0 102.4-3.2 9.6 0 12.8 12.8 12.8v0zM556.8 835.2c70.4 0 144 0 214.4 0 12.8 0 16-3.2 12.8-16 0-35.2 0-67.2 0-102.4 0-12.8-3.2-16-16-12.8-35.2 0-70.4 0-108.8 0s-70.4 0-108.8 0c-12.8 0-16 3.2-16 16 0 35.2 0 67.2 0 102.4 6.4 9.6 9.6 12.8 22.4 12.8v0zM787.2 566.4c0-12.8-3.2-16-16-16-70.4 0-144 0-214.4 0-12.8 0-16 3.2-16 16 0 35.2 0 67.2 0 102.4 0 12.8 3.2 16 16 16 35.2 0 70.4 0 108.8 0s70.4 0 108.8 0c12.8 0 16-3.2 16-16-6.4-32-6.4-67.2-3.2-102.4v0zM262.4-28.8c0-12.8-3.2-16-16-16-64 0-124.8 0-188.8 0-25.6 0-38.4 12.8-38.4 38.4s0 51.2 0 76.8c0 12.8 3.2 16 16 16 35.2 0 70.4 0 108.8 0 35.2 0 70.4 0 105.6 0 12.8 0 16-3.2 16-16-3.2-32-3.2-67.2-3.2-99.2zM262.4 566.4c0-12.8-3.2-16-16-12.8-35.2 0-70.4 0-108.8 0-35.2 0-70.4 0-108.8 0-12.8 0-16 3.2-12.8 16 0 35.2 0 67.2 0 102.4 0 12.8 3.2 16 16 12.8 70.4 0 144 0 214.4 0 12.8 0 16-3.2 12.8-16 3.2-32 3.2-67.2 3.2-102.4v0zM19.2 220.8c0 12.8 3.2 16 16 16 70.4 0 144 0 214.4 0 12.8 0 16-3.2 16-16 0-35.2 0-67.2 0-102.4 0-12.8-3.2-16-16-16-35.2 0-73.6 0-108.8 0s-70.4 0-105.6 0c-12.8 0-16 3.2-16 16 0 35.2 0 67.2 0 102.4v0zM262.4 268.8c0-12.8-3.2-16-16-16-35.2 0-70.4 0-108.8 0s-70.4 0-108.8 0c-12.8 0-16 3.2-16 16 0 35.2 0 67.2 0 102.4 6.4 9.6 9.6 12.8 19.2 12.8 70.4 0 144 0 214.4 0 12.8 0 16-3.2 16-16 0-32 0-67.2 0-99.2v0zM246.4 403.2c-35.2 0-73.6 0-108.8 0s-70.4 0-105.6 0c-12.8 0-16 3.2-16 16 0 35.2 0 67.2 0 102.4 0 12.8 3.2 16 16 16 70.4 0 144 0 214.4 0 12.8 0 16-3.2 16-16 0-35.2 0-67.2 0-102.4 0-12.8-3.2-16-16-16v0zM262.4 819.2c0-32 0-64 0-99.2 0-12.8-3.2-16-16-16-70.4 0-140.8 0-211.2 0-12.8-3.2-16 0-16 16 0 32 0 64 0 99.2 0 16 6.4 16 19.2 16 35.2 0 70.4 0 105.6 0s67.2 0 102.4 0c12.8 0 16-3.2 16-16v0zM281.6 720c0 32 0 64 0 99.2 0 9.6 0 16 16 16 70.4 0 144 0 214.4 0 12.8 0 12.8-3.2 12.8-16 0-35.2 0-67.2 0-102.4 0-12.8-3.2-12.8-16-12.8-35.2 0-70.4 0-108.8 0-35.2 0-67.2 0-102.4 0-12.8-3.2-19.2 0-16 16v0zM297.6 684.8c35.2 0 70.4 0 105.6 0s67.2 0 102.4 0c12.8 0 19.2-3.2 16-16 0-32 0-64 0-99.2 0-12.8-3.2-16-16-16-70.4 0-140.8 0-211.2 0-12.8 0-19.2 3.2-16 16 0 32 0 64 0 99.2 0 12.8 6.4 16 19.2 16v0zM281.6 371.2c-3.2 12.8 3.2 12.8 12.8 12.8 70.4 0 140.8 0 211.2 0 12.8 0 16-3.2 16-16 0-35.2 0-67.2 0-99.2 0-12.8-3.2-16-16-16-35.2 0-70.4 0-108.8 0-35.2 0-67.2 0-102.4 0-12.8 0-19.2 0-19.2 16 6.4 35.2 6.4 67.2 6.4 102.4zM524.8 416c0-12.8-3.2-16-16-16-70.4 0-144 0-214.4 0-12.8 0-16 3.2-16 16 0 35.2 0 67.2 0 102.4 0 12.8 3.2 16 16 16 35.2 0 73.6 0 108.8 0s70.4 0 105.6 0c12.8 0 16-3.2 16-16 0-32 0-67.2 0-102.4v0zM524.8-32c0-12.8-3.2-16-16-16-35.2 0-70.4 0-108.8 0s-70.4 0-108.8 0c-12.8 0-16 3.2-16 16 0 35.2 0 67.2 0 102.4 0 12.8 3.2 16 16 16 70.4 0 144 0 214.4 0 12.8 0 16-3.2 16-16 0-32 0-67.2 3.2-102.4v0zM502.4 102.4c-35.2 0-67.2 0-102.4 0s-67.2 0-102.4 0c-12.8 0-19.2 3.2-16 16 0 32 0 64 0 99.2 0 16 6.4 16 19.2 16 67.2 0 137.6 0 204.8 0 12.8 0 19.2-3.2 19.2-19.2 0-32 0-60.8 0-92.8 0-16-6.4-19.2-22.4-19.2v0zM560 534.4c35.2 0 70.4 0 108.8 0 35.2 0 70.4 0 105.6 0 9.6 0 16-3.2 16-12.8 0-35.2 0-67.2 0-102.4 0-12.8-3.2-16-12.8-16-70.4 0-144 0-214.4 0-9.6 0-16 3.2-16 12.8 0 35.2 0 67.2 0 102.4-6.4 16 0 16 12.8 16v0zM540.8 371.2c0 12.8 3.2 16 16 12.8 35.2 0 70.4 0 108.8 0s70.4 0 108.8 0c12.8 0 16-3.2 12.8-16 0-35.2 0-67.2 0-102.4 0-12.8-3.2-16-16-12.8-70.4 0-144 0-214.4 0-12.8 0-16 3.2-12.8 16 0 32 0 67.2-3.2 102.4v0zM771.2-44.8c-35.2 0-70.4 0-108.8 0-35.2 0-70.4 0-105.6 0-9.6 0-16 0-16 16 0 35.2 0 67.2 0 102.4 0 12.8 3.2 12.8 16 12.8 70.4 0 144 0 214.4 0 12.8 0 12.8-3.2 12.8-16 0-35.2 0-67.2 0-102.4 3.2-12.8-3.2-12.8-12.8-12.8v0zM768 102.4c-35.2 0-70.4 0-108.8 0-35.2 0-70.4 0-105.6 0-12.8 0-16 3.2-16 12.8 0 35.2 0 67.2 0 102.4 0 12.8 3.2 16 12.8 16 70.4 0 144 0 214.4 0 12.8 0 16-6.4 16-16 0-32 0-64 0-99.2 6.4-9.6 3.2-16-12.8-16v0zM1046.4-32c0-12.8-3.2-16-16-16-35.2 0-73.6 0-108.8 0s-70.4 0-105.6 0c-12.8 0-16 3.2-16 16 0 35.2 0 67.2 0 102.4 0 12.8 3.2 16 16 16 70.4 0 144 0 214.4 0 12.8 0 16-3.2 16-16 0-32 0-67.2 0-102.4v0zM1030.4 102.4c-35.2 0-70.4 0-108.8 0-35.2 0-67.2 0-102.4 0-12.8 0-19.2 0-19.2 16 0 35.2 0 67.2 0 99.2 0 12.8 3.2 16 16 16 70.4 0 140.8 0 211.2 0 12.8 0 16-3.2 16-16 0-35.2 0-67.2 0-99.2 6.4-12.8 0-16-12.8-16zM803.2 371.2c0 12.8 3.2 16 12.8 16 35.2 0 70.4 0 108.8 0s70.4 0 108.8 0c12.8 0 16-3.2 16-12.8 0-35.2 0-67.2 0-102.4 0-12.8-3.2-16-12.8-16-70.4 0-144 0-214.4 0-12.8 0-16 3.2-16 12.8-3.2 32-3.2 67.2-3.2 102.4v0zM1030.4 403.2c-35.2 0-70.4 0-105.6 0s-67.2 0-102.4 0c-12.8 0-19.2 3.2-16 16 0 32 0 64 0 99.2 0 12.8 3.2 16 16 16 70.4 0 140.8 0 211.2 0 12.8 0 19.2-3.2 16-16 0-32 0-64 0-99.2 0-16-6.4-16-19.2-16v0zM1308.8 70.4c0-25.6 0-51.2 0-76.8s-12.8-38.4-38.4-38.4c-64 0-128 0-192 0-12.8 0-16 3.2-16 12.8 0 35.2 0 67.2 0 102.4 0 12.8 6.4 16 16 16 35.2 0 70.4 0 108.8 0 35.2 0 67.2 0 102.4 0 16 0 19.2-3.2 19.2-16z" />
<glyph unicode="&#xf244;" glyph-name="tag" d="M41.6 918.4h483.2l419.2-419.2c25.6-25.6 38.4-54.4 38.4-89.6s-12.8-67.2-38.4-89.6l-300.8-300.8c-25.6-25.6-54.4-38.4-89.6-38.4s-67.2 12.8-89.6 38.4l-422.4 416v483.2zM883.2 438.4l-393.6 393.6h-361.6v-361.6l393.6-393.6c9.6-9.6 19.2-12.8 28.8-12.8s22.4 3.2 28.8 12.8l300.8 300.8c9.6 9.6 12.8 19.2 12.8 28.8s0 22.4-9.6 32v0zM361.6 704c28.8 0 54.4-9.6 76.8-32s32-44.8 32-76.8c0-28.8-9.6-54.4-32-76.8-19.2-19.2-44.8-32-76.8-32-28.8 0-54.4 9.6-76.8 32-19.2 19.2-32 44.8-32 76.8 3.2 32 12.8 57.6 35.2 76.8s44.8 32 73.6 32zM361.6 617.6c-6.4 0-9.6-3.2-16-6.4-3.2-3.2-6.4-9.6-6.4-16s3.2-9.6 6.4-16c3.2-3.2 9.6-6.4 16-6.4s9.6 3.2 16 6.4c3.2 3.2 6.4 9.6 6.4 16s-3.2 9.6-6.4 16c-3.2 6.4-9.6 6.4-16 6.4z" />
<glyph unicode="&#xf245;" glyph-name="vertical-bar1" d="M512 960c-281.6 0-512-227.2-512-512 0-281.6 227.2-512 508.8-512 284.8 0 512 227.2 515.2 512 0 281.6-227.2 512-512 512zM512-38.4c-268.8 0-486.4 217.6-486.4 486.4s217.6 486.4 486.4 486.4c268.8 0 486.4-217.6 486.4-486.4s-217.6-486.4-486.4-486.4zM358.4 713.6c-25.6 0-51.2 0-73.6 0s-38.4-16-38.4-38.4c0-153.6 0-307.2 0-457.6 0-25.6 16-38.4 38.4-38.4s48 0 70.4 0c32 0 41.6 12.8 41.6 44.8 0 73.6 0 147.2 0 224s0 153.6 0 227.2c3.2 25.6-12.8 38.4-38.4 38.4zM374.4 230.4c0-25.6-3.2-28.8-28.8-28.8-16 0-35.2 0-51.2 0-19.2 0-25.6 6.4-25.6 25.6 0 60.8 0 121.6 0 182.4 0 83.2 0 166.4 0 249.6 0 25.6 3.2 28.8 28.8 28.8 16 0 32 0 51.2 0 22.4 0 25.6-3.2 25.6-25.6 0-73.6 0-144 0-217.6 0-70.4 0-140.8 0-214.4zM550.4 569.6c-25.6 0-51.2 0-76.8 0s-38.4-16-38.4-38.4c0-105.6 0-208 0-313.6 0-25.6 16-38.4 41.6-38.4 22.4 0 48 0 70.4 0 28.8 0 41.6 12.8 41.6 41.6 0 51.2 0 102.4 0 153.6s0 105.6 0 156.8c0 25.6-12.8 38.4-38.4 38.4zM563.2 224c0-16-6.4-22.4-22.4-22.4-19.2 0-38.4 0-54.4 0-22.4 0-25.6 3.2-25.6 25.6 0 48 0 96 0 147.2 0 48 0 96 0 144 0 22.4 3.2 25.6 25.6 25.6 19.2 0 38.4 0 54.4 0s22.4-6.4 22.4-22.4c0-96 0-195.2 0-297.6zM739.2 428.8c-25.6 0-51.2 0-73.6 0-25.6 0-38.4-12.8-38.4-38.4 0-28.8 0-54.4 0-83.2s0-57.6 0-86.4c0-25.6 16-38.4 38.4-38.4 25.6 0 51.2 0 73.6 0 25.6 0 38.4 12.8 38.4 38.4 0 57.6 0 115.2 0 169.6 0 22.4-12.8 38.4-38.4 38.4zM729.6 204.8c-19.2 0-38.4 0-57.6 0-16 0-22.4 6.4-22.4 22.4 0 51.2 0 105.6 0 156.8 0 16 6.4 22.4 22.4 22.4 19.2 0 41.6 0 60.8 0 16 0 22.4-6.4 22.4-22.4 0-25.6 0-51.2 0-80 0-25.6 0-51.2 0-76.8-3.2-16-9.6-22.4-25.6-22.4z" />
<glyph unicode="&#xf246;" glyph-name="vertical-bar2" d="M512 960c-281.6 0-512-227.2-512-512 0-281.6 227.2-512 512-512s512 227.2 512 512c0 281.6-230.4 512-512 512zM512-38.4c-268.8 0-486.4 217.6-486.4 486.4s217.6 486.4 486.4 486.4c268.8 0 486.4-217.6 486.4-486.4s-217.6-486.4-486.4-486.4zM361.6 713.6c-25.6 0-51.2 0-76.8 0-22.4 0-38.4-16-38.4-38.4 0-153.6 0-307.2 0-460.8 0-22.4 16-38.4 38.4-38.4s48 0 70.4 0c32 0 44.8 12.8 44.8 44.8 0 73.6 0 147.2 0 220.8 0 76.8 0 153.6 0 230.4 0 28.8-16 41.6-38.4 41.6zM374.4 393.6c0-54.4 0-108.8 0-163.2 0-22.4-3.2-25.6-25.6-25.6-19.2 0-35.2 0-54.4 0-16 0-22.4 6.4-22.4 22.4 0 112 0 224 0 336 0 9.6 3.2 9.6 9.6 9.6 25.6 0 54.4 0 80 0 9.6 0 12.8-3.2 12.8-12.8 0-57.6 0-112 0-166.4v0zM550.4 569.6c-25.6 0-51.2 0-76.8 0s-38.4-16-38.4-38.4c0-105.6 0-208 0-313.6 0-25.6 16-38.4 41.6-38.4 22.4 0 48 0 70.4 0 32 0 44.8 12.8 44.8 41.6 0 51.2 0 102.4 0 153.6s0 105.6 0 156.8c-3.2 25.6-16 38.4-41.6 38.4v0zM563.2 227.2c0-22.4-3.2-25.6-25.6-25.6-16 0-35.2 0-51.2 0-22.4 0-25.6 3.2-25.6 25.6 0 25.6 0 48 0 73.6s0 48 0 73.6c0 9.6 0 16 12.8 16 25.6 0 51.2 0 80 0 9.6 0 12.8-3.2 12.8-12.8-3.2-51.2-3.2-99.2-3.2-150.4v0zM777.6 390.4c0 25.6-16 38.4-38.4 38.4-25.6 0-51.2 0-76.8 0-22.4 0-38.4-16-38.4-38.4 0-57.6 0-115.2 0-172.8 0-25.6 16-38.4 38.4-38.4 25.6 0 51.2 0 73.6 0 25.6 0 38.4 12.8 38.4 38.4 0 28.8 0 54.4 0 83.2 3.2 32 3.2 60.8 3.2 89.6v0zM752 224c0-12.8-6.4-22.4-19.2-22.4-22.4 0-41.6 0-64 0-12.8 0-22.4 6.4-22.4 22.4 0 19.2 0 38.4 0 54.4v0c0 19.2 0 35.2 0 54.4 0 6.4 3.2 9.6 9.6 9.6 28.8 0 54.4 0 83.2 0 6.4 0 9.6-3.2 9.6-9.6 3.2-35.2 3.2-73.6 3.2-108.8v0z" />
<glyph unicode="&#xf247;" glyph-name="vertical-bar3" d="M515.2 960c-284.8 0-515.2-227.2-515.2-512 0-281.6 227.2-512 512-512 281.6 0 512 227.2 512 512s-227.2 512-508.8 512zM512-38.4c-268.8 0-486.4 217.6-486.4 486.4s217.6 486.4 486.4 486.4c268.8 0 486.4-217.6 486.4-486.4s-217.6-486.4-486.4-486.4zM550.4 713.6c-25.6 0-51.2 0-76.8 0-22.4 0-38.4-16-38.4-38.4 0-153.6 0-307.2 0-460.8 0-22.4 16-38.4 38.4-38.4s48 0 70.4 0c32 0 44.8 12.8 44.8 44.8 0 73.6 0 147.2 0 220.8 0 76.8 0 153.6 0 230.4 0 25.6-12.8 41.6-38.4 41.6zM563.2 342.4c0-38.4 0-73.6 0-112 0-22.4-3.2-25.6-25.6-25.6-19.2 0-38.4 0-57.6 0-16 0-22.4 6.4-22.4 22.4 0 76.8 0 153.6 0 230.4 0 9.6 6.4 9.6 12.8 9.6 25.6 0 51.2 0 80 0 9.6 0 12.8-3.2 12.8-12.8 0-38.4 0-73.6 0-112v0zM739.2 713.6c-25.6 0-51.2 0-76.8 0-22.4 0-38.4-16-38.4-38.4 0-153.6 0-307.2 0-457.6 0-25.6 16-38.4 38.4-38.4s48 0 70.4 0c28.8 0 41.6 12.8 41.6 44.8 0 73.6 0 147.2 0 224s0 153.6 0 227.2c3.2 25.6-9.6 38.4-35.2 38.4v0zM752 227.2c0-16-6.4-22.4-22.4-22.4-19.2 0-38.4 0-57.6 0-16 0-22.4 6.4-22.4 22.4 0 48 0 99.2 0 147.2s0 96 0 147.2c0 12.8 3.2 16 16 16 25.6 0 51.2 0 76.8 0 9.6 0 12.8 0 12.8-9.6-3.2-102.4-3.2-201.6-3.2-300.8v0zM358.4 713.6c-22.4 0-48 0-70.4 0-32 0-44.8-12.8-44.8-41.6 0-73.6 0-150.4 0-224s0-147.2 0-220.8c0-35.2 12.8-48 48-48 22.4 0 44.8 0 67.2 0 25.6 0 41.6 12.8 41.6 38.4 0 153.6 0 304 0 457.6 0 25.6-16 38.4-41.6 38.4v0zM374.4 227.2c0-16-6.4-22.4-22.4-22.4-19.2 0-38.4 0-54.4 0-22.4 0-25.6 3.2-25.6 25.6 0 54.4 0 108.8 0 163.2s0 108.8 0 163.2c0 9.6 3.2 16 16 16 25.6 0 51.2 0 80 0 9.6 0 9.6-3.2 9.6-9.6-3.2-115.2-3.2-227.2-3.2-336v0z" />
</font>
</defs>
</svg>
