<?xml version="1.0" encoding="utf-8"?>
<!-- Generator: Adobe Illustrator 23.0.3, SVG Export Plug-In . SVG Version: 6.00 Build 0)  -->
<svg version="1.1" id="Layer_1" xmlns="http://www.w3.org/2000/svg" xmlns:xlink="http://www.w3.org/1999/xlink" x="0px" y="0px"
	 viewBox="0 0 298 123.5" style="enable-background:new 0 0 298 123.5;" xml:space="preserve">
<title>tagEmt</title>
<g>
	<g id="Layer_1-2">
		<path style="opacity:0.25;fill:#E5E5E5;enable-background:new    ;" d="M288.2,78.1H211c-1.9-2.6-2.1-5.1-0.7-7.7h44
			c5.3,0,9.6-4.3,9.6-9.6l0,0c0-5.3-4.3-9.6-9.6-9.6l0,0H134.7c-1.8-2.7-1.7-5.4,0.2-8.2h40.7c5.3,0,9.6-4.3,9.6-9.6c0,0,0,0,0,0
			l0,0c0-5.3-4.3-9.6-9.6-9.6l0,0H9.6c-5.3,0-9.6,4.3-9.6,9.6c0,0,0,0,0,0l0,0C0,38.7,4.3,43,9.6,43c0,0,0,0,0,0h59.7
			c1.6,2.5,1.7,5.6,0.2,8.2H34.7c-5.3,0-9.6,4.3-9.6,9.6c0,0,0,0,0,0l0,0c0,5.3,4.3,9.6,9.6,9.6h111.2c1.2,2.5,1,5.4-0.6,7.7H63
			c-5.3,0-9.6,4.3-9.6,9.6l0,0c0,5.3,4.3,9.6,9.6,9.6h72c1.1,2.2,1.1,4.8,0,7h-32.6c-5.3,0-9.6,4.3-9.6,9.6c0,5.3,4.3,9.6,9.6,9.6
			l0,0h114.5c5.3,0,9.6-4.3,9.6-9.6c0-5.3-4.3-9.6-9.6-9.6h-17.2c-1.4-2.1-1.4-4.9,0-7h88.7c5.3,0,9.6-4.3,9.6-9.6c0,0,0,0,0,0l0,0
			C297.9,82.3,293.6,78,288.2,78.1z"/>
		
			<polygon style="opacity:0.7;fill:none;stroke:#DADADA;stroke-width:0.75;stroke-miterlimit:10;enable-background:new    ;" points="
			76.5,70.5 79.3,70.8 77.4,72.8 77.9,75.5 75.4,74.3 73,75.7 73.4,73 71.4,71.1 74.1,70.6 75.2,68.1 		"/>
		<g style="opacity:0.7;">
			
				<circle style="fill:none;stroke:#DADADA;stroke-width:0.75;stroke-miterlimit:10;stroke-dasharray:0.97,0.97;" cx="66.6" cy="22.8" r="4.3"/>
		</g>
		
			<polygon style="opacity:0.7;fill:none;stroke:#DADADA;stroke-width:0.75;stroke-miterlimit:10;enable-background:new    ;" points="
			139.2,17.3 141.2,17.5 139.8,18.9 140.2,20.9 138.5,20 136.7,21 137,19 135.6,17.7 137.5,17.4 138.3,15.6 		"/>
		
			<polygon style="opacity:0.7;fill:none;stroke:#DADADA;stroke-width:0.75;stroke-miterlimit:10;enable-background:new    ;" points="
			215.1,2.6 217.1,2.9 215.7,4.3 216.1,6.2 214.4,5.4 212.6,6.3 212.9,4.4 211.5,3 213.4,2.7 214.2,0.9 		"/>
		<g style="opacity:0.7;">
			<path style="opacity:0.7;fill:#FFFFFF;enable-background:new    ;" d="M152,109.6l-30.5-9.2c-2.8-0.9-4.4-3.9-3.6-6.7l13.7-45.2
				c0.4-1.4,1.4-2.6,2.8-3.3l19.3-9.6c2.6-1.3,5.8-0.4,7.2,2.2l10.8,18.7c0.8,1.3,1,2.9,0.5,4.4l-13.7,45.2
				c-0.7,2.7-3.5,4.3-6.2,3.6C152.2,109.6,152.1,109.6,152,109.6z"/>
			<path style="opacity:0.7;fill:#FFFFFF;enable-background:new    ;" d="M172,108.6l-7.3-0.1l12.4-41.1l-0.5,36.7
				C176.6,106.6,174.5,108.6,172,108.6z"/>
		</g>
		<circle style="fill:#FFFFFF;" cx="151.7" cy="46.2" r="5.3"/>
		
			<circle style="opacity:0.4;fill:none;stroke:#808080;stroke-linecap:round;stroke-linejoin:round;enable-background:new    ;" cx="154.4" cy="46.2" r="5.3"/>
		<path style="opacity:0.4;fill:none;stroke:#808080;stroke-linecap:round;stroke-linejoin:round;enable-background:new    ;" d="
			M155.2,93.2l-2.5,8.3"/>
		
			<line style="opacity:0.4;fill:none;stroke:#808080;stroke-linecap:round;stroke-linejoin:round;enable-background:new    ;" x1="156.2" y1="89.6" x2="156.1" y2="90"/>
		
			<line style="opacity:0.4;fill:none;stroke:#808080;stroke-linecap:round;stroke-linejoin:round;enable-background:new    ;" x1="159.8" y1="78" x2="157.2" y2="86.4"/>
		<g style="opacity:0.4;">
			<path style="fill:none;stroke:#808080;stroke-linecap:round;stroke-linejoin:round;" d="M125.2,64l5.3-17.5
				c0.4-1.6,1.6-2.9,3.1-3.6l20.7-10.3c2.8-1.4,6.2-0.4,7.7,2.4l11.6,20c0.9,1.4,1,3.1,0.5,4.7l-14.7,48.5c-0.9,3-4.1,4.8-7.1,3.9
				l-32.7-9.9c-3-0.9-4.8-4.1-3.9-7.1l5.8-19.1"/>
			<line style="fill:none;stroke:#808080;stroke-linecap:round;stroke-linejoin:round;" x1="122.6" y1="72.5" x2="124" y2="68"/>
			<path style="fill:none;stroke:#808080;stroke-linecap:round;stroke-linejoin:round;" d="M171.9,109.8l-9-0.1l15.5-51.4l-0.6,45.8
				C177.7,107.3,175.1,109.8,171.9,109.8C171.9,109.8,171.9,109.8,171.9,109.8z"/>
			<path style="fill:none;stroke:#808080;stroke-linecap:round;stroke-linejoin:round;" d="M157.9,42.4c-2.4,1.3-0.8,2.3-0.8,2.3
				s3.9,3,15.3-10.9s23.2-5.3,23.2-5.3s13,10.8,5.6,18.7c-1.4,1.5-3.7,1.8-5.4,0.7c-2.8-1.9-5.3-4.3-7.3-7.1c-6.1-8.1-12.9-4-12.9-4
				"/>
		</g>
	</g>
</g>
</svg>
