<?xml version="1.0" encoding="utf-8"?>
<!-- Generator: Adobe Illustrator 23.0.3, SVG Export Plug-In . SVG Version: 6.00 Build 0)  -->
<svg version="1.1" id="Layer_1" xmlns="http://www.w3.org/2000/svg" xmlns:xlink="http://www.w3.org/1999/xlink" x="0px" y="0px"
	 viewBox="0 0 298 123.4" style="enable-background:new 0 0 298 123.4;" xml:space="preserve">
<title>teamEmt</title>
<g>
	<g id="Layer_1-2">
		<path style="opacity:0.25;fill:#E5E5E5;enable-background:new    ;" d="M288.1,78h-77.2c-1.9-2.6-2.1-5.1-0.7-7.7h44
			c5.3,0,9.6-4.3,9.6-9.6l0,0c0-5.3-4.3-9.6-9.6-9.6l0,0H134.6c-1.8-2.7-1.7-5.4,0.2-8.2h40.7c5.3,0,9.6-4.3,9.6-9.6c0,0,0,0,0,0
			l0,0c0-5.3-4.3-9.6-9.6-9.6l0,0H9.6C4.3,23.7,0,28,0,33.3c0,0,0,0,0,0l0,0c0,5.3,4.3,9.6,9.6,9.6h59.7c1.6,2.5,1.7,5.6,0.2,8.2
			H34.7c-5.3,0-9.6,4.3-9.6,9.6c0,0,0,0,0,0l0,0c0,5.3,4.3,9.6,9.6,9.6h111.2c1.2,2.5,1,5.4-0.6,7.7H63c-5.3,0-9.6,4.3-9.6,9.6l0,0
			c0,5.3,4.3,9.6,9.6,9.6h72c1.1,2.2,1.1,4.8,0,7h-32.6c-5.3,0-9.6,4.3-9.6,9.6c0,5.3,4.3,9.6,9.6,9.6l0,0h114.5
			c5.3,0,9.6-4.3,9.6-9.6c0-5.3-4.3-9.6-9.6-9.6h-17.2c-1.4-2.1-1.4-4.9,0-7h88.7c5.3,0,9.6-4.3,9.6-9.6c0,0,0,0,0,0l0,0
			C297.8,82.3,293.5,78,288.1,78z"/>
		
			<polygon style="opacity:0.7;fill:none;stroke:#DADADA;stroke-width:0.75;stroke-miterlimit:10;enable-background:new    ;" points="
			76.4,70.4 79.2,70.7 77.3,72.7 77.8,75.4 75.3,74.2 72.9,75.6 73.3,72.9 71.3,71 74,70.5 75.1,68 		"/>
		
			<circle style="fill:none;stroke:#DADADA;stroke-width:0.75;stroke-miterlimit:10;stroke-dasharray:0.97,0.97;" cx="66.5" cy="22.7" r="4.3"/>
		
			<circle style="fill:none;stroke:#DADADA;stroke-width:0.75;stroke-miterlimit:10;stroke-dasharray:1.01,1.01;" cx="264.7" cy="55.3" r="8"/>
		
			<circle style="fill:none;stroke:#DADADA;stroke-width:0.75;stroke-miterlimit:10;stroke-dasharray:1.03,1.03;" cx="192.3" cy="117.7" r="4.3"/>
		
			<polygon style="opacity:0.7;fill:none;stroke:#DADADA;stroke-width:0.75;stroke-miterlimit:10;enable-background:new    ;" points="
			139.2,17.2 141.1,17.4 139.7,18.8 140.1,20.8 138.4,19.9 136.7,20.9 136.9,18.9 135.5,17.6 137.4,17.3 138.2,15.5 		"/>
		
			<polygon style="opacity:0.7;fill:none;stroke:#DADADA;stroke-width:0.75;stroke-miterlimit:10;enable-background:new    ;" points="
			215.1,2.5 217,2.8 215.6,4.2 216,6.1 214.3,5.3 212.6,6.2 212.8,4.3 211.4,2.9 213.3,2.6 214.1,0.8 		"/>
		
			<line style="opacity:0.4;fill:none;stroke:#808080;stroke-linecap:round;stroke-linejoin:round;enable-background:new    ;" x1="136.1" y1="85.9" x2="149" y2="92.5"/>
		
			<line style="opacity:0.4;fill:none;stroke:#808080;stroke-linecap:round;stroke-linejoin:round;enable-background:new    ;" x1="136.1" y1="67.7" x2="147.7" y2="59.9"/>
		<polygon style="opacity:0.6;fill:#D6D6D6;enable-background:new    ;" points="163.4,36.5 151,43.7 151.1,58 163.5,65.1 
			175.9,57.9 175.8,43.6 		"/>
		
			<polygon style="opacity:0.4;fill:none;stroke:#808080;stroke-linecap:round;stroke-linejoin:round;enable-background:new    ;" points="
			163.4,32.6 147.6,41.7 147.7,59.9 163.5,69 179.2,59.8 179.2,41.6 		"/>
		<path style="fill:#FFFFFF;" d="M159.5,59.2L159.5,59.2c-2.4,0-4.3-1.9-4.3-4.3c0,0,0-0.1,0-0.1l0,0v-4.2h4.3V59.2z"/>
		<path style="opacity:0.6;fill:none;stroke:#808080;stroke-width:0.5;stroke-miterlimit:10;enable-background:new    ;" d="
			M159.5,59.2L159.5,59.2c-2.4,0-4.3-1.9-4.3-4.3c0,0,0-0.1,0-0.1l0,0v-4.2h4.3V59.2z"/>
		<path style="fill:#FFFFFF;" d="M167.5,50.7h4.3v4.2c0,2.4-1.9,4.3-4.2,4.3c0,0,0,0-0.1,0l0,0V50.7z"/>
		<path style="opacity:0.6;fill:none;stroke:#808080;stroke-width:0.5;stroke-miterlimit:10;enable-background:new    ;" d="
			M167.5,50.7h4.3v4.2c0,2.4-1.9,4.3-4.2,4.3c0,0,0,0-0.1,0l0,0V50.7z"/>
		<rect x="161.3" y="47.9" style="fill:#FFFFFF;" width="4.3" height="11.3"/>
		
			<rect x="161.3" y="47.9" style="opacity:0.6;fill:none;stroke:#808080;stroke-width:0.5;stroke-miterlimit:10;enable-background:new    ;" width="4.3" height="11.3"/>
		<circle style="fill:#FFFFFF;" cx="163.4" cy="44.6" r="2.2"/>
		<circle style="fill:#FFFFFF;" cx="169.6" cy="47.1" r="2.2"/>
		<circle style="fill:#FFFFFF;" cx="157.3" cy="47.1" r="2.2"/>
		
			<circle style="opacity:0.6;fill:none;stroke:#808080;stroke-width:0.5;stroke-miterlimit:10;enable-background:new    ;" cx="163.4" cy="44.6" r="2.2"/>
		
			<circle style="opacity:0.6;fill:none;stroke:#808080;stroke-width:0.5;stroke-miterlimit:10;enable-background:new    ;" cx="169.6" cy="47.1" r="2.2"/>
		
			<circle style="opacity:0.6;fill:none;stroke:#808080;stroke-width:0.5;stroke-miterlimit:10;enable-background:new    ;" cx="157.3" cy="47.1" r="2.2"/>
		<polygon style="opacity:0.6;fill:#D6D6D6;enable-background:new    ;" points="119.8,62.6 107.4,69.8 107.5,84.1 119.9,91.2 
			132.3,84 132.2,69.7 		"/>
		
			<polygon style="opacity:0.4;fill:none;stroke:#808080;stroke-linecap:round;stroke-linejoin:round;enable-background:new    ;" points="
			119.8,58.7 104,67.8 104.1,86 119.9,95.1 135.6,85.9 135.6,67.7 		"/>
		<path style="fill:#FFFFFF;" d="M115.8,85.2L115.8,85.2c-2.4,0-4.3-1.9-4.3-4.3c0,0,0-0.1,0-0.1l0,0v-4.2h4.3V85.2z"/>
		<path style="opacity:0.6;fill:none;stroke:#808080;stroke-width:0.5;stroke-miterlimit:10;enable-background:new    ;" d="
			M115.8,85.2L115.8,85.2c-2.4,0-4.3-1.9-4.3-4.3c0,0,0-0.1,0-0.1l0,0v-4.2h4.3V85.2z"/>
		<path style="fill:#FFFFFF;" d="M123.9,76.7h4.3v4.2c0,2.4-1.9,4.3-4.2,4.3c0,0,0,0-0.1,0l0,0L123.9,76.7z"/>
		<path style="opacity:0.6;fill:none;stroke:#808080;stroke-width:0.5;stroke-miterlimit:10;enable-background:new    ;" d="
			M123.9,76.7h4.3v4.2c0,2.4-1.9,4.3-4.2,4.3c0,0,0,0-0.1,0l0,0L123.9,76.7z"/>
		<rect x="117.6" y="74" style="fill:#FFFFFF;" width="4.3" height="11.3"/>
		
			<rect x="117.6" y="74" style="opacity:0.6;fill:none;stroke:#808080;stroke-width:0.5;stroke-miterlimit:10;enable-background:new    ;" width="4.3" height="11.3"/>
		<circle style="fill:#FFFFFF;" cx="119.7" cy="70.6" r="2.2"/>
		<circle style="fill:#FFFFFF;" cx="126" cy="73.1" r="2.2"/>
		<circle style="fill:#FFFFFF;" cx="113.6" cy="73.1" r="2.2"/>
		
			<circle style="opacity:0.6;fill:none;stroke:#808080;stroke-width:0.5;stroke-miterlimit:10;enable-background:new    ;" cx="119.7" cy="70.6" r="2.2"/>
		
			<circle style="opacity:0.6;fill:none;stroke:#808080;stroke-width:0.5;stroke-miterlimit:10;enable-background:new    ;" cx="126" cy="73.1" r="2.2"/>
		
			<circle style="opacity:0.6;fill:none;stroke:#808080;stroke-width:0.5;stroke-miterlimit:10;enable-background:new    ;" cx="113.6" cy="73.1" r="2.2"/>
		<polygon style="opacity:0.6;fill:#D6D6D6;enable-background:new    ;" points="164.8,87.3 152.4,94.5 152.5,108.8 164.9,115.9 
			177.3,108.7 177.2,94.4 		"/>
		
			<polygon style="opacity:0.4;fill:none;stroke:#808080;stroke-linecap:round;stroke-linejoin:round;enable-background:new    ;" points="
			164.8,83.4 149,92.5 149.1,110.7 164.9,119.8 180.6,110.6 180.6,92.4 		"/>
		<path style="fill:#FFFFFF;" d="M160.9,110L160.9,110c-2.4,0-4.3-1.9-4.3-4.3c0,0,0-0.1,0-0.1l0,0v-4.2h4.3V110z"/>
		<path style="opacity:0.6;fill:none;stroke:#808080;stroke-width:0.5;stroke-miterlimit:10;enable-background:new    ;" d="
			M160.9,110L160.9,110c-2.4,0-4.3-1.9-4.3-4.3c0,0,0-0.1,0-0.1l0,0v-4.2h4.3V110z"/>
		<path style="fill:#FFFFFF;" d="M168.9,101.5h4.3v4.2c0,2.4-1.9,4.3-4.2,4.3c0,0,0,0-0.1,0l0,0V101.5z"/>
		<path style="opacity:0.6;fill:none;stroke:#808080;stroke-width:0.5;stroke-miterlimit:10;enable-background:new    ;" d="
			M168.9,101.5h4.3v4.2c0,2.4-1.9,4.3-4.2,4.3c0,0,0,0-0.1,0l0,0V101.5z"/>
		<rect x="162.7" y="98.7" style="fill:#FFFFFF;" width="4.3" height="11.3"/>
		
			<rect x="162.7" y="98.7" style="opacity:0.6;fill:none;stroke:#808080;stroke-width:0.5;stroke-miterlimit:10;enable-background:new    ;" width="4.3" height="11.3"/>
		<circle style="fill:#FFFFFF;" cx="164.8" cy="95.4" r="2.2"/>
		<circle style="fill:#FFFFFF;" cx="171" cy="97.9" r="2.2"/>
		<circle style="fill:#FFFFFF;" cx="158.7" cy="97.9" r="2.2"/>
		
			<circle style="opacity:0.6;fill:none;stroke:#808080;stroke-width:0.5;stroke-miterlimit:10;enable-background:new    ;" cx="164.8" cy="95.4" r="2.2"/>
		
			<circle style="opacity:0.6;fill:none;stroke:#808080;stroke-width:0.5;stroke-miterlimit:10;enable-background:new    ;" cx="171" cy="97.9" r="2.2"/>
		
			<circle style="opacity:0.6;fill:none;stroke:#808080;stroke-width:0.5;stroke-miterlimit:10;enable-background:new    ;" cx="158.7" cy="97.9" r="2.2"/>
	</g>
</g>
</svg>
