<?xml version="1.0" encoding="utf-8"?>
<!-- Generator: Adobe Illustrator 23.0.3, SVG Export Plug-In . SVG Version: 6.00 Build 0)  -->
<svg version="1.1" id="Layer_1" xmlns="http://www.w3.org/2000/svg" xmlns:xlink="http://www.w3.org/1999/xlink" x="0px" y="0px"
	 viewBox="0 0 298 123.5" style="enable-background:new 0 0 298 123.5;" xml:space="preserve">
<title>invoiceEmt</title>
<g>
	<g id="Layer_1-2">
		<path style="opacity:0.25;fill:#E5E5E5;enable-background:new    ;" d="M288.2,78.1H211c-1.9-2.6-2.1-5.1-0.7-7.7h44
			c5.3,0,9.6-4.3,9.6-9.6l0,0c0-5.3-4.3-9.6-9.6-9.6l0,0H134.7c-1.8-2.7-1.7-5.4,0.2-8.2h40.7c5.3,0,9.6-4.3,9.6-9.6c0,0,0,0,0,0
			l0,0c0-5.3-4.3-9.6-9.6-9.6l0,0H9.6c-5.3,0-9.6,4.3-9.6,9.6c0,0,0,0,0,0l0,0C0,38.7,4.3,43,9.6,43c0,0,0,0,0,0h59.7
			c1.6,2.5,1.7,5.6,0.2,8.2H34.7c-5.3,0-9.6,4.3-9.6,9.6c0,0,0,0,0,0l0,0c0,5.3,4.3,9.6,9.6,9.6h111.2c1.2,2.5,1,5.4-0.6,7.7H63
			c-5.3,0-9.6,4.3-9.6,9.6l0,0c0,5.3,4.3,9.6,9.6,9.6h72c1.1,2.2,1.1,4.8,0,7h-32.6c-5.3,0-9.6,4.3-9.6,9.6c0,5.3,4.3,9.6,9.6,9.6
			l0,0h114.5c5.3,0,9.6-4.3,9.6-9.6c0-5.3-4.3-9.6-9.6-9.6h-17.2c-1.4-2.1-1.4-4.9,0-7h88.7c5.3,0,9.6-4.3,9.6-9.6c0,0,0,0,0,0l0,0
			C297.9,82.3,293.6,78,288.2,78.1z"/>
		
			<polygon style="opacity:0.7;fill:none;stroke:#D9D9D9;stroke-width:0.75;stroke-miterlimit:10;enable-background:new    ;" points="
			76.5,70.5 79.3,70.8 77.4,72.8 77.9,75.5 75.4,74.3 73,75.7 73.4,73 71.4,71.1 74.1,70.6 75.2,68.1 		"/>
		<g style="opacity:0.7;">
			
				<circle style="fill:none;stroke:#D9D9D9;stroke-width:0.75;stroke-miterlimit:10;stroke-dasharray:0.97,0.97;" cx="66.8" cy="22.7" r="4.3"/>
		</g>
		<g style="opacity:0.7;">
			
				<circle style="fill:none;stroke:#D9D9D9;stroke-width:0.75;stroke-miterlimit:10;stroke-dasharray:1.03,1.03;" cx="192.3" cy="117.8" r="4.3"/>
		</g>
		
			<polygon style="opacity:0.7;fill:none;stroke:#D9D9D9;stroke-width:0.75;stroke-miterlimit:10;enable-background:new    ;" points="
			139.2,17.3 141.2,17.5 139.8,18.9 140.2,20.9 138.5,20 136.7,21 137,19 135.6,17.7 137.5,17.4 138.3,15.6 		"/>
		
			<polygon style="opacity:0.7;fill:none;stroke:#D9D9D9;stroke-width:0.75;stroke-miterlimit:10;enable-background:new    ;" points="
			215.1,2.6 217.1,2.9 215.7,4.3 216.1,6.2 214.4,5.4 212.6,6.3 212.9,4.4 211.5,3 213.4,2.7 214.2,0.9 		"/>
		<g style="opacity:0.7;">
			
				<circle style="fill:none;stroke:#D9D9D9;stroke-width:0.75;stroke-miterlimit:10;stroke-dasharray:1.01,1.01;" cx="260.9" cy="54.3" r="8"/>
		</g>
		<g style="opacity:0.1;">
			<path style="fill:none;stroke:#919191;stroke-width:1.03;stroke-linecap:round;stroke-linejoin:round;" d="M162.7,102v16.7
				l-11.5-9.7l-7.5,9.7l-8.9-8.8l-9.3,8.8l-9.3-8.1l-8,8.1V46.8c0-3.3-2.4-6.1-5.3-6.1l0,0c-2.9,0-5.3,2.7-5.3,6.1v45
				c0,3.3-2.7,6.1-6,6.1c0,0-0.1,0-0.1,0l0,0c-3.3,0-6.1-2.7-6.1-6c0,0,0-0.1,0-0.1"/>
			<path style="fill:none;stroke:#919191;stroke-width:1.03;stroke-linecap:round;stroke-linejoin:round;" d="M102.9,40.6h53.8
				c3.3,0,6.1,2.7,6.1,6c0,0,0,0.1,0,0.1v4.2"/>
			
				<line style="fill:none;stroke:#919191;stroke-width:1.03;stroke-linecap:round;stroke-linejoin:round;" x1="91.5" y1="97.9" x2="108.2" y2="97.9"/>
			
				<circle style="fill:none;stroke:#919191;stroke-width:1.03;stroke-linecap:round;stroke-linejoin:round;" cx="162.7" cy="69.8" r="16.2"/>
			<path style="fill:none;stroke:#919191;stroke-width:1.03;stroke-linecap:round;stroke-linejoin:round;" d="M162.7,81.8
				c-6.6,0-11.9-5.3-11.9-11.9S156.1,58,162.7,58s11.9,5.3,11.9,11.9l0,0l0,0C174.5,76.4,169.2,81.7,162.7,81.8z"/>
			<path style="fill:none;stroke:#919191;stroke-width:1.03;stroke-linecap:round;stroke-linejoin:round;" d="M167.4,72.9
				c0.1-1-0.3-1.9-1-2.6c-0.9-0.6-1.9-1.1-3-1.3c-0.9-0.2-1.7-0.5-2.5-0.9c-0.3-0.3-0.5-0.7-0.5-1.1c0-0.5,0.2-1,0.7-1.3
				c0.5-0.3,1.1-0.4,1.7-0.4c1.5,0,2.3,0.6,2.4,1.8c0.6,0.7,1.3,0.6,2,0c-0.1-2.2-1.3-3.4-3.6-3.6v-2.4c0-0.4-0.4-0.8-0.8-0.8
				s-0.8,0.4-0.8,0.8l0,0v2.3c-0.9,0.1-1.7,0.4-2.3,1c-0.8,0.7-1.2,1.7-1.1,2.7c-0.1,0.9,0.2,1.9,0.9,2.5c0.9,0.6,1.9,1,2.9,1.3
				c0.9,0.2,1.8,0.5,2.6,0.9c0.4,0.3,0.6,0.7,0.6,1.2c0,0.6-0.2,1.1-0.6,1.5c-0.5,0.4-1.2,0.6-1.9,0.6c-1.8,0-2.8-0.8-2.8-2.4
				c-0.5-0.6-1.3-0.6-1.8-0.2c0,0,0,0-0.1,0.1l-0.1,0.1c-0.1,2.1,1.5,3.9,3.6,4.1h0.1v2.5c0,0.4,0.4,0.8,0.8,0.8s0.8-0.4,0.8-0.8
				v-2.4c1-0.1,2-0.5,2.8-1.1C167.1,74.9,167.4,73.9,167.4,72.9z"/>
			<polyline style="fill:none;stroke:#919191;stroke-width:1.03;stroke-linecap:round;stroke-linejoin:round;" points="154.1,83.5 
				146.5,103.7 152.3,101.3 154.9,105.6 162.7,86.1 			"/>
			<polyline style="fill:none;stroke:#919191;stroke-width:1.03;stroke-linecap:round;stroke-linejoin:round;" points="170.6,84 
				177.9,103.7 172.1,101.3 169.5,105.6 161.7,86.1 			"/>
			
				<line style="fill:none;stroke:#919191;stroke-width:1.03;stroke-linecap:round;stroke-linejoin:round;" x1="119.4" y1="59.1" x2="147" y2="59.1"/>
			
				<line style="fill:none;stroke:#919191;stroke-width:1.03;stroke-linecap:round;stroke-linejoin:round;" x1="119.4" y1="67.1" x2="137" y2="67.1"/>
			
				<line style="fill:none;stroke:#919191;stroke-width:1.03;stroke-linecap:round;stroke-linejoin:round;" x1="119.4" y1="74.1" x2="127" y2="74.1"/>
		</g>
	</g>
</g>
</svg>
