<?xml version="1.0" encoding="utf-8"?>
<!-- Generator: Adobe Illustrator 21.0.2, SVG Export Plug-In . SVG Version: 6.00 Build 0)  -->
<svg version="1.1" id="Layer_1" xmlns="http://www.w3.org/2000/svg" xmlns:xlink="http://www.w3.org/1999/xlink" x="0px" y="0px"
	 viewBox="0 0 350 350" style="enable-background:new 0 0 350 350;" xml:space="preserve">
<style type="text/css">
	.st0{fill:#FFD15C;stroke:#334A5E;stroke-width:1.5;stroke-linejoin:round;stroke-miterlimit:10;}
	.st1{fill:#777777;}
	.st2{fill:#F7F7F7;}
	.st3{fill:#656566;}
	.st4{fill:#EDEDED;}
	.st5{fill:#333333;}
	.st6{fill-rule:evenodd;clip-rule:evenodd;fill:#777777;}
	.st7{fill:#F7F8F9;}
	.st8{fill:none;stroke:#AAAAAA;stroke-miterlimit:10;}
	.st9{fill:#0084B4;}
	.st10{fill:#657786;}
	.st11{fill:none;stroke:#CED7DF;stroke-miterlimit:10;}
	.st12{fill:none;stroke:#F7F8F9;stroke-width:9;stroke-miterlimit:10;}
	.st13{fill:none;stroke:#E6ECF0;stroke-width:0.75;stroke-miterlimit:10;}
	.st14{fill:#FFFFFF;}
	.st15{fill:#E5E8EA;}
	.st16{fill:#AAAAAA;}
	.st17{fill:#A6A6A6;}
	.st18{fill:none;stroke:#E2E2E2;stroke-width:0.75;stroke-miterlimit:10;}
	.st19{fill:#1DA1F2;}
	.st20{opacity:0.6;}
	.st21{fill:#FFF8EB;stroke:#FFE3AB;stroke-miterlimit:10;}
	.st22{fill:#EA7A42;}
	.st23{fill:#272C32;}
	.st24{fill:#52555A;}
	.st25{opacity:0.29;fill:none;stroke:#000000;stroke-width:0.75;stroke-miterlimit:10;}
	.st26{fill:none;stroke:#FFFFFF;stroke-linecap:round;stroke-miterlimit:10;}
	.st27{fill:#66727D;}
	.st28{fill:#64CD62;}
	.st29{opacity:0.39;fill:#C3E281;}
	.st30{fill:#2E332E;}
	.st31{fill:url(#SVGID_1_);}
	.st32{fill:url(#SVGID_2_);}
	.st33{fill:url(#SVGID_3_);}
	.st34{fill:url(#SVGID_4_);}
	.st35{fill:#0D9548;}
	.st36{fill:#B9D03D;}
	.st37{fill:#F5D5B4;}
	.st38{fill:#00578E;}
	.st39{fill:#C1DFF3;}
	.st40{fill:#80BAE5;}
	.st41{fill:#D42044;}
	.st42{fill:#CCCCCC;}
	.st43{fill:#EBECED;}
	.st44{fill:none;stroke:#EBECED;stroke-width:8;stroke-miterlimit:10;}
	.st45{fill:none;stroke:#EBECED;stroke-width:4;stroke-miterlimit:10;}
	.st46{fill:none;stroke:#EBECED;stroke-width:6;stroke-miterlimit:10;}
	.st47{fill:none;stroke:#E6ECF0;stroke-miterlimit:10;}
	.st48{fill:#3BC46A;}
	.st49{fill:#4278E7;}
	.st50{fill:url(#SVGID_5_);}
	.st51{fill:url(#SVGID_6_);}
	.st52{fill:url(#SVGID_7_);}
	.st53{fill:url(#SVGID_8_);}
	.st54{fill:#334A5E;}
	.st55{fill:#E4ECEF;}
	.st56{fill:#F2869B;}
	.st57{fill:#AECBF4;}
	.st58{fill:#D1DBE0;}
	.st59{fill:#B3C1C6;}
	.st60{fill:#82D6F4;}
	.st61{fill:#76A9EA;}
	.st62{fill:#86C489;}
	.st63{fill:#55CEA5;}
	.st64{fill:#FFD15C;}
	.st65{fill:#FFD15C;stroke:#334A5E;stroke-width:3;stroke-miterlimit:10;}
	.st66{fill:#867AB9;}
	.st67{fill:#867AB9;stroke:#334A5E;stroke-width:3;stroke-miterlimit:10;}
	.st68{fill:none;stroke:#D1DBE0;stroke-miterlimit:10;stroke-dasharray:4,2;}
	.st69{fill:#00A3FE;}
	.st70{fill:url(#SVGID_9_);}
	.st71{fill:url(#SVGID_10_);}
	.st72{fill:url(#SVGID_11_);}
	.st73{fill:url(#SVGID_12_);}
	.st74{fill:none;stroke:#E2E2E2;stroke-width:0.75;stroke-miterlimit:10;stroke-dasharray:2.0098,2.0098;}
	.st75{fill:#FFFFFF;stroke:#334A5E;stroke-width:1.5;stroke-miterlimit:10;}
	.st76{fill:#B1D573;}
	.st77{fill:none;stroke:#334A5E;stroke-linecap:round;stroke-miterlimit:10;}
	.st78{fill:#EEF6FF;}
	.st79{fill:#2A445E;}
	.st80{fill:#20364D;}
	.st81{fill:#1E3344;}
	.st82{fill:#F0F7FC;}
	.st83{fill:#90B3AF;}
	.st84{fill:#C1F4C1;}
	.st85{fill:none;stroke:#DAE6EF;stroke-miterlimit:10;stroke-dasharray:4,2;}
	.st86{fill:#6984B2;}
	.st87{fill:#3B5998;}
	.st88{fill:#5CC9C1;}
	.st89{fill:#9AC3F4;}
	.st90{fill:#F47D91;}
	.st91{fill:#F65066;}
	.st92{fill:none;}
	.st93{fill:#F3705A;}
	.st94{fill:#415A6B;}
	.st95{fill:#344A5E;}
	.st96{fill:#F8BC64;}
	.st97{fill:#F26D49;}
	.st98{fill:#EB5F24;}
	.st99{fill:#DBB491;}
	.st100{fill:#C69E7F;}
	.st101{fill:#E0DBD3;}
	.st102{fill:#D3CEC7;}
	.st103{fill:#CCA483;}
	.st104{fill:#3B3B3B;}
	.st105{fill:#2F3233;}
	.st106{fill:#515151;}
	.st107{fill:#393C3D;}
	.st108{fill:#EAE5DC;}
	.st109{fill:#E8C59E;}
	.st110{fill:#DDB58E;}
	.st111{fill:#CCA281;}
	.st112{fill:#CC7D2E;}
	.st113{fill:#BDD0DB;}
	.st114{fill:#85E6FE;}
	.st115{fill:#F9505D;}
	.st116{fill:#B5CEFD;}
	.st117{fill:url(#SVGID_13_);}
	.st118{fill:#98BBE5;}
	.st119{fill:none;stroke:#E6E6E6;stroke-miterlimit:10;stroke-dasharray:4,2;}
	.st120{fill:#84D3EF;stroke:#334A5E;stroke-width:1.5;stroke-linejoin:round;stroke-miterlimit:10;}
	.st121{fill:#84D3EF;}
	.st122{fill:#DC6870;}
	.st123{fill:#C9DBEE;}
	.st124{fill:#84D3EF;stroke:#334A5E;stroke-width:3;stroke-miterlimit:10;}
	.st125{fill:#DAE6EF;}
	.st126{clip-path:url(#SVGID_15_);fill:#98BBE5;}
	.st127{fill:#E7EDF2;}
	.st128{fill:#C0DAF9;}
	.st129{fill:#3AD7AE;}
	.st130{fill:#A3ACEF;stroke:#111D54;stroke-miterlimit:10;}
	.st131{fill:none;stroke:#111D54;stroke-linecap:round;stroke-miterlimit:10;}
	.st132{fill:#FFFFFF;stroke:#111D54;stroke-miterlimit:10;}
	.st133{fill:#C0DAF9;stroke:#111D54;stroke-linecap:round;stroke-miterlimit:10;}
</style>
<g>
	<g>
		<g>
			<path class="st58" d="M268.787,196.624c-0.114-0.038-0.176-0.162-0.137-0.276l0.96-2.854c0.075-0.224-0.009-0.456-0.189-0.516
				l-0.551-0.185c-0.115-0.039-0.176-0.162-0.137-0.277c0.038-0.114,0.162-0.176,0.276-0.137l0.551,0.185
				c0.408,0.137,0.616,0.617,0.464,1.069l-0.96,2.854C269.026,196.6,268.902,196.662,268.787,196.624z"/>
		</g>
		<g>
			<path class="st58" d="M268.306,198.056c-0.114-0.038-0.176-0.162-0.137-0.277l0.054-0.162c0.038-0.114,0.162-0.176,0.276-0.137
				c0.115,0.038,0.176,0.162,0.138,0.277l-0.054,0.162C268.544,198.033,268.42,198.095,268.306,198.056z"/>
		</g>
		<g>
			<path class="st58" d="M270.564,191.039L268,190.177l-0.139,0.414l2.564,0.862c0.718,0.241,1.072,1.126,0.788,1.97l-2.637,7.843
				c-0.07,0.209-0.236,0.355-0.421,0.371c-0.084,0.008-0.241-0.008-0.344-0.192l-0.352-0.637c-0.37-0.669-0.952-1.164-1.637-1.395
				l-4.222-1.419c-0.718-0.241-1.072-1.125-0.788-1.971l0.347-1.033l-0.414-0.139l-0.347,1.033
				c-0.361,1.073,0.116,2.205,1.062,2.524l4.222,1.42c0.582,0.195,1.077,0.619,1.394,1.192l0.352,0.637
				c0.103,0.187,0.259,0.318,0.443,0.38c0.101,0.034,0.21,0.047,0.323,0.036c0.358-0.033,0.67-0.294,0.796-0.667l2.637-7.843
				C271.987,192.49,271.51,191.358,270.564,191.039z"/>
		</g>
		<g>
			<path class="st58" d="M254.588,194.929c-0.115-0.039-0.223-0.102-0.319-0.189c-0.305-0.278-0.409-0.736-0.264-1.166l3.366-10.009
				c0.446-1.326,1.758-2.086,2.924-1.694l7.523,2.53c1.166,0.392,1.753,1.79,1.307,3.116l-2.328,6.924
				c-0.446,1.326-1.758,2.086-2.924,1.694l-5.335-1.794c-0.749-0.252-1.585-0.203-2.356,0.138l-0.927,0.411
				C255.03,194.988,254.798,195,254.588,194.929z M260.155,182.286c-0.938-0.315-2.001,0.321-2.37,1.419l-3.366,10.009
				c-0.089,0.266-0.033,0.542,0.144,0.704c0.141,0.128,0.328,0.155,0.513,0.073l0.927-0.411c0.87-0.385,1.819-0.44,2.672-0.153
				l5.335,1.794c0.938,0.315,2.001-0.321,2.37-1.419l2.328-6.923c0.369-1.097-0.094-2.247-1.032-2.563L260.155,182.286z"/>
		</g>
		<g>
			<path class="st58" d="M261.037,191.841c-0.293-0.099-0.536-0.226-0.731-0.353c-0.613-0.401-0.891-0.882-0.902-0.903
				c-0.06-0.105-0.023-0.238,0.082-0.298c0.104-0.059,0.238-0.023,0.297,0.082c0.04,0.069,0.985,1.655,3.344,1.101
				c0.117-0.028,0.235,0.045,0.262,0.162c0.028,0.118-0.045,0.235-0.162,0.263C262.315,192.109,261.588,192.026,261.037,191.841z"/>
		</g>
		<g>
			
				<ellipse transform="matrix(0.3187 -0.9478 0.9478 0.3187 0.3664 373.7505)" class="st58" cx="260.178" cy="186.62" rx="0.889" ry="0.889"/>
		</g>
		<g>
			<path class="st58" d="M259.871,187.532c-0.503-0.169-0.775-0.716-0.605-1.219c0.169-0.503,0.716-0.774,1.219-0.605
				c0.503,0.169,0.774,0.716,0.605,1.218S260.374,187.702,259.871,187.532z M260.438,185.847c-0.427-0.144-0.891,0.087-1.034,0.513
				c-0.144,0.427,0.087,0.891,0.514,1.034c0.427,0.143,0.891-0.087,1.034-0.514C261.095,186.454,260.865,185.99,260.438,185.847z"/>
		</g>
		<g>
			
				<ellipse transform="matrix(0.3187 -0.9478 0.9478 0.3187 2.0616 379.7572)" class="st58" cx="265.204" cy="188.444" rx="0.889" ry="0.889"/>
		</g>
		<g>
			<path class="st58" d="M264.897,189.357c-0.503-0.169-0.774-0.716-0.605-1.219c0.169-0.503,0.715-0.774,1.218-0.605
				c0.503,0.169,0.775,0.715,0.606,1.218C265.947,189.254,265.4,189.526,264.897,189.357z M265.464,187.671
				c-0.427-0.143-0.89,0.087-1.034,0.514c-0.144,0.427,0.087,0.891,0.513,1.034c0.427,0.143,0.89-0.087,1.034-0.514
				C266.121,188.278,265.891,187.814,265.464,187.671z"/>
		</g>
	</g>
	<g>
		<path class="st58" d="M35.646,152.76l0.304-0.589c0.244-0.471,0.29-1.008,0.129-1.516c-0.162-0.506-0.51-0.919-0.98-1.162
			c-0.472-0.244-1.008-0.289-1.514-0.128c-0.508,0.161-0.919,0.508-1.164,0.978l-0.305,0.588l-4.274-2.212l8.723-16.862l4.275,2.212
			l-0.304,0.589c-0.503,0.973-0.122,2.174,0.852,2.678c0.472,0.244,1.009,0.288,1.514,0.128c0.507-0.161,0.919-0.508,1.163-0.978
			l0.305-0.588l4.353,2.251l-8.725,16.861L35.646,152.76z M39.431,153.227l7.507-14.509l-2.06-1.065
			c-0.407,0.505-0.952,0.877-1.573,1.075c-0.843,0.268-1.74,0.192-2.525-0.214c-1.391-0.719-2.092-2.336-1.664-3.844l-1.98-1.025
			l-7.507,14.509l1.981,1.025c0.407-0.506,0.951-0.877,1.573-1.075c0.844-0.268,1.741-0.193,2.525,0.214
			c1.393,0.72,2.092,2.336,1.664,3.844L39.431,153.227z M34.869,144.212l2.941,1.522l-0.61,1.176l-2.94-1.521L34.869,144.212z
			 M36.086,141.86l5.098,2.638l-0.609,1.175l-5.097-2.638L36.086,141.86z M37.303,139.506l5.099,2.639l-0.61,1.176l-5.096-2.637
			L37.303,139.506z"/>
	</g>
	<g>
		<path class="st58" d="M174.748,236.693l0.428-0.063c0.342-0.05,0.645-0.231,0.852-0.51c0.207-0.279,0.292-0.62,0.242-0.962
			c-0.051-0.343-0.231-0.644-0.509-0.851c-0.279-0.207-0.62-0.293-0.962-0.243l-0.428,0.063l-0.458-3.108l12.258-1.806l0.458,3.108
			l-0.428,0.063c-0.708,0.104-1.198,0.764-1.094,1.472c0.051,0.343,0.232,0.644,0.51,0.851c0.278,0.207,0.62,0.293,0.961,0.243
			l0.428-0.063l0.467,3.164l-12.259,1.805L174.748,236.693z M175.944,238.876l10.548-1.554l-0.221-1.497
			c-0.423-0.023-0.827-0.17-1.169-0.424c-0.463-0.345-0.765-0.848-0.849-1.419c-0.149-1.011,0.44-1.999,1.402-2.347l-0.212-1.44
			l-10.548,1.554l0.212,1.44c0.423,0.023,0.828,0.17,1.169,0.423c0.464,0.345,0.766,0.849,0.849,1.419
			c0.15,1.012-0.44,1.999-1.402,2.347L175.944,238.876z M178.981,233.022l0.315,2.138l-0.855,0.125l-0.315-2.137L178.981,233.022z
			 M180.691,232.771l0.546,3.706l-0.855,0.125l-0.545-3.706L180.691,232.771z M182.402,232.518l0.546,3.707l-0.855,0.125
			l-0.546-3.705L182.402,232.518z"/>
	</g>
	<g>
		<path class="st58" d="M206.725,192.784c-0.057-0.148-0.179-0.264-0.334-0.316c-0.122-0.041-0.254-0.039-0.373,0.009l-1.607,0.63
			c-0.135,0.053-0.243,0.156-0.301,0.289c-0.058,0.133-0.061,0.282-0.008,0.417c0.06,0.152,0.182,0.269,0.335,0.32
			c0.063,0.021,0.13,0.03,0.197,0.027c0.061-0.002,0.12-0.015,0.175-0.038l1.607-0.63
			C206.696,193.382,206.836,193.065,206.725,192.784z M206.662,198.986l-1.657-0.485c-0.29-0.084-0.592,0.082-0.677,0.37
			c-0.082,0.282,0.07,0.575,0.348,0.669l1.683,0.493c0.053,0.017,0.112,0.024,0.173,0.022c0.234-0.01,0.434-0.168,0.5-0.395
			C207.116,199.381,206.963,199.088,206.662,198.986z M207.014,196.604c0.1-0.108,0.15-0.247,0.144-0.392
			c-0.009-0.225-0.16-0.422-0.374-0.494c-0.063-0.021-0.13-0.03-0.197-0.028l-1.685,0.075c-0.302,0.013-0.535,0.268-0.522,0.57
			c0.01,0.224,0.16,0.422,0.374,0.494c0.063,0.021,0.13,0.03,0.196,0.028l1.686-0.075
			C206.782,196.775,206.915,196.712,207.014,196.604z M201.66,191.46c-0.009-0.203-0.128-0.383-0.371-0.493
			c-0.172-0.058-0.36-0.028-0.504,0.081c-2.975,2.259-4.719,2.609-5.905,2.661l-2.977,0.132c-0.81,0.035-1.56,0.385-2.108,0.985
			c-0.548,0.599-0.831,1.376-0.795,2.185c0.056,1.25,0.889,2.358,2.074,2.757c0.353,0.119,0.723,0.171,1.098,0.154l0.936-0.041
			l0.115,2.61c0.01,0.224,0.16,0.422,0.373,0.494c0.064,0.021,0.13,0.031,0.198,0.028c0.145-0.007,0.28-0.07,0.378-0.177
			c0.098-0.107,0.149-0.248,0.143-0.393l-0.336-7.596l0.949-0.042c1.168-0.051,2.847-0.341,5.492-2.142l0.196-0.133l0.341,7.676
			l-0.216-0.14c-0.549-0.356-1.163-0.649-1.827-0.872c-0.937-0.315-1.964-0.486-3.051-0.507c-0.147-0.002-0.286,0.052-0.392,0.155
			c-0.104,0.101-0.163,0.236-0.165,0.38c-0.003,0.241,0.146,0.453,0.373,0.529c0.053,0.018,0.107,0.027,0.163,0.028
			c0.977,0.018,1.888,0.167,2.712,0.444c0.459,0.154,0.897,0.35,1.302,0.583c0.864,0.495,1.272,0.987,1.278,0.994
			c0.064,0.082,0.15,0.143,0.248,0.176c0.063,0.021,0.132,0.031,0.201,0.028l0.17-0.035c0.221-0.082,0.363-0.299,0.352-0.539
			L201.66,191.46z M193.059,198.789l-0.935,0.042c-0.24,0.011-0.478-0.023-0.704-0.099c-0.758-0.255-1.291-0.961-1.327-1.759
			c-0.047-1.074,0.786-1.987,1.859-2.036l0.935-0.042L193.059,198.789z"/>
	</g>
	<g>
		<path class="st58" d="M314.2,123.941c-0.126-0.116-0.299-0.168-0.473-0.143c-0.138,0.019-0.262,0.085-0.355,0.188l-1.239,1.375
			c-0.104,0.115-0.158,0.266-0.15,0.422c0.007,0.156,0.076,0.3,0.192,0.404c0.131,0.117,0.304,0.17,0.476,0.146l0.203-0.067
			l0.149-0.122l1.239-1.376C314.459,124.529,314.44,124.157,314.2,123.941z M317.117,129.921l-1.823,0.33
			c-0.318,0.059-0.529,0.364-0.471,0.681c0.056,0.309,0.344,0.517,0.655,0.474l1.851-0.335l0.175-0.062
			c0.221-0.122,0.336-0.369,0.291-0.618C317.742,130.082,317.454,129.874,317.117,129.921z M316.31,127.466
			c0.044-0.15,0.025-0.309-0.051-0.445c-0.117-0.21-0.356-0.328-0.596-0.294l-0.202,0.067l-1.581,0.881
			c-0.283,0.158-0.385,0.515-0.227,0.798c0.117,0.21,0.357,0.328,0.596,0.294l0.201-0.067l1.581-0.881
			C316.169,127.742,316.268,127.618,316.31,127.466z M308.706,125.103c-0.106-0.191-0.307-0.305-0.593-0.296
			c-0.193,0.027-0.358,0.147-0.444,0.321c-1.769,3.595-3.274,4.768-4.387,5.387l-2.793,1.556c-0.76,0.423-1.311,1.118-1.549,1.957
			c-0.238,0.838-0.137,1.719,0.287,2.478c0.653,1.173,1.984,1.835,3.312,1.649c0.396-0.056,0.776-0.184,1.128-0.38l0.878-0.489
			l1.364,2.448c0.117,0.21,0.356,0.328,0.595,0.295l0.203-0.068c0.135-0.077,0.235-0.201,0.278-0.352
			c0.042-0.15,0.023-0.309-0.051-0.446l-3.969-7.124l0.891-0.498c1.095-0.609,2.567-1.693,4.24-4.691l0.124-0.221l4.013,7.2
			l-0.275-0.031c-0.698-0.078-1.428-0.063-2.17,0.041c-1.051,0.148-2.119,0.477-3.171,0.979c-0.142,0.068-0.249,0.187-0.301,0.336
			c-0.051,0.147-0.043,0.305,0.024,0.443c0.112,0.234,0.357,0.365,0.611,0.329l0.172-0.051c0.945-0.451,1.891-0.746,2.814-0.876
			c0.515-0.072,1.028-0.093,1.53-0.065c1.065,0.06,1.693,0.336,1.703,0.34c0.101,0.048,0.212,0.066,0.322,0.05l0.206-0.069
			l0.146-0.115c0.172-0.186,0.204-0.461,0.08-0.686L308.706,125.103z M303.972,136.262l-0.877,0.489
			c-0.225,0.125-0.469,0.207-0.722,0.243c-0.85,0.119-1.701-0.302-2.118-1.051c-0.561-1.007-0.2-2.284,0.806-2.844l0.877-0.489
			L303.972,136.262z"/>
	</g>
	<g>
		<path class="st58" d="M144.265,90.955c-0.112-0.13-0.277-0.203-0.452-0.199c-0.139,0.003-0.27,0.053-0.375,0.144l-1.396,1.216
			c-0.117,0.102-0.189,0.245-0.199,0.401c-0.011,0.155,0.039,0.307,0.142,0.425c0.115,0.132,0.282,0.205,0.455,0.202l0.21-0.042
			l0.163-0.103l1.396-1.217C144.451,91.57,144.477,91.199,144.265,90.955z M146.439,97.244l-1.85,0.107
			c-0.322,0.02-0.569,0.297-0.55,0.619c0.018,0.314,0.279,0.555,0.593,0.549l1.878-0.109l0.181-0.041
			c0.234-0.094,0.378-0.326,0.364-0.579C147.04,97.479,146.78,97.237,146.439,97.244z M145.934,94.709
			c0.061-0.144,0.062-0.304,0.003-0.448c-0.09-0.222-0.313-0.369-0.556-0.364l-0.209,0.042l-1.676,0.684
			c-0.299,0.122-0.444,0.465-0.322,0.765c0.091,0.222,0.314,0.369,0.557,0.364l0.208-0.042l1.676-0.684
			C145.761,94.966,145.874,94.855,145.934,94.709z M138.67,91.446c-0.082-0.202-0.268-0.34-0.553-0.365
			c-0.194,0.004-0.374,0.103-0.48,0.265c-2.19,3.355-3.825,4.338-5.004,4.819l-2.96,1.208c-0.805,0.328-1.436,0.952-1.774,1.755
			c-0.337,0.803-0.343,1.69-0.014,2.494c0.507,1.243,1.748,2.061,3.089,2.036c0.4-0.007,0.792-0.089,1.166-0.241l0.931-0.38
			l1.059,2.595c0.09,0.222,0.313,0.369,0.555,0.364l0.21-0.043c0.144-0.06,0.257-0.171,0.319-0.315
			c0.06-0.144,0.06-0.304,0.003-0.449l-3.081-7.55l0.945-0.386c1.161-0.473,2.752-1.371,4.775-4.145l0.149-0.205l3.115,7.631
			l-0.269-0.064c-0.683-0.162-1.41-0.235-2.159-0.221c-1.061,0.02-2.161,0.218-3.266,0.59c-0.149,0.051-0.27,0.155-0.339,0.298
			c-0.068,0.14-0.08,0.297-0.03,0.443c0.083,0.246,0.31,0.405,0.567,0.4l0.177-0.03c0.993-0.334,1.967-0.513,2.899-0.53
			c0.52-0.01,1.032,0.031,1.526,0.12c1.05,0.188,1.64,0.537,1.65,0.543c0.094,0.06,0.203,0.091,0.314,0.089l0.213-0.043l0.159-0.097
			c0.193-0.164,0.258-0.433,0.162-0.672L138.67,91.446z M132.626,101.953l-0.93,0.379c-0.239,0.097-0.49,0.149-0.746,0.154
			c-0.858,0.016-1.652-0.505-1.975-1.299c-0.436-1.068,0.077-2.292,1.143-2.726l0.93-0.379L132.626,101.953z"/>
	</g>
	<g>
		<path class="st58" d="M114.757,74.345l0.77,0.259l-1.524,3.028c-0.332,0.675-0.338,1.066-0.019,1.174
			c0.156,0.052,0.324,0.057,0.508,0.015c0.183-0.042,0.367-0.14,0.552-0.294c0.186-0.153,0.366-0.369,0.542-0.647
			c0.176-0.278,0.335-0.628,0.476-1.047c0.18-0.536,0.259-1.022,0.237-1.457c-0.023-0.435-0.128-0.821-0.318-1.157
			c-0.19-0.336-0.451-0.626-0.784-0.867c-0.334-0.242-0.722-0.437-1.165-0.586c-0.497-0.167-0.994-0.224-1.492-0.171
			c-0.498,0.053-0.965,0.206-1.4,0.457c-0.435,0.251-0.826,0.595-1.177,1.031c-0.35,0.435-0.626,0.956-0.829,1.562
			c-0.4,1.188-0.409,2.193-0.027,3.012c0.381,0.82,1.104,1.409,2.169,1.767c0.202,0.068,0.434,0.116,0.697,0.144
			c0.262,0.028,0.508,0.024,0.737-0.012l-0.003,1.127c-0.293,0.048-0.599,0.056-0.916,0.024c-0.317-0.034-0.663-0.113-1.035-0.238
			c-0.613-0.206-1.156-0.492-1.624-0.857c-0.47-0.365-0.838-0.806-1.105-1.325c-0.267-0.517-0.415-1.112-0.445-1.783
			c-0.029-0.672,0.094-1.415,0.368-2.23c0.274-0.815,0.649-1.503,1.126-2.059c0.477-0.557,1.007-0.984,1.591-1.281
			c0.584-0.296,1.198-0.466,1.844-0.508c0.645-0.043,1.279,0.041,1.901,0.25c0.589,0.198,1.114,0.472,1.572,0.82
			c0.458,0.349,0.817,0.76,1.078,1.231c0.261,0.471,0.413,1.003,0.456,1.593c0.044,0.59-0.049,1.226-0.279,1.91
			c-0.172,0.512-0.408,0.963-0.707,1.351c-0.3,0.388-0.63,0.696-0.992,0.925c-0.363,0.228-0.746,0.374-1.152,0.436
			c-0.405,0.062-0.803,0.029-1.191-0.102c-0.319-0.107-0.561-0.279-0.727-0.517c-0.167-0.237-0.175-0.556-0.023-0.954l-0.035-0.012
			c-0.278,0.235-0.58,0.419-0.905,0.552c-0.326,0.132-0.67,0.138-1.036,0.015c-0.334-0.112-0.568-0.355-0.701-0.729
			c-0.134-0.374-0.113-0.824,0.065-1.352c0.175-0.521,0.403-0.988,0.686-1.404c0.282-0.415,0.59-0.759,0.924-1.032
			c0.334-0.272,0.678-0.461,1.033-0.567c0.356-0.105,0.696-0.103,1.024,0.007c0.217,0.073,0.39,0.175,0.519,0.304
			c0.13,0.13,0.237,0.284,0.325,0.46L114.757,74.345z M113.682,75.497c-0.086-0.207-0.241-0.35-0.467-0.425
			c-0.179-0.06-0.363-0.052-0.553,0.025c-0.19,0.077-0.375,0.202-0.554,0.376c-0.18,0.175-0.346,0.386-0.499,0.637
			c-0.154,0.25-0.28,0.522-0.378,0.812c-0.09,0.268-0.114,0.489-0.074,0.665c0.04,0.175,0.154,0.295,0.34,0.357
			c0.17,0.057,0.376,0.022,0.613-0.107c0.238-0.128,0.454-0.288,0.647-0.479L113.682,75.497z"/>
	</g>
	<g>
		<path class="st58" d="M212.23,99.545l0.77,0.259l-1.524,3.028c-0.332,0.675-0.338,1.066-0.019,1.174
			c0.156,0.052,0.324,0.057,0.508,0.015s0.367-0.14,0.552-0.294c0.186-0.153,0.366-0.369,0.542-0.647
			c0.176-0.278,0.335-0.628,0.476-1.047c0.18-0.536,0.259-1.022,0.237-1.457c-0.023-0.435-0.128-0.821-0.318-1.157
			c-0.19-0.336-0.451-0.626-0.784-0.867c-0.334-0.242-0.722-0.437-1.165-0.586c-0.497-0.167-0.994-0.224-1.492-0.171
			c-0.498,0.053-0.965,0.206-1.4,0.457c-0.435,0.251-0.826,0.595-1.177,1.031c-0.35,0.435-0.626,0.956-0.829,1.562
			c-0.4,1.188-0.409,2.193-0.027,3.012c0.381,0.82,1.104,1.409,2.169,1.767c0.202,0.068,0.434,0.116,0.697,0.144
			c0.262,0.028,0.508,0.024,0.737-0.012l-0.003,1.127c-0.293,0.048-0.599,0.056-0.916,0.024c-0.317-0.034-0.663-0.113-1.035-0.238
			c-0.613-0.206-1.156-0.492-1.624-0.857c-0.47-0.365-0.838-0.806-1.105-1.325c-0.267-0.517-0.415-1.112-0.445-1.783
			c-0.029-0.672,0.094-1.415,0.368-2.23c0.274-0.815,0.649-1.503,1.126-2.059c0.477-0.557,1.007-0.984,1.591-1.281
			c0.584-0.296,1.198-0.466,1.844-0.508c0.645-0.043,1.279,0.041,1.901,0.25c0.589,0.198,1.114,0.472,1.572,0.82
			c0.458,0.349,0.817,0.76,1.078,1.231s0.413,1.003,0.456,1.593c0.044,0.59-0.049,1.226-0.279,1.91
			c-0.172,0.512-0.408,0.963-0.707,1.351c-0.3,0.388-0.63,0.696-0.992,0.925c-0.363,0.228-0.746,0.374-1.152,0.436
			c-0.405,0.062-0.803,0.029-1.191-0.102c-0.319-0.107-0.561-0.279-0.727-0.517c-0.167-0.237-0.175-0.556-0.023-0.954l-0.035-0.012
			c-0.278,0.235-0.58,0.419-0.905,0.552c-0.326,0.132-0.67,0.138-1.036,0.015c-0.334-0.112-0.568-0.355-0.701-0.729
			c-0.135-0.374-0.113-0.824,0.065-1.352c0.175-0.521,0.403-0.988,0.686-1.404c0.282-0.415,0.59-0.759,0.924-1.032
			c0.334-0.272,0.678-0.461,1.033-0.567c0.356-0.105,0.696-0.103,1.024,0.007c0.217,0.073,0.39,0.175,0.519,0.304
			c0.13,0.13,0.237,0.284,0.325,0.46L212.23,99.545z M211.156,100.697c-0.086-0.207-0.241-0.35-0.467-0.425
			c-0.178-0.06-0.363-0.052-0.553,0.025c-0.19,0.077-0.375,0.202-0.554,0.376c-0.18,0.175-0.346,0.386-0.5,0.637
			c-0.154,0.25-0.28,0.522-0.378,0.812c-0.09,0.268-0.114,0.489-0.074,0.665c0.04,0.175,0.154,0.295,0.34,0.357
			c0.17,0.057,0.376,0.022,0.613-0.107c0.238-0.128,0.454-0.288,0.647-0.479L211.156,100.697z"/>
	</g>
	<g>
		<path class="st58" d="M51.569,107.193l1.026,0.345l-2.031,4.034c-0.441,0.9-0.45,1.421-0.025,1.564
			c0.207,0.07,0.432,0.077,0.675,0.02c0.244-0.056,0.49-0.186,0.737-0.391c0.249-0.204,0.488-0.493,0.723-0.863
			c0.234-0.371,0.445-0.837,0.633-1.395c0.24-0.713,0.346-1.361,0.316-1.941c-0.03-0.58-0.171-1.094-0.423-1.542
			c-0.253-0.448-0.602-0.834-1.045-1.156c-0.445-0.322-0.962-0.582-1.552-0.781c-0.662-0.223-1.325-0.299-1.988-0.228
			c-0.663,0.071-1.285,0.274-1.865,0.609s-1.102,0.793-1.568,1.374s-0.834,1.273-1.106,2.081c-0.532,1.583-0.544,2.922-0.035,4.014
			c0.508,1.091,1.471,1.876,2.889,2.353c0.27,0.091,0.58,0.154,0.93,0.192c0.349,0.037,0.677,0.032,0.982-0.017l-0.004,1.502
			c-0.391,0.063-0.798,0.074-1.22,0.031c-0.423-0.044-0.883-0.15-1.38-0.318c-0.816-0.274-1.539-0.656-2.163-1.142
			c-0.626-0.486-1.116-1.074-1.472-1.765c-0.356-0.691-0.553-1.481-0.592-2.376c-0.039-0.894,0.125-1.885,0.49-2.971
			c0.365-1.086,0.865-2.002,1.501-2.743c0.636-0.742,1.342-1.311,2.12-1.706c0.778-0.395,1.596-0.621,2.456-0.678
			c0.861-0.056,1.704,0.055,2.533,0.333c0.785,0.264,1.484,0.628,2.094,1.093c0.611,0.464,1.088,1.012,1.437,1.641
			c0.347,0.63,0.549,1.337,0.608,2.122c0.059,0.785-0.065,1.634-0.372,2.544c-0.23,0.684-0.544,1.283-0.942,1.8
			c-0.399,0.517-0.839,0.927-1.321,1.232c-0.483,0.304-0.994,0.498-1.535,0.581c-0.541,0.083-1.07,0.038-1.586-0.135
			c-0.425-0.143-0.747-0.372-0.969-0.688c-0.222-0.316-0.233-0.74-0.031-1.271l-0.046-0.016c-0.371,0.314-0.773,0.559-1.206,0.735
			c-0.434,0.175-0.893,0.184-1.381,0.02c-0.444-0.149-0.755-0.473-0.934-0.971c-0.179-0.498-0.15-1.098,0.087-1.802
			c0.233-0.694,0.537-1.316,0.914-1.87c0.376-0.553,0.786-1.011,1.231-1.374c0.444-0.363,0.904-0.615,1.376-0.755
			c0.475-0.14,0.927-0.138,1.364,0.009c0.288,0.097,0.52,0.233,0.691,0.405c0.173,0.173,0.316,0.378,0.434,0.613L51.569,107.193z
			 M50.137,108.729c-0.114-0.277-0.321-0.466-0.622-0.567c-0.239-0.08-0.484-0.069-0.736,0.032c-0.254,0.103-0.5,0.269-0.739,0.5
			c-0.239,0.233-0.46,0.515-0.665,0.85c-0.205,0.333-0.373,0.695-0.503,1.082c-0.12,0.358-0.153,0.652-0.1,0.886
			c0.055,0.235,0.206,0.392,0.454,0.476c0.227,0.076,0.501,0.029,0.817-0.143c0.317-0.171,0.604-0.384,0.862-0.638L50.137,108.729z"
			/>
	</g>
	<g>
		<path class="st58" d="M288.121,103.85l-3.21-1.079l0.74-2.201c0.355-1.056,0.298-1.928-0.173-2.593
			c-0.738-1.048-2.206-1.092-2.271-1.093c-0.249-0.006-0.477,0.155-0.557,0.394l-0.893,2.656c-0.661,1.966-3.204,1.872-3.311,1.865
			l-0.018,0.001l-0.291-0.005c-0.204-0.384-0.548-0.69-0.986-0.837l-1.002-0.337c-0.915-0.311-1.91,0.182-2.218,1.098l-1.921,5.713
			c-0.308,0.916,0.186,1.911,1.102,2.219l1.002,0.337c0.422,0.142,0.865,0.114,1.246-0.052c0.252,0.64,0.774,1.175,1.477,1.411
			l6.501,2.186c1.507,0.507,2.788,0.017,3.428-1.308l2.514-4.801l0.137-0.259c0.061-0.121,0.118-0.246,0.162-0.377
			C289.984,105.574,289.33,104.257,288.121,103.85z M275.243,108.52c-0.106,0.315-0.446,0.484-0.761,0.378l-1.002-0.337
			c-0.315-0.106-0.484-0.446-0.378-0.761l1.922-5.716c0.106-0.315,0.446-0.483,0.761-0.377l1.002,0.337
			c0.315,0.106,0.484,0.445,0.378,0.76L275.243,108.52z M288.397,106.631l-2.654,5.07l-0.009,0.018
			c-0.144,0.299-0.577,1.211-2.028,0.723l-6.501-2.186c-0.658-0.221-1.015-0.94-0.794-1.598l1.845-5.488
			c0.024-0.073,0.043-0.148,0.057-0.224l0.088,0.002c0.255,0.011,3.526,0.098,4.45-2.65l0.741-2.205
			c0.326,0.074,0.731,0.235,0.948,0.549c0.242,0.351,0.251,0.874,0.02,1.561l-0.924,2.748c-0.102,0.302,0.061,0.629,0.363,0.731
			l3.753,1.262c0.611,0.205,0.937,0.867,0.732,1.475C288.463,106.49,288.431,106.561,288.397,106.631z"/>
	</g>
	<g>
		<path class="st58" d="M189.696,70.296l-11.117-1.831c-0.993-0.164-1.932,0.511-2.096,1.503l-1.251,7.598
			c-0.163,0.992,0.511,1.931,1.503,2.096l11.114,1.83c0.993,0.164,1.932-0.51,2.095-1.503l1.251-7.595
			C191.362,71.402,190.688,70.459,189.696,70.296z M189.126,79.854c-0.089,0.538-0.6,0.905-1.138,0.816l-11.117-1.83
			c-0.538-0.089-0.905-0.6-0.816-1.138l1.25-7.595c0.089-0.539,0.599-0.905,1.138-0.816l11.115,1.83
			c0.538,0.089,0.905,0.599,0.816,1.138l-1.25,7.595L189.126,79.854z"/>
	</g>
	<g>
		<path class="st58" d="M185.152,75.201l4.129-2.634c0.192-0.125,0.25-0.381,0.126-0.576c-0.125-0.193-0.38-0.25-0.576-0.127
			l-5.695,3.637l-0.826-1.024l-0.005-0.01l-0.058-0.068l-3.359-4.173c-0.145-0.181-0.407-0.208-0.587-0.063
			c-0.181,0.145-0.208,0.407-0.062,0.587l3.105,3.853l-4.185,2.798c-0.19,0.129-0.242,0.385-0.114,0.579
			c0.068,0.099,0.17,0.162,0.28,0.18c0.1,0.017,0.207-0.003,0.298-0.064l4.247-2.837l0.851,1.056
			c0.068,0.083,0.16,0.133,0.257,0.149c0.097,0.016,0.203-0.004,0.291-0.061l1.177-0.751l3.087,4.079
			c0.066,0.089,0.164,0.143,0.264,0.159c0.11,0.018,0.223-0.007,0.32-0.079c0.182-0.138,0.219-0.401,0.08-0.584L185.152,75.201z"/>
	</g>
	<g>
		<path class="st58" d="M66.118,163.593l-4.173-4.376c-0.372-0.391-0.993-0.406-1.383-0.033l-2.99,2.852
			c-0.391,0.373-0.405,0.993-0.033,1.384l4.172,4.375c0.373,0.391,0.993,0.405,1.383,0.033l2.989-2.851
			C66.474,164.605,66.49,163.983,66.118,163.593z M62.785,167.505c-0.212,0.202-0.549,0.194-0.751-0.018l-4.173-4.376
			c-0.203-0.212-0.194-0.549,0.017-0.751l2.989-2.851c0.212-0.202,0.549-0.194,0.752,0.018l4.172,4.374
			c0.202,0.212,0.194,0.549-0.018,0.752l-2.989,2.851L62.785,167.505z"/>
	</g>
	<g>
		<path class="st58" d="M62.586,164.227l2.621,0.205c0.122,0.009,0.23-0.082,0.24-0.206c0.009-0.123-0.082-0.231-0.206-0.24
			l-3.615-0.281l-0.023-0.706l0.001-0.006l-0.003-0.048l-0.091-2.874c-0.004-0.125-0.107-0.221-0.232-0.217
			c-0.124,0.004-0.22,0.107-0.216,0.232l0.086,2.655l-2.697-0.153c-0.123-0.007-0.228,0.087-0.236,0.211
			c-0.003,0.064,0.021,0.125,0.062,0.168c0.038,0.039,0.09,0.066,0.149,0.069l2.737,0.156l0.024,0.728
			c0.002,0.058,0.025,0.108,0.062,0.147c0.037,0.038,0.088,0.064,0.145,0.068l0.747,0.059l0.005,2.745
			c0,0.06,0.024,0.114,0.062,0.154c0.041,0.043,0.098,0.069,0.162,0.069c0.123,0,0.224-0.101,0.223-0.224L62.586,164.227z"/>
	</g>
	<g>
		<path class="st58" d="M109.206,103.557c-2.679-0.901-5.581,0.541-6.482,3.22c-0.901,2.679,0.541,5.581,3.219,6.482
			c2.679,0.901,5.581-0.541,6.482-3.22S111.886,104.458,109.206,103.557z M106.947,104.062c-0.128,0.091-0.254,0.193-0.38,0.304
			c-0.191,0.171-0.375,0.363-0.551,0.572c-0.182-0.123-0.36-0.252-0.536-0.387C105.935,104.304,106.431,104.137,106.947,104.062z
			 M104.756,105.042c0.249,0.203,0.504,0.393,0.766,0.57c-0.277,0.431-0.52,0.91-0.72,1.421l-1.237-0.416
			C103.843,105.993,104.256,105.46,104.756,105.042z M103.295,109.386c-0.146-0.635-0.152-1.309,0.003-1.975l1.237,0.416
			c-0.15,0.528-0.246,1.057-0.285,1.568C103.934,109.377,103.616,109.375,103.295,109.386z M103.576,110.216
			c0.222-0.003,0.442,0.003,0.661,0.014c0.013,0.273,0.044,0.537,0.093,0.788c0.032,0.165,0.072,0.322,0.119,0.472
			C104.084,111.119,103.789,110.686,103.576,110.216z M105.849,112.231c-0.443-0.361-0.709-1.058-0.769-1.917
			c0.447,0.064,0.887,0.159,1.318,0.283L105.849,112.231z M106.665,109.803c-0.516-0.151-1.043-0.261-1.58-0.332
			c0.033-0.442,0.114-0.907,0.244-1.378l1.717,0.577L106.665,109.803z M107.312,107.878l-1.717-0.577
			c0.181-0.454,0.397-0.873,0.638-1.245c0.471,0.269,0.959,0.499,1.46,0.69L107.312,107.878z M107.96,105.951
			c-0.418-0.161-0.826-0.352-1.221-0.571c0.566-0.649,1.199-1.043,1.771-1.063L107.96,105.951z M111.855,107.429
			c0.147,0.635,0.152,1.309-0.003,1.975l-1.237-0.416c0.15-0.528,0.246-1.056,0.285-1.568
			C111.217,107.437,111.535,107.441,111.855,107.429z M111.575,106.599c-0.221,0.002-0.442-0.003-0.661-0.015
			c-0.013-0.272-0.044-0.537-0.093-0.788c-0.032-0.165-0.072-0.322-0.118-0.472C111.068,105.696,111.362,106.129,111.575,106.599z
			 M109.302,104.584c0.443,0.361,0.709,1.058,0.769,1.917c-0.447-0.064-0.887-0.159-1.319-0.283L109.302,104.584z M108.486,107.012
			c0.516,0.151,1.043,0.262,1.581,0.332c-0.033,0.442-0.114,0.907-0.245,1.378l-1.717-0.577L108.486,107.012z M107.839,108.937
			l1.717,0.577c-0.18,0.454-0.397,0.873-0.637,1.246c-0.471-0.268-0.959-0.499-1.46-0.69L107.839,108.937z M106.641,112.497
			l0.55-1.635c0.419,0.162,0.827,0.352,1.222,0.572C107.845,112.083,107.212,112.478,106.641,112.497z M108.204,112.753
			c0.127-0.091,0.254-0.193,0.379-0.304c0.191-0.171,0.376-0.363,0.551-0.572c0.182,0.123,0.361,0.252,0.536,0.388
			C109.216,112.511,108.72,112.678,108.204,112.753z M110.395,111.773c-0.249-0.203-0.505-0.393-0.766-0.57
			c0.277-0.431,0.52-0.91,0.719-1.421l1.237,0.416C111.308,110.822,110.895,111.356,110.395,111.773z"/>
	</g>
	<g>
		<path class="st58" d="M185.024,104.746c-0.863,0.169-1.551,0.73-1.918,1.463l-4.57-1.493c0.042-0.296,0.036-0.604-0.024-0.913
			c-0.061-0.311-0.171-0.596-0.326-0.857l3.666-3.104c0.614,0.542,1.467,0.805,2.332,0.636c1.476-0.29,2.445-1.727,2.155-3.207
			c-0.29-1.479-1.727-2.445-3.207-2.154c-1.478,0.289-2.445,1.726-2.154,3.206c0.061,0.311,0.172,0.599,0.326,0.857l-3.663,3.104
			c-0.614-0.546-1.467-0.805-2.332-0.636c-1.475,0.289-2.446,1.727-2.155,3.207c0.29,1.478,1.73,2.444,3.21,2.153
			c0.865-0.17,1.556-0.735,1.922-1.473l4.568,1.494c-0.044,0.3-0.041,0.613,0.02,0.923c0.289,1.475,1.726,2.445,3.206,2.155
			s2.445-1.727,2.154-3.207C187.945,105.422,186.504,104.457,185.024,104.746z M183.301,95.958c1.015-0.199,2.002,0.464,2.201,1.479
			c0.198,1.014-0.465,2.001-1.479,2.2c-1.015,0.199-2.001-0.464-2.201-1.479C181.623,97.144,182.289,96.156,183.301,95.958z
			 M176.199,106.167c-1.015,0.199-2.001-0.464-2.201-1.479c-0.199-1.015,0.464-2.001,1.479-2.201
			c1.015-0.199,2.002,0.464,2.201,1.479C177.877,104.981,177.211,105.968,176.199,106.167z M185.91,109.264
			c-1.014,0.198-2.002-0.465-2.201-1.479c-0.199-1.015,0.464-2.002,1.479-2.201c1.014-0.198,2.002,0.464,2.201,1.479
			C187.589,108.078,186.926,109.064,185.91,109.264z"/>
	</g>
	<g>
		<path class="st58" d="M306.294,195.483c-0.325,0.179-0.664,0.327-1.014,0.445c0.362-0.411,0.619-0.907,0.74-1.447
			c0.035-0.154-0.14-0.269-0.267-0.177c-0.473,0.34-0.991,0.609-1.54,0.801l-0.099,0.021c-0.103,0.009-0.206-0.02-0.29-0.081
			c-0.643-0.474-1.436-0.696-2.235-0.626c-0.345,0.031-0.689,0.115-1.021,0.251c-1.031,0.422-1.772,1.368-1.935,2.469
			c-0.06,0.413-0.051,0.821,0.03,1.21l-0.022,0.095l-0.086,0.049l-0.012,0.001c-2.339-0.012-4.53-0.946-6.168-2.63
			c-0.083-0.087-0.227-0.061-0.278,0.047c-0.245,0.523-0.349,1.104-0.298,1.683c0.078,0.886,0.508,1.69,1.18,2.244
			c-0.266-0.038-0.526-0.114-0.772-0.223c-0.119-0.053-0.25,0.04-0.241,0.17c0.1,1.318,0.974,2.422,2.175,2.848l-0.069,0.007
			c-0.183,0.015-0.37,0.015-0.555-0.004c-0.13-0.013-0.227,0.117-0.177,0.237c0.478,1.138,1.562,1.911,2.785,2.001
			c-0.942,0.759-2.075,1.217-3.288,1.323l-0.378,0.033c-0.116,0.011-0.209,0.095-0.227,0.21c-0.019,0.114,0.044,0.226,0.149,0.275
			c1.436,0.675,3.031,0.958,4.615,0.818c1.386-0.122,2.659-0.511,3.78-1.156c1.03-0.592,1.916-1.386,2.633-2.361
			c0.668-0.908,1.164-1.932,1.472-3.042c0.294-1.059,0.401-2.171,0.307-3.216l-0.004-0.05c-0.014-0.168,0.048-0.332,0.171-0.452
			c0.466-0.452,0.861-0.97,1.174-1.541C306.61,195.566,306.444,195.401,306.294,195.483z"/>
	</g>
	<g>
		<path class="st58" d="M311.956,168.48l-1.391-0.468c-0.229-0.077-0.588-0.071-0.751,0.415l-0.436,1.296l1.936,0.651l-0.966,2.123
			l-1.709-0.575l-2.106,6.262l-2.59-0.871l2.106-6.262l-1.232-0.414l0.74-2.202l1.231,0.414l0.479-1.424
			c0.342-1.018,1.363-2.451,3.492-1.735l1.915,0.653L311.956,168.48L311.956,168.48z"/>
	</g>
	<g>
		<path class="st58" d="M224.802,83.122l0.624,0.21l-1.463,4.35l1.172-0.585l7.969,2.68l2.261-6.724l-5.76-1.937l0.21-0.624
			l5.578,1.876c0.444,0.149,0.684,0.632,0.535,1.076l-2.139,6.361c-0.149,0.444-0.633,0.684-1.076,0.535l-7.529-2.532l-2.35,1.167
			L224.802,83.122z M225.317,81.661l0.601-1.787l-1.613-0.542l0.198-0.589l1.613,0.542l0.584-1.737l0.606,0.204l-0.584,1.737
			l1.613,0.542l-0.198,0.589l-1.613-0.542l-0.601,1.787L225.317,81.661z"/>
	</g>
	<g>
		<path class="st58" d="M40.678,209.06l1.168-0.092l0.644,8.137l1.508-1.774l14.908-1.179l-0.996-12.58l-10.775,0.853l-0.093-1.168
			l10.436-0.826c0.831-0.066,1.561,0.557,1.627,1.388l0.942,11.901c0.065,0.831-0.557,1.561-1.388,1.627l-14.085,1.115l-3.03,3.55
			L40.678,209.06z M40.502,206.309l-0.264-3.344l-3.018,0.239l-0.087-1.102l3.018-0.239l-0.258-3.251l1.133-0.09l0.258,3.251
			l3.017-0.239l0.087,1.102l-3.018,0.239l0.265,3.345L40.502,206.309z"/>
	</g>
	<g>
		<path class="st58" d="M258.946,90.184c-1.065-2.161-3.68-3.051-5.842-1.986c-2.161,1.064-3.049,3.678-1.986,5.839
			c1.064,2.162,3.679,3.052,5.841,1.986C259.121,94.962,260.01,92.345,258.946,90.184z M257.866,89.609l-1.169,0.575
			c-0.501-0.431-1.151-0.653-1.812-0.615l-0.575-1.17C255.623,88.144,256.982,88.607,257.866,89.609z M252.489,92.257l-1.171,0.576
			c-0.254-1.312,0.208-2.672,1.211-3.557l0.576,1.171C252.673,90.946,252.451,91.598,252.489,92.257z M252.196,94.615l1.17-0.576
			c0.499,0.432,1.151,0.654,1.811,0.616l0.576,1.171C254.441,96.08,253.081,95.617,252.196,94.615z M255.902,93.879
			c-0.976,0.481-2.158,0.079-2.638-0.897c-0.48-0.975-0.078-2.157,0.897-2.638c0.976-0.479,2.159-0.076,2.638,0.897
			C257.28,92.217,256.878,93.4,255.902,93.879z M256.958,93.777c0.433-0.499,0.654-1.149,0.616-1.81l1.17-0.577
			c0.255,1.313-0.207,2.673-1.209,3.557L256.958,93.777z"/>
	</g>
	<g>
		<path class="st58" d="M89.982,84.476l-0.785-0.548c0.736-1.057,1.507-2.101,2.289-3.104l0.755,0.589
			C91.47,82.403,90.709,83.432,89.982,84.476z M93.433,79.932l-0.738-0.611c0.823-0.994,1.68-1.969,2.547-2.899l0.7,0.654
			C95.089,77.991,94.245,78.952,93.433,79.932z M156.07,98.376l-0.903-0.32c0.126-0.356,0.248-0.712,0.368-1.067
			c0.317-0.944,0.574-1.778,0.787-2.549l0.923,0.255c-0.216,0.788-0.479,1.637-0.801,2.599
			C156.321,97.656,156.197,98.016,156.07,98.376z M97.26,75.706l-0.679-0.674c0.914-0.92,1.858-1.811,2.807-2.652l0.634,0.719
			C99.089,73.924,98.159,74.802,97.26,75.706z M156.771,92.61c0.081-0.39,0.156-0.779,0.219-1.17
			c0.135-0.84,0.221-1.697,0.255-2.546l0.957,0.04c-0.037,0.887-0.126,1.782-0.268,2.66c-0.066,0.405-0.142,0.81-0.227,1.214
			L156.771,92.61z M101.468,71.868l-0.608-0.739c1.006-0.828,2.039-1.617,3.072-2.346l0.552,0.782
			C103.471,70.281,102.457,71.056,101.468,71.868z M157.24,87.022c-0.056-1.23-0.215-2.481-0.478-3.718l0.937-0.198
			c0.272,1.288,0.439,2.591,0.496,3.872L157.24,87.022z M106.053,68.501l-0.521-0.803c1.083-0.704,2.202-1.369,3.326-1.976
			l0.454,0.842C108.211,67.159,107.115,67.811,106.053,68.501z M156.301,81.483c-0.346-1.185-0.791-2.369-1.321-3.518l0.869-0.401
			c0.55,1.191,1.011,2.419,1.371,3.649L156.301,81.483z M110.999,65.7l-0.419-0.861c0.858-0.417,1.736-0.809,2.609-1.165
			c0.314-0.128,0.629-0.252,0.946-0.372l0.338,0.897c-0.31,0.116-0.616,0.236-0.922,0.362
			C112.698,64.909,111.838,65.292,110.999,65.7z M116.26,63.573l-0.296-0.911c0.339-0.11,0.679-0.216,1.02-0.319
			c0.892-0.261,1.806-0.495,2.721-0.695l0.205,0.935c-0.892,0.196-1.787,0.425-2.653,0.679
			C116.925,63.362,116.592,63.464,116.26,63.573z M154.132,76.286c-0.599-1.092-1.282-2.157-2.032-3.167l0.768-0.57
			c0.776,1.044,1.485,2.147,2.104,3.276L154.132,76.286z M121.769,62.225l-0.158-0.945c1.273-0.214,2.569-0.366,3.85-0.451
			l0.064,0.955C124.275,61.869,123.012,62.016,121.769,62.225z M150.927,71.646c-0.327-0.384-0.665-0.758-1.014-1.124
			c-0.52-0.546-1.064-1.072-1.616-1.565l0.638-0.715c0.571,0.509,1.134,1.055,1.671,1.619c0.361,0.378,0.711,0.767,1.049,1.164
			L150.927,71.646z M127.413,61.707l-0.015-0.958c1.303-0.02,2.607,0.028,3.877,0.144l-0.086,0.954
			C129.952,61.734,128.682,61.687,127.413,61.707z M146.85,67.749c-1-0.778-2.052-1.479-3.125-2.085l0.471-0.834
			c1.113,0.63,2.203,1.357,3.241,2.164L146.85,67.749z M133.065,62.068l0.139-0.948c1.293,0.19,2.571,0.453,3.803,0.784
			l-0.248,0.925C135.564,62.509,134.32,62.253,133.065,62.068z M142.056,64.788c-1.105-0.532-2.262-1.003-3.442-1.4l0.256-0.924
			l0.049,0.016c1.217,0.409,2.414,0.895,3.553,1.445L142.056,64.788z"/>
	</g>
	<g>
		<path class="st58" d="M146.354,74.496l-0.699-0.655c0.89-0.949,1.822-1.86,2.768-2.708l0.638,0.714
			C148.135,72.676,147.225,73.567,146.354,74.496z M150.563,70.562l-0.368-0.318l-0.247-0.416c0.975-0.799,1.993-1.564,3.034-2.282
			l0.544,0.789C152.506,69.037,151.51,69.786,150.563,70.562z M155.11,67.292l-0.51-0.811c1.081-0.68,2.21-1.328,3.355-1.924
			l0.443,0.849C157.274,65.99,156.169,66.625,155.11,67.292z M213.349,85.618l-0.895-0.342c0.055-0.144,0.108-0.289,0.157-0.434
			l0.918,0.273l-0.011,0.032C213.466,85.303,213.409,85.461,213.349,85.618z M213.06,83.026c0.194-1.181,0.216-2.42,0.065-3.681
			l0.95-0.115c0.162,1.352,0.138,2.681-0.071,3.952L213.06,83.026z M160.096,64.564l-0.409-0.866
			c1.162-0.548,2.359-1.057,3.561-1.512l0.339,0.895C162.409,63.528,161.234,64.027,160.096,64.564z M165.372,62.443l-0.305-0.908
			c1.212-0.408,2.461-0.773,3.711-1.088l0.234,0.929C167.786,61.686,166.561,62.044,165.372,62.443z M212.79,77.521
			c-0.297-1.188-0.738-2.359-1.309-3.476l0.854-0.435c0.605,1.182,1.071,2.42,1.386,3.68L212.79,77.521z M170.859,60.951
			l-0.198-0.937c1.251-0.265,2.534-0.484,3.811-0.654l0.126,0.95C173.345,60.475,172.087,60.692,170.859,60.951z M210.542,72.438
			c-0.14-0.21-0.284-0.417-0.432-0.621c-0.572-0.785-1.222-1.548-1.933-2.266l0.68-0.674c0.745,0.751,1.427,1.552,2.027,2.376
			c0.157,0.215,0.307,0.433,0.455,0.655L210.542,72.438z M176.484,60.097l-0.09-0.954c1.281-0.119,2.579-0.19,3.862-0.209
			l0.014,0.957C179.012,59.91,177.738,59.98,176.484,60.097z M206.804,68.277c-0.917-0.782-1.937-1.529-3.032-2.222l0.511-0.809
			c1.134,0.717,2.191,1.492,3.143,2.303L206.804,68.277z M182.168,59.9l0.024-0.957c1.281,0.031,2.58,0.115,3.859,0.248
			l-0.099,0.954C184.697,60.012,183.423,59.931,182.168,59.9z M187.83,60.382l0.139-0.948c1.281,0.189,2.56,0.431,3.802,0.722
			l-0.219,0.933C190.337,60.804,189.085,60.566,187.83,60.382z M202.147,65.095c-1.058-0.584-2.203-1.14-3.402-1.652l0.377-0.88
			c1.228,0.524,2.401,1.094,3.487,1.693L202.147,65.095z M193.388,61.559l0.258-0.921c1.242,0.347,2.472,0.749,3.68,1.202
			l-0.337,0.897C195.806,62.291,194.602,61.899,193.388,61.559z"/>
	</g>
	<g>
		<path class="st58" d="M286.62,155.263l-0.795-0.536c0.243-0.36,0.475-0.723,0.694-1.094l0.824,0.49
			C287.113,154.509,286.872,154.889,286.62,155.263z M288.273,152.404l-0.861-0.422c0.452-0.921,0.85-1.891,1.184-2.884
			c0.068-0.202,0.132-0.402,0.194-0.605l0.915,0.283c-0.064,0.21-0.132,0.42-0.202,0.628
			C289.157,150.437,288.743,151.447,288.273,152.404z M289.275,146.679c0.158-0.694,0.288-1.41,0.389-2.128
			c0.076-0.53,0.137-1.059,0.182-1.59l0.954,0.08c-0.046,0.55-0.109,1.098-0.188,1.644c-0.104,0.743-0.24,1.485-0.404,2.204
			L289.275,146.679z M289.939,141.08c0.02-1.242-0.046-2.507-0.195-3.759l0.951-0.113c0.154,1.294,0.221,2.601,0.201,3.887
			L289.939,141.08z M289.458,135.461c-0.23-1.231-0.545-2.458-0.936-3.646l0.91-0.3c0.405,1.229,0.73,2.498,0.967,3.771
			L289.458,135.461z M287.872,130.047c-0.475-1.169-1.031-2.305-1.654-3.377l0.829-0.481c0.644,1.111,1.221,2.287,1.712,3.498
			L287.872,130.047z M285.217,125.081c-0.711-1.042-1.5-2.029-2.345-2.93l0.7-0.655c0.878,0.938,1.697,1.963,2.436,3.046
			L285.217,125.081z M281.537,120.831c-0.583-0.531-1.196-1.033-1.82-1.493c-0.379-0.279-0.762-0.546-1.15-0.803l0.528-0.8
			c0.403,0.266,0.801,0.543,1.191,0.833c0.65,0.478,1.287,1.001,1.896,1.554L281.537,120.831z M276.964,117.548
			c-1.039-0.597-2.142-1.156-3.374-1.708l0.393-0.874c1.261,0.568,2.392,1.141,3.458,1.753L276.964,117.548z M271.844,115.093
			c-1.057-0.429-2.19-0.855-3.564-1.339l0.318-0.903c1.389,0.488,2.535,0.919,3.607,1.355L271.844,115.093z M266.474,113.133
			l-3.63-1.227l0.309-0.907l3.63,1.227L266.474,113.133z"/>
	</g>
	<g>
		<path class="st58" d="M262.555,111.813l-1.169-0.407l0.322-0.902l1.069,0.373c0.576-1.02,1.097-2.035,1.551-3.022l0.87,0.399
			c-0.515,1.123-1.116,2.28-1.784,3.439l-0.191,0.331L262.555,111.813z M259.578,110.742c-1.303-0.497-2.469-0.983-3.565-1.487
			l0.399-0.87c1.077,0.496,2.224,0.973,3.507,1.461L259.578,110.742z M254.27,108.409c-1.206-0.62-2.334-1.28-3.352-1.963
			l0.534-0.795c0.986,0.661,2.082,1.303,3.256,1.907L254.27,108.409z M249.339,105.305c-1.061-0.827-2.027-1.718-2.873-2.649
			l0.709-0.644c0.808,0.89,1.735,1.743,2.752,2.538L249.339,105.305z M245.219,101.141c-0.768-1.039-1.417-2.195-1.928-3.435
			l0.885-0.365c0.481,1.167,1.091,2.254,1.813,3.23L245.219,101.141z M265.958,106.469l-0.89-0.351
			c0.193-0.493,0.375-0.989,0.544-1.492c0.235-0.7,0.443-1.403,0.616-2.091l0.928,0.233c-0.179,0.714-0.394,1.442-0.637,2.164
			C266.346,105.45,266.159,105.962,265.958,106.469z M242.648,95.844c-0.362-1.291-0.565-2.601-0.603-3.892l0.957-0.028
			c0.036,1.212,0.226,2.445,0.567,3.661L242.648,95.844z M266.622,100.696c0.136-0.783,0.234-1.566,0.288-2.328
			c0.034-0.465,0.052-0.932,0.054-1.401l0.958,0.003c-0.002,0.492-0.021,0.981-0.056,1.468c-0.057,0.793-0.158,1.609-0.299,2.422
			L266.622,100.696z M242.12,89.974c0.1-0.943,0.298-1.857,0.586-2.715c0.126-0.379,0.275-0.755,0.441-1.119l0.87,0.399
			c-0.152,0.333-0.287,0.674-0.404,1.023c-0.266,0.792-0.449,1.638-0.541,2.512L242.12,89.974z M266.883,95.097
			c-0.113-1.257-0.343-2.493-0.684-3.67l0.92-0.267c0.359,1.237,0.601,2.534,0.719,3.852L266.883,95.097z M244.926,84.959
			l-0.784-0.551c0.4-0.569,0.861-1.099,1.369-1.575c0.462-0.437,0.973-0.834,1.519-1.181l0.513,0.808
			c-0.494,0.314-0.957,0.673-1.376,1.07C245.707,83.962,245.289,84.443,244.926,84.959z M265.589,89.665
			c-0.478-1.18-1.074-2.277-1.772-3.262l0.783-0.554c0.74,1.045,1.371,2.208,1.877,3.455L265.589,89.665z M249.167,81.633
			l-0.353-0.891c1.209-0.479,2.515-0.756,3.883-0.822l0.047,0.957C251.481,80.939,250.278,81.193,249.167,81.633z M262.655,84.961
			c-0.472-0.514-0.983-0.99-1.518-1.417c-0.414-0.33-0.859-0.639-1.326-0.916l0.49-0.824c0.503,0.3,0.986,0.634,1.434,0.991
			c0.574,0.458,1.12,0.968,1.625,1.516L262.655,84.961z M254.588,80.925l0.095-0.953c1.319,0.131,2.625,0.455,3.839,0.951
			l-0.361,0.887C257.025,81.349,255.814,81.048,254.588,80.925z"/>
	</g>
	<g>
		<path class="st58" d="M324.987,208.004l-0.652-0.701c0.907-0.847,1.772-1.77,2.572-2.747l0.742,0.607
			C326.822,206.172,325.926,207.128,324.987,208.004z M328.83,203.617l-0.779-0.558c0.72-1.007,1.392-2.082,1.994-3.197l0.843,0.455
			C330.265,201.466,329.574,202.576,328.83,203.617z M331.758,198.579l-0.869-0.402c0.501-1.078,0.949-2.202,1.331-3.339
			l0.055-0.166l0.913,0.291l-0.059,0.179C332.734,196.312,332.273,197.469,331.758,198.579z M332.818,192.859
			c0.325-1.207,0.587-2.45,0.78-3.695l0.947,0.147c-0.199,1.28-0.469,2.557-0.802,3.796L332.818,192.859z M333.838,187.289
			c0.125-1.25,0.186-2.521,0.178-3.774l0.957-0.006c0.009,1.287-0.052,2.592-0.182,3.875L333.838,187.289z M333.956,181.627
			c-0.073-1.257-0.216-2.521-0.424-3.755l0.945-0.158c0.212,1.268,0.359,2.565,0.435,3.855L333.956,181.627z M333.167,176.019
			c-0.277-1.233-0.624-2.455-1.032-3.632l0.904-0.313c0.419,1.211,0.778,2.468,1.063,3.735L333.167,176.019z M331.466,170.623
			c-0.475-1.149-1.021-2.297-1.624-3.412l0.842-0.454c0.619,1.144,1.18,2.321,1.667,3.502L331.466,170.623z M328.897,165.573
			c-0.649-1.065-1.365-2.117-2.127-3.126l0.764-0.578c0.78,1.035,1.514,2.114,2.18,3.204L328.897,165.573z M325.594,160.965
			c-0.804-0.965-1.663-1.904-2.556-2.79l0.674-0.679c0.913,0.907,1.794,1.868,2.616,2.856L325.594,160.965z M321.667,156.868
			c-0.926-0.844-1.905-1.66-2.91-2.424l0.58-0.762c1.026,0.782,2.028,1.616,2.975,2.478L321.667,156.868z M292.354,145.144
			l0.04-0.957c1.291,0.054,2.586,0.156,3.854,0.304l-0.111,0.952C294.894,145.297,293.622,145.197,292.354,145.144z
			 M317.226,153.329c-1.033-0.72-2.11-1.403-3.198-2.031l0.478-0.829c1.112,0.643,2.212,1.34,3.266,2.074L317.226,153.329z
			 M298.018,145.693l0.147-0.947c1.277,0.198,2.555,0.447,3.796,0.739l-0.22,0.932C300.524,146.131,299.271,145.887,298.018,145.693
			z M312.366,150.383c-1.118-0.586-2.271-1.13-3.427-1.616l0.372-0.883c1.179,0.498,2.358,1.053,3.5,1.651L312.366,150.383z
			 M303.576,146.89l0.257-0.922c0.777,0.217,1.54,0.448,2.312,0.714c0.458,0.154,0.914,0.316,1.368,0.485l-0.335,0.898
			c-0.467-0.175-0.94-0.337-1.41-0.499C305.043,147.322,304.312,147.096,303.576,146.89z"/>
	</g>
	<g>
		<path class="st58" d="M34.515,230.989l-0.225-0.092c-1.124-0.46-2.234-0.973-3.297-1.525l0.441-0.85
			c1.037,0.539,2.121,1.039,3.221,1.489l0.217,0.089L34.515,230.989z M29.295,228.436c-1.129-0.66-2.219-1.376-3.242-2.133
			l0.569-0.77c0.995,0.735,2.057,1.433,3.155,2.076L29.295,228.436z M24.526,225.102c-1.014-0.844-1.964-1.743-2.827-2.671
			l0.701-0.652c0.836,0.898,1.756,1.77,2.738,2.588L24.526,225.102z M20.422,220.96c-0.829-1.025-1.576-2.103-2.221-3.203
			l0.826-0.484c0.621,1.059,1.34,2.096,2.14,3.085L20.422,220.96z M17.281,216.034c-0.068-0.14-0.135-0.281-0.199-0.423
			c-0.474-1.034-0.871-2.124-1.181-3.237l0.923-0.257c0.295,1.064,0.676,2.104,1.128,3.093c0.061,0.134,0.125,0.27,0.19,0.403
			L17.281,216.034z M15.456,210.471c-0.237-1.267-0.373-2.574-0.401-3.884l0.958-0.021c0.027,1.259,0.156,2.514,0.385,3.729
			L15.456,210.471z M15.089,204.635c0.073-1.288,0.247-2.588,0.516-3.866l0.938,0.197c-0.26,1.231-0.428,2.484-0.497,3.723
			L15.089,204.635z M16.079,198.876c0.099-0.34,0.206-0.679,0.319-1.015c0.302-0.897,0.655-1.783,1.05-2.635l0.869,0.402
			c-0.381,0.82-0.72,1.673-1.011,2.538c-0.109,0.323-0.211,0.651-0.307,0.978L16.079,198.876z M19.172,193.957l-0.835-0.469
			c0.641-1.143,1.372-2.233,2.175-3.241l0.749,0.595C20.491,191.811,19.788,192.859,19.172,193.957z M22.489,189.426l-0.697-0.657
			c0.903-0.959,1.887-1.834,2.921-2.6l0.57,0.77C24.295,187.671,23.354,188.508,22.489,189.426z M26.836,185.894l-0.498-0.819
			c1.1-0.669,2.281-1.251,3.507-1.728l0.347,0.893C29.018,184.697,27.888,185.253,26.836,185.894z M31.965,183.636l-0.271-0.918
			c1.234-0.364,2.518-0.635,3.82-0.801l0.123,0.951C34.385,183.027,33.15,183.286,31.965,183.636z M55.609,189.515
			c-0.695-0.72-1.453-1.399-2.257-2.019l0.584-0.758c0.842,0.649,1.635,1.36,2.362,2.114L55.609,189.515z M37.507,182.699
			l-0.049-0.956c1.289-0.066,2.6-0.033,3.899,0.097l-0.095,0.953C40.01,182.668,38.746,182.637,37.507,182.699z M51.82,186.417
			c-1.039-0.667-2.153-1.259-3.31-1.758l0.378-0.879c1.206,0.519,2.367,1.136,3.449,1.832L51.82,186.417z M43.122,183.052
			l0.167-0.942c1.256,0.222,2.498,0.539,3.693,0.941l-0.222,0.936C45.526,183.571,44.331,183.267,43.122,183.052z"/>
	</g>
	<g>
		<path class="st58" d="M72.676,97.899l-0.883-0.374c0.228-0.538,0.447-1.075,0.668-1.614l0.786-1.922l0.887,0.361l-0.786,1.923
			C73.127,96.816,72.906,97.356,72.676,97.899z M74.86,92.578l-0.886-0.363c0.486-1.183,0.975-2.366,1.477-3.542l0.88,0.375
			C75.831,90.221,75.343,91.399,74.86,92.578z M77.089,87.295l-0.877-0.386c0.557-1.265,1.081-2.407,1.604-3.496l0.863,0.414
			C78.13,84.973,77.601,86.131,77.089,87.295z M79.522,82.119l-0.854-0.434c0.6-1.184,1.217-2.326,1.832-3.393l0.829,0.478
			C80.722,79.823,80.115,80.95,79.522,82.119z M82.302,77.14l-0.813-0.505c0.506-0.818,1.025-1.61,1.543-2.355
			c0.202-0.287,0.405-0.572,0.611-0.855l0.773,0.564c-0.203,0.278-0.403,0.558-0.598,0.839
			C83.311,75.558,82.801,76.336,82.302,77.14z M118.64,88.066l-0.445-0.848c0.895-0.471,1.723-1.077,2.459-1.801l0.672,0.684
			C120.52,86.89,119.617,87.551,118.64,88.066z M85.565,72.486l-0.747-0.599c0.817-1.021,1.678-2.002,2.556-2.912l0.688,0.666
			C87.204,70.529,86.364,71.487,85.565,72.486z M122.624,84.591l-0.773-0.564c0.705-0.967,1.279-2.066,1.704-3.261l0.902,0.322
			C124.002,82.369,123.385,83.549,122.624,84.591z M89.41,68.313l-0.655-0.7c0.963-0.903,1.964-1.741,2.973-2.495l0.573,0.766
			C91.319,66.618,90.347,67.434,89.41,68.313z M124.056,78.983c0.258-1.203,0.367-2.445,0.324-3.69l0.957-0.034
			c0.046,1.324-0.069,2.644-0.343,3.924L124.056,78.983z M93.846,64.801l-0.526-0.8c1.105-0.725,2.245-1.37,3.387-1.915l0.414,0.864
			C96.016,63.477,94.915,64.1,93.846,64.801z M124.203,73.446c-0.197-1.242-0.549-2.435-1.045-3.542l0.873-0.391
			c0.531,1.184,0.906,2.458,1.117,3.784L124.203,73.446z M98.844,62.199l-0.35-0.892c0.963-0.378,1.949-0.697,2.933-0.948
			c0.266-0.068,0.535-0.132,0.804-0.188l0.198,0.937c-0.257,0.055-0.512,0.115-0.766,0.18C100.719,61.53,99.77,61.836,98.844,62.199
			z M122.288,68.281c-0.109-0.17-0.221-0.339-0.339-0.504c-0.586-0.836-1.27-1.621-2.037-2.336l0.652-0.7
			c0.817,0.76,1.545,1.595,2.169,2.484c0.124,0.175,0.243,0.355,0.361,0.537L122.288,68.281z M104.278,60.798l-0.117-0.951
			c1.288-0.157,2.603-0.201,3.908-0.131l-0.051,0.956C106.768,60.605,105.509,60.648,104.278,60.798z M118.481,64.257
			c-0.505-0.371-1.042-0.72-1.598-1.039c-0.517-0.298-1.063-0.577-1.624-0.827l0.393-0.874c0.589,0.265,1.163,0.558,1.708,0.871
			c0.585,0.336,1.153,0.705,1.687,1.097L118.481,64.257z M109.881,60.854l0.135-0.947c1.304,0.185,2.586,0.487,3.808,0.896
			l-0.305,0.908C112.352,61.32,111.128,61.032,109.881,60.854z"/>
	</g>
	<g>
		<path class="st58" d="M42.357,125.025c-0.266-0.089-0.532-0.189-0.797-0.298l-0.168-0.072l0.377-0.88l0.156,0.066
			c1.104,0.456,2.223,0.726,3.394,0.827l-0.082,0.953C44.252,125.537,43.283,125.337,42.357,125.025z M39.637,123.704
			c-1.085-0.719-2.06-1.631-2.898-2.711l0.756-0.586c0.774,0.997,1.673,1.838,2.672,2.499L39.637,123.704z M47.219,125.64
			l-0.063-0.957c1.179-0.077,2.398-0.321,3.627-0.729l0.3,0.91C49.777,125.297,48.478,125.557,47.219,125.64z M35.638,119.342
			c-0.64-1.128-1.137-2.359-1.477-3.658l0.926-0.243c0.319,1.221,0.783,2.373,1.383,3.427L35.638,119.342z M52.913,124.149
			l-0.394-0.872c1.093-0.493,2.19-1.111,3.262-1.836l0.537,0.792C55.201,122.989,54.056,123.635,52.913,124.149z M33.782,113.746
			c-0.174-1.319-0.183-2.646-0.024-3.942l0.95,0.116c-0.147,1.216-0.139,2.46,0.025,3.698L33.782,113.746z M57.891,121.081
			l-0.594-0.752c0.966-0.763,1.905-1.615,2.79-2.531l0.688,0.666C59.861,119.409,58.89,120.29,57.891,121.081z M34.129,107.861
			c0.08-0.303,0.169-0.602,0.269-0.899c0.05-0.15,0.103-0.3,0.159-0.45c0.296-0.785,0.658-1.558,1.075-2.296l0.834,0.471
			c-0.392,0.695-0.734,1.422-1.012,2.163c-0.052,0.137-0.101,0.277-0.148,0.416c-0.093,0.276-0.176,0.555-0.25,0.836L34.129,107.861
			z M62.08,117.017l-0.732-0.619c0.239-0.28,0.469-0.567,0.693-0.853c0.536-0.685,1.071-1.413,1.59-2.163l0.788,0.545
			c-0.53,0.765-1.075,1.509-1.622,2.208C62.566,116.431,62.326,116.725,62.08,117.017z M37.471,103.123l-0.776-0.563
			c0.75-1.035,1.633-2.015,2.626-2.914l0.643,0.709C39.021,101.21,38.182,102.14,37.471,103.123z M65.49,112.317l-0.808-0.516
			c0.65-1.017,1.304-2.116,1.942-3.267l0.837,0.465C66.814,110.166,66.15,111.283,65.49,112.317z M41.407,99.168l-0.573-0.766
			c1.028-0.769,2.148-1.459,3.324-2.056l0.433,0.854C43.463,97.771,42.392,98.433,41.407,99.168z M68.373,107.301l-0.85-0.441
			c0.563-1.084,1.113-2.202,1.681-3.419l0.868,0.404C69.499,105.076,68.943,106.206,68.373,107.301z M46.3,96.423l-0.36-0.887
			c1.203-0.489,2.456-0.883,3.724-1.172l0.212,0.934C48.658,95.575,47.455,95.954,46.3,96.423z M70.872,102.095l-0.875-0.391
			c0.52-1.162,1.023-2.333,1.516-3.507l0.883,0.372C71.9,99.748,71.394,100.926,70.872,102.095z M51.721,94.957l-0.139-0.949
			c1.255-0.183,2.559-0.285,3.879-0.3l0.012,0.957C54.196,94.682,52.934,94.779,51.721,94.957z M57.361,94.701l0.046-0.957
			c1.253,0.061,2.551,0.193,3.859,0.394l-0.147,0.947C59.845,94.889,58.58,94.76,57.361,94.701z M62.983,95.419l0.189-0.939
			c1.216,0.246,2.48,0.556,3.756,0.921l-0.264,0.92C65.413,95.964,64.174,95.66,62.983,95.419z M72.061,98.158
			c-0.314-0.122-0.627-0.243-0.944-0.359c-0.676-0.253-1.355-0.494-2.037-0.723l-0.598-0.197l0.293-0.912l0.61,0.201
			c0.694,0.233,1.38,0.477,2.063,0.732c0.319,0.116,0.64,0.24,0.959,0.366L72.061,98.158z"/>
	</g>
	<g>
		<path class="st58" d="M58.348,177.878c-0.232-0.078-0.464-0.162-0.692-0.25l0.344-0.895c1.163,0.451,2.383,0.758,3.591,0.901
			l-0.113,0.951C60.43,178.463,59.377,178.224,58.348,177.878z M55.865,176.808c-1.147-0.608-2.239-1.353-3.246-2.214l0.624-0.728
			c0.952,0.815,1.986,1.522,3.07,2.096L55.865,176.808z M51.197,173.236c-0.901-0.958-1.699-2.012-2.369-3.132l0.822-0.491
			c0.634,1.06,1.39,2.058,2.245,2.967L51.197,173.236z M47.915,168.362c-0.551-1.215-0.955-2.476-1.196-3.748l0.94-0.179
			c0.228,1.198,0.607,2.387,1.126,3.532L47.915,168.362z M46.477,162.658l-0.005-0.096c-0.066-1.271,0.029-2.563,0.279-3.841
			l0.94,0.184c-0.237,1.203-0.325,2.416-0.264,3.605L46.477,162.658z M47.245,156.813l0.067-0.202
			c0.392-1.165,0.913-2.302,1.549-3.379l0.825,0.487c-0.603,1.021-1.097,2.096-1.467,3.198l-0.063,0.189L47.245,156.813z
			 M50.72,152.17l-0.768-0.573c0.788-1.054,1.686-2.022,2.673-2.877l0.627,0.724C52.317,150.254,51.465,151.171,50.72,152.17z
			 M54.724,148.305l-0.542-0.79c1.102-0.755,2.275-1.371,3.486-1.83l0.339,0.895C56.867,147.013,55.763,147.593,54.724,148.305z
			 M59.772,146.038l-0.215-0.933l0.167-0.039c1.166-0.264,2.381-0.415,3.714-0.46l0.034,0.957c-1.274,0.045-2.43,0.186-3.535,0.436
			L59.772,146.038z M65.352,145.568l0.034-0.958c1.117,0.04,2.342,0.142,3.855,0.322l-0.113,0.951
			C67.642,145.708,66.442,145.607,65.352,145.568z M71.021,146.127l0.126-0.95l0.521,0.07c1.091,0.145,2.182,0.291,3.269,0.407
			l-0.103,0.952c-1.095-0.118-2.194-0.264-3.293-0.411L71.021,146.127z M76.765,146.773l0.063-0.956
			c1.389,0.091,2.618,0.094,3.76,0.009l0.072,0.956C79.473,146.87,78.2,146.868,76.765,146.773z M82.605,146.542l-0.167-0.942
			c0.381-0.068,0.762-0.148,1.141-0.243c0.821-0.207,1.629-0.486,2.403-0.832l0.391,0.873c-0.823,0.37-1.685,0.668-2.56,0.887
			C83.411,146.387,83.008,146.47,82.605,146.542z M88.12,144.478l-0.499-0.817c1.036-0.633,2.016-1.405,2.912-2.296l0.676,0.679
			C90.26,142.988,89.221,143.807,88.12,144.478z M92.527,140.586l-0.745-0.604c0.767-0.945,1.459-1.994,2.055-3.115l0.845,0.45
			C94.059,138.492,93.333,139.592,92.527,140.586z M95.524,135.551l-0.883-0.374c0.218-0.515,0.421-1.051,0.603-1.593
			c0.217-0.645,0.407-1.307,0.564-1.966l0.932,0.222c-0.164,0.686-0.362,1.376-0.588,2.049
			C95.964,134.455,95.752,135.013,95.524,135.551z M96.174,129.776c0.194-1.239,0.29-2.496,0.283-3.738l0.957-0.006
			c0.008,1.293-0.092,2.602-0.293,3.892L96.174,129.776z M96.369,124.164c-0.111-1.259-0.332-2.498-0.654-3.683l0.925-0.252
			c0.336,1.239,0.566,2.533,0.683,3.849L96.369,124.164z M95.141,118.7c-0.434-1.157-0.963-2.307-1.569-3.415l0.839-0.459
			c0.628,1.148,1.175,2.339,1.626,3.539L95.141,118.7z M92.611,113.665c-0.662-1.037-1.411-2.06-2.227-3.04l0.737-0.613
			c0.841,1.011,1.614,2.066,2.297,3.137L92.611,113.665z M89.138,109.212c-0.837-0.896-1.753-1.778-2.723-2.62l0.628-0.722
			c0.995,0.863,1.936,1.767,2.795,2.689L89.138,109.212z M84.954,105.386c-0.967-0.762-2.002-1.505-3.076-2.209l0.526-0.8
			c1.097,0.719,2.154,1.479,3.143,2.257L84.954,105.386z M80.271,102.171c-1.065-0.639-2.184-1.256-3.325-1.83l0.432-0.855
			c1.163,0.586,2.302,1.213,3.387,1.865L80.271,102.171z M75.234,99.514c-1.022-0.473-2.09-0.929-3.175-1.357l0.351-0.89
			c1.101,0.433,2.188,0.897,3.227,1.378L75.234,99.514z"/>
	</g>
</g>
<g>
	<path class="st127" d="M278.277,218.842h-71.782c-2.269,0-4.109-1.84-4.109-4.109V142.95c0-2.269,1.84-4.109,4.109-4.109h71.782
		c2.269,0,4.109,1.84,4.109,4.109v71.783C282.385,217.002,280.546,218.842,278.277,218.842z"/>
	<path class="st54" d="M278.276,219.842h-71.782c-2.816,0-5.108-2.292-5.108-5.108V142.95c0-2.816,2.292-5.108,5.108-5.108h71.782
		c2.817,0,5.109,2.292,5.109,5.108v71.783C283.386,217.55,281.094,219.842,278.276,219.842z M206.494,139.842
		c-1.714,0-3.108,1.395-3.108,3.108v71.783c0,1.714,1.395,3.108,3.108,3.108h71.782c1.715,0,3.109-1.395,3.109-3.108V142.95
		c0-1.714-1.395-3.108-3.109-3.108H206.494z"/>
</g>
<g>
	<g>
		<path class="st14" d="M282.385,166.836h-80V142.95c0-2.269,1.84-4.109,4.109-4.109h71.782c2.269,0,4.109,1.84,4.109,4.109V166.836
			z"/>
	</g>
	<g>
		<path class="st54" d="M283.386,167.837h-82V142.95c0-2.816,2.292-5.108,5.108-5.108h71.782c2.817,0,5.109,2.292,5.109,5.108
			V167.837z M203.386,165.837h78V142.95c0-1.714-1.395-3.108-3.109-3.108h-71.782c-1.714,0-3.108,1.395-3.108,3.108V165.837z"/>
	</g>
</g>
<g>
	<path class="st128" d="M149.393,251.845H77.61c-2.269,0-4.109-1.84-4.109-4.109v-71.782c0-2.269,1.84-4.109,4.109-4.109h71.782
		c2.269,0,4.109,1.84,4.109,4.109v71.782C153.502,250.005,151.662,251.845,149.393,251.845z"/>
	<path class="st54" d="M149.392,252.845H77.61c-2.816,0-5.108-2.292-5.108-5.108v-71.782c0-2.817,2.292-5.109,5.108-5.109h71.782
		c2.817,0,5.109,2.292,5.109,5.109v71.782C154.502,250.553,152.21,252.845,149.392,252.845z M77.61,172.845
		c-1.714,0-3.108,1.395-3.108,3.109v71.782c0,1.714,1.395,3.108,3.108,3.108h71.782c1.715,0,3.109-1.395,3.109-3.108v-71.782
		c0-1.715-1.395-3.109-3.109-3.109H77.61z"/>
</g>
<g>
	<g>
		<path class="st14" d="M153.502,199.84h-80v-23.886c0-2.269,1.84-4.109,4.109-4.109h71.782c2.269,0,4.109,1.84,4.109,4.109V199.84z
			"/>
	</g>
	<g>
		<path class="st54" d="M154.502,200.84h-82v-24.886c0-2.817,2.292-5.109,5.108-5.109h71.782c2.817,0,5.109,2.292,5.109,5.109
			V200.84z M74.502,198.84h78v-22.886c0-1.715-1.395-3.109-3.109-3.109H77.61c-1.714,0-3.108,1.395-3.108,3.109V198.84z"/>
	</g>
</g>
<g>
	<path class="st14" d="M224.636,223.176h-94.894c-3,0-5.432-2.432-5.432-5.432V122.85c0-3,2.432-5.432,5.432-5.432h94.894
		c3,0,5.432,2.432,5.432,5.432v94.894C230.067,220.744,227.635,223.176,224.636,223.176z"/>
</g>
<g>
	<path class="st54" d="M224.636,224.176h-94.894c-3.547,0-6.432-2.885-6.432-6.432V122.85c0-3.547,2.885-6.432,6.432-6.432h94.894
		c3.547,0,6.432,2.885,6.432,6.432v94.894C231.067,221.291,228.182,224.176,224.636,224.176z M129.742,118.419
		c-2.443,0-4.432,1.988-4.432,4.432v94.894c0,2.443,1.988,4.432,4.432,4.432h94.894c2.443,0,4.432-1.988,4.432-4.432V122.85
		c0-2.443-1.988-4.432-4.432-4.432H129.742z"/>
</g>
<g>
	<g>
		<path class="st14" d="M230.067,155.169H124.31V122.85c0-3,2.432-5.432,5.432-5.432h94.894c3,0,5.432,2.432,5.432,5.432V155.169z"
			/>
	</g>
	<g>
		<path class="st54" d="M231.067,156.169H123.31V122.85c0-3.547,2.885-6.432,6.432-6.432h94.894c3.547,0,6.432,2.885,6.432,6.432
			V156.169z M125.31,154.169h103.757V122.85c0-2.443-1.988-4.432-4.432-4.432h-94.894c-2.443,0-4.432,1.988-4.432,4.432V154.169z"/>
	</g>
</g>
<g>
	<path class="st54" d="M211.127,175.298h-69.811c-0.553,0-1-0.447-1-1s0.447-1,1-1h69.811c0.553,0,1,0.447,1,1
		S211.68,175.298,211.127,175.298z"/>
</g>
<g>
	<path class="st54" d="M211.412,188.752h-69.811c-0.553,0-1-0.447-1-1s0.447-1,1-1h69.811c0.553,0,1,0.447,1,1
		S211.965,188.752,211.412,188.752z"/>
</g>
<g>
	<path class="st54" d="M181.694,202.205h-39.808c-0.553,0-1-0.447-1-1s0.447-1,1-1h39.808c0.553,0,1,0.447,1,1
		S182.247,202.205,181.694,202.205z"/>
</g>
<g>
	<path class="st54" d="M91.332,192.092c-3.445,0-6.249-2.804-6.249-6.249c0-3.446,2.804-6.25,6.249-6.25
		c1.064,0,2.116,0.272,3.041,0.789c0.482,0.269,0.655,0.878,0.386,1.36s-0.88,0.653-1.36,0.386c-0.628-0.35-1.342-0.535-2.066-0.535
		c-2.343,0-4.249,1.906-4.249,4.25c0,2.343,1.906,4.249,4.249,4.249c2.344,0,4.25-1.906,4.25-4.249c0-0.324-0.036-0.646-0.108-0.956
		c-0.124-0.538,0.211-1.075,0.749-1.2c0.539-0.123,1.075,0.211,1.2,0.749c0.105,0.458,0.159,0.931,0.159,1.407
		C97.582,189.288,94.778,192.092,91.332,192.092z"/>
</g>
<g>
	<path class="st54" d="M144.772,143.988c-4.411,0-8-3.589-8-8s3.589-8,8-8c1.363,0,2.709,0.349,3.893,1.01
		c0.482,0.269,0.655,0.878,0.386,1.36s-0.879,0.653-1.36,0.386c-0.886-0.494-1.896-0.756-2.918-0.756c-3.309,0-6,2.691-6,6
		s2.691,6,6,6s6-2.691,6-6c0-0.456-0.051-0.91-0.152-1.351c-0.124-0.538,0.213-1.074,0.751-1.198
		c0.539-0.125,1.074,0.213,1.198,0.751c0.135,0.587,0.203,1.191,0.203,1.798C152.772,140.399,149.183,143.988,144.772,143.988z"/>
</g>
<g>
	<path class="st54" d="M108.395,213.922H86.083c-0.553,0-1-0.447-1-1s0.447-1,1-1h22.312c0.553,0,1,0.447,1,1
		S108.948,213.922,108.395,213.922z"/>
</g>
<g>
	<path class="st54" d="M108.395,220.672H86.083c-0.553,0-1-0.447-1-1s0.447-1,1-1h22.312c0.553,0,1,0.447,1,1
		S108.948,220.672,108.395,220.672z"/>
</g>
<g>
	<path class="st54" d="M98.394,227.422H86.083c-0.553,0-1-0.447-1-1s0.447-1,1-1h12.312c0.553,0,1,0.447,1,1
		S98.947,227.422,98.394,227.422z"/>
</g>
<g>
	<path class="st54" d="M248.347,159.089c-3.445,0-6.249-2.804-6.249-6.25s2.804-6.25,6.249-6.25c1.062,0,2.114,0.272,3.04,0.788
		c0.482,0.269,0.656,0.878,0.388,1.36c-0.271,0.483-0.878,0.653-1.36,0.388c-0.63-0.351-1.345-0.536-2.067-0.536
		c-2.343,0-4.249,1.906-4.249,4.25s1.906,4.25,4.249,4.25c2.344,0,4.25-1.906,4.25-4.25c0-0.323-0.036-0.646-0.107-0.958
		c-0.123-0.538,0.213-1.074,0.752-1.197c0.53-0.128,1.074,0.213,1.197,0.752c0.105,0.458,0.158,0.93,0.158,1.403
		C254.597,156.285,251.794,159.089,248.347,159.089z"/>
</g>
<g>
	<path class="st54" d="M265.411,180.919h-22.312c-0.553,0-1-0.447-1-1s0.447-1,1-1h22.312c0.553,0,1,0.447,1,1
		S265.964,180.919,265.411,180.919z"/>
</g>
<g>
	<path class="st54" d="M265.411,187.669h-22.312c-0.553,0-1-0.447-1-1s0.447-1,1-1h22.312c0.553,0,1,0.447,1,1
		S265.964,187.669,265.411,187.669z"/>
</g>
<g>
	<path class="st54" d="M255.41,194.419h-12.312c-0.553,0-1-0.447-1-1s0.447-1,1-1h12.312c0.553,0,1,0.447,1,1
		S255.963,194.419,255.41,194.419z"/>
</g>
<g>
	<path class="st54" d="M208.582,136.988h-43.264c-0.553,0-1-0.447-1-1s0.447-1,1-1h43.264c0.553,0,1,0.447,1,1
		S209.135,136.988,208.582,136.988z"/>
</g>
<g>
	<circle class="st14" cx="140.317" cy="251.348" r="16.814"/>
</g>
<g>
	<circle class="st14" cx="254.364" cy="246.828" r="44.237"/>
</g>
<g>
	<circle class="st14" cx="202.938" cy="253.893" r="10.857"/>
</g>
<g>
	<path class="st54" d="M210.024,249.172c-0.553,0-1-0.447-1-1c0-25.247,20.54-45.787,45.788-45.787
		c22.718,0,42.212,16.94,45.346,39.404c0.076,0.547-0.305,1.052-0.853,1.128c-0.538,0.079-1.052-0.305-1.128-0.853
		c-2.997-21.48-21.64-37.68-43.365-37.68c-24.145,0-43.788,19.643-43.788,43.787C211.024,248.725,210.577,249.172,210.024,249.172z"
		/>
</g>
<g>
	<path class="st54" d="M332.778,242.927h-8.031v-1c0-11.161-9.081-20.242-20.242-20.242c-4.004,0-7.873,1.166-11.19,3.372
		c-0.46,0.305-1.08,0.182-1.387-0.279c-0.306-0.46-0.181-1.081,0.279-1.387c3.646-2.425,7.899-3.706,12.298-3.706
		c11.929,0,21.695,9.44,22.22,21.242h6.054c0.553,0,1,0.447,1,1S333.331,242.927,332.778,242.927z"/>
</g>
<g>
	<path class="st54" d="M193.004,258.177h-17.497c-0.553,0-1-0.447-1-1s0.447-1,1-1h15.107c-0.049-0.455-0.073-0.913-0.073-1.372
		c0-7.041,5.729-12.77,12.77-12.77c2.67,0,5.228,0.816,7.396,2.36c0.45,0.32,0.555,0.944,0.234,1.395
		c-0.32,0.448-0.945,0.554-1.395,0.234c-1.828-1.302-3.984-1.989-6.236-1.989c-5.938,0-10.77,4.831-10.77,10.77
		c0,0.732,0.073,1.463,0.218,2.172L193.004,258.177z"/>
</g>
<g>
	<path class="st54" d="M157.131,252.558c-0.553,0-1-0.447-1-1c0-8.961-7.291-16.252-16.253-16.252
		c-8.961,0-16.252,7.291-16.252,16.252v1h-10.654c-0.553,0-1-0.447-1-1s0.447-1,1-1h8.682c0.521-9.602,8.496-17.252,18.225-17.252
		c10.064,0,18.253,8.188,18.253,18.252C158.131,252.111,157.683,252.558,157.131,252.558z"/>
</g>
<g>
	<path class="st54" d="M175.507,258.177c-0.553,0-1-0.447-1-1c0-4.988-4.058-9.046-9.046-9.046c-3.011,0-5.814,1.491-7.501,3.989
		c-0.309,0.458-0.93,0.577-1.389,0.27c-0.458-0.31-0.578-0.931-0.27-1.389c2.06-3.05,5.483-4.87,9.159-4.87
		c6.091,0,11.046,4.955,11.046,11.046C176.507,257.729,176.059,258.177,175.507,258.177z"/>
</g>
<g>
	<path class="st127" d="M235.185,215.686c-7.207,6.89-11.703,16.592-11.703,27.35c0,20.9,16.943,37.843,37.843,37.843
		c7.097,0,13.736-1.958,19.412-5.357c-6.795,6.496-15.998,10.494-26.14,10.494c-20.9,0-37.843-16.943-37.843-37.843
		C216.753,234.369,224.146,222.296,235.185,215.686z"/>
</g>
<g>
	<path class="st127" d="M141.724,242.932c-6.348,0-11.494,5.146-11.494,11.494c0,1.172,0.178,2.302,0.504,3.368
		c-1.468-1.93-2.35-4.331-2.35-6.943c0-6.348,5.146-11.494,11.494-11.494c5.176,0,9.55,3.422,10.99,8.126
		C148.768,244.723,145.459,242.932,141.724,242.932z"/>
</g>
<g>
	<path class="st54" d="M108.395,252.558h-4.784c-0.553,0-1-0.447-1-1s0.447-1,1-1h4.784c0.553,0,1,0.447,1,1
		S108.948,252.558,108.395,252.558z"/>
</g>
<g>
	<path class="st54" d="M118.961,262.903H77.599c-0.553,0-1-0.447-1-1s0.447-1,1-1h41.361c0.553,0,1,0.447,1,1
		S119.514,262.903,118.961,262.903z"/>
</g>
<g>
	<path class="st54" d="M166.952,271.586H93.919c-0.553,0-1-0.447-1-1s0.447-1,1-1h73.033c0.553,0,1,0.447,1,1
		S167.505,271.586,166.952,271.586z"/>
</g>
<g>
	<g>
		<path class="st129" d="M241.892,118.195V89.874c0-1.502,1.217-2.719,2.719-2.719h22.318c1.502,0,2.719,1.217,2.719,2.719v32.4
			c0,1.502-1.217,2.719-2.719,2.719h-20.052C246.877,124.993,241.892,125.357,241.892,118.195z"/>
	</g>
	<g>
		<path class="st54" d="M246.74,125.497c-0.46,0-1.989-0.102-3.308-1.327c-1.354-1.258-2.04-3.269-2.04-5.975V89.874
			c0-1.774,1.444-3.219,3.219-3.219h22.317c1.774,0,3.219,1.444,3.219,3.219v32.4c0,1.774-1.444,3.219-3.219,3.219h-20.052
			C246.871,125.494,246.822,125.497,246.74,125.497z M244.611,87.655c-1.224,0-2.219,0.995-2.219,2.219v28.321
			c0,2.417,0.579,4.181,1.721,5.242c1.239,1.152,2.715,1.062,2.728,1.057l20.088-0.001c1.224,0,2.219-0.995,2.219-2.219v-32.4
			c0-1.224-0.995-2.219-2.219-2.219H244.611z"/>
	</g>
</g>
<g>
	<path class="st54" d="M247.103,125.493c-3.149,0-5.711-2.562-5.711-5.712V90.528h1v29.253c0,2.599,2.113,4.712,4.711,4.712
		s4.711-2.113,4.711-4.712v-2.062h1v2.062C252.814,122.931,250.253,125.493,247.103,125.493z"/>
</g>
<g>
	<path class="st14" d="M252.315,117.719h19.031c0.751,0,1.359,0.609,1.359,1.359v0c0,3.266-2.648,5.914-5.914,5.914h-19.688
		C247.103,124.993,252.315,125.709,252.315,117.719z"/>
	<path class="st54" d="M247.429,125.51c-0.229,0-0.373-0.019-0.394-0.021l0.068-0.995h0.693c0.548-0.055,1.371-0.258,2.128-0.925
		c1.254-1.104,1.89-3.071,1.89-5.849v-0.5h19.532c1.025,0,1.859,0.834,1.859,1.859c0,3.537-2.877,6.414-6.414,6.414h-18.977
		C247.67,125.506,247.539,125.51,247.429,125.51z M250.376,124.493h16.416c2.985,0,5.414-2.429,5.414-5.414
		c0-0.474-0.386-0.859-0.859-0.859h-18.539c-0.078,2.83-0.83,4.886-2.239,6.114C250.505,124.39,250.44,124.442,250.376,124.493z"/>
</g>
<g>
	<path class="st54" d="M261.604,96.296h-11.556c-0.276,0-0.5-0.224-0.5-0.5s0.224-0.5,0.5-0.5h11.556c0.276,0,0.5,0.224,0.5,0.5
		S261.881,96.296,261.604,96.296z"/>
</g>
<g>
	<path class="st54" d="M261.604,101.054h-11.556c-0.276,0-0.5-0.224-0.5-0.5s0.224-0.5,0.5-0.5h11.556c0.276,0,0.5,0.224,0.5,0.5
		S261.881,101.054,261.604,101.054z"/>
</g>
<g>
	<path class="st54" d="M261.604,105.811h-8.836c-0.276,0-0.5-0.224-0.5-0.5s0.224-0.5,0.5-0.5h8.836c0.276,0,0.5,0.224,0.5,0.5
		S261.881,105.811,261.604,105.811z"/>
</g>
<g>
	<path class="st54" d="M257.525,110.57h-4.757c-0.276,0-0.5-0.224-0.5-0.5s0.224-0.5,0.5-0.5h4.757c0.276,0,0.5,0.224,0.5,0.5
		S257.802,110.57,257.525,110.57z"/>
</g>
<g>
	<path class="st54" d="M272.479,107.851c-0.276,0-0.5-0.224-0.5-0.5V94.813c0-0.276,0.224-0.5,0.5-0.5s0.5,0.224,0.5,0.5v12.538
		C272.979,107.628,272.756,107.851,272.479,107.851z"/>
</g>
<g>
	<path class="st54" d="M272.479,114.572c-0.276,0-0.5-0.224-0.5-0.5v-2.981c0-0.276,0.224-0.5,0.5-0.5s0.5,0.224,0.5,0.5v2.981
		C272.979,114.349,272.756,114.572,272.479,114.572z"/>
</g>
<g>
	<circle class="st14" cx="241.892" cy="108.541" r="6.771"/>
	<path class="st54" d="M241.892,115.811c-4.009,0-7.271-3.262-7.271-7.271s3.262-7.271,7.271-7.271s7.271,3.262,7.271,7.271
		S245.901,115.811,241.892,115.811z M241.892,102.27c-3.458,0-6.271,2.812-6.271,6.271s2.812,6.271,6.271,6.271
		s6.271-2.812,6.271-6.271S245.35,102.27,241.892,102.27z"/>
</g>
<g>
	<path class="st54" d="M245.171,107.733c-0.014-0.042-0.05-0.074-0.095-0.08l-2.128-0.309l-0.952-1.928
		c-0.019-0.04-0.06-0.066-0.105-0.066c-0.045,0-0.086,0.025-0.106,0.066l-0.952,1.928l-2.128,0.309
		c-0.044,0.006-0.081,0.037-0.095,0.08c-0.014,0.042-0.002,0.09,0.03,0.121l1.54,1.501l-0.364,2.12
		c-0.008,0.044,0.01,0.088,0.047,0.115c0.036,0.026,0.084,0.03,0.124,0.009l1.903-1l1.903,1c0.017,0.009,0.036,0.014,0.055,0.014
		c0.024,0,0.049-0.007,0.069-0.022c0.036-0.026,0.055-0.071,0.047-0.115l-0.364-2.119l1.54-1.501
		C245.174,107.823,245.186,107.776,245.171,107.733L245.171,107.733z M245.171,107.733"/>
</g>
<g>
	<path class="st130" d="M29.519,262.684h30.039c1.549,0,2.805-1.256,2.805-2.805V226.45c0-1.549-1.256-2.805-2.805-2.805H36.532
		c-1.549,0-2.805,1.256-2.805,2.805v30.836C33.727,257.287,34.252,262.684,29.519,262.684z"/>
	<path class="st131" d="M24.377,257.073V245.19c0-2.582-2.093-4.675-4.675-4.675h0c-2.582,0-4.675,2.093-4.675,4.675v3.468h4.675"/>
	<path class="st132" d="M19.702,240.514h14.026v17.495c0,2.582-2.093,4.675-4.675,4.675h0c-2.582,0-4.675-2.093-4.675-4.675v-4.87
		v-7.949C24.377,245.19,24.143,240.514,19.702,240.514z"/>
	<line class="st133" x1="42.084" y1="235.801" x2="54.006" y2="235.801"/>
	<line class="st133" x1="42.084" y1="240.71" x2="54.006" y2="240.71"/>
	<line class="st133" x1="42.084" y1="245.619" x2="54.006" y2="245.619"/>
	<line class="st133" x1="42.084" y1="250.528" x2="49.798" y2="250.528"/>
	<line class="st133" x1="65.226" y1="227.774" x2="65.226" y2="240.71"/>
	<line class="st133" x1="65.226" y1="244.567" x2="65.226" y2="247.644"/>
</g>
<g>
	<path class="st60" d="M114.486,125.407c-0.789,0.558-1.627,1.042-2.506,1.447c0.824-1.17,1.344-2.533,1.504-3.969
		c0.046-0.41-0.439-0.658-0.746-0.382c-1.13,1.02-2.398,1.87-3.768,2.525c-0.079,0.038-0.163,0.066-0.251,0.084
		c-0.263,0.053-0.538,0.007-0.775-0.13c-1.808-1.044-3.933-1.392-5.984-0.98c-0.888,0.179-1.756,0.497-2.581,0.948
		c-2.555,1.393-4.207,4.065-4.308,6.971c-0.038,1.09,0.104,2.145,0.424,3.135c0.036,0.114-0.003,0.206-0.029,0.251
		c-0.046,0.079-0.123,0.134-0.21,0.152l-0.03,0.005c-6.078,0.645-12.036-1.147-16.778-5.046c-0.241-0.199-0.608-0.095-0.709,0.201
		c-0.487,1.428-0.587,2.968-0.287,4.455c0.458,2.278,1.806,4.242,3.711,5.488c-0.701-0.024-1.399-0.144-2.067-0.357
		c-0.324-0.103-0.639,0.177-0.577,0.511c0.64,3.394,3.229,6.007,6.47,6.766l-0.179,0.038c-0.471,0.094-0.956,0.146-1.444,0.15
		c-0.34,0.003-0.553,0.369-0.388,0.666c1.57,2.815,4.607,4.511,7.808,4.391c-2.226,2.245-5.039,3.759-8.157,4.386l-0.972,0.195
		c-0.3,0.06-0.513,0.307-0.532,0.612c-0.017,0.301,0.182,0.575,0.467,0.672c3.925,1.339,8.151,1.613,12.222,0.794
		c3.563-0.717,6.754-2.094,9.485-4.095c2.502-1.834,4.573-4.152,6.156-6.89c1.474-2.551,2.464-5.352,2.943-8.327
		c0.457-2.836,0.412-5.754-0.128-8.439l-0.025-0.128c-0.087-0.431,0.026-0.876,0.311-1.221c1.08-1.308,1.957-2.769,2.604-4.341
		C115.33,125.528,114.853,125.147,114.486,125.407z"/>
	<path class="st54" d="M89.176,160.347c-2.625,0-5.244-0.43-7.743-1.282c-0.504-0.171-0.836-0.653-0.806-1.175
		c0.032-0.536,0.407-0.967,0.933-1.073l0.973-0.194c2.622-0.527,5.03-1.708,7.031-3.438c-2.909-0.3-5.578-2.021-7.021-4.606
		c-0.165-0.296-0.161-0.646,0.009-0.938c0.094-0.16,0.228-0.286,0.385-0.366c-2.524-1.245-4.372-3.621-4.908-6.466
		c-0.062-0.333,0.052-0.664,0.305-0.888c0.252-0.224,0.593-0.293,0.916-0.192c0.055,0.018,0.109,0.034,0.164,0.051
		c-1.243-1.248-2.094-2.834-2.451-4.606c-0.317-1.573-0.212-3.203,0.304-4.715c0.102-0.296,0.342-0.522,0.643-0.606
		c0.297-0.086,0.62-0.017,0.859,0.182c4.578,3.765,10.314,5.518,16.185,4.956c-0.289-0.975-0.417-2.014-0.38-3.086
		c0.108-3.082,1.858-5.915,4.568-7.393c0.869-0.475,1.784-0.811,2.722-0.999c2.171-0.435,4.418-0.067,6.332,1.037
		c0.132,0.076,0.281,0.104,0.426,0.073c0.046-0.009,0.091-0.024,0.133-0.044c1.327-0.635,2.555-1.458,3.65-2.446
		c0.296-0.266,0.715-0.319,1.069-0.139c0.354,0.183,0.553,0.555,0.508,0.949c-0.103,0.923-0.35,1.826-0.726,2.673
		c0.321-0.193,0.636-0.398,0.943-0.615c0.347-0.248,0.804-0.234,1.139,0.032c0.333,0.267,0.447,0.709,0.284,1.104
		c-0.664,1.615-1.566,3.118-2.68,4.468c-0.188,0.228-0.264,0.521-0.207,0.804l0.025,0.131c0.553,2.739,0.598,5.719,0.133,8.615
		c-0.489,3.035-1.5,5.894-3.005,8.497c-1.616,2.799-3.733,5.168-6.292,7.044c-2.792,2.044-6.049,3.451-9.683,4.182
		C92.348,160.189,90.761,160.347,89.176,160.347z M92.034,152.178l-0.892,0.899c-2.295,2.315-5.204,3.88-8.414,4.525l-0.973,0.194
		c-0.075,0.016-0.126,0.074-0.131,0.152c-0.004,0.069,0.052,0.142,0.129,0.168c3.841,1.311,7.976,1.578,11.962,0.777
		c3.49-0.702,6.615-2.051,9.289-4.008c2.445-1.793,4.471-4.06,6.018-6.737c1.443-2.498,2.413-5.241,2.883-8.155
		c0.446-2.78,0.403-5.637-0.126-8.262l-0.025-0.131c-0.117-0.578,0.035-1.175,0.416-1.636c1.012-1.226,1.838-2.587,2.458-4.048
		c-0.775,0.535-1.595,1.002-2.439,1.39l-1.687,0.775l1.068-1.518c0.778-1.104,1.268-2.396,1.416-3.735
		c-1.08,1.096-2.388,1.973-3.801,2.648c-0.116,0.056-0.241,0.098-0.369,0.123c-0.382,0.076-0.783,0.01-1.124-0.189
		c-1.7-0.981-3.701-1.308-5.633-0.921c-0.839,0.169-1.659,0.47-2.44,0.896c-2.401,1.311-3.952,3.82-4.047,6.551
		c-0.036,1.034,0.098,2.031,0.399,2.963c0.069,0.225,0.042,0.462-0.073,0.658c-0.117,0.201-0.314,0.344-0.543,0.39
		c-6.284,0.669-12.379-1.159-17.225-5.146c-0.377,1.321-0.471,2.771-0.188,4.172c0.432,2.141,1.673,3.976,3.495,5.167l1.5,0.98
		l-1.791-0.062c-0.752-0.026-1.493-0.154-2.201-0.38c0.658,3.084,3.05,5.585,6.158,6.312l2.177,0.51l-2.365,0.505
		c-0.514,0.103-1.031,0.156-1.543,0.161c1.51,2.548,4.375,4.188,7.396,4.057L92.034,152.178z M114.771,125.811l0.004,0.003
		l-0.289-0.407L114.771,125.811z"/>
</g>
<circle class="st61" cx="257.525" cy="242.927" r="20.002"/>
<path class="st54" d="M257.525,263.89c-11.559,0-20.963-9.404-20.963-20.963c0-11.56,9.404-20.963,20.963-20.963
	c11.56,0,20.963,9.403,20.963,20.963C278.488,254.485,269.085,263.89,257.525,263.89z M257.525,223.887
	c-10.499,0-19.04,8.541-19.04,19.04s8.541,19.04,19.04,19.04c10.498,0,19.04-8.541,19.04-19.04S268.023,223.887,257.525,223.887z"/>
<path class="st14" d="M263.037,235.162h-2.905c-0.478,0-1.147,0.238-1.147,1.252v2.705h4.042l-0.474,4.591h-3.568v13.074h-5.407
	V243.71h-2.571v-4.597h2.571v-2.973c0-2.126,1.01-5.456,5.456-5.456l4.004,0.017V235.162z"/>
</svg>
