<?xml version="1.0" encoding="utf-8"?>
<!-- Generator: Adobe Illustrator 23.0.3, SVG Export Plug-In . SVG Version: 6.00 Build 0)  -->
<svg version="1.1" id="Layer_1" xmlns="http://www.w3.org/2000/svg" xmlns:xlink="http://www.w3.org/1999/xlink" x="0px" y="0px"
	 viewBox="0 0 614.2 310.2" style="enable-background:new 0 0 614.2 310.2;" xml:space="preserve">
<title>bg02</title>
<g>
	<g id="Layer_1-2">
		<path style="opacity:0.8;fill:#FFFFFF;enable-background:new    ;" d="M331.5,195.1v-21.9h30.8v20.4L331.5,195.1z M369.2,192.9
			l13-1v-18.7h-13V192.9z"/>

			<radialGradient id="SVGID_1_" cx="93.61" cy="680.07" r="30.52" fx="120.7438" fy="666.1104" gradientTransform="matrix(1 0 0 1 0 -648.1)" gradientUnits="userSpaceOnUse">
			<stop  offset="0.31" style="stop-color:#ECEDEE"/>
			<stop  offset="0.63" style="stop-color:#EFF0F1"/>
			<stop  offset="0.91" style="stop-color:#FAFAFB"/>
			<stop  offset="1" style="stop-color:#FFFFFF"/>
		</radialGradient>
		<path style="opacity:0.4;fill:url(#SVGID_1_);enable-background:new    ;" d="M85.9,0c-14.2-0.2-25.8,11.2-26,25.4
			s11.2,25.8,25.4,26s25.8-11.2,26-25.4c0,0,0-0.1,0-0.1C111.4,11.7,100.1,0.1,85.9,0z"/>

			<radialGradient id="SVGID_2_" cx="293.32" cy="132.15" r="252.64" gradientTransform="matrix(1 0 0 -1 0 312)" gradientUnits="userSpaceOnUse">
			<stop  offset="0" style="stop-color:#EFF0F1;stop-opacity:0.7"/>
			<stop  offset="0.46" style="stop-color:#EFF0F1;stop-opacity:0.71"/>
			<stop  offset="0.63" style="stop-color:#F1F1F2;stop-opacity:0.73"/>
			<stop  offset="0.75" style="stop-color:#F3F4F4;stop-opacity:0.77"/>
			<stop  offset="0.84" style="stop-color:#F6F6F7;stop-opacity:0.83"/>
			<stop  offset="0.92" style="stop-color:#FAFAFA;stop-opacity:0.9"/>
			<stop  offset="1" style="stop-color:#FFFFFF;stop-opacity:0.99"/>
			<stop  offset="1" style="stop-color:#FFFFFF"/>
		</radialGradient>
		<path style="opacity:0.6;fill:url(#SVGID_2_);enable-background:new    ;" d="M608.5,240.9c-1.7-1-1.2-21.2-3-21.9
			c-3.4-1.4-6.8-2.6-10.2-3.8c-1.3-0.5-1.9-1-2-2.5c-0.4-4-0.9-8.1-1.6-12c-0.9-5.6-2.9-10.9-5.8-15.7c-5.4-8.5-16-7.6-21.1-3.5
			c-2.1,1.8-3.9,3.9-5.3,6.3c-0.5,0.7-0.9,1.5-1.3,2.3c-0.8-2.9-1.4-5.4-2.1-7.8c-1.6-6.1-4-11.9-7.1-17.4c-2-3.3-4.2-6.3-7.5-8.4
			c-4.8-3-9.8-2.2-13.4,2.2c-1.8,2.3-3.2,5-4,7.8c-1.7,5.2-2.8,10.7-3.1,16.2c-0.1,1.1-0.2,2.1-0.3,3.3c-0.4-0.1-0.5-0.2-0.6-0.2
			c-0.5-0.6-0.9-1.2-1.3-1.9c-2.8-4.1-7.1-7-12-8c-4.6-1.1-7.6,0.1-10.2,4.2c-0.8,1.2-1.5,2.5-1.9,3.9c-0.8,2.8-1.5,5.6-2.2,8.5
			c-0.4,1.7-0.5,3.5-0.8,5.3c-13.4-1.2-26.7-2.3-40-3.5v-11.1c6.2-2.2,12.4-4.4,18.7-6.7c-0.2-3.2-0.5-6.1-0.7-9
			c0.2,0,0.3-0.1,0.5-0.1c1.9,3,3.8,5.9,5.8,9.1c4.3-1,8.6-2,12.9-3.1c-6.1-20.7-12-41-18-61.5h-5.7c1.6-1.4,2.7-2.5,3.9-3.4
			c1.5-1.1,1.7-2.2,1.2-4c-4.1-14-8.2-28-12.2-42c-0.7-2.6-1.7-4.6-4.5-5.3c-0.4-0.1-0.7-0.3-1-0.6c0.2-1.1,0.6-2.2,1-3.2
			c0.7-1.8,0.8-3.9,0.1-5.7c-1.9-6.2-3.6-12.4-5.3-18.7c-0.2-0.7-0.5-1.3-0.8-2.2c-0.3,0.7-0.4,1-0.5,1.3
			c-1.7,7.2-3.5,14.4-5.1,21.7c-0.1,1,0,2,0.3,3c0.6,2.2,1.4,4.4,2.3,6.8c-1.6,0.1-2.9,0.2-4.4,0.4c-0.7,2.8-1.5,5.6-2.2,8.3
			c-2.9,11.2-5.8,22.4-8.8,33.6c-0.4,1.5-0.2,2.4,1,3.3c1,0.8,1.9,1.7,3,2.7c-1.4,1-2.9,2-4.4,2.8c-1.3,0.7-2.2,2-2.5,3.4
			c-3.1,11.2-6.2,22.4-9.4,33.7c-0.4,1.5-0.9,2.9-1.4,4.8c-0.9-0.9-1.6-1.5-2.2-2.2c-13.8-13.9-27.7-27.8-41.5-41.7
			c-1.2-1.4-3-2.2-4.9-2.1c-8.3,0.1-16.6,0-24.9,0h-2.8v-0.1h-23.9v0.1h-66.9c-1.6-0.1-3.3,0.5-4.4,1.7
			c-16.4,15.5-32.9,31-49.4,46.5c-0.6,0.6-1.1,1.2-1.6,1.9l0,0c-0.5-0.3-1.1-0.4-1.4-0.8c-0.7-0.9-1.3-1.8-1.8-2.8
			c-0.7-1.2-1.8-2.2-3.1-2.6c-1.4-0.5-2.8-1-4.1-1.6c2.3-1.3,4.1-2.4,6-3.5c-3.9-11.2-7.8-22.1-11.7-33.3h-6.1
			c1-2.5,1.9-4.6,2.8-6.7c0.6-1.2,0.6-2.5,0.1-3.7c-3.4-8.5-6.8-17-10.1-25.5c-0.2-0.5-0.5-1-0.8-1.7c-0.2,0.4-0.4,0.8-0.6,1.2
			c-3.5,9.6-7,19.1-10.6,28.6c-0.4,1-0.2,2.1,0.6,2.8c1.4,1.5,2.7,3,4.2,4.9c-2.1,0.1-3.7,0.2-5.4,0.3c-2.4,10-4.8,19.8-7.1,29.6
			c2.4,0.8,4.4,1.5,7,2.5c-2.3,0.8-4,1.6-5.7,2.1c-1.4,0.4-2.6,1.4-3,2.8c-3.2,8-6.5,16-9.7,24c-0.2,0.6-0.4,1.3-0.7,2
			c1.7,1,3.2,1.8,4.9,2.8c2-2.2,3.8-4.3,5.7-6.3c0.1,0.1,0.3,0.2,0.4,0.3c-0.1,2.2-0.3,4.4-0.4,6.7c6.7,1.6,13.2,3.2,19.6,4.7v4.9
			c-11.5,0.4-22.9,0.7-34.2,1.1c-0.6-1.1-1-1.9-1.5-2.7c-3.6-5.8-7-11.7-11-17.2c-7-9.9-15.8-18.4-26.1-24.9
			c-16.2-10.2-33.7-13.3-52.4-8.6c-12.3,3.1-22.7,9.6-31.8,18.2c-0.9,0.9-1.8,1.7-2.7,2.6L0,281.2c9.7,0.9,19.4,1.7,29.1,2.5
			c17,1.3,33.9,2.5,50.9,3.4c17.8,1,35.7,1.8,53.6,2.3c31,0.8,62,1.5,93,1.8c35.4,0.4,70.8-0.1,106.2-1.3c23-0.8,46.1-1.6,69.1-2.8
			c19.2-1,38.4-2.3,57.6-3.9c18.1-1.5,36.1-3.3,54.1-5.3c21.2-2.2,42.3-5.7,63.1-10.3c8.2-1.7,16.2-4.1,24-7.2
			c2.5-1.1,5-2.3,7.4-3.6c2.5-1.3,4.6-3.3,6.1-5.7V247C613.1,244.3,611.1,242.2,608.5,240.9z M206.5,186.8c-1.7,0.6-30.1,1.3-36,0.9
			v-4.6c3.7-1.3,7.5-2.7,11.5-4.1c-0.2-1.7-0.3-3.2-0.5-5.1c1.9,0.9,3.6,1.6,5.3,2.4c2,0.9,3.9,2.4,5.9,2.4s4-1.3,6.1-2
			c1.4-0.5,2.9-1.1,4.5-1.7c-0.5-0.9-0.8-1.5-1.2-2.2c-2.8-4.6-5.6-9.1-8.3-13.7c-0.5-0.8-1.3-1.5-0.6-2.5c1.7,0.2,3.3,0.5,5,0.7
			c0.4,0,0.9,0.1,1.3,0.1c0.7-0.1,1.4-0.5,1.9-1.1c1.7-1.5,3.2-3,5.2-4.8L206.5,186.8L206.5,186.8z M441.3,193.4l-43.8-2.7v-31.4
			h15.8c-1.3,4.7-2.5,9.2-3.8,13.9c5.5,1.6,10.8,3.1,16.1,4.7s10.4,3,15.7,4.5L441.3,193.4L441.3,193.4z"/>
		<path style="opacity:0.5;fill:#E2E2E2;enable-background:new    ;" d="M420.6,159.3H292l-44.2-45.7l-41.4,38.1l-6.4,5.9l-2-0.3
			l-5-0.7v-0.1c0.5-0.6,1-1.3,1.6-1.9c16.5-15.5,33-31,49.4-46.5c1.2-1.1,2.8-1.8,4.4-1.7h93.2c8.3,0,16.6,0.1,24.9,0
			c1.9-0.1,3.7,0.7,4.9,2.1c13.8,13.9,27.6,27.8,41.5,41.7l2.2,2.2L420.6,159.3z"/>
		<path style="opacity:0.1;fill:#A2A3A3;enable-background:new    ;" d="M341.5,94.6v3.3c-1,0.1-1.8,0.2-2.7,0.3v8.2h-23.5v-8.1
			c-0.7-0.2-1.4-0.3-2.3-0.5v-3.1C314.9,94.1,338.7,94,341.5,94.6z"/>
		<g style="opacity:0.77;">
			<g id="Layer_2-2">
				<g style="opacity:0.35;">
					<ellipse cx="306.3" cy="293.2" rx="33.8" ry="17"/>
				</g>
				<g style="opacity:0.35;">
					<ellipse cx="359.3" cy="277.3" rx="38.3" ry="15.9"/>
				</g>
				<g style="opacity:0.35;">
					<ellipse cx="239.6" cy="271.7" rx="38.5" ry="12.9"/>
				</g>
				<path style="fill:#333333;stroke:#444444;stroke-miterlimit:10;" d="M288,250.4c0,0-1.8,6.5-5.4,10.1s-15.8-2.7-14-8.1
					s2.4-6.3,4.3-8.6s5.2-7,11.5-3.9C286,240.7,289.3,246.4,288,250.4z"/>
				<path style="fill:#545454;stroke:#333333;stroke-linecap:round;stroke-linejoin:round;" d="M271.1,255.2c0,0-3.3-2.3,1.4-8.6
					s7-7.8,9-6.7C281.5,239.9,271.9,246.2,271.1,255.2z"/>
				<path style="fill:#545454;stroke:#333333;stroke-linecap:round;stroke-linejoin:round;" d="M283.7,240.2c0,0,2.1,0.7,0.9,4.3
					s-3.1,7-4.2,6.2s-2.5-2.9-1.2-6.1S282.1,240.2,283.7,240.2z"/>
				<path style="fill:#CEAA6A;stroke:#4C4C4C;stroke-linecap:round;stroke-linejoin:round;" d="M288.5,236.3
					c0,0-14.3,14.3-14.3,28.2s24.1,5.3,24.1,5.3s2.9-12.7,4-11.6s2.1,12.4,2.1,12.4s21.8,4.8,24.4-2.4s-0.4-20.3-6.2-28.3
					C316.9,231.7,288.5,236.3,288.5,236.3z"/>
				<path style="fill:#9B7A45;" d="M291.8,237.2c0,0-10.1,9.1-15.1,18.3l1.1-3.7c0,0,9.2-14.2,12.5-16.4L291.8,237.2z"/>
				<path style="fill:#9B7A45;" d="M311.5,238.7l-3.9-1c0,0-0.1,11.3-1.5,13.8C306.1,251.5,309.3,247.3,311.5,238.7z"/>
				<path style="fill:#54754B;stroke:#000000;stroke-linecap:round;stroke-linejoin:round;" d="M315,256.5L315,256.5
					c0.1-0.1,0.1-0.3,0.1-0.4C314.8,256.2,314.7,256.3,315,256.5z"/>
				<path style="fill:#54754B;stroke:#000000;stroke-linecap:round;stroke-linejoin:round;" d="M316,260.3c-0.3-0.1-0.5-0.2-0.8-0.3
					l0.1,3.2C317.2,262.6,318.3,261.7,316,260.3z"/>
				<path style="fill:#B6936B;stroke:#3A3A3A;stroke-linecap:round;stroke-linejoin:round;" d="M387.9,183.7l-7.5,27.7
					c0,0-27.5,2.9-31,6.2l5.8-27.6C355.1,189.9,371.5,188.2,387.9,183.7z"/>
				<path style="fill:#DBB88E;stroke:#3A3A3A;stroke-linecap:round;stroke-linejoin:round;" d="M387.9,183.7c0,0,4.3-1.7,13.2-0.1
					c0,0-6.1,17.9-6.6,30.5c0,0-11.4-2.4-14-2.2L387.9,183.7z"/>
				<path style="fill:#DBB88E;stroke:#3A3A3A;stroke-linecap:round;stroke-linejoin:round;" d="M383.9,166.7c0,0,2.9,13.9,4,17
					c-10.6,3.4-21.7,5.4-32.8,6.2c0,0,0.2-13.8-2-17.1C384.4,167.9,379,168.7,383.9,166.7z"/>
				<path style="fill:#DBB88E;stroke:#3A3A3A;stroke-linecap:round;stroke-linejoin:round;" d="M349.3,217.5l5.4-28.1
					c0,0-8.9-4-15.1-7.5l-6.9,36.5C332.7,218.4,343.3,219.3,349.3,217.5z"/>
				<path style="fill:#DBB88E;stroke:#3A3A3A;stroke-linecap:round;stroke-linejoin:round;" d="M390,220.8l-9.9-9.4
					c0,0-5.2-0.9-30.7,6.1c0,0,5,13.5,5.4,14.8C354.7,232.4,365.4,225.5,390,220.8z"/>
				<path style="fill:#8C694D;stroke:#3A3A3A;stroke-linecap:round;stroke-linejoin:round;" d="M355.1,189.9l-25-23.1
					c0,0-6.2,29-5.6,33l10,8.8l5.1-26.7L355.1,189.9z"/>
				<path style="fill:#B6936B;stroke:#3A3A3A;stroke-linecap:round;stroke-linejoin:round;" d="M355.1,189.9l-25-23.1
					c0,0,22.2-1.3,35.9-0.8l5.4,3.8l-18.2,3C353.1,172.8,355.5,175.2,355.1,189.9z"/>
				<path style="fill:#8C694D;" d="M380.2,211l-19.5-17.1l-6.8,1.7l1-5.3l7.1-0.7l10.1-0.9c0,0-1.7,7.7,10.7,11.5L380.2,211z"/>
				<polyline style="fill:none;stroke:#3A3A3A;stroke-linecap:round;stroke-linejoin:round;" points="380.2,211 360.7,193.9
					354,195.7 				"/>

					<line style="fill:none;stroke:#3A3A3A;stroke-linecap:round;stroke-linejoin:round;" x1="362.1" y1="189.6" x2="360.7" y2="193.9"/>

					<ellipse transform="matrix(0.9045 -0.4264 0.4264 0.9045 -45.7611 147.6174)" style="fill:#FFEAD4;stroke:#565656;stroke-miterlimit:10;" cx="306.8" cy="176" rx="20" ry="25"/>
				<path d="M300.1,170.9c13.5-4.2,12.5-12.8,12.5-12.8c2.1,1.5,0.8,4.3,0.8,4.3l0.5-0.1c2.2-0.7,4.6,0,6.1,1.7
					c0.3,0.3,0.5,0.6,0.7,1c3,4.4,5.1,3.5,5.1,3.5l0.3-5.2c-2-26.4-20.2-22.4-20.2-22.4c-0.2-2.4,1.9-1.4,1.9-1.4
					c-1-0.8-2.5-0.7-3.3,0.3c-0.1,0.1-0.2,0.2-0.2,0.4c-0.9-3,2.4-3.4,2.4-3.4c-4.5,0.1-4.5,3.1-4.5,3.1c-1.3-3.1-4.6-1.9-4.6-1.9
					c3.8,0.9,3.1,2.7,3.1,2.7c-3.1-0.4-9.6,2.6-9.6,2.6c-20.7,10.9-10.1,30.8-10.1,30.8l5.9,9.6c0,0,2.3-1.5,0.6-3.3s-0.7-6.3,0-7.4
					c1.3-2,4.8-3.7,4.8-3.7c0.2,1.9-1.9,3.5-1.9,3.5c3.5-0.7,6.7-5.4,6.7-5.4c0.5,2.9-3,5.4-3,5.4c4.2-0.8,7.8-3.5,9.7-7.4
					C304.8,166.9,300.1,171,300.1,170.9"/>
				<path style="fill:#FFEAD4;stroke:#565656;stroke-miterlimit:10;" d="M307.2,200.1c0,0,1.8,4.3,7.1,2.9s6.2-3.6,6.2-3.6
					c0.4-0.7,0.5-1.6,0.2-2.4C320.7,197,314.6,201.6,307.2,200.1z"/>
				<path style="fill:#D6696E;stroke:#4C4C4C;stroke-linecap:round;stroke-linejoin:round;" d="M307.8,201.1c0,0-18.1-9.8-13.3,6.3
					s-6.4,25.1-6,28.8c0,0,31.4,12.4,35.2,0l7.1-30.2c0,0-5.3-9.9-10.3-6.7C317.6,201.3,311.8,205.6,307.8,201.1z"/>
				<path style="fill:#D6696E;stroke:#4C4C4C;stroke-linecap:round;stroke-linejoin:round;" d="M297.7,199.7
					c4.7,1.7,17.6,6,20.1,5.8c0,0,3.8,7-1.2,15.5c0,0-12.8-2-18.7-8.9c-4-4.8-4.7-8.9-3.8-11.2C294.5,199.4,296.3,199.2,297.7,199.7
					z"/>
				<path style="fill:#FFEAD4;stroke:#565656;stroke-linecap:round;stroke-linejoin:round;" d="M351.4,206c-1.2,0.8-2.5,1.4-3.9,1.8
					c-1.3,0.5-2.8,0.6-4.2,0.3c0,0-13.2,14.9-26,11.3c2-3.8,2.5-8.3,1.4-12.5c0,0,7.5,3.5,21.6-5.6c0,0,1.8-6.2,5.2-7.1
					c4.1-1.1,6-0.3,6-0.3s-0.1-0.3,2.1,0.4c1.2,0.3,1.2,2.9,0.5,2.7c-1.3-0.3-2.6-0.5-3.9-0.4c-0.9,0-1.9,0-2.8,0.2
					c0,0,0.3-1.3,6.7,0.2c0.6,0.7,0.9,1.6,0.8,2.5c-0.2,0.9-1.7,0.4-1.7,0.4c-1.8-0.2-3.7-0.3-5.5-0.1c2.1,0.1,4.3,0.3,6.4,0.7
					c0,0,1.4,1.5,0,2.6l-4.8-0.1c0,0,3.4,0.6,4.8,0.1c0.3,0.9-0.1,1.9-1,2.4C352.6,205.9,352,206,351.4,206z"/>
				<path style="fill:none;stroke:#000000;stroke-linecap:round;stroke-linejoin:round;" d="M298.3,184c2.1-1.5,4.5-2.4,7-2.7"/>
				<path style="fill:none;stroke:#000000;stroke-linecap:round;stroke-linejoin:round;" d="M301.4,185.2c1-0.6,2.1-1,3.3-1.2"/>
				<path d="M303.3,181.2L303.3,181.2c-0.9,0.6-1.9,1-3,1.1v0.4c0,1,0.8,1.9,1.8,1.9c1,0,1.9-0.8,1.9-1.8l0,0
					C304,182.2,303.8,181.6,303.3,181.2z"/>
				<path style="fill:none;stroke:#000000;stroke-linecap:round;stroke-linejoin:round;" d="M311.3,179.5c2.1-1.4,4.6-2.2,7.1-2.4"
					/>
				<path style="fill:none;stroke:#000000;stroke-linecap:round;stroke-linejoin:round;" d="M314.4,180.8c1-0.5,2.1-0.9,3.3-1"/>
				<path d="M316.4,176.9L316.4,176.9c-0.9,0.6-1.9,0.9-3,0.9c0,0.1-0.1,0.3-0.1,0.4c0,1,0.8,1.9,1.8,1.9c1,0,1.9-0.8,1.9-1.8l0,0
					C317,177.8,316.8,177.3,316.4,176.9z"/>
				<path style="fill:none;stroke:#565656;stroke-linecap:round;stroke-miterlimit:10;" d="M307.2,180.8c0.6-0.8,1.6-1.2,2.6-1"/>
				<path style="fill:none;stroke:#565656;stroke-linecap:round;stroke-miterlimit:10;" d="M307.7,181.9c0.2-0.9,1.2-1.5,2.1-1.3
					c0.1,0,0.2,0.1,0.3,0.1"/>
				<path style="fill:#565656;" d="M311.8,193.7c-0.1-0.5,0.3-1,0.9-1.1c0,0,0,0,0,0h0.2c0.7,0.1,1.3,0.7,1.4,1.4
					c0.2,0.5,0.1,1.1-0.2,1.6c-0.3,0.4-0.9,0.5-1.3,0.3c-0.1,0-0.1-0.1-0.2-0.2c-0.5-0.5-1.2,0.3-0.8,0.8c0.7,0.7,1.9,0.8,2.7,0.1
					c0.9-0.8,1.1-2.1,0.7-3.2c-0.4-1.2-1.5-2-2.7-2c-1.1,0-2,1-2,2.1c0,0,0,0.1,0,0.1l0,0C310.8,194.4,311.9,194.4,311.8,193.7
					L311.8,193.7z"/>
				<path style="fill:#565656;" d="M312,193.8c0.1-0.2,0.3-0.3,0.5-0.3h0.1c0.3,0.3,0.4,0.6,0.4,1c0.1,0.7,1.2,0.4,1-0.3
					s-0.4-1.6-1.3-1.8c-0.8-0.2-1.6,0.3-1.8,1.1c-0.1,0.3,0.1,0.6,0.4,0.7C311.6,194.3,311.9,194.1,312,193.8L312,193.8z"/>
				<path style="fill:#FFEAD4;stroke:#565656;stroke-linecap:round;stroke-linejoin:round;" d="M285.4,180.5c0,0-3-0.9-3.6,0.8
					c-1.1,3.1,2.7,7.7,6,9.3c2.4,1.1,2.9,0.8,3.9,0.3s-2.4-4.8-2.7-5.4S286.5,180.3,285.4,180.5z"/>
				<path style="fill:#FFEAD4;stroke:#565656;stroke-linecap:round;stroke-linejoin:round;" d="M283.6,182.6c0,0,1.3-0.9,2.1,0
					s0.6,3.3,3.3,5.4"/>
				<path style="fill:#EAC3A0;" d="M287.8,188.2c0,0-2.8-0.7-3.4-2.7s0.3-1.9,0.3-1.9C284.8,185.6,286,187.3,287.8,188.2z"/>
				<path style="fill:#EAC3A0;" d="M309.7,185.5c0,0-1.2,3.9,0.4,3.6s2.1-1.1,2.1-1.1S309.5,189,309.7,185.5z"/>
				<path style="fill:#565656;" d="M308.4,185.5c0.5,0.8,0.5,1.7,0,2.5c-0.2,0.6,0.1,1.1,0.6,1.4l0,0c1.4,0.5,3,0,3.9-1.2
					c0.4-0.6-0.6-1.1-0.9-0.5c-0.4,0.6-1,0.9-1.7,0.8c-0.2,0-0.7,0.1-0.8-0.1s0.1-0.5,0.2-0.6c0.3-0.9,0.1-2-0.4-2.8
					C309,184.3,308.1,184.9,308.4,185.5L308.4,185.5z"/>

					<line style="fill:none;stroke:#565656;stroke-linecap:round;stroke-miterlimit:10;" x1="319.6" y1="173.9" x2="325.7" y2="166.3"/>

					<line style="fill:none;stroke:#565656;stroke-linecap:round;stroke-miterlimit:10;" x1="320.5" y1="175.3" x2="325.5" y2="167.7"/>

					<line style="fill:none;stroke:#565656;stroke-linecap:round;stroke-miterlimit:10;" x1="286.8" y1="181.3" x2="295.4" y2="183.9"/>

					<line style="fill:none;stroke:#565656;stroke-linecap:round;stroke-miterlimit:10;" x1="296.1" y1="185.4" x2="287.8" y2="182.5"/>
				<path style="fill:#EAC3A0;" d="M297.8,183.6c0,0,2-6.1,8.1-2.7C303,180.8,300.1,181.8,297.8,183.6z"/>
				<path style="fill:#EAC3A0;" d="M310.7,179.3c0,0,2.4-6.3,7.8-2.8C315.7,176.8,313,177.7,310.7,179.3z"/>
				<path style="fill:#EAC3A0;" d="M293.6,180.3c0,0,6-4.5,6.7-4.7s0.3-1.9-0.6-2L293.6,180.3z"/>
				<path d="M298.8,173.5c0,0-1.9,1.1-5.2,6.8c0,0,4.7-4.2,6.4-5.1C300,175.2,300.7,173.3,298.8,173.5z"/>
				<path style="fill:#EAC3A0;" d="M319.7,171.5c0,0-5.8-0.4-7.8,0.1c-1,0.2-1.4-1.7-0.8-2.3L319.7,171.5z"/>
				<path d="M311.6,168.8c0,0,2.2-0.2,8.1,2.7c-2.7-0.4-5.4-0.6-8.1-0.6C311.6,170.9,309.9,169.7,311.6,168.8z"/>
				<path style="fill:#FFEAD4;stroke:#565656;stroke-linecap:round;stroke-linejoin:round;" d="M325.7,166.3c0,0,1.4-2.9,3-2.2
					c3.5,1.4,2.4,6.8,2,10c-0.3,1.8-0.8,3-1.8,3.3c-1.2,0.5-1.7-4.7-2-5.4S324.9,166.9,325.7,166.3z"/>
				<path style="fill:#FFEAD4;stroke:#565656;stroke-linecap:round;stroke-linejoin:round;" d="M328.6,166.3c0,0-1.5,0.2-1.5,1.4
					s1.8,2.8,1.2,6.2"/>
				<path style="fill:#EAC3A0;" d="M329,173.2c0,0,1.7-2.4,0.9-4.3c-1-2.3-1.5-1.3-1.4-1.2C329.6,169.3,329.8,171.4,329,173.2z"/>
				<path style="fill:#F0FDFF;stroke:#BADBDD;stroke-miterlimit:10;" d="M265.5,171.4c0,0-7.8-3.8-9-3.2s-0.7,2.2,2.1,2.6
					C260.2,171,261.2,170.1,265.5,171.4z"/>
				<path style="fill:#F0FDFF;stroke:#BADBDD;stroke-miterlimit:10;" d="M277.4,189.4c0,0-5.9,1.6-6.1,3s1.1,2.5,2.6,1.1
					C274.9,192.6,274.7,191.1,277.4,189.4z"/>
				<path style="fill:#F0FDFF;stroke:#BADBDD;stroke-miterlimit:10;" d="M336.8,154c0,0,6.9-5.1,8.3-4.5s1.4,2.6-1.4,3.3
					C342.2,153.2,340.9,152.2,336.8,154z"/>
				<path style="fill:#C96169;" d="M290.2,234.8c0,0,8.8-10.9,7.6-20.1C297.8,214.7,301.4,225.8,290.2,234.8z"/>
				<path style="fill:#C96169;" d="M317.2,207.5c0,0,1.9,7.4-0.8,11.5c0,0-8.7-0.3-14.6-5.4c0,0,10.3,5.4,13.6,3.9
					C315.4,217.5,317.7,215.9,317.2,207.5z"/>
				<path style="fill:#C96169;" d="M319.1,229.7c0,0-2.7,9.9-15.1,7.7c0,0,11.1,2.2,12.8,0.8S319.1,229.7,319.1,229.7z"/>
				<path style="fill:#C96169;" d="M321.2,199.8c-1.8,2.2-4.3,3.8-7,4.5C314.2,204.3,320,204.2,321.2,199.8z"/>
				<circle style="fill:none;stroke:#444444;stroke-miterlimit:10;" cx="315.6" cy="178.6" r="5.9"/>
				<circle style="fill:none;stroke:#444444;stroke-miterlimit:10;" cx="302.1" cy="184" r="5.9"/>

					<circle style="opacity:0.25;fill:#F0FAFC;stroke:#606060;stroke-miterlimit:10;enable-background:new    ;" cx="315.6" cy="178.6" r="5.9"/>

					<circle style="opacity:0.25;fill:#F0FAFC;stroke:#606060;stroke-miterlimit:10;enable-background:new    ;" cx="302.1" cy="184" r="5.9"/>
				<path style="fill:#B6936B;stroke:#3A3A3A;stroke-linecap:round;stroke-linejoin:round;" d="M212,244.9l2.3,27.8
					c0,0,22.7,6.9,25.3,11l-0.7-27.5C229.5,253.5,220.5,249.7,212,244.9z"/>
				<path style="fill:#DBB88E;stroke:#3A3A3A;stroke-linecap:round;stroke-linejoin:round;" d="M212,244.9c0,0-3.6-2.6-11.9-2.6
					c0,0,2.6,17.2,1,30.7c0,0,10.7-0.4,13,0.3L212,244.9z"/>
				<path style="fill:#DBB88E;stroke:#3A3A3A;stroke-linecap:round;stroke-linejoin:round;" d="M211.5,223.6c0,0,1.9,18.3,0.5,21.3
					c8.5,4.9,17.5,8.7,26.9,11.4c0,0,2-14.7,4.5-17.8C243.5,238.5,216.9,227.7,211.5,223.6z"/>
				<path style="fill:#DBB88E;stroke:#3A3A3A;stroke-linecap:round;stroke-linejoin:round;" d="M239.6,283.7l-0.3-27.9
					c0,0,7.4-2.1,13.6-4.6l-0.7,29.5C252.3,280.7,243.7,281.8,239.6,283.7z"/>
				<path style="fill:#DBB88E;stroke:#3A3A3A;stroke-linecap:round;stroke-linejoin:round;" d="M204,281l10.5-8.1
					c0,0,19.2,4.7,25.1,10.9c0,0-6.9,9-7.5,10.3C232.1,294.1,225.9,289.3,204,281z"/>
				<path style="fill:#8C694D;stroke:#3A3A3A;stroke-linecap:round;stroke-linejoin:round;" d="M238.9,256.3l26.8-15.7
					c0,0,0.5,25-0.7,29.1l-12.5,7.5l0.4-26L238.9,256.3z"/>
				<path style="fill:#B6936B;stroke:#3A3A3A;stroke-linecap:round;stroke-linejoin:round;" d="M238.9,256.3l26.8-15.7
					c0,0-14-8.8-26.4-10.9l-7.8,3.8l11.9,5C243.5,238.5,240.9,240.6,238.9,256.3z"/>
				<path style="fill:#8C694D;" d="M214.4,272.4l18.7-12.9l5.8,3.1l-0.1-5.9l-6.3-2.1l-9-3.3c0,0,2,10.4-9.8,12L214.4,272.4z"/>
				<polyline style="fill:none;stroke:#3A3A3A;stroke-linecap:round;stroke-linejoin:round;" points="214.4,272.4 233.1,259.5
					239,262.6 				"/>

					<line style="fill:none;stroke:#3A3A3A;stroke-linecap:round;stroke-linejoin:round;" x1="232.6" y1="254.6" x2="233.1" y2="259.5"/>
				<path style="fill:#DBB88E;stroke:#3A3A3A;stroke-linecap:round;stroke-linejoin:round;" d="M330.1,246.3c0,0,10-1.6,14.1-8.4
					l25.6,13.8c0,0-1.7,4.6-8,9.7L330.1,246.3z"/>
				<path style="fill:#DBB88E;stroke:#3A3A3A;stroke-linecap:round;stroke-linejoin:round;" d="M388.7,247.2c0,0-11.3,7.3-19.9,6.4
					l1-1.9l-23.1-12.2c0,0,7.2-1.2,11.6-5.4C358.3,234.2,376.9,241.3,388.7,247.2z"/>
				<path style="fill:#B6936B;stroke:#3A3A3A;stroke-linecap:round;stroke-linejoin:round;" d="M361.8,261.4l0.5,27.7l27.1-12.8
					c0,0-1.1-14.2-0.7-29.1C380,252.4,371,257.2,361.8,261.4z"/>
				<path style="fill:#8C694D;stroke:#3A3A3A;stroke-linecap:round;stroke-linejoin:round;" d="M330.1,246.3c0,0,4,28.2,1.9,30.9
					l30.3,11.9l-0.5-27.7L330.1,246.3z"/>
				<path style="fill:#664E2A;" d="M369.1,254.1c0,0-3.2,4.5-4.8,5.7c0,0,7.3-3.5,13.7-7C375.1,253.7,372.1,254.2,369.1,254.1z"/>
				<path style="fill:#B6936B;stroke:#3A3A3A;stroke-linecap:round;stroke-linejoin:round;" d="M332.1,265.1l-27.9-7.9
					c0,0-22.5,11-28,10.8l30.7,5.6C306.9,273.6,317.1,272.1,332.1,265.1z"/>
				<path style="fill:#DBB88E;stroke:#3A3A3A;stroke-linecap:round;stroke-linejoin:round;" d="M332.1,265.1c0,0,1.4-3.6,8.7-9.5
					c0,0-17.5-0.2-30.1-9.7c0,0-5.1,9.3-7,10.8L332.1,265.1z"/>
				<path style="fill:#DBB88E;stroke:#3A3A3A;stroke-linecap:round;stroke-linejoin:round;" d="M346.3,271.8c0,0-12-3.6-14.2-6.7
					c0,0-7.6,5.1-25.2,8.5c0,0,13.4,10.5,15.2,14.5C322.1,288.1,339.5,273.8,346.3,271.8z"/>
				<path style="fill:#DBB88E;stroke:#3A3A3A;stroke-linecap:round;stroke-linejoin:round;" d="M276.2,267.5l30.9,6.2
					c0,0-1.7,7.5-2.5,14.3l-38.1-9.9C266.5,278.1,271.1,272.9,276.2,267.5z"/>
				<path style="fill:#DBB88E;stroke:#3A3A3A;stroke-linecap:round;stroke-linejoin:round;" d="M295.4,247.6l8.5,9.7
					c0,0-18.6,9.4-27.7,10.7c0,0-9.1-7.3-10.1-8.6C266.1,259.4,276.2,252.2,295.4,247.6z"/>
				<path style="fill:#8C694D;stroke:#3A3A3A;stroke-linecap:round;stroke-linejoin:round;" d="M306.9,273.6l1.6,32.1
					c0,0-26.7-8.7-30.2-12.2l-0.8-12.3l27.1,7.3L306.9,273.6z"/>
				<path style="fill:#B6936B;stroke:#3A3A3A;stroke-linecap:round;stroke-linejoin:round;" d="M306.9,273.6l1.6,32.1
					c0,0,15.9-6.5,24.3-15.8l0.3-10.3l-11.1,8.5C322.1,288.1,321.2,284.7,306.9,273.6z"/>
				<path style="fill:#8C694D;" d="M304.9,257.5l2.7,14.1l-2.7,1.2l2.3,0.6l10.4-2.7l0.4,0.3c0,0-3.5-2.1-2.5-10.2L304.9,257.5z"/>
				<polyline style="fill:none;stroke:#3A3A3A;stroke-linecap:round;stroke-linejoin:round;" points="304.4,257.5 307.1,271.5
					303.1,273.1 				"/>

					<line style="fill:none;stroke:#3A3A3A;stroke-linecap:round;stroke-linejoin:round;" x1="310.9" y1="272.7" x2="307.1" y2="271.5"/>

					<ellipse transform="matrix(0.9967 -8.106875e-02 8.106875e-02 0.9967 -22.4738 33.2719)" style="fill:#F2FCFB;stroke:#000000;stroke-linecap:round;stroke-linejoin:round;" cx="398.5" cy="293.4" rx="6" ry="2.9"/>
				<path style="fill:#212121;stroke:#000000;stroke-linecap:round;stroke-linejoin:round;" d="M378.4,294.4l9.3-0.8
					c0.4,0,0.7,0.3,0.8,0.7v0.2c0,0.4-0.3,0.7-0.7,0.8l-9.3,0.8c-0.4,0-0.7-0.3-0.8-0.7v-0.2C377.7,294.8,377.9,294.5,378.4,294.4
					C378.3,294.4,378.4,294.4,378.4,294.4z"/>
				<path style="fill:#FFFFFF;" d="M404.1,293c0,0-2.4-3.2-8.8-0.5C395.3,292.5,400.1,290.7,404.1,293z"/>

					<line style="fill:none;stroke:#000000;stroke-linecap:round;stroke-linejoin:round;" x1="388.5" y1="294.3" x2="392.1" y2="294"/>

					<ellipse transform="matrix(0.9967 -8.106875e-02 8.106875e-02 0.9967 -22.3931 33.2605)" style="fill:#F2FCFB;stroke:#000000;stroke-linecap:round;stroke-linejoin:round;" cx="398.4" cy="292.4" rx="6" ry="2.9"/>
				<path style="fill:#212121;stroke:#000000;stroke-linecap:round;stroke-linejoin:round;" d="M377.6,294.3v-0.2
					c0-0.4,0.3-0.7,0.7-0.8l9.3-0.8c0.4,0,0.7,0.3,0.8,0.7v0.2c0,0.4-0.3,0.7-0.7,0.8l-9.3,0.8C378,295,377.7,294.7,377.6,294.3z"/>
				<path style="fill:#FFFFFF;" d="M403.3,292c0,0-2.4-3.2-8.8-0.5C394.5,291.5,399.3,289.7,403.3,292z"/>

					<line style="fill:none;stroke:#000000;stroke-linecap:round;stroke-linejoin:round;" x1="388.5" y1="293.3" x2="392.1" y2="292.9"/>
				<path style="fill:#F0FCFF;stroke:#3A3A3A;stroke-linecap:round;stroke-linejoin:round;" d="M366.8,218.3c0,0,6.5,0.8,8.2,9.3
					s-2.3,10.8-2.3,10.8c5-0.9,9.6-3.5,13-7.3c0,0,2-14.9-8.4-18C377.4,213.1,379.5,217.5,366.8,218.3z"/>
				<path style="fill:#F0FCFF;stroke:#3A3A3A;stroke-linecap:round;stroke-linejoin:round;" d="M420.4,256.2c0,0-5.9-1.7-8.6-9.8
					s0.5-9.7,0.5-9.7c-4.3,0.4-7.9,1.8-10.6,4.8c0,0,0.3,13.5,9.9,17.9C411.6,259.4,409.2,255.1,420.4,256.2z"/>
				<path style="fill:#F0FCFF;stroke:#3A3A3A;stroke-linecap:round;stroke-linejoin:round;" d="M395.6,275.9c0,0,12.3,9.2,22.3,1.3
					c0,0,0.3-8.2-5.7-10.8c0,0-0.9,8.2-12.5,1.1C399.8,267.5,400.5,271.6,395.6,275.9z"/>
				<path style="fill:#F0FCFF;stroke:#3A3A3A;stroke-linecap:round;stroke-linejoin:round;" d="M271.8,287.5c0,0-3.5,5.5-12.7,5.8
					s-9.8-3.5-9.8-3.5c-0.9,4.5-0.7,8.6,1.6,12.3c0,0,13.9,3.9,21.4-4.6C272.3,297.4,267.1,298.5,271.8,287.5z"/>
				<path style="fill:#F0FCFF;stroke:#3A3A3A;stroke-linecap:round;stroke-linejoin:round;" d="M442.9,270.4c0,0,16.5,2.6,20.9-5.8
					c0,0-6.4-2.5-5.1-6.8c0,0-9.5,5.9-17.7,2.4C441,260.2,438.8,263.5,442.9,270.4z"/>
			</g>
		</g>
	</g>
</g>
</svg>
