<?xml version="1.0" standalone="no"?>
<!DOCTYPE svg PUBLIC "-//W3C//DTD SVG 1.1//EN" "http://www.w3.org/Graphics/SVG/1.1/DTD/svg11.dtd" >
<svg xmlns="http://www.w3.org/2000/svg">
<metadata>Generated by IcoMoon</metadata>
<defs>
<font id="icomoon" horiz-adv-x="1024">
<font-face units-per-em="1024" ascent="960" descent="-64" />
<missing-glyph horiz-adv-x="1024" />
<glyph unicode="&#x20;" horiz-adv-x="512" d="" />
<glyph unicode="&#xe300;" glyph-name="android" d="M896 576c-35.2 0-64-28.8-64-64v-256c0-35.2 28.8-64 64-64s64 28.8 64 64v256c0 35.2-28.8 64-64 64zM128 576c-35.2 0-64-28.8-64-64v-256c0-35.2 28.8-64 64-64s64 28.8 64 64v256c0 35.2-28.8 64-64 64zM224 224c0-54.4 41.6-96 96-96v0-128c0-35.2 28.8-64 64-64s64 28.8 64 64v128h128v-128c0-35.2 28.8-64 64-64s64 28.8 64 64v128c54.4 0 96 41.6 96 96v352h-576v-352zM796.8 640c-9.6 86.4-57.6 163.2-128 211.2l32 64c6.4 16 0 35.2-12.8 41.6s-35.2 0-41.6-12.8l-32-64-9.6 3.2c-32 6.4-60.8 12.8-92.8 12.8s-60.8-6.4-89.6-16l-9.6-3.2-32 64c-6.4 16-25.6 22.4-41.6 12.8s-22.4-25.6-16-38.4l32-64c-70.4-48-118.4-124.8-128-211.2v-32h572.8l-3.2 32zM416 704c-19.2 0-32 12.8-32 32s12.8 32 32 32v0 0c19.2 0 32-12.8 32-32s-12.8-32-32-32zM608 704c-19.2 0-32 12.8-32 32s12.8 32 32 32v0c0 0 0 0 0 0 19.2 0 32-12.8 32-32s-12.8-32-32-32v0z" />
<glyph unicode="&#xe301;" glyph-name="androidd" d="M371.2 281.6l-179.2 179.2-64-60.8 243.2-243.2 524.8 521.6-64 60.8-460.8-457.6z" />
<glyph unicode="&#xe302;" glyph-name="apple" d="M790.4 416c0 131.2 105.6 192 112 195.2-60.8 89.6-153.6 99.2-188.8 102.4-80 9.6-156.8-48-195.2-48-41.6 0-102.4 44.8-169.6 44.8-86.4 0-166.4-51.2-211.2-128-89.6-156.8-22.4-390.4 64-518.4 41.6-60.8 92.8-131.2 163.2-128 64 3.2 89.6 41.6 166.4 41.6s99.2-41.6 169.6-41.6c70.4 0 115.2 64 156.8 124.8 48 73.6 70.4 140.8 70.4 144s-134.4 57.6-137.6 211.2v0zM662.4 796.8c35.2 44.8 60.8 102.4 54.4 163.2-51.2-3.2-115.2-35.2-150.4-76.8-32-38.4-60.8-99.2-54.4-160 57.6-3.2 115.2 28.8 150.4 73.6v0z" />
<glyph unicode="&#xe303;" horiz-adv-x="768" d="M160 960h419.2c28.8 0 54.4-22.4 54.4-54.4v-918.4c0-28.8-22.4-54.4-54.4-54.4h-419.2c-28.8 0-54.4 22.4-54.4 54.4v918.4c0 32 25.6 54.4 54.4 54.4z" />
<glyph unicode="&#xe304;" horiz-adv-x="768" d="M147.2 780.8h448v-668.8h-448c0 3.2 0 668.8 0 668.8z" />
<glyph unicode="&#xe305;" horiz-adv-x="768" d="M470.4 444.8h284.8c12.8 0 22.4 9.6 22.4 22.4v259.2c0 12.8-9.6 22.4-22.4 22.4h-374.4c-12.8 0-22.4-9.6-22.4-22.4v-259.2c0-12.8 9.6-22.4 22.4-22.4h35.2l28.8-48 25.6 48zM236.8 198.4h-220.8c-9.6 0-16 6.4-16 16v201.6c0 9.6 6.4 16 16 16h291.2c9.6 0 16-6.4 16-16v-201.6c0-9.6-6.4-16-16-16h-25.6l-22.4-38.4c0 3.2-22.4 38.4-22.4 38.4z" />
<glyph unicode="&#xe306;" horiz-adv-x="768" d="M329.6 880h76.8c6.4 0 9.6-3.2 9.6-9.6v-3.2c0-6.4-3.2-9.6-9.6-9.6h-76.8c-6.4 0-9.6 3.2-9.6 9.6v3.2c0 3.2 6.4 9.6 9.6 9.6zM281.6 880c6.4 0 12.8-6.4 12.8-12.8s-6.4-12.8-12.8-12.8-12.8 6.4-12.8 12.8 3.2 12.8 12.8 12.8zM368 76.8c28.8 0 51.2-22.4 51.2-51.2s-22.4-51.2-51.2-51.2-48 25.6-48 54.4 22.4 48 48 48zM416 684.8h297.6v-22.4h-297.6c0 0 0 22.4 0 22.4zM416 608h297.6v-22.4h-297.6c0 0 0 22.4 0 22.4zM416 534.4h297.6v-22.4h-297.6c0-3.2 0 22.4 0 22.4zM281.6 371.2h-233.6v19.2h230.4v-19.2zM281.6 310.4h-233.6v19.2h230.4v-19.2zM281.6 252.8h-233.6v19.2h230.4v-19.2z" />
<glyph unicode="&#xe307;" horiz-adv-x="1440" d="M1360 608h57.6v-390.4h-57.6c-22.4 0-38.4 19.2-38.4 38.4v0 313.6c0 22.4 19.2 38.4 38.4 38.4v0 0z" />
<glyph unicode="&#xe308;" horiz-adv-x="1440" d="M1420.8 214.4h-57.6c-22.4 0-41.6 19.2-41.6 41.6v313.6c0 22.4 19.2 41.6 41.6 41.6h57.6c3.2 0 3.2-3.2 3.2-3.2l-3.2-393.6zM1360 608c-19.2 0-38.4-16-38.4-38.4v-313.6c0-19.2 16-38.4 38.4-38.4h57.6v390.4h-57.6zM1324.8 508.8h86.4v-3.2h-86.4v3.2zM1324.8 412.8h86.4v-3.2h-86.4v3.2zM1324.8 316.8h86.4v-3.2h-86.4v3.2z" />
<glyph unicode="&#xe309;" horiz-adv-x="1440" d="M278.4 780.8h902.4v-172.8h-902.4c0 0 0 172.8 0 172.8zM278.4 534.4h230.4v-182.4h-230.4v182.4zM611.2 534.4h230.4v-182.4h-230.4v182.4zM947.2 534.4h230.4v-182.4h-230.4c0 0 0 182.4 0 182.4zM281.6 291.2h902.4v-19.2h-902.4c0 3.2 0 19.2 0 19.2zM281.6 240h902.4v-19.2h-902.4c0 0 0 19.2 0 19.2zM281.6 185.6h902.4v-19.2h-902.4c0 3.2 0 19.2 0 19.2zM278.4 112h902.4v-118.4h-902.4c0 0 0 118.4 0 118.4z" />
<glyph unicode="&#xe30a;" horiz-adv-x="1440" d="M1260.8 915.2c6.4 0 12.8-6.4 12.8-12.8s-6.4-12.8-12.8-12.8-9.6 6.4-9.6 12.8 3.2 12.8 9.6 12.8zM1302.4 915.2c6.4 0 12.8-6.4 12.8-12.8s-6.4-12.8-12.8-12.8-12.8 6.4-12.8 12.8 6.4 12.8 12.8 12.8zM1344 915.2c6.4 0 12.8-6.4 12.8-12.8s-6.4-12.8-12.8-12.8-12.8 6.4-12.8 12.8 6.4 12.8 12.8 12.8z" />
<glyph unicode="&#xe30b;" horiz-adv-x="1440" d="M1385.6 956.8h-1334.4c-22.4 0-38.4-16-38.4-38.4v-934.4c0-22.4 16-38.4 38.4-38.4h1334.4c22.4 0 38.4 16 38.4 38.4v934.4c0 22.4-19.2 38.4-38.4 38.4zM1417.6-16c0-19.2-12.8-32-32-32h-1334.4c-19.2 0-32 12.8-32 32v883.2h1401.6l-3.2-883.2zM19.2 873.6v44.8c0 19.2 12.8 32 32 32h1334.4c19.2 0 32-12.8 32-32v-44.8h-1398.4z" />
<glyph unicode="&#xe30c;" glyph-name="ASAP-setup" horiz-adv-x="1280" d="M275.2 102.4c-22.4 0-41.6-19.2-41.6-41.6s19.2-41.6 41.6-41.6 41.6 19.2 41.6 41.6c0 25.6-16 41.6-41.6 41.6zM521.6 288c-19.2 0-28.8-12.8-28.8-28.8v-83.2h-432v480h432v-12.8c0-19.2 12.8-28.8 28.8-28.8s28.8 12.8 28.8 28.8v89.6c0 41.6-35.2 83.2-83.2 83.2h-384c-48 0-83.2-35.2-83.2-83.2v-707.2c0-48 35.2-89.6 83.2-89.6h384c48 0 83.2 41.6 83.2 89.6v233.6c0 19.2-12.8 28.8-28.8 28.8zM83.2 755.2h384c12.8 0 22.4-12.8 22.4-22.4v-19.2h-428.8v19.2c0 12.8 9.6 22.4 22.4 22.4zM467.2-3.2h-384c-12.8 6.4-22.4 19.2-22.4 28.8v89.6h432v-89.6c-3.2-19.2-12.8-28.8-25.6-28.8zM1180.8 960h-912c-48 0-89.6-41.6-89.6-89.6 0-12.8 12.8-28.8 28.8-28.8s28.8 19.2 28.8 28.8c0 19.2 12.8 35.2 28.8 28.8h908.8c19.2 0 28.8-12.8 28.8-28.8v-598.4c0-19.2-12.8-28.8-28.8-28.8h-563.2c-19.2 0-28.8-12.8-28.8-28.8 0-19.2 12.8-28.8 28.8-28.8h89.6c0-3.2 0-3.2 0-6.4v-89.6c0-19.2 12.8-28.8 28.8-28.8h268.8v-60.8h-358.4c-19.2 0-28.8-12.8-28.8-28.8 0-19.2 12.8-28.8 28.8-28.8h390.4c19.2 0 28.8 12.8 28.8 28.8v118.4c0 19.2-12.8 28.8-28.8 28.8h-268.8v60.8c0 3.2 0 3.2 0 6.4h419.2c48 0 89.6 41.6 89.6 89.6v595.2c0 48-41.6 89.6-89.6 89.6zM489.6 457.6c0-102.4 76.8-179.2 179.2-179.2s179.2 76.8 179.2 179.2-83.2 179.2-179.2 179.2c-99.2 0-179.2-76.8-179.2-179.2z" />
<glyph unicode="&#xe30d;" glyph-name="book3" d="M972.8 688c16-22.4 19.2-44.8 9.6-73.6l-156.8-518.4c-6.4-25.6-22.4-44.8-44.8-60.8s-44.8-25.6-70.4-25.6h-524.8c-28.8 0-57.6 9.6-86.4 32-28.8 19.2-44.8 44.8-57.6 73.6-9.6 25.6-9.6 51.2 0 73.6 0 0 0 6.4 3.2 16 0 9.6 3.2 16 3.2 22.4 0 3.2 0 6.4-3.2 12.8 0 6.4-3.2 9.6-3.2 9.6 0 3.2 3.2 9.6 3.2 12.8s6.4 9.6 9.6 12.8 6.4 9.6 9.6 12.8c9.6 16 16 32 25.6 51.2s12.8 38.4 16 51.2c0 3.2 0 9.6 0 16s0 12.8 0 16c0 3.2 3.2 9.6 9.6 16 9.6 9.6 12.8 12.8 12.8 16 6.4 12.8 16 32 25.6 51.2 6.4 22.4 12.8 38.4 12.8 51.2 0 3.2 0 9.6 0 19.2s0 12.8 0 16 6.4 9.6 12.8 16c6.4 6.4 9.6 9.6 12.8 12.8 6.4 9.6 16 25.6 25.6 48s12.8 41.6 16 54.4c0 3.2 0 6.4-3.2 16 0 6.4-3.2 12.8 0 16 0 3.2 3.2 6.4 6.4 9.6 0 3.2 3.2 9.6 6.4 12.8s6.4 9.6 9.6 12.8c3.2 3.2 6.4 9.6 9.6 16s6.4 12.8 9.6 19.2 6.4 12.8 9.6 19.2c3.2 9.6 6.4 16 9.6 22.4 3.2 3.2 9.6 9.6 16 12.8s12.8 6.4 19.2 6.4 16 0 25.6-3.2v-3.2c16 3.2 25.6 6.4 28.8 6.4h435.2c28.8 0 51.2-9.6 64-32 16-22.4 19.2-44.8 9.6-73.6l-153.6-518.4c-12.8-44.8-28.8-73.6-41.6-86.4s-38.4-19.2-73.6-19.2h-496c-9.6 0-16-3.2-22.4-9.6-3.2-6.4-3.2-12.8 0-25.6 9.6-25.6 35.2-38.4 83.2-38.4h528c9.6 0 22.4 3.2 32 9.6s16 12.8 19.2 22.4l172.8 563.2c3.2 9.6 3.2 19.2 3.2 32 12.8-3.2 25.6-12.8 32-22.4v0zM364.8 684.8c0-6.4 0-9.6 0-12.8 3.2-3.2 6.4-6.4 12.8-6.4h348.8c6.4 0 9.6 3.2 16 6.4 3.2 3.2 6.4 6.4 9.6 12.8l12.8 35.2c0 6.4 0 9.6 0 12.8-3.2 3.2-6.4 6.4-12.8 6.4h-352c-6.4 0-9.6-3.2-16-6.4-3.2-3.2-6.4-6.4-9.6-12.8l-9.6-35.2zM316.8 540.8c0-6.4 0-9.6 0-12.8 3.2-3.2 6.4-6.4 12.8-6.4h348.8c6.4 0 9.6 3.2 16 6.4s6.4 6.4 9.6 12.8l12.8 35.2c0 6.4 0 9.6 0 12.8s-6.4 6.4-12.8 6.4h-348.8c-6.4 0-9.6-3.2-16-6.4-3.2-3.2-6.4-6.4-9.6-12.8l-12.8-35.2z" />
<glyph unicode="&#xe30e;" glyph-name="call-out2" d="M960 128l-6.4 6.4-156.8 112c-16 12.8-48 16-70.4 6.4l-115.2-60.8c0 0-256 134.4-348.8 342.4l51.2 121.6c16 16 12.8 41.6 0 64v0l-108.8 160c-19.2 28.8-60.8 32-89.6 16l-3.2-6.4-70.4-64c-41.6-35.2-54.4-86.4-35.2-137.6 128-355.2 406.4-633.6 768-752 48-16 99.2 0 134.4 35.2l57.6 64c22.4 28.8 22.4 70.4-6.4 92.8zM1014.4 800c-3.2 3.2-6.4 6.4-9.6 9.6l-140.8 140.8c-12.8 12.8-28.8 12.8-41.6 0s-12.8-28.8 0-41.6l92.8-92.8-396.8 9.6c-12.8 0-16 0-22.4-6.4-12.8-12.8-12.8-28.8 0-41.6v0c3.2-3.2 9.6-9.6 16-9.6l409.6-9.6-96-96c-12.8-12.8-12.8-28.8 0-41.6v0c12.8-12.8 28.8-12.8 41.6-6.4l144 144c12.8 12.8 12.8 28.8 3.2 41.6z" />
<glyph unicode="&#xe30f;" glyph-name="call-outbound" d="M307.2 742.4l-108.8 153.6c-16 28.8-57.6 41.6-83.2 19.2l-6.4-6.4-67.2-64c-41.6-32-54.4-83.2-35.2-134.4 124.8-345.6 396.8-620.8 752-732.8 44.8-16 96 0 131.2 35.2l57.6 64c22.4 28.8 22.4 67.2-6.4 89.6l-6.4 6.4-153.6 108.8c-16 12.8-44.8 16-67.2 6.4l-115.2-57.6c0 0-249.6 131.2-342.4 336l51.2 118.4c16 12.8 12.8 41.6 0 57.6v0zM857.6 588.8c-16 0-28.8 12.8-28.8 28.8 0 6.4 6.4 16 12.8 22.4l118.4 121.6-118.4 118.4c-12.8 12.8-12.8 28.8 0 38.4s28.8 12.8 38.4 0l144-140.8c12.8-12.8 12.8-28.8 0-38.4v0l-140.8-137.6c-6.4-6.4-12.8-12.8-25.6-12.8v0zM688 588.8c-16 0-28.8 12.8-28.8 28.8 0 6.4 6.4 16 12.8 22.4l118.4 118.4-118.4 121.6c-12.8 12.8-12.8 28.8 0 38.4s28.8 12.8 38.4 0l140.8-140.8c12.8-9.6 12.8-28.8 3.2-38.4v0l-140.8-137.6c-9.6-6.4-12.8-12.8-25.6-12.8v0zM518.4 588.8c-16 0-28.8 16-28.8 28.8 0 6.4 6.4 16 12.8 22.4l118.4 118.4-118.4 118.4c-12.8 12.8-12.8 28.8 0 38.4 12.8 16 35.2 12.8 38.4 0l140.8-140.8c12.8-12.8 12.8-28.8 0-38.4v0l-140.8-137.6c-6.4-3.2-12.8-9.6-22.4-9.6v0z" />
<glyph unicode="&#xe310;" glyph-name="close2" d="M649.6 448l342.4-342.4c38.4-38.4 38.4-99.2 0-137.6-19.2-19.2-44.8-28.8-70.4-28.8s-51.2 12.8-70.4 28.8l-339.2 342.4-342.4-345.6c-19.2-16-48-28.8-70.4-28.8s-51.2 12.8-70.4 28.8c-38.4 38.4-38.4 99.2 0 137.6l345.6 345.6-345.6 342.4c-38.4 38.4-38.4 99.2 0 137.6s99.2 38.4 137.6 0l345.6-342.4 342.4 345.6c38.4 38.4 99.2 38.4 137.6 0s38.4-99.2 0-137.6c3.2-3.2-342.4-345.6-342.4-345.6z" />
<glyph unicode="&#xe311;" glyph-name="collapse1" d="M512 960c-281.6 0-512-230.4-512-512s230.4-512 512-512 512 230.4 512 512-230.4 512-512 512zM512 3.2c-243.2 0-444.8 201.6-444.8 444.8s201.6 444.8 444.8 444.8 444.8-201.6 444.8-444.8-201.6-444.8-444.8-444.8zM534.4 611.2c-6.4 6.4-16 9.6-25.6 9.6s-19.2-3.2-25.6-9.6l-220.8-220.8c-12.8-12.8-12.8-35.2 0-48s35.2-12.8 48 0l198.4 198.4 198.4-198.4c12.8-12.8 35.2-12.8 48 0s12.8 35.2 0 48c0 0-220.8 220.8-220.8 220.8z" />
<glyph unicode="&#xe312;" glyph-name="css5" d="M883.2 713.6c0 3.2 0 9.6-3.2 12.8l-198.4 224c0 0 0 0 0 0s-3.2 3.2-3.2 3.2c0 0 0 0 0 0s-3.2 0-3.2 3.2c0 0 0 0 0 0s-3.2 0-3.2 0h-492.8c-19.2 3.2-38.4-16-38.4-38.4v-944c0-19.2 19.2-38.4 38.4-38.4h662.4c22.4 0 41.6 19.2 41.6 41.6v736c0 0 0 0 0 0v0zM352 25.6c16 0 35.2 3.2 44.8 6.4l9.6-41.6c-9.6-6.4-32-9.6-64-9.6-83.2 0-128 51.2-128 121.6 0 83.2 60.8 128 134.4 128 28.8 0 51.2-6.4 60.8-9.6l-12.8-44.8c-12.8 3.2-25.6 9.6-44.8 9.6-44.8 0-76.8-25.6-76.8-80-3.2-48 25.6-80 76.8-80v0zM502.4-19.2c-28.8 0-54.4 6.4-70.4 16l12.8 44.8c16-6.4 38.4-16 60.8-16 25.6 0 38.4 9.6 38.4 25.6s-12.8 22.4-41.6 35.2c-41.6 12.8-67.2 35.2-67.2 70.4 0 41.6 35.2 73.6 92.8 73.6 28.8 0 48-6.4 60.8-12.8l-12.8-41.6c-9.6 3.2-25.6 12.8-51.2 12.8s-35.2-9.6-35.2-22.4c0-16 12.8-22.4 44.8-35.2 41.6-16 64-38.4 64-73.6 0-41.6-32-76.8-96-76.8v0zM697.6-19.2c-28.8 0-54.4 6.4-70.4 16l12.8 44.8c16-6.4 38.4-16 60.8-16 25.6 0 38.4 9.6 38.4 25.6s-12.8 22.4-41.6 35.2c-41.6 12.8-67.2 35.2-67.2 70.4 0 41.6 35.2 73.6 92.8 73.6 28.8 0 48-6.4 60.8-12.8l-12.8-44.8c-9.6 3.2-25.6 12.8-51.2 12.8s-35.2-9.6-35.2-22.4c0-16 12.8-22.4 44.8-35.2 41.6-16 64-38.4 64-73.6 0-38.4-32-73.6-96-73.6v0zM844.8 278.4h-665.6v640h464v-204.8c0-9.6 9.6-19.2 19.2-19.2h176l6.4-416zM374.4 672c0-12.8 3.2-25.6 3.2-35.2 3.2-12.8 3.2-25.6 3.2-35.2 0-16-3.2-32-35.2-32v-25.6c32 0 35.2-19.2 35.2-32s-3.2-22.4-3.2-35.2-3.2-25.6-3.2-35.2c0-44.8 25.6-60.8 64-60.8h9.6v25.6h-6.4c-25.6 0-35.2 12.8-35.2 38.4 0 9.6 0 19.2 3.2 32 3.2 9.6 3.2 22.4 3.2 32 0 28.8-12.8 41.6-32 48v0c19.2 6.4 32 19.2 32 48 0 12.8 0 22.4-3.2 32s-3.2 22.4-3.2 32 9.6 38.4 35.2 38.4h6.4v22.4h-9.6c-38.4 0-64-16-64-57.6zM627.2 598.4c0 12.8 3.2 25.6 3.2 35.2s3.2 25.6 3.2 35.2c0 41.6-25.6 57.6-64 57.6h-9.6v-22.4h6.4c25.6 0 35.2-12.8 35.2-38.4 0-9.6-3.2-19.2-3.2-32-3.2-9.6-3.2-22.4-3.2-32 0-28.8 12.8-41.6 32-48v0c-19.2-3.2-32-19.2-32-48 0-12.8 3.2-22.4 3.2-32s3.2-22.4 3.2-32c0-25.6-9.6-38.4-35.2-38.4h-6.4v-25.6h9.6c35.2 0 64 16 64 60.8 0 12.8-3.2 25.6-3.2 35.2s-3.2 22.4-3.2 35.2c0 12.8 3.2 32 35.2 32v22.4c-32 3.2-35.2 19.2-35.2 35.2v0z" />
<glyph unicode="&#xe313;" horiz-adv-x="1105" d="M554.492 810.762c81.299 0 163.106-27.205 230.706-83 154.511-127.532 176.378-356.167 48.854-510.678-71.736-86.911-175.435-131.846-279.963-131.846-81.299 0-163.114 27.205-230.714 83-154.511 127.532-176.386 356.167-48.854 510.678 71.736 86.911 175.443 131.846 279.971 131.846zM353.062 300.157l308.24 373.446c-33.929 16.126-70.487 24.052-106.907 24.052-71.922 0-143.287-30.922-192.657-90.725-74.357-90.088-74.889-216.782-8.676-306.773zM554.178 198.346c71.922 0 143.287 30.922 192.649 90.725 74.357 90.088 74.897 216.774 8.676 306.765l-308.232-373.437c33.921-16.118 70.487-24.052 106.907-24.052zM554.492 826.888c-113.591 0-220.168-50.192-292.404-137.708-64.423-78.050-94.595-176.515-84.96-277.254s57.925-191.698 135.974-256.121c67.721-55.901 153.31-86.685 240.979-86.685 113.591 0 220.168 50.192 292.404 137.708 64.423 78.050 94.595 176.515 84.96 277.254s-57.933 191.698-135.982 256.121c-67.729 55.893-153.31 86.685-240.971 86.685v0zM354.401 327.112c-51.095 84.218-44 192.294 19.77 269.546 44.516 53.933 110.197 84.863 180.216 84.863 27.446 0 54.965-4.935 80.67-14.376l-280.657-340.033zM473.507 228.856l280.665 340.033c51.103-84.218 44-192.286-19.77-269.546-44.516-53.933-110.197-84.863-180.216-84.863-27.454-0.008-54.973 4.926-80.678 14.376v0z" />
<glyph unicode="&#xe314;" horiz-adv-x="1105" d="M785.198 727.762c-154.511 127.532-383.145 105.657-510.678-48.846s-105.657-383.145 48.854-510.678 383.145-105.657 510.678 48.846 105.657 383.145-48.854 510.678zM361.738 606.93c74.357 90.088 198.648 114.632 299.564 66.673l-308.24-373.446c-66.213 89.991-65.681 216.685 8.676 306.773zM447.27 222.397l308.232 373.446c66.221-89.991 65.681-216.677-8.676-306.765s-198.64-114.64-299.556-66.681z" />
<glyph unicode="&#xe315;" horiz-adv-x="1105" d="M746.835 289.070c-64.488-78.122-166.501-106.859-258.274-81.872l-19.069-23.1c100.916-47.959 225.199-23.415 299.556 66.673 73.357 88.87 74.736 213.298 11.183 303.039 39.549-84.589 29.994-187.932-33.397-264.74zM785.198 727.762c-154.511 127.532-383.145 105.657-510.678-48.846-104.319-126.387-108.617-302.346-22.181-432.023-62.44 124.509-49.958 279.391 44.403 393.724 127.532 154.511 356.167 176.378 510.678 48.846 28.124-23.213 51.789-49.805 71.027-78.663-21.947 43.758-53.071 83.799-93.249 116.962zM642.233 650.494l-289.171-350.337c-0.895 1.209-1.637 2.5-2.508 3.725 6.837-14.626 14.965-28.753 24.721-42.024l308.24 373.446c-13.401 6.362-27.229 11.369-41.283 15.191z" />
<glyph unicode="&#xe316;" horiz-adv-x="1105" d="M965.39 209.021h-115.212c-4.459 0-8.063 3.604-8.063 8.063s3.604 8.063 8.063 8.063h115.212c4.459 0 8.063-3.604 8.063-8.063s-3.604-8.063-8.063-8.063z" />
<glyph unicode="&#xe317;" horiz-adv-x="1105" d="M1037.304 157.869h-139.409c-4.459 0-8.063 3.604-8.063 8.063s3.604 8.063 8.063 8.063h139.409c4.459 0 8.063-3.604 8.063-8.063s-3.604-8.063-8.063-8.063z" />
<glyph unicode="&#xe318;" horiz-adv-x="1105" d="M892.154 106.726h-171.661c-4.459 0-8.063 3.604-8.063 8.063s3.604 8.063 8.063 8.063h171.661c4.459 0 8.063-3.604 8.063-8.063s-3.604-8.063-8.063-8.063z" />
<glyph unicode="&#xe319;" horiz-adv-x="1105" d="M996.989 106.726h-50.708c-4.459 0-8.063 3.604-8.063 8.063s3.604 8.063 8.063 8.063h50.708c4.459 0 8.063-3.604 8.063-8.063s-3.604-8.063-8.063-8.063z" />
<glyph unicode="&#xe31a;" horiz-adv-x="1105" d="M262.515 209.021h-123.283c-4.459 0-8.063 3.604-8.063 8.063s3.604 8.063 8.063 8.063h123.283c4.459 0 8.063-3.604 8.063-8.063s-3.604-8.063-8.063-8.063z" />
<glyph unicode="&#xe31b;" horiz-adv-x="1105" d="M206.735 157.869h-139.409c-4.459 0-8.063 3.604-8.063 8.063s3.604 8.063 8.063 8.063h139.409c4.459 0 8.063-3.604 8.063-8.063s-3.604-8.063-8.063-8.063z" />
<glyph unicode="&#xe31c;" horiz-adv-x="1105" d="M392.2 106.726h-179.732c-4.459 0-8.063 3.604-8.063 8.063s3.604 8.063 8.063 8.063h179.732c4.459 0 8.063-3.604 8.063-8.063s-3.604-8.063-8.063-8.063z" />
<glyph unicode="&#xe31d;" horiz-adv-x="1105" d="M158.349 106.726h-50.708c-4.459 0-8.063 3.604-8.063 8.063s3.604 8.063 8.063 8.063h50.708c4.459 0 8.063-3.604 8.063-8.063s-3.604-8.063-8.063-8.063z" />
<glyph unicode="&#xe31e;" glyph-name="download" d="M640 790.4h169.6c35.2 0 64-12.8 89.6-38.4s38.4-54.4 38.4-89.6v-598.4c0-35.2-12.8-64-38.4-89.6s-54.4-38.4-89.6-38.4h-595.2c-35.2 0-64 12.8-89.6 38.4s-38.4 54.4-38.4 89.6v598.4c0 35.2 12.8 64 38.4 89.6s54.4 38.4 89.6 38.4h169.6v-86.4h-169.6c-12.8 0-22.4-3.2-32-12.8-6.4-9.6-12.8-19.2-12.8-28.8v-598.4c0-12.8 3.2-22.4 12.8-28.8 9.6-9.6 19.2-12.8 28.8-12.8h598.4c12.8 0 22.4 3.2 28.8 12.8s12.8 19.2 12.8 28.8v598.4c0 12.8-3.2 22.4-12.8 28.8-6.4 9.6-16 12.8-28.8 12.8h-169.6v86.4zM512 960c12.8 0 22.4-3.2 28.8-12.8s12.8-19.2 12.8-28.8v-537.6l99.2 99.2c9.6 9.6 19.2 12.8 28.8 12.8 12.8 0 22.4-3.2 32-12.8s12.8-19.2 12.8-32c0-12.8-3.2-22.4-12.8-28.8l-169.6-169.6c-9.6-9.6-19.2-12.8-28.8-12.8-12.8 0-22.4 3.2-28.8 12.8l-169.6 169.6c-9.6 9.6-12.8 19.2-12.8 28.8 0 12.8 3.2 22.4 12.8 28.8 9.6 9.6 19.2 12.8 28.8 12.8 12.8 0 22.4-3.2 28.8-12.8l99.2-99.2v540.8c0 12.8 3.2 22.4 12.8 28.8 3.2 9.6 12.8 12.8 25.6 12.8v0z" />
<glyph unicode="&#xe31f;" d="M395.413 524.224c12.416 0 24.832-4.139 34.496-12.416v12.416c0 33.109 26.219 68.971 62.080 68.971 12.416 0 24.832-4.139 34.496-12.416v164.16c0 33.109 26.219 68.971 62.080 68.971 15.168 0 28.971-6.891 40-17.941 11.029-9.664 17.941-23.445 20.693-37.248 9.664 8.277 22.080 13.803 35.861 13.803 35.861 0 62.080-35.861 62.080-68.971v-251.072c12.416 26.219 28.971 51.051 45.525 67.605 22.080 22.080 66.219 23.445 91.051 2.752 6.891-6.891 30.357-31.723-1.387-75.883-28.971-41.387-52.416-132.437-52.416-184.853 0-110.357-71.744-160.021-96.576-173.824v-74.496c0-8.277-5.525-13.803-13.803-13.803h-335.189v0.704c-5.888 1.536-9.685 6.059-9.685 11.712v78.635c-41.387 56.555-41.387 62.080-41.387 171.051v193.173c0 33.109 26.197 68.971 62.080 68.971z" />
<glyph unicode="&#xe320;" d="M360.917 262.101c0-104.853 0-104.853 38.635-157.269 2.752-2.752 2.752-6.891 2.752-9.664v-67.605h303.488v68.992c0 5.525 2.752 9.664 8.277 12.416 4.139 1.387 88.299 41.387 88.299 153.131 0 51.051 22.080 151.744 57.941 201.408 9.664 12.416 17.941 28.971 5.525 38.635-13.803 11.029-41.387 11.029-53.803-1.387-34.496-34.496-64.832-107.605-64.832-142.101 0-8.277-5.525-13.803-13.803-13.803s-13.803 5.525-13.803 13.803v344.896c0 19.307-15.168 41.387-34.496 41.387-19.307 0-34.496-22.080-34.496-41.387v-262.101c0-8.277-5.525-13.803-13.803-13.803s-13.803 5.525-13.803 13.803v303.488c0 11.029-5.525 23.445-13.803 31.723-5.525 5.525-13.803 9.664-20.693 9.664-19.307 0-34.496-22.080-34.496-41.387v-317.291c0-8.277-5.525-13.803-13.803-13.803s-13.803 5.525-13.803 13.803v96.576c0 19.307-15.168 41.387-34.496 41.387-19.307 0-34.496-22.080-34.496-41.387v-66.219c0-1.387 0-1.387 0-2.752v-55.189c0-8.277-5.525-13.803-13.803-13.803s-13.803 5.525-13.803 13.803v57.941c-1.387 17.941-16.555 38.635-34.496 38.635-19.307 0-34.496-22.080-34.496-41.387v-193.152z" />
<glyph unicode="&#xe321;" d="M394.048 496.448c46.443-193.429 187.925-338.603 360.064-358.187-19.605-19.84-38.144-28.651-40.043-29.269-5.525-2.752-8.277-6.891-8.277-12.416v-68.992h-303.488v67.605c0 2.752 0 6.891-2.752 9.664-38.635 52.416-38.635 52.416-38.635 157.269v193.131c0 18.837 14.485 40.149 33.131 41.195z" />
<glyph unicode="&#xe322;" d="M595.435 163.52c0 8.277-5.525 13.803-13.803 13.803h-41.387c-8.277 0-13.803-5.525-13.803-13.803s5.525-13.803 13.803-13.803h41.387c8.299 0 13.803 5.525 13.803 13.803zM512.661 108.331c0-8.277 5.525-13.803 13.803-13.803h68.971c8.277 0 13.803 5.525 13.803 13.803s-5.525 13.803-13.803 13.803h-68.971c-8.277 0-13.803-5.525-13.803-13.803z" />
<glyph unicode="&#xe323;" d="M489.899 702.677c-0.768 1.643-78.549 163.093-297.088 110.037l40.832 53.867c6.101 8.085 4.523 19.584-3.541 25.707-8.064 6.101-19.563 4.523-25.685-3.541l-78.997-104.277 104.277-78.997c2.24-1.685 4.736-2.795 7.317-3.328 6.72-1.408 13.952 1.045 18.368 6.869 6.101 8.064 4.523 19.584-3.541 25.685l-54.613 41.387c191.765 48.768 256.768-83.221 259.456-88.875 3.136-6.613 9.728-10.517 16.619-10.517 2.603 0 5.227 0.555 7.723 1.728 9.152 4.245 13.12 15.083 8.875 24.256z" />
<glyph unicode="&#xe324;" d="M395.413 524.224c12.416 0 24.832-4.139 34.496-12.416v12.416c0 33.109 26.219 68.971 62.080 68.971 12.416 0 24.832-4.139 34.496-12.416v164.16c0 33.109 26.219 68.971 62.080 68.971 15.168 0 28.971-6.891 40-17.941 11.029-9.664 17.941-23.445 20.693-37.248 9.664 8.277 22.080 13.803 35.861 13.803 35.861 0 62.080-35.861 62.080-68.971v-251.072c12.416 26.219 28.971 51.051 45.525 67.605 22.080 22.080 66.219 23.445 91.051 2.752 6.891-6.891 30.357-31.723-1.387-75.883-28.971-41.387-52.416-132.437-52.416-184.853 0-110.357-71.744-160.021-96.576-173.824v-74.496c0-8.277-5.525-13.803-13.803-13.803h-335.189v0.704c-5.888 1.536-9.685 6.059-9.685 11.712v78.635c-41.387 56.555-41.387 62.080-41.387 171.051v193.173c0 33.109 26.197 68.971 62.080 68.971z" />
<glyph unicode="&#xe325;" d="M360.917 262.101c0-104.853 0-104.853 38.635-157.269 2.752-2.752 2.752-6.891 2.752-9.664v-67.605h303.488v68.992c0 5.525 2.752 9.664 8.277 12.416 4.139 1.387 88.299 41.387 88.299 153.131 0 51.051 22.080 151.744 57.941 201.408 9.664 12.416 17.941 28.971 5.525 38.635-13.803 11.029-41.387 11.029-53.803-1.387-34.496-34.496-64.832-107.605-64.832-142.101 0-8.277-5.525-13.803-13.803-13.803s-13.803 5.525-13.803 13.803v344.896c0 19.307-15.168 41.387-34.496 41.387-19.307 0-34.496-22.080-34.496-41.387v-262.101c0-8.277-5.525-13.803-13.803-13.803s-13.803 5.525-13.803 13.803v303.488c0 11.029-5.525 23.445-13.803 31.723-5.525 5.525-13.803 9.664-20.693 9.664-19.307 0-34.496-22.080-34.496-41.387v-317.291c0-8.277-5.525-13.803-13.803-13.803s-13.803 5.525-13.803 13.803v96.576c0 19.307-15.168 41.387-34.496 41.387-19.307 0-34.496-22.080-34.496-41.387v-66.219c0-1.387 0-1.387 0-2.752v-55.189c0-8.277-5.525-13.803-13.803-13.803s-13.803 5.525-13.803 13.803v57.941c-1.387 17.941-16.555 38.635-34.496 38.635-19.307 0-34.496-22.080-34.496-41.387v-193.152h0.107z" />
<glyph unicode="&#xe326;" d="M394.048 496.448c46.443-193.429 187.925-338.603 360.064-358.187-19.605-19.84-38.144-28.651-40.043-29.269-5.525-2.752-8.277-6.891-8.277-12.416v-68.992h-303.488v67.605c0 2.752 0 6.891-2.752 9.664-38.635 52.416-38.635 52.416-38.635 157.269v193.131c0 18.837 14.485 40.149 33.131 41.195z" />
<glyph unicode="&#xe327;" d="M595.435 163.52c0 8.277-5.525 13.803-13.803 13.803h-41.387c-8.277 0-13.803-5.525-13.803-13.803s5.525-13.803 13.803-13.803h41.387c8.299 0 13.803 5.525 13.803 13.803zM512.661 108.331c0-8.277 5.525-13.803 13.803-13.803h68.971c8.277 0 13.803 5.525 13.803 13.803s-5.525 13.803-13.803 13.803h-68.971c-8.277 0-13.803-5.525-13.803-13.803z" />
<glyph unicode="&#xe328;" d="M341.653 616.256l-25.451-25.451v249.771l25.451-25.451c3.925-3.925 7.829-5.867 13.717-5.867 5.867 0 9.792 1.963 13.717 5.867 7.829 7.829 7.829 19.584 0 27.413l-56.491 56.491c-3.371 4.949-8.789 8.128-15.957 8.128-7.189 0-12.608-3.179-15.957-8.128l-56.491-56.491c-7.829-7.829-7.829-19.584 0-27.413s19.584-7.829 27.413 0l25.451 25.451v-249.771l-25.451 25.451c-7.829 7.829-19.584 7.829-27.413 0s-7.829-19.584 0-27.413l56.491-56.491c3.371-4.949 8.789-8.128 15.957-8.128s12.587 3.179 15.957 8.128l56.491 56.491c7.829 7.829 7.829 19.584 0 27.413-7.851 7.829-19.605 7.829-27.435 0z" />
<glyph unicode="&#xe329;" glyph-name="draw12" d="M512 825.6c-281.6 0-512-176-512-396.8 0-134.4 192-137.6 352-112 118.4 16 211.2-28.8 211.2-118.4s99.2-160 208-112c150.4 70.4 252.8 198.4 252.8 342.4 0 220.8-230.4 396.8-512 396.8zM188.8 531.2c-25.6 0-48 22.4-48 48s22.4 48 48 48 48-22.4 48-48-19.2-48-48-48zM348.8 636.8c-25.6 0-48 22.4-48 48s22.4 48 48 48 48-22.4 48-48-22.4-48-48-48zM560 652.8c-25.6 0-48 22.4-48 48s22.4 48 48 48 48-19.2 48-48-19.2-48-48-48zM736 166.4c-44.8 0-80 35.2-80 80s35.2 80 80 80 80-35.2 80-80c0-41.6-35.2-80-80-80zM768 585.6c-25.6 0-48 22.4-48 48s22.4 48 48 48 48-22.4 48-48-22.4-48-48-48zM864 400c-25.6 0-48 22.4-48 48s22.4 48 48 48c25.6 0 48-22.4 48-48s-19.2-48-48-48z" />
<glyph unicode="&#xe32a;" glyph-name="edit1" d="M1014.4 681.6l-265.6 265.6c-9.6 9.6-19.2 12.8-28.8 12.8s-19.2-3.2-25.6-9.6l-694.4-694.4v-320h320l694.4 694.4c6.4 6.4 9.6 16 9.6 25.6s-3.2 19.2-9.6 25.6zM96 32v156.8l156.8-156.8h-156.8zM339.2 83.2l-192 192 441.6 441.6 192-192c0 0-441.6-441.6-441.6-441.6zM851.2 595.2l-192 192 60.8 60.8 192-192c0 0-60.8-60.8-60.8-60.8z" />
<glyph unicode="&#xe32b;" glyph-name="font-edit" d="M467.2 176l-230.4 230.4 486.4 486.4 230.4-230.4c0 0-486.4-486.4-486.4-486.4zM323.2 406.4l144-144 396.8 400-144 144-396.8-400zM467.2 198.4l-211.2 214.4c-6.4 6.4-19.2 0-19.2-6.4l-6.4-224 230.4-6.4c16 0 19.2 16 6.4 22.4z" />
<glyph unicode="&#xe32c;" glyph-name="gear" d="M515.2 640c-51.2 0-99.2-19.2-134.4-57.6s-57.6-83.2-57.6-134.4 19.2-99.2 57.6-134.4c35.2-35.2 83.2-57.6 134.4-57.6s99.2 19.2 134.4 57.6 57.6 83.2 57.6 134.4-19.2 99.2-57.6 134.4c-35.2 38.4-83.2 57.6-134.4 57.6zM515.2 288c-89.6 0-160 70.4-160 160s70.4 160 160 160 160-70.4 160-160-73.6-160-160-160zM403.2 793.6c9.6-12.8 19.2-25.6 32-35.2 22.4-12.8 51.2-22.4 76.8-22.4s54.4 9.6 73.6 22.4c12.8 9.6 25.6 22.4 32 35.2 22.4-6.4 44.8-12.8 64-25.6-3.2-16-3.2-32 0-48 3.2-25.6 16-51.2 35.2-70.4 25.6-25.6 57.6-38.4 92.8-38.4 9.6 0 16 0 25.6 3.2 9.6-19.2 19.2-38.4 25.6-60.8-12.8-9.6-25.6-19.2-35.2-32-16-22.4-25.6-48-25.6-73.6s9.6-51.2 22.4-73.6c9.6-12.8 22.4-25.6 35.2-32-6.4-19.2-16-41.6-25.6-60.8-9.6 0-16 3.2-25.6 3.2-35.2 0-67.2-12.8-92.8-38.4-19.2-19.2-32-41.6-35.2-70.4-3.2-16-3.2-32 0-48-19.2-9.6-38.4-19.2-60.8-25.6-9.6 12.8-19.2 25.6-32 35.2-22.4 12.8-48 22.4-73.6 22.4s-51.2-9.6-73.6-22.4c-12.8-9.6-25.6-22.4-32-35.2-19.2 6.4-41.6 16-60.8 25.6 3.2 16 3.2 32 0 48-3.2 25.6-16 51.2-35.2 70.4-25.6 25.6-57.6 38.4-92.8 38.4-9.6 0-16 0-25.6-3.2-9.6 19.2-19.2 38.4-25.6 60.8 12.8 9.6 25.6 19.2 35.2 32 12.8 19.2 22.4 48 22.4 73.6s-9.6 54.4-22.4 73.6c-9.6 12.8-22.4 25.6-35.2 32 6.4 19.2 16 41.6 25.6 60.8 9.6-3.2 16-3.2 25.6-3.2 35.2 0 67.2 12.8 92.8 38.4 19.2 19.2 32 41.6 35.2 70.4 3.2 16 3.2 32 0 48 16 12.8 38.4 19.2 57.6 25.6v0zM604.8 832c-12.8-38.4-51.2-64-92.8-64s-76.8 25.6-92.8 64c-41.6-9.6-80-25.6-115.2-48 19.2-35.2 9.6-80-19.2-108.8-19.2-19.2-44.8-28.8-70.4-28.8-12.8 0-28.8 3.2-41.6 9.6-22.4-35.2-38.4-73.6-48-115.2 38.4-12.8 64-51.2 64-92.8s-25.6-76.8-64-92.8c9.6-41.6 25.6-80 48-115.2 12.8 6.4 25.6 9.6 41.6 9.6 25.6 0 51.2-9.6 70.4-28.8 28.8-28.8 35.2-73.6 19.2-108.8 35.2-22.4 73.6-38.4 115.2-48 12.8 38.4 51.2 64 92.8 64s76.8-25.6 92.8-64c41.6 9.6 80 25.6 115.2 48-16 35.2-9.6 80 19.2 108.8 19.2 19.2 44.8 28.8 70.4 28.8 12.8 0 28.8-3.2 41.6-9.6 22.4 35.2 38.4 73.6 48 115.2-38.4 12.8-64 51.2-64 92.8s25.6 76.8 64 92.8c-9.6 41.6-25.6 80-48 115.2-12.8-6.4-25.6-9.6-41.6-9.6-25.6 0-51.2 9.6-70.4 28.8-28.8 28.8-35.2 73.6-19.2 108.8-35.2 22.4-73.6 38.4-115.2 48 0 0 0 0 0 0z" />
<glyph unicode="&#xe32d;" glyph-name="html9" d="M883.2 713.6c0 3.2 0 9.6-3.2 12.8l-198.4 224c0 0 0 0 0 0s-3.2 3.2-3.2 3.2c0 0 0 0 0 0s-3.2 0-3.2 3.2c0 0 0 0 0 0s-3.2 0-3.2 0h-492.8c-19.2 3.2-38.4-16-38.4-38.4v-944c0-19.2 19.2-38.4 38.4-38.4h662.4c22.4 0 41.6 19.2 41.6 41.6v736c0 0 0 0 0 0v0zM179.2 918.4h464v-204.8c0-9.6 9.6-19.2 19.2-19.2h176v-416h-659.2v640zM336 32h-41.6v76.8h-64v-76.8h-41.6v182.4h41.6v-70.4h67.2v70.4h41.6v-182.4zM492.8 179.2h-48v-147.2h-41.6v147.2h-48v35.2h137.6c0 0 0-35.2 0-35.2zM668.8 32l-3.2 70.4c0 22.4 0 48 0 76.8v0c-6.4-22.4-12.8-48-19.2-70.4l-22.4-70.4h-32l-19.2 70.4c-6.4 22.4-12.8 48-16 70.4v0c0-25.6-3.2-54.4-3.2-76.8l-6.4-70.4h-35.2l12.8 182.4h51.2l16-60.8c6.4-22.4 9.6-44.8 16-64v0c6.4 22.4 9.6 44.8 16 67.2l19.2 60.8h51.2l9.6-182.4-35.2-3.2zM851.2 32h-112v182.4h41.6v-147.2h70.4v-35.2zM288 496l153.6-70.4v35.2l-115.2 51.2 115.2 51.2v35.2l-153.6-73.6v-28.8zM464 412.8h32l67.2 233.6h-32l-67.2-233.6zM582.4 563.2l121.6-51.2-118.4-51.2v-35.2l153.6 70.4v28.8l-153.6 70.4v-32z" />
<glyph unicode="&#xe32e;" glyph-name="inapp-embed" horiz-adv-x="1376" d="M470.4 278.4l-163.2 83.2c-19.2 6.4-35.2 19.2-35.2 41.6v6.4c0 19.2 12.8 35.2 28.8 41.6l163.2 83.2c6.4 0 12.8 6.4 19.2 6.4 12.8 0 28.8-12.8 28.8-35.2 0-12.8-6.4-28.8-19.2-28.8l-150.4-67.2 150.4-67.2c12.8-6.4 19.2-19.2 19.2-35.2 0-19.2-12.8-35.2-35.2-28.8 0 0 0 0-6.4 0v0zM566.4 208l192 403.2c6.4 12.8 12.8 19.2 28.8 19.2s28.8-12.8 28.8-28.8c0-6.4 0-12.8-6.4-12.8l-192-409.6c-9.6-9.6-16-19.2-32-19.2s-28.8 12.8-28.8 28.8c3.2 6.4 3.2 12.8 9.6 19.2zM908.8 531.2l163.2-83.2c19.2-6.4 28.8-19.2 28.8-41.6v-6.4c0-19.2-12.8-35.2-28.8-41.6l-163.2-83.2c-6.4 0-12.8-6.4-19.2-6.4-12.8 0-28.8 12.8-28.8 35.2 0 12.8 6.4 28.8 19.2 28.8l150.4 67.2-150.4 67.2c-12.8 6.4-19.2 19.2-19.2 35.2 0 19.2 12.8 35.2 35.2 28.8 6.4 0 12.8 0 12.8 0v0zM1350.4 905.6c0 28.8-19.2 48-48 48h-1241.6c-28.8 0-48-19.2-48-48v-915.2c0-28.8 19.2-48 48-48h1241.6c28.8 0 48 19.2 48 48 0 0 0 915.2 0 915.2zM320 905.6c19.2 0 35.2-12.8 35.2-35.2s-19.2-25.6-35.2-25.6c-19.2 0-32 12.8-32 32s12.8 28.8 32 28.8zM224 905.6c19.2 0 35.2-12.8 35.2-35.2s-12.8-25.6-35.2-25.6-32 12.8-32 32 12.8 28.8 32 28.8zM131.2 905.6c19.2 0 35.2-12.8 35.2-35.2s-16-25.6-35.2-25.6-35.2 12.8-35.2 32 19.2 28.8 35.2 28.8zM1289.6 3.2h-1216v780.8h1209.6v-777.6h6.4z" />
<glyph unicode="&#xe32f;" glyph-name="inapplist" d="M214.4 713.6h-198.4v201.6h198.4v-201.6zM44.8 745.6h128v131.2h-128v-131.2zM214.4 352h-198.4v192h198.4v-192zM44.8 380.8h128v134.4h-128v-134.4zM214.4-19.2h-198.4v198.4h198.4v-198.4zM44.8 19.2h128v128h-128v-128zM316.8 825.6h691.2v-35.2h-691.2v35.2zM316.8 464h691.2v-35.2h-691.2c0 0 0 35.2 0 35.2zM316.8 99.2h691.2v-35.2h-691.2v35.2z" />
<glyph unicode="&#xe330;" glyph-name="key" d="M704 960c-176 0-320-144-320-320 0-41.6 9.6-80 22.4-115.2l-387.2-390.4c-12.8-9.6-19.2-22.4-19.2-38.4v-96c0-35.2 28.8-64 64-64h96c16 0 28.8 6.4 38.4 19.2l48 44.8h73.6c35.2 0 64 28.8 64 64v64h64c35.2 0 64 28.8 64 64v73.6l76.8 76.8c35.2-12.8 73.6-22.4 115.2-22.4 176 0 320 144 320 320s-144 320-320 320v0zM704 384c-48 0-92.8 12.8-128 35.2l-105.6-105.6c-12.8-12.8-19.2-28.8-19.2-44.8v-76.8h-64c-35.2 0-64-28.8-64-64v-64h-76.8c-16 0-32-6.4-44.8-19.2l-48-44.8h-89.6v89.6l374.4 371.2c0 0 0 0 0 0l48 48c-22.4 38.4-35.2 83.2-35.2 128 0 140.8 115.2 256 256 256s256-115.2 256-256-118.4-252.8-259.2-252.8v0zM889.6 697.6c-35.2 51.2-80 92.8-131.2 131.2-6.4 3.2-16 3.2-25.6 0-44.8-16-73.6-44.8-89.6-89.6-3.2-3.2-3.2-6.4-3.2-9.6 0-6.4 3.2-12.8 6.4-19.2 35.2-51.2 80-92.8 131.2-131.2 9.6-6.4 19.2-6.4 28.8-3.2 44.8 16 73.6 44.8 89.6 89.6 0 6.4 0 9.6 0 12.8 0 6.4-3.2 12.8-6.4 19.2v0zM793.6 608c-48 35.2-89.6 76.8-121.6 121.6 12.8 35.2 35.2 57.6 70.4 70.4 48-35.2 89.6-73.6 121.6-121.6-12.8-35.2-35.2-57.6-70.4-70.4v0z" />
<glyph unicode="&#xe331;" glyph-name="lock-01" d="M716.8 550.4v128c0 70.4-57.6 128-128 128h-153.6c-70.4 0-128-57.6-128-128v-128h-102.4v-460.8h614.4v460.8c0 0-102.4 0-102.4 0zM358.4 678.4c0 41.6 35.2 76.8 76.8 76.8h153.6c41.6 0 76.8-35.2 76.8-76.8v-128h-307.2c0 0 0 128 0 128zM768 140.8h-512v358.4h512v-358.4zM512 345.6c-19.2 0-32-19.2-32-51.2s16-102.4 32-102.4c16 0 32 70.4 32 102.4s-12.8 51.2-32 51.2z" />
<glyph unicode="&#xe332;" glyph-name="modownarrow" d="M505.6 310.4l-486.4 227.2c-19.2 12.8-25.6 25.6-19.2 41.6s25.6 25.6 35.2 19.2c0 0 0 0 6.4 0l464-217.6 470.4 217.6c19.2 6.4 28.8 0 41.6-12.8s0-28.8-12.8-41.6v0l-499.2-233.6z" />
<glyph unicode="&#xe333;" glyph-name="moicons-01" d="M537.6 576c12.8 0 25.6 12.8 25.6 32s-12.8 32-25.6 32h-288c-12.8 0-25.6-12.8-25.6-32s12.8-32 25.6-32h288zM640 256h-384c-19.2 0-32-12.8-32-32s12.8-32 32-32h384c19.2 0 32 12.8 32 32s-12.8 32-32 32zM224 416c0-19.2 12.8-32 32-32h384c19.2 0 32 12.8 32 32s-12.8 32-32 32h-384c-19.2 0-32-12.8-32-32zM800 640c-19.2 0-32-12.8-32-32v-576h-640v768h448c19.2 0 32 12.8 32 32s-12.8 32-32 32h-480c-19.2 0-32-12.8-32-32v-832c0-19.2 12.8-32 32-32h704c19.2 0 32 12.8 32 32v608c0 19.2-12.8 32-32 32zM896 864h-64v64c0 19.2-12.8 32-32 32s-32-12.8-32-32v-64h-64c-19.2 0-32-12.8-32-32s12.8-32 32-32h64v-64c0-19.2 12.8-32 32-32s32 12.8 32 32v64h64c19.2 0 32 12.8 32 32s-12.8 32-32 32z" />
<glyph unicode="&#xe334;" glyph-name="moicons-02" d="M54.4 924.8c28.8 0 54.4-19.2 54.4-54.4s-25.6-48-54.4-48-54.4 22.4-54.4 48 19.2 54.4 54.4 54.4zM54.4 652.8c28.8 0 54.4-19.2 54.4-54.4s-28.8-48-54.4-48-54.4 19.2-54.4 48 19.2 54.4 54.4 54.4zM54.4 380.8c28.8 0 54.4-19.2 54.4-54.4s-28.8-48-54.4-48-54.4 19.2-54.4 48 19.2 54.4 54.4 54.4zM54.4 105.6c28.8 0 54.4-19.2 54.4-54.4s-19.2-54.4-54.4-54.4-54.4 28.8-54.4 54.4 19.2 54.4 54.4 54.4zM976 828.8h-752c-19.2 0-32 22.4-32 35.2s12.8 35.2 32 35.2h752c19.2 0 35.2-12.8 35.2-35.2s-16-35.2-35.2-35.2zM976 556.8h-752c-19.2 0-35.2 19.2-35.2 35.2s12.8 35.2 35.2 35.2h752c19.2 0 35.2-12.8 35.2-35.2s-16-35.2-35.2-35.2zM976 284.8h-752c-19.2 0-35.2 19.2-35.2 35.2s16 32 35.2 32h752c19.2 0 35.2-12.8 35.2-35.2s-16-32-35.2-32zM976 9.6h-752c-19.2 0-35.2 12.8-35.2 35.2s12.8 35.2 35.2 35.2h752c19.2 0 35.2-12.8 35.2-35.2s-16-35.2-35.2-35.2z" />
<glyph unicode="&#xe335;" glyph-name="moicons-03" d="M499.2 268.8c-96 0-172.8 76.8-172.8 172.8v339.2c0 96 76.8 179.2 172.8 179.2s172.8-76.8 172.8-172.8v0-339.2c6.4-102.4-76.8-179.2-172.8-179.2zM499.2 896c-64 0-108.8-51.2-108.8-108.8v-339.2c0-64 51.2-108.8 108.8-108.8 64 0 108.8 51.2 108.8 108.8v0 332.8c6.4 64-44.8 115.2-108.8 115.2v0c0 0 0 0 0 0zM838.4 454.4h-64c0-153.6-121.6-275.2-275.2-275.2s-275.2 128-275.2 275.2v0h-64c0-185.6 153.6-339.2 339.2-339.2 192 0 339.2 153.6 339.2 339.2 0 0 0 0 0 0zM531.2 166.4h-64v-179.2h64v179.2zM627.2 19.2h-256v-64h256v64z" />
<glyph unicode="&#xe336;" glyph-name="moicons-mute" d="M531.2 268.8c-32 0-57.6 6.4-83.2 19.2l44.8 51.2c19.2-6.4 25.6-6.4 38.4-6.4 64 0 108.8 51.2 108.8 108.8v0 44.8l64 64v-108.8c6.4-96-76.8-172.8-172.8-172.8zM300.8 320c-25.6 44.8-44.8 96-44.8 147.2 0 19.2-12.8 32-32 32s-32-12.8-32-32c0-70.4 25.6-140.8 64-198.4 0 0 44.8 51.2 44.8 51.2zM422.4 441.6v0 339.2c0 64 51.2 108.8 108.8 108.8v0 0c64 0 108.8-51.2 108.8-115.2v-115.2l64 64v57.6c6.4 102.4-76.8 179.2-172.8 179.2s-172.8-83.2-172.8-179.2v-339.2c0-19.2 6.4-38.4 12.8-57.6 0 0 51.2 57.6 51.2 57.6zM844.8 499.2c-19.2 0-32-12.8-32-32 0-147.2-115.2-268.8-268.8-275.2-6.4 0-6.4 0-12.8 0s-6.4 0-12.8 0c-44.8 0-89.6 12.8-128 38.4l-44.8-44.8c44.8-25.6 96-44.8 153.6-51.2v-115.2h-96c-19.2 0-32-12.8-32-32s12.8-32 32-32h256c19.2 0 32 12.8 32 32s-12.8 32-32 32h-96v115.2c172.8 12.8 307.2 160 307.2 332.8 6.4 19.2-12.8 32-25.6 32zM896 838.4c-12.8 12.8-32 12.8-44.8-6.4l-25.6-25.6-684.8-697.6c-12.8-6.4-12.8-19.2-12.8-25.6 0-19.2 12.8-32 32-32 6.4 0 19.2 6.4 25.6 6.4l25.6 25.6 684.8 704c0 0 0 0 6.4 6.4 6.4 12.8 6.4 32-6.4 44.8z" />
<glyph unicode="&#xe337;" glyph-name="momissed" d="M323.2 745.6l-115.2 166.4c-16 28.8-57.6 35.2-89.6 19.2v0l-3.2-12.8-73.6-67.2c-35.2-35.2-54.4-89.6-35.2-137.6 131.2-364.8 425.6-652.8 790.4-771.2 48-19.2 102.4 0 137.6 35.2l60.8 67.2c22.4 28.8 22.4 70.4-6.4 96v0l-6.4 6.4-163.2 115.2c-19.2 12.8-48 19.2-67.2 6.4l-118.4-60.8c0 0-262.4 137.6-358.4 352l54.4 124.8c12.8 19.2 6.4 41.6-6.4 60.8v0zM976 947.2c-12.8 12.8-28.8 12.8-41.6 0v0l-208-211.2-172.8 163.2h137.6c19.2 0 28.8 12.8 28.8 28.8s-12.8 32-32 32h-208c-19.2 0-32-12.8-32-28.8v-211.2c0-16 12.8-28.8 32-28.8s28.8 12.8 28.8 28.8v137.6l192-185.6c12.8-12.8 28.8-12.8 41.6 0l233.6 227.2c12.8 12.8 19.2 32 0 48 6.4-6.4 0-6.4 0 0v0z" />
<glyph unicode="&#xe338;" glyph-name="mopause" horiz-adv-x="448" d="M83.2-64c-48 0-83.2 35.2-83.2 83.2v0 857.6c0 48 35.2 83.2 83.2 83.2s83.2-35.2 83.2-83.2v0-860.8c-3.2-44.8-38.4-80-83.2-80zM83.2 902.4c-12.8 0-25.6-6.4-25.6-25.6v0-860.8c0-12.8 12.8-22.4 22.4-22.4s22.4 12.8 22.4 22.4v860.8c3.2 12.8-9.6 25.6-19.2 25.6v0c0 0 0 0 0 0zM374.4-64c-48 0-83.2 35.2-83.2 83.2v0 857.6c0 48 35.2 83.2 83.2 83.2s83.2-35.2 83.2-83.2v0-860.8c0-44.8-35.2-80-83.2-80zM374.4 902.4c-12.8 0-22.4-6.4-22.4-25.6v0-860.8c0-12.8 12.8-22.4 22.4-22.4s22.4 12.8 22.4 22.4v860.8c0 12.8-9.6 25.6-22.4 25.6v0c0 0 0 0 0 0z" />
<glyph unicode="&#xe339;" glyph-name="mopause3" d="M361.6-76.8c-35.2 0-60.8 25.6-60.8 60.8v915.2c0 35.2 25.6 60.8 60.8 60.8s60.8-25.6 60.8-60.8v-915.2c0-35.2-25.6-60.8-60.8-60.8zM662.4-76.8c-35.2 0-60.8 25.6-60.8 60.8v915.2c0 35.2 25.6 60.8 60.8 60.8s60.8-25.6 60.8-60.8v-915.2c0-35.2-25.6-60.8-60.8-60.8z" />
<glyph unicode="&#xe33a;" glyph-name="navicon" d="M192 476.8h640v-64h-640v64zM192 668.8h640v-64h-640v64zM192 284.8h640v-64h-640v64z" />
<glyph unicode="&#xe33b;" horiz-adv-x="1774" d="M1647.664 538.717h-1367.556c-11.603 0-21.004 9.401-21.004 21.004v197.382c0 11.603 9.401 21.004 21.004 21.004h1367.548c11.603 0 21.004-9.401 21.004-21.004v-197.382c0.008-11.603-9.393-21.004-20.996-21.004z" />
<glyph unicode="&#xe33c;" horiz-adv-x="1774" d="M456.244 662.016c0-36.012-29.193-65.205-65.205-65.205s-65.205 29.193-65.205 65.205c0 36.012 29.193 65.205 65.205 65.205s65.205-29.193 65.205-65.205z" />
<glyph unicode="&#xe33d;" horiz-adv-x="1774" d="M1647.664 207.828h-1367.556c-11.603 0-21.004 9.401-21.004 21.004v197.382c0 11.603 9.401 21.004 21.004 21.004h1367.548c11.603 0 21.004-9.401 21.004-21.004v-197.382c0.008-11.603-9.393-21.004-20.996-21.004z" />
<glyph unicode="&#xe33e;" horiz-adv-x="1774" d="M456.244 332.772c0-36.012-29.193-65.205-65.205-65.205s-65.205 29.193-65.205 65.205c0 36.012 29.193 65.205 65.205 65.205s65.205-29.193 65.205-65.205z" />
<glyph unicode="&#xe33f;" horiz-adv-x="1774" d="M1622.097 552.779h-1367.548c-14.296 0-25.923 11.619-25.923 25.914v197.382c0 14.296 11.627 25.914 25.923 25.914h1367.54c14.296 0 25.914-11.619 25.914-25.914v-197.382c0.008-14.296-11.619-25.914-25.906-25.914zM254.549 792.169c-8.869 0-16.102-7.224-16.102-16.094v-197.382c0-8.869 7.224-16.094 16.102-16.094h1367.54c8.869 0 16.094 7.224 16.094 16.094v197.382c0 8.869-7.224 16.094-16.094 16.094h-1367.54z" />
<glyph unicode="&#xe340;" horiz-adv-x="1774" d="M380.589 598.149c-40.976 0-74.317 33.34-74.317 74.317s33.34 74.317 74.317 74.317c2.709 0 4.91-2.201 4.91-4.91s-2.201-4.91-4.91-4.91c-35.558 0-64.488-28.93-64.488-64.488 0-35.566 28.93-64.496 64.488-64.496 35.566 0 64.496 28.93 64.496 64.496 0 9.305-1.935 18.279-5.765 26.672-1.129 2.467-0.032 5.378 2.435 6.499 2.459 1.105 5.378 0.040 6.499-2.435 4.402-9.684 6.644-20.020 6.644-30.736 0.008-40.992-33.332-74.325-74.309-74.325z" />
<glyph unicode="&#xe341;" horiz-adv-x="1774" d="M434.724 710.999c-1.435 0-2.862 0.629-3.822 1.83-2.048 2.548-4.306 4.959-6.7 7.152-4.394 4.031-9.305 7.434-14.586 10.095-2.419 1.234-3.395 4.185-2.177 6.604 1.234 2.419 4.161 3.395 6.604 2.177 6.088-3.080 11.74-6.983 16.803-11.627 2.758-2.532 5.346-5.305 7.708-8.24 1.701-2.104 1.371-5.209-0.75-6.902-0.911-0.734-2-1.089-3.080-1.089z" />
<glyph unicode="&#xe342;" horiz-adv-x="1774" d="M1485.252 732.003h-949.74c-2.709 0-4.91 2.201-4.91 4.91s2.201 4.91 4.91 4.91h949.74c2.709 0 4.91-2.201 4.91-4.91s-2.201-4.91-4.91-4.91z" />
<glyph unicode="&#xe343;" horiz-adv-x="1774" d="M1485.252 679.48h-949.74c-2.709 0-4.91 2.201-4.91 4.91s2.201 4.91 4.91 4.91h949.74c2.709 0 4.91-2.201 4.91-4.91 0-2.717-2.201-4.91-4.91-4.91z" />
<glyph unicode="&#xe344;" horiz-adv-x="1774" d="M1275.154 626.958h-739.642c-2.709 0-4.91 2.201-4.91 4.91s2.201 4.91 4.91 4.91h739.642c2.709 0 4.91-2.201 4.91-4.91s-2.201-4.91-4.91-4.91z" />
<glyph unicode="&#xe345;" horiz-adv-x="1774" d="M1622.097 221.89h-1367.548c-14.296 0-25.923 11.619-25.923 25.914v197.382c0 14.296 11.627 25.914 25.923 25.914h1367.54c14.296 0 25.914-11.619 25.914-25.914v-197.382c0.008-14.296-11.619-25.914-25.906-25.914zM254.549 461.28c-8.869 0-16.102-7.224-16.102-16.094v-197.382c0-8.869 7.224-16.094 16.102-16.094h1367.54c8.869 0 16.094 7.224 16.094 16.094v197.382c0 8.869-7.224 16.094-16.094 16.094h-1367.54z" />
<glyph unicode="&#xe346;" horiz-adv-x="1774" d="M380.589 267.252c-40.976 0-74.317 33.34-74.317 74.317s33.34 74.317 74.317 74.317c2.709 0 4.91-2.201 4.91-4.91s-2.201-4.91-4.91-4.91c-35.558 0-64.488-28.93-64.488-64.488 0-35.566 28.93-64.496 64.488-64.496 35.566 0 64.496 28.93 64.496 64.496 0 9.305-1.935 18.279-5.765 26.672-1.129 2.467-0.032 5.378 2.435 6.499 2.459 1.105 5.378 0.040 6.499-2.435 4.402-9.684 6.644-20.020 6.644-30.736 0.008-40.984-33.332-74.325-74.309-74.325z" />
<glyph unicode="&#xe347;" horiz-adv-x="1774" d="M434.724 380.102c-1.435 0-2.862 0.629-3.822 1.83-2.048 2.548-4.306 4.959-6.7 7.152-4.378 4.023-9.289 7.426-14.586 10.095-2.419 1.234-3.395 4.185-2.177 6.604 1.234 2.419 4.161 3.403 6.604 2.177 6.112-3.080 11.756-6.991 16.803-11.627 2.758-2.532 5.346-5.305 7.708-8.24 1.701-2.104 1.371-5.209-0.75-6.902-0.911-0.734-2-1.089-3.080-1.089z" />
<glyph unicode="&#xe348;" horiz-adv-x="1774" d="M1485.252 401.114h-949.74c-2.709 0-4.91 2.201-4.91 4.91s2.201 4.91 4.91 4.91h949.74c2.709 0 4.91-2.201 4.91-4.91s-2.201-4.91-4.91-4.91z" />
<glyph unicode="&#xe349;" horiz-adv-x="1774" d="M1485.252 348.583h-949.74c-2.709 0-4.91 2.201-4.91 4.91s2.201 4.91 4.91 4.91h949.74c2.709 0 4.91-2.201 4.91-4.91s-2.201-4.91-4.91-4.91z" />
<glyph unicode="&#xe34a;" horiz-adv-x="1774" d="M1275.154 296.069h-739.642c-2.709 0-4.91 2.201-4.91 4.91s2.201 4.91 4.91 4.91h739.642c2.709 0 4.91-2.201 4.91-4.91s-2.201-4.91-4.91-4.91z" />
<glyph unicode="&#xe34b;" horiz-adv-x="1774" d="M369.995 320.621v44.395h18.432c8.063 0 13.256-4.338 13.256-11.070 0-4.773-3.532-8.926-8.087-9.668v-0.25c6.023-0.581 10.24-4.926 10.24-10.796 0-7.813-5.757-12.619-15.231-12.619l-18.609 0.008zM377.937 346.318h7.265c5.539 0 8.644 2.338 8.644 6.458 0 3.878-2.677 6.063-7.418 6.063h-8.49v-12.522zM386.798 326.805c5.846 0 8.95 2.435 8.95 6.983 0 4.515-3.193 6.894-9.289 6.894h-8.523v-13.876h8.861z" />
<glyph unicode="&#xe34c;" horiz-adv-x="1774" d="M393.917 657.743h-16.344l-3.782-11.474h-8.184l15.755 44.395h8.95l15.755-44.395h-8.361l-3.79 11.474zM379.42 663.87h12.627l-6.184 18.956h-0.21l-6.233-18.956z" />
<glyph unicode="&#xe34d;" horiz-adv-x="1774" d="M60.593 804.005c0.242 0.605 0.629 1.153 1.137 1.588l10.337 8.837-13.304 2.83c-1.314 0.282-2.403 1.185-2.919 2.427l-5.217 12.554-6.797-11.772c-0.669-1.161-1.871-1.919-3.209-2.024l-13.554-1.080 9.103-10.103c0.895-0.992 1.242-2.371 0.935-3.677l-3.169-13.223 12.425 5.531c1.226 0.548 2.645 0.452 3.79-0.242l11.595-7.095-1.419 13.522c-0.065 0.661 0.032 1.322 0.266 1.927v0zM69.906 782.308c-0.476-1.201-1.306-2.193-2.395-2.878-1.967-1.242-4.419-1.258-6.402-0.048l-13.385 8.184-14.328-6.386c-2.121-0.943-4.556-0.613-6.346 0.871-1.79 1.492-2.564 3.814-2.024 6.079l3.653 15.255-10.498 11.659c-1.556 1.725-1.992 4.144-1.129 6.297 0.863 2.161 2.838 3.62 5.152 3.798l15.642 1.242 7.845 13.586c1.161 2.016 3.33 3.169 5.652 3.024 2.314-0.153 4.314-1.58 5.209-3.733l6.007-14.489 15.344-3.266c2.274-0.484 4.048-2.185 4.612-4.435 0.323-1.25 0.234-2.54-0.242-3.741-0.363-0.911-0.951-1.725-1.685-2.362l-11.925-10.2 1.637-15.602c0.105-0.943-0.032-1.943-0.395-2.854v0z" />
<glyph unicode="&#xe34e;" horiz-adv-x="1774" d="M208.154 918c-1.822-4.572 0.411-9.78 4.991-11.611 4.572-1.822 9.78 0.411 11.611 4.991 1.822 4.572-0.411 9.78-4.991 11.611-4.58 1.822-9.788-0.419-11.611-4.991v0zM232.327 908.365c-3.491-8.748-13.449-13.030-22.205-9.547-8.748 3.491-13.030 13.449-9.547 22.205 3.491 8.748 13.449 13.030 22.205 9.547 8.756-3.491 13.038-13.457 9.547-22.205v0z" />
<glyph unicode="&#xe34f;" horiz-adv-x="1774" d="M157.591 734.236c-1.822-4.572 0.411-9.78 4.991-11.611 4.572-1.822 9.78 0.411 11.611 4.991 1.822 4.572-0.411 9.78-4.991 11.611-4.58 1.822-9.78-0.419-11.611-4.991v0zM181.756 724.601c-3.491-8.748-13.449-13.030-22.205-9.547-8.748 3.491-13.030 13.449-9.547 22.205 3.491 8.748 13.449 13.030 22.205 9.547 8.756-3.499 13.038-13.457 9.547-22.205v0z" />
<glyph unicode="&#xe350;" horiz-adv-x="1774" d="M102.545 924.265c1.854 4.66 7.144 6.934 11.804 5.072 4.66-1.854 6.934-7.144 5.072-11.804-1.854-4.66-7.144-6.934-11.804-5.072-4.66 1.854-6.926 7.144-5.072 11.804v0z" />
<glyph unicode="&#xe351;" horiz-adv-x="1774" d="M263.442 881.958c1.854 4.66 7.144 6.934 11.804 5.072 4.66-1.854 6.934-7.144 5.072-11.804-1.854-4.66-7.144-6.934-11.804-5.072s-6.934 7.144-5.072 11.804v0z" />
<glyph unicode="&#xe352;" horiz-adv-x="1774" d="M202.873 777.478c-0.661-1.637-1.822-3.064-3.386-4.064-2.774-1.75-6.241-1.774-9.039-0.065l-32.502 19.891-34.808-15.497c-2.999-1.338-6.434-0.863-8.958 1.242-2.524 2.096-3.62 5.386-2.854 8.579l8.869 37.058-25.495 28.325c-2.201 2.435-2.806 5.846-1.588 8.902 1.218 3.048 3.999 5.112 7.281 5.362l37.985 3.016 19.053 33.002c1.637 2.846 4.693 4.483 7.974 4.265s6.096-2.225 7.353-5.265l14.602-35.195 7.99-1.701c2.201-0.468 3.604-2.637 3.145-4.838-0.468-2.201-2.637-3.604-4.838-3.145l-10.087 2.145c-1.314 0.282-2.403 1.185-2.919 2.427l-15.425 37.178c-0.056 0.145-0.194 0.242-0.347 0.25s-0.306-0.073-0.387-0.202l-20.125-34.856c-0.669-1.161-1.871-1.919-3.209-2.024l-40.121-3.185c-0.306-0.024-0.476-0.452-0.274-0.677l26.93-29.914c0.895-0.992 1.25-2.371 0.935-3.677l-9.369-39.146c-0.032-0.153 0.016-0.306 0.137-0.411 0.121-0.097 0.282-0.121 0.427-0.056l36.767 16.376c1.226 0.548 2.645 0.452 3.79-0.25l34.332-21.012c0.137-0.081 0.306-0.081 0.427 0.008 0.129 0.081 0.202 0.234 0.185 0.387l-4.209 40.025c-0.137 1.33 0.387 2.653 1.411 3.524l30.591 26.156c0.097 0.081 0.185 0.185 0.129 0.411-0.040 0.153-0.153 0.266-0.314 0.306l-16.36 3.483c-2.201 0.468-3.604 2.637-3.145 4.838 0.468 2.201 2.637 3.604 4.838 3.145l16.368-3.483c3.209-0.685 5.717-3.080 6.515-6.265 0.452-1.766 0.331-3.588-0.347-5.273-0.508-1.282-1.338-2.443-2.395-3.338l-28.954-24.761 3.983-37.896c0.137-1.451-0.065-2.846-0.564-4.104v0z" />
<glyph unicode="&#xe353;" horiz-adv-x="1774" d="M1725.496 283.12c11.683 0 21.157-9.474 21.157-21.157s-9.474-21.157-21.157-21.157c-11.683 0-21.157 9.474-21.157 21.157s9.474 21.157 21.157 21.157zM1725.496 293.699c-17.505 0-31.744-14.239-31.744-31.744s14.239-31.744 31.744-31.744c17.505 0 31.744 14.239 31.744 31.744-0.008 17.505-14.239 31.744-31.744 31.744v0z" />
<glyph unicode="&#xe354;" horiz-adv-x="1774" d="M1693.752 6.543c8.764 0 15.868-7.103 15.868-15.868s-7.103-15.868-15.868-15.868c-8.764 0-15.868 7.103-15.868 15.868s7.103 15.868 15.868 15.868zM1693.752 17.122c-14.578 0-26.455-11.861-26.455-26.455s11.861-26.455 26.455-26.455c14.578 0 26.455 11.861 26.455 26.455s-11.869 26.455-26.455 26.455v0z" />
<glyph unicode="&#xe355;" horiz-adv-x="1774" d="M1624.943 127.262c5.838 0 10.579-4.733 10.579-10.579 0-5.838-4.741-10.579-10.579-10.579-5.846 0-10.579 4.733-10.579 10.579 0 5.838 4.733 10.579 10.579 10.579zM1624.943 137.841c-11.667 0-21.157-9.49-21.157-21.157s9.49-21.157 21.157-21.157c11.667 0 21.157 9.49 21.157 21.157s-9.49 21.157-21.157 21.157v0z" />
<glyph unicode="&#xe356;" horiz-adv-x="1774" d="M1554.738 47.922h9.813v-5.733h-9.813v-11.183h-6.096v11.183h-9.869v5.733h9.869v10.466h6.096v-10.466z" />
<glyph unicode="&#xe357;" horiz-adv-x="1774" d="M1728.48 147.952h9.813v-5.733h-9.813v-11.183h-6.096v11.183h-9.869v5.733h9.869v10.466h6.096v-10.466z" />
<glyph unicode="&#xe358;" glyph-name="pencil2" d="M172.8 332.8l227.2-227.2 544 544-227.2 227.2-544-544zM761.6 742.4l-454.4-454.4-44.8 44.8 451.2 454.4 48-44.8zM940.8 921.6l44.8-44.8c51.2-51.2 51.2-131.2 0-182.4l-227.2 227.2c51.2 51.2 134.4 51.2 182.4 0zM336 80l-336-144 144 336 192-192z" />
<glyph unicode="&#xe359;" glyph-name="sort" d="M803.2 339.2c0-9.6-3.2-19.2-9.6-25.6l-256-256c-6.4-6.4-16-9.6-25.6-9.6s-19.2 3.2-25.6 9.6l-256 256c-6.4 6.4-9.6 16-9.6 25.6s3.2 19.2 9.6 25.6c6.4 6.4 16 9.6 25.6 9.6h512c9.6 0 19.2-3.2 25.6-9.6 6.4-9.6 9.6-16 9.6-25.6zM803.2 556.8c0-9.6-3.2-19.2-9.6-25.6s-16-9.6-25.6-9.6h-512c-9.6 0-19.2 3.2-25.6 9.6s-9.6 16-9.6 25.6 3.2 19.2 9.6 25.6l256 256c6.4 6.4 16 9.6 25.6 9.6s19.2-3.2 25.6-9.6l256-256c6.4-6.4 9.6-16 9.6-25.6z" />
<glyph unicode="&#xe35a;" glyph-name="tab-custom" d="M716.8 547.2c9.6 0 22.4 3.2 28.8 9.6 16 9.6 25.6 28.8 25.6 48 0 32-25.6 54.4-57.6 54.4s-57.6-25.6-57.6-54.4c0-6.4 3.2-16 3.2-22.4 16-22.4 35.2-35.2 57.6-35.2zM716.8 640c22.4 0 38.4-16 38.4-38.4 0-16-9.6-28.8-25.6-35.2-3.2-3.2-9.6-3.2-16-3.2-12.8 0-25.6 6.4-32 16-3.2 6.4-6.4 12.8-6.4 22.4 3.2 22.4 22.4 38.4 41.6 38.4v0zM1001.6 342.4h-976v38.4h204.8v112c0 51.2 41.6 89.6 89.6 89.6h233.6c3.2-3.2 12.8-12.8 44.8-22.4l3.2-6.4c-19.2-44.8-16-44.8-12.8-51.2l25.6-22.4c3.2-3.2 6.4-3.2 6.4-3.2 3.2 0 6.4 0 41.6 16l9.6-3.2c19.2-44.8 19.2-41.6 25.6-41.6h38.4c6.4 0 9.6 0 25.6 41.6l9.6 3.2c0 0 3.2-3.2 6.4-3.2v-108.8h224c-3.2-16-3.2-28.8 0-38.4v0zM601.6 563.2l3.2-9.6c-19.2-41.6-16-41.6-12.8-48l22.4-22.4c3.2-3.2 3.2-3.2 6.4-3.2s6.4 0 41.6 16l12.8-3.2c16-41.6 19.2-41.6 25.6-41.6h32c6.4 0 9.6 0 25.6 41.6l12.8 3.2c0 0 3.2 0 3.2 0 32-12.8 35.2-12.8 38.4-12.8s3.2 0 6.4 3.2l22.4 22.4c3.2 3.2 6.4 6.4-12.8 48l3.2 9.6c41.6 16 41.6 19.2 41.6 25.6v32c0 6.4 0 9.6-41.6 22.4l-3.2 9.6c19.2 41.6 16 41.6 12.8 48l-22.4 22.4c-3.2 3.2-3.2 3.2-6.4 3.2s-6.4 0-41.6-16l-12.8 3.2c-16 41.6-19.2 41.6-25.6 41.6h-32c-6.4 0-9.6 0-25.6-41.6l-12.8-3.2c-35.2 16-41.6 16-41.6 16-3.2 0-6.4 0-6.4-3.2l-22.4-22.4c-3.2-3.2-6.4-6.4 12.8-48l-3.2-9.6c-41.6-16-41.6-19.2-41.6-25.6v-32c0-3.2 0-3.2 0-6.4 3.2-6.4 12.8-9.6 41.6-19.2v0zM579.2 611.2c6.4 3.2 22.4 9.6 35.2 16 3.2 0 3.2 3.2 3.2 3.2l6.4 19.2c0 3.2 0 3.2 0 6.4-6.4 12.8-12.8 25.6-16 32l16 16c6.4-3.2 22.4-9.6 35.2-12.8 3.2 0 3.2 0 6.4 0l19.2 6.4c3.2 0 3.2 3.2 3.2 6.4 3.2 12.8 9.6 28.8 12.8 35.2h22.4c3.2-6.4 9.6-22.4 16-35.2 0-3.2 3.2-3.2 3.2-3.2l25.6-9.6c3.2 0 3.2 0 6.4 0 12.8 6.4 25.6 12.8 35.2 16l16-16c-3.2-6.4-9.6-22.4-12.8-35.2 0-3.2 0-3.2 0-6.4l6.4-19.2c0-3.2 3.2-3.2 6.4-3.2 12.8-3.2 28.8-9.6 35.2-12.8v-22.4c-6.4-3.2-22.4-9.6-35.2-16-3.2 0-3.2-3.2-6.4-3.2l-6.4-19.2c0-3.2 0-3.2 0-6.4 6.4-12.8 12.8-25.6 16-32l-16-16c-6.4 3.2-22.4 9.6-35.2 12.8 0 0 0 0-3.2 0s-3.2 0-6.4 0l-19.2-6.4c-3.2 0-3.2-3.2-3.2-6.4-3.2-12.8-9.6-28.8-12.8-35.2h-22.4c-3.2 6.4-9.6 22.4-12.8 35.2 0 3.2-3.2 3.2-3.2 3.2l-25.6 9.6c-3.2 0-3.2 0-6.4 0-12.8-6.4-28.8-12.8-35.2-16l-16 16c3.2 6.4 9.6 22.4 12.8 35.2 0 3.2 0 3.2 0 6.4l-6.4 19.2c0 3.2-3.2 3.2-6.4 3.2s-6.4 3.2-9.6 3.2c-9.6 3.2-19.2 6.4-25.6 9.6l3.2 22.4z" />
<glyph unicode="&#xe35b;" glyph-name="telephone98" d="M944 800c-86.4 73.6-240 115.2-432 115.2-195.2 0-345.6-41.6-435.2-115.2-41.6-35.2-76.8-76.8-76.8-134.4v-48c0-44.8 32-76.8 73.6-76.8h131.2c9.6 0 16 0 22.4 3.2 0 0 0 0 0 0-137.6-192-208-332.8-208-416v-64c0-44.8 35.2-80 83.2-80h812.8c44.8 0 83.2 35.2 83.2 80v70.4c0 83.2-108.8 259.2-204.8 403.2l-3.2 6.4c0 0 0 3.2-3.2 3.2 6.4-3.2 16-3.2 22.4-3.2h131.2c44.8 0 76.8 35.2 76.8 76.8v44.8c6.4 44.8-16 86.4-73.6 134.4v0zM627.2 688c-28.8 0-60.8-12.8-60.8-67.2v-44.8h-108.8v44.8c0 54.4-35.2 67.2-60.8 67.2s-60.8-12.8-60.8-67.2v-44.8h-38.4c-9.6 0-16-3.2-25.6-6.4 9.6 12.8 16 28.8 16 44.8 0 32 3.2 60.8 32 99.2 25.6 32 102.4 54.4 195.2 54.4s166.4-22.4 192-57.6c28.8-38.4 32-67.2 32-99.2 0-16 6.4-32 16-44.8-9.6 3.2-16 6.4-25.6 6.4h-35.2v44.8c-3.2 60.8-38.4 70.4-67.2 70.4v0zM969.6 131.2v-70.4c0-28.8-22.4-48-51.2-48h-812.8c-28.8 0-51.2 19.2-51.2 48v64c0 51.2 35.2 166.4 201.6 400 9.6 12.8 25.6 22.4 41.6 22.4h54.4c9.6 0 12.8 3.2 12.8 12.8v64c0 25.6 9.6 35.2 32 35.2s32-9.6 32-35.2v-64c0-9.6 9.6-12.8 16-12.8h134.4c9.6 0 16 3.2 16 12.8v64c0 25.6 9.6 35.2 32 35.2s32-9.6 32-35.2v-64c0-9.6 3.2-12.8 12.8-12.8h54.4c16 0 35.2-9.6 44.8-25.6l3.2-6.4c44.8-73.6 195.2-300.8 195.2-384v0zM992 617.6c0-28.8-19.2-48-44.8-48h-131.2c-28.8 0-48 22.4-48 48 0 35.2-3.2 73.6-38.4 118.4-32 41.6-115.2 67.2-217.6 67.2-80 0-182.4-19.2-220.8-67.2-32-44.8-35.2-83.2-35.2-118.4 0-28.8-22.4-48-48-48h-134.4c-25.6 0-44.8 19.2-44.8 48v48c0 44.8 25.6 76.8 67.2 112 83.2 70.4 227.2 108.8 416 108.8 182.4 0 332.8-38.4 412.8-108.8 48-41.6 67.2-76.8 67.2-112v-48zM544 259.2h-64c-9.6 0-16-6.4-16-16s6.4-16 16-16h64c9.6 0 16 6.4 16 16s-9.6 16-16 16zM425.6 444.8h-60.8c-9.6 0-16-6.4-16-16s6.4-16 16-16h60.8c9.6 0 16 6.4 16 16s-6.4 16-16 16zM544 198.4h-64c-9.6 0-16-6.4-16-16s6.4-16 16-16h64c9.6 0 16 6.4 16 16s-9.6 16-16 16zM425.6 384h-60.8c-9.6 0-16-6.4-16-16s6.4-16 16-16h60.8c9.6 0 16 6.4 16 16s-6.4 16-16 16zM425.6 198.4h-60.8c-9.6 0-16-6.4-16-16s6.4-16 16-16h60.8c9.6 0 16 6.4 16 16s-6.4 16-16 16zM425.6 323.2h-60.8c-9.6 0-16-6.4-16-16s6.4-16 16-16h60.8c9.6 0 16 6.4 16 16s-6.4 16-16 16zM425.6 259.2h-60.8c-9.6 0-16-6.4-16-16s6.4-16 16-16h60.8c9.6 0 16 6.4 16 16s-6.4 16-16 16zM659.2 259.2h-60.8c-9.6 0-16-6.4-16-16s6.4-16 16-16h60.8c9.6 0 16 6.4 16 16s-6.4 16-16 16zM659.2 323.2h-60.8c-9.6 0-16-6.4-16-16s6.4-16 16-16h60.8c9.6 0 16 6.4 16 16s-6.4 16-16 16zM544 323.2h-64c-9.6 0-16-6.4-16-16s6.4-16 16-16h64c9.6 0 16 6.4 16 16s-9.6 16-16 16zM659.2 444.8h-60.8c-9.6 0-16-6.4-16-16s6.4-16 16-16h60.8c9.6 0 16 6.4 16 16s-6.4 16-16 16zM659.2 384h-60.8c-9.6 0-16-6.4-16-16s6.4-16 16-16h60.8c9.6 0 16 6.4 16 16s-6.4 16-16 16zM544 384h-64c-9.6 0-16-6.4-16-16s9.6-16 16-16h64c9.6 0 16 6.4 16 16s-9.6 16-16 16zM659.2 198.4h-60.8c-9.6 0-16-6.4-16-16s6.4-16 16-16h60.8c9.6 0 16 6.4 16 16s-6.4 16-16 16zM544 444.8h-64c-9.6 0-16-6.4-16-16s9.6-12.8 16-12.8h64c9.6 0 16 6.4 16 16s-9.6 12.8-16 12.8z" />
<glyph unicode="&#xe35c;" glyph-name="telephony-ONhold" horiz-adv-x="896" d="M659.2 780.8v144c0 22.4-12.8 35.2-35.2 35.2s-35.2-12.8-35.2-35.2v-214.4l70.4 70.4zM588.8 470.4v-499.2c0-22.4 12.8-35.2 35.2-35.2s35.2 12.8 35.2 35.2v569.6l-70.4-70.4zM35.2 3.2c-22.4 0-35.2 12.8-35.2 35.2 0 9.6 3.2 16 9.6 25.6l816 816c12.8 9.6 38.4 9.6 48-6.4 9.6-12.8 9.6-32 0-44.8l-816-816c-6.4-6.4-12.8-9.6-22.4-9.6zM332.8 454.4v470.4c0 22.4-12.8 35.2-35.2 35.2s-35.2-12.8-35.2-35.2v-537.6c0 0 70.4 67.2 70.4 67.2zM268.8 144v-169.6c0-22.4 12.8-35.2 35.2-35.2s35.2 12.8 35.2 35.2v240l-70.4-70.4z" />
<glyph unicode="&#xe35d;" glyph-name="unlock-01" d="M358.4 550.4v179.2c0 41.6 35.2 76.8 76.8 76.8h153.6c41.6 0 76.8-35.2 76.8-76.8h51.2c0 70.4-57.6 128-128 128h-153.6c-70.4 0-128-57.6-128-128v-179.2h-102.4v-460.8h614.4v460.8c0 0-460.8 0-460.8 0zM768 140.8h-512v358.4h512v-358.4zM512 192c19.2 0 32 70.4 32 102.4s-16 51.2-32 51.2-32-19.2-32-51.2 12.8-102.4 32-102.4z" />
<glyph unicode="&#xe35e;" glyph-name="upload" d="M214.4 960h598.4c35.2 0 64-12.8 89.6-38.4s38.4-54.4 38.4-89.6v-598.4c0-35.2-12.8-64-38.4-89.6s-54.4-38.4-89.6-38.4h-172.8v86.4h169.6c12.8 0 22.4 3.2 28.8 12.8 9.6 9.6 12.8 19.2 12.8 28.8v598.4c0 12.8-3.2 22.4-12.8 28.8s-19.2 12.8-28.8 12.8h-595.2c-12.8 0-22.4-3.2-32-12.8-6.4-6.4-12.8-16-12.8-28.8v-598.4c0-12.8 3.2-22.4 12.8-28.8 9.6-9.6 19.2-12.8 32-12.8h169.6v-86.4h-169.6c-35.2 0-64 12.8-89.6 38.4s-38.4 54.4-38.4 89.6v598.4c0 35.2 12.8 64 38.4 89.6s54.4 38.4 89.6 38.4zM512 662.4c12.8 0 22.4-3.2 28.8-12.8l169.6-169.6c9.6-9.6 12.8-19.2 12.8-28.8 0-12.8-3.2-22.4-12.8-28.8-9.6-9.6-19.2-12.8-28.8-12.8-12.8 0-22.4 3.2-28.8 12.8l-99.2 99.2v-537.6c0-12.8-3.2-22.4-12.8-28.8-6.4-16-16-19.2-28.8-19.2s-22.4 3.2-28.8 12.8c-9.6 9.6-12.8 19.2-12.8 28.8v537.6l-99.2-99.2c-9.6-9.6-19.2-12.8-28.8-12.8-12.8 0-22.4 3.2-28.8 12.8s-16 19.2-16 32c0 12.8 3.2 22.4 12.8 28.8l169.6 172.8c9.6 6.4 19.2 12.8 32 12.8v0z" />
<glyph unicode="&#xe35f;" glyph-name="webform" d="M134.4 617.6h28.8v-16h-28.8v16zM176 617.6h358.4v-16h-358.4v16zM134.4 537.6h28.8v-16h-28.8v16zM176 537.6h358.4v-16h-358.4v16zM176 451.2h358.4v-16h-358.4v16zM134.4 451.2h28.8v-16h-28.8v16zM134.4 355.2h28.8v-16h-28.8v16zM176 339.2h348.8c3.2 3.2 6.4 6.4 9.6 9.6v6.4h-358.4v-16zM108.8 809.6c9.6 0 16-6.4 16-16s-6.4-19.2-16-19.2c-9.6 0-16 6.4-16 16s6.4 19.2 16 19.2zM169.6 809.6c9.6 0 16-6.4 16-16s-6.4-19.2-16-19.2c-9.6 0-16 9.6-16 19.2s6.4 16 16 16zM240 809.6c9.6 0 16-6.4 16-16s-6.4-19.2-16-19.2c-9.6 0-16 6.4-16 16s6.4 19.2 16 19.2zM707.2 854.4h-508.8c0 0-3.2 0-3.2 0-3.2 0-3.2 0-6.4 0s-3.2 0-6.4 0c-6.4 0-9.6 0-12.8 0v0h-89.6c-19.2 0-32-12.8-32-32v-800c0-19.2 12.8-32 32-32h476.8c-6.4 9.6-12.8 19.2-19.2 28.8h-457.6c-3.2 0-6.4 3.2-6.4 6.4v710.4h630.4c3.2 0 3.2 0 6.4 0v-272c9.6 3.2 19.2 3.2 25.6 6.4v352c3.2 16-9.6 32-28.8 32v0zM729.6 409.6c-131.2 0-236.8-105.6-236.8-236.8s105.6-236.8 236.8-236.8c131.2 0 236.8 105.6 236.8 236.8s-105.6 236.8-236.8 236.8zM896 214.4c35.2-12.8 54.4-25.6 54.4-41.6s-19.2-28.8-54.4-41.6c3.2 12.8 3.2 25.6 3.2 41.6s0 28.8-3.2 41.6zM892.8 230.4c-3.2 19.2-9.6 38.4-16 54.4 32-19.2 57.6-48 67.2-76.8-9.6 9.6-28.8 16-51.2 22.4zM729.6 108.8c-22.4 0-41.6 0-60.8 3.2-3.2 19.2-3.2 38.4-3.2 60.8s0 41.6 3.2 60.8c19.2 3.2 38.4 3.2 60.8 3.2s41.6 0 60.8-3.2c3.2-19.2 3.2-38.4 3.2-60.8s0-41.6-3.2-60.8c-16-3.2-38.4-3.2-60.8-3.2zM790.4 96c-3.2-25.6-6.4-51.2-12.8-70.4-16-3.2-28.8-3.2-44.8-3.2s-32 0-44.8 3.2c-6.4 19.2-9.6 44.8-12.8 70.4 19.2-3.2 38.4-3.2 60.8-3.2 16 0 35.2 0 54.4 3.2v0zM652.8 230.4c-3.2-19.2-3.2-38.4-3.2-60.8s0-38.4 3.2-60.8c-25.6 3.2-51.2 6.4-70.4 12.8-3.2 16-3.2 28.8-3.2 44.8s0 32 3.2 44.8c19.2 12.8 44.8 19.2 70.4 19.2v0zM585.6 236.8c6.4 22.4 12.8 41.6 19.2 60.8 19.2 9.6 38.4 16 60.8 19.2-6.4-22.4-9.6-44.8-12.8-70.4-22.4 0-44.8-6.4-67.2-9.6zM656 96c3.2-25.6 6.4-48 12.8-70.4-22.4 6.4-41.6 12.8-60.8 22.4-9.6 19.2-16 38.4-19.2 60.8 19.2-6.4 41.6-9.6 67.2-12.8zM672 249.6c3.2 25.6 6.4 51.2 12.8 70.4 16 3.2 28.8 3.2 44.8 3.2s32 0 44.8-3.2c6.4-19.2 9.6-44.8 12.8-70.4-19.2 3.2-38.4 3.2-57.6 3.2s-38.4-3.2-57.6-3.2zM793.6 316.8c22.4-6.4 41.6-12.8 60.8-19.2 9.6-19.2 16-38.4 19.2-60.8-22.4 6.4-44.8 9.6-70.4 12.8 0 22.4-3.2 48-9.6 67.2zM806.4 96c25.6 3.2 48 6.4 70.4 12.8-6.4-22.4-12.8-41.6-19.2-60.8-19.2-9.6-38.4-16-60.8-22.4 3.2 22.4 6.4 44.8 9.6 70.4zM806.4 112c3.2 19.2 3.2 38.4 3.2 60.8s0 38.4-3.2 60.8c25.6-3.2 51.2-6.4 70.4-12.8 3.2-16 3.2-28.8 3.2-44.8s0-32-3.2-44.8c-19.2-9.6-41.6-16-70.4-19.2v0zM934.4 259.2c-16 19.2-38.4 38.4-67.2 51.2-12.8 25.6-32 51.2-51.2 67.2 54.4-25.6 96-67.2 118.4-118.4zM844.8 320c-16 6.4-35.2 12.8-54.4 16-6.4 22.4-12.8 38.4-25.6 51.2 32-9.6 57.6-35.2 80-67.2zM729.6 393.6c12.8 0 28.8-19.2 41.6-54.4-12.8 3.2-25.6 3.2-41.6 3.2s-28.8 0-41.6-3.2c12.8 35.2 28.8 54.4 41.6 54.4zM672 336c-19.2-3.2-38.4-9.6-54.4-16 19.2 32 48 57.6 76.8 67.2-6.4-12.8-16-32-22.4-51.2zM646.4 377.6c-19.2-16-38.4-38.4-51.2-67.2-25.6-12.8-51.2-32-67.2-51.2 22.4 51.2 64 92.8 118.4 118.4zM582.4 284.8c-6.4-16-12.8-35.2-16-54.4-22.4-6.4-38.4-12.8-51.2-25.6 12.8 32 35.2 60.8 67.2 80zM566.4 214.4c-3.2-12.8-3.2-25.6-3.2-41.6s0-28.8 3.2-41.6c-35.2 9.6-54.4 25.6-54.4 41.6-3.2 12.8 19.2 28.8 54.4 41.6zM569.6 115.2c3.2-19.2 9.6-38.4 16-54.4-32 19.2-57.6 48-67.2 76.8 9.6-9.6 28.8-16 51.2-22.4zM528 86.4c16-19.2 38.4-38.4 67.2-51.2 12.8-25.6 32-51.2 51.2-67.2-54.4 25.6-96 67.2-118.4 118.4zM617.6 25.6c16-6.4 35.2-12.8 54.4-16 6.4-22.4 12.8-38.4 25.6-51.2-32 9.6-60.8 32-80 67.2zM729.6-48c-12.8 0-28.8 19.2-41.6 54.4 12.8-3.2 25.6-3.2 41.6-3.2s28.8 0 41.6 3.2c-9.6-35.2-25.6-54.4-41.6-54.4zM790.4 9.6c19.2 3.2 38.4 9.6 54.4 16-19.2-32-48-57.6-76.8-67.2 6.4 12.8 16 32 22.4 51.2zM816-32c19.2 16 38.4 38.4 51.2 67.2 25.6 12.8 51.2 32 67.2 51.2-22.4-51.2-64-96-118.4-118.4zM876.8 57.6c6.4 16 12.8 35.2 16 54.4 22.4 6.4 38.4 12.8 51.2 25.6-9.6-32-32-57.6-67.2-80z" />
</font>
</defs>
</svg>
