<svg xmlns="http://www.w3.org/2000/svg" viewBox="0 0 298 123.46"><defs><style>.cls-1{fill:#e5e5e5;opacity:0.25;}.cls-1,.cls-11,.cls-2,.cls-7,.cls-9{isolation:isolate;}.cls-10,.cls-11,.cls-2,.cls-4,.cls-5,.cls-6,.cls-9{fill:none;}.cls-2,.cls-4,.cls-5,.cls-6{stroke:#dadada;stroke-miterlimit:10;stroke-width:0.75px;}.cls-2,.cls-3{opacity:0.7;}.cls-4{stroke-dasharray:0.97 0.97;}.cls-5{stroke-dasharray:1.03 1.03;}.cls-6{stroke-dasharray:1.01 1.01;}.cls-7{fill:#d6d6d6;}.cls-11,.cls-7,.cls-9{opacity:0.5;}.cls-8{fill:gray;opacity:0.1;}.cls-11,.cls-9{stroke:#d6d6d6;}.cls-10,.cls-11,.cls-9{stroke-linejoin:round;}.cls-10{stroke:#fff;}.cls-10,.cls-11{stroke-linecap:round;}</style></defs><title>notification</title><g id="Layer_2" data-name="Layer 2"><g id="Layer_1-2" data-name="Layer 1"><path class="cls-1" d="M288.2,78.06H211c-1.9-2.6-2.1-5.1-.7-7.7h44a9.6,9.6,0,0,0,9.6-9.6h0a9.6,9.6,0,0,0-9.6-9.6H134.7c-1.8-2.7-1.7-5.4.2-8.2h40.7a9.6,9.6,0,0,0,9.6-9.6h0a9.6,9.6,0,0,0-9.6-9.6H9.6A9.6,9.6,0,0,0,0,33.36H0A9.6,9.6,0,0,0,9.6,43H69.3a7.81,7.81,0,0,1,.2,8.2H34.7a9.6,9.6,0,0,0-9.6,9.6h0a9.6,9.6,0,0,0,9.6,9.6H145.9a7.61,7.61,0,0,1-.6,7.7H63a9.6,9.6,0,0,0-9.6,9.6h0a9.6,9.6,0,0,0,9.6,9.6h72a7.84,7.84,0,0,1,0,7H102.4a9.6,9.6,0,0,0,0,19.2H216.9a9.6,9.6,0,0,0,0-19.2H199.7a6.36,6.36,0,0,1,0-7h88.7a9.6,9.6,0,0,0,9.6-9.6h0A9.77,9.77,0,0,0,288.2,78.06Z"/><polygon class="cls-2" points="76.5 70.46 79.3 70.76 77.4 72.76 77.9 75.46 75.4 74.26 73 75.66 73.4 72.96 71.4 71.06 74.1 70.56 75.2 68.06 76.5 70.46"/><g class="cls-3"><circle class="cls-4" cx="66.6" cy="22.76" r="4.3"/></g><g class="cls-3"><circle class="cls-5" cx="192.3" cy="117.76" r="4.3"/></g><polygon class="cls-2" points="139.2 17.26 141.2 17.46 139.8 18.86 140.2 20.86 138.5 19.96 136.7 20.96 137 18.96 135.6 17.66 137.5 17.36 138.3 15.56 139.2 17.26"/><polygon class="cls-2" points="215.1 2.56 217.1 2.86 215.7 4.26 216.1 6.16 214.4 5.36 212.6 6.26 212.9 4.36 211.5 2.96 213.4 2.66 214.2 0.86 215.1 2.56"/><g class="cls-3"><circle class="cls-6" cx="260.9" cy="54.26" r="8"/></g><path class="cls-7" d="M161.43,95.44h-30a2.74,2.74,0,0,1-2.69-2.69V90.27A2.38,2.38,0,0,1,130,88c6.83-4.76,9.31-5.58,11.79-23.59,2.69-19,18.21-19,18.21-19h1.24s15.52,0,18.21,19c2.49,18,5,19,11.8,23.59a2.6,2.6,0,0,1,1.24,2.28v2.48a2.74,2.74,0,0,1-2.69,2.69H160"/><path class="cls-8" d="M160.6,43a6.54,6.54,0,1,0-6.53-6.54A6.54,6.54,0,0,0,160.6,43Z"/><path class="cls-8" d="M170.67,100.42H150.54a.79.79,0,0,0-.8.82,10.9,10.9,0,0,0,21.73,0A.79.79,0,0,0,170.67,100.42Z"/><path class="cls-9" d="M192.25,86.27l-.64-.42c-5.93-3.94-7.92-5.26-10.2-21.73-2.12-15-11.86-19.17-17-20.31a8.32,8.32,0,1,0-7.63,0c-5.13,1.14-14.87,5.29-17,20.32-2.23,16.2-4.17,17.54-9.92,21.51l-.93.64a4.36,4.36,0,0,0-2.2,4v2.48a4.76,4.76,0,0,0,4.69,4.69h58.35a4.76,4.76,0,0,0,4.69-4.69V90.27A4.63,4.63,0,0,0,192.25,86.27Z"/><path class="cls-10" d="M148.65,77.78c-.48,1.74-1.13,3.32-2,3.89"/><path class="cls-10" d="M155.72,54.26s-6,4.69-6,16.28"/><line class="cls-11" x1="146.66" y1="118.67" x2="174.65" y2="118.67"/></g></g></svg>
