<?xml version="1.0" encoding="utf-8"?>
<!-- Generator: Adobe Illustrator 23.0.3, SVG Export Plug-In . SVG Version: 6.00 Build 0)  -->
<svg version="1.1" id="Layer_1" xmlns="http://www.w3.org/2000/svg" xmlns:xlink="http://www.w3.org/1999/xlink" x="0px" y="0px"
	 viewBox="0 0 298 123.5" style="enable-background:new 0 0 298 123.5;" xml:space="preserve">
<title>accountEmt</title>
<g>
	<g id="Layer_1-2">
		<path style="opacity:0.25;fill:#E5E5E5;enable-background:new    ;" d="M288.2,78.1H211c-1.9-2.6-2.1-5.1-0.7-7.7h44
			c5.3,0,9.6-4.3,9.6-9.6l0,0c0-5.3-4.3-9.6-9.6-9.6l0,0H134.7c-1.8-2.7-1.7-5.4,0.2-8.2h40.7c5.3,0,9.6-4.3,9.6-9.6c0,0,0,0,0,0
			l0,0c0-5.3-4.3-9.6-9.6-9.6l0,0H9.6c-5.3,0-9.6,4.3-9.6,9.6c0,0,0,0,0,0l0,0C0,38.7,4.3,43,9.6,43c0,0,0,0,0,0h59.7
			c1.6,2.5,1.7,5.6,0.2,8.2H34.7c-5.3,0-9.6,4.3-9.6,9.6c0,0,0,0,0,0l0,0c0,5.3,4.3,9.6,9.6,9.6h111.2c1.2,2.5,1,5.4-0.6,7.7H63
			c-5.3,0-9.6,4.3-9.6,9.6l0,0c0,5.3,4.3,9.6,9.6,9.6h72c1.1,2.2,1.1,4.8,0,7h-32.6c-5.3,0-9.6,4.3-9.6,9.6c0,5.3,4.3,9.6,9.6,9.6
			l0,0h114.5c5.3,0,9.6-4.3,9.6-9.6c0-5.3-4.3-9.6-9.6-9.6h-17.2c-1.4-2.1-1.4-4.9,0-7h88.7c5.3,0,9.6-4.3,9.6-9.6c0,0,0,0,0,0l0,0
			C297.9,82.3,293.6,78,288.2,78.1z"/>
		
			<polygon style="opacity:0.7;fill:none;stroke:#DADADA;stroke-width:0.75;stroke-miterlimit:10;enable-background:new    ;" points="
			76.5,70.5 79.3,70.8 77.4,72.8 77.9,75.5 75.4,74.3 73,75.7 73.4,73 71.4,71.1 74.1,70.6 75.2,68.1 		"/>
		<g style="opacity:0.7;">
			
				<circle style="fill:none;stroke:#DADADA;stroke-width:0.75;stroke-miterlimit:10;stroke-dasharray:0.97,0.97;" cx="66.6" cy="22.8" r="4.3"/>
		</g>
		<g style="opacity:0.7;">
			
				<circle style="fill:none;stroke:#DADADA;stroke-width:0.75;stroke-miterlimit:10;stroke-dasharray:1.03,1.03;" cx="192.3" cy="117.8" r="4.3"/>
		</g>
		
			<polygon style="opacity:0.7;fill:none;stroke:#DADADA;stroke-width:0.75;stroke-miterlimit:10;enable-background:new    ;" points="
			139.2,17.3 141.2,17.5 139.8,18.9 140.2,20.9 138.5,20 136.7,21 137,19 135.6,17.7 137.5,17.4 138.3,15.6 		"/>
		
			<polygon style="opacity:0.7;fill:none;stroke:#DADADA;stroke-width:0.75;stroke-miterlimit:10;enable-background:new    ;" points="
			215.1,2.6 217.1,2.9 215.7,4.3 216.1,6.2 214.4,5.4 212.6,6.3 212.9,4.4 211.5,3 213.4,2.7 214.2,0.9 		"/>
		<g style="opacity:0.7;">
			
				<circle style="fill:none;stroke:#DADADA;stroke-width:0.75;stroke-miterlimit:10;stroke-dasharray:1.01,1.01;" cx="260.9" cy="54.3" r="8"/>
		</g>
		<polyline style="fill:#FFFFFF;stroke:#ADB1BE;stroke-miterlimit:10;" points="171.1,98.7 171.1,113.5 104.9,113.5 104.9,33.5 
			171.1,33.5 171.1,66.8 		"/>
		<path style="opacity:0.5;fill:#D6D6D6;enable-background:new    ;" d="M152.5,87h-28c-0.8,0-1.5-0.7-1.5-1.5l0,0
			c0-0.8,0.7-1.5,1.5-1.5h28c0.8,0,1.5,0.7,1.5,1.5l0,0C154,86.3,153.4,87,152.5,87C152.5,87,152.5,87,152.5,87z"/>
		<path style="opacity:0.5;fill:#D6D6D6;enable-background:new    ;" d="M155.5,96.5H120c-0.8,0-1.5-0.7-1.5-1.5l0,0
			c0-0.8,0.7-1.5,1.5-1.5h35.5c0.8,0,1.5,0.7,1.5,1.5l0,0C157,95.8,156.3,96.5,155.5,96.5C155.5,96.5,155.5,96.5,155.5,96.5z"/>
		<path style="fill:#FFFFFF;stroke:#ADB1BE;stroke-miterlimit:10;" d="M176,73.8c-4.4-4.4-11.7-4.4-16.1,0c-4.4,4.4-4.4,11.7,0,16.1
			l0,0c3.9,3.9,10.1,4.5,14.6,1.3l1.6,1.6l2.7-2.7l-1.6-1.6C180.5,83.9,179.9,77.7,176,73.8z"/>
		<circle style="fill:#FFFFFF;stroke:#ADB1BE;stroke-miterlimit:10;" cx="168" cy="81.9" r="8.2"/>
		<path style="fill:#FFFFFF;stroke:#ADB1BE;stroke-miterlimit:10;" d="M188.2,102.1L188.2,102.1c-0.9,0.9-2.4,0.9-3.3,0l-9-9
			l3.3-3.3l9,9C189.1,99.7,189.1,101.1,188.2,102.1z"/>
		<line style="fill:none;stroke:#ADB1BE;stroke-miterlimit:10;" x1="178.9" y1="96.2" x2="182.3" y2="92.8"/>
		
			<circle style="opacity:0.4;fill:none;stroke:#808080;stroke-miterlimit:10;enable-background:new    ;" cx="138.4" cy="59.6" r="16.6"/>
		<path style="opacity:0.5;fill:#D6D6D6;enable-background:new    ;" d="M152.1,59.6c0,1-0.1,1.9-0.3,2.9c0,0.2-0.1,0.4-0.1,0.6
			c-0.3,1-0.6,1.9-1.1,2.8c-0.1,0.2-0.2,0.3-0.3,0.5c-3.8,6.5-12.1,8.7-18.6,5c-2.1-1.2-3.8-2.9-5-5c-0.1-0.2-0.2-0.3-0.3-0.5
			c-0.5-0.9-0.8-1.8-1.1-2.7c-0.1-0.2-0.1-0.4-0.2-0.6c-0.2-1-0.3-2-0.3-3c0-7.5,6.1-13.7,13.6-13.7C146,45.9,152.1,52,152.1,59.6
			L152.1,59.6z"/>
		<path style="fill:#FFFFFF;" d="M136.7,64.4v0.7c0,0.6-0.5,1.1-1.1,1.1h-10c-0.6,0-1.1-0.5-1.1-1.1l0,0v-0.9c0.4-1.1,1.3-2,2.4-2.5
			h0.9c0.6,0,1-0.4,1-1l0,0v-0.4c-0.2-0.4-0.5-0.8-0.7-1.2V59c-0.4-0.4-0.5-1-0.2-1.5l0.1-0.1v-1.2c-0.1-0.5,0.1-0.9,0.4-1.3
			c0.3-0.4,0.8-0.8,1.3-0.9c0.6-0.1,1.1-0.1,1.7,0c0.5,0.1,1,0.3,1.3,0.7c0.4,0.5,0.6,1.1,0.6,1.7v1.2c0.2,0.5,0.2,1.1-0.2,1.5
			l-0.1,0.1c-0.2,0.5-0.4,0.9-0.7,1.3v0.4c0,0.5,0.4,0.9,0.9,0.9h1.1c1.1,0.4,2,1.3,2.4,2.4V64.4z"/>
		<path style="opacity:0.6;fill:#808080;enable-background:new    ;" d="M136.8,64c-0.4-1.2-1.3-2.1-2.5-2.5h-1.1
			c-0.4,0-0.7-0.3-0.7-0.7c0,0,0,0,0,0v-0.3c0.2-0.4,0.4-0.8,0.6-1.2l0,0c0.4-0.5,0.5-1.1,0.2-1.7v-1.2c0-0.7-0.2-1.4-0.7-1.9
			c-0.4-0.4-0.9-0.7-1.4-0.7c-0.6-0.1-1.2-0.1-1.8,0c-0.6,0.1-1.1,0.5-1.5,1c-0.3,0.4-0.4,0.9-0.4,1.4v1.1l0,0
			c-0.3,0.6-0.2,1.2,0.2,1.7v0.1c0.2,0.5,0.5,0.9,0.6,1.2v0.3c0,0.4-0.3,0.8-0.8,0.8c0,0,0,0,0,0h-0.9c-0.6,0.3-1.1,0.7-1.6,1.1
			c0,0.2,0.1,0.4,0.2,0.6c0.4-0.5,1-1,1.6-1.3h0.8c0.7,0,1.3-0.6,1.3-1.3V60c-0.2-0.4-0.4-0.7-0.6-1.1v-0.1l-0.1-0.1
			c-0.3-0.3-0.4-0.8-0.2-1.2l0.1-0.1V56c0-0.4,0.1-0.8,0.3-1.1c0.3-0.4,0.7-0.7,1.2-0.8h1.6c0.5,0.1,0.9,0.3,1.2,0.6
			c0.4,0.4,0.6,1,0.5,1.5v1.3c0.2,0.4,0.2,0.9-0.1,1.2l-0.1,0.1c-0.2,0.4-0.4,0.8-0.7,1.2v0.5c0,0.6,0.5,1.2,1.1,1.2
			c0,0,0.1,0,0.1,0h1c1,0.4,1.8,1.2,2.2,2.2l0.1,0.2v0.6c0,0.5-0.4,0.8-0.8,0.8c0,0,0,0-0.1,0h-9.2c0.1,0.2,0.2,0.3,0.3,0.5h8.9
			c0.7,0,1.3-0.6,1.4-1.3V64H136.8z"/>
		<path style="fill:#FFFFFF;" d="M152.7,64.4v0.7c0,0.6-0.5,1.1-1.1,1.1h-10c-0.6,0-1.1-0.5-1.1-1.1l0,0v-0.9c0.4-1.1,1.3-2,2.4-2.5
			h0.9c0.6,0,1-0.4,1-1l0,0v-0.4c-0.2-0.4-0.5-0.8-0.7-1.2V59c-0.4-0.4-0.5-1-0.2-1.5l0.1-0.1v-1.2c-0.1-0.5,0.1-0.9,0.4-1.3
			c0.3-0.4,0.8-0.8,1.3-0.9c0.6-0.1,1.1-0.1,1.7,0c0.5,0.1,1,0.3,1.3,0.7c0.4,0.5,0.6,1.1,0.6,1.7v1.2c0.2,0.5,0.2,1.1-0.2,1.5
			l-0.1,0.1c-0.2,0.5-0.4,0.9-0.7,1.3v0.4c0,0.5,0.4,0.9,0.9,0.9h1.1c1.1,0.4,2,1.3,2.4,2.4L152.7,64.4z"/>
		<path style="opacity:0.6;fill:#808080;enable-background:new    ;" d="M148.7,59.1c-0.2,0.4-0.4,0.8-0.7,1.2v0.5
			c0,0.6,0.5,1.2,1.1,1.2c0,0,0.1,0,0.1,0h1c0.6,0.2,1.1,0.6,1.5,1.1c0-0.2,0.1-0.4,0.1-0.6c-0.4-0.4-0.9-0.7-1.5-1h-1.1
			c-0.4,0-0.7-0.3-0.7-0.7c0,0,0,0,0,0v-0.3c0.2-0.4,0.4-0.8,0.6-1.2l0,0c0.4-0.5,0.5-1.1,0.2-1.7v-1.2c0-0.7-0.2-1.4-0.7-1.9
			c-0.4-0.4-0.9-0.7-1.4-0.7c-0.6-0.1-1.2-0.1-1.8,0c-0.6,0.1-1.1,0.5-1.5,1c-0.3,0.4-0.4,0.9-0.4,1.4v1.1l0,0
			c-0.3,0.6-0.2,1.2,0.2,1.7v0.1c0.2,0.5,0.5,0.9,0.6,1.2v0.3c0,0.4-0.3,0.8-0.8,0.8c0,0,0,0,0,0h-0.9c-1.1,0.5-2,1.4-2.5,2.6v0.9
			c0,0.7,0.6,1.3,1.3,1.3h8.7c0.1-0.2,0.2-0.3,0.3-0.5h-9c-0.4,0-0.8-0.3-0.8-0.8c0,0,0,0,0,0v-0.8c0.4-1,1.2-1.8,2.2-2.3h0.8
			c0.7,0,1.3-0.6,1.3-1.3V60c-0.2-0.4-0.4-0.7-0.6-1.1v-0.1l-0.1-0.1c-0.3-0.3-0.4-0.8-0.2-1.2l0.1-0.1V56c0-0.4,0.1-0.8,0.3-1.1
			c0.3-0.4,0.7-0.7,1.2-0.8h1.6c0.5,0.1,0.9,0.3,1.2,0.6c0.4,0.4,0.6,1,0.5,1.5v1.3c0.2,0.4,0.2,0.9-0.1,1.2L148.7,59.1z"/>
		<path style="fill:#FFFFFF;" d="M146.4,65.6v0.9c0,0.8-0.6,1.4-1.3,1.4c0,0,0,0-0.1,0h-12.9c-0.8,0-1.4-0.6-1.4-1.3c0,0,0,0,0-0.1
			l0,0v-1.1c0.5-1.4,1.6-2.6,3-3.2h1.1c0.7,0,1.3-0.5,1.3-1.2c0,0,0-0.1,0-0.1l0,0v-0.5c-0.3-0.5-0.6-1-0.9-1.6v-0.1
			c-0.5-0.5-0.6-1.3-0.3-1.9l0.1-0.1v-1.6c0-0.6,0.1-1.1,0.5-1.6c0.4-0.6,1-1,1.7-1.2c0.7-0.1,1.5-0.1,2.2,0
			c0.6,0.1,1.2,0.4,1.6,0.9c0.5,0.6,0.8,1.4,0.8,2.2V57c0.3,0.6,0.2,1.4-0.2,1.9l-0.1,0.1c-0.2,0.6-0.5,1.1-0.9,1.6v0.5
			c0,0.7,0.5,1.2,1.2,1.2h1.3c1.4,0.5,2.5,1.6,3,3L146.4,65.6z"/>
		<path style="opacity:0.6;fill:none;stroke:#808080;stroke-width:0.5;stroke-miterlimit:10;enable-background:new    ;" d="
			M146.4,65.6v0.9c0,0.8-0.6,1.4-1.3,1.4c0,0,0,0-0.1,0h-12.9c-0.8,0-1.4-0.6-1.4-1.3c0,0,0,0,0-0.1l0,0v-1.1c0.5-1.4,1.6-2.6,3-3.2
			h1.1c0.7,0,1.3-0.5,1.3-1.2c0,0,0-0.1,0-0.1l0,0v-0.5c-0.3-0.5-0.6-1-0.9-1.6v-0.1c-0.5-0.5-0.6-1.3-0.3-1.9l0.1-0.1v-1.6
			c0-0.6,0.1-1.1,0.5-1.6c0.4-0.6,1-1,1.7-1.2c0.7-0.1,1.5-0.1,2.2,0c0.6,0.1,1.2,0.4,1.6,0.9c0.5,0.6,0.8,1.4,0.8,2.2V57
			c0.3,0.6,0.2,1.4-0.2,1.9l-0.1,0.1c-0.2,0.6-0.5,1.1-0.9,1.6v0.5c0,0.7,0.5,1.2,1.2,1.2h1.3c1.4,0.5,2.5,1.6,3,3L146.4,65.6z"/>
		<polyline style="fill:none;stroke:#ADB1BE;stroke-miterlimit:10;" points="99,102 99,28 160,28 		"/>
	</g>
</g>
</svg>
