<?xml version="1.0" encoding="utf-8"?>
<!-- Generator: Adobe Illustrator 23.0.3, SVG Export Plug-In . SVG Version: 6.00 Build 0)  -->
<svg version="1.1" id="Layer_1" xmlns="http://www.w3.org/2000/svg" xmlns:xlink="http://www.w3.org/1999/xlink" x="0px" y="0px"
	 viewBox="0 0 298 123.5" style="enable-background:new 0 0 298 123.5;" xml:space="preserve">
<title>searchEmt</title>
<g>
	<g id="Layer_1-2">
		<path style="opacity:0.25;fill:#E5E5E5;enable-background:new    ;" d="M288.2,78.1H211c-1.9-2.6-2.1-5.1-0.7-7.7h44
			c5.3,0,9.6-4.3,9.6-9.6l0,0c0-5.3-4.3-9.6-9.6-9.6l0,0H134.7c-1.8-2.7-1.7-5.4,0.2-8.2h40.7c5.3,0,9.6-4.3,9.6-9.6c0,0,0,0,0,0
			l0,0c0-5.3-4.3-9.6-9.6-9.6l0,0H9.6c-5.3,0-9.6,4.3-9.6,9.6c0,0,0,0,0,0l0,0C0,38.7,4.3,43,9.6,43c0,0,0,0,0,0h59.7
			c1.6,2.5,1.7,5.6,0.2,8.2H34.7c-5.3,0-9.6,4.3-9.6,9.6c0,0,0,0,0,0l0,0c0,5.3,4.3,9.6,9.6,9.6h111.2c1.2,2.5,1,5.4-0.6,7.7H63
			c-5.3,0-9.6,4.3-9.6,9.6l0,0c0,5.3,4.3,9.6,9.6,9.6h72c1.1,2.2,1.1,4.8,0,7h-32.6c-5.3,0-9.6,4.3-9.6,9.6c0,5.3,4.3,9.6,9.6,9.6
			l0,0h114.5c5.3,0,9.6-4.3,9.6-9.6c0-5.3-4.3-9.6-9.6-9.6h-17.2c-1.4-2.1-1.4-4.9,0-7h88.7c5.3,0,9.6-4.3,9.6-9.6c0,0,0,0,0,0l0,0
			C297.9,82.3,293.6,78,288.2,78.1z"/>
		
			<polygon style="opacity:0.7;fill:none;stroke:#DADADA;stroke-width:0.75;stroke-miterlimit:10;enable-background:new    ;" points="
			76.5,70.5 79.3,70.8 77.4,72.8 77.9,75.5 75.4,74.3 73,75.7 73.4,73 71.4,71.1 74.1,70.6 75.2,68.1 		"/>
		<g style="opacity:0.7;">
			
				<circle style="fill:none;stroke:#DADADA;stroke-width:0.75;stroke-miterlimit:10;stroke-dasharray:0.97,0.97;" cx="66.6" cy="22.8" r="4.3"/>
		</g>
		<g style="opacity:0.7;">
			
				<circle style="fill:none;stroke:#DADADA;stroke-width:0.75;stroke-miterlimit:10;stroke-dasharray:1.03,1.03;" cx="192.3" cy="117.8" r="4.3"/>
		</g>
		
			<polygon style="opacity:0.7;fill:none;stroke:#DADADA;stroke-width:0.75;stroke-miterlimit:10;enable-background:new    ;" points="
			139.2,17.3 141.2,17.5 139.8,18.9 140.2,20.9 138.5,20 136.7,21 137,19 135.6,17.7 137.5,17.4 138.3,15.6 		"/>
		
			<polygon style="opacity:0.7;fill:none;stroke:#DADADA;stroke-width:0.75;stroke-miterlimit:10;enable-background:new    ;" points="
			215.1,2.6 217.1,2.9 215.7,4.3 216.1,6.2 214.4,5.4 212.6,6.3 212.9,4.4 211.5,3 213.4,2.7 214.2,0.9 		"/>
		
			<ellipse transform="matrix(0.1091 -0.994 0.994 0.1091 57.1403 189.876)" style="opacity:0.4;fill:#D6D6D6;enable-background:new    ;" cx="134.5" cy="63.1" rx="32.4" ry="32.4"/>
		<g style="opacity:0.7;">
			
				<circle style="fill:none;stroke:#DADADA;stroke-width:0.75;stroke-miterlimit:10;stroke-dasharray:1.01,1.01;" cx="260.9" cy="54.3" r="8"/>
		</g>
		<path style="opacity:0.4;fill:#808080;enable-background:new    ;" d="M185.3,101.9l-8.7-8.7c-2.2-2.1-5.7-2.2-8-0.2l-5.5-5.5
			c13.7-15.5,12.1-39.2-3.4-52.8s-39.2-12.1-52.8,3.4s-12.1,39.2,3.4,52.8c14.6,12.9,36.7,12.4,50.7-1.2l5.5,5.5
			c-2,2.3-1.9,5.8,0.3,8l8.7,8.6c2.3,2.3,6,2.3,8.3,0c0,0,0,0,0,0l1.5-1.6C187.6,107.9,187.6,104.2,185.3,101.9
			C185.3,101.9,185.3,101.9,185.3,101.9z M134.7,97c-18.8,0-34.1-15.3-34.1-34.1s15.3-34.1,34.1-34.1c18.8,0,34.1,15.3,34.1,34.1
			c0,0,0,0,0,0C168.8,81.7,153.6,97,134.7,97C134.7,97,134.7,97,134.7,97z M183.1,108l-1.5,1.6c-1.1,1.1-2.9,1.1-4,0l-8.7-8.6
			c-1.1-1.1-1.1-2.9,0-4l1.5-1.6c1.1-1.1,2.9-1.1,4,0l8.7,8.6C184.2,105.1,184.2,106.9,183.1,108z"/>
		<path style="opacity:0.4;fill:#808080;enable-background:new    ;" d="M148.5,58.1c2,0,3.7-1.7,3.7-3.7c0-2-1.6-3.7-3.6-3.7h-0.1
			c-2,0-3.7,1.7-3.7,3.7S146.5,58.1,148.5,58.1L148.5,58.1z"/>
		<path style="opacity:0.4;fill:#808080;enable-background:new    ;" d="M124.8,58.1c2,0,3.7-1.6,3.8-3.7s-1.6-3.7-3.7-3.8l0,0h-0.1
			c-2,0-3.7,1.7-3.7,3.7S122.8,58.1,124.8,58.1z"/>
		<path style="opacity:0.4;fill:#808080;enable-background:new    ;" d="M136.9,70.9c-6.3,0-12,3.4-14.1,8.4
			c-0.1,0.1-0.1,0.3-0.1,0.4c0,0.5,0.4,1,0.9,1c0,0,0.1,0,0.1,0c0.4-0.1,0.8-0.3,1.1-0.6c1.7-4.3,6.6-7.2,12.2-7.2
			c5.3,0,10.3,3,12.2,7.2c0,0.1,0,0.2,0.1,0.3c0.3,0.5,0.9,0.6,1.4,0.3c0.5-0.3,0.6-0.9,0.3-1.4C148.8,74.4,143,70.9,136.9,70.9z"/>
	</g>
</g>
</svg>
