<?xml version="1.0" encoding="utf-8"?>
<!-- Generator: Adobe Illustrator 21.0.2, SVG Export Plug-In . SVG Version: 6.00 Build 0)  -->
<svg version="1.1" id="Layer_1" xmlns="http://www.w3.org/2000/svg" xmlns:xlink="http://www.w3.org/1999/xlink" x="0px" y="0px"
	 viewBox="0 0 120 90" style="enable-background:new 0 0 120 90;" xml:space="preserve">
<style type="text/css">
	.st0{fill:#334A5E;}
	.st1{fill:#E7EDF2;}
	.st2{fill:#EC5063;}
	.st3{fill:#EC6563;}
	.st4{fill:#2E323A;}
	.st5{fill:#FFFFFF;}
	.st6{fill:#D1DBE0;}
</style>
<g>
	<g>
		<path class="st0" d="M61.086,72.286c-0.2,0-0.361-0.161-0.361-0.361c0-9.116,7.417-16.533,16.533-16.533
			c8.203,0,15.242,6.117,16.374,14.228c0.028,0.197-0.11,0.38-0.308,0.407c-0.194,0.029-0.38-0.11-0.407-0.308
			c-1.082-7.756-7.814-13.606-15.658-13.606c-8.718,0-15.811,7.093-15.811,15.811C61.447,72.124,61.285,72.286,61.086,72.286z"/>
	</g>
	<g>
		<path class="st0" d="M105.41,70.031h-2.9v-0.361c0-4.03-3.279-7.309-7.309-7.309c-1.446,0-2.843,0.421-4.041,1.218
			c-0.166,0.11-0.39,0.066-0.501-0.101c-0.11-0.166-0.065-0.39,0.101-0.501c1.317-0.876,2.852-1.338,4.441-1.338
			c4.307,0,7.834,3.409,8.023,7.67h2.186c0.2,0,0.361,0.161,0.361,0.361S105.61,70.031,105.41,70.031z"/>
	</g>
	<g>
		<path class="st0" d="M54.94,75.537h-6.318c-0.2,0-0.361-0.162-0.361-0.361c0-0.2,0.161-0.361,0.361-0.361h5.455
			c-0.018-0.164-0.026-0.33-0.026-0.495c0-2.542,2.068-4.611,4.611-4.611c0.964,0,1.888,0.295,2.671,0.852
			c0.163,0.116,0.2,0.341,0.085,0.504c-0.116,0.162-0.341,0.2-0.504,0.085c-0.66-0.47-1.439-0.718-2.252-0.718
			c-2.144,0-3.889,1.744-3.889,3.889c0,0.264,0.026,0.528,0.079,0.784L54.94,75.537z"/>
	</g>
	<g>
		<path class="st0" d="M41.987,73.508c-0.2,0-0.361-0.161-0.361-0.361c0-3.236-2.633-5.868-5.869-5.868
			c-3.236,0-5.868,2.633-5.868,5.868v0.361h-3.847c-0.2,0-0.361-0.161-0.361-0.361c0-0.2,0.162-0.361,0.361-0.361h3.135
			c0.188-3.467,3.068-6.229,6.581-6.229c3.634,0,6.591,2.956,6.591,6.59C42.348,73.347,42.186,73.508,41.987,73.508z"/>
	</g>
	<g>
		<path class="st0" d="M48.622,75.537c-0.2,0-0.361-0.162-0.361-0.361c0-1.801-1.465-3.266-3.266-3.266
			c-1.087,0-2.1,0.538-2.708,1.44c-0.111,0.165-0.336,0.208-0.501,0.097c-0.165-0.112-0.209-0.336-0.097-0.501
			c0.744-1.101,1.98-1.759,3.307-1.759c2.199,0,3.988,1.789,3.988,3.988C48.983,75.376,48.822,75.537,48.622,75.537z"/>
	</g>
	<g>
		<path class="st1" d="M70.171,60.194c-2.602,2.488-4.226,5.991-4.226,9.875c0,7.547,6.118,13.665,13.665,13.665
			c2.563,0,4.96-0.707,7.009-1.934c-2.453,2.346-5.776,3.789-9.439,3.789c-7.547,0-13.665-6.118-13.665-13.665
			C63.515,66.941,66.185,62.581,70.171,60.194z"/>
	</g>
	<g>
		<path class="st1" d="M36.423,70.033c-2.292,0-4.15,1.858-4.15,4.15c0,0.423,0.064,0.831,0.182,1.216
			c-0.53-0.697-0.848-1.564-0.848-2.507c0-2.292,1.858-4.15,4.15-4.15c1.869,0,3.448,1.236,3.968,2.934
			C38.967,70.679,37.772,70.033,36.423,70.033z"/>
	</g>
	<g>
		<path class="st0" d="M24.389,73.508h-1.727c-0.2,0-0.361-0.161-0.361-0.361c0-0.2,0.161-0.361,0.361-0.361h1.727
			c0.2,0,0.361,0.162,0.361,0.361C24.75,73.347,24.589,73.508,24.389,73.508z"/>
	</g>
	<g>
		<path class="st0" d="M28.204,77.244H13.269c-0.2,0-0.361-0.161-0.361-0.361s0.161-0.361,0.361-0.361h14.935
			c0.2,0,0.361,0.161,0.361,0.361S28.404,77.244,28.204,77.244z"/>
	</g>
	<g>
		<path class="st0" d="M45.533,80.379H19.162c-0.2,0-0.361-0.161-0.361-0.361s0.161-0.361,0.361-0.361h26.371
			c0.2,0,0.361,0.161,0.361,0.361S45.733,80.379,45.533,80.379z"/>
	</g>
	<g>
		<g>
			<path class="st2" d="M62.315,31.227l10.763,16.57c0.951,1.465-0.1,3.401-1.846,3.401H49.706c-1.747,0-2.798-1.936-1.846-3.401
				l10.763-16.57C59.491,29.891,61.447,29.891,62.315,31.227z"/>
		</g>
		<g>
			<path class="st3" d="M52.07,48.116l10.608-16.33l-0.363-0.559c-0.868-1.336-2.825-1.336-3.693,0l-10.763,16.57
				c-0.951,1.465,0.1,3.401,1.846,3.401h3.063C51.773,50.588,51.354,49.219,52.07,48.116z"/>
		</g>
		<g>
			<path class="st4" d="M71.598,51.591H48.392c-1.031,0-1.94-0.541-2.432-1.447c-0.492-0.905-0.45-1.963,0.112-2.827l4.131-6.36
				c0.118-0.182,0.362-0.235,0.544-0.116c0.182,0.118,0.234,0.362,0.116,0.544l-4.131,6.36c-0.402,0.619-0.432,1.375-0.08,2.023
				c0.352,0.648,1.003,1.036,1.74,1.036h23.206c0.737,0,1.388-0.387,1.74-1.036c0.352-0.648,0.322-1.404-0.08-2.023L61.655,29.883
				c-0.367-0.564-0.987-0.901-1.66-0.901c-0.673,0-1.294,0.337-1.66,0.901l-4.54,6.988c-0.118,0.182-0.361,0.235-0.544,0.116
				c-0.182-0.118-0.234-0.362-0.116-0.544l4.54-6.988c0.512-0.789,1.38-1.26,2.32-1.26c0.94,0,1.808,0.471,2.32,1.26l11.603,17.862
				c0.561,0.864,0.603,1.921,0.112,2.827C73.538,51.05,72.629,51.591,71.598,51.591z"/>
		</g>
		<path class="st5" d="M60.457,36.414c-0.763,0-1.381,0.618-1.381,1.381v4.909c0,0.763,0.618,1.381,1.381,1.381
			c0.763,0,1.381-0.618,1.381-1.381v-4.909C61.838,37.033,61.22,36.414,60.457,36.414z M60.335,45.011
			c-0.763,0-1.381,0.618-1.381,1.381v0.05c0,0.763,0.618,1.381,1.381,1.381c0.763,0,1.381-0.618,1.381-1.381v-0.05
			C61.716,45.629,61.098,45.011,60.335,45.011z"/>
		<g>
			<path class="st4" d="M51.544,39.967c-0.075,0-0.151-0.022-0.218-0.066c-0.181-0.12-0.229-0.365-0.109-0.545l0.968-1.452
				c0.12-0.18,0.364-0.23,0.545-0.109c0.181,0.12,0.229,0.365,0.109,0.545l-0.968,1.452C51.796,39.906,51.672,39.967,51.544,39.967z
				"/>
		</g>
	</g>
	<g>
		<g>
			<g>
				<path class="st6" d="M91.54,49.224c-0.062-0.021-0.095-0.088-0.074-0.15l0.52-1.546c0.041-0.121-0.005-0.247-0.102-0.28
					l-0.299-0.1c-0.062-0.021-0.095-0.088-0.074-0.15c0.021-0.062,0.088-0.095,0.15-0.074l0.299,0.1
					c0.221,0.074,0.334,0.334,0.251,0.579l-0.52,1.546C91.669,49.211,91.602,49.245,91.54,49.224z"/>
			</g>
			<g>
				<path class="st6" d="M91.279,50c-0.062-0.021-0.095-0.088-0.074-0.15l0.029-0.088c0.021-0.062,0.088-0.095,0.15-0.074
					c0.062,0.021,0.095,0.088,0.075,0.15l-0.029,0.088C91.408,49.987,91.341,50.021,91.279,50z"/>
			</g>
			<g>
				<path class="st6" d="M92.502,46.198l-1.389-0.467l-0.075,0.224l1.389,0.467c0.389,0.131,0.581,0.61,0.427,1.067l-1.429,4.249
					c-0.038,0.113-0.128,0.192-0.228,0.201c-0.045,0.004-0.131-0.004-0.186-0.104l-0.191-0.345c-0.2-0.362-0.516-0.631-0.887-0.756
					l-2.287-0.769c-0.389-0.131-0.581-0.61-0.427-1.068l0.188-0.559l-0.224-0.075l-0.188,0.559
					c-0.196,0.581,0.063,1.195,0.576,1.367l2.287,0.769c0.315,0.106,0.584,0.335,0.755,0.646l0.191,0.345
					c0.056,0.101,0.14,0.172,0.24,0.206c0.055,0.018,0.114,0.025,0.175,0.02c0.194-0.018,0.363-0.159,0.431-0.362l1.429-4.249
					C93.273,46.984,93.015,46.371,92.502,46.198z"/>
			</g>
			<g>
				<path class="st6" d="M83.847,48.306c-0.062-0.021-0.121-0.055-0.173-0.103c-0.165-0.151-0.222-0.399-0.143-0.632l1.823-5.423
					c0.242-0.718,0.952-1.13,1.584-0.918l4.076,1.371c0.632,0.212,0.95,0.97,0.708,1.688l-1.261,3.751
					c-0.242,0.718-0.952,1.13-1.584,0.918l-2.891-0.972c-0.406-0.136-0.859-0.11-1.276,0.075l-0.502,0.222
					C84.087,48.337,83.961,48.344,83.847,48.306z M86.863,41.456c-0.508-0.171-1.084,0.174-1.284,0.769l-1.823,5.423
					c-0.048,0.144-0.018,0.294,0.078,0.381c0.076,0.069,0.178,0.084,0.278,0.039l0.502-0.222c0.472-0.209,0.986-0.238,1.448-0.083
					l2.891,0.972c0.508,0.171,1.084-0.174,1.284-0.769l1.261-3.751c0.2-0.595-0.051-1.218-0.559-1.388L86.863,41.456z"/>
			</g>
			<g>
				<path class="st6" d="M87.341,46.633c-0.159-0.053-0.29-0.122-0.396-0.191c-0.332-0.217-0.483-0.478-0.489-0.489
					c-0.032-0.057-0.012-0.129,0.045-0.161c0.056-0.032,0.129-0.012,0.161,0.044c0.022,0.037,0.534,0.897,1.812,0.597
					c0.064-0.015,0.127,0.024,0.142,0.088c0.015,0.064-0.025,0.127-0.088,0.142C88.033,46.778,87.639,46.733,87.341,46.633z"/>
			</g>
			<g>
				
					<ellipse transform="matrix(0.3187 -0.9478 0.9478 0.3187 17.667 112.1878)" class="st6" cx="86.875" cy="43.804" rx="0.482" ry="0.482"/>
			</g>
			<g>
				<path class="st6" d="M86.709,44.298c-0.273-0.092-0.42-0.388-0.328-0.66c0.092-0.272,0.388-0.419,0.66-0.328
					c0.272,0.092,0.419,0.388,0.328,0.66C87.278,44.243,86.982,44.39,86.709,44.298z M87.016,43.385
					c-0.231-0.078-0.483,0.047-0.56,0.278c-0.078,0.231,0.047,0.483,0.278,0.56c0.231,0.078,0.482-0.047,0.56-0.278
					C87.372,43.714,87.248,43.463,87.016,43.385z"/>
			</g>
			<g>
				
					<ellipse transform="matrix(0.3187 -0.9478 0.9478 0.3187 18.5854 115.4421)" class="st6" cx="89.598" cy="44.792" rx="0.482" ry="0.482"/>
			</g>
			<g>
				<path class="st6" d="M89.432,45.287c-0.273-0.092-0.419-0.388-0.328-0.66c0.092-0.273,0.388-0.42,0.66-0.328
					c0.273,0.092,0.42,0.388,0.328,0.66C90.001,45.231,89.705,45.378,89.432,45.287z M89.739,44.373
					c-0.231-0.078-0.482,0.047-0.56,0.278c-0.078,0.231,0.047,0.483,0.278,0.56c0.231,0.078,0.482-0.047,0.56-0.278
					C90.095,44.702,89.971,44.451,89.739,44.373z"/>
			</g>
		</g>
		<g>
			<path class="st6" d="M12.08,37.338l0.105-0.203c0.084-0.162,0.1-0.347,0.044-0.521c-0.056-0.174-0.175-0.316-0.337-0.4
				c-0.162-0.084-0.347-0.099-0.52-0.044c-0.175,0.055-0.316,0.175-0.4,0.336l-0.105,0.202l-1.47-0.76l2.999-5.798l1.47,0.76
				l-0.105,0.203c-0.173,0.335-0.042,0.748,0.293,0.921c0.162,0.084,0.347,0.099,0.521,0.044c0.174-0.055,0.316-0.175,0.4-0.336
				l0.105-0.202l1.497,0.774l-3,5.798L12.08,37.338z M13.382,37.499l2.581-4.989l-0.708-0.366c-0.14,0.174-0.327,0.301-0.541,0.369
				c-0.29,0.092-0.598,0.066-0.868-0.074c-0.478-0.247-0.719-0.803-0.572-1.322l-0.681-0.353l-2.581,4.989l0.681,0.352
				c0.14-0.174,0.327-0.302,0.541-0.37c0.29-0.092,0.599-0.066,0.868,0.074c0.479,0.247,0.719,0.803,0.572,1.322L13.382,37.499z
				 M11.813,34.399l1.011,0.523l-0.21,0.404l-1.011-0.523L11.813,34.399z M12.231,33.59l1.753,0.907l-0.21,0.404l-1.752-0.907
				L12.231,33.59z M12.65,32.781l1.753,0.907l-0.21,0.404l-1.752-0.907L12.65,32.781z"/>
		</g>
		<g>
			<path class="st6" d="M34.784,41.164l0.147-0.022c0.118-0.017,0.222-0.079,0.293-0.175c0.071-0.096,0.101-0.213,0.083-0.331
				c-0.017-0.118-0.08-0.221-0.175-0.293c-0.096-0.071-0.213-0.101-0.331-0.084l-0.147,0.022l-0.157-1.069l4.215-0.621l0.158,1.069
				l-0.147,0.022c-0.243,0.036-0.412,0.263-0.376,0.506c0.017,0.118,0.08,0.222,0.175,0.293c0.096,0.071,0.213,0.101,0.331,0.084
				l0.147-0.022l0.16,1.088l-4.215,0.621L34.784,41.164z M35.195,41.915l3.627-0.534l-0.076-0.515
				c-0.145-0.008-0.284-0.058-0.402-0.146c-0.159-0.119-0.263-0.292-0.292-0.488c-0.051-0.348,0.151-0.687,0.482-0.807l-0.073-0.495
				l-3.627,0.534l0.073,0.495c0.145,0.008,0.285,0.058,0.402,0.146c0.16,0.119,0.263,0.292,0.292,0.488
				c0.051,0.348-0.151,0.687-0.482,0.807L35.195,41.915z M36.239,39.902l0.108,0.735l-0.294,0.043l-0.108-0.735L36.239,39.902z
				 M36.827,39.816l0.188,1.274l-0.294,0.043l-0.187-1.274L36.827,39.816z M37.416,39.729l0.188,1.275l-0.294,0.043l-0.188-1.274
				L37.416,39.729z"/>
		</g>
		<g>
			<path class="st6" d="M38.025,55.662c-0.02-0.051-0.062-0.091-0.115-0.109c-0.042-0.014-0.087-0.013-0.128,0.003l-0.553,0.216
				c-0.047,0.018-0.083,0.054-0.103,0.099c-0.02,0.046-0.021,0.097-0.003,0.143c0.021,0.052,0.063,0.093,0.115,0.11
				c0.022,0.007,0.045,0.01,0.068,0.009c0.021-0.001,0.041-0.005,0.06-0.013l0.553-0.216C38.015,55.867,38.063,55.758,38.025,55.662
				z M38.004,57.794l-0.57-0.167c-0.1-0.029-0.204,0.028-0.233,0.127c-0.028,0.097,0.024,0.198,0.12,0.23l0.579,0.169
				c0.018,0.006,0.039,0.008,0.059,0.007c0.081-0.003,0.149-0.058,0.172-0.136C38.16,57.93,38.107,57.829,38.004,57.794z
				 M38.125,56.975c0.034-0.037,0.052-0.085,0.049-0.135c-0.003-0.077-0.055-0.145-0.129-0.17c-0.022-0.007-0.045-0.01-0.068-0.01
				l-0.579,0.026c-0.104,0.005-0.184,0.092-0.179,0.196c0.003,0.077,0.055,0.145,0.129,0.17c0.022,0.007,0.045,0.01,0.067,0.009
				l0.58-0.026C38.045,57.034,38.091,57.012,38.125,56.975z M36.284,55.207c-0.003-0.07-0.044-0.132-0.128-0.17
				c-0.059-0.02-0.124-0.01-0.173,0.028c-1.023,0.777-1.622,0.897-2.03,0.915l-1.024,0.045c-0.279,0.012-0.536,0.133-0.725,0.339
				c-0.189,0.206-0.286,0.473-0.273,0.751c0.019,0.43,0.305,0.811,0.713,0.948c0.121,0.041,0.249,0.059,0.378,0.053l0.322-0.014
				l0.04,0.897c0.003,0.077,0.055,0.145,0.128,0.17c0.022,0.007,0.045,0.011,0.068,0.009c0.05-0.002,0.096-0.024,0.13-0.061
				s0.051-0.085,0.049-0.135l-0.116-2.612l0.326-0.015c0.402-0.018,0.979-0.117,1.888-0.736l0.067-0.046l0.117,2.639l-0.074-0.048
				c-0.189-0.122-0.4-0.223-0.628-0.3c-0.322-0.108-0.675-0.167-1.049-0.174c-0.051-0.001-0.098,0.018-0.135,0.053
				c-0.036,0.035-0.056,0.081-0.057,0.13c-0.001,0.083,0.05,0.156,0.128,0.182c0.018,0.006,0.037,0.009,0.056,0.01
				c0.336,0.006,0.649,0.057,0.933,0.153c0.158,0.053,0.308,0.12,0.448,0.2c0.297,0.17,0.437,0.339,0.44,0.342
				c0.022,0.028,0.051,0.049,0.085,0.061c0.022,0.007,0.046,0.011,0.069,0.01l0.058-0.012c0.076-0.028,0.125-0.103,0.121-0.185
				L36.284,55.207z M33.326,57.726l-0.321,0.014c-0.082,0.004-0.164-0.008-0.242-0.034c-0.261-0.088-0.444-0.331-0.456-0.605
				c-0.016-0.369,0.27-0.683,0.639-0.7l0.321-0.014L33.326,57.726z"/>
		</g>
		<g>
			<path class="st6" d="M107.857,27.429c-0.043-0.04-0.103-0.058-0.163-0.049c-0.047,0.007-0.09,0.029-0.122,0.065l-0.426,0.473
				c-0.036,0.04-0.054,0.091-0.051,0.145c0.003,0.054,0.026,0.103,0.066,0.139c0.045,0.04,0.105,0.058,0.164,0.05l0.07-0.023
				l0.051-0.042l0.426-0.473C107.946,27.631,107.94,27.504,107.857,27.429z M108.86,29.486l-0.627,0.113
				c-0.109,0.02-0.182,0.125-0.162,0.234c0.019,0.106,0.118,0.178,0.225,0.163l0.637-0.115l0.06-0.021
				c0.076-0.042,0.116-0.127,0.1-0.213C109.075,29.541,108.976,29.469,108.86,29.486z M108.583,28.641
				c0.015-0.052,0.009-0.106-0.018-0.153c-0.04-0.072-0.122-0.113-0.205-0.101l-0.07,0.023l-0.544,0.303
				c-0.097,0.054-0.132,0.177-0.078,0.274c0.04,0.072,0.123,0.113,0.205,0.101l0.069-0.023l0.544-0.303
				C108.534,28.736,108.568,28.694,108.583,28.641z M105.968,27.829c-0.037-0.066-0.106-0.105-0.204-0.102
				c-0.066,0.009-0.123,0.051-0.153,0.11c-0.608,1.236-1.126,1.639-1.508,1.852l-0.96,0.535c-0.261,0.145-0.451,0.385-0.533,0.673
				c-0.082,0.288-0.047,0.591,0.099,0.852c0.225,0.403,0.682,0.631,1.139,0.567c0.136-0.019,0.267-0.063,0.388-0.131l0.302-0.168
				l0.469,0.842c0.04,0.072,0.122,0.113,0.204,0.101l0.07-0.023c0.046-0.026,0.081-0.069,0.096-0.121
				c0.014-0.052,0.008-0.106-0.018-0.153l-1.365-2.449l0.306-0.171c0.377-0.21,0.882-0.582,1.458-1.613l0.043-0.076l1.38,2.476
				l-0.095-0.011c-0.24-0.027-0.491-0.022-0.746,0.014c-0.361,0.051-0.728,0.164-1.09,0.337c-0.049,0.024-0.086,0.064-0.103,0.116
				c-0.017,0.051-0.015,0.105,0.008,0.152c0.039,0.08,0.123,0.125,0.21,0.113l0.059-0.018c0.325-0.155,0.65-0.257,0.968-0.301
				c0.177-0.025,0.354-0.032,0.526-0.022c0.366,0.021,0.582,0.115,0.586,0.117c0.035,0.016,0.073,0.023,0.111,0.017l0.071-0.024
				l0.05-0.04c0.059-0.064,0.07-0.159,0.027-0.236L105.968,27.829z M104.341,31.666l-0.302,0.168
				c-0.077,0.043-0.161,0.071-0.248,0.083c-0.292,0.041-0.585-0.104-0.728-0.362c-0.193-0.346-0.069-0.785,0.277-0.978l0.302-0.168
				L104.341,31.666z"/>
		</g>
		<g>
			<path class="st6" d="M49.427,16.087c-0.038-0.045-0.095-0.07-0.155-0.069c-0.048,0.001-0.093,0.018-0.129,0.05l-0.48,0.418
				c-0.04,0.035-0.065,0.084-0.069,0.138c-0.004,0.053,0.014,0.105,0.049,0.146c0.04,0.045,0.097,0.071,0.156,0.07l0.072-0.015
				l0.056-0.035l0.48-0.418C49.491,16.299,49.5,16.171,49.427,16.087z M50.175,18.25l-0.636,0.037
				c-0.111,0.007-0.196,0.102-0.189,0.213c0.006,0.108,0.096,0.191,0.204,0.189l0.646-0.037l0.062-0.014
				c0.08-0.032,0.13-0.112,0.125-0.199C50.381,18.33,50.292,18.248,50.175,18.25z M50.001,17.378
				c0.021-0.049,0.021-0.104,0.001-0.154c-0.031-0.076-0.108-0.127-0.191-0.125l-0.072,0.015l-0.576,0.235
				c-0.103,0.042-0.153,0.16-0.111,0.263c0.031,0.076,0.108,0.127,0.191,0.125l0.072-0.015l0.576-0.235
				C49.942,17.467,49.981,17.428,50.001,17.378z M47.504,16.256c-0.028-0.07-0.092-0.117-0.19-0.126
				c-0.067,0.001-0.128,0.035-0.165,0.091c-0.753,1.154-1.315,1.492-1.721,1.657l-1.018,0.415c-0.277,0.113-0.494,0.327-0.61,0.604
				s-0.118,0.581-0.005,0.858c0.174,0.428,0.601,0.709,1.062,0.7c0.138-0.003,0.272-0.03,0.401-0.083l0.32-0.13l0.364,0.892
				c0.031,0.076,0.108,0.127,0.191,0.125l0.072-0.015c0.049-0.021,0.088-0.059,0.11-0.108c0.02-0.049,0.021-0.104,0.001-0.154
				l-1.059-2.596l0.325-0.133c0.399-0.163,0.946-0.472,1.642-1.425l0.051-0.07l1.071,2.624l-0.093-0.022
				c-0.235-0.056-0.485-0.081-0.742-0.076c-0.365,0.007-0.743,0.075-1.123,0.203c-0.051,0.017-0.093,0.053-0.117,0.102
				c-0.023,0.048-0.027,0.102-0.01,0.152c0.029,0.084,0.107,0.139,0.195,0.138l0.061-0.01c0.341-0.115,0.676-0.176,0.997-0.182
				c0.179-0.003,0.355,0.011,0.525,0.041c0.361,0.065,0.564,0.185,0.567,0.187c0.032,0.02,0.07,0.031,0.108,0.031l0.073-0.015
				l0.055-0.033c0.066-0.056,0.089-0.149,0.056-0.231L47.504,16.256z M45.425,19.869l-0.32,0.13
				c-0.082,0.033-0.169,0.051-0.257,0.053c-0.295,0.006-0.568-0.174-0.679-0.447c-0.15-0.367,0.026-0.788,0.393-0.937l0.32-0.13
				L45.425,19.869z"/>
		</g>
		<g>
			<path class="st6" d="M39.281,10.376l0.265,0.089l-0.524,1.041c-0.114,0.232-0.116,0.367-0.007,0.404
				c0.054,0.018,0.111,0.02,0.175,0.005s0.126-0.048,0.19-0.101c0.064-0.053,0.126-0.127,0.186-0.223
				c0.06-0.096,0.115-0.216,0.164-0.36c0.062-0.184,0.089-0.351,0.081-0.501c-0.008-0.15-0.044-0.282-0.109-0.398
				c-0.065-0.116-0.155-0.215-0.27-0.298c-0.115-0.083-0.248-0.15-0.401-0.201c-0.171-0.057-0.342-0.077-0.513-0.059
				c-0.171,0.018-0.332,0.071-0.481,0.157s-0.284,0.205-0.405,0.355c-0.12,0.15-0.215,0.329-0.285,0.537
				c-0.137,0.409-0.141,0.754-0.009,1.036c0.131,0.282,0.38,0.484,0.746,0.607c0.069,0.023,0.149,0.04,0.24,0.05
				c0.09,0.009,0.175,0.008,0.253-0.004L38.576,12.9c-0.101,0.016-0.206,0.019-0.315,0.008c-0.109-0.012-0.228-0.039-0.356-0.082
				c-0.211-0.071-0.397-0.169-0.559-0.295c-0.161-0.125-0.288-0.277-0.38-0.455c-0.092-0.178-0.143-0.382-0.153-0.613
				c-0.01-0.231,0.032-0.486,0.127-0.767c0.094-0.28,0.223-0.517,0.387-0.708c0.164-0.192,0.346-0.338,0.547-0.441
				c0.201-0.102,0.412-0.16,0.634-0.175c0.222-0.015,0.44,0.014,0.654,0.086c0.203,0.068,0.383,0.162,0.541,0.282
				c0.157,0.12,0.281,0.261,0.371,0.423c0.09,0.162,0.142,0.345,0.157,0.548c0.015,0.203-0.017,0.422-0.096,0.657
				c-0.059,0.176-0.14,0.331-0.243,0.465c-0.103,0.133-0.217,0.239-0.341,0.318c-0.125,0.079-0.257,0.129-0.396,0.15
				c-0.139,0.021-0.276,0.01-0.409-0.035c-0.11-0.037-0.193-0.096-0.25-0.178s-0.06-0.191-0.008-0.328l-0.012-0.004
				c-0.096,0.081-0.199,0.144-0.311,0.19c-0.112,0.045-0.231,0.047-0.356,0.005c-0.115-0.039-0.195-0.122-0.241-0.251
				c-0.046-0.128-0.039-0.283,0.022-0.465c0.06-0.179,0.139-0.34,0.236-0.483c0.097-0.143,0.203-0.261,0.318-0.355
				c0.115-0.094,0.233-0.159,0.355-0.195c0.122-0.036,0.239-0.035,0.352,0.003c0.074,0.025,0.134,0.06,0.178,0.105
				c0.045,0.045,0.082,0.098,0.112,0.158L39.281,10.376z M38.912,10.772c-0.03-0.071-0.083-0.12-0.16-0.146
				c-0.061-0.021-0.125-0.018-0.19,0.009c-0.065,0.026-0.129,0.07-0.191,0.129c-0.062,0.06-0.119,0.133-0.172,0.219
				c-0.053,0.086-0.096,0.179-0.13,0.279c-0.031,0.092-0.039,0.168-0.026,0.229c0.014,0.06,0.053,0.101,0.117,0.123
				c0.059,0.02,0.129,0.007,0.211-0.037c0.082-0.044,0.156-0.099,0.222-0.165L38.912,10.772z"/>
		</g>
		<g>
			<path class="st6" d="M75.936,25.778l0.265,0.089l-0.524,1.041c-0.114,0.232-0.116,0.367-0.007,0.404
				c0.054,0.018,0.111,0.02,0.175,0.005c0.063-0.015,0.126-0.048,0.19-0.101c0.064-0.053,0.126-0.127,0.186-0.223
				c0.06-0.096,0.115-0.216,0.164-0.36c0.062-0.184,0.089-0.351,0.081-0.501c-0.008-0.15-0.044-0.282-0.109-0.398
				s-0.155-0.215-0.27-0.298c-0.115-0.083-0.248-0.15-0.401-0.201c-0.171-0.057-0.342-0.077-0.513-0.059
				c-0.171,0.018-0.332,0.071-0.481,0.157s-0.284,0.205-0.405,0.355c-0.12,0.15-0.215,0.329-0.285,0.537
				c-0.137,0.409-0.141,0.754-0.009,1.036c0.131,0.282,0.38,0.484,0.746,0.607c0.069,0.023,0.149,0.04,0.24,0.05
				c0.09,0.009,0.175,0.008,0.253-0.004l-0.001,0.388c-0.101,0.016-0.206,0.019-0.315,0.008c-0.109-0.012-0.228-0.039-0.356-0.082
				c-0.211-0.071-0.397-0.169-0.559-0.295c-0.161-0.125-0.288-0.277-0.38-0.455c-0.092-0.178-0.143-0.382-0.153-0.613
				c-0.01-0.231,0.032-0.486,0.127-0.767c0.094-0.28,0.223-0.517,0.387-0.708c0.164-0.192,0.346-0.338,0.547-0.441
				c0.201-0.102,0.412-0.16,0.634-0.175c0.222-0.015,0.44,0.014,0.654,0.086c0.203,0.068,0.383,0.162,0.541,0.282
				c0.157,0.12,0.281,0.261,0.371,0.423c0.09,0.162,0.142,0.345,0.157,0.548c0.015,0.203-0.017,0.422-0.096,0.657
				c-0.059,0.176-0.14,0.331-0.243,0.465c-0.103,0.133-0.217,0.239-0.341,0.318c-0.125,0.079-0.257,0.129-0.396,0.15
				c-0.139,0.021-0.276,0.01-0.409-0.035c-0.11-0.037-0.193-0.096-0.25-0.178s-0.06-0.191-0.008-0.328l-0.012-0.004
				c-0.096,0.081-0.199,0.144-0.311,0.19c-0.112,0.045-0.231,0.047-0.356,0.005c-0.115-0.039-0.195-0.122-0.241-0.251
				c-0.046-0.128-0.039-0.283,0.022-0.465c0.06-0.179,0.139-0.34,0.236-0.483c0.097-0.143,0.203-0.261,0.318-0.355
				c0.115-0.094,0.233-0.159,0.355-0.195c0.122-0.036,0.239-0.035,0.352,0.003c0.075,0.025,0.134,0.06,0.178,0.105
				c0.045,0.045,0.082,0.098,0.112,0.158L75.936,25.778z M75.567,26.174c-0.03-0.071-0.083-0.12-0.16-0.146
				c-0.061-0.021-0.125-0.018-0.19,0.009c-0.065,0.026-0.129,0.07-0.191,0.129c-0.062,0.06-0.119,0.133-0.172,0.219
				c-0.053,0.086-0.096,0.179-0.13,0.279c-0.031,0.092-0.039,0.168-0.026,0.229c0.014,0.06,0.053,0.101,0.117,0.123
				c0.059,0.02,0.129,0.007,0.211-0.037c0.082-0.044,0.156-0.099,0.222-0.165L75.567,26.174z"/>
		</g>
		<g>
			<path class="st6" d="M17.555,21.671l0.353,0.119l-0.699,1.387c-0.152,0.309-0.155,0.489-0.008,0.538
				c0.071,0.024,0.148,0.027,0.232,0.007c0.084-0.019,0.168-0.064,0.253-0.134c0.085-0.07,0.168-0.169,0.249-0.297
				c0.08-0.128,0.153-0.288,0.218-0.48c0.082-0.245,0.119-0.468,0.109-0.667s-0.059-0.376-0.146-0.53s-0.207-0.287-0.359-0.397
				c-0.153-0.111-0.331-0.2-0.534-0.268c-0.228-0.077-0.456-0.103-0.683-0.078c-0.228,0.024-0.442,0.094-0.641,0.209
				c-0.199,0.115-0.379,0.273-0.539,0.472c-0.16,0.2-0.287,0.438-0.38,0.716c-0.183,0.544-0.187,1.005-0.012,1.38
				c0.175,0.375,0.506,0.645,0.993,0.809c0.093,0.031,0.199,0.053,0.32,0.066c0.12,0.013,0.233,0.011,0.337-0.006l-0.001,0.516
				c-0.134,0.022-0.274,0.026-0.419,0.011c-0.145-0.015-0.304-0.052-0.475-0.109c-0.281-0.094-0.529-0.225-0.744-0.393
				c-0.215-0.167-0.384-0.369-0.506-0.607c-0.122-0.237-0.19-0.509-0.204-0.817c-0.013-0.307,0.043-0.648,0.168-1.022
				c0.126-0.373,0.297-0.688,0.516-0.943c0.219-0.255,0.461-0.451,0.729-0.587c0.268-0.136,0.549-0.214,0.844-0.233
				c0.296-0.019,0.586,0.019,0.871,0.115c0.27,0.091,0.51,0.216,0.72,0.376c0.21,0.16,0.374,0.348,0.494,0.564
				c0.119,0.217,0.189,0.46,0.209,0.73c0.02,0.27-0.023,0.562-0.128,0.875c-0.079,0.235-0.187,0.441-0.324,0.619
				c-0.137,0.178-0.289,0.319-0.454,0.424c-0.166,0.105-0.342,0.171-0.528,0.2c-0.186,0.028-0.368,0.013-0.545-0.047
				c-0.146-0.049-0.257-0.128-0.333-0.237c-0.076-0.109-0.08-0.254-0.011-0.437l-0.016-0.005c-0.128,0.108-0.266,0.192-0.415,0.253
				c-0.149,0.06-0.307,0.063-0.475,0.007c-0.153-0.051-0.26-0.163-0.321-0.334c-0.062-0.171-0.052-0.378,0.03-0.619
				c0.08-0.238,0.185-0.452,0.314-0.643c0.129-0.19,0.27-0.348,0.423-0.473c0.153-0.125,0.311-0.211,0.473-0.259
				c0.163-0.048,0.319-0.047,0.469,0.003c0.099,0.033,0.179,0.08,0.238,0.139c0.06,0.06,0.109,0.13,0.149,0.211L17.555,21.671z
				 M17.063,22.199c-0.039-0.095-0.11-0.16-0.214-0.195c-0.082-0.028-0.166-0.024-0.253,0.011c-0.087,0.035-0.172,0.093-0.254,0.172
				c-0.082,0.08-0.158,0.177-0.228,0.292c-0.07,0.115-0.128,0.239-0.173,0.372c-0.041,0.123-0.053,0.224-0.034,0.305
				c0.019,0.081,0.071,0.135,0.156,0.164c0.078,0.026,0.172,0.01,0.281-0.049c0.109-0.059,0.208-0.132,0.296-0.219L17.063,22.199z"
				/>
		</g>
		<g>
			<path class="st6" d="M98.89,20.521l-1.104-0.371l0.255-0.757c0.122-0.363,0.102-0.663-0.059-0.892
				c-0.254-0.361-0.759-0.376-0.781-0.376c-0.086-0.002-0.164,0.053-0.191,0.135l-0.307,0.913c-0.227,0.676-1.102,0.644-1.138,0.641
				l-0.006,0l-0.1-0.002c-0.07-0.132-0.188-0.237-0.339-0.288l-0.344-0.116c-0.315-0.107-0.657,0.063-0.763,0.378l-0.661,1.964
				c-0.106,0.315,0.064,0.657,0.379,0.763l0.344,0.116c0.145,0.049,0.297,0.039,0.428-0.018c0.087,0.22,0.266,0.404,0.508,0.485
				l2.235,0.752c0.518,0.174,0.959,0.006,1.179-0.45l0.865-1.651l0.047-0.089c0.021-0.041,0.041-0.085,0.056-0.13
				C99.531,21.114,99.306,20.661,98.89,20.521z M94.462,22.127c-0.036,0.108-0.153,0.166-0.262,0.13l-0.344-0.116
				c-0.108-0.036-0.166-0.153-0.13-0.262l0.661-1.965c0.036-0.108,0.153-0.166,0.262-0.13l0.344,0.116
				c0.108,0.036,0.166,0.153,0.13,0.261L94.462,22.127z M98.985,21.478l-0.913,1.743l-0.003,0.006
				c-0.049,0.103-0.198,0.416-0.697,0.249l-2.235-0.752c-0.226-0.076-0.349-0.323-0.273-0.549l0.634-1.887
				c0.008-0.025,0.015-0.051,0.02-0.077l0.03,0.001c0.088,0.004,1.212,0.034,1.53-0.911l0.255-0.758
				c0.112,0.026,0.251,0.081,0.326,0.189c0.083,0.121,0.086,0.3,0.007,0.537l-0.318,0.945c-0.035,0.104,0.021,0.216,0.125,0.251
				l1.29,0.434c0.21,0.071,0.322,0.298,0.252,0.507C99.008,21.429,98.997,21.453,98.985,21.478z"/>
		</g>
		<g>
			<path class="st6" d="M80.872,37.298l-0.619-0.986l0.676-0.425c0.324-0.204,0.499-0.448,0.519-0.728
				c0.032-0.44-0.349-0.771-0.366-0.785c-0.065-0.056-0.161-0.062-0.234-0.017l-0.816,0.512c-0.604,0.379-1.26-0.2-1.287-0.225
				l-0.005-0.004l-0.076-0.065c0.029-0.147,0.004-0.303-0.08-0.438l-0.193-0.308c-0.176-0.282-0.548-0.367-0.829-0.191l-1.755,1.102
				c-0.281,0.177-0.367,0.549-0.19,0.831l0.193,0.308c0.081,0.13,0.205,0.219,0.343,0.257c-0.072,0.225-0.05,0.481,0.086,0.697
				l1.254,1.998c0.291,0.463,0.738,0.612,1.197,0.398l1.715-0.73l0.093-0.039c0.043-0.019,0.085-0.04,0.125-0.065
				C80.992,38.163,81.105,37.669,80.872,37.298z M76.428,35.736c-0.097,0.061-0.224,0.032-0.285-0.065l-0.193-0.308
				c-0.061-0.097-0.032-0.224,0.065-0.285l1.756-1.102c0.097-0.061,0.224-0.031,0.285,0.065l0.193,0.308
				c0.061,0.097,0.032,0.224-0.065,0.285L76.428,35.736z M80.34,38.098l-1.81,0.771l-0.006,0.003
				c-0.103,0.048-0.417,0.197-0.697-0.249l-1.254-1.998c-0.127-0.202-0.065-0.471,0.137-0.598l1.686-1.058
				c0.022-0.014,0.044-0.03,0.064-0.047l0.023,0.019c0.065,0.059,0.917,0.794,1.761,0.264l0.677-0.425
				c0.07,0.091,0.143,0.222,0.133,0.353c-0.012,0.146-0.124,0.287-0.335,0.42l-0.844,0.53c-0.093,0.058-0.121,0.181-0.063,0.274
				l0.724,1.153c0.118,0.188,0.06,0.435-0.126,0.552C80.388,38.075,80.364,38.087,80.34,38.098z"/>
		</g>
		<g>
			<path class="st6" d="M65.048,8.984l-3.823-0.629c-0.341-0.056-0.664,0.176-0.721,0.517l-0.43,2.612
				c-0.056,0.341,0.176,0.664,0.517,0.721l3.821,0.629c0.341,0.056,0.664-0.175,0.72-0.517l0.43-2.611
				C65.621,9.364,65.389,9.04,65.048,8.984z M64.852,12.27c-0.031,0.185-0.206,0.311-0.391,0.281l-3.823-0.629
				c-0.185-0.031-0.311-0.206-0.281-0.391l0.43-2.611c0.03-0.185,0.206-0.311,0.391-0.281L65,9.267
				c0.185,0.031,0.311,0.206,0.281,0.391l-0.43,2.611L64.852,12.27z"/>
		</g>
		<g>
			<path class="st6" d="M63.486,10.671l1.42-0.906c0.066-0.043,0.086-0.131,0.043-0.198c-0.043-0.066-0.131-0.086-0.198-0.044
				l-1.958,1.25l-0.284-0.352l-0.002-0.004l-0.02-0.024l-1.155-1.435c-0.05-0.062-0.14-0.071-0.202-0.022
				c-0.062,0.05-0.071,0.14-0.021,0.202l1.068,1.325l-1.439,0.962c-0.065,0.044-0.083,0.132-0.039,0.199
				c0.023,0.034,0.059,0.056,0.096,0.062c0.035,0.006,0.071-0.001,0.103-0.022l1.46-0.975l0.293,0.363
				c0.023,0.029,0.055,0.046,0.089,0.051c0.033,0.006,0.07-0.001,0.1-0.021l0.405-0.258l1.061,1.402
				c0.023,0.031,0.056,0.049,0.091,0.055c0.038,0.006,0.077-0.002,0.11-0.027c0.063-0.047,0.075-0.138,0.028-0.201L63.486,10.671z"
				/>
		</g>
		<g>
			<path class="st6" d="M47.391,29.481l-3.066,2.368c-0.274,0.211-0.324,0.606-0.113,0.88l1.618,2.096
				c0.211,0.274,0.606,0.324,0.88,0.113l3.065-2.367c0.274-0.211,0.324-0.606,0.113-0.879l-1.618-2.095
				C48.059,29.321,47.664,29.269,47.391,29.481z M49.662,31.864c0.115,0.149,0.087,0.363-0.062,0.478l-3.066,2.368
				c-0.149,0.115-0.363,0.087-0.478-0.062l-1.618-2.095c-0.115-0.148-0.087-0.363,0.061-0.478l3.065-2.367
				c0.149-0.115,0.363-0.087,0.478,0.062L49.662,31.864L49.662,31.864z"/>
		</g>
		<g>
			<path class="st6" d="M47.56,31.773l0.305-1.656c0.014-0.078-0.037-0.152-0.115-0.167c-0.078-0.014-0.152,0.037-0.167,0.115
				l-0.42,2.285l-0.451-0.032l-0.004-0.001l-0.031-0.002l-1.837-0.133c-0.08-0.006-0.148,0.054-0.153,0.133
				c-0.006,0.08,0.054,0.148,0.133,0.153l1.697,0.122l-0.277,1.709c-0.012,0.078,0.04,0.151,0.119,0.164
				c0.041,0.006,0.081-0.005,0.111-0.028c0.028-0.021,0.048-0.053,0.054-0.09l0.282-1.733l0.465,0.033
				c0.037,0.002,0.071-0.009,0.098-0.03c0.027-0.021,0.047-0.052,0.053-0.088l0.087-0.472l1.75,0.179
				c0.038,0.004,0.074-0.008,0.102-0.029c0.03-0.023,0.05-0.058,0.055-0.099c0.008-0.078-0.05-0.149-0.128-0.157L47.56,31.773z"/>
		</g>
		<g>
			<path class="st6" d="M22.557,41.063l-1.435-1.505c-0.128-0.134-0.341-0.14-0.476-0.011l-1.028,0.981
				c-0.134,0.128-0.139,0.341-0.011,0.476l1.434,1.504c0.128,0.134,0.341,0.139,0.476,0.011l1.028-0.98
				C22.68,41.411,22.685,41.197,22.557,41.063z M21.412,42.408c-0.073,0.07-0.189,0.067-0.258-0.006l-1.435-1.505
				c-0.07-0.073-0.067-0.189,0.006-0.258l1.028-0.98c0.073-0.07,0.189-0.067,0.258,0.006l1.434,1.504
				c0.07,0.073,0.067,0.189-0.006,0.258L21.412,42.408L21.412,42.408z"/>
		</g>
		<g>
			<path class="st6" d="M21.343,41.281l0.901,0.07c0.042,0.003,0.079-0.028,0.083-0.071c0.003-0.042-0.028-0.079-0.071-0.083
				l-1.243-0.097l-0.008-0.243l0-0.002l-0.001-0.016l-0.031-0.988c-0.001-0.043-0.037-0.076-0.08-0.075
				c-0.043,0.001-0.076,0.037-0.074,0.08l0.029,0.913l-0.927-0.053c-0.042-0.002-0.078,0.03-0.081,0.072
				c-0.001,0.022,0.007,0.043,0.021,0.058c0.013,0.014,0.031,0.023,0.051,0.024l0.941,0.054l0.008,0.25
				c0.001,0.02,0.009,0.037,0.021,0.05c0.013,0.013,0.03,0.022,0.05,0.023l0.257,0.02l0.002,0.944c0,0.021,0.008,0.039,0.021,0.053
				c0.014,0.015,0.034,0.024,0.056,0.024c0.042,0,0.077-0.035,0.077-0.077L21.343,41.281z"/>
		</g>
		<g>
			<path class="st6" d="M35.058,16.144c-0.921-0.31-1.919,0.186-2.229,1.107c-0.31,0.921,0.186,1.919,1.107,2.229
				c0.921,0.31,1.919-0.186,2.229-1.107C36.475,17.452,35.979,16.454,35.058,16.144z M34.281,16.318
				c-0.044,0.031-0.087,0.066-0.131,0.105c-0.066,0.059-0.129,0.125-0.189,0.197c-0.062-0.042-0.124-0.087-0.184-0.133
				C33.933,16.401,34.104,16.344,34.281,16.318z M33.528,16.655c0.086,0.07,0.173,0.135,0.263,0.196
				c-0.095,0.148-0.179,0.313-0.248,0.489l-0.425-0.143C33.214,16.982,33.356,16.799,33.528,16.655z M33.025,18.149
				c-0.05-0.218-0.052-0.45,0.001-0.679l0.425,0.143c-0.051,0.182-0.084,0.363-0.098,0.539
				C33.245,18.146,33.136,18.145,33.025,18.149z M33.122,18.434c0.076-0.001,0.152,0.001,0.227,0.005
				c0.005,0.094,0.015,0.185,0.032,0.271c0.011,0.057,0.025,0.111,0.041,0.162C33.297,18.745,33.195,18.596,33.122,18.434z
				 M33.903,19.127c-0.152-0.124-0.244-0.364-0.264-0.659c0.154,0.022,0.305,0.055,0.453,0.097L33.903,19.127z M34.184,18.292
				c-0.177-0.052-0.359-0.09-0.543-0.114c0.011-0.152,0.039-0.312,0.084-0.474l0.59,0.199L34.184,18.292z M34.407,17.63l-0.59-0.199
				c0.062-0.156,0.137-0.3,0.219-0.428c0.162,0.092,0.33,0.171,0.502,0.237L34.407,17.63z M34.629,16.968
				c-0.144-0.055-0.284-0.121-0.42-0.196c0.195-0.223,0.412-0.359,0.609-0.366L34.629,16.968z M35.969,17.476
				c0.05,0.218,0.052,0.45-0.001,0.679l-0.425-0.143c0.051-0.182,0.085-0.363,0.098-0.539C35.749,17.479,35.859,17.48,35.969,17.476
				z M35.872,17.191c-0.076,0.001-0.152-0.001-0.227-0.005c-0.004-0.094-0.015-0.185-0.032-0.271
				c-0.011-0.057-0.025-0.111-0.041-0.162C35.698,16.88,35.799,17.029,35.872,17.191z M35.091,16.498
				c0.152,0.124,0.244,0.364,0.264,0.659c-0.154-0.022-0.305-0.055-0.453-0.097L35.091,16.498z M34.81,17.333
				c0.177,0.052,0.359,0.09,0.544,0.114c-0.012,0.152-0.039,0.312-0.084,0.474l-0.59-0.199L34.81,17.333z M34.588,17.994l0.59,0.199
				c-0.062,0.156-0.137,0.3-0.219,0.428c-0.162-0.092-0.33-0.172-0.502-0.237L34.588,17.994z M34.176,19.219l0.189-0.562
				c0.144,0.056,0.284,0.121,0.42,0.197C34.59,19.076,34.372,19.212,34.176,19.219z M34.713,19.307
				c0.044-0.031,0.087-0.066,0.13-0.105c0.066-0.059,0.129-0.125,0.189-0.197c0.063,0.042,0.124,0.087,0.184,0.133
				C35.061,19.223,34.891,19.281,34.713,19.307z M35.467,18.969c-0.085-0.07-0.173-0.135-0.263-0.196
				c0.095-0.148,0.179-0.313,0.247-0.489l0.425,0.143C35.78,18.643,35.639,18.826,35.467,18.969z"/>
		</g>
		<g>
			<path class="st6" d="M63.442,20.829c-0.297,0.058-0.533,0.251-0.66,0.503l-1.571-0.513c0.014-0.102,0.013-0.208-0.008-0.314
				c-0.021-0.107-0.059-0.205-0.112-0.295l1.26-1.067c0.211,0.186,0.504,0.277,0.802,0.219c0.507-0.1,0.841-0.594,0.741-1.103
				c-0.1-0.508-0.594-0.841-1.103-0.741c-0.508,0.099-0.841,0.594-0.741,1.102c0.021,0.107,0.059,0.206,0.112,0.295l-1.259,1.067
				c-0.211-0.188-0.504-0.277-0.802-0.219c-0.507,0.099-0.841,0.594-0.741,1.103c0.1,0.508,0.595,0.84,1.104,0.74
				c0.298-0.058,0.535-0.253,0.661-0.507l1.57,0.514c-0.015,0.103-0.014,0.211,0.007,0.317c0.099,0.507,0.593,0.841,1.102,0.741
				c0.509-0.1,0.841-0.594,0.741-1.103C64.446,21.062,63.951,20.73,63.442,20.829z M62.849,17.808
				c0.349-0.069,0.688,0.16,0.757,0.508c0.068,0.349-0.16,0.688-0.509,0.757c-0.349,0.069-0.688-0.159-0.757-0.508
				C62.273,18.216,62.501,17.876,62.849,17.808z M60.407,21.318c-0.349,0.069-0.688-0.159-0.757-0.508s0.159-0.688,0.508-0.757
				c0.349-0.069,0.688,0.16,0.757,0.508C60.984,20.91,60.755,21.25,60.407,21.318z M63.746,22.383
				c-0.349,0.068-0.688-0.16-0.757-0.508c-0.069-0.349,0.16-0.688,0.508-0.757c0.349-0.068,0.688,0.16,0.757,0.508
				C64.324,21.975,64.096,22.314,63.746,22.383z"/>
		</g>
		<g>
			<path class="st6" d="M105.139,52.028c-0.112,0.061-0.228,0.113-0.349,0.153c0.125-0.141,0.213-0.312,0.254-0.497
				c0.012-0.053-0.048-0.093-0.092-0.061c-0.163,0.117-0.341,0.21-0.53,0.275l-0.034,0.007c-0.035,0.003-0.071-0.007-0.1-0.028
				c-0.221-0.163-0.494-0.239-0.768-0.215c-0.119,0.011-0.237,0.039-0.351,0.086c-0.355,0.145-0.609,0.47-0.665,0.849
				c-0.021,0.142-0.017,0.282,0.01,0.416l-0.007,0.033l-0.03,0.017l-0.004,0c-0.804-0.004-1.557-0.325-2.121-0.904
				c-0.029-0.03-0.078-0.021-0.096,0.016c-0.084,0.18-0.12,0.38-0.103,0.579c0.027,0.305,0.175,0.581,0.406,0.772
				c-0.091-0.013-0.181-0.039-0.265-0.077c-0.041-0.018-0.086,0.014-0.083,0.058c0.034,0.453,0.335,0.833,0.748,0.979l-0.024,0.002
				c-0.063,0.005-0.127,0.005-0.191-0.001c-0.045-0.005-0.078,0.04-0.061,0.081c0.164,0.391,0.537,0.657,0.957,0.688
				c-0.324,0.261-0.714,0.418-1.131,0.455l-0.13,0.011c-0.04,0.004-0.072,0.033-0.078,0.072c-0.007,0.039,0.015,0.078,0.051,0.095
				c0.494,0.232,1.042,0.329,1.587,0.281c0.477-0.042,0.914-0.176,1.3-0.397c0.354-0.204,0.659-0.476,0.905-0.812
				c0.23-0.312,0.4-0.664,0.506-1.046c0.101-0.364,0.138-0.746,0.106-1.106l-0.002-0.017c-0.005-0.058,0.017-0.114,0.059-0.155
				c0.16-0.156,0.296-0.334,0.404-0.53C105.248,52.057,105.191,52,105.139,52.028z"/>
		</g>
		<g>
			<path class="st6" d="M107.086,42.743l-0.478-0.161c-0.079-0.026-0.202-0.024-0.258,0.143l-0.15,0.446l0.666,0.224l-0.332,0.73
				l-0.588-0.198l-0.724,2.153l-0.891-0.299l0.724-2.153l-0.423-0.142l0.255-0.757l0.423,0.142l0.165-0.489
				c0.118-0.35,0.468-0.843,1.201-0.596l0.659,0.225L107.086,42.743L107.086,42.743z"/>
		</g>
		<g>
			<path class="st6" d="M77.119,13.394l0.215,0.072l-0.503,1.496l0.403-0.201l2.74,0.921l0.777-2.312l-1.98-0.666l0.072-0.215
				l1.918,0.645c0.153,0.051,0.235,0.217,0.184,0.37l-0.735,2.187c-0.051,0.153-0.218,0.235-0.37,0.184l-2.589-0.871l-0.808,0.401
				L77.119,13.394z M77.296,12.892l0.207-0.615l-0.555-0.186l0.068-0.203l0.555,0.186l0.201-0.597l0.208,0.07l-0.201,0.597
				l0.554,0.186l-0.068,0.203l-0.554-0.186l-0.207,0.615L77.296,12.892z"/>
		</g>
		<g>
			<path class="st6" d="M13.81,56.696l0.402-0.032l0.221,2.798l0.519-0.61l5.126-0.406l-0.342-4.325l-3.705,0.293l-0.032-0.401
				l3.588-0.284c0.286-0.023,0.537,0.192,0.559,0.477l0.324,4.092c0.023,0.286-0.192,0.537-0.477,0.559l-4.843,0.383l-1.042,1.22
				L13.81,56.696z M13.75,55.75l-0.091-1.15l-1.038,0.082l-0.03-0.379l1.038-0.082l-0.089-1.118l0.39-0.031l0.089,1.118l1.037-0.082
				l0.03,0.379l-1.038,0.082l0.091,1.15L13.75,55.75z"/>
		</g>
		<g>
			<path class="st6" d="M88.859,15.822c-0.366-0.743-1.265-1.049-2.009-0.683c-0.743,0.366-1.048,1.265-0.683,2.008
				c0.366,0.744,1.265,1.049,2.008,0.683C88.919,17.465,89.225,16.566,88.859,15.822z M88.488,15.625l-0.402,0.198
				c-0.172-0.148-0.396-0.224-0.623-0.212l-0.198-0.402C87.716,15.121,88.184,15.28,88.488,15.625z M86.639,16.535l-0.403,0.198
				c-0.087-0.451,0.072-0.919,0.416-1.223l0.198,0.403C86.702,16.085,86.626,16.309,86.639,16.535z M86.538,17.346l0.402-0.198
				c0.172,0.148,0.396,0.225,0.623,0.212l0.198,0.403C87.31,17.85,86.842,17.69,86.538,17.346z M87.812,17.093
				c-0.336,0.165-0.742,0.027-0.907-0.309c-0.165-0.335-0.027-0.742,0.309-0.907c0.335-0.165,0.742-0.026,0.907,0.309
				C88.286,16.521,88.148,16.928,87.812,17.093z M88.175,17.058c0.149-0.172,0.225-0.395,0.212-0.622l0.402-0.198
				c0.088,0.452-0.071,0.919-0.416,1.223L88.175,17.058z"/>
		</g>
		<g>
			<path class="st6" d="M55.908,58.748c-0.724-1.471-2.504-2.076-3.975-1.351c-1.471,0.724-2.075,2.503-1.351,3.973
				c0.724,1.471,2.504,2.077,3.975,1.352C56.027,61.999,56.632,60.219,55.908,58.748z M55.174,58.357l-0.796,0.391
				c-0.341-0.293-0.783-0.444-1.233-0.419l-0.392-0.797C53.647,57.36,54.572,57.675,55.174,58.357z M51.515,60.159l-0.797,0.392
				c-0.173-0.893,0.142-1.818,0.824-2.421l0.392,0.797C51.64,59.267,51.489,59.71,51.515,60.159z M51.315,61.764l0.796-0.392
				c0.34,0.294,0.783,0.445,1.232,0.419l0.392,0.797C52.843,62.76,51.917,62.445,51.315,61.764z M53.837,61.263
				c-0.664,0.327-1.469,0.053-1.795-0.611c-0.326-0.663-0.053-1.468,0.611-1.795c0.664-0.326,1.469-0.052,1.795,0.611
				C54.774,60.131,54.501,60.936,53.837,61.263z M54.556,61.193c0.294-0.34,0.445-0.782,0.419-1.231l0.796-0.392
				c0.173,0.894-0.141,1.819-0.823,2.421L54.556,61.193z"/>
		</g>
		<g>
			<path class="st6" d="M30.763,13.86l-0.27-0.188c0.253-0.363,0.518-0.722,0.787-1.067l0.259,0.203
				C31.274,13.147,31.013,13.501,30.763,13.86z M31.949,12.297l-0.254-0.21c0.283-0.342,0.578-0.677,0.876-0.997l0.241,0.225
				C32.519,11.63,32.228,11.96,31.949,12.297z M53.486,18.639l-0.31-0.11c0.043-0.122,0.085-0.245,0.127-0.367
				c0.109-0.325,0.197-0.611,0.27-0.877l0.317,0.088c-0.074,0.271-0.165,0.563-0.275,0.894
				C53.573,18.392,53.53,18.515,53.486,18.639z M33.265,10.844l-0.233-0.232c0.314-0.316,0.639-0.623,0.965-0.912l0.218,0.247
				C33.894,10.232,33.574,10.533,33.265,10.844z M53.727,16.657c0.028-0.134,0.054-0.268,0.075-0.402
				c0.046-0.289,0.076-0.583,0.088-0.876l0.329,0.014c-0.013,0.305-0.043,0.613-0.092,0.915c-0.023,0.139-0.049,0.279-0.078,0.417
				L53.727,16.657z M34.712,9.525l-0.209-0.254c0.346-0.285,0.701-0.556,1.056-0.807l0.19,0.269
				C35.401,8.979,35.052,9.245,34.712,9.525z M53.888,14.735c-0.019-0.423-0.074-0.853-0.164-1.278l0.322-0.068
				c0.094,0.443,0.151,0.891,0.171,1.331L53.888,14.735z M36.289,8.367l-0.179-0.276c0.372-0.242,0.757-0.471,1.143-0.679
				l0.156,0.289C37.031,7.905,36.654,8.13,36.289,8.367z M53.566,12.831c-0.119-0.408-0.272-0.814-0.454-1.21l0.299-0.138
				c0.189,0.41,0.348,0.832,0.471,1.255L53.566,12.831z M37.989,7.404l-0.144-0.296c0.295-0.143,0.597-0.278,0.897-0.4
				c0.108-0.044,0.216-0.087,0.325-0.128l0.116,0.308c-0.107,0.04-0.212,0.081-0.317,0.124C38.573,7.132,38.278,7.264,37.989,7.404z
				 M39.798,6.672l-0.102-0.313c0.117-0.038,0.233-0.074,0.351-0.11c0.307-0.09,0.621-0.17,0.936-0.239l0.07,0.321
				c-0.307,0.067-0.614,0.146-0.912,0.233C40.027,6.6,39.912,6.635,39.798,6.672z M52.82,11.044
				c-0.206-0.375-0.441-0.742-0.699-1.089l0.264-0.196c0.267,0.359,0.51,0.738,0.724,1.126L52.82,11.044z M41.692,6.209
				l-0.054-0.325c0.438-0.074,0.883-0.126,1.324-0.155l0.022,0.328C42.554,6.087,42.12,6.137,41.692,6.209z M51.718,9.448
				c-0.112-0.132-0.229-0.261-0.349-0.387c-0.179-0.188-0.366-0.369-0.556-0.538l0.219-0.246c0.196,0.175,0.39,0.363,0.575,0.557
				c0.124,0.13,0.245,0.264,0.361,0.4L51.718,9.448z M43.633,6.031l-0.005-0.329c0.448-0.007,0.897,0.01,1.333,0.049l-0.03,0.328
				C44.506,6.04,44.069,6.024,43.633,6.031z M50.316,8.108c-0.344-0.267-0.705-0.509-1.075-0.717l0.162-0.287
				c0.383,0.217,0.757,0.467,1.114,0.744L50.316,8.108z M45.576,6.155l0.048-0.326c0.445,0.065,0.884,0.156,1.308,0.269
				l-0.085,0.318C46.436,6.307,46.008,6.219,45.576,6.155z M48.668,7.09c-0.38-0.183-0.778-0.345-1.184-0.481l0.088-0.318
				l0.017,0.006c0.419,0.141,0.83,0.308,1.222,0.497L48.668,7.09z"/>
		</g>
		<g>
			<path class="st6" d="M50.146,10.428l-0.24-0.225c0.306-0.326,0.626-0.639,0.952-0.931l0.219,0.245
				C50.758,9.803,50.445,10.109,50.146,10.428z M51.593,9.075l-0.127-0.109l-0.085-0.143c0.335-0.275,0.685-0.538,1.043-0.785
				l0.187,0.271C52.261,8.551,51.918,8.809,51.593,9.075z M53.156,7.951l-0.175-0.279c0.372-0.234,0.76-0.457,1.154-0.662
				l0.152,0.292C53.9,7.504,53.52,7.722,53.156,7.951z M73.181,14.252l-0.308-0.118c0.019-0.05,0.037-0.099,0.054-0.149l0.316,0.094
				l-0.004,0.011C73.221,14.144,73.201,14.198,73.181,14.252z M73.082,13.361c0.067-0.406,0.074-0.832,0.022-1.266l0.327-0.04
				c0.056,0.465,0.048,0.922-0.024,1.359L73.082,13.361z M54.871,7.013L54.73,6.715c0.4-0.188,0.811-0.363,1.224-0.52l0.116,0.308
				C55.666,6.657,55.262,6.829,54.871,7.013z M56.685,6.284L56.58,5.972c0.417-0.14,0.846-0.266,1.276-0.374l0.08,0.32
				C57.515,6.024,57.093,6.147,56.685,6.284z M72.989,11.468c-0.102-0.408-0.254-0.811-0.45-1.195l0.294-0.15
				c0.208,0.407,0.368,0.832,0.476,1.265L72.989,11.468z M58.571,5.771l-0.068-0.322c0.43-0.091,0.871-0.166,1.31-0.225l0.043,0.327
				C59.426,5.607,58.993,5.682,58.571,5.771z M72.216,9.721c-0.048-0.072-0.098-0.143-0.148-0.214
				c-0.197-0.27-0.42-0.532-0.664-0.779l0.234-0.232c0.256,0.258,0.491,0.534,0.697,0.817c0.054,0.074,0.106,0.149,0.156,0.225
				L72.216,9.721z M60.505,5.477l-0.031-0.328c0.44-0.041,0.887-0.065,1.328-0.072l0.005,0.329
				C61.375,5.413,60.936,5.437,60.505,5.477z M70.93,8.29c-0.315-0.269-0.666-0.526-1.042-0.764l0.176-0.278
				c0.39,0.246,0.753,0.513,1.081,0.792L70.93,8.29z M62.46,5.41l0.008-0.329c0.44,0.011,0.887,0.04,1.327,0.085L63.76,5.494
				C63.329,5.448,62.891,5.42,62.46,5.41z M64.407,5.575l0.048-0.326c0.441,0.065,0.88,0.148,1.307,0.248l-0.075,0.321
				C65.268,5.721,64.838,5.639,64.407,5.575z M69.329,7.196c-0.364-0.201-0.758-0.392-1.17-0.568l0.13-0.302
				c0.422,0.18,0.826,0.376,1.199,0.582L69.329,7.196z M66.318,5.98l0.089-0.317c0.427,0.119,0.85,0.258,1.265,0.413l-0.116,0.308
				C67.149,6.232,66.735,6.097,66.318,5.98z"/>
		</g>
		<g>
			<path class="st6" d="M98.374,38.199l-0.273-0.184c0.084-0.124,0.163-0.249,0.239-0.376l0.283,0.169
				C98.544,37.94,98.461,38.07,98.374,38.199z M98.943,37.216l-0.296-0.145c0.155-0.317,0.292-0.65,0.407-0.991
				c0.023-0.069,0.045-0.138,0.067-0.208l0.315,0.097c-0.022,0.072-0.045,0.145-0.07,0.216
				C99.247,36.54,99.104,36.887,98.943,37.216z M99.287,35.247c0.054-0.239,0.099-0.485,0.134-0.732
				c0.026-0.182,0.047-0.364,0.063-0.547l0.328,0.028c-0.016,0.189-0.037,0.378-0.065,0.565c-0.036,0.255-0.082,0.511-0.139,0.758
				L99.287,35.247z M99.515,33.322c0.007-0.427-0.016-0.862-0.067-1.292l0.327-0.039c0.053,0.445,0.076,0.894,0.069,1.336
				L99.515,33.322z M99.35,31.39c-0.079-0.423-0.187-0.845-0.322-1.254l0.313-0.103c0.139,0.423,0.251,0.859,0.333,1.296
				L99.35,31.39z M98.805,29.529c-0.163-0.402-0.355-0.793-0.569-1.161l0.285-0.165c0.221,0.382,0.42,0.786,0.589,1.203
				L98.805,29.529z M97.892,27.821c-0.245-0.358-0.516-0.698-0.806-1.008l0.241-0.225c0.302,0.322,0.584,0.675,0.838,1.047
				L97.892,27.821z M96.626,26.36c-0.201-0.182-0.411-0.355-0.626-0.513c-0.13-0.096-0.262-0.188-0.395-0.276l0.181-0.275
				c0.138,0.091,0.275,0.187,0.41,0.286c0.223,0.164,0.443,0.344,0.652,0.534L96.626,26.36z M95.054,25.231
				c-0.357-0.205-0.737-0.397-1.16-0.587l0.135-0.301c0.434,0.195,0.822,0.392,1.189,0.603L95.054,25.231z M93.294,24.387
				c-0.363-0.148-0.753-0.294-1.225-0.46l0.109-0.311c0.478,0.168,0.872,0.316,1.24,0.466L93.294,24.387z M91.447,23.713
				l-1.248-0.422l0.106-0.312l1.248,0.422L91.447,23.713z"/>
		</g>
		<g>
			<path class="st6" d="M90.1,23.259l-0.402-0.14l0.111-0.31l0.368,0.128c0.198-0.351,0.377-0.7,0.533-1.039l0.299,0.137
				c-0.177,0.386-0.384,0.784-0.613,1.182l-0.066,0.114L90.1,23.259z M89.076,22.891c-0.448-0.171-0.849-0.338-1.226-0.511
				l0.137-0.299c0.37,0.17,0.765,0.335,1.206,0.502L89.076,22.891z M87.251,22.089c-0.415-0.213-0.803-0.44-1.153-0.675l0.184-0.273
				c0.339,0.227,0.716,0.448,1.119,0.656L87.251,22.089z M85.556,21.022c-0.365-0.285-0.697-0.591-0.988-0.911l0.244-0.221
				c0.278,0.306,0.596,0.599,0.946,0.873L85.556,21.022z M84.139,19.59c-0.264-0.357-0.487-0.755-0.663-1.181l0.304-0.126
				c0.166,0.401,0.375,0.775,0.623,1.111L84.139,19.59z M91.27,21.422l-0.306-0.121c0.066-0.169,0.129-0.34,0.187-0.513
				c0.081-0.241,0.152-0.482,0.212-0.719l0.319,0.08c-0.062,0.245-0.135,0.496-0.219,0.744
				C91.403,21.071,91.339,21.247,91.27,21.422z M83.255,17.769c-0.125-0.444-0.194-0.894-0.207-1.338l0.329-0.01
				c0.012,0.417,0.078,0.841,0.195,1.259L83.255,17.769z M91.498,19.437c0.047-0.269,0.08-0.539,0.099-0.8
				c0.012-0.16,0.018-0.321,0.018-0.482l0.329,0.001c-0.001,0.169-0.007,0.337-0.019,0.505c-0.019,0.273-0.054,0.553-0.103,0.833
				L91.498,19.437z M83.074,15.75c0.034-0.324,0.102-0.638,0.202-0.933c0.043-0.13,0.095-0.26,0.152-0.385l0.299,0.137
				c-0.052,0.114-0.099,0.232-0.139,0.352c-0.092,0.272-0.154,0.563-0.186,0.864L83.074,15.75z M91.588,17.512
				c-0.039-0.432-0.118-0.857-0.235-1.262l0.316-0.092c0.123,0.425,0.207,0.871,0.247,1.324L91.588,17.512z M84.038,14.026
				l-0.269-0.19c0.138-0.196,0.296-0.378,0.471-0.542c0.159-0.15,0.335-0.287,0.522-0.406l0.176,0.278
				c-0.17,0.108-0.329,0.232-0.473,0.368C84.307,13.683,84.163,13.848,84.038,14.026z M91.143,15.644
				c-0.164-0.406-0.369-0.783-0.609-1.122l0.269-0.191c0.254,0.359,0.471,0.759,0.646,1.188L91.143,15.644z M85.497,12.882
				l-0.121-0.306c0.416-0.165,0.865-0.26,1.335-0.283l0.016,0.329C86.292,12.644,85.879,12.731,85.497,12.882z M90.134,14.027
				c-0.162-0.177-0.338-0.34-0.522-0.487c-0.142-0.114-0.295-0.22-0.456-0.315l0.169-0.283c0.173,0.103,0.339,0.218,0.493,0.341
				c0.197,0.157,0.385,0.333,0.559,0.521L90.134,14.027z M87.36,12.639l0.033-0.328c0.453,0.045,0.903,0.157,1.32,0.327
				l-0.124,0.305C88.198,12.785,87.782,12.681,87.36,12.639z"/>
		</g>
		<g>
			<path class="st6" d="M111.566,56.333l-0.224-0.241c0.312-0.291,0.609-0.609,0.884-0.945l0.255,0.209
				C112.197,55.703,111.889,56.032,111.566,56.333z M112.888,54.825l-0.268-0.192c0.248-0.346,0.479-0.716,0.685-1.099l0.29,0.157
				C113.381,54.085,113.143,54.467,112.888,54.825z M113.895,53.093l-0.299-0.138c0.172-0.371,0.326-0.757,0.458-1.148l0.019-0.057
				l0.314,0.1l-0.02,0.062C114.23,52.313,114.071,52.711,113.895,53.093z M114.259,51.126c0.112-0.415,0.202-0.842,0.268-1.271
				l0.326,0.05c-0.068,0.44-0.161,0.879-0.276,1.305L114.259,51.126z M114.61,49.211c0.043-0.43,0.064-0.867,0.061-1.298L115,47.911
				c0.003,0.443-0.018,0.891-0.063,1.332L114.61,49.211z M114.65,47.264c-0.025-0.432-0.074-0.867-0.146-1.291l0.325-0.054
				c0.073,0.436,0.123,0.882,0.15,1.326L114.65,47.264z M114.379,45.336c-0.095-0.424-0.215-0.844-0.355-1.249l0.311-0.108
				c0.144,0.416,0.267,0.849,0.365,1.284L114.379,45.336z M113.794,43.48c-0.163-0.395-0.351-0.79-0.558-1.173l0.289-0.156
				c0.213,0.393,0.406,0.798,0.573,1.204L113.794,43.48z M112.911,41.744c-0.223-0.366-0.469-0.728-0.731-1.075l0.263-0.199
				c0.268,0.356,0.521,0.727,0.75,1.102L112.911,41.744z M111.775,40.16c-0.276-0.332-0.572-0.655-0.879-0.959l0.232-0.233
				c0.314,0.312,0.617,0.642,0.9,0.982L111.775,40.16z M110.425,38.751c-0.318-0.29-0.655-0.571-1.001-0.834l0.199-0.262
				c0.353,0.269,0.697,0.555,1.023,0.852L110.425,38.751z M100.346,34.72l0.014-0.329c0.444,0.019,0.889,0.054,1.325,0.104
				l-0.038,0.327C101.219,34.772,100.782,34.738,100.346,34.72z M108.898,37.534c-0.355-0.248-0.725-0.483-1.1-0.698l0.164-0.285
				c0.382,0.221,0.76,0.461,1.123,0.713L108.898,37.534z M102.293,34.908l0.05-0.326c0.439,0.068,0.878,0.154,1.305,0.254
				l-0.076,0.321C103.155,35.059,102.724,34.975,102.293,34.908z M107.227,36.521c-0.385-0.202-0.781-0.388-1.178-0.556l0.128-0.304
				c0.406,0.171,0.811,0.362,1.204,0.568L107.227,36.521z M104.204,35.32l0.088-0.317c0.267,0.075,0.529,0.154,0.795,0.245
				c0.158,0.053,0.314,0.109,0.471,0.167l-0.115,0.309c-0.161-0.06-0.323-0.116-0.485-0.172
				C104.709,35.468,104.457,35.391,104.204,35.32z"/>
		</g>
		<g>
			<path class="st6" d="M11.691,64.236l-0.077-0.032c-0.386-0.158-0.768-0.335-1.134-0.524l0.152-0.292
				c0.357,0.185,0.729,0.357,1.108,0.512l0.074,0.031L11.691,64.236z M9.896,63.359c-0.388-0.227-0.763-0.473-1.115-0.733
				l0.196-0.265c0.342,0.253,0.707,0.493,1.085,0.714L9.896,63.359z M8.256,62.212c-0.348-0.29-0.675-0.599-0.972-0.918l0.241-0.224
				c0.287,0.309,0.604,0.608,0.941,0.89L8.256,62.212z M6.846,60.788c-0.285-0.353-0.542-0.723-0.764-1.101l0.284-0.166
				c0.214,0.364,0.461,0.721,0.736,1.061L6.846,60.788z M5.766,59.094c-0.023-0.048-0.046-0.097-0.069-0.145
				c-0.163-0.356-0.3-0.73-0.406-1.113l0.317-0.088c0.101,0.366,0.232,0.724,0.388,1.064c0.021,0.046,0.043,0.093,0.065,0.139
				L5.766,59.094z M5.138,57.181C5.057,56.746,5.01,56.297,5,55.846l0.329-0.007c0.009,0.433,0.054,0.864,0.132,1.282L5.138,57.181z
				 M5.012,55.175c0.025-0.443,0.085-0.89,0.177-1.329l0.323,0.068c-0.09,0.423-0.147,0.854-0.171,1.28L5.012,55.175z M5.352,53.195
				c0.034-0.117,0.071-0.234,0.11-0.349c0.104-0.308,0.225-0.613,0.361-0.906l0.299,0.138c-0.131,0.282-0.248,0.575-0.348,0.873
				c-0.037,0.111-0.072,0.224-0.105,0.336L5.352,53.195z M6.416,51.503l-0.287-0.161c0.22-0.393,0.472-0.768,0.748-1.115
				l0.257,0.205C6.869,50.765,6.627,51.126,6.416,51.503z M7.556,49.946l-0.24-0.226c0.311-0.33,0.649-0.631,1.004-0.894
				l0.196,0.265C8.177,49.342,7.854,49.63,7.556,49.946z M9.051,48.731L8.88,48.449c0.378-0.23,0.784-0.43,1.206-0.594l0.119,0.307
				C9.801,48.319,9.413,48.511,9.051,48.731z M10.815,47.955l-0.093-0.316c0.424-0.125,0.866-0.218,1.313-0.275l0.042,0.327
				C11.646,47.745,11.222,47.834,10.815,47.955z M18.944,49.976c-0.239-0.247-0.5-0.481-0.776-0.694l0.201-0.261
				c0.289,0.223,0.562,0.468,0.812,0.727L18.944,49.976z M12.72,47.633l-0.017-0.329c0.443-0.023,0.894-0.011,1.34,0.034
				l-0.033,0.328C13.581,47.622,13.146,47.611,12.72,47.633z M17.641,48.911c-0.357-0.23-0.74-0.433-1.138-0.604l0.13-0.302
				c0.415,0.178,0.814,0.39,1.186,0.63L17.641,48.911z M14.651,47.754l0.057-0.324c0.432,0.076,0.859,0.185,1.27,0.323l-0.076,0.322
				C15.477,47.932,15.066,47.828,14.651,47.754z"/>
		</g>
		<g>
			<path class="st6" d="M24.813,18.475l-0.304-0.128c0.078-0.185,0.154-0.37,0.23-0.555l0.27-0.661l0.305,0.124l-0.27,0.661
				C24.967,18.103,24.891,18.288,24.813,18.475z M25.563,16.646l-0.305-0.125c0.167-0.407,0.335-0.813,0.508-1.218l0.303,0.129
				C25.897,15.835,25.729,16.24,25.563,16.646z M26.33,14.829l-0.301-0.133c0.191-0.435,0.372-0.828,0.552-1.202l0.297,0.142
				C26.687,14.03,26.506,14.429,26.33,14.829z M27.166,13.049L26.872,12.9c0.206-0.407,0.418-0.8,0.63-1.167l0.285,0.164
				C27.579,12.26,27.37,12.647,27.166,13.049z M28.122,11.337l-0.28-0.174c0.174-0.281,0.353-0.554,0.53-0.81
				c0.069-0.099,0.139-0.197,0.21-0.294l0.266,0.194c-0.07,0.096-0.138,0.192-0.206,0.288
				C28.469,10.793,28.294,11.061,28.122,11.337z M40.616,15.094l-0.153-0.292c0.308-0.162,0.592-0.37,0.845-0.619l0.231,0.235
				C41.263,14.69,40.952,14.917,40.616,15.094z M29.244,9.737l-0.257-0.206c0.281-0.351,0.577-0.688,0.879-1.001l0.237,0.229
				C29.808,9.064,29.519,9.394,29.244,9.737z M41.986,13.899l-0.266-0.194c0.242-0.333,0.44-0.71,0.586-1.121l0.31,0.111
				C42.46,13.135,42.248,13.541,41.986,13.899z M30.566,8.302l-0.225-0.241c0.331-0.31,0.675-0.599,1.022-0.858l0.197,0.264
				C31.223,7.719,30.888,8,30.566,8.302z M42.479,11.971c0.089-0.414,0.126-0.841,0.112-1.269l0.329-0.012
				c0.016,0.455-0.024,0.909-0.118,1.349L42.479,11.971z M32.091,7.095L31.911,6.82c0.38-0.249,0.772-0.471,1.165-0.659l0.142,0.297
				C32.838,6.639,32.459,6.854,32.091,7.095z M42.529,10.067C42.462,9.64,42.34,9.23,42.17,8.849l0.3-0.135
				c0.183,0.407,0.312,0.845,0.384,1.301L42.529,10.067z M33.81,6.2l-0.12-0.307c0.331-0.13,0.67-0.24,1.008-0.326
				c0.092-0.023,0.184-0.046,0.276-0.065l0.068,0.322c-0.088,0.019-0.176,0.039-0.263,0.062C34.455,5.97,34.128,6.075,33.81,6.2z
				 M41.871,8.291c-0.038-0.059-0.076-0.117-0.116-0.173c-0.201-0.288-0.437-0.558-0.7-0.803l0.224-0.241
				c0.281,0.261,0.531,0.548,0.746,0.854c0.043,0.06,0.084,0.122,0.124,0.185L41.871,8.291z M35.678,5.718l-0.04-0.327
				c0.443-0.054,0.895-0.069,1.344-0.045l-0.017,0.329C36.534,5.652,36.102,5.667,35.678,5.718z M40.562,6.908
				C40.388,6.78,40.204,6.66,40.013,6.55c-0.178-0.103-0.365-0.198-0.558-0.284l0.135-0.301c0.203,0.091,0.4,0.192,0.587,0.3
				c0.201,0.116,0.397,0.242,0.58,0.377L40.562,6.908z M37.605,5.738l0.046-0.326c0.448,0.064,0.889,0.167,1.309,0.308l-0.105,0.312
				C38.455,5.898,38.034,5.799,37.605,5.738z"/>
		</g>
		<g>
			<path class="st6" d="M14.387,27.802c-0.091-0.031-0.183-0.065-0.274-0.103l-0.058-0.025l0.129-0.302l0.054,0.023
				c0.38,0.157,0.764,0.25,1.167,0.284l-0.028,0.328C15.039,27.978,14.706,27.909,14.387,27.802z M13.452,27.348
				c-0.373-0.247-0.708-0.561-0.997-0.932l0.26-0.202c0.266,0.343,0.575,0.632,0.919,0.859L13.452,27.348z M16.059,28.013
				l-0.022-0.329c0.405-0.026,0.825-0.11,1.247-0.25l0.103,0.313C16.939,27.895,16.492,27.985,16.059,28.013z M12.077,25.848
				c-0.22-0.388-0.391-0.811-0.508-1.258l0.319-0.084c0.11,0.42,0.269,0.816,0.475,1.178L12.077,25.848z M18.017,27.501l-0.135-0.3
				c0.376-0.17,0.753-0.382,1.121-0.631l0.185,0.272C18.804,27.102,18.41,27.324,18.017,27.501z M11.439,23.924
				c-0.06-0.454-0.063-0.91-0.008-1.355l0.327,0.04c-0.051,0.418-0.048,0.846,0.009,1.272L11.439,23.924z M19.729,26.446
				l-0.204-0.259c0.332-0.262,0.655-0.555,0.959-0.87l0.236,0.229C20.406,25.871,20.072,26.174,19.729,26.446z M11.558,21.9
				c0.027-0.104,0.058-0.207,0.092-0.309c0.017-0.051,0.035-0.103,0.055-0.155c0.102-0.27,0.226-0.536,0.37-0.789l0.287,0.162
				c-0.135,0.239-0.252,0.489-0.348,0.744c-0.018,0.047-0.035,0.095-0.051,0.143c-0.032,0.095-0.06,0.191-0.086,0.288L11.558,21.9z
				 M21.169,25.049l-0.252-0.213c0.082-0.096,0.161-0.195,0.238-0.293c0.184-0.235,0.368-0.486,0.547-0.744l0.271,0.187
				c-0.182,0.263-0.37,0.519-0.558,0.759C21.336,24.847,21.254,24.948,21.169,25.049z M12.708,20.271l-0.267-0.194
				c0.258-0.356,0.562-0.693,0.903-1.002l0.221,0.244C13.241,19.613,12.952,19.933,12.708,20.271z M22.341,23.432l-0.278-0.177
				c0.224-0.35,0.448-0.728,0.668-1.123l0.288,0.16C22.797,22.693,22.569,23.077,22.341,23.432z M14.061,18.911l-0.197-0.264
				c0.354-0.264,0.738-0.502,1.143-0.707l0.149,0.294C14.768,18.431,14.4,18.659,14.061,18.911z M23.333,21.708l-0.292-0.152
				c0.194-0.373,0.383-0.757,0.578-1.175l0.299,0.139C23.72,20.943,23.529,21.331,23.333,21.708z M15.743,17.968l-0.124-0.305
				c0.414-0.168,0.844-0.304,1.281-0.403l0.073,0.321C16.554,17.676,16.14,17.806,15.743,17.968z M24.192,19.918l-0.301-0.134
				c0.179-0.399,0.352-0.802,0.521-1.206l0.304,0.128C24.546,19.111,24.372,19.516,24.192,19.918z M17.607,17.464l-0.048-0.326
				c0.431-0.063,0.88-0.098,1.334-0.103l0.004,0.329C18.458,17.369,18.024,17.402,17.607,17.464z M19.546,17.376l0.016-0.329
				c0.431,0.021,0.877,0.066,1.327,0.136l-0.05,0.326C20.4,17.44,19.966,17.396,19.546,17.376z M21.48,17.622l0.065-0.323
				c0.418,0.085,0.853,0.191,1.291,0.317l-0.091,0.316C22.315,17.81,21.889,17.705,21.48,17.622z M24.601,18.564
				c-0.108-0.042-0.215-0.084-0.325-0.123c-0.232-0.087-0.466-0.17-0.7-0.249l-0.205-0.068l0.101-0.314l0.21,0.069
				c0.238,0.08,0.475,0.164,0.71,0.252c0.11,0.04,0.22,0.083,0.33,0.126L24.601,18.564z"/>
		</g>
		<g>
			<path class="st6" d="M19.886,45.975c-0.08-0.027-0.159-0.056-0.238-0.086l0.118-0.308c0.4,0.155,0.819,0.261,1.235,0.31
				l-0.039,0.327C20.602,46.176,20.24,46.094,19.886,45.975z M19.032,45.607c-0.395-0.209-0.77-0.465-1.116-0.761l0.214-0.25
				c0.327,0.28,0.683,0.523,1.056,0.721L19.032,45.607z M17.427,44.379c-0.31-0.329-0.584-0.692-0.815-1.077l0.283-0.169
				c0.218,0.364,0.478,0.708,0.772,1.02L17.427,44.379z M16.299,42.703c-0.19-0.418-0.328-0.851-0.411-1.289l0.323-0.062
				c0.078,0.412,0.209,0.821,0.387,1.214L16.299,42.703z M15.804,40.742l-0.002-0.033c-0.023-0.437,0.01-0.881,0.096-1.321
				l0.323,0.063c-0.081,0.413-0.112,0.831-0.091,1.24L15.804,40.742z M16.068,38.732l0.023-0.069c0.135-0.4,0.314-0.791,0.533-1.162
				l0.284,0.167c-0.207,0.351-0.377,0.721-0.504,1.099l-0.022,0.065L16.068,38.732z M17.263,37.136l-0.264-0.197
				c0.271-0.362,0.58-0.695,0.919-0.989l0.215,0.249C17.812,36.477,17.519,36.792,17.263,37.136z M18.64,35.807l-0.186-0.272
				c0.379-0.26,0.782-0.471,1.199-0.629l0.116,0.308C19.377,35.362,18.997,35.562,18.64,35.807z M20.376,35.027l-0.074-0.321
				l0.057-0.013c0.401-0.091,0.819-0.143,1.277-0.158l0.012,0.329c-0.438,0.015-0.835,0.064-1.216,0.15L20.376,35.027z
				 M22.294,34.865l0.012-0.329c0.384,0.014,0.805,0.049,1.326,0.111l-0.039,0.327C23.081,34.913,22.669,34.879,22.294,34.865z
				 M24.243,35.058l0.043-0.327l0.179,0.024c0.375,0.05,0.75,0.1,1.124,0.14l-0.035,0.327c-0.377-0.04-0.754-0.091-1.132-0.141
				L24.243,35.058z M26.218,35.28l0.022-0.329c0.478,0.031,0.9,0.032,1.293,0.003l0.025,0.329
				C27.149,35.313,26.712,35.312,26.218,35.28z M28.226,35.2l-0.057-0.324c0.131-0.023,0.262-0.051,0.392-0.083
				c0.282-0.071,0.56-0.167,0.826-0.286l0.135,0.3c-0.283,0.127-0.579,0.23-0.88,0.305C28.503,35.147,28.365,35.176,28.226,35.2z
				 M30.123,34.491l-0.172-0.281c0.356-0.218,0.693-0.483,1.001-0.789l0.232,0.233C30.858,33.978,30.501,34.26,30.123,34.491z
				 M31.638,33.152l-0.256-0.208c0.264-0.325,0.502-0.686,0.707-1.071l0.291,0.155C32.165,32.433,31.915,32.811,31.638,33.152z
				 M32.669,31.421l-0.304-0.128c0.075-0.177,0.145-0.361,0.207-0.548c0.075-0.222,0.14-0.449,0.194-0.676l0.32,0.076
				c-0.056,0.236-0.124,0.473-0.202,0.705C32.82,31.044,32.747,31.236,32.669,31.421z M32.892,29.435
				c0.067-0.426,0.1-0.858,0.097-1.285l0.329-0.002c0.003,0.445-0.032,0.895-0.101,1.338L32.892,29.435z M32.959,27.506
				c-0.038-0.433-0.114-0.859-0.225-1.266l0.318-0.087c0.116,0.426,0.195,0.871,0.235,1.323L32.959,27.506z M32.536,25.627
				c-0.149-0.398-0.331-0.793-0.539-1.174l0.289-0.158c0.216,0.395,0.404,0.804,0.559,1.217L32.536,25.627z M31.667,23.896
				c-0.228-0.357-0.485-0.708-0.766-1.045l0.253-0.211c0.289,0.348,0.555,0.71,0.79,1.078L31.667,23.896z M30.472,22.365
				c-0.288-0.308-0.603-0.611-0.936-0.901l0.216-0.248c0.342,0.297,0.666,0.608,0.961,0.924L30.472,22.365z M29.034,21.049
				c-0.333-0.262-0.688-0.517-1.058-0.76l0.181-0.275c0.377,0.247,0.741,0.509,1.081,0.776L29.034,21.049z M27.424,19.944
				c-0.366-0.22-0.751-0.432-1.143-0.629l0.149-0.294c0.4,0.201,0.791,0.417,1.165,0.641L27.424,19.944z M25.692,19.03
				c-0.351-0.163-0.719-0.319-1.092-0.466l0.121-0.306c0.379,0.149,0.752,0.309,1.109,0.474L25.692,19.03z"/>
		</g>
	</g>
</g>
</svg>
