<?xml version="1.0" encoding="utf-8"?>
<!-- Generator: Adobe Illustrator 22.0.1, SVG Export Plug-In . SVG Version: 6.00 Build 0)  -->
<svg version="1.1" id="Layer_1" xmlns="http://www.w3.org/2000/svg" xmlns:xlink="http://www.w3.org/1999/xlink" x="0px" y="0px"
	 width="333.1px" height="131.5px" viewBox="0 0 333.1 131.5" style="enable-background:new 0 0 333.1 131.5;" xml:space="preserve"
	>
<g>
	<path style="fill:#2684FF;" d="M101.8,30H67.2c0,8.6,7,15.6,15.6,15.6l0,0h6.4v6.2c0,8.6,7,15.6,15.6,15.6V33
		C104.8,31.3,103.5,30,101.8,30z"/>
	
		<linearGradient id="SVGID_1_" gradientUnits="userSpaceOnUse" x1="86.9628" y1="854.7073" x2="72.2528" y2="839.5373" gradientTransform="matrix(1 0 0 -1 0 902)">
		<stop  offset="0.18" style="stop-color:#0052CC"/>
		<stop  offset="1" style="stop-color:#2684FF"/>
	</linearGradient>
	<path style="fill:url(#SVGID_1_);" d="M84.7,47.2H50.1c0,8.6,7,15.6,15.6,15.6h6.4V69c0,8.6,7,15.6,15.6,15.6V50.2
		C87.7,48.6,86.4,47.2,84.7,47.2z"/>
	
		<linearGradient id="SVGID_2_" gradientUnits="userSpaceOnUse" x1="70.828" y1="837.382" x2="53.818" y2="820.842" gradientTransform="matrix(1 0 0 -1 0 902)">
		<stop  offset="0.18" style="stop-color:#0052CC"/>
		<stop  offset="1" style="stop-color:#2684FF"/>
	</linearGradient>
	<path style="fill:url(#SVGID_2_);" d="M67.6,64.4H33c0,8.6,7,15.6,15.6,15.6l0,0H55v6.2c0,8.6,7,15.6,15.6,15.6V67.4
		C70.6,65.8,69.2,64.4,67.6,64.4z"/>
</g>
<g>
	<path style="fill:#5E6C84;" d="M198.8,31h-34.6c0,8.6,7,15.6,15.6,15.6l0,0h6.4v6.2c0,8.6,7,15.6,15.6,15.6V34
		C201.8,32.3,200.5,31,198.8,31z"/>
	
		<linearGradient id="SVGID_3_" gradientUnits="userSpaceOnUse" x1="183.9628" y1="853.7073" x2="169.2528" y2="838.5373" gradientTransform="matrix(1 0 0 -1 0 902)">
		<stop  offset="0.18" style="stop-color:#344563"/>
		<stop  offset="1" style="stop-color:#5E6C84"/>
	</linearGradient>
	<path style="fill:url(#SVGID_3_);" d="M181.7,48.2h-34.6c0,8.6,7,15.6,15.6,15.6h6.4V70c0,8.6,7,15.6,15.6,15.6V51.2
		C184.7,49.6,183.4,48.2,181.7,48.2z"/>
	
		<linearGradient id="SVGID_4_" gradientUnits="userSpaceOnUse" x1="167.828" y1="836.382" x2="150.818" y2="819.842" gradientTransform="matrix(1 0 0 -1 0 902)">
		<stop  offset="0.18" style="stop-color:#344563"/>
		<stop  offset="1" style="stop-color:#5E6C84"/>
	</linearGradient>
	<path style="fill:url(#SVGID_4_);" d="M164.6,65.4H130c0,8.6,7,15.6,15.6,15.6l0,0h6.4v6.2c0,8.6,7,15.6,15.6,15.6V68.4
		C167.6,66.8,166.2,65.4,164.6,65.4z"/>
</g>
<g>
	<path style="fill:#FFFFFF;" d="M304.8,30h-34.6c0,8.6,7,15.6,15.6,15.6l0,0h6.4v6.2c0,8.6,7,15.6,15.6,15.6V33
		C307.8,31.3,306.5,30,304.8,30z"/>
	
		<linearGradient id="SVGID_5_" gradientUnits="userSpaceOnUse" x1="289.4628" y1="854.2073" x2="274.7528" y2="839.0373" gradientTransform="matrix(1 0 0 -1 0 902)">
		<stop  offset="0.18" style="stop-color:#FFFFFF;stop-opacity:0.4"/>
		<stop  offset="1" style="stop-color:#FFFFFF"/>
	</linearGradient>
	<path style="fill:url(#SVGID_5_);" d="M287.2,47.7h-34.6c0,8.6,7,15.6,15.6,15.6h6.4v6.2c0,8.6,7,15.6,15.6,15.6V50.7
		C290.2,49.1,288.9,47.7,287.2,47.7z"/>
	
		<linearGradient id="SVGID_6_" gradientUnits="userSpaceOnUse" x1="272.833" y1="836.3769" x2="255.823" y2="819.8369" gradientTransform="matrix(1 0 0 -1 0 902)">
		<stop  offset="0.18" style="stop-color:#FFFFFF;stop-opacity:0.4"/>
		<stop  offset="1" style="stop-color:#FFFFFF"/>
	</linearGradient>
	<path style="fill:url(#SVGID_6_);" d="M269.6,65.5H235c0,8.6,7,15.6,15.6,15.6h6.4v6.2c0,8.6,7,15.6,15.6,15.6V68.5
		C272.6,66.8,271.2,65.5,269.6,65.5z"/>
</g>
<g>
</g>
<g>
</g>
<g>
</g>
<g>
</g>
<g>
</g>
<g>
</g>
<g>
</g>
<g>
</g>
<g>
</g>
<g>
</g>
<g>
</g>
<g>
</g>
<g>
</g>
<g>
</g>
<g>
</g>
</svg>
