<?xml version="1.0" standalone="no"?>
<!DOCTYPE svg PUBLIC "-//W3C//DTD SVG 1.1//EN" "http://www.w3.org/Graphics/SVG/1.1/DTD/svg11.dtd" >
<svg xmlns="http://www.w3.org/2000/svg">
<metadata>Generated by IcoMoon</metadata>
<defs>
<font id="icomoon" horiz-adv-x="1024">
<font-face units-per-em="1024" ascent="960" descent="-64" />
<missing-glyph horiz-adv-x="1024" />
<glyph unicode="&#x20;" horiz-adv-x="512" d="" />
<glyph unicode="&#xf100;" glyph-name="App-minimize" d="M822.4-64h-620.8c-112 0-201.6 89.6-201.6 201.6v0 620.8c0 112 89.6 201.6 201.6 201.6v0h617.6c115.2 0 204.8-89.6 204.8-201.6v0-617.6c0-115.2-89.6-204.8-201.6-204.8v0zM201.6 883.2c-67.2 0-124.8-54.4-124.8-124.8v0-617.6c0-67.2 54.4-124.8 124.8-124.8v0h617.6c67.2 0 124.8 54.4 124.8 124.8v0 617.6c0 67.2-54.4 124.8-124.8 124.8v0h-617.6zM265.6 486.4h496v-76.8h-496v76.8z" />
<glyph unicode="&#xf101;" horiz-adv-x="1086" d="M185.863 30.685c-15.234 0.136-28.988 6.365-38.964 16.364l-77.931 77.931c-9.898 9.935-16.017 23.64-16.017 38.774 0 0.752 0.015 1.501 0.045 2.246l-0.003-0.107c0.728 15.483 7.625 29.225 18.269 38.925l0.045 0.040 591.099 531.872c8.989 8.6 14.576 20.692 14.576 34.088 0 3.944-0.484 7.774-1.396 11.436l0.068-0.325c-13.248 50.654-130.143 100.14-200.28 117.674-8.142 2.371-14.055 9.606-14.416 18.274l-0.001 0.040c-0.007 0.188-0.010 0.409-0.010 0.631 0 8.532 5.485 15.784 13.121 18.42l0.137 0.041c320.682 105.205 463.294-184.304 464.463-187.032 1.287-2.184 2.047-4.812 2.047-7.618 0-0.611-0.036-1.213-0.106-1.805l0.007 0.072c0-33.9 4.676-57.279 17.145-67.020 7.863-4.552 17.299-7.239 27.362-7.239 7.556 0 14.759 1.515 21.32 4.257l-0.365-0.135c1.549 0.462 3.328 0.729 5.169 0.729 5.32 0 10.121-2.221 13.527-5.787l0.007-0.007 55.33-56.11c3.571-3.533 5.782-8.434 5.782-13.852 0-3.344-0.842-6.491-2.327-9.241l0.051 0.103c-29.456-53.96-72.676-97.18-125.011-125.822l-1.625-0.814c-2.71-1.519-5.946-2.413-9.392-2.413-5.485 0-10.441 2.267-13.982 5.915l-55.335 55.335c-3.327 3.281-5.403 7.822-5.455 12.849v0.010c0.194 2.303 0.304 4.984 0.304 7.69 0 27.582-11.463 52.487-29.886 70.21l-0.031 0.030c-9.154 4.798-19.997 7.613-31.499 7.613-8.41 0-16.468-1.505-23.92-4.261l0.478 0.155-563.044-565.772c-9.955-10.035-23.723-16.275-38.948-16.365h-0.017zM550.575 915.97c61.954-23.379 146.119-65.072 163.653-122.74 1.909-6.732 3.006-14.462 3.006-22.45 0-24.058-9.956-45.791-25.973-61.303l-0.023-0.022-595.385-531.872c-3.351-2.943-5.455-7.237-5.455-12.023 0-0.020 0-0.040 0-0.060v0.003c-0.013-0.25-0.021-0.542-0.021-0.836 0-4.521 1.791-8.624 4.701-11.638l77.925-77.925c3.007-2.897 7.104-4.682 11.618-4.682 0.162 0 0.324 0.002 0.485 0.007l-0.024-0.001c4.654 0.038 8.887 1.806 12.096 4.691l-0.017-0.015 566.551 568.889c1.684 1.857 3.77 3.317 6.124 4.248l0.111 0.039c12.292 5.057 26.562 7.992 41.517 7.992 19.481 0 37.798-4.981 53.748-13.739l-0.58 0.292c28.643-22.529 46.869-57.187 46.869-96.102 0-1.831-0.040-3.653-0.12-5.465l0.009 0.258 38.965-38.965c37.576 23.066 68.257 53.871 90.505 90.379l0.673 1.189-37.017 37.017c-6.532-1.847-14.034-2.91-21.783-2.91-17.813 0-34.315 5.612-47.835 15.163l0.261-0.175c-20.379 20.023-33.008 47.875-33.008 78.677 0 5.371 0.384 10.653 1.126 15.819l-0.070-0.591c-17.924 31.172-123.909 217.035-352.633 178.849z" />
<glyph unicode="&#xf102;" horiz-adv-x="1086" d="M971.787 108.225l-192.487 191.708c-14.902 14.763-34.521 24.788-56.397 27.613l-0.492 0.052c0.795 3.029 1.251 6.505 1.251 10.089 0 11.243-4.492 21.436-11.779 28.884l-26.879 26.879c-7.597 7.215-17.892 11.653-29.224 11.653s-21.627-4.438-29.242-11.67l0.018 0.017-99.75-99.75c-7.464-7.473-12.079-17.791-12.079-29.187 0-0.013 0-0.026 0-0.038v0.002c-0.008-0.3-0.013-0.654-0.013-1.008 0-11.094 4.636-21.105 12.077-28.201l0.015-0.015 27.275-26.886c7.473-7.466 17.793-12.083 29.191-12.083 3.469 0 6.839 0.428 10.058 1.233l-0.285-0.060c3.973-22.2 14.865-41.365 30.327-55.66l0.066-0.060 191.708-191.318c8.217-8.418 19.677-13.639 32.357-13.639 0.132 0 0.263 0.001 0.394 0.002h-0.020c0.13-0.001 0.283-0.002 0.436-0.002 12.782 0 24.347 5.216 32.68 13.636l0.004 0.004 42.472 43.251 47.927 47.927c8.827 8.456 14.313 20.339 14.313 33.504 0 12.974-5.328 24.703-13.916 33.119l-0.008 0.008zM944.122 69.26l-44.030-44.42-47.927-47.927c-1.441-1.293-3.356-2.084-5.455-2.084s-4.014 0.791-5.463 2.090l0.008-0.007-191.708 191.708c-10.524 10.509-17.034 25.036-17.034 41.082 0 9.149 2.116 17.803 5.886 25.501l-0.151-0.342c1.495 2.693 2.376 5.905 2.376 9.323 0 6.369-3.056 12.023-7.781 15.578l-0.050 0.036c-3.171 2.432-7.194 3.897-11.559 3.897-0.046 0-0.091 0-0.137 0h0.007c-0.066 0.001-0.145 0.001-0.223 0.001-5.293 0-10.061-2.245-13.404-5.835l-0.010-0.011-25.327-21.82-26.886 30.393 103.647 100.14 26.886-30.003-21.82-21.82c-2.907-3.383-4.677-7.817-4.677-12.664s1.77-9.28 4.699-12.689l-0.022 0.026c3.515-4.749 9.097-7.794 15.391-7.794 3.358 0 6.513 0.867 9.255 2.389l-0.098-0.050c7.269 3.49 15.803 5.528 24.813 5.528 16.189 0 30.841-6.582 41.425-17.216l191.71-191.71c0.912-1.172 1.462-2.665 1.462-4.286 0-2.7-1.525-5.043-3.762-6.216l-0.039-0.018z" />
<glyph unicode="&#xf103;" horiz-adv-x="1086" d="M712.67 239.537c-3.573 3.467-8.453 5.605-13.833 5.605s-10.26-2.137-13.838-5.609l0.005 0.005c-3.559-3.531-5.763-8.425-5.763-13.833s2.203-10.301 5.762-13.831l0.001-0.001 172.225-173.005c3.476-3.545 8.29-5.766 13.623-5.845h0.015c5.482 0.014 10.44 2.245 14.027 5.844l0.001 0.001c3.467 3.573 5.605 8.453 5.605 13.833s-2.137 10.26-5.609 13.838l0.005-0.005z" />
<glyph unicode="&#xf104;" horiz-adv-x="1086" d="M207.683 744.134v0c4.601 3.523 7.539 9.019 7.539 15.2 0 2.087-0.335 4.096-0.954 5.976l0.038-0.135-19.482 81.437c-1.241 5.507-4.831 9.992-9.636 12.421l-0.105 0.048-114.167 61.954c-2.646 1.433-5.793 2.276-9.137 2.276-5.418 0-10.319-2.211-13.85-5.781l-19.095-19.095-22.21-22.6c-3.571-3.533-5.782-8.434-5.782-13.852 0-3.344 0.842-6.491 2.327-9.241l-0.051 0.103 59.616-114.167c2.477-4.911 6.962-8.5 12.346-9.718l0.123-0.023 82.606-21.431h4.676c0.066-0.001 0.145-0.001 0.223-0.001 5.293 0 10.061 2.245 13.404 5.835l0.010 0.011 3.896 3.896 178.849-179.239c3.694-3.36 8.617-5.426 14.022-5.455h0.006c5.283 0.052 10.073 2.118 13.649 5.466l-0.011-0.011c3.559 3.531 5.763 8.425 5.763 13.833s-2.203 10.301-5.762 13.831l-0.001 0.001zM155.86 748.030l-62.734 17.145-49.486 91.568 20.651 20.651 91.568-48.706 17.924-63.513z" />
<glyph unicode="&#xf105;" glyph-name="Exclamation-new" d="M512 608c-22.4 0-38.4-19.2-38.4-38.4v-240c0-22.4 16-38.4 38.4-38.4s38.4 19.2 38.4 38.4v240c0 22.4-16 38.4-38.4 38.4zM550.4 169.6c0-22.4-19.2-38.4-38.4-38.4s-38.4 19.2-38.4 38.4 19.2 38.4 38.4 38.4 38.4-16 38.4-38.4zM1004.8 147.2l-428.8 694.4c-35.2 54.4-92.8 54.4-128 0l-428.8-694.4c-44.8-76.8-12.8-134.4 76.8-134.4h828.8c92.8 0 124.8 57.6 80 134.4v0zM937.6 51.2h-851.2c-44.8 0-60.8 32-35.2 67.2l438.4 707.2c12.8 22.4 35.2 22.4 51.2 0l438.4-707.2c16-35.2 0-67.2-41.6-67.2v0z" />
<glyph unicode="&#xf106;" horiz-adv-x="1063" d="M535.565 114.522c-1.073-0.225-2.307-0.353-3.57-0.353s-2.497 0.129-3.688 0.374l0.118-0.020-517.713 229.579c-7.009 2.64-11.904 9.29-11.904 17.083 0 2.33 0.438 4.558 1.235 6.606l-0.043-0.124c2.744 6.29 8.909 10.607 16.082 10.607 2.719 0 5.292-0.62 7.587-1.726l-0.105 0.046 512-224.937 502.003 214.226c2.104 0.939 4.558 1.485 7.141 1.485 9.891 0 17.909-8.018 17.909-17.909 0-7.308-4.378-13.594-10.654-16.379l-0.114-0.045-509.144-217.082c-1.95-0.907-4.233-1.436-6.639-1.436-0.176 0-0.352 0.003-0.527 0.008l0.026-0.001z" />
<glyph unicode="&#xf107;" horiz-adv-x="1063" d="M535.565-64c-1.073-0.225-2.307-0.353-3.57-0.353s-2.497 0.129-3.688 0.374l0.118-0.020-517.713 229.579c-7.009 2.64-11.904 9.29-11.904 17.083 0 2.33 0.438 4.558 1.235 6.606l-0.043-0.124c2.744 6.29 8.909 10.607 16.082 10.607 2.719 0 5.292-0.62 7.587-1.726l-0.105 0.046 512-224.937 502.003 214.226c2.104 0.939 4.558 1.485 7.141 1.485 9.891 0 17.909-8.018 17.909-17.909 0-7.308-4.378-13.594-10.654-16.379l-0.114-0.045-509.144-217.082c-1.95-0.907-4.233-1.436-6.639-1.436-0.176 0-0.352 0.003-0.527 0.008l0.026-0.001z" />
<glyph unicode="&#xf108;" horiz-adv-x="1063" d="M1051.492 545.116l-191.018 74.265c-1.925 0.774-4.158 1.223-6.495 1.223-7.605 0-14.1-4.756-16.672-11.455l-0.041-0.122c-0.71-1.87-1.121-4.032-1.121-6.29 0-7.631 4.694-14.166 11.353-16.874l0.122-0.044 149.958-57.841-462.014-197.802-469.869 207.085 131.749 48.558c6.889 2.7 11.678 9.29 11.678 16.997 0 2.095-0.354 4.108-1.005 5.981l0.039-0.128c-2.56 6.925-9.107 11.773-16.785 11.773-2.176 0-4.261-0.389-6.189-1.102l0.124 0.040-173.523-63.554c-6.759-2.596-11.52-8.922-11.782-16.393l-0.001-0.031c-0.008-0.194-0.012-0.421-0.012-0.65 0-7.218 4.371-13.414 10.609-16.088l0.114-0.043 517.713-228.151c1.073-0.225 2.307-0.353 3.57-0.353s2.497 0.129 3.688 0.374l-0.118-0.020c1.073-0.255 2.305-0.402 3.57-0.402s2.498 0.146 3.679 0.423l-0.109-0.021 509.501 217.796c6.369 2.929 10.712 9.254 10.712 16.594 0 0.066 0 0.131-0.001 0.197v-0.010c-0.040 7.381-4.74 13.654-11.306 16.029l-0.119 0.038z" />
<glyph unicode="&#xf109;" horiz-adv-x="1063" d="M519.855 558.683c3.069-2.601 7.052-4.207 11.409-4.284h0.016c0.067-0.001 0.145-0.001 0.224-0.001 4.312 0 8.245 1.627 11.217 4.3l-0.015-0.014 125.679 101.4c4.072 3.308 6.653 8.315 6.653 13.925 0 9.886-8.014 17.899-17.899 17.899-4.276 0-8.201-1.499-11.28-4.001l0.033 0.026-97.116-78.55s0 1.785 0 2.856v329.908c0 9.859-7.993 17.852-17.852 17.852v0c-9.859 0-17.852-7.993-17.852-17.852v0-329.908s0 0 0-2.142l-92.831 77.835c-3.040 2.477-6.962 3.978-11.234 3.978-5.523 0-10.461-2.508-13.735-6.448l-0.024-0.029c-2.654-3.051-4.271-7.064-4.271-11.455 0-5.443 2.486-10.305 6.384-13.514l0.030-0.024z" />
<glyph unicode="&#xf10a;" glyph-name="JIRA_logo2" horiz-adv-x="2624" d="M1168 713.6h153.6v-732.8h-153.6v732.8zM1878.4-16h169.6l-179.2 252.8c57.6 22.4 96 86.4 96 153.6v185.6c0 83.2-57.6 140.8-140.8 140.8h-400v-732.8h153.6v240h144l156.8-240zM1577.6 579.2h179.2c44.8 0 70.4-25.6 70.4-67.2v-67.2c0-41.6-25.6-92.8-70.4-92.8h-179.2v227.2zM2620.8-16l-217.6 729.6h-208l-217.6-732.8h153.6l169.6 569.6 86.4-288h-86.4l-60.8-128h182.4l44.8-153.6h153.6v3.2zM1056 140.8v576h-153.6v-540.8c0-86.4-38.4-92.8-51.2-96-16-6.4-32-9.6-51.2-12.8l38.4-131.2c243.2 6.4 217.6 204.8 217.6 204.8zM0 713.6c0 0-6.4-150.4 214.4-364.8s246.4-304 233.6-364.8h160c0 0 16 252.8-233.6 428.8 0 0-172.8 153.6-198.4 275.2 0 0-83.2 0-144 48 0-6.4-32 12.8-32-22.4v0zM342.4 368c41.6-28.8 76.8-60.8 108.8-99.2 22.4 22.4 44.8 48 73.6 73.6 220.8 217.6 214.4 371.2 214.4 371.2 0 35.2-32 16-32 16-57.6-48-144-48-144-48-28.8-121.6-198.4-275.2-198.4-275.2-12.8-9.6-22.4-16-32-25.6 6.4-9.6 9.6-12.8 9.6-12.8v0zM339.2 131.2c-35.2 48-73.6 92.8-115.2 134.4-102.4-150.4-96-294.4-96-294.4h160c-6.4 38.4 0 83.2 51.2 160zM288 668.8h160c0 0 19.2 3.2 16-25.6-6.4-38.4-92.8-118.4-92.8-118.4s-64 57.6-89.6 112c-3.2 3.2-12.8 32 6.4 32zM579.2 902.4c38.4 0 70.4-32 70.4-70.4s-32-70.4-70.4-70.4-70.4 32-70.4 70.4 32 70.4 70.4 70.4zM169.6 902.4c38.4 0 70.4-32 70.4-70.4s-32-70.4-70.4-70.4-70.4 32-70.4 70.4 32 70.4 70.4 70.4zM377.6 960c38.4 0 70.4-32 70.4-70.4s-32-70.4-70.4-70.4-70.4 32-70.4 70.4 32 70.4 70.4 70.4z" />
<glyph unicode="&#xf10b;" horiz-adv-x="1211" d="M1178.647 875.301v-282.647h-1178.647v296.922c0 39.019 61.383 70.424 137.041 70.424h957.383c46.573-0.27 84.223-38.087 84.223-84.698 0 0 0-0.001 0-0.001v0z" />
<glyph unicode="&#xf10c;" horiz-adv-x="1211" d="M1142.007 960h-1071.584c-38.894 0-70.424-31.53-70.424-70.424v0-881.249c0-38.894 31.53-70.424 70.424-70.424v0h1071.584c38.275 0.801 68.996 32.017 68.996 70.409 0 0.005 0 0.010 0 0.015v-0.001 881.249c0 0.004 0 0.009 0 0.014 0 38.392-30.721 69.609-68.922 70.408l-0.075 0.001zM1164.848 8.327c-0.261-12.508-10.332-22.579-22.816-22.84h-1071.609c-12.614 0-22.84 10.226-22.84 22.84v553.398h1115.836zM1164.848 611.212h-1117.264v278.364c0 12.614 10.226 22.84 22.84 22.84v0h1071.584c12.508-0.261 22.579-10.332 22.84-22.816v-0.025z" />
<glyph unicode="&#xf10d;" horiz-adv-x="1211" d="M1211.004 889.576v-881.249c0.017-0.571 0.026-1.243 0.026-1.917 0-38.401-30.736-69.624-68.949-70.409l-0.073-0.001h-415.881v1024h415.881c38.275-0.801 68.996-32.017 68.996-70.409 0-0.005 0-0.010 0-0.015v0.001z" />
<glyph unicode="&#xf10e;" horiz-adv-x="1211" d="M1142.007 960h-1071.584c-38.894 0-70.424-31.53-70.424-70.424v0-881.249c0-38.894 31.53-70.424 70.424-70.424v0h1071.584c38.275 0.801 68.996 32.017 68.996 70.409 0 0.005 0 0.010 0 0.015v-0.001 881.249c0 0.004 0 0.009 0 0.014 0 38.392-30.721 69.609-68.922 70.408l-0.075 0.001zM726.126-16.416h-655.703c-0.024 0-0.052 0-0.079 0-12.614 0-22.84 10.226-22.84 22.84 0 0.67 0.029 1.333 0.085 1.989l-0.006-0.085v881.249c0 12.614 10.226 22.84 22.84 22.84v0h655.703zM1163.42 8.327c-0.261-12.508-10.332-22.579-22.816-22.84h-366.895v926.929h368.297c12.508-0.261 22.579-10.332 22.84-22.816v-0.025z" />
<glyph unicode="&#xf10f;" horiz-adv-x="1211" d="M1211.004 570.29v-561.963c0.017-0.571 0.026-1.243 0.026-1.917 0-38.401-30.736-69.624-68.949-70.409l-0.073-0.001h-765.621v634.29z" />
<glyph unicode="&#xf110;" horiz-adv-x="1211" d="M1142.007 960h-1071.584c-38.894 0-70.424-31.53-70.424-70.424v0-881.249c0-38.894 31.53-70.424 70.424-70.424v0h1071.584c38.275 0.801 68.996 32.017 68.996 70.409 0 0.005 0 0.010 0 0.015v-0.001 881.249c0 0.004 0 0.009 0 0.014 0 38.392-30.721 69.609-68.922 70.408l-0.075 0.001zM354.974-16.416h-285.502c-12.234 0.481-21.969 10.516-21.969 22.824 0 0.676 0.029 1.345 0.087 2.006l-0.006-0.086v881.249c0 12.614 10.226 22.84 22.84 22.84v0h285.502zM402.558 912.416h739.45c12.508-0.261 22.579-10.332 22.84-22.816v-297.423h-761.338zM1163.896 8.327c-0.261-12.508-10.332-22.579-22.816-22.84h-738.523v559.108h761.338z" />
<glyph unicode="&#xf111;" horiz-adv-x="1215" d="M890.642 888.558v-300.056h-285.767v347.684h228.614c57.153 0 57.153 0 57.153-47.628z" />
<glyph unicode="&#xf112;" horiz-adv-x="1215" d="M1143.070 960h-1071.628c-38.102 0-71.442-33.34-71.442-71.442v-881.116c0-38.102 33.34-71.442 71.442-71.442h1071.628c38.102 0 71.442 33.34 71.442 71.442v881.116c0 38.102-33.34 71.442-71.442 71.442zM628.688 912.372h233.377v-304.819h-233.377v304.819zM47.628 888.558c0 14.288 9.526 23.814 23.814 23.814h514.381v-304.819h-538.195v281.005zM1166.884 7.442c0-14.288-9.526-23.814-23.814-23.814h-1071.628c-14.288 0-23.814 9.526-23.814 23.814v552.484h1119.256v-552.484zM1166.884 612.316h-261.953v300.056h238.14c14.288 0 23.814-9.526 23.814-23.814v-276.242z" />
<glyph unicode="&#xf113;" horiz-adv-x="1211" d="M1211.004 889.576v-302.156h-605.74v372.58h536.743c38.275-0.801 68.996-32.017 68.996-70.409 0-0.005 0-0.010 0-0.015v0.001z" />
<glyph unicode="&#xf114;" horiz-adv-x="1211" d="M1142.007 960h-1071.584c-38.894 0-70.424-31.53-70.424-70.424v0-881.249c0-38.894 31.53-70.424 70.424-70.424v0h1071.584c38.275 0.801 68.996 32.017 68.996 70.409 0 0.005 0 0.010 0 0.015v-0.001 881.249c0 0.004 0 0.009 0 0.014 0 38.392-30.721 69.609-68.922 70.408l-0.075 0.001zM629.056 912.416h512.952c12.508-0.261 22.579-10.332 22.84-22.816v-280.293h-535.792zM47.584 889.576c0 12.614 10.226 22.84 22.84 22.84v0h511.048v-303.108h-533.888zM1163.42 8.327c-0.261-12.508-10.332-22.579-22.816-22.84h-1070.181c-12.614 0-22.84 10.226-22.84 22.84v553.398h1115.836z" />
<glyph unicode="&#xf115;" horiz-adv-x="1211" d="M362.112 648.327h827.955v-252.669h-827.955v252.669z" />
<glyph unicode="&#xf116;" horiz-adv-x="1211" d="M1142.007 960h-1071.584c-38.894 0-70.424-31.53-70.424-70.424v0-881.249c0-38.894 31.53-70.424 70.424-70.424v0h1071.584c38.275 0.801 68.996 32.017 68.996 70.409 0 0.005 0 0.010 0 0.015v-0.001 881.249c0 0.004 0 0.009 0 0.014 0 38.392-30.721 69.609-68.922 70.408l-0.075 0.001zM47.584 8.327v881.249c0.261 12.508 10.332 22.579 22.816 22.84h1071.609c12.614 0 22.84-10.226 22.84-22.84v0-219.361h-831.762v-686.632h-262.662c-12.69 0.243-22.884 10.587-22.884 23.312 0 0.504 0.016 1.004 0.047 1.499l-0.003-0.068zM1163.42 622.632v-207.941h-782.751v207.941zM1142.007-16.416h-761.338v383.524h782.751v-358.781c0.053-0.582 0.083-1.259 0.083-1.943 0-12.141-9.473-22.070-21.431-22.797l-0.064-0.003z" />
<glyph unicode="&#xf117;" horiz-adv-x="1211" d="M357.829 493.68h829.383v-280.743h-829.383v280.743z" />
<glyph unicode="&#xf118;" horiz-adv-x="1211" d="M1142.007 960h-1071.584c-38.894 0-70.424-31.53-70.424-70.424v0-881.249c0-38.894 31.53-70.424 70.424-70.424v0h1071.584c38.275 0.801 68.996 32.017 68.996 70.409 0 0.005 0 0.010 0 0.015v-0.001 881.249c0 0.004 0 0.009 0 0.014 0 38.392-30.721 69.609-68.922 70.408l-0.075 0.001zM1142.007-16.416h-1071.584c-12.69 0.243-22.884 10.587-22.884 23.312 0 0.504 0.016 1.004 0.047 1.499l-0.003-0.068v881.249c0.261 12.508 10.332 22.579 22.816 22.84h1071.609c12.614 0 22.84-10.226 22.84-22.84v0-173.204h-831.762v-536.743h830.335v-171.301c0.053-0.582 0.083-1.259 0.083-1.943 0-12.141-9.473-22.070-21.431-22.797l-0.064-0.003zM380.669 471.792h782.751v-244.58h-782.751zM380.669 519.375v149.413h782.751v-149.413z" />
<glyph unicode="&#xf119;" horiz-adv-x="1215" d="M542.958 588.502h442.94v-438.177h-447.702z" />
<glyph unicode="&#xf11a;" horiz-adv-x="1215" d="M1143.070 960h-1071.628c-38.102 0-71.442-33.34-71.442-71.442v-881.116c0-38.102 33.34-71.442 71.442-71.442h1071.628c38.102 0 71.442 33.34 71.442 71.442v881.116c0 38.102-33.34 71.442-71.442 71.442zM1166.884 7.442c0-14.288-9.526-23.814-23.814-23.814h-1071.628c-14.288 0-23.814 9.526-23.814 23.814v881.116c0 14.288 9.526 23.814 23.814 23.814h1071.628c14.288 0 23.814-9.526 23.814-23.814v-881.116zM523.907 126.512h485.805v485.805h-485.805v-485.805zM571.535 564.688h395.312v-395.312h-395.312v395.312zM623.926 688.521c19.051 0 38.102 19.051 38.102 38.102s-14.288 42.865-38.102 38.102c-19.051 0-38.102-19.051-38.102-38.102s19.051-38.102 38.102-38.102v0zM766.809 688.521c19.051 0 38.102 19.051 38.102 38.102s-14.288 42.865-38.102 38.102c-19.051 0-38.102-19.051-38.102-38.102s19.051-38.102 38.102-38.102v0zM909.693 688.521c19.051 0 38.102 19.051 38.102 38.102s-19.051 38.102-38.102 38.102c-19.051 0-38.102-19.051-38.102-38.102v0c0-19.051 19.051-38.102 38.102-38.102z" />
<glyph unicode="&#xf11b;" horiz-adv-x="1211" d="M505.814 743.494v-640h-17.606v35.688h-207.941c-23.075 0.764-41.585 19.274-42.348 42.278l-0.002 0.071v532.937c-0.001 0.085-0.001 0.185-0.001 0.285 0 11.137 4.348 21.259 11.44 28.761l-0.019-0.020z" />
<glyph unicode="&#xf11c;" horiz-adv-x="1211" d="M1142.007 960h-1071.584c-38.894 0-70.424-31.53-70.424-70.424v0-881.249c0-38.894 31.53-70.424 70.424-70.424v0h1071.584c38.173 1.057 68.745 32.129 68.996 70.4v881.273c-0.251 38.295-30.824 69.367-68.898 70.422l-0.098 0.002zM488.208-16.416h-417.784c-0.024 0-0.052 0-0.079 0-12.614 0-22.84 10.226-22.84 22.84 0 0.67 0.029 1.333 0.085 1.989l-0.006-0.085v881.249c0 12.614 10.226 22.84 22.84 22.84v0h417.784v-154.171h-207.941c-0.070 0-0.152 0.001-0.235 0.001-12.82 0-24.31-5.697-32.076-14.697l-0.046-0.055c-6.236-7.268-10.033-16.788-10.033-27.195 0-0.644 0.015-1.285 0.043-1.922l-0.003 0.090v-532.937c0-24.177 19.6-43.777 43.777-43.777v0h207.941zM488.208 185.338h-202.706v523.42h204.134zM1163.42 8.327c-0.261-12.508-10.332-22.579-22.816-22.84h-604.813v926.929h606.216c12.508-0.261 22.579-10.332 22.84-22.816v-0.025z" />
<glyph unicode="&#xf11d;" horiz-adv-x="1152" d="M544 924.8l-528-908.8c-3.2-6.4-6.4-16-6.4-22.4 0-25.6 19.2-44.8 44.8-44.8h1049.6c25.6 0 44.8 19.2 44.8 44.8 0 9.6-3.2 16-6.4 22.4v0l-521.6 908.8c-9.6 12.8-22.4 22.4-38.4 22.4s-32-6.4-38.4-22.4v0 0z" />
<glyph unicode="&#xf11e;" horiz-adv-x="1152" d="M1107.2-64h-1049.6c-32 0-57.6 25.6-57.6 57.6 0 9.6 3.2 19.2 6.4 28.8v0l528 908.8c9.6 16 25.6 28.8 48 28.8s38.4-12.8 48-28.8v0l524.8-908.8c3.2-9.6 6.4-19.2 6.4-28.8 3.2-32-22.4-57.6-54.4-57.6v0 0zM553.6 921.6l-528-912c-3.2-6.4-3.2-9.6-3.2-16 0-19.2 16-35.2 35.2-35.2h1049.6c19.2 0 35.2 16 35.2 35.2 0 6.4-3.2 12.8-3.2 16v0l-528 912c-6.4 9.6-16 16-28.8 16s-25.6-6.4-28.8-16v0 0z" />
<glyph unicode="&#xf11f;" horiz-adv-x="1152" d="M582.4 265.6c-19.2 0-32 16-32 32v0 0 294.4c0 19.2 16 32 32 32s32-16 32-32v0-294.4c0-19.2-12.8-32-32-32 0 0 0 0 0 0v0zM582.4 188.8c-19.2 0-35.2-16-35.2-35.2s16-35.2 35.2-35.2 35.2 16 35.2 35.2v0c0 0 0 0 0 0 0 22.4-16 38.4-35.2 35.2v0 0 0z" />
<glyph unicode="&#xf120;" d="M624 396.8c22.4 0 41.6 19.2 41.6 41.6s-19.2 41.6-41.6 41.6-41.6-19.2-41.6-41.6c0-22.4 19.2-41.6 41.6-41.6zM624 457.6c12.8 0 19.2-9.6 19.2-19.2 0-12.8-9.6-19.2-19.2-19.2s-19.2 9.6-19.2 19.2 6.4 19.2 19.2 19.2z" />
<glyph unicode="&#xf121;" d="M400 396.8c22.4 0 41.6 19.2 41.6 41.6s-19.2 41.6-41.6 41.6-41.6-19.2-41.6-41.6c0-22.4 19.2-41.6 41.6-41.6zM400 457.6c12.8 0 19.2-9.6 19.2-19.2 0-12.8-9.6-19.2-19.2-19.2s-19.2 9.6-19.2 19.2 6.4 19.2 19.2 19.2z" />
<glyph unicode="&#xf122;" d="M515.2 201.6c57.6 0 112 25.6 150.4 64 3.2 3.2 3.2 12.8 0 16s-12.8 3.2-16 0c-35.2-38.4-83.2-60.8-134.4-60.8s-102.4 22.4-137.6 60.8c-3.2 3.2-9.6 3.2-16 0-3.2-3.2-3.2-9.6 0-16 41.6-38.4 96-64 153.6-64z" />
<glyph unicode="&#xf123;" d="M745.6 780.8c-3.2-9.6-9.6-19.2-19.2-25.6 124.8-73.6 208-208 208-364.8 0-230.4-188.8-422.4-422.4-422.4s-422.4 192-422.4 425.6c0 156.8 89.6 297.6 217.6 368-3.2 9.6-6.4 19.2-6.4 32-144-76.8-240-227.2-240-400 0-249.6 201.6-454.4 454.4-454.4s454.4 201.6 454.4 454.4c-3.2 163.2-92.8 307.2-224 387.2z" />
<glyph unicode="&#xf124;" d="M486.4 512c-70.4 51.2-112 124.8-121.6 214.4l-108.8-3.2c-25.6 0-41.6 22.4-22.4 38.4l240 179.2c12.8 9.6 35.2 9.6 44.8 0l246.4-172.8c19.2-12.8 3.2-38.4-22.4-38.4l-112-3.2v-19.2c0-67.2 19.2-185.6 131.2-230.4 9.6-3.2 16-12.8 16-19.2 0-12.8-16-22.4-32-22.4-3.2 3.2-150.4 0-259.2 76.8zM566.4 710.4c0 28.8 3.2 44.8 3.2 44.8 3.2 12.8 16 22.4 32 22.4h64l-169.6 118.4-163.2-121.6h64c19.2 0 32-9.6 32-25.6 3.2-169.6 124.8-230.4 214.4-252.8-64 64-76.8 156.8-76.8 214.4z" />
<glyph unicode="&#xf125;" d="M656 825.6c0-12.8-3.2-25.6-6.4-35.2 147.2-60.8 246.4-208 246.4-377.6 0-230.4-182.4-412.8-412.8-412.8s-406.4 182.4-406.4 412.8c0 172.8 105.6 320 259.2 384-3.2 12.8-3.2 25.6-3.2 38.4-172.8-64-294.4-227.2-294.4-419.2 0-246.4 201.6-448 448-448s448 201.6 448 448c0 182.4-112 342.4-278.4 409.6z" />
<glyph unicode="&#xf126;" d="M288 288v-35.2c0 0 80-70.4 204.8-70.4s204.8 70.4 204.8 70.4v35.2c0 0-80-70.4-204.8-70.4s-204.8 70.4-204.8 70.4z" />
<glyph unicode="&#xf127;" d="M326.4 502.4c19.2 0 35.2 16 35.2 35.2s-16 35.2-35.2 35.2c-19.2 0-35.2-16-35.2-35.2s19.2-35.2 35.2-35.2z" />
<glyph unicode="&#xf128;" d="M649.6 502.4c19.2 0 35.2 16 35.2 35.2s-16 35.2-35.2 35.2c-19.2 0-35.2-16-35.2-35.2s16-35.2 35.2-35.2z" />
<glyph unicode="&#xf129;" d="M467.2 592c-60.8 41.6-92.8 102.4-99.2 176l-89.6-3.2c-22.4 0-35.2 19.2-19.2 32l195.2 147.2c12.8 9.6 28.8 9.6 38.4 0l201.6-140.8c16-12.8 3.2-32-19.2-32l-92.8-3.2v-16c0-54.4 12.8-153.6 105.6-188.8 9.6-3.2 12.8-9.6 12.8-16 0-12.8-12.8-19.2-25.6-19.2 0 3.2-118.4 3.2-208 64zM531.2 755.2c0 22.4 3.2 38.4 3.2 38.4 3.2 9.6 12.8 19.2 25.6 19.2h54.4l-137.6 96-134.4-99.2h54.4c12.8 0 25.6-9.6 25.6-19.2 3.2-140.8 102.4-192 176-208-54.4 51.2-67.2 124.8-67.2 172.8z" />
<glyph unicode="&#xf12a;" glyph-name="sync-after" d="M508.8-60.8c-89.6 0-179.2 25.6-256 70.4-9.6 3.2-12.8 16-9.6 28.8s16 12.8 28.8 9.6v0c92.8-54.4 198.4-73.6 304-60.8 256 38.4 435.2 275.2 396.8 531.2 0 12.8 9.6 19.2 16 25.6 12.8 0 19.2-9.6 25.6-16 38.4-278.4-156.8-537.6-435.2-576-19.2-12.8-44.8-12.8-70.4-12.8zM25.6 358.4c-9.6 0-19.2 9.6-19.2 16-44.8 278.4 150.4 540.8 428.8 582.4 124.8 16 252.8-9.6 355.2-80 9.6-9.6 12.8-19.2 3.2-28.8s-19.2-12.8-25.6-3.2c-217.6 140.8-512 83.2-652.8-137.6-57.6-99.2-83.2-211.2-64-326.4 0-12.8-3.2-19.2-16-25.6v0h-9.6v3.2zM896 928l70.4-224c3.2-12.8-3.2-25.6-16-28.8-3.2 0-9.6 0-12.8 0l-227.2 54.4c-12.8 3.2-19.2 16-16 28.8 0 3.2 3.2 9.6 3.2 12.8l156.8 169.6c9.6 9.6 25.6 9.6 32 0 6.4-6.4 9.6-9.6 9.6-12.8zM99.2 204.8l227.2-54.4c12.8-3.2 19.2-16 16-28.8 0-3.2-3.2-9.6-3.2-12.8l-156.8-169.6c-9.6-9.6-25.6-9.6-32 0-3.2 3.2-3.2 3.2-9.6 9.6l-70.4 224c-3.2 12.8 3.2 25.6 16 28.8 6.4 3.2 9.6 3.2 12.8 3.2v0zM432 272c-3.2 0-12.8 3.2-16 9.6l-144 172.8c-9.6 9.6-3.2 19.2 3.2 28.8s19.2 3.2 28.8-3.2l131.2-156.8 396.8 281.6c9.6 9.6 19.2 3.2 28.8-3.2s3.2-19.2-3.2-28.8v0l-416-294.4c-6.4-3.2-9.6-6.4-9.6-6.4v0z" />
<glyph unicode="&#xf12b;" glyph-name="sync-schedule" d="M508.8-60.8c-89.6 0-179.2 25.6-256 70.4-9.6 3.2-12.8 16-9.6 28.8s16 12.8 28.8 9.6v0c92.8-54.4 198.4-73.6 304-60.8 256 38.4 435.2 275.2 396.8 531.2 0 12.8 9.6 19.2 16 25.6 12.8 0 19.2-9.6 25.6-16 38.4-278.4-156.8-537.6-435.2-576-19.2-12.8-44.8-12.8-70.4-12.8zM25.6 358.4c-9.6 0-19.2 9.6-19.2 16-44.8 278.4 150.4 540.8 428.8 582.4 124.8 16 252.8-9.6 355.2-80 9.6-9.6 12.8-19.2 3.2-28.8s-19.2-12.8-25.6-3.2c-217.6 140.8-512 83.2-652.8-137.6-57.6-99.2-83.2-211.2-64-326.4 0-12.8-3.2-19.2-16-25.6v0h-9.6v3.2zM896 928l70.4-224c3.2-12.8-3.2-25.6-16-28.8-3.2 0-9.6 0-12.8 0l-227.2 54.4c-12.8 3.2-19.2 16-16 28.8 0 3.2 3.2 9.6 3.2 12.8l156.8 169.6c9.6 9.6 25.6 9.6 32 0 6.4-6.4 9.6-9.6 9.6-12.8zM99.2 204.8l227.2-54.4c12.8-3.2 19.2-16 16-28.8 0-3.2-3.2-9.6-3.2-12.8l-156.8-169.6c-9.6-9.6-25.6-9.6-32 0-3.2 3.2-3.2 3.2-9.6 9.6l-70.4 224c-3.2 12.8 3.2 25.6 16 28.8 6.4 3.2 9.6 3.2 12.8 3.2v0zM518.4 156.8c-156.8 0-284.8 128-284.8 284.8s128 284.8 284.8 284.8 284.8-128 284.8-284.8v0c-3.2-156.8-128-284.8-284.8-284.8zM518.4 681.6c-131.2 0-243.2-108.8-243.2-243.2s108.8-243.2 243.2-243.2c131.2 0 243.2 108.8 243.2 243.2v0c-3.2 137.6-112 243.2-243.2 243.2 0 0 0 0 0 0zM656 320c-3.2 0-9.6 0-12.8 3.2l-137.6 96c-9.6 3.2-9.6 12.8-9.6 19.2v112c0 12.8 9.6 19.2 19.2 19.2s19.2-9.6 19.2-19.2v-102.4l128-89.6c9.6-9.6 12.8-19.2 3.2-28.8 3.2-3.2-3.2-9.6-9.6-9.6v0zM588.8 732.8h-128c-12.8 0-19.2 9.6-19.2 19.2s9.6 19.2 19.2 19.2h128c12.8 0 19.2-9.6 19.2-19.2s-9.6-19.2-19.2-19.2z" />
<glyph unicode="&#xf12c;" glyph-name="sync-setting" d="M518.4 342.4c-54.4 0-96 44.8-96 96 0 54.4 44.8 99.2 96 99.2 54.4 0 96-44.8 96-96v0c0-54.4-41.6-99.2-96-99.2zM518.4 496c-28.8 0-54.4-25.6-54.4-54.4s25.6-57.6 54.4-57.6 54.4 25.6 54.4 54.4v0c0 32-25.6 57.6-54.4 57.6zM556.8 150.4h-70.4c-9.6 0-16 3.2-19.2 16l-19.2 60.8c-9.6 3.2-19.2 9.6-28.8 12.8l-54.4-28.8c-9.6-3.2-16-3.2-25.6 3.2l-51.2 51.2c-9.6 9.6-9.6 16-3.2 25.6l28.8 51.2c-3.2 9.6-9.6 19.2-12.8 28.8l-57.6 12.8c-9.6 3.2-16 12.8-16 19.2v70.4c0 9.6 3.2 16 16 19.2l60.8 19.2c3.2 9.6 9.6 19.2 12.8 28.8l-32 51.2c-3.2 9.6 0 19.2 3.2 25.6l51.2 54.4c9.6 3.2 16 3.2 25.6 0l51.2-32c9.6 3.2 19.2 9.6 28.8 12.8l19.2 57.6c3.2 9.6 12.8 16 19.2 16h70.4c9.6 0 16-9.6 19.2-16l16-57.6c12.8-3.2 19.2-9.6 28.8-12.8l54.4 28.8c9.6 3.2 16 3.2 25.6-3.2l51.2-51.2c9.6-9.6 9.6-16 3.2-25.6l-28.8-54.4c3.2-9.6 9.6-19.2 12.8-28.8l57.6-16c9.6-3.2 16-12.8 16-19.2v-70.4c0-9.6-9.6-16-16-19.2l-57.6-16c-3.2-9.6-9.6-19.2-12.8-28.8l28.8-54.4c3.2-9.6 3.2-16-3.2-25.6l-51.2-51.2c-9.6-9.6-16-9.6-25.6-3.2l-51.2 28.8c-9.6-3.2-19.2-9.6-28.8-12.8l-16-57.6c-3.2-3.2-12.8-9.6-19.2-9.6v0zM496 192h41.6l12.8 54.4c0 9.6 9.6 12.8 12.8 12.8 12.8 3.2 28.8 9.6 41.6 16 9.6 3.2 12.8 3.2 19.2 0l51.2-28.8 28.8 28.8-28.8 51.2c-3.2 9.6-3.2 12.8 0 19.2 9.6 12.8 12.8 28.8 16 41.6 0 9.6 9.6 12.8 12.8 12.8l54.4 12.8v41.6l-54.4 16c-9.6 0-12.8 9.6-12.8 12.8-3.2 12.8-9.6 28.8-16 41.6-3.2 9.6-3.2 12.8 0 19.2l28.8 54.4-28.8 28.8-44.8-28.8c-9.6-3.2-12.8-3.2-19.2 0-12.8 9.6-28.8 12.8-41.6 16-9.6 0-12.8 9.6-12.8 12.8l-16 57.6h-41.6l-19.2-51.2c0-9.6-9.6-12.8-12.8-12.8-12.8-3.2-28.8-9.6-41.6-16-9.6-3.2-12.8-3.2-19.2 0l-51.2 25.6-28.8-28.8 28.8-51.2c3.2-9.6 3.2-12.8 0-19.2-9.6-12.8-12.8-28.8-16-41.6 0-9.6-9.6-12.8-12.8-12.8l-54.4-16v-44.8l54.4-12.8c9.6 0 12.8-9.6 12.8-12.8 3.2-12.8 9.6-28.8 16-41.6 3.2-9.6 3.2-12.8 0-19.2l-28.8-51.2 28.8-28.8 51.2 28.8c3.2 3.2 12.8 3.2 19.2 0 12.8-9.6 28.8-12.8 41.6-16 9.6 0 12.8-9.6 12.8-12.8l16-57.6zM784 403.2v0zM508.8-60.8c-89.6 0-179.2 25.6-256 70.4-9.6 3.2-12.8 16-9.6 28.8s16 12.8 28.8 9.6v0c224-131.2 508.8-57.6 643.2 166.4 54.4 92.8 73.6 198.4 57.6 304 0 12.8 9.6 19.2 16 25.6 12.8 0 19.2-9.6 25.6-16 38.4-278.4-156.8-537.6-435.2-576-19.2-12.8-44.8-12.8-70.4-12.8v0zM25.6 358.4c-9.6 0-19.2 9.6-19.2 16-44.8 278.4 147.2 540.8 428.8 582.4 124.8 19.2 252.8-9.6 355.2-80 9.6-9.6 12.8-19.2 3.2-28.8s-19.2-12.8-25.6-3.2c-217.6 140.8-512 83.2-652.8-137.6-57.6-99.2-83.2-211.2-64-326.4 0-12.8-3.2-19.2-16-25.6v0h-9.6v3.2zM896 928l70.4-224c3.2-12.8-3.2-25.6-16-28.8-3.2 0-9.6 0-12.8 0l-227.2 54.4c-12.8 3.2-19.2 16-16 28.8 0 3.2 3.2 9.6 3.2 12.8l156.8 169.6c9.6 9.6 25.6 9.6 32 0 6.4-6.4 9.6-9.6 9.6-12.8zM99.2 204.8l227.2-54.4c12.8-3.2 19.2-16 16-28.8 0-3.2-3.2-9.6-3.2-12.8l-156.8-169.6c-9.6-9.6-25.6-9.6-32 0-3.2 3.2-3.2 3.2-9.6 9.6l-70.4 224c-3.2 12.8 3.2 25.6 16 28.8 6.4 3.2 9.6 3.2 12.8 3.2v0z" />
<glyph unicode="&#xf12d;" glyph-name="sync" d="M32 560c19.2 0 32-16 32-32v-294.4c0-41.6 35.2-76.8 76.8-76.8h710.4l-112 99.2c-3.2 3.2-3.2 3.2-6.4 6.4-9.6 12.8-9.6 35.2 3.2 48 12.8 9.6 35.2 9.6 48-3.2l172.8-156.8 3.2-3.2c12.8-12.8 9.6-35.2-3.2-48l-172.8-153.6-3.2-3.2c-12.8-9.6-35.2-9.6-48 3.2s-9.6 35.2 3.2 48l99.2 92.8h-691.2c-80 0-144 64-144 144v294.4c0 19.2 16 35.2 32 35.2v0 0zM1001.6 316.8c-19.2 0-32 16-32 32v316.8c0 41.6-35.2 76.8-76.8 76.8h-736l115.2-102.4c3.2-3.2 3.2-3.2 6.4-6.4 9.6-12.8 9.6-35.2-3.2-48s-35.2-9.6-48 3.2l-172.8 160c-12.8 12.8-9.6 32 3.2 48l172.8 153.6 3.2 3.2c12.8 9.6 35.2 9.6 48-3.2s9.6-35.2-3.2-48l-105.6-92.8h716.8c80 0 144-64 144-144v-316.8c3.2-19.2-12.8-32-32-32v0z" />
<glyph unicode="&#xf12e;" glyph-name="syncing-new" d="M57.6 329.6c-67.2 246.4 80 505.6 329.6 572.8 134.4 32 272 12.8 384-64l-64-64c-9.6-9.6-9.6-25.6 0-32 3.2-3.2 9.6-3.2 9.6-3.2l230.4-64c12.8-3.2 25.6 3.2 32 16 0 3.2 0 9.6 0 12.8l-57.6 230.4c-3.2 12.8-16 22.4-28.8 16-3.2 0-9.6-3.2-9.6-3.2l-76.8-76.8c-233.6 166.4-550.4 105.6-710.4-128-86.4-124.8-112-281.6-76.8-425.6 0-3.2 3.2-9.6 3.2-9.6 9.6-9.6 22.4-3.2 28.8 3.2s6.4 9.6 6.4 19.2zM873.6 86.4c128 128 179.2 316.8 134.4 492.8-3.2 12.8-16 16-25.6 16s-22.4-16-16-25.6c67.2-249.6-83.2-508.8-332.8-576-128-32-272-12.8-380.8 64l64 64c9.6 9.6 9.6 25.6 0 32-3.2 3.2-9.6 3.2-9.6 3.2l-230.4 64c-12.8 3.2-25.6-6.4-32-16 0-3.2 0-9.6 0-12.8l64-230.4c3.2-12.8 16-22.4 28.8-16 3.2 0 9.6 3.2 9.6 3.2l76.8 76.8c198.4-140.8 473.6-115.2 649.6 60.8v0z" />
<glyph unicode="&#xf12f;" horiz-adv-x="1004" d="M818.343 740.171l-143.367-136.775-68.882 63.279c-2.798 2.261-6.398 3.63-10.318 3.63-9.101 0-16.479-7.378-16.479-16.479 0-4.495 1.8-8.57 4.718-11.543l-0.002 0.003 80.088-73.826c2.879-2.587 6.682-4.197 10.858-4.284h0.018c4.468 0.044 8.52 1.792 11.545 4.623l-0.010-0.009 154.572 147.651c2.622 2.906 4.226 6.776 4.226 11.019 0 9.101-7.378 16.479-16.479 16.479-3.997 0-7.662-1.423-10.515-3.79l0.027 0.022z" />
<glyph unicode="&#xf130;" horiz-adv-x="1004" d="M712.219 960c-160.765-0.188-291.018-130.556-291.018-291.347 0-160.907 130.441-291.347 291.347-291.347s291.347 130.44 291.347 291.347v0c-0.375 160.872-130.779 291.16-291.659 291.347h-0.018zM712.219 410.263c-142.563 0.188-258.060 115.801-258.060 258.389 0 142.705 115.685 258.389 258.389 258.389s258.389-115.685 258.389-258.389v0c-0.188-142.745-115.948-258.389-258.719-258.389 0 0 0 0 0 0v0z" />
<glyph unicode="&#xf131;" horiz-adv-x="1004" d="M758.030 348.303c-9.101 0-16.479-7.378-16.479-16.479v0-327.601c0-0.012 0-0.027 0-0.041 0-18.202-14.756-32.958-32.958-32.958-0.58 0-1.156 0.015-1.728 0.045l0.080-0.003h-641.030c-18.202 0-32.958 14.756-32.958 32.958v0 498.982h360.229c9.101 0 16.479 7.378 16.479 16.479s-7.378 16.479-16.479 16.479v0h-360.229v105.465c-0.026 0.492-0.041 1.068-0.041 1.648 0 18.202 14.756 32.958 32.958 32.958 0.015 0 0.029 0 0.043 0h302.221c9.101 0 16.479 7.378 16.479 16.479v0c0 9.101-7.378 16.479-16.479 16.479v0h-302.223c-36.599-0.921-65.916-30.809-65.916-67.543 0-0.007 0-0.014 0-0.021v0.001-637.405c0-36.404 29.511-65.916 65.916-65.916v0h639.712c0.006 0 0.013 0 0.020 0 36.735 0 66.622 29.317 67.542 65.831l0.002 0.085v329.578c-0.951 7.821-7.261 13.905-15.105 14.498l-0.055 0.003z" />
<glyph unicode="&#xf132;" horiz-adv-x="1004" d="M235.319 622.512c-9.027-0.181-16.298-7.452-16.479-16.462v-0.017c0-9.101 7.378-16.479 16.479-16.479v0h4.944c9.101 0 16.479 7.378 16.479 16.479v0c0 9.101-7.378 16.479-16.479 16.479v0z" />
<glyph unicode="&#xf133;" horiz-adv-x="1004" d="M131.831 622.512c-9.027-0.181-16.298-7.452-16.479-16.462v-0.017c0-9.101 7.378-16.479 16.479-16.479v0h4.944c9.101 0 16.479 7.378 16.479 16.479v0c0 9.101-7.378 16.479-16.479 16.479v0z" />
<glyph unicode="&#xf134;" horiz-adv-x="1004" d="M290.688 110.677c-2.896 0.028-5.615 0.756-8.005 2.023l0.095-0.046-171.051 95.578c-4.953 2.738-8.251 7.93-8.251 13.892 0 0.214 0.004 0.428 0.013 0.64l-0.001-0.030c0 0.021 0 0.046 0 0.071 0 6.275 3.579 11.715 8.808 14.388l0.091 0.042 170.722 87.338c2.201 1.161 4.811 1.843 7.58 1.843 9.118 0 16.509-7.391 16.509-16.509 0-6.349-3.584-11.861-8.839-14.623l-0.090-0.043-143.367-73.496 144.026-80.417c4.866-2.924 8.071-8.174 8.071-14.173 0-9.042-7.282-16.383-16.302-16.478h-0.009z" />
<glyph unicode="&#xf135;" horiz-adv-x="1004" d="M482.503 110.677c-0.068-0.001-0.149-0.002-0.229-0.002-6.068 0-11.37 3.28-14.23 8.163l-0.042 0.078c-1.403 2.344-2.232 5.171-2.232 8.192 0 6.115 3.398 11.436 8.41 14.177l0.084 0.042 144.026 80.417-143.367 73.496c-4.816 2.934-7.983 8.157-7.983 14.12 0 9.101 7.378 16.479 16.479 16.479 2.286 0 4.464-0.466 6.443-1.307l-0.108 0.041 171.051-87.338c5.242-2.836 8.771-8.242 8.898-14.484v-0.017c0.007-0.182 0.012-0.395 0.012-0.61 0-5.962-3.298-11.154-8.17-13.851l-0.081-0.041-171.051-95.578c-2.295-1.221-5.014-1.949-7.901-1.977h-0.009z" />
<glyph unicode="&#xf136;" horiz-adv-x="1004" d="M345.069 110.677c-0.892-0.15-1.919-0.236-2.966-0.236s-2.075 0.086-3.075 0.25l0.109-0.015c-6.188 2.356-10.504 8.239-10.504 15.131 0 2.272 0.469 4.435 1.316 6.397l-0.040-0.105 83.383 210.601c2.412 6.297 8.407 10.687 15.428 10.687 2.157 0 4.218-0.415 6.106-1.168l-0.111 0.039c6.106-2.61 10.306-8.564 10.306-15.5 0-2.128-0.395-4.164-1.117-6.038l0.039 0.115-83.383-210.93c-2.831-5.522-8.485-9.235-15.006-9.235-0.17 0-0.34 0.003-0.509 0.008l0.025-0.001z" />
</font>
</defs>
</svg>
