<?xml version="1.0" standalone="no"?>
<!DOCTYPE svg PUBLIC "-//W3C//DTD SVG 1.1//EN" "http://www.w3.org/Graphics/SVG/1.1/DTD/svg11.dtd" >
<svg xmlns="http://www.w3.org/2000/svg">
<metadata>Generated by IcoMoon</metadata>
<defs>
<font id="icomoon" horiz-adv-x="1024">
<font-face units-per-em="1024" ascent="960" descent="-64" />
<missing-glyph horiz-adv-x="1024" />
<glyph unicode="&#x20;" horiz-adv-x="512" d="" />
<glyph unicode="&#xf600;" glyph-name="integrationPlug" d="M950.656 395.813l-78.986 78.281 144.573 141.047c4.783 4.783 7.741 11.39 7.741 18.689 0 14.597-11.833 26.43-26.43 26.43-7.298 0-13.906-2.958-18.689-7.741v0l-144.573-141.047-258.821 259.526 141.047 144.573c4.828 4.629 7.828 11.132 7.828 18.336s-3 13.707-7.819 18.328l-0.009 0.009c-4.629 4.828-11.132 7.828-18.336 7.828s-13.707-3-18.328-7.819l-0.009-0.009-141.047-144.573-79.691 81.807c-4.671 4.449-11.008 7.187-17.983 7.187s-13.313-2.737-17.994-7.197l0.011 0.010-162.909-164.32c-67.12-67.657-108.599-160.839-108.599-263.709 0-94.12 34.722-180.129 92.056-245.918l-0.382 0.448-235.548-234.843c-4.866-4.744-7.883-11.364-7.883-18.689s3.018-13.944 7.878-18.683l0.005-0.005c4.71-4.654 11.187-7.528 18.336-7.528s13.626 2.875 18.339 7.531l-0.003-0.003 237.664 235.548c65.235-56.905 151.128-91.602 245.124-91.602 103.094 0 196.439 41.738 264.060 109.238l161.494 161.494c4.457 4.57 7.206 10.824 7.206 17.719 0 7.905-3.613 14.967-9.278 19.623l-0.044 0.035zM751.78 233.609c-57.277-53.493-134.434-86.337-219.262-86.337-177.607 0-321.587 143.979-321.587 321.587 0 85.004 32.98 162.305 86.843 219.805l-0.165-0.178 141.047 141.047 454.171-454.876z" />
<glyph unicode="&#xf601;" glyph-name="accounts-new3" horiz-adv-x="1824" d="M1830.4 96c0 9.6 0 9.6 0 0 0 160-105.6 284.8-246.4 323.2 57.6 38.4 105.6 105.6 105.6 179.2v0c0 115.2-96 208-208 208s-208-96-208-208c0-76.8 38.4-140.8 105.6-179.2-48-9.6-96-38.4-131.2-67.2-48 48-115.2 86.4-188.8 105.6 86.4 48 131.2 131.2 131.2 227.2v0c0 140.8-124.8 265.6-265.6 265.6-150.4 9.6-275.2-115.2-265.6-256 0-96 57.6-179.2 131.2-227.2-76.8-19.2-131.2-57.6-188.8-105.6-38.4 28.8-86.4 48-131.2 57.6 67.2 38.4 105.6 105.6 105.6 188.8v0c0 115.2-96 208-208 208s-208-96-208-208c0-76.8 48-140.8 105.6-179.2-160-48-265.6-169.6-265.6-332.8 0-54.4 38.4-64 48-64h406.4c0-38.4 0-96 48-96h816c48 0 48 57.6 48 96h406.4c0 0 0 0 9.6 0 28.8 9.6 48 35.2 48 64v0zM1468.8 723.2v0c67.2 0 115.2-57.6 115.2-115.2v0c0-67.2-57.6-115.2-115.2-115.2-67.2 0-115.2 57.6-115.2 115.2-6.4 57.6 51.2 115.2 115.2 115.2zM908.8 864c96 0 169.6-76.8 169.6-169.6v0c0-96-76.8-169.6-169.6-169.6s-169.6 76.8-169.6 169.6c9.6 96 86.4 169.6 169.6 169.6zM361.6 723.2v0c67.2 0 115.2-57.6 115.2-115.2v0c0-67.2-57.6-124.8-115.2-124.8-67.2 0-124.8 57.6-124.8 124.8 9.6 57.6 57.6 115.2 124.8 115.2zM96 124.8c19.2 131.2 131.2 227.2 265.6 217.6 67.2 0 124.8-19.2 179.2-48v0c-9.6-19.2-19.2-38.4-28.8-57.6-9.6-9.6-19.2-19.2-19.2-28.8-9.6-28.8-19.2-57.6-28.8-86.4l-368 3.2zM579.2 32h-28.8c0 198.4 160 361.6 361.6 361.6s358.4-163.2 368-361.6c0 0-700.8 0-700.8 0zM1356.8 124.8c-9.6 28.8-19.2 67.2-28.8 96-9.6 19.2-19.2 48-38.4 67.2v0c0 0 0 0 0 9.6 57.6 38.4 131.2 57.6 198.4 48 124.8 0 227.2-96 246.4-217.6l-377.6-3.2z" />
<glyph unicode="&#xf602;" glyph-name="active-user" d="M92.8 0c-16 0-28.8 12.8-28.8 28.8v51.2c57.6 115.2 134.4 150.4 153.6 156.8h54.4c83.2 0 153.6 67.2 153.6 153.6v51.2l-9.6 6.4c-22.4 25.6-38.4 54.4-48 89.6-3.2 6.4-6.4 22.4-19.2 32-12.8 12.8-19.2 35.2-6.4 54.4 3.2 6.4 9.6 16 9.6 28.8v41.6c0 22.4 0 44.8 0 67.2 0 32 9.6 57.6 22.4 80 16 22.4 41.6 38.4 73.6 48 35.2 9.6 76.8 9.6 115.2 3.2 22.4-3.2 51.2-12.8 73.6-38.4 22.4-22.4 32-57.6 35.2-96 0-25.6 0-48 0-73.6v-28.8c0-16 6.4-25.6 12.8-32 9.6-16 6.4-38.4-6.4-51.2-6.4-3.2-16-12.8-16-25.6-12.8-38.4-28.8-70.4-51.2-96l-6.4-9.6v-51.2c0-32 9.6-60.8 25.6-86.4 12.8 16 28.8 32 48 44.8-6.4 12.8-9.6 25.6-9.6 41.6v25.6c22.4 28.8 41.6 64 54.4 105.6l6.4 3.2c32 32 38.4 89.6 16 128 0 0 0 3.2-3.2 3.2v25.6c0 25.6 0 48 0 73.6-6.4 57.6-25.6 108.8-57.6 140.8-25.6 28.8-64 48-108.8 57.6-48 9.6-99.2 9.6-144-3.2s-86.4-38.4-112-76.8c-19.2-28.8-32-67.2-32-112 0-22.4 0-44.8 0-70.4v-35.2c-3.2 0-6.4-3.2-6.4-6.4-22.4-41.6-12.8-96 22.4-128l3.2-6.4c9.6-35.2 28.8-67.2 51.2-99.2v-28.8c0-48-38.4-89.6-89.6-89.6h-67.2c-6.4 0-124.8-35.2-201.6-198.4v-70.4c0-51.2 41.6-92.8 92.8-92.8h521.6c-19.2 19.2-35.2 41.6-48 64 0 0-473.6 0-473.6 0zM1014.4 374.4c-12.8 12.8-28.8 12.8-41.6 0l-304-307.2-121.6 121.6c-12.8 12.8-32 12.8-41.6 0-12.8-12.8-12.8-32 0-41.6l140.8-140.8c6.4-6.4 12.8-9.6 19.2-9.6s16 3.2 19.2 9.6l323.2 326.4c19.2 12.8 19.2 32 6.4 41.6 0 0 0 0 0 0z" />
<glyph unicode="&#xf603;" horiz-adv-x="1280" d="M444.8 182.4c-16 0-25.6 6.4-35.2 16l-86.4 86.4c-19.2 19.2-19.2 51.2 0 70.4s51.2 19.2 70.4 0l51.2-51.2 182.4 182.4c19.2 19.2 54.4 16 70.4-6.4s16-44.8 0-64l-217.6-224c-9.6-3.2-22.4-9.6-35.2-9.6v0z" />
<glyph unicode="&#xf604;" horiz-adv-x="1280" d="M752 38.4h-691.2c-6.4 0-9.6 6.4-9.6 9.6 0 0 0 0 0 6.4v563.2h988.8v204.8c0 35.2-25.6 60.8-60.8 60.8v0h-176v22.4c0 28.8-25.6 54.4-54.4 54.4h-19.2c-32 0-57.6-25.6-57.6-54.4v-86.4c0-28.8 25.6-54.4 54.4-54.4h19.2c28.8 0 54.4 25.6 54.4 54.4v16h176c6.4 0 9.6-6.4 9.6-9.6v-156.8h-934.4v153.6c0 6.4 6.4 9.6 9.6 9.6v0h185.6v-16c0-28.8 25.6-54.4 54.4-54.4h19.2c32-3.2 57.6 22.4 64 51.2 0 0 0 0 0 6.4v86.4c0 28.8-25.6 54.4-57.6 54.4v0h-22.4c-32 0-57.6-25.6-57.6-54.4v-19.2h-185.6c-35.2-3.2-60.8-28.8-60.8-64v0-771.2c0-35.2 25.6-60.8 60.8-60.8h684.8c16 0 25.6 9.6 25.6 25.6s-9.6 25.6-19.2 22.4c0 0 0 0 0 0zM752 819.2c0-6.4 0-6.4-6.4-6.4h-19.2c-6.4 0-6.4 0-6.4 6.4v86.4c0 6.4 0 6.4 6.4 6.4v0h19.2c6.4 0 6.4 0 6.4-6.4v-86.4zM297.6 905.6l6.4 6.4h19.2c6.4 0 6.4 0 6.4-6.4v0-86.4c0-6.4 0-6.4-6.4-6.4v0h-19.2c-6.4 0-6.4 0-6.4 6.4v0 86.4zM448 883.2h156.8v-51.2h-156.8v51.2zM1040 467.2v19.2h25.6c6.4 0 9.6 6.4 9.6 9.6v60.8c0 6.4-6.4 9.6-9.6 9.6h-102.4c-6.4 0-9.6-6.4-9.6-9.6v-60.8c0-6.4 6.4-9.6 9.6-9.6h25.6v-16c-147.2-16-256-147.2-243.2-291.2s147.2-256 291.2-243.2 256 147.2 243.2 291.2c-12.8 128-115.2 227.2-240 240v0 0zM979.2 540.8h76.8v-28.8h-76.8v28.8zM1014.4-12.8c-121.6 0-217.6 96-217.6 217.6s96 217.6 217.6 217.6 217.6-96 217.6-217.6-96-217.6-217.6-217.6v0c0 0 0 0 0 0zM1104 310.4l-60.8-64c-9.6 9.6-19.2 9.6-28.8 9.6-28.8 0-51.2-19.2-51.2-51.2s19.2-51.2 51.2-51.2 51.2 19.2 51.2 51.2c0 9.6 0 16-6.4 25.6l64 64c6.4 6.4 6.4 9.6 0 19.2s-9.6 6.4-19.2-3.2c6.4 3.2 6.4 3.2 0 0v0 0z" />
<glyph unicode="&#xf605;" glyph-name="add-agent" d="M92.8 0c-16 0-28.8 12.8-28.8 28.8v51.2c57.6 115.2 134.4 150.4 153.6 156.8h54.4c83.2 0 153.6 67.2 153.6 153.6v51.2l-9.6 6.4c-22.4 25.6-38.4 54.4-48 89.6-3.2 6.4-6.4 22.4-19.2 32-12.8 12.8-19.2 35.2-6.4 54.4 3.2 3.2 9.6 16 9.6 28.8v38.4c0 22.4 0 44.8 0 67.2 0 32 9.6 57.6 22.4 80 16 22.4 41.6 41.6 73.6 51.2 35.2 9.6 76.8 9.6 115.2 3.2 22.4-3.2 51.2-12.8 73.6-38.4 22.4-22.4 32-57.6 35.2-96 0-25.6 0-48 0-73.6v-28.8c0-16 6.4-25.6 12.8-32 9.6-16 6.4-38.4-6.4-51.2-6.4-3.2-16-12.8-16-25.6-12.8-38.4-28.8-70.4-51.2-96l-6.4-9.6v-51.2c0-32 9.6-60.8 25.6-86.4 12.8 16 28.8 32 48 44.8-6.4 12.8-9.6 25.6-9.6 41.6v25.6c22.4 28.8 41.6 64 54.4 105.6l6.4 3.2c32 32 38.4 89.6 16 128 0 0 0 3.2-3.2 3.2v25.6c0 25.6 0 48 0 73.6-6.4 57.6-25.6 108.8-57.6 140.8-25.6 28.8-64 48-108.8 57.6-48 9.6-99.2 9.6-144-3.2s-86.4-38.4-112-76.8c-19.2-28.8-32-67.2-32-112 0-22.4 0-44.8 0-70.4v-35.2c-3.2 0-6.4-3.2-6.4-6.4-22.4-41.6-12.8-96 22.4-128l3.2-6.4c12.8-35.2 28.8-67.2 51.2-99.2v-28.8c0-48-38.4-89.6-89.6-89.6h-67.2c-6.4 0-124.8-35.2-201.6-198.4v-70.4c0-51.2 41.6-92.8 92.8-92.8h553.6c-19.2 19.2-35.2 41.6-48 64h-505.6zM796.8 134.4h-140.8v51.2h140.8v140.8h51.2v-140.8h140.8v-51.2h-140.8v-140.8h-51.2v140.8z" />
<glyph unicode="&#xf606;" glyph-name="advancesearch" horiz-adv-x="864" d="M700.8 800h-118.4v121.6c0 16-12.8 28.8-28.8 28.8s-28.8-12.8-28.8-28.8v-121.6h-118.4c-16 0-28.8-12.8-28.8-28.8s12.8-28.8 28.8-28.8h118.4v-118.4c0-16 12.8-28.8 28.8-28.8s28.8 12.8 28.8 28.8v118.4h118.4c16 0 28.8 12.8 28.8 28.8s-19.2 28.8-28.8 28.8zM774.4 32c-6.4-6.4-12.8-6.4-22.4-6.4-6.4 0-16 0-22.4 6.4l-262.4 268.8c-51.2-38.4-115.2-64-182.4-64-153.6-6.4-284.8 124.8-284.8 284.8s131.2 291.2 291.2 291.2c16 0 28.8-12.8 28.8-28.8s-12.8-28.8-28.8-28.8c-124.8 0-233.6-108.8-233.6-233.6s102.4-233.6 233.6-233.6 233.6 102.4 233.6 233.6c0 16 12.8 28.8 28.8 28.8s28.8-12.8 28.8-28.8c0-67.2-28.8-131.2-67.2-182.4l262.4-268.8c6.4-9.6 6.4-25.6-3.2-38.4v0z" />
<glyph unicode="&#xf607;" glyph-name="agent-new2" horiz-adv-x="992" d="M204.8-64h-112c-54.4 0-92.8 38.4-92.8 92.8v838.4c0 54.4 38.4 92.8 92.8 92.8h112c54.4 0 92.8-38.4 92.8-92.8v-838.4c0-54.4-44.8-92.8-92.8-92.8zM204.8 28.8v0 0zM204.8 867.2h-112v-838.4h112c0 0 0 838.4 0 838.4zM566.4 867.2v-92.8c28.8 28.8 54.4 48 92.8 54.4v38.4c0 54.4-38.4 92.8-92.8 92.8h-102.4c-54.4 0-92.8-38.4-92.8-92.8v-614.4c19.2 48 54.4 92.8 92.8 131.2v483.2c0 0 102.4 0 102.4 0zM892.8-64h-390.4c-54.4 0-92.8 38.4-92.8 92.8v64c0 166.4 140.8 297.6 297.6 297.6s278.4-121.6 278.4-278.4v-83.2c0-54.4-35.2-92.8-92.8-92.8 0 0 0 0 0 0zM707.2 307.2c-121.6 0-214.4-92.8-214.4-204.8v-73.6h390.4v83.2c9.6 102.4-64 185.6-176 195.2v0c0 0 0 0 0 0zM697.6 438.4c-92.8 0-166.4 73.6-166.4 166.4s73.6 166.4 166.4 166.4 166.4-73.6 166.4-166.4c-6.4-92.8-83.2-166.4-166.4-166.4zM697.6 672c-48 0-73.6-28.8-73.6-73.6 0-38.4 28.8-73.6 73.6-73.6 38.4 0 73.6 28.8 73.6 73.6-6.4 44.8-35.2 73.6-73.6 73.6v0z" />
<glyph unicode="&#xf608;" glyph-name="approval" horiz-adv-x="1152" d="M528-6.4h-377.6c-83.2 0-150.4 70.4-150.4 153.6v662.4c0 83.2 67.2 150.4 150.4 150.4h659.2c83.2 0 150.4-67.2 150.4-150.4v-217.6c0-9.6-6.4-19.2-19.2-19.2s-19.2 6.4-19.2 19.2v217.6c0 64-51.2 115.2-115.2 115.2h-652.8c-60.8 0-115.2-51.2-115.2-115.2v-662.4c0-64 51.2-115.2 115.2-115.2h377.6c9.6-3.2 16-16 9.6-22.4 0-12.8-9.6-16-12.8-16v0zM873.6-64c-156.8 0-284.8 128-284.8 284.8s128 284.8 284.8 284.8c156.8 0 284.8-128 284.8-284.8v0c0-156.8-128-284.8-284.8-284.8zM873.6 467.2c-137.6 0-249.6-112-249.6-249.6s112-249.6 249.6-249.6 249.6 112 249.6 249.6v0c0 137.6-108.8 249.6-249.6 249.6 3.2 0 0 0 0 0s0 0 0 0zM560 409.6h-294.4c-9.6 0-19.2 6.4-19.2 19.2s6.4 19.2 19.2 19.2h297.6c9.6 0 19.2-6.4 19.2-19.2s-9.6-19.2-22.4-19.2zM684.8 627.2h-419.2c-9.6 0-19.2 6.4-19.2 19.2s6.4 19.2 19.2 19.2h419.2c9.6 0 19.2-6.4 19.2-19.2s-9.6-19.2-19.2-19.2zM854.4 124.8c-3.2 0-6.4 0-9.6 3.2l-105.6 76.8c-6.4 6.4-9.6 19.2-3.2 25.6s19.2 9.6 25.6 3.2v0l92.8-67.2 147.2 140.8c6.4 6.4 19.2 6.4 25.6 0s6.4-19.2 0-25.6v0l-160-150.4c-6.4-3.2-9.6-6.4-12.8-6.4v0z" />
<glyph unicode="&#xf609;" glyph-name="approval3" horiz-adv-x="1216" d="M601.6-32h-416c-96-6.4-179.2 70.4-185.6 166.4v659.2c6.4 96 89.6 172.8 185.6 166.4h684.8c96 6.4 179.2-70.4 185.6-166.4v-172.8c0-19.2-12.8-32-32-32s-32 12.8-32 32v172.8c-6.4 64-57.6 108.8-121.6 102.4h-684.8c-64 6.4-115.2-38.4-121.6-102.4v-659.2c6.4-64 57.6-108.8 121.6-102.4h416c19.2 0 32-12.8 32-32s-19.2-32-32-32zM563.2 428.8h-268.8c-19.2 0-32 12.8-32 32s12.8 32 32 32h268.8c19.2 0 32-12.8 32-32s-19.2-32-32-32zM736 652.8h-448c-19.2 0-32 12.8-32 32s12.8 32 32 32h448c19.2 0 32-12.8 32-32s-12.8-32-32-32zM883.2 121.6c-6.4 0-12.8 0-19.2 6.4l-115.2 83.2c-12.8 12.8-19.2 32-6.4 44.8s25.6 19.2 44.8 6.4l96-70.4 153.6 147.2c12.8 12.8 32 12.8 44.8 0s12.8-32 0-44.8c0 0 0 0-6.4 0l-172.8-166.4c-6.4-6.4-12.8-6.4-19.2-6.4zM902.4-64c-166.4 6.4-300.8 147.2-294.4 313.6s147.2 300.8 313.6 294.4 294.4-140.8 294.4-307.2c-6.4-166.4-147.2-307.2-313.6-300.8zM902.4 480c-134.4-6.4-236.8-115.2-230.4-249.6s115.2-236.8 249.6-230.4c128 6.4 230.4 108.8 230.4 243.2-6.4 128-115.2 236.8-249.6 236.8z" />
<glyph unicode="&#xf60a;" glyph-name="arrow-down" d="M512 873.6c12.8 0 22.4-3.2 28.8-12.8s12.8-19.2 12.8-28.8v-665.6l227.2 227.2c9.6 9.6 19.2 12.8 28.8 12.8 12.8 0 22.4-3.2 32-12.8s12.8-19.2 12.8-32c0-12.8-3.2-22.4-12.8-28.8l-297.6-297.6c-9.6-9.6-19.2-12.8-28.8-12.8-12.8 0-22.4 3.2-28.8 12.8l-297.6 297.6c-9.6 9.6-12.8 19.2-12.8 28.8 0 12.8 3.2 22.4 12.8 32s19.2 12.8 32 12.8c12.8 0 22.4-3.2 28.8-12.8l227.2-227.2v665.6c0 12.8 3.2 22.4 12.8 28.8 0 9.6 9.6 12.8 22.4 12.8v0z" />
<glyph unicode="&#xf60b;" glyph-name="arrow-right" d="M598.4 790.4c12.8 0 22.4-3.2 28.8-12.8l297.6-297.6c9.6-9.6 12.8-19.2 12.8-28.8 0-12.8-3.2-22.4-12.8-28.8l-297.6-297.6c-9.6-9.6-19.2-12.8-28.8-12.8-12.8 0-22.4 3.2-32 12.8s-12.8 19.2-12.8 32c0 12.8 3.2 22.4 12.8 28.8l227.2 227.2h-665.6c-12.8 0-22.4 3.2-28.8 12.8s-12.8 9.6-12.8 22.4c0 12.8 3.2 22.4 12.8 28.8 9.6 9.6 19.2 12.8 28.8 12.8h665.6l-227.2 227.2c-9.6 9.6-12.8 19.2-12.8 28.8 0 12.8 3.2 22.4 12.8 32s19.2 12.8 32 12.8v0z" />
<glyph unicode="&#xf60c;" glyph-name="arrow-t-left" d="M380.8 259.2c6.4 6.4 6.4 16 0 22.4l-134.4 147.2h569.6c9.6 0 16 6.4 16 16s-6.4 16-16 16h-569.6l131.2 147.2c6.4 6.4 6.4 16 0 22.4s-16 6.4-22.4 0c0 0-156.8-172.8-160-176s-3.2 0-3.2-6.4c0-6.4 3.2-9.6 6.4-12.8s160-176 160-176c3.2-3.2 6.4-3.2 12.8-3.2s6.4 0 9.6 3.2z" />
<glyph unicode="&#xf60d;" glyph-name="arrow-up" d="M512 873.6c12.8 0 22.4-3.2 28.8-12.8l297.6-297.6c9.6-9.6 12.8-19.2 12.8-28.8 0-12.8-3.2-22.4-12.8-32s-19.2-12.8-32-12.8c-12.8 0-22.4 3.2-28.8 12.8l-227.2 227.2v-665.6c0-12.8-3.2-22.4-12.8-28.8s-19.2-12.8-28.8-12.8c-12.8 0-22.4 3.2-28.8 12.8-9.6 9.6-12.8 19.2-12.8 28.8v665.6l-227.2-227.2c-9.6-9.6-19.2-12.8-28.8-12.8-12.8 0-22.4 3.2-32 12.8s-12.8 19.2-12.8 32c0 12.8 3.2 22.4 12.8 28.8l297.6 297.6c12.8 9.6 22.4 12.8 35.2 12.8v0z" />
<glyph unicode="&#xf60e;" glyph-name="articles-new3" horiz-adv-x="800" d="M697.6 960h-604.8c-54.4 0-92.8-38.4-92.8-92.8v-838.4c0-54.4 38.4-92.8 92.8-92.8h604.8c54.4 0 92.8 38.4 92.8 92.8v838.4c0 54.4-35.2 92.8-92.8 92.8zM697.6 28.8h-604.8v838.4h361.6v-419.2l73.6 112h9.6l73.6-112v419.2h83.2l3.2-838.4zM112 604.8c0 28.8 19.2 48 48 48h185.6c28.8 0 48-19.2 48-48s-19.2-48-48-48h-188.8c-16 3.2-44.8 22.4-44.8 48zM112 419.2c0 28.8 19.2 48 48 48h185.6c28.8 0 48-19.2 48-48s-19.2-48-48-48h-188.8c-16 3.2-44.8 22.4-44.8 48zM624 281.6c28.8 0 48-19.2 48-48s-19.2-48-48-48h-467.2c-28.8 0-48 19.2-48 48s19.2 48 48 48h467.2z" />
<glyph unicode="&#xf60f;" glyph-name="ascend" d="M988.8 25.6h-492.8c-19.2 0-35.2-16-35.2-35.2s16-35.2 35.2-35.2h492.8c19.2 0 35.2 16 35.2 35.2s-16 35.2-35.2 35.2zM553.6 598.4c12.8 12.8 12.8 35.2 0 51.2l-243.2 281.6c-9.6 9.6-19.2 12.8-28.8 9.6-9.6 3.2-19.2 0-25.6-9.6l-246.4-281.6c-12.8-12.8-12.8-35.2 0-51.2s35.2-12.8 51.2 0l185.6 214.4v-860.8h70.4v860.8l185.6-214.4c16-12.8 38.4-12.8 51.2 0zM566.4 800h422.4c19.2 0 35.2 19.2 35.2 38.4s-16 35.2-35.2 35.2h-422.4c-19.2 0-35.2-16-35.2-35.2s16-38.4 35.2-38.4zM988.8 236.8h-492.8c-19.2 0-35.2-16-35.2-35.2s16-35.2 35.2-35.2h492.8c19.2 0 35.2 16 35.2 35.2s-16 35.2-35.2 35.2zM988.8 448h-492.8c-19.2 0-35.2-16-35.2-35.2s16-35.2 35.2-35.2h492.8c19.2 0 35.2 16 35.2 35.2s-16 35.2-35.2 35.2zM988.8 659.2h-281.6c-19.2 0-35.2-16-35.2-35.2s16-35.2 35.2-35.2h281.6c19.2 0 35.2 16 35.2 35.2s-16 35.2-35.2 35.2z" />
<glyph unicode="&#xf610;" glyph-name="attachment5" d="M288-54.4c-67.2 0-128 28.8-172.8 73.6-89.6 89.6-112 243.2 9.6 364.8 70.4 73.6 355.2 361.6 499.2 505.6 51.2 51.2 115.2 70.4 176 54.4s108.8-67.2 124.8-128c16-64-3.2-128-54.4-179.2l-473.6-483.2c-28.8-28.8-57.6-44.8-89.6-48s-60.8 6.4-80 28.8c-38.4 38.4-41.6 108.8 19.2 169.6l336 339.2c12.8 12.8 35.2 12.8 51.2 0s12.8-35.2 0-51.2l-339.2-339.2c-28.8-28.8-32-57.6-19.2-70.4 6.4-6.4 12.8-6.4 22.4-6.4 16 0 32 9.6 48 25.6l476.8 486.4c32 32 44.8 73.6 35.2 108.8-9.6 38.4-38.4 67.2-76.8 76.8s-76.8-3.2-108.8-35.2c-140.8-144-425.6-432-499.2-505.6-92.8-92.8-70.4-201.6-9.6-262.4s166.4-83.2 259.2 9.6l499.2 505.6c12.8 12.8 35.2 12.8 51.2 0s12.8-35.2 0-51.2l-499.2-502.4c-57.6-60.8-124.8-86.4-185.6-86.4v0z" />
<glyph unicode="&#xf611;" glyph-name="back" d="M374.4 448l422.4 422.4c9.6 9.6 9.6 25.6 0 35.2l-48 48c-3.2 3.2-9.6 6.4-16 6.4s-12.8-3.2-16-6.4l-489.6-489.6c-9.6-9.6-9.6-25.6 0-35.2l486.4-486.4c3.2-3.2 9.6-6.4 16-6.4s12.8 3.2 16 6.4l48 48c9.6 9.6 9.6 25.6 0 35.2 3.2 0-419.2 422.4-419.2 422.4z" />
<glyph unicode="&#xf612;" glyph-name="back2" d="M828.8 841.6l-121.6 118.4-512-512 512-512 118.4 118.4-390.4 393.6 393.6 393.6z" />
<glyph unicode="&#xf613;" glyph-name="bell3" d="M764.8 508.8c0 195.2-105.6 262.4-204.8 275.2 0 0 0 3.2 0 3.2 0 25.6-22.4 44.8-48 44.8s-48-19.2-48-44.8c0 0 0-3.2 0-3.2-99.2-16-204.8-80-204.8-275.2 0-227.2-54.4-252.8-131.2-316.8h768c-76.8 64-131.2 89.6-131.2 316.8v0zM214.4 224c16 19.2 32 35.2 44.8 64 25.6 51.2 35.2 118.4 35.2 220.8 0 92.8 25.6 160 73.6 201.6 48 38.4 105.6 48 144 48s99.2-6.4 144-48c48-41.6 73.6-108.8 73.6-201.6 0-166.4 28.8-233.6 80-284.8h-595.2zM512 64c54.4 0 96 38.4 102.4 86.4h-208c9.6-48 51.2-86.4 105.6-86.4z" />
<glyph unicode="&#xf614;" glyph-name="Block-down-arrow" d="M0 704h1024l-512-512-512 512z" />
<glyph unicode="&#xf615;" glyph-name="blog" horiz-adv-x="1042" d="M0 960v-806.415h223.45v-217.585l363.033 217.585h456.284v806.415zM983.533 901.352v-193.54h-924.884v193.54zM572.994 212.234l-290.896-172.426v172.426h-223.45v436.93h924.884v-436.93zM212.307 533.040h613.462v-58.648h-613.462v58.648zM212.307 391.698h613.462v-58.648h-613.462v58.648zM835.152 784.055c12.305 0.004 22.279 9.981 22.279 22.286 0 12.308-9.978 22.286-22.286 22.286s-22.286-9.978-22.286-22.286c0-0.206 0.003-0.412 0.008-0.617l-0.001 0.030c0.327-12.054 10.176-21.7 22.279-21.7 0.003 0 0.005 0 0.008 0v0zM717.856 784.055c12.305 0.004 22.279 9.981 22.279 22.286 0 12.308-9.978 22.286-22.286 22.286s-22.286-9.978-22.286-22.286c0-0.206 0.003-0.412 0.008-0.617l-0.001 0.030c0.327-12.054 10.176-21.7 22.279-21.7 0.003 0 0.005 0 0.008 0v0zM600.559 784.055c12.305 0.004 22.279 9.981 22.279 22.286 0 12.308-9.978 22.286-22.286 22.286s-22.286-9.978-22.286-22.286c0-0.206 0.003-0.412 0.008-0.617l-0.001 0.030c0.327-12.054 10.176-21.7 22.279-21.7 0.003 0 0.005 0 0.008 0v0z" />
<glyph unicode="&#xf616;" glyph-name="bug-info" d="M512-64c-230.4 0-419.2 188.8-419.2 419.2 0 16 0 28.8 3.2 44.8 0 3.2 0 6.4 3.2 12.8 0 9.6 3.2 22.4 6.4 32 0 3.2 3.2 6.4 3.2 12.8 3.2 9.6 6.4 19.2 9.6 28.8 0 3.2 3.2 6.4 3.2 9.6 3.2 9.6 6.4 19.2 12.8 32 0 3.2 3.2 6.4 3.2 6.4 6.4 9.6 9.6 22.4 16 32 0 3.2 3.2 3.2 3.2 6.4 6.4 9.6 12.8 22.4 22.4 32 0 0 0 3.2 3.2 3.2 9.6 9.6 16 22.4 25.6 32 0 0 0 0 0 0 3.2 6.4 16 16 25.6 25.6 12.8 12.8 22.4 22.4 35.2 28.8 60.8-67.2 147.2-108.8 243.2-108.8s182.4 41.6 243.2 108.8c12.8-9.6 25.6-19.2 35.2-28.8s19.2-19.2 28.8-28.8c0 0 0 0 0 0 9.6-9.6 19.2-19.2 25.6-32 0 0 0-3.2 3.2-3.2 6.4-9.6 16-19.2 22.4-32 0-3.2 3.2-3.2 3.2-6.4 6.4-9.6 12.8-19.2 16-32 0-3.2 3.2-6.4 3.2-6.4 3.2-9.6 9.6-19.2 12.8-32 0-3.2 3.2-6.4 3.2-9.6 3.2-9.6 6.4-19.2 9.6-28.8 0-3.2 3.2-6.4 3.2-12.8 3.2-9.6 3.2-22.4 6.4-32 0-3.2 0-6.4 3.2-12.8 0-16 3.2-28.8 3.2-44.8-3.2-227.2-192-416-422.4-416v0zM265.6 633.6c-76.8-67.2-128-166.4-128-278.4 0-198.4 153.6-358.4 348.8-371.2v556.8c0 0 0 0 0 0-83.2 6.4-160 41.6-220.8 92.8v0zM758.4 633.6c-60.8-54.4-137.6-86.4-224-92.8 0 0 0 0 0 0v-556.8c195.2 12.8 348.8 172.8 348.8 371.2 0 112-48 211.2-124.8 278.4v0zM745.6 355.2c-25.6 0-48 22.4-48 48s22.4 48 48 48 48-22.4 48-48c-3.2-28.8-22.4-48-48-48zM745.6 214.4c0-38.4-32-70.4-70.4-70.4s-70.4 32-70.4 70.4 32 70.4 70.4 70.4 70.4-32 70.4-70.4zM348.8 144c-38.4 0-70.4 32-70.4 70.4s32 70.4 70.4 70.4 70.4-32 70.4-70.4-32-70.4-70.4-70.4zM278.4 355.2c-25.6 0-48 22.4-48 48s22.4 44.8 48 44.8 48-22.4 48-48-22.4-44.8-48-44.8zM736 918.4l-89.6-89.6c32-19.2 51.2-48 51.2-80 0-64-83.2-115.2-185.6-115.2s-185.6 51.2-185.6 115.2c0 32 19.2 57.6 51.2 80l-89.6 89.6c-9.6 9.6-9.6 25.6 0 35.2s25.6 9.6 35.2 0l102.4-102.4c22.4 9.6 54.4 16 86.4 16s64-6.4 89.6-16l102.4 102.4c9.6 9.6 25.6 9.6 35.2 0s6.4-25.6-3.2-35.2v0zM512 819.2c-76.8 0-140.8-32-140.8-70.4s64-70.4 140.8-70.4 140.8 32 140.8 70.4-64 70.4-140.8 70.4z" />
<glyph unicode="&#xf617;" glyph-name="call-end" d="M323.2 745.6l-115.2 166.4c-16 28.8-57.6 35.2-89.6 12.8l-3.2-6.4-73.6-67.2c-41.6-35.2-54.4-89.6-35.2-137.6 131.2-364.8 419.2-652.8 790.4-771.2 48-19.2 102.4 0 137.6 35.2l60.8 67.2c22.4 28.8 22.4 70.4-6.4 96l-6.4 6.4-163.2 115.2c-19.2 12.8-48 19.2-70.4 6.4l-118.4-60.8c0 0-262.4 137.6-358.4 352l54.4 124.8c16 19.2 9.6 41.6-3.2 60.8v0zM652.8 659.2c-19.2 0-28.8 12.8-28.8 28.8 0 6.4 6.4 19.2 6.4 19.2l240 240c12.8 12.8 28.8 12.8 41.6 0s12.8-28.8 0-41.6v0l-240-240c-6.4-6.4-12.8-6.4-19.2-6.4zM892.8 659.2c-6.4 0-19.2 6.4-19.2 6.4l-240 240c-12.8 12.8-12.8 28.8 0 41.6s28.8 12.8 41.6 0l240-240c12.8-12.8 12.8-28.8 0-41.6-6.4 0-9.6-6.4-22.4-6.4z" />
<glyph unicode="&#xf618;" glyph-name="chat-message" d="M905.6 864h-787.2c-64 0-118.4-54.4-118.4-118.4v-470.4c0-64 54.4-118.4 118.4-118.4h83.2l73.6-99.2c3.2-6.4 19.2-25.6 44.8-25.6 9.6 0 28.8 6.4 44.8 25.6l73.6 96h467.2c64 0 118.4 54.4 118.4 118.4v470.4c0 67.2-54.4 121.6-118.4 121.6v0zM979.2 272c0-41.6-32-73.6-73.6-73.6h-480c-6.4 0-12.8-3.2-19.2-9.6l-80-105.6c-6.4-6.4-6.4-6.4-6.4-6.4s-6.4 3.2-9.6 6.4l-76.8 108.8c-3.2 6.4-9.6 9.6-19.2 9.6h-92.8c-41.6 0-73.6 32-73.6 73.6v467.2c0 41.6 32 73.6 73.6 73.6h787.2c41.6 0 73.6-32 73.6-73.6l-3.2-470.4zM835.2 502.4c0-12.8-9.6-22.4-22.4-22.4h-604.8c-12.8 0-22.4 9.6-22.4 22.4s9.6 22.4 22.4 22.4h601.6c16 3.2 25.6-6.4 25.6-22.4zM835.2 368c0-12.8-9.6-22.4-22.4-22.4h-604.8c-12.8 0-22.4 9.6-22.4 22.4s9.6 22.4 22.4 22.4h601.6c16 0 25.6-9.6 25.6-22.4zM185.6 640c0 12.8 9.6 22.4 22.4 22.4h361.6c12.8 0 22.4-9.6 22.4-22.4s-9.6-22.4-22.4-22.4h-361.6c-9.6 0-22.4 9.6-22.4 22.4z" />
<glyph unicode="&#xf619;" d="M544 89.6h-19.2c-128 0-249.6 60.8-323.2 169.6-153.6-25.6-198.4 86.4-198.4 89.6-3.2 6.4 0 9.6 3.2 12.8s6.4 6.4 12.8 6.4c44.8-6.4 92.8 6.4 128 35.2-3.2 22.4-6.4 41.6-6.4 64 0 195.2 172.8 361.6 384 361.6 124.8 0 243.2-60.8 320-160 57.6-89.6 76.8-198.4 51.2-300.8-3.2-6.4-9.6-9.6-16-9.6-6.4 3.2-9.6 9.6-9.6 16 22.4 96 6.4 195.2-48 278.4-67.2 96-179.2 150.4-297.6 150.4-198.4 0-361.6-153.6-361.6-342.4 0-22.4 3.2-44.8 6.4-67.2 0-6.4 0-9.6-6.4-12.8-35.2-28.8-80-44.8-128-48v0c19.2-25.6 67.2-70.4 169.6-51.2 6.4 0 9.6 0 12.8-6.4 67.2-102.4 182.4-163.2 307.2-163.2 44.8-3.2 89.6 3.2 131.2 16 6.4 3.2 12.8 0 16-6.4s0-12.8-6.4-16c-41.6-12.8-83.2-16-121.6-16v0zM387.2 441.6c-22.4 0-38.4 22.4-38.4 41.6 0 22.4 22.4 38.4 41.6 38.4s38.4-19.2 38.4-41.6c0-25.6-19.2-38.4-41.6-38.4zM387.2 496c-6.4 0-12.8-6.4-12.8-16s6.4-12.8 16-12.8c6.4 0 12.8 6.4 12.8 16 0 3.2-9.6 12.8-16 12.8zM620.8 441.6c-22.4 0-38.4 22.4-38.4 41.6 0 22.4 22.4 38.4 41.6 38.4s38.4-19.2 38.4-41.6c0-25.6-22.4-38.4-41.6-38.4zM620.8 496c-6.4 0-12.8-6.4-12.8-16s6.4-12.8 16-12.8 12.8 6.4 12.8 16c0 3.2-9.6 12.8-16 12.8zM505.6 441.6c-22.4 0-38.4 22.4-38.4 41.6 0 22.4 22.4 38.4 41.6 38.4 22.4 0 38.4-19.2 38.4-41.6 0-25.6-16-38.4-41.6-38.4zM505.6 496c-6.4 0-12.8-6.4-12.8-16s6.4-12.8 16-12.8 12.8 6.4 12.8 16c0 3.2-3.2 12.8-16 12.8z" />
<glyph unicode="&#xf61a;" d="M771.2 416c96 0 176-76.8 176-172.8v0c0-9.6 0-22.4-3.2-32 19.2-16 44.8-22.4 67.2-22.4 0 0-19.2-51.2-92.8-38.4-51.2-83.2-156.8-108.8-240-60.8s-108.8 156.8-60.8 240c32 54.4 92.8 89.6 153.6 86.4v0z" />
<glyph unicode="&#xf61b;" glyph-name="check" d="M896 745.6c12.8 0 22.4-3.2 32-12.8s12.8-19.2 12.8-32c0-12.8-3.2-22.4-12.8-28.8l-512-512c-9.6-9.6-19.2-12.8-28.8-12.8-12.8 0-22.4 3.2-28.8 12.8l-256 256c-9.6 9.6-12.8 19.2-12.8 28.8 0 12.8 3.2 22.4 12.8 32s19.2 12.8 32 12.8c12.8 0 22.4-3.2 28.8-12.8l227.2-227.2 476.8 483.2c6.4 9.6 16 12.8 28.8 12.8z" />
<glyph unicode="&#xf61c;" glyph-name="clasicview" horiz-adv-x="1216" d="M428.8 492.8h-390.4c-22.4 0-38.4 22.4-38.4 38.4v390.4c0 22.4 16 38.4 38.4 38.4h390.4c22.4 0 38.4-16 38.4-38.4v-380.8c0-25.6-16-48-38.4-48v0zM80 569.6h310.4v310.4h-310.4v-310.4zM428.8-64h-390.4c-22.4 0-38.4 16-38.4 38.4v390.4c0 22.4 16 38.4 38.4 38.4h390.4c22.4 0 38.4-16 38.4-38.4v-380.8c0-25.6-16-48-38.4-48v0zM80 16h310.4v310.4h-310.4v-310.4zM1190.4 816h-508.8c-22.4 0-38.4 16-38.4 38.4s16 41.6 38.4 41.6h508.8c22.4 0 38.4-16 38.4-38.4s-12.8-41.6-38.4-41.6zM1190.4 579.2h-508.8c-22.4 0-38.4 16-38.4 38.4s16 38.4 38.4 38.4h508.8c22.4 0 38.4-16 38.4-38.4s-12.8-38.4-38.4-38.4zM1190.4 262.4h-508.8c-22.4 0-38.4 16-38.4 38.4s16 38.4 38.4 38.4h508.8c22.4 0 38.4-16 38.4-38.4s-12.8-38.4-38.4-38.4zM1190.4 22.4h-508.8c-22.4 0-38.4 16-38.4 38.4s16 38.4 38.4 38.4h508.8c22.4 0 38.4-16 38.4-38.4s-12.8-38.4-38.4-38.4z" />
<glyph unicode="&#xf61d;" glyph-name="Clear-all" horiz-adv-x="2336" d="M2323.2 832h-1801.6v128h1801.6v-128zM2067.2 512h-1801.6v-128h1801.6v128zM1801.6 64h-1801.6v-128h1801.6v128z" />
<glyph unicode="&#xf61e;" glyph-name="close-e" d="M681.6 640l-169.6-169.6-169.6 169.6-22.4-25.6 166.4-166.4-166.4-166.4 22.4-22.4 166.4 166.4 169.6-169.6 22.4 22.4-166.4 169.6 169.6 169.6-22.4 22.4z" />
<glyph unicode="&#xf61f;" glyph-name="close22" d="M694.4 630.4c-12.8 12.8-32 12.8-44.8 0l-137.6-137.6-134.4 134.4c-12.8 12.8-32 12.8-44.8 0s-12.8-32 0-44.8l134.4-134.4-137.6-137.6c-12.8-12.8-12.8-32 0-44.8s32-12.8 44.8 0l137.6 137.6 134.4-134.4c12.8-12.8 32-12.8 44.8 0s12.8 32 0 44.8l-134.4 134.4 137.6 137.6c12.8 12.8 12.8 32 0 44.8zM512 960c-281.6 0-512-230.4-512-512s230.4-512 512-512c281.6 0 512 230.4 512 512s-230.4 512-512 512zM512 0c-246.4 0-448 201.6-448 448s201.6 448 448 448 448-201.6 448-448-201.6-448-448-448z" />
<glyph unicode="&#xf620;" glyph-name="cloud-icon" horiz-adv-x="1600" d="M1168-64h-867.2c0 0-3.2 0-6.4 0-163.2 0-294.4 131.2-294.4 294.4 0 131.2 86.4 243.2 204.8 281.6-3.2 25.6-6.4 51.2-6.4 80 0 0 0 3.2 0 3.2 0 201.6 166.4 364.8 368 364.8 150.4 0 281.6-92.8 339.2-224 19.2 0 38.4 3.2 57.6 3.2 137.6 0 252.8-92.8 288-217.6l48-3.2c0 0 0 0 0 0 163.2 0 294.4-131.2 294.4-294.4 0 0 0 0 0 0 0-160-131.2-291.2-291.2-291.2 0 0-3.2 0-3.2 0l-131.2 3.2zM569.6 860.8c-150.4 0-272-121.6-272-272v0c0 0 0 0 0 0 0-35.2 6.4-67.2 19.2-99.2 0-3.2 3.2-9.6 3.2-16 0-22.4-12.8-38.4-32-44.8h-9.6c-102.4-6.4-185.6-92.8-185.6-195.2 0-108.8 89.6-195.2 195.2-195.2 3.2 0 9.6 0 12.8 0h995.2c0 0 0 0 0 0 108.8 0 195.2 86.4 195.2 195.2s-86.4 195.2-195.2 195.2c-25.6 0-48-3.2-70.4-12.8-6.4-3.2-12.8-6.4-22.4-6.4-25.6 0-44.8 19.2-44.8 44.8-6.4 105.6-92.8 188.8-198.4 188.8-25.6 0-48-3.2-70.4-12.8-3.2-3.2-12.8-3.2-19.2-3.2s-12.8 3.2-19.2 3.2c-12.8 6.4-19.2 16-25.6 28.8-28.8 115.2-134.4 198.4-256 201.6v0z" />
<glyph unicode="&#xf621;" glyph-name="collage" d="M246.4 473.6h-172.8c-38.4 0-73.6 32-73.6 70.4v176c0 38.4 32 70.4 73.6 70.4v0h172.8c38.4 0 70.4-32 70.4-70.4v-172.8c0-41.6-32-73.6-70.4-73.6 0 0 0 0 0 0zM73.6 726.4v0c-3.2 0-6.4-3.2-6.4-3.2v0-172.8c0-3.2 3.2-6.4 6.4-6.4v0h172.8c3.2 0 6.4 3.2 6.4 6.4v0 169.6c0 3.2-3.2 6.4-6.4 6.4v0h-172.8zM246.4-64h-172.8c-41.6 0-73.6 32-73.6 70.4v172.8c0 44.8 32 76.8 73.6 76.8v0h172.8c41.6 0 73.6-32 73.6-73.6v-172.8c0-41.6-35.2-73.6-73.6-73.6v0 0zM73.6 185.6c-3.2 0-6.4-3.2-6.4-6.4v0-172.8c0-3.2 3.2-6.4 6.4-6.4v0h172.8c0 0 0 0 0 0 3.2 0 3.2 3.2 3.2 3.2s0 0 0 0v0 172.8c0 0 0 0 0 0 0 3.2-3.2 3.2-3.2 3.2s0 0 0 0v0l-172.8 6.4zM784-64h-172.8c-38.4 0-73.6 32-73.6 70.4v172.8c0 41.6 32 73.6 73.6 73.6v0h172.8c41.6 0 73.6-32 73.6-73.6v-172.8c0-38.4-32-70.4-73.6-70.4v0 0zM611.2 185.6c-3.2 0-6.4-3.2-6.4-6.4v0-172.8c0-3.2 3.2-6.4 6.4-6.4v0h172.8c0 0 0 0 0 0 3.2 0 3.2 3.2 3.2 3.2s0 0 0 0v0 172.8c0 0 0 0 0 0 0 3.2-3.2 3.2-3.2 3.2s0 0 0 0v0l-172.8 6.4zM928 473.6h-390.4v387.2c0 54.4 44.8 99.2 99.2 99.2h288c54.4 0 99.2-44.8 99.2-99.2v0-288c0-54.4-44.8-99.2-96-99.2v0 0zM604.8 540.8h320c16 0 32 12.8 32 32v0 288c0 16-12.8 32-32 32v0h-288c-16 0-32-12.8-32-32v0-320z" />
<glyph unicode="&#xf622;" d="M371.2 540.8c32 0 51.2-22.4 51.2-51.2s-25.6-51.2-51.2-51.2-51.2 22.4-51.2 51.2 22.4 51.2 51.2 51.2zM409.6 771.2l22.4 144c-67.2 99.2-121.6 0-121.6 0l19.2-147.2 28.8-166.4c0 0 16-44.8 32 0-3.2 0 19.2 169.6 19.2 169.6z" />
<glyph unicode="&#xf623;" d="M662.4-70.4c-16 3.2-32 9.6-38.4 22.4l-3.2 3.2c-3.2 0-3.2 3.2-3.2 3.2l-96 121.6h-294.4c-76.8-3.2-140.8 54.4-144 134.4 0 0 0 0 0 3.2v374.4c3.2 76.8 70.4 137.6 147.2 134.4h41.6c9.6 0 12.8-6.4 12.8-12.8s-9.6-12.8-16-12.8h-38.4c-64 3.2-115.2-44.8-118.4-108.8v-377.6c3.2-60.8 51.2-108.8 112-108.8 0 0 0 0 3.2 0h297.6c3.2 0 9.6-3.2 9.6-6.4l99.2-124.8c3.2-3.2 3.2-3.2 6.4-6.4 6.4-6.4 12.8-9.6 22.4-12.8v0c3.2 9.6 6.4 22.4 3.2 32v92.8c0 9.6 6.4 12.8 12.8 12.8 112 0 176 3.2 204.8 32s28.8 86.4 28.8 195.2v256c-3.2 70.4-60.8 124.8-134.4 121.6h-38.4c-9.6 0-12.8 6.4-12.8 12.8s6.4 12.8 12.8 12.8h38.4c86.4 3.2 153.6-64 160-150.4v-256c0-112 0-176-35.2-214.4s-96-35.2-214.4-32v-83.2c0-22.4 0-51.2-22.4-57.6 0 0 0 0-3.2 0v0zM611.2 451.2c-25.6 3.2-48 25.6-44.8 51.2s25.6 48 51.2 44.8c25.6-3.2 44.8-22.4 44.8-48-3.2-28.8-25.6-48-51.2-48v0 0zM611.2 518.4c-9.6 0-19.2-9.6-16-22.4 0-9.6 9.6-19.2 22.4-16 9.6 0 16 9.6 16 19.2-3.2 9.6-9.6 19.2-22.4 19.2v0 0zM592 588.8c-16 0-32 9.6-38.4 25.6 0 3.2 0 3.2 0 6.4l3.2 57.6c0 16 6.4 32 16 44.8h3.2c19.2 9.6 67.2 51.2 70.4 83.2 0 12.8-6.4 32-16 38.4s-22.4 9.6-32 6.4h-6.4l-51.2-16c-12.8-3.2-19.2-3.2-28.8-3.2-19.2 0-35.2 9.6-44.8 25.6-6.4 12.8-6.4 32 6.4 44.8 9.6 16 25.6 28.8 44.8 32 44.8 9.6 128 22.4 185.6-12.8 32-19.2 51.2-51.2 54.4-89.6 0-9.6 0-16 0-25.6-9.6-38.4-38.4-73.6-76.8-96v0c-16-9.6-25.6-32-32-51.2l-3.2-48c0-6.4-3.2-9.6-9.6-9.6l-25.6-9.6c-6.4 0-12.8-3.2-19.2-3.2v0zM582.4 620.8c6.4-6.4 12.8-6.4 22.4-3.2l16 9.6 3.2 38.4c6.4 28.8 19.2 51.2 41.6 70.4 32 16 54.4 48 64 83.2 0 6.4 0 9.6 0 16-3.2 28.8-19.2 54.4-44.8 70.4-51.2 32-131.2 19.2-163.2 9.6-9.6-9.6-16-12.8-22.4-25.6-6.4-6.4-6.4-9.6-6.4-19.2 6.4-6.4 12.8-9.6 25.6-9.6 6.4 0 9.6 0 12.8 3.2l51.2 16c6.4 0 9.6 3.2 12.8 3.2 19.2 3.2 35.2-3.2 51.2-12.8 16-16 28.8-38.4 25.6-60.8-6.4-51.2-70.4-92.8-80-102.4-6.4-9.6-9.6-16-9.6-25.6v-60.8z" />
<glyph unicode="&#xf624;" glyph-name="compact_view" horiz-adv-x="1408" d="M1363.2 857.6h-1312c-32 0-51.2 19.2-51.2 51.2s19.2 51.2 51.2 51.2h1312c32 0 51.2-19.2 51.2-51.2s-22.4-51.2-51.2-51.2zM1363.2 550.4h-1312c-32 0-51.2 19.2-51.2 51.2s19.2 51.2 51.2 51.2h1312c32 0 51.2-19.2 51.2-51.2s-22.4-51.2-51.2-51.2zM1363.2 243.2h-1312c-32 0-51.2 19.2-51.2 51.2s19.2 51.2 51.2 51.2h1312c32 0 51.2-19.2 51.2-51.2s-22.4-51.2-51.2-51.2zM1363.2-64h-1312c-32 0-51.2 19.2-51.2 51.2s19.2 51.2 51.2 51.2h1312c32 0 51.2-19.2 51.2-51.2s-22.4-51.2-51.2-51.2z" />
<glyph unicode="&#xf625;" glyph-name="contacts-new3" horiz-adv-x="992" d="M560 496c102.4 28.8 176 121.6 176 233.6v0c0 128-112 230.4-243.2 230.4s-233.6-112-233.6-243.2c0-112 73.6-204.8 176-233.6-240-6.4-425.6-211.2-435.2-454.4 0-38.4 0-92.8 48-92.8h892.8c48 0 48 54.4 48 92.8-3.2 252.8-198.4 438.4-428.8 467.2v0zM355.2 726.4c0 73.6 64 140.8 150.4 140.8v0c83.2 0 140.8-64 140.8-150.4v0c0-83.2-64-150.4-150.4-140.8-76.8 3.2-140.8 67.2-140.8 150.4zM92.8 28.8c0 0 0 9.6 0 0 9.6 224 195.2 380.8 409.6 371.2 214.4 9.6 400-156.8 409.6-371.2 0 0-819.2 0-819.2 0z" />
<glyph unicode="&#xf626;" glyph-name="copy22" d="M854.4 960h-544c-41.6 0-73.6-32-73.6-73.6v-86.4h-67.2c-41.6 0-73.6-32-73.6-70.4v-720c0-41.6 32-73.6 73.6-73.6h547.2c38.4 0 73.6 32 73.6 73.6v86.4h67.2c38.4 0 73.6 32 73.6 73.6v716.8c-3.2 41.6-35.2 73.6-76.8 73.6v0zM726.4 9.6c0-6.4-3.2-9.6-9.6-9.6h-547.2c-6.4 0-9.6 3.2-9.6 9.6v720c0 6.4 3.2 9.6 9.6 9.6h547.2c6.4 0 9.6-3.2 9.6-9.6v-720zM864 166.4c0-6.4-3.2-9.6-9.6-9.6h-67.2v572.8c0 38.4-32 73.6-73.6 73.6h-416v83.2c0 6.4 3.2 9.6 9.6 9.6h547.2c6.4 0 9.6-3.2 9.6-9.6v-720zM617.6 640h-352c-16 0-32-12.8-32-32s12.8-32 32-32h352c16 0 32 12.8 32 32s-12.8 32-32 32zM617.6 502.4h-352c-16 0-32-12.8-32-32s12.8-32 32-32h352c16 0 32 12.8 32 32s-12.8 32-32 32zM617.6 361.6h-352c-16 0-32-12.8-32-32s12.8-32 32-32h352c16 0 32 12.8 32 32s-12.8 32-32 32zM617.6 224h-352c-16 0-32-12.8-32-32s12.8-32 32-32h352c16 0 32 12.8 32 32s-12.8 32-32 32z" />
<glyph unicode="&#xf627;" glyph-name="cross" d="M809.6 790.4c12.8 0 22.4-3.2 32-12.8s12.8-19.2 12.8-32c0-12.8-3.2-22.4-12.8-28.8l-268.8-268.8 268.8-268.8c9.6-9.6 12.8-19.2 12.8-28.8 0-12.8-3.2-22.4-12.8-32s-19.2-12.8-32-12.8c-12.8 0-22.4 3.2-28.8 12.8l-268.8 268.8-268.8-268.8c-9.6-9.6-19.2-12.8-28.8-12.8-12.8 0-22.4 3.2-32 12.8s-12.8 19.2-12.8 32c0 12.8 3.2 22.4 12.8 28.8l268.8 268.8-268.8 268.8c-6.4 6.4-12.8 19.2-12.8 28.8 0 12.8 3.2 22.4 12.8 32s19.2 12.8 32 12.8c12.8 0 22.4-3.2 28.8-12.8l268.8-268.8 268.8 268.8c6.4 6.4 19.2 12.8 28.8 12.8z" />
<glyph unicode="&#xf628;" glyph-name="cross72" d="M598.4 448l409.6 409.6c22.4 22.4 22.4 60.8 0 86.4-22.4 22.4-60.8 22.4-86.4 0l-409.6-409.6-409.6 406.4c-22.4 22.4-60.8 22.4-86.4 0-22.4-22.4-22.4-60.8 0-86.4l409.6-406.4-409.6-409.6c-22.4-22.4-22.4-60.8 0-86.4 12.8-9.6 28.8-16 44.8-16s32 6.4 41.6 16l409.6 409.6 409.6-409.6c12.8-12.8 25.6-16 41.6-16s32 6.4 41.6 16c22.4 22.4 22.4 60.8 0 86.4l-406.4 409.6z" />
<glyph unicode="&#xf629;" d="M518.4 233.6c-115.2 0-211.2 140.8-217.6 332.8v12.8h441.6v-12.8c-12.8-188.8-108.8-332.8-224-332.8v0zM329.6 553.6c12.8-166.4 92.8-291.2 192-291.2s176 128 192 291.2h-384zM902.4-51.2h-780.8c-28.8 0-51.2 22.4-51.2 51.2 0 128 118.4 227.2 233.6 278.4 12.8 6.4 35.2 9.6 51.2 9.6h9.6l3.2-6.4c35.2-64 64-89.6 153.6-89.6s108.8 22.4 144 86.4l3.2 6.4h6.4c22.4 6.4 41.6 3.2 64-6.4v0c137.6-67.2 217.6-166.4 217.6-268.8-3.2-35.2-25.6-60.8-54.4-60.8v0zM345.6 256c-9.6 0-19.2-3.2-28.8-6.4-105.6-48-217.6-140.8-217.6-249.6 0-12.8 12.8-22.4 22.4-22.4h780.8c12.8 0 22.4 9.6 22.4 22.4 0 108.8-105.6 195.2-201.6 243.2v0c-12.8 6.4-25.6 9.6-38.4 6.4-38.4-64-67.2-92.8-166.4-92.8s-140.8 35.2-172.8 99.2z" />
<glyph unicode="&#xf62a;" d="M297.6 614.4l-73.6 256 147.2-128 147.2 112 128-112 156.8 128-51.2-256h-454.4zM230.4 960c32 0 57.6-22.4 57.6-51.2s-25.6-51.2-57.6-51.2-57.6 22.4-57.6 51.2 25.6 51.2 57.6 51.2zM790.4 960c32 0 57.6-22.4 57.6-51.2s-25.6-51.2-57.6-51.2-57.6 22.4-57.6 51.2 25.6 51.2 57.6 51.2zM518.4 947.2c32 0 57.6-22.4 57.6-51.2s-25.6-48-57.6-48-57.6 22.4-57.6 48 25.6 51.2 57.6 51.2z" />
<glyph unicode="&#xf62b;" glyph-name="d-pref" d="M892.8 448c0 25.6-3.2 48-6.4 70.4l131.2 73.6-128 220.8-131.2-73.6c-35.2 28.8-76.8 54.4-121.6 70.4v150.4h-256v-150.4c-44.8-16-86.4-38.4-121.6-70.4l-131.2 73.6-128-220.8 131.2-73.6c-3.2-22.4-6.4-44.8-6.4-70.4 0-22.4 3.2-48 6.4-70.4l-131.2-73.6 128-220.8 131.2 73.6c35.2-28.8 76.8-54.4 121.6-70.4v-150.4h256v150.4c44.8 16 86.4 38.4 121.6 70.4l131.2-73.6 128 220.8-131.2 73.6c3.2 22.4 6.4 48 6.4 70.4 0 0 0 0 0 0zM928 278.4l-64-112-115.2 67.2-35.2-28.8c-28.8-25.6-64-44.8-102.4-57.6l-41.6-16v-131.2h-128v131.2l-41.6 16c-38.4 12.8-70.4 32-102.4 57.6l-35.2 28.8-115.2-67.2-64 112 115.2 67.2-9.6 44.8c-3.2 19.2-6.4 38.4-6.4 57.6s3.2 38.4 6.4 57.6l9.6 44.8-115.2 67.2 64 112 115.2-67.2 35.2 28.8c28.8 25.6 64 44.8 102.4 57.6l41.6 16v131.2h128v-131.2l41.6-16c38.4-12.8 70.4-32 102.4-57.6l35.2-28.8 115.2 67.2 64-112-115.2-67.2 9.6-44.8c3.2-19.2 6.4-38.4 6.4-57.6s-3.2-38.4-6.4-57.6l-9.6-44.8 115.2-67.2zM508.8 576c70.4 0 128-57.6 128-128s-57.6-128-128-128-128 57.6-128 128 54.4 128 128 128zM508.8 640c-105.6 0-192-86.4-192-192s86.4-192 192-192 192 86.4 192 192-86.4 192-192 192v0z" />
<glyph unicode="&#xf62c;" glyph-name="dashboard-new" d="M924.8 476.8h-300.8c-41.6 0-80 41.6-80 80v0 304c0 51.2 41.6 80 80 80v0h300.8c51.2 0 80-41.6 80-80v0-300.8c9.6-41.6-32-83.2-80-83.2 0 0 0 0 0 0zM624 899.2c-19.2 0-28.8-19.2-28.8-28.8v0-300.8c0-19.2 19.2-28.8 28.8-28.8v0h300.8c19.2 0 28.8 19.2 28.8 28.8v0 300.8c0 19.2-19.2 28.8-28.8 28.8v0h-300.8zM390.4 489.6h-300.8c-51.2 0-80 41.6-80 80v0 300.8c0 48 41.6 89.6 80 89.6v0h300.8c51.2 0 80-41.6 80-80v0-300.8c12.8-51.2-28.8-89.6-80-89.6 0 0 0 0 0 0zM89.6 908.8c-19.2 0-28.8-19.2-28.8-28.8v0-300.8c0-19.2 19.2-28.8 28.8-28.8v0h300.8c19.2 0 28.8 19.2 28.8 28.8v0 300.8c0 19.2-19.2 28.8-28.8 28.8v0c0 0-300.8 0-300.8 0zM380.8-64h-300.8c-38.4 0-80 41.6-80 80v0 300.8c0 51.2 41.6 80 80 80v0h300.8c51.2 0 80-41.6 80-80v0-300.8c9.6-38.4-28.8-80-80-80 0 0 0 0 0 0zM80 358.4c-19.2 0-28.8-9.6-28.8-28.8v0-300.8c0-19.2 19.2-28.8 28.8-28.8v0h300.8c19.2 0 28.8 19.2 28.8 28.8v0 300.8c9.6 19.2-9.6 28.8-28.8 28.8v0c0 0-300.8 0-300.8 0zM934.4-64h-300.8c-51.2 0-80 41.6-80 80v0 300.8c0 51.2 41.6 80 80 80v0h300.8c51.2 0 80-41.6 80-80v0-300.8c9.6-38.4-32-80-80-80 0 0 0 0 0 0zM633.6 358.4c-19.2 0-28.8-9.6-28.8-28.8v0-300.8c0-19.2 19.2-28.8 28.8-28.8v0h300.8c19.2 0 28.8 19.2 28.8 28.8v0 300.8c9.6 19.2-9.6 28.8-28.8 28.8v0h-300.8z" />
<glyph unicode="&#xf62d;" glyph-name="dashboard-new1" d="M371.2 496h-278.4c-54.4 0-92.8 38.4-92.8 92.8v278.4c0 54.4 38.4 92.8 92.8 92.8h278.4c54.4 0 92.8-38.4 92.8-92.8v-278.4c0-57.6-35.2-92.8-92.8-92.8zM371.2 588.8v0 0zM371.2 867.2h-278.4v-278.4h278.4c0 0 0 278.4 0 278.4zM931.2 496h-278.4c-54.4 0-92.8 38.4-92.8 92.8v278.4c0 54.4 38.4 92.8 92.8 92.8h278.4c54.4 0 92.8-38.4 92.8-92.8v-278.4c0-57.6-38.4-92.8-92.8-92.8zM931.2 588.8v0 0zM931.2 867.2h-278.4v-278.4h278.4c0 0 0 278.4 0 278.4zM371.2-64h-278.4c-54.4 0-92.8 38.4-92.8 92.8v278.4c0 54.4 38.4 92.8 92.8 92.8h278.4c54.4 0 92.8-38.4 92.8-92.8v-278.4c0-54.4-35.2-92.8-92.8-92.8zM371.2 28.8v0 0zM371.2 307.2h-278.4v-278.4h278.4c0 0 0 278.4 0 278.4zM931.2-64h-278.4c-54.4 0-92.8 38.4-92.8 92.8v278.4c0 54.4 38.4 92.8 92.8 92.8h278.4c54.4 0 92.8-38.4 92.8-92.8v-278.4c0-54.4-38.4-92.8-92.8-92.8zM931.2 28.8v0 0zM931.2 307.2h-278.4v-278.4h278.4c0 0 0 278.4 0 278.4z" />
<glyph unicode="&#xf62e;" glyph-name="delete-2" d="M544 576h-64v-448h64v448zM384 576h-64v-448h64v448zM992 768h-224v160c0 19.2-12.8 32-32 32h-448c-19.2 0-32-12.8-32-32v-160h-224c-19.2 0-32-12.8-32-32s12.8-32 32-32h96v-736c0-19.2 12.8-32 32-32h704c19.2 0 32 12.8 32 32v736h96c19.2 0 32 12.8 32 32s-12.8 32-32 32zM320 896h384v-128h-384v128zM832 0h-640v704h640v-704zM704 576h-64v-448h64v448z" />
<glyph unicode="&#xf62f;" glyph-name="descend" d="M988.8 92.8h-422.4c-19.2 0-35.2-16-35.2-35.2s16-35.2 35.2-35.2h422.4c19.2 0 35.2 16 35.2 35.2s-16 35.2-35.2 35.2zM496 870.4h492.8c19.2 0 35.2 16 35.2 35.2s-16 35.2-35.2 35.2h-492.8c-19.2 0-35.2-16-35.2-35.2s12.8-35.2 35.2-35.2zM553.6 297.6c-12.8 12.8-35.2 12.8-51.2 0l-185.6-214.4v857.6h-70.4v-860.8l-185.6 214.4c-12.8 12.8-35.2 12.8-51.2 0s-12.8-35.2 0-51.2l246.4-278.4c6.4-6.4 16-9.6 25.6-9.6s19.2 3.2 25.6 9.6l246.4 281.6c12.8 12.8 12.8 35.2 0 51.2v0zM988.8 729.6h-492.8c-19.2 0-35.2-16-35.2-35.2s16-35.2 35.2-35.2h492.8c19.2 0 35.2 16 35.2 35.2s-16 35.2-35.2 35.2zM988.8 518.4h-492.8c-19.2 0-35.2-16-35.2-35.2s16-35.2 35.2-35.2h492.8c19.2 0 35.2 16 35.2 35.2s-16 35.2-35.2 35.2zM988.8 307.2h-281.6c-19.2 0-35.2-16-35.2-35.2s16-35.2 35.2-35.2h281.6c19.2 0 35.2 16 35.2 35.2s-16 35.2-35.2 35.2z" />
<glyph unicode="&#xf630;" glyph-name="dialpad" d="M512 918.4c44.8 0 86.4-38.4 86.4-86.4s-41.6-86.4-86.4-86.4-86.4 41.6-86.4 86.4 41.6 86.4 86.4 86.4zM512 662.4c44.8 0 86.4-38.4 86.4-86.4s-38.4-86.4-86.4-86.4-86.4 38.4-86.4 86.4 41.6 86.4 86.4 86.4zM768 662.4c44.8 0 86.4-38.4 86.4-86.4s-38.4-86.4-86.4-86.4-86.4 38.4-86.4 86.4 41.6 86.4 86.4 86.4zM768 406.4c44.8 0 86.4-38.4 86.4-86.4s-38.4-86.4-86.4-86.4-86.4 38.4-86.4 86.4 41.6 86.4 86.4 86.4zM512 406.4c44.8 0 86.4-38.4 86.4-86.4s-38.4-86.4-86.4-86.4-86.4 38.4-86.4 86.4 41.6 86.4 86.4 86.4zM768 745.6c-44.8 0-86.4 38.4-86.4 86.4s38.4 86.4 86.4 86.4 86.4-38.4 86.4-86.4-41.6-86.4-86.4-86.4zM256 406.4c44.8 0 86.4-38.4 86.4-86.4s-41.6-86.4-86.4-86.4-86.4 41.6-86.4 86.4 41.6 86.4 86.4 86.4zM256 662.4c44.8 0 86.4-38.4 86.4-86.4s-41.6-86.4-86.4-86.4-86.4 41.6-86.4 86.4 41.6 86.4 86.4 86.4zM256 918.4c44.8 0 86.4-38.4 86.4-86.4s-41.6-86.4-86.4-86.4-86.4 41.6-86.4 86.4 41.6 86.4 86.4 86.4zM512 150.4c44.8 0 86.4-38.4 86.4-86.4s-38.4-86.4-86.4-86.4-86.4 38.4-86.4 86.4 41.6 86.4 86.4 86.4z" />
<glyph unicode="&#xf631;" glyph-name="down" d="M1004.8 716.8c-12.8 12.8-28.8 19.2-44.8 19.2h-896c-16 0-32-6.4-44.8-19.2s-19.2-28.8-19.2-44.8 6.4-32 19.2-44.8l448-448c12.8-12.8 28.8-19.2 44.8-19.2s32 6.4 44.8 19.2l448 448c12.8 12.8 19.2 28.8 19.2 44.8s-6.4 32-19.2 44.8v0z" />
<glyph unicode="&#xf632;" glyph-name="down1" d="M1004.8 745.6v0c-12.8 12.8-28.8 22.4-44.8 22.4h-896c-16 0-32-9.6-44.8-22.4v0c-25.6-28.8-25.6-73.6 0-99.2l448-496c25.6-28.8 64-28.8 89.6 0v3.2l448 492.8c25.6 25.6 25.6 70.4 0 99.2v0z" />
<glyph unicode="&#xf633;" glyph-name="events" horiz-adv-x="1088" d="M313.6 176l35.2 48c25.6-25.6 57.6-35.2 89.6-35.2 41.6 0 64 16 64 41.6s-22.4 35.2-67.2 35.2h-35.2v64h35.2c35.2 0 57.6 9.6 57.6 35.2s-25.6 35.2-64 35.2c-32 0-64-9.6-83.2-32l-32 35.2c32 35.2 76.8 51.2 124.8 51.2 76.8 0 124.8-35.2 124.8-89.6 0-35.2-32-67.2-73.6-73.6 41.6-6.4 73.6-35.2 76.8-76.8 0-57.6-51.2-92.8-131.2-92.8-44.8 3.2-89.6 19.2-121.6 54.4v0zM691.2 128v233.6l-51.2-57.6-41.6 41.6 105.6 105.6h64v-329.6l-76.8 6.4zM1017.6 883.2h-156.8v25.6c0 32-22.4 51.2-51.2 51.2h-64c-32 0-51.2-22.4-51.2-51.2v-25.6h-278.4v25.6c0 32-22.4 51.2-51.2 51.2h-64c-32 0-51.2-22.4-51.2-51.2v-25.6h-176c-41.6 0-73.6-38.4-73.6-73.6 0-6.4 0-6.4 0-6.4v-793.6c0-41.6 32-73.6 73.6-73.6v0h947.2c41.6 0 73.6 32 73.6 73.6v0 793.6c-3.2 41.6-35.2 73.6-76.8 80 0-6.4 0-6.4 0 0v0 0zM745.6 908.8h64v-105.6h-64c0 0 0 105.6 0 105.6zM304 908.8h64v-105.6h-64c0 0 0 105.6 0 105.6zM73.6 825.6h179.2v-22.4c0-32 22.4-51.2 51.2-51.2h64c32 0 51.2 22.4 51.2 51.2v22.4h278.4v-22.4c0-32 22.4-51.2 51.2-51.2h57.6c32 0 51.2 22.4 51.2 51.2v22.4h156.8c9.6 0 22.4-9.6 22.4-22.4v0-156.8h-985.6v156.8c0 9.6 12.8 22.4 22.4 22.4v0 0zM1040 9.6c0-9.6-9.6-22.4-22.4-22.4v0h-940.8c-9.6 0-22.4 9.6-22.4 22.4v0 588.8h988.8v-588.8h-3.2z" />
<glyph unicode="&#xf634;" glyph-name="Expand" horiz-adv-x="1920" d="M0 950.4h646.4v-112h-646.4c0 0 0 112 0 112zM0 502.4h646.4v-112h-646.4c0 3.2 0 112 0 112zM0 57.6h646.4v-112h-646.4v112zM1414.4 960l-76.8-76.8 377.6-377.6h-825.6v-112h822.4l-377.6-380.8 76.8-76.8 512 512c0 0-508.8 512-508.8 512z" />
<glyph unicode="&#xf635;" horiz-adv-x="1216" d="M1168 268.8c-134.4 179.2-342.4 284.8-566.4 284.8-198.4 0-396.8-108.8-550.4-294.4-6.4-9.6-6.4-19.2 0-28.8 147.2-188.8 345.6-294.4 544-294.4 227.2 9.6 438.4 118.4 566.4 304 12.8 9.6 12.8 19.2 6.4 28.8v0zM595.2-12.8c-172.8 0-358.4 96-496 259.2v0c73.6 83.2 160 153.6 249.6 198.4-16-35.2-25.6-70.4-25.6-105.6 6.4-153.6 134.4-268.8 288-262.4 144 6.4 259.2 118.4 262.4 262.4 0 44.8-9.6 83.2-28.8 118.4 105.6-38.4 198.4-108.8 272-204.8-121.6-163.2-310.4-262.4-521.6-265.6v0zM195.2 521.6c-9.6 0-16 6.4-19.2 9.6l-169.6 224c-12.8 9.6-6.4 25.6 3.2 35.2s25.6 6.4 35.2-6.4v0l169.6-224c9.6-9.6 6.4-25.6-6.4-35.2-3.2-3.2-9.6-3.2-12.8-3.2v0zM1017.6 521.6c-16 0-25.6 9.6-25.6 25.6 0 6.4 0 9.6 6.4 16l169.6 224c9.6 9.6 25.6 16 35.2 6.4s16-25.6 6.4-35.2v0l-169.6-224c-6.4-12.8-9.6-12.8-22.4-12.8v0zM595.2 630.4c-16 0-25.6 9.6-25.6 25.6v278.4c0 16 16 25.6 25.6 25.6s25.6-9.6 25.6-25.6v-278.4c6.4-9.6-9.6-25.6-25.6-25.6 6.4 0 0 0 0 0z" />
<glyph unicode="&#xf636;" horiz-adv-x="1216" d="M521.6 473.6c64 0 118.4-54.4 118.4-118.4s-54.4-118.4-118.4-118.4-118.4 51.2-118.4 115.2 54.4 121.6 118.4 121.6z" />
<glyph unicode="&#xf637;" glyph-name="fb2" d="M588.8-64h-179.2c-12.8 0-25.6 9.6-25.6 25.6v419.2h-124.8c-12.8 0-25.6 9.6-25.6 25.6v172.8c0 12.8 9.6 25.6 25.6 25.6h124.8v102.4c0 156.8 96 252.8 246.4 252.8 67.2 0 121.6-6.4 137.6-6.4 12.8-3.2 22.4-12.8 22.4-25.6v-153.6c0-12.8-9.6-25.6-25.6-25.6h-92.8c-54.4 0-60.8-19.2-60.8-60.8v-86.4h147.2c6.4 0 12.8-3.2 19.2-9.6 3.2-6.4 6.4-12.8 6.4-19.2l-22.4-172.8c0-12.8-12.8-22.4-25.6-22.4h-124.8v-419.2c0-12.8-9.6-22.4-22.4-22.4v0zM432-16h131.2v422.4c0 12.8 9.6 25.6 25.6 25.6h128l16 124.8h-144c-12.8 0-25.6 9.6-25.6 25.6v105.6c0 48 12.8 108.8 108.8 108.8h67.2v108.8c-25.6 3.2-64 3.2-108.8 3.2-124.8 0-198.4-76.8-198.4-204.8v-128c0-12.8-9.6-25.6-25.6-25.6h-121.6v-124.8h124.8c12.8 0 25.6-9.6 25.6-25.6l-3.2-416z" />
<glyph unicode="&#xf638;" glyph-name="feedback3" horiz-adv-x="960" d="M512-64c-12.8 0-16 6.4-22.4 12.8l-115.2 140.8h-265.6c-64 6.4-108.8 57.6-108.8 118.4v636.8c0 57.6 44.8 108.8 108.8 115.2h732.8c64-6.4 108.8-57.6 108.8-118.4v-176c0-16-12.8-28.8-28.8-28.8s-28.8 12.8-28.8 28.8v179.2c0 28.8-22.4 57.6-51.2 64h-732.8c-28.8-12.8-51.2-35.2-51.2-64v-636.8c0-28.8 22.4-57.6 51.2-64h278.4c12.8 0 16-6.4 22.4-12.8l124.8-153.6c12.8-12.8 6.4-28.8-6.4-38.4-3.2-3.2-9.6-3.2-16-3.2v0zM710.4 595.2c-137.6 0-336 0-425.6 0l217.6 147.2c12.8 12.8 16 28.8 6.4 44.8s-22.4 16-35.2 6.4v0l-294.4-204.8c-12.8-6.4-16-22.4-6.4-38.4l3.2-6.4 291.2-198.4c12.8-12.8 28.8-6.4 38.4 6.4s6.4 28.8-6.4 38.4v0l-217.6 147.2c89.6 0 291.2 0 425.6 0 38.4 0 176-12.8 176-137.6v-204.8c0-35.2-22.4-57.6-57.6-57.6h-272c-16 0-28.8-12.8-28.8-28.8s12.8-28.8 28.8-28.8h278.4c64 0 115.2 51.2 115.2 115.2v204.8c3.2 121.6-89.6 195.2-236.8 195.2v0z" />
<glyph unicode="&#xf639;" glyph-name="feeds-new1" d="M201.6-64c-108.8 0-201.6 83.2-201.6 201.6s92.8 201.6 201.6 201.6 201.6-92.8 201.6-201.6-89.6-201.6-201.6-201.6v0zM201.6 240c-54.4 0-112-44.8-112-112s44.8-112 112-112 112 54.4 112 112-44.8 112-112 112c0 0 0 0 0 0zM563.2 83.2c-28.8 0-44.8 28.8-44.8 44.8 0 176-137.6 313.6-313.6 313.6-28.8 0-44.8 19.2-44.8 44.8s19.2 44.8 44.8 44.8c220.8 3.2 403.2-179.2 403.2-400 0-19.2-16-48-44.8-48v0 0zM774.4 83.2c-28.8 0-44.8 28.8-44.8 44.8 0 284.8-230.4 524.8-524.8 524.8-28.8 0-44.8 28.8-44.8 44.8s19.2 44.8 44.8 44.8c342.4 0 617.6-275.2 617.6-617.6 0-12.8-19.2-41.6-48-41.6v0 0zM985.6 83.2c-28.8 0-44.8 19.2-44.8 44.8 0 406.4-332.8 739.2-739.2 739.2-25.6 0-44.8 28.8-44.8 48s19.2 44.8 44.8 44.8c460.8 0 828.8-368 828.8-828.8 3.2-19.2-25.6-48-44.8-48v0z" />
<glyph unicode="&#xf63a;" glyph-name="file-empty" d="M918.4 729.6c-22.4 32-54.4 67.2-86.4 102.4s-70.4 64-99.2 86.4c-54.4 38.4-80 41.6-92.8 41.6h-496c-44.8 0-80-35.2-80-80v-864c0-44.8 35.2-80 80-80h736c44.8 0 80 35.2 80 80v624c0 12.8-3.2 38.4-41.6 89.6zM784 784c32-32 54.4-57.6 73.6-80h-153.6v153.6c22.4-16 51.2-41.6 80-73.6v0zM896 16c0-9.6-6.4-16-16-16h-736c-9.6 0-16 6.4-16 16v864c0 9.6 6.4 16 16 16 0 0 496 0 496 0v-224c0-19.2 12.8-32 32-32h224v-624z" />
<glyph unicode="&#xf63b;" glyph-name="forums-new3" horiz-adv-x="992" d="M892.8-64h-649.6c-48 0-73.6 28.8-83.2 73.6v307.2l-131.2 64c-19.2 12.8-28.8 38.4-28.8 57.6 0 28.8 9.6 48 38.4 54.4l131.2 54.4v348.8c0 38.4 28.8 64 73.6 64v0h652.8c9.6 0 112 0 112-64v-883.2c-3.2-38.4-32-76.8-115.2-76.8v0zM259.2 28.8h652.8v838.4h-652.8v-316.8c0-38.4-19.2-64-48-83.2l-73.6-28.8 64-38.4c28.8-19.2 48-48 48-83.2 3.2 0 9.6-288 9.6-288zM73.6 409.6v0zM73.6 496v0zM921.6 867.2v0zM726.4 496h-278.4c-28.8 0-54.4 19.2-54.4 48s28.8 48 54.4 48h278.4c19.2 0 38.4-19.2 38.4-48s-19.2-48-38.4-48zM726.4 307.2h-185.6c-28.8 0-54.4 19.2-54.4 48s28.8 48 54.4 48h185.6c19.2 0 38.4-19.2 38.4-48s-19.2-48-38.4-48z" />
<glyph unicode="&#xf63c;" glyph-name="Full-screen" d="M1001.6 960h-972.8c-16 0-28.8-12.8-28.8-28.8v-758.4c0-16 12.8-28.8 28.8-28.8h454.4v-150.4h-236.8c-16 0-28.8-12.8-28.8-28.8s12.8-28.8 28.8-28.8h528c16 0 28.8 12.8 28.8 28.8s-12.8 28.8-28.8 28.8h-236.8v150.4h454.4c16 0 28.8 12.8 28.8 28.8v758.4c9.6 16-9.6 28.8-19.2 28.8v0zM972.8 201.6h-915.2v704h918.4v-704zM896 832h-185.6l185.6-192v192zM134.4 464v-185.6h185.6l-185.6 185.6z" />
<glyph unicode="&#xf63d;" glyph-name="funnel3" d="M1020.8 902.4c-6.4 9.6-16 19.2-28.8 19.2h-960c-12.8 0-22.4-6.4-28.8-19.2s-3.2-22.4 3.2-32l371.2-448v-412.8c0-9.6 6.4-19.2 16-25.6 6.4-3.2 9.6-3.2 16-3.2 3.2 0 9.6 0 12.8 3.2l208 102.4c9.6 6.4 16 16 16 28.8v310.4l371.2 448c6.4 6.4 9.6 19.2 3.2 28.8v0zM592 451.2c-3.2-6.4-6.4-12.8-6.4-19.2v-304l-147.2-73.6v377.6c0 6.4-3.2 12.8-6.4 19.2l-336 406.4h832c0 0-336-406.4-336-406.4z" />
<glyph unicode="&#xf63e;" glyph-name="grid" d="M681.6 918.4h169.6c35.2 0 64-12.8 89.6-38.4s38.4-54.4 38.4-89.6v-169.6c0-35.2-12.8-64-38.4-89.6s-54.4-38.4-89.6-38.4h-169.6c-35.2 0-64 12.8-89.6 38.4s-38.4 54.4-38.4 89.6v169.6c0 35.2 12.8 64 38.4 89.6s54.4 38.4 89.6 38.4zM169.6 406.4h169.6c35.2 0 64-12.8 89.6-38.4s38.4-54.4 38.4-89.6v-169.6c0-35.2-12.8-64-38.4-89.6s-54.4-38.4-89.6-38.4h-169.6c-35.2 0-64 12.8-89.6 38.4s-38.4 54.4-38.4 89.6v169.6c0 35.2 12.8 64 38.4 89.6s54.4 38.4 89.6 38.4zM342.4 320h-172.8c-12.8 0-22.4-3.2-28.8-12.8-9.6-9.6-12.8-19.2-12.8-28.8v-169.6c0-12.8 3.2-22.4 12.8-28.8 9.6-12.8 19.2-16 28.8-16h169.6c12.8 0 22.4 3.2 28.8 12.8 9.6 9.6 12.8 19.2 12.8 28.8v169.6c0 12.8-3.2 22.4-12.8 28.8-6.4 12.8-16 16-25.6 16zM169.6 918.4h169.6c35.2 0 64-12.8 89.6-38.4s38.4-54.4 38.4-89.6v-169.6c0-35.2-12.8-64-38.4-89.6s-54.4-38.4-89.6-38.4h-169.6c-35.2 0-64 12.8-89.6 38.4s-38.4 54.4-38.4 89.6v169.6c0 35.2 12.8 64 38.4 89.6s54.4 38.4 89.6 38.4zM342.4 832h-172.8c-9.6 0-19.2-3.2-28.8-12.8s-12.8-19.2-12.8-28.8v-169.6c0-12.8 3.2-22.4 12.8-28.8 9.6-12.8 19.2-16 28.8-16h169.6c12.8 0 22.4 3.2 28.8 12.8 9.6 9.6 12.8 19.2 12.8 28.8v172.8c0 12.8-3.2 22.4-12.8 28.8-6.4 9.6-16 12.8-25.6 12.8zM681.6 406.4h169.6c35.2 0 64-12.8 89.6-38.4s38.4-54.4 38.4-89.6v-169.6c0-35.2-12.8-64-38.4-89.6s-54.4-38.4-89.6-38.4h-169.6c-35.2 0-64 12.8-89.6 38.4s-38.4 54.4-38.4 89.6v169.6c0 35.2 12.8 64 38.4 89.6s54.4 38.4 89.6 38.4zM854.4 320h-169.6c-12.8 0-22.4-3.2-28.8-12.8-12.8-9.6-16-19.2-16-28.8v-169.6c0-12.8 3.2-22.4 12.8-28.8 9.6-9.6 19.2-12.8 28.8-12.8h169.6c12.8 0 22.4 3.2 28.8 12.8 9.6 9.6 12.8 19.2 12.8 28.8v169.6c0 12.8-3.2 22.4-12.8 28.8-6.4 9.6-16 12.8-25.6 12.8zM854.4 832h-169.6c-12.8 0-22.4-3.2-28.8-12.8s-16-19.2-16-28.8v-169.6c0-12.8 3.2-22.4 12.8-28.8 9.6-9.6 19.2-12.8 28.8-12.8h169.6c12.8 0 22.4 3.2 28.8 12.8 9.6 9.6 12.8 19.2 12.8 28.8v169.6c0 12.8-3.2 22.4-12.8 28.8s-16 12.8-25.6 12.8z" />
<glyph unicode="&#xf63f;" glyph-name="home2" d="M512 736l-320-256v-416h224v256h192v-256h224v416l-320 256zM800 96h-160v256h-256v-256h-160v368l288 230.4 288-230.4v-368zM512 832l-192-153.6v89.6h-128v-192l-64-51.2 22.4-22.4 361.6 288 361.6-288 22.4 22.4-384 307.2zM288 652.8l-64-51.2v134.4h64v-83.2z" />
<glyph unicode="&#xf640;" glyph-name="hotspot" d="M512-64c-281.6 0-512 230.4-512 512s230.4 512 512 512 512-230.4 512-512-230.4-512-512-512zM512 912c-252.8 0-464-211.2-464-464s211.2-464 464-464 464 211.2 464 464v0c0 252.8-211.2 464-464 464 0 0 0 0 0 0zM512 761.6c169.6 0 313.6-140.8 313.6-313.6s-140.8-313.6-313.6-313.6-313.6 144-313.6 313.6 144 313.6 313.6 313.6z" />
<glyph unicode="&#xf641;" glyph-name="Idea-1px" horiz-adv-x="992" d="M105.6 473.6h-96c-6.4 0-9.6 3.2-9.6 9.6s3.2 9.6 9.6 9.6h99.2c6.4 0 9.6-3.2 9.6-9.6s-6.4-9.6-12.8-9.6zM979.2 473.6h-99.2c-6.4 0-9.6 3.2-9.6 9.6s3.2 9.6 9.6 9.6h99.2c6.4 0 9.6-3.2 9.6-9.6s-6.4-9.6-9.6-9.6zM486.4 844.8c-6.4 0-9.6 3.2-9.6 9.6v96c3.2 6.4 6.4 9.6 9.6 9.6s9.6-3.2 9.6-9.6v-99.2c0-3.2-3.2-6.4-9.6-6.4zM300.8 806.4c-3.2 0-6.4 3.2-6.4 3.2l-51.2 86.4c-3.2 3.2-3.2 6.4 0 9.6s9.6 0 12.8 0c0 0 0 0 0 0l51.2-86.4c3.2-3.2 3.2-9.6-3.2-12.8v0c-3.2 0-3.2 0-3.2 0v0zM684.8 809.6c-6.4 0-9.6 3.2-9.6 9.6 0 3.2 0 3.2 0 6.4l54.4 83.2c3.2 3.2 9.6 3.2 12.8 0s3.2-6.4 0-9.6l-54.4-83.2c0-6.4-3.2-6.4-3.2-6.4v0zM156.8 665.6c-3.2 0-3.2 0-3.2 3.2l-83.2 48c-6.4 0-6.4 6.4-6.4 9.6 3.2 3.2 6.4 6.4 12.8 3.2v0l83.2-48c3.2-3.2 6.4-6.4 3.2-12.8 0 0-3.2-3.2-6.4-3.2zM825.6 662.4c-6.4 0-9.6 3.2-9.6 9.6 0 3.2 0 6.4 3.2 6.4l83.2 54.4c3.2 3.2 9.6 3.2 12.8-3.2s0-9.6 0-12.8l-83.2-54.4c-3.2 3.2-6.4 0-6.4 0v0zM681.6 704c-60.8 54.4-144 80-227.2 70.4-156.8-19.2-272-160-252.8-320 6.4-60.8 35.2-118.4 76.8-163.2 41.6-41.6 64-96 64-153.6v-108.8c0-48 38.4-86.4 86.4-86.4h115.2c48 0 86.4 38.4 86.4 86.4v99.2c0 60.8 22.4 115.2 60.8 160 112 115.2 108.8 297.6-6.4 409.6 3.2 0 0 3.2-3.2 6.4v0zM617.6 128v-73.6h-259.2v73.6h259.2zM547.2-48h-118.4c-38.4 0-70.4 32-70.4 70.4v12.8h259.2v-12.8c0-38.4-32-70.4-70.4-70.4v0zM684.8 297.6c-41.6-41.6-64-96-67.2-153.6h-259.2c-3.2 60.8-28.8 115.2-67.2 156.8-102.4 108.8-99.2 281.6 9.6 387.2 41.6 41.6 96 67.2 156.8 73.6 12.8 3.2 22.4 3.2 32 3.2 67.2 0 131.2-25.6 182.4-70.4 112-99.2 121.6-272 22.4-387.2-3.2-3.2-6.4-6.4-9.6-9.6v0z" />
<glyph unicode="&#xf642;" glyph-name="image" d="M960 832c0 0 0 0 0 0v-768c0 0 0 0 0 0h-896c0 0 0 0 0 0v768c0 0 0 0 0 0s896 0 896 0zM960 896h-896c-35.2 0-64-28.8-64-64v-768c0-35.2 28.8-64 64-64h896c35.2 0 64 28.8 64 64v768c0 35.2-28.8 64-64 64v0zM832 672c0-54.4-41.6-96-96-96s-96 41.6-96 96 41.6 96 96 96 96-41.6 96-96zM896 128h-768v128l224 384 256-320h64l224 192v-384z" />
<glyph unicode="&#xf643;" glyph-name="KB-TOP-BAR_Gamification" d="M809.6 80c-12.8 0-25.6 0-38.4 3.2-86.4 22.4-163.2 73.6-214.4 153.6h-92.8c-51.2-73.6-118.4-124.8-195.2-150.4-54.4-16-144-3.2-192 41.6-54.4 60.8-105.6 169.6-28.8 384 54.4 166.4 137.6 265.6 230.4 291.2 64 22.4 137.6 9.6 201.6-41.6h64c64 48 137.6 64 201.6 48 92.8-25.6 176-124.8 230.4-291.2 80-230.4 22.4-342.4-41.6-393.6-28.8-25.6-76.8-44.8-124.8-44.8v0zM448 307.2h128c12.8 0 22.4-3.2 25.6-12.8 48-76.8 112-124.8 188.8-140.8 28.8-9.6 80 3.2 102.4 22.4 67.2 60.8 76.8 169.6 25.6 323.2-51.2 140.8-115.2 230.4-188.8 252.8-64 16-124.8-16-153.6-41.6-3.2-3.2-12.8-9.6-22.4-9.6h-86.4c-9.6 0-12.8 3.2-22.4 9.6-28.8 16-86.4 54.4-153.6 38.4-70.4-22.4-134.4-108.8-185.6-252.8s-48-256 16-316.8c25.6-25.6 86.4-38.4 128-25.6 67.2 22.4 128 67.2 169.6 137.6 6.4 6.4 16 16 28.8 16v0zM720 460.8c-16 0-35.2-12.8-35.2-35.2 0-16 12.8-35.2 35.2-35.2 16 0 35.2 12.8 35.2 35.2s-16 35.2-35.2 35.2zM720 611.2c-16 0-35.2-12.8-35.2-35.2 0-16 12.8-35.2 35.2-35.2 16 0 35.2 12.8 35.2 35.2 0 16-16 35.2-35.2 35.2zM758.4 502.4c0-16 12.8-35.2 35.2-35.2s35.2 12.8 35.2 35.2c0 16-12.8 35.2-35.2 35.2s-35.2-16-35.2-35.2zM614.4 502.4c0-16 12.8-35.2 35.2-35.2 16 0 35.2 12.8 35.2 35.2 0 16-12.8 35.2-35.2 35.2-22.4-3.2-35.2-16-35.2-35.2zM432 534.4h-64v64c0 16-12.8 35.2-35.2 35.2s-28.8-16-28.8-35.2v-64h-64c-16 0-35.2-12.8-35.2-35.2s12.8-35.2 35.2-35.2h64v-60.8c0-16 12.8-35.2 35.2-35.2s35.2 12.8 35.2 35.2v64h64c16 0 35.2 12.8 35.2 35.2s-25.6 32-41.6 32v0z" />
<glyph unicode="&#xf644;" d="M944 678.4c0-112-89.6-204.8-204.8-204.8s-204.8 89.6-204.8 204.8 89.6 204.8 204.8 204.8 204.8-89.6 204.8-204.8z" />
<glyph unicode="&#xf645;" d="M720 12.8h-502.4c-73.6 0-137.6 60.8-137.6 137.6v502.4c0 76.8 60.8 137.6 137.6 137.6h201.6c16 0 35.2-12.8 35.2-35.2s-12.8-35.2-35.2-35.2h-201.6c-38.4 0-73.6-35.2-73.6-73.6v-499.2c0-38.4 28.8-73.6 73.6-73.6h508.8c38.4 0 73.6 35.2 73.6 73.6v217.6c0 16 12.8 35.2 35.2 35.2s35.2-12.8 35.2-35.2v-217.6c-12.8-73.6-73.6-134.4-150.4-134.4v0zM508.8 464c0 16-12.8 35.2-35.2 35.2h-176c-16 0-35.2-12.8-35.2-35.2s12.8-35.2 35.2-35.2h179.2c19.2 6.4 32 19.2 32 35.2v0zM652.8 268.8c0 16-12.8 35.2-35.2 35.2h-320c-16 0-35.2-12.8-35.2-35.2s12.8-35.2 35.2-35.2h320c22.4 6.4 35.2 19.2 35.2 35.2z" />
<glyph unicode="&#xf646;" glyph-name="KB-TOP-BAR_Setup" d="M560 9.6h-89.6c-28.8 0-51.2 22.4-54.4 51.2l-16 76.8c-9.6 3.2-16 3.2-25.6 9.6l-64-41.6c-22.4-16-54.4-16-73.6 3.2l-64 60.8c-9.6 9.6-16 25.6-16 38.4s3.2 25.6 12.8 35.2l38.4 64c-6.4 3.2-12.8 12.8-16 25.6l-73.6 16c-28.8 3.2-51.2 25.6-51.2 54.4v89.6c0 28.8 22.4 51.2 51.2 54.4l67.2 16c3.2 12.8 9.6 22.4 12.8 35.2l-32 54.4c-9.6 9.6-12.8 22.4-12.8 35.2 0 16 3.2 28.8 16 41.6l60.8 60.8c22.4 22.4 51.2 22.4 73.6 3.2l54.4-38.4c16 9.6 25.6 12.8 38.4 16l12.8 64c3.2 28.8 25.6 51.2 54.4 51.2h89.6c28.8 0 51.2-22.4 54.4-51.2l16-67.2c12.8-3.2 22.4-9.6 35.2-12.8l60.8 38.4c22.4 16 54.4 16 73.6-3.2l64-60.8c9.6-9.6 16-25.6 16-38.4s-3.2-25.6-12.8-35.2l-38.4-60.8c3.2-9.6 9.6-22.4 12.8-28.8l73.6-16c28.8-3.2 51.2-25.6 51.2-54.4v-89.6c0-28.8-22.4-51.2-51.2-54.4l-76.8-16c-3.2-9.6-9.6-16-9.6-25.6l41.6-64c9.6-9.6 12.8-22.4 12.8-35.2s-3.2-28.8-16-38.4l-64-64c-22.4-22.4-51.2-22.4-73.6-3.2l-67.2 41.6c-9.6-3.2-16-9.6-22.4-9.6l-16-76.8c-6.4-32-32-51.2-57.6-51.2zM473.6 73.6h73.6l22.4 92.8c3.2 12.8 12.8 22.4 22.4 25.6 16 3.2 28.8 12.8 48 22.4 9.6 3.2 22.4 3.2 35.2 0l80-51.2 51.2 51.2-51.2 80c-3.2 9.6-9.6 22.4 0 35.2 9.6 16 16 28.8 22.4 48 3.2 12.8 12.8 16 25.6 22.4l92.8 22.4v73.6l-92.8 16c-12.8 3.2-22.4 12.8-25.6 22.4-3.2 16-12.8 35.2-22.4 51.2-3.2 9.6-3.2 22.4 0 35.2l48 76.8-51.2 51.2-73.6-48c-9.6-9.6-22.4-9.6-35.2 0-16 9.6-38.4 16-54.4 25.6-12.8 3.2-22.4 12.8-22.4 25.6l-16 86.4h-73.6l-16-86.4c-3.2-12.8-12.8-22.4-22.4-25.6-25.6-12.8-41.6-22.4-64-35.2-9.6-3.2-22.4-3.2-35.2 0l-67.2 51.2-54.4-54.4 48-73.6c3.2-9.6 9.6-22.4 0-35.2-9.6-16-16-35.2-22.4-54.4-3.2-12.8-12.8-22.4-25.6-22.4l-86.4-16v-73.6l89.6-22.4c12.8-3.2 22.4-12.8 25.6-22.4 3.2-16 12.8-35.2 22.4-51.2 3.2-9.6 3.2-22.4 0-35.2l-51.2-76.8 51.2-51.2 80 51.2c9.6 3.2 22.4 9.6 28.8 0 16-9.6 28.8-12.8 48-22.4 12.8-3.2 22.4-12.8 22.4-25.6l25.6-83.2zM512 294.4c-86.4 0-153.6 67.2-153.6 153.6s67.2 153.6 153.6 153.6 153.6-67.2 153.6-153.6-67.2-153.6-153.6-153.6zM512 537.6c-48 0-89.6-38.4-89.6-89.6s38.4-89.6 89.6-89.6 89.6 38.4 89.6 89.6-41.6 89.6-89.6 89.6z" />
<glyph unicode="&#xf647;" d="M144 566.4c-6.4-3.2-16 3.2-16 12.8s3.2 16 12.8 19.2c89.6 19.2 182.4 22.4 272 6.4 9.6 0 16-9.6 12.8-19.2s-9.6-16-19.2-12.8c-86.4 16-172.8 12.8-252.8-6.4h-9.6zM144 432c-9.6 0-16 6.4-16 16s6.4 16 16 16c60.8 9.6 118.4 12.8 179.2 6.4 9.6 0 16-9.6 16-16 0-9.6-6.4-16-16-16v0c-60.8 3.2-118.4 3.2-179.2-6.4v0c0 0 0 0 0 0zM480 35.2c-3.2 0-3.2 0-6.4 0-137.6 57.6-336 28.8-428.8 3.2-9.6-3.2-22.4 0-28.8 6.4-12.8 9.6-16 22.4-16 35.2l3.2 694.4c0 6.4 3.2 12.8 9.6 12.8 195.2 105.6 441.6 35.2 480 25.6 16 3.2 76.8 16 121.6 22.4 9.6 0 16-6.4 19.2-12.8 0-9.6-6.4-16-12.8-19.2-54.4-6.4-124.8-22.4-124.8-22.4-3.2 0-6.4 0-9.6 0 0 0-252.8 80-448-16l-6.4-688c0-3.2 0-3.2 3.2-6.4 28.8 6.4 268.8 64 444.8-6.4h38.4c22.4 9.6 163.2 60.8 464 3.2h3.2c3.2 3.2 3.2 6.4 3.2 9.6v688c-19.2 6.4-60.8 19.2-96 28.8-9.6 3.2-12.8 12.8-9.6 19.2 3.2 9.6 12.8 12.8 19.2 9.6v0c44.8-16 99.2-32 102.4-32 9.6 0 16-6.4 16-12.8v-694.4c0-12.8-6.4-25.6-16-35.2-9.6-6.4-19.2-9.6-32-9.6-313.6 60.8-444.8 0-444.8 0-3.2 0-3.2 0-6.4 0l-44.8-3.2h3.2zM476.8 796.8h32l3.2-745.6h-32c0 0-3.2 745.6-3.2 745.6z" />
<glyph unicode="&#xf648;" d="M681.6 848l9.6-537.6c0-3.2 3.2-3.2 6.4-3.2s3.2 3.2 3.2 3.2l70.4 220.8 67.2-227.2c3.2-3.2 6.4-6.4 9.6-3.2 3.2 0 3.2 3.2 3.2 6.4l-6.4 537.6c0 0-96 35.2-163.2 3.2v0z" />
<glyph unicode="&#xf649;" glyph-name="kbmorefilter" d="M182.4 448v435.2c0 12.8-9.6 22.4-22.4 22.4s-25.6-9.6-25.6-22.4v-435.2c-76.8-12.8-134.4-80-134.4-160s57.6-147.2 134.4-160v-112c0-12.8 9.6-22.4 22.4-22.4s22.4 9.6 22.4 22.4v112c80 9.6 144 80 144 163.2s-60.8 147.2-140.8 156.8zM163.2 169.6c-64 0-115.2 51.2-115.2 115.2s51.2 115.2 115.2 115.2c64 0 115.2-51.2 115.2-115.2s-51.2-115.2-115.2-115.2zM883.2 544v339.2c0 12.8-9.6 22.4-22.4 22.4s-22.4-9.6-22.4-22.4v-339.2c-76.8-12.8-137.6-80-137.6-160s60.8-150.4 137.6-160v-208c0-12.8 9.6-22.4 22.4-22.4s22.4 9.6 22.4 22.4v208c80 9.6 140.8 80 140.8 160s-60.8 147.2-140.8 160zM860.8 265.6c-64 0-115.2 51.2-115.2 115.2s51.2 115.2 115.2 115.2c64 0 115.2-51.2 115.2-115.2 0-60.8-51.2-115.2-115.2-115.2zM534.4 796.8v86.4c0 12.8-9.6 22.4-22.4 22.4s-22.4-9.6-22.4-22.4v-86.4c-76.8-12.8-137.6-80-137.6-160s60.8-147.2 137.6-160v-460.8c0-12.8 9.6-22.4 22.4-22.4s22.4 9.6 22.4 22.4v457.6c80 9.6 140.8 80 140.8 160 0 86.4-60.8 153.6-140.8 163.2zM512 521.6c-64 0-115.2 51.2-115.2 115.2s51.2 115.2 115.2 115.2c64 0 115.2-51.2 115.2-115.2s-51.2-115.2-115.2-115.2z" />
<glyph unicode="&#xf64a;" glyph-name="keyboard_backspace" d="M896 489.6v-83.2h-604.8l153.6-153.6-60.8-60.8-256 256 256 256 60.8-60.8-153.6-153.6h604.8z" />
<glyph unicode="&#xf64b;" glyph-name="Keyboard3" horiz-adv-x="1856" d="M1817.6-64h-1785.6c-19.2 0-32 12.8-32 32v960c0 19.2 12.8 32 32 32h1785.6c19.2 0 32-12.8 32-32v-960c0-19.2-12.8-32-32-32zM67.2 3.2h1718.4v889.6h-1718.4c0 0 0-889.6 0-889.6zM217.6 684.8h124.8c19.2 0 32-12.8 32-32v-124.8c-6.4-12.8-19.2-25.6-38.4-25.6h-118.4c-19.2 0-32 12.8-32 32v118.4c-3.2 19.2 12.8 32 32 32zM473.6 684.8h124.8c19.2 0 32-12.8 32-32v-124.8c0-12.8-12.8-25.6-32-25.6h-124.8c-19.2 0-32 12.8-32 32v118.4c-3.2 19.2 12.8 32 32 32zM736 684.8h118.4c19.2 0 32-12.8 32-32v-124.8c0-12.8-12.8-25.6-32-25.6h-124.8c-19.2 0-32 12.8-32 32v118.4c3.2 19.2 19.2 32 38.4 32zM992 684.8h124.8c19.2 0 32-12.8 32-32v-124.8c0-12.8-12.8-25.6-32-25.6h-124.8c-19.2 0-32 12.8-32 32v118.4c-3.2 19.2 12.8 32 32 32zM1254.4 684.8h124.8c19.2 0 32-12.8 32-32v-124.8c0-12.8-19.2-25.6-32-25.6h-124.8c-19.2 0-32 12.8-32 32v118.4c0 19.2 12.8 32 32 32zM1510.4 684.8h124.8c19.2 0 32-12.8 32-32v-124.8c0-19.2-12.8-32-32-32h-124.8c-19.2 0-32 12.8-32 32v124.8c0 19.2 19.2 32 32 32zM1510.4 374.4h124.8c19.2 0 32-12.8 32-32v-124.8c0-19.2-12.8-32-32-32h-124.8c-19.2 0-32 12.8-32 32v124.8c0 19.2 19.2 32 32 32zM1254.4 374.4h124.8c19.2 0 32-12.8 32-32v-124.8c0-19.2-12.8-32-32-32h-124.8c-19.2 0-32 12.8-32 32v124.8c0 19.2 12.8 32 32 32zM217.6 374.4h124.8c19.2 0 32-12.8 32-32v-124.8c0-19.2-12.8-32-32-32h-124.8c-19.2 0-32 12.8-32 32v124.8c-3.2 19.2 12.8 32 32 32zM473.6 374.4h643.2c19.2 0 32-12.8 32-32v-124.8c0-19.2-12.8-32-32-32h-643.2c-19.2 0-32 12.8-32 32v124.8c-3.2 19.2 12.8 32 32 32z" />
<glyph unicode="&#xf64c;" glyph-name="lang-1" horiz-adv-x="704" d="M691.2 153.6c-22.4 48-92.8 6.4-70.4-41.6 44.8-86.4-99.2-96-140.8-89.6-48 9.6-96 25.6-144 41.6s-92.8 28.8-128 38.4c28.8 265.6 19.2 556.8-9.6 819.2-6.4 51.2-83.2 51.2-80 0 9.6-147.2 28.8-300.8 28.8-460.8 0-76.8-3.2-150.4-9.6-224-3.2-32-3.2-64-6.4-96 0-9.6-3.2-16-3.2-25.6-51.2 9.6-64 3.2-86.4-9.6-16-12.8-28.8-28.8-38.4-48-19.2-64 28.8-118.4 70.4-121.6 70.4-6.4 105.6 32 121.6 83.2 64-16 124.8-38.4 172.8-51.2 64-19.2 134.4-48 204.8-32 96 25.6 166.4 124.8 118.4 217.6v0z" />
<glyph unicode="&#xf64d;" glyph-name="LHSAccounts" horiz-adv-x="1952" d="M1705.6 412.8c51.2 38.4 80 99.2 80 166.4v0c0 118.4-92.8 211.2-211.2 211.2s-211.2-92.8-211.2-211.2c0-67.2 38.4-131.2 86.4-166.4-51.2-12.8-99.2-38.4-144-60.8-54.4 54.4-124.8 99.2-198.4 124.8 73.6 51.2 124.8 131.2 124.8 224v0c0 144-118.4 259.2-259.2 259.2s-265.6-118.4-265.6-265.6c0-92.8 51.2-172.8 124.8-224-80-25.6-150.4-67.2-204.8-124.8-44.8 32-86.4 51.2-137.6 67.2 54.4 38.4 86.4 99.2 86.4 166.4v0c0 118.4-92.8 211.2-211.2 204.8-115.2 9.6-211.2-89.6-204.8-201.6 0-67.2 38.4-131.2 86.4-166.4-140.8-51.2-246.4-188.8-240-348.8 0-32 0-67.2 32-67.2h460.8c0-38.4 6.4-60.8 38.4-60.8h880c32 0 38.4 32 38.4 60.8h464c32 0 32 32 32 73.6 3.2 160-102.4 297.6-246.4 339.2zM1427.2 582.4c0 80 67.2 150.4 150.4 150.4v0c80 0 150.4-67.2 150.4-150.4v0c0-80-67.2-150.4-150.4-150.4s-150.4 67.2-150.4 150.4zM768 700.8c0 112 92.8 204.8 204.8 204.8v0c112-6.4 204.8-99.2 204.8-211.2v0c0-112-92.8-204.8-204.8-204.8v0c-115.2 6.4-204.8 92.8-204.8 211.2zM224 582.4c0 80 67.2 150.4 150.4 144 80 0 150.4-67.2 144-150.4v0c0-80-67.2-150.4-150.4-144v0c-83.2 0-150.4 67.2-144 150.4zM496 60.8h-422.4v12.8c0 166.4 137.6 297.6 297.6 297.6 73.6-6.4 150.4-32 211.2-73.6-44.8-60.8-73.6-137.6-92.8-211.2 6.4-6.4 6.4-12.8 6.4-25.6zM1388.8-3.2h-832c0 6.4 0 12.8 0 19.2v6.4c0 19.2 0 44.8 6.4 60.8 12.8 67.2 51.2 137.6 92.8 192l19.2 25.6c73.6 73.6 179.2 124.8 297.6 124.8 230.4 0 416-185.6 416-409.6 0-6.4 0-12.8 0-19.2zM1875.2 60.8h-422.4c0 6.4 0 12.8 0 19.2-6.4 54.4-25.6 105.6-51.2 150.4 0 0 0 6.4-6.4 6.4-6.4 6.4-12.8 19.2-19.2 25.6-6.4 12.8-12.8 25.6-25.6 38.4 73.6 44.8 153.6 60.8 243.2 67.2 0 0 0 0 6.4 0 160-6.4 284.8-144 278.4-297.6v-6.4l-3.2-3.2z" />
<glyph unicode="&#xf64e;" glyph-name="LHSarticles" horiz-adv-x="768" d="M710.4-64h-640c-35.2 0-70.4 35.2-70.4 73.6v876.8c0 38.4 35.2 73.6 73.6 73.6h640c38.4 0 73.6-35.2 73.6-73.6v-876.8c-3.2-38.4-35.2-73.6-76.8-73.6zM73.6 912c-16 0-25.6-9.6-25.6-25.6v-876.8c0-16 9.6-25.6 25.6-25.6h640c16 0 25.6 9.6 25.6 25.6v876.8c0 16-9.6 25.6-25.6 25.6-3.2 0-640 0-640 0zM425.6 355.2v604.8h195.2v-604.8l-96 169.6-99.2-169.6zM521.6 598.4c9.6 0 19.2-6.4 25.6-16l25.6-44.8v374.4h-96v-368l19.2 38.4c6.4 6.4 16 12.8 25.6 16v0c0 0 0 0 0 0zM131.2 652.8h195.2v-48h-195.2v48zM131.2 457.6h195.2v-48h-195.2v48zM131.2 262.4h486.4v-48h-486.4c0 0 0 48 0 48z" />
<glyph unicode="&#xf64f;" glyph-name="LHSContacts" horiz-adv-x="960" d="M953.6 12.8c0 220.8-150.4 400-352 457.6 80 44.8 134.4 131.2 134.4 230.4v0c0 144-121.6 262.4-265.6 262.4s-259.2-124.8-259.2-268.8c0-99.2 54.4-179.2 134.4-227.2-201.6-54.4-352-233.6-345.6-454.4 0-48 0-76.8 28.8-76.8h892.8c32 0 32 35.2 32 76.8v0zM262.4 697.6c0 115.2 96 211.2 214.4 211.2v0c115.2 0 211.2-96 211.2-211.2v0c0-115.2-96-211.2-211.2-211.2v0c-6.4 0-6.4 0-9.6 0-115.2 3.2-204.8 96-204.8 211.2zM902.4-12.8h-851.2c0 9.6 0 19.2 0 25.6s0 6.4 0 9.6c6.4 230.4 195.2 416 425.6 412.8 236.8 0 425.6-192 425.6-425.6 0-9.6 0-12.8 0-22.4v0z" />
<glyph unicode="&#xf650;" glyph-name="LHSFeeds" d="M361.6 115.2c0-99.2-83.2-179.2-179.2-179.2s-182.4 83.2-182.4 179.2 83.2 179.2 179.2 179.2v0c99.2 3.2 182.4-76.8 182.4-179.2zM1024 115.2c0 467.2-377.6 844.8-844.8 844.8-25.6 0-51.2-22.4-51.2-51.2s22.4-51.2 51.2-51.2c409.6 0 742.4-332.8 742.4-742.4 0-28.8 22.4-51.2 51.2-51.2s51.2 25.6 51.2 51.2v0 0zM812.8 115.2c0 348.8-281.6 633.6-633.6 633.6-25.6 0-51.2-22.4-51.2-51.2s22.4-51.2 51.2-51.2c291.2 0 531.2-236.8 531.2-531.2 0-28.8 22.4-51.2 51.2-51.2s51.2 25.6 51.2 51.2v0zM582.4 115.2c0 220.8-179.2 400-400 400-28.8 0-51.2-22.4-51.2-51.2-3.2-25.6 22.4-48 48-48 163.2 0 300.8-131.2 300.8-300.8 0-28.8 22.4-51.2 51.2-51.2 25.6 0 51.2 25.6 51.2 51.2z" />
<glyph unicode="&#xf651;" glyph-name="LHSForums" horiz-adv-x="928" d="M844.8-64h-585.6c-54.4 0-96 44.8-96 96v262.4c0 19.2-9.6 35.2-25.6 44.8l-112 57.6c-25.6 9.6-28.8 38.4-19.2 64 6.4 9.6 16 16 25.6 19.2l102.4 38.4c16 12.8 25.6 32 25.6 51.2v294.4c0 54.4 44.8 96 96 96h585.6c54.4 0 96-44.8 96-96v-832c3.2-51.2-41.6-96-92.8-96v0zM54.4 432l105.6-51.2c35.2-16 54.4-48 54.4-86.4v-262.4c0-28.8 19.2-48 48-48h585.6c28.8 0 48 19.2 48 48v832c0 28.8-19.2 48-48 48h-585.6c-28.8 0-48-19.2-48-48v-297.6c0-38.4-25.6-73.6-57.6-86.4l-102.4-48zM355.2 668.8h390.4v-48h-390.4v48zM355.2 473.6h390.4v-48h-390.4c0-3.2 0 48 0 48zM502.4 278.4h243.2v-48h-243.2v48z" />
<glyph unicode="&#xf652;" glyph-name="LHSHQ" d="M432 499.2h-403.2c-16 0-28.8 16-28.8 28.8v403.2c0 12.8 16 28.8 28.8 28.8v0h400c16 0 28.8-16 28.8-28.8v-400c3.2-16-12.8-32-25.6-32zM1024 528v403.2c0 12.8-16 28.8-28.8 28.8h-403.2c-16 0-28.8-16-28.8-28.8v-400c0-16 16-28.8 28.8-28.8h400c16-3.2 32 12.8 32 25.6zM460.8-35.2v403.2c0 16-16 28.8-28.8 28.8h-403.2c-16 0-28.8-16-28.8-28.8v-400c0-16 16-32 28.8-32v0h400c16 0 32 16 32 28.8 0 0 0 0 0 0zM1024-35.2v403.2c0 16-9.6 28.8-28.8 28.8h-403.2c-16 0-28.8-16-28.8-28.8v-400c0-16 16-28.8 28.8-28.8v0h400c16-3.2 32 12.8 32 25.6z" />
<glyph unicode="&#xf653;" glyph-name="LHSOverview" horiz-adv-x="1120" d="M432 304l-323.2 163.2h-108.8v48h118.4l310.4-153.6 588.8 400h112v-48h-99.2l-598.4-409.6zM432 412.8c38.4 0 73.6-35.2 73.6-73.6s-35.2-73.6-73.6-73.6-73.6 35.2-73.6 73.6 35.2 73.6 73.6 73.6zM112 566.4c38.4 0 73.6-35.2 73.6-73.6s-35.2-73.6-73.6-73.6-73.6 35.2-73.6 73.6 35.2 73.6 73.6 73.6zM1024 812.8c38.4 0 73.6-35.2 73.6-73.6s-35.2-73.6-73.6-73.6-73.6 35.2-73.6 73.6 35.2 73.6 73.6 73.6zM99.2 614.4h-51.2v217.6c9.6 48 44.8 128 121.6 128h784c28.8 0 57.6-6.4 80-25.6 25.6-16 35.2-44.8 28.8-73.6h-48c0 16-6.4 25.6-16 38.4-9.6 6.4-25.6 9.6-38.4 9.6h-787.2c-60.8 3.2-73.6-76.8-73.6-83.2v-211.2zM454.4-64c-137.6 0-256 0-291.2 6.4h-6.4c-70.4 16-112 73.6-108.8 144v284.8h48v-284.8c-6.4-44.8 25.6-83.2 73.6-92.8 102.4-6.4 758.4 0 787.2 0s73.6 6.4 73.6 89.6v531.2h48v-537.6c0-134.4-89.6-134.4-121.6-137.6-16 3.2-281.6-3.2-502.4-3.2v0z" />
<glyph unicode="&#xf654;" glyph-name="LHSQueue" horiz-adv-x="1088" d="M57.6 960h128c32 0 57.6-28.8 57.6-57.6v-905.6c0-32-28.8-57.6-57.6-57.6h-128c-32 0-57.6 28.8-57.6 57.6v905.6c0 28.8 28.8 57.6 57.6 57.6zM950.4 531.2c0-76.8-64-140.8-140.8-140.8s-140.8 64-140.8 140.8 64 140.8 140.8 140.8 140.8-60.8 140.8-140.8zM809.6 348.8c-144 0-265.6-118.4-265.6-265.6v0-144h531.2v144c-3.2 147.2-121.6 265.6-265.6 265.6v0zM480 76.8c0 89.6 41.6 176 108.8 230.4v595.2c0 32-28.8 57.6-57.6 57.6v0h-128c-32 0-57.6-28.8-57.6-57.6v-905.6c0-32 28.8-57.6 57.6-57.6h76.8v137.6z" />
<glyph unicode="&#xf655;" glyph-name="LHSReports" horiz-adv-x="960" d="M252.8-64h-214.4c-19.2 0-38.4 19.2-38.4 38.4v947.2c0 19.2 19.2 38.4 38.4 38.4h214.4c25.6 0 38.4-19.2 38.4-38.4v-947.2c0-19.2-12.8-38.4-38.4-38.4v0zM48-16h195.2v928h-195.2c0 0 0-928 0-928zM595.2-64h-214.4c-19.2 0-38.4 19.2-38.4 38.4v668.8c0 25.6 19.2 38.4 38.4 38.4h214.4c25.6 0 38.4-16 38.4-38.4v-668.8c0-19.2-12.8-38.4-38.4-38.4v0zM390.4-16h195.2v649.6h-195.2c0 0 0-649.6 0-649.6zM937.6-64h-214.4c-19.2 0-38.4 19.2-38.4 38.4v448c0 19.2 19.2 38.4 38.4 38.4h214.4c19.2 0 38.4-19.2 38.4-38.4v-448c0-19.2-16-38.4-38.4-38.4zM732.8-16h195.2v428.8h-195.2v-428.8z" />
<glyph unicode="&#xf656;" glyph-name="LHSViews" horiz-adv-x="1184" d="M307.2 672h313.6v-70.4h-313.6v70.4zM976 585.6v374.4h-566.4v-89.6h-224v-486.4h-144c-25.6 0-41.6-19.2-41.6-41.6 0-6.4 0-9.6 3.2-16l182.4-390.4h774.4c12.8 0 28.8 9.6 35.2 22.4l176 403.2c9.6 22.4 0 44.8-22.4 54.4-3.2 0-9.6 0-16 0h-118.4l28.8 51.2c9.6 16 3.2 41.6-12.8 51.2-6.4 3.2-9.6 3.2-16 3.2h-249.6c-12.8 0-25.6-6.4-32-22.4l-51.2-83.2h-240c-16 0-32-9.6-38.4-25.6l-144-329.6v739.2h470.4v-214.4h246.4z" />
<glyph unicode="&#xf657;" glyph-name="list22" d="M384 896h640v-128h-640v128zM384 512h640v-128h-640v128zM384 128h640v-128h-640v128zM0 832c0 70.4 57.6 128 128 128s128-57.6 128-128-57.6-128-128-128-128 57.6-128 128zM0 448c0 70.4 57.6 128 128 128s128-57.6 128-128-57.6-128-128-128-128 57.6-128 128zM0 64c0 70.4 57.6 128 128 128s128-57.6 128-128-57.6-128-128-128-128 57.6-128 128z" />
<glyph unicode="&#xf658;" glyph-name="livechat3" horiz-adv-x="1376" d="M195.2-64c-19.2 0-32 12.8-32 32 0 0 0 0 0 6.4l25.6 182.4c-121.6 76.8-188.8 204.8-188.8 352 0 249.6 224 451.2 499.2 451.2 48 0 96-6.4 147.2-19.2 19.2-6.4 25.6-22.4 25.6-35.2s-25.6-25.6-35.2-19.2v0c-48 12.8-92.8 12.8-134.4 12.8-246.4 0-441.6-176-441.6-390.4 0-128 67.2-249.6 176-316.8 12.8-6.4 12.8-19.2 12.8-32l-19.2-134.4 153.6 92.8c6.4 6.4 12.8 6.4 19.2 6.4 32-6.4 60.8-6.4 92.8-6.4 92.8-6.4 182.4 19.2 256 73.6 12.8 12.8 32 6.4 41.6-6.4 6.4-12.8 6.4-32-6.4-35.2-86.4-60.8-188.8-92.8-291.2-86.4-32 0-60.8 0-92.8 6.4l-201.6-121.6c0-12.8 0-12.8-6.4-12.8v0zM1177.6 83.2c-6.4 0-12.8 0-19.2 6.4l-169.6 108.8h-35.2c-224 0-416 163.2-416 371.2s182.4 371.2 416 371.2 416-163.2 416-371.2c0-115.2-54.4-220.8-153.6-288l-6.4-169.6c-3.2-16-16-28.8-32-28.8v0zM992 259.2c6.4 0 12.8 0 19.2-6.4l134.4-86.4 6.4 134.4c0 12.8 6.4 19.2 12.8 25.6 86.4 54.4 134.4 147.2 134.4 243.2 0 169.6-160 310.4-352 310.4s-348.8-140.8-348.8-310.4 160-310.4 352-310.4c12.8-6.4 25.6-6.4 41.6 0v0 0 0z" />
<glyph unicode="&#xf659;" glyph-name="location2" d="M512 393.6c105.6 0 192 86.4 192 192s-86.4 192-192 192-192-86.4-192-192 86.4-192 192-192zM512 745.6c89.6 0 160-70.4 160-160s-70.4-160-160-160-160 70.4-160 160 70.4 160 160 160zM512 960c-211.2 0-384-169.6-384-384 0-224 192-454.4 332.8-614.4 0 0 22.4-25.6 51.2-25.6 0 0 3.2 0 3.2 0 28.8 0 51.2 25.6 51.2 25.6 137.6 160 329.6 390.4 329.6 614.4 0 214.4-172.8 384-384 384zM515.2 3.2c0 0-3.2-3.2-3.2-3.2s-3.2 3.2-3.2 3.2c-118.4 137.6-316.8 364.8-316.8 572.8 0 176 144 320 320 320s320-144 320-320c0-208-198.4-435.2-316.8-572.8z" />
<glyph unicode="&#xf65a;" glyph-name="macro2" d="M633.6 393.6c0 0 0 0 0 0-12.8 0-22.4 9.6-22.4 19.2 0 12.8 9.6 22.4 19.2 22.4 70.4 0 128 57.6 124.8 128 0 70.4-57.6 124.8-128 124.8 0 0 0 0 0 0-35.2 0-67.2-12.8-89.6-38.4s-35.2-57.6-35.2-89.6c0-12.8-9.6-22.4-19.2-22.4v0c-12.8 0-19.2 9.6-19.2 19.2 0 44.8 16 86.4 48 118.4s73.6 51.2 118.4 51.2c0 0 0 0 0 0 92.8 0 166.4-73.6 169.6-166.4 0-89.6-73.6-163.2-166.4-166.4v0zM992 502.4l-32 12.8c3.2 32 3.2 64 0 96l32 12.8c12.8 6.4 22.4 16 28.8 28.8s6.4 28.8 0 41.6l-22.4 51.2c-6.4 12.8-16 22.4-28.8 28.8s-28.8 6.4-41.6 0l-32-12.8c-19.2 25.6-41.6 48-67.2 67.2l12.8 32c6.4 12.8 6.4 28.8 0 41.6s-16 22.4-28.8 28.8l-51.2 22.4c-25.6 9.6-57.6-3.2-70.4-32l-12.8-32c-32 3.2-64 3.2-96 0l-12.8 32c-6.4 12.8-16 22.4-28.8 28.8s-28.8 6.4-41.6 0l-51.2-22.4c-28.8-12.8-41.6-41.6-28.8-70.4l12.8-32c-25.6-19.2-48-41.6-67.2-67.2l-32 12.8c-12.8 6.4-28.8 6.4-41.6 0s-19.2-12.8-25.6-25.6l-22.4-51.2c-12.8-28.8 3.2-57.6 28.8-70.4l48-19.2c9.6-3.2 22.4 0 25.6 12.8s0 22.4-12.8 25.6l-44.8 19.2c-6.4 3.2-9.6 9.6-6.4 16l22.4 51.2c0 3.2 3.2 6.4 6.4 6.4s6.4 0 9.6 0l48-19.2c9.6-3.2 19.2 0 25.6 6.4 22.4 32 48 57.6 80 80 6.4 6.4 9.6 16 6.4 25.6l-19.2 48c-3.2 6.4 0 12.8 6.4 16l51.2 22.4c3.2 0 6.4 0 9.6 0s6.4-3.2 6.4-6.4l19.2-48c3.2-9.6 12.8-16 22.4-12.8 38.4 6.4 76.8 6.4 112 0 9.6-3.2 19.2 3.2 22.4 12.8l19.2 48c3.2 6.4 9.6 9.6 16 6.4l51.2-22.4c3.2 0 6.4-3.2 6.4-6.4s0-6.4 0-9.6l-19.2-48c-3.2-9.6 0-19.2 6.4-25.6 32-22.4 57.6-48 80-80 6.4-9.6 16-12.8 25.6-6.4l48 19.2c3.2 0 6.4 0 9.6 0s6.4-3.2 6.4-6.4l22.4-51.2c0-3.2 0-6.4 0-9.6s-3.2-6.4-6.4-6.4l-48-19.2c-9.6-3.2-12.8-12.8-12.8-22.4 6.4-38.4 6.4-76.8 0-112-3.2-9.6 3.2-19.2 12.8-22.4l48-19.2c6.4-3.2 9.6-9.6 6.4-16l-22.4-54.4c-3.2-6.4-9.6-9.6-16-6.4l-48 19.2c-9.6 3.2-19.2 0-25.6-6.4-22.4-32-48-57.6-80-80-9.6-6.4-12.8-16-6.4-25.6l19.2-48c0-3.2 0-6.4 0-9.6s-3.2-6.4-6.4-6.4l-51.2-22.4c-3.2 0-6.4 0-9.6 0s-6.4 3.2-6.4 6.4l-19.2 48c-3.2 9.6-16 16-25.6 12.8s-16-16-12.8-25.6l19.2-48c6.4-12.8 16-22.4 28.8-28.8 6.4-3.2 12.8-3.2 19.2-3.2s12.8 0 19.2 3.2l51.2 22.4c12.8 6.4 22.4 16 28.8 28.8s6.4 28.8 0 41.6l-12.8 32c25.6 19.2 48 41.6 67.2 67.2l32-12.8c28.8-12.8 57.6 3.2 70.4 28.8l22.4 51.2c12.8 25.6 0 57.6-25.6 67.2v0zM425.6 243.2c0-67.2-54.4-121.6-121.6-121.6s-121.6 54.4-121.6 121.6c0 67.2 54.4 121.6 121.6 121.6s121.6-54.4 121.6-121.6zM384 243.2c0 44.8-35.2 80-80 80s-83.2-35.2-83.2-80c0-44.8 35.2-80 80-80s83.2 35.2 83.2 80zM604.8 262.4v-38.4c0-25.6-19.2-44.8-44.8-44.8h-19.2c-6.4-19.2-12.8-38.4-22.4-57.6l16-16c9.6-9.6 12.8-19.2 12.8-32s-3.2-22.4-12.8-32l-28.8-28.8c-9.6-9.6-19.2-12.8-32-12.8s-22.4 3.2-32 12.8l-16 16c-19.2-9.6-38.4-19.2-57.6-22.4v-19.2c0-25.6-19.2-44.8-44.8-44.8h-41.6c-25.6 0-44.8 19.2-44.8 44.8v19.2c-19.2 6.4-38.4 12.8-57.6 22.4l-16-16c-9.6-9.6-19.2-12.8-32-12.8s-22.4 3.2-32 12.8l-28.8 28.8c-16 16-16 44.8 0 64l16 16c-6.4 19.2-16 38.4-22.4 57.6h-19.2c-25.6 0-44.8 19.2-44.8 44.8v41.6c0 25.6 19.2 44.8 44.8 44.8h19.2c6.4 19.2 12.8 38.4 22.4 57.6l-16 16c-16 16-16 44.8 0 64l28.8 28.8c9.6 9.6 19.2 12.8 32 12.8s22.4-3.2 32-12.8l16-16c19.2 9.6 38.4 19.2 57.6 22.4v19.2c0 25.6 19.2 44.8 44.8 44.8h41.6c25.6 0 44.8-19.2 44.8-44.8v-22.4c19.2-6.4 38.4-12.8 57.6-22.4l16 16c9.6 9.6 19.2 12.8 32 12.8s22.4-3.2 32-12.8l28.8-28.8c9.6-9.6 12.8-19.2 12.8-32s-3.2-22.4-12.8-32l-16-16c9.6-19.2 19.2-38.4 22.4-57.6h19.2c25.6 0 44.8-19.2 44.8-44.8v0zM563.2 262.4c0 3.2 0 3.2-3.2 3.2h-38.4c-9.6 0-19.2 6.4-19.2 16-6.4 25.6-16 51.2-32 73.6-6.4 9.6-3.2 19.2 3.2 25.6l25.6 25.6c0 0 0 3.2 0 3.2s0 0 0 3.2l-28.8 28.8c0 0-3.2 0-3.2 0s0 0-3.2 0l-22.4-25.6c-6.4-6.4-19.2-6.4-25.6-3.2-22.4 16-48 25.6-73.6 32-9.6 3.2-16 9.6-16 19.2v38.4c0 3.2 0 3.2-3.2 3.2h-41.6c-3.2 0-3.2 0-3.2-3.2v-38.4c0-9.6-6.4-19.2-16-19.2-25.6-6.4-51.2-16-73.6-32-9.6-6.4-19.2-3.2-25.6 3.2l-25.6 25.6c0 0-3.2 0-3.2 0s0 0-3.2 0l-28.8-28.8c0 0 0-3.2 0-3.2l28.8-25.6c6.4-6.4 6.4-19.2 3.2-25.6-16-22.4-25.6-48-32-73.6-3.2-9.6-9.6-16-19.2-16h-38.4c-3.2 0-3.2 0-3.2-3.2v-41.6c0-3.2 0-3.2 3.2-3.2h38.4c9.6 0 19.2-6.4 19.2-16 6.4-25.6 16-51.2 32-73.6 6.4-9.6 3.2-19.2-3.2-25.6l-25.6-25.6c0 0 0-3.2 0-3.2l28.8-28.8c0 0 3.2 0 3.2 0s0 0 3.2 0l25.6 25.6c3.2 3.2 9.6 6.4 16 6.4 3.2 0 6.4 0 12.8-3.2 22.4-16 48-25.6 73.6-32 9.6-3.2 16-9.6 16-19.2v-38.4c0-3.2 0-3.2 3.2-3.2h41.6c3.2 0 3.2 0 3.2 3.2v38.4c0 9.6 6.4 19.2 16 19.2 25.6 6.4 51.2 16 73.6 32 9.6 6.4 19.2 3.2 25.6-3.2l25.6-25.6c0 0 3.2 0 3.2 0s0 0 3.2 0l28.8 28.8c0 0 0 3.2 0 3.2s0 0 0 3.2l-25.6 25.6c-6.4 6.4-6.4 19.2-3.2 25.6 16 22.4 25.6 48 32 73.6 3.2 9.6 9.6 16 19.2 16h38.4c3.2 0 3.2 0 3.2 3.2v35.2h-9.6z" />
<glyph unicode="&#xf65b;" glyph-name="mail-o" d="M1024 697.6c0 22.4-9.6 41.6-22.4 57.6 0 0 0 0 0 0s0 0 0 0c-16 16-38.4 25.6-60.8 25.6h-854.4c-25.6 0-48-9.6-60.8-25.6 0 0 0 0 0 0s0 0 0 0c-16-16-25.6-35.2-25.6-57.6v-502.4c0-22.4 9.6-41.6 22.4-57.6 0 0 0 0 0 0s0 0 0 0c16-16 38.4-25.6 60.8-25.6h851.2c25.6 0 44.8 9.6 60.8 25.6 0 0 0 0 0 0s0 0 0 0c16 16 22.4 35.2 22.4 57.6l6.4 502.4zM688 473.6l294.4 243.2c3.2-6.4 3.2-12.8 3.2-19.2v-502.4c0-6.4 0-12.8-3.2-19.2 3.2 3.2-294.4 297.6-294.4 297.6zM937.6 748.8c6.4 0 16-3.2 19.2-3.2l-444.8-371.2-448 371.2c6.4 3.2 12.8 3.2 22.4 3.2h851.2zM38.4 179.2c-3.2 6.4-3.2 12.8-3.2 19.2v499.2c0 6.4 3.2 12.8 3.2 19.2l294.4-243.2-294.4-294.4zM86.4 147.2c-9.6 0-16 3.2-22.4 6.4l297.6 297.6 137.6-115.2c3.2-3.2 6.4-3.2 12.8-3.2s9.6 0 12.8 3.2l137.6 115.2 297.6-297.6c-6.4-3.2-16-6.4-22.4-6.4h-851.2z" />
<glyph unicode="&#xf65c;" glyph-name="mancat" d="M787.2 464c121.6 0 224 102.4 224 224 0 12.8 0 28.8-3.2 38.4l-9.6 44.8-172.8-192-108.8 35.2-25.6 102.4 182.4 179.2-41.6 9.6c-16 3.2-32 3.2-44.8 3.2-121.6 0-224-102.4-224-224 0-25.6 3.2-44.8 9.6-67.2l-60.8-60.8-163.2 140.8c-3.2 16 6.4 22.4 12.8 25.6l147.2 60.8c6.4 3.2 12.8 9.6 12.8 16 3.2 6.4 0 16-3.2 22.4-80 99.2-172.8 86.4-214.4 67.2-3.2 0-3.2-3.2-6.4-3.2l-163.2-153.6c-6.4-6.4-9.6-9.6-6.4-19.2 3.2-12.8 3.2-25.6-3.2-28.8-6.4-6.4-22.4-6.4-25.6-3.2-6.4 0-16 0-22.4-6.4l-57.6-51.2c-6.4-3.2-6.4-9.6-9.6-16 0-6.4 3.2-12.8 6.4-19.2l112-108.8c3.2-3.2 9.6-6.4 16-6.4s12.8 3.2 16 6.4l54.4 44.8c6.4 6.4 9.6 16 6.4 25.6s-9.6 35.2 0 41.6c6.4 6.4 19.2 9.6 35.2 9.6l140.8-163.2-233.6-230.4c-22.4-25.6-44.8-83.2 3.2-134.4 28.8-28.8 54.4-38.4 86.4-38.4h3.2c38.4 3.2 64 28.8 67.2 35.2l214.4 211.2 147.2-169.6c28.8-32 64-44.8 102.4-44.8 19.2 0 35.2 3.2 51.2 12.8h3.2c9.6 3.2 19.2 9.6 28.8 19.2 19.2 25.6 32 41.6 32 67.2 3.2 38.4-16 80-44.8 105.6l-172.8 150.4 51.2 51.2c12.8-6.4 32-9.6 51.2-9.6v0zM777.6 864l-134.4-134.4 35.2-150.4 163.2-48 124.8 137.6c-12.8-89.6-86.4-156.8-172.8-156.8-99.2 0-176 80-176 176-6.4 92.8 67.2 169.6 160 176v0zM185.6 624c-19.2-25.6-16-54.4-12.8-73.6l-25.6-22.4-76.8 80 32 28.8c16 0 38.4 0 57.6 19.2 12.8 12.8 19.2 32 16 54.4l150.4 137.6c12.8 6.4 73.6 25.6 134.4-35.2l-115.2-44.8c-22.4-6.4-48-32-41.6-70.4l-48-44.8c-28.8 0-54.4-9.6-70.4-28.8v0zM297.6 624l35.2 35.2 150.4-128-51.2-54.4-134.4 147.2zM819.2 236.8c22.4-19.2 35.2-41.6 32-67.2 0-12.8-6.4-25.6-22.4-41.6-3.2-3.2-6.4-3.2-9.6-6.4l-3.2-3.2c-32-16-73.6-6.4-99.2 25.6l-150.4 169.6 76.8 76.8 176-153.6zM288 102.4c-6.4-6.4-19.2-16-35.2-19.2-19.2 0-35.2 9.6-54.4 28.8-32 35.2-6.4 64-3.2 70.4l332.8 329.6 64 64c22.4-35.2 51.2-64 89.6-86.4 0 0-393.6-387.2-393.6-387.2zM284.8 163.2c0-9.6-9.6-19.2-19.2-19.2s-19.2 9.6-19.2 19.2c0 9.6 9.6 19.2 19.2 19.2s19.2-9.6 19.2-19.2z" />
<glyph unicode="&#xf65d;" glyph-name="maximize" d="M598.4 406.4c12.8 0 22.4-3.2 28.8-12.8l268.8-268.8v195.2c0 12.8 3.2 22.4 12.8 28.8 9.6 9.6 19.2 12.8 28.8 12.8s22.4-3.2 28.8-12.8c9.6-9.6 12.8-19.2 12.8-28.8v-297.6c0-12.8-3.2-22.4-12.8-28.8-9.6-9.6-19.2-12.8-28.8-12.8h-297.6c-12.8 0-22.4 3.2-28.8 12.8-9.6 9.6-12.8 19.2-12.8 28.8s3.2 22.4 12.8 28.8c9.6 9.6 19.2 12.8 28.8 12.8h195.2l-268.8 268.8c-9.6 9.6-12.8 19.2-12.8 28.8 0 12.8 3.2 22.4 12.8 28.8 9.6 9.6 19.2 16 32 16v0zM86.4 918.4h297.6c12.8 0 22.4-3.2 28.8-12.8 9.6-9.6 12.8-19.2 12.8-28.8s-3.2-22.4-12.8-28.8c-6.4-12.8-16-16-28.8-16h-195.2l268.8-268.8c9.6-9.6 12.8-19.2 12.8-28.8 0-12.8-3.2-22.4-12.8-28.8-9.6-9.6-19.2-12.8-28.8-12.8-12.8 0-22.4 3.2-28.8 12.8l-272 265.6v-195.2c0-12.8-3.2-22.4-12.8-28.8-9.6-9.6-19.2-12.8-28.8-12.8s-22.4 3.2-32 12.8c-9.6 9.6-12.8 19.2-12.8 28.8v297.6c0 12.8 3.2 22.4 12.8 28.8s19.2 16 32 16v0z" />
<glyph unicode="&#xf65e;" glyph-name="menu" d="M128 745.6h768c12.8 0 22.4-3.2 28.8-12.8 9.6-9.6 12.8-19.2 12.8-28.8s-3.2-22.4-12.8-28.8c-9.6-9.6-19.2-12.8-28.8-12.8h-768c-12.8 0-22.4 3.2-28.8 12.8-9.6 6.4-12.8 16-12.8 28.8s3.2 22.4 12.8 28.8c6.4 9.6 16 12.8 28.8 12.8zM128 233.6h768c12.8 0 22.4-3.2 28.8-12.8 9.6-9.6 12.8-19.2 12.8-28.8s-3.2-22.4-12.8-28.8c-9.6-9.6-19.2-12.8-28.8-12.8h-768c-12.8 0-22.4 3.2-28.8 12.8-9.6 9.6-12.8 19.2-12.8 28.8s3.2 22.4 12.8 28.8c6.4 9.6 16 12.8 28.8 12.8zM128 489.6h768c12.8 0 22.4-3.2 28.8-12.8 9.6-9.6 12.8-19.2 12.8-28.8s-3.2-22.4-12.8-28.8-19.2-12.8-28.8-12.8h-768c-12.8 0-22.4 3.2-28.8 12.8s-12.8 16-12.8 28.8 3.2 22.4 12.8 28.8c6.4 9.6 16 12.8 28.8 12.8z" />
<glyph unicode="&#xf65f;" glyph-name="menu1" horiz-adv-x="2618" d="M2618.368 755.2h-2618.368v204.8h2618.368zM1594.368 140.8h-1594.368v-204.8h1594.368z" />
<glyph unicode="&#xf660;" glyph-name="minimize" d="M86.4 918.4c12.8 0 22.4-3.2 28.8-12.8l268.8-268.8v195.2c0 12.8 3.2 22.4 12.8 28.8 9.6 9.6 19.2 12.8 28.8 12.8s22.4-3.2 32-9.6c9.6-9.6 12.8-19.2 12.8-28.8v-297.6c0-12.8-3.2-22.4-12.8-28.8s-19.2-12.8-28.8-12.8h-300.8c-12.8 0-22.4 3.2-28.8 12.8-9.6 9.6-12.8 19.2-12.8 28.8s3.2 22.4 12.8 28.8c6.4 6.4 16 9.6 28.8 9.6h195.2l-268.8 268.8c-6.4 6.4-12.8 19.2-12.8 28.8 0 12.8 3.2 22.4 12.8 32s19.2 12.8 32 12.8v0zM598.4 406.4h297.6c12.8 0 22.4-3.2 28.8-12.8 9.6-9.6 12.8-19.2 12.8-28.8s-3.2-22.4-12.8-28.8c-6.4-12.8-16-16-28.8-16h-195.2l268.8-268.8c9.6-9.6 12.8-19.2 12.8-28.8s-3.2-22.4-12.8-28.8c-9.6-9.6-19.2-12.8-28.8-12.8-12.8 0-22.4 3.2-28.8 12.8l-272 265.6v-195.2c0-12.8-3.2-22.4-12.8-28.8s-19.2-12.8-28.8-12.8-22.4 3.2-32 9.6-12.8 19.2-12.8 28.8v297.6c0 12.8 3.2 22.4 12.8 28.8s19.2 19.2 32 19.2v0z" />
<glyph unicode="&#xf661;" glyph-name="minus" d="M128 489.6h768c12.8 0 22.4-3.2 28.8-12.8 9.6-9.6 12.8-19.2 12.8-28.8s-3.2-22.4-12.8-28.8-19.2-12.8-28.8-12.8h-768c-12.8 0-22.4 3.2-28.8 12.8s-12.8 16-12.8 28.8 3.2 22.4 12.8 28.8c6.4 9.6 16 12.8 28.8 12.8z" />
<glyph unicode="&#xf662;" glyph-name="mobile" d="M736 960h-448c-54.4 0-96-44.8-96-96v-832c0-51.2 41.6-96 96-96h448c51.2 0 96 44.8 96 96v832c0 51.2-44.8 96-96 96zM384 912h256v-32h-256v32zM512 0c-35.2 0-64 28.8-64 64s28.8 64 64 64 64-28.8 64-64-28.8-64-64-64zM768 192h-512v640h512v-640z" />
<glyph unicode="&#xf663;" glyph-name="moicon-03" d="M25.6 960h147.2c19.2 0 32-12.8 32-25.6v-147.2c0-19.2-12.8-32-25.6-32h-153.6c-12.8 0-25.6 12.8-25.6 25.6v153.6c0 12.8 12.8 25.6 25.6 25.6zM435.2 960h147.2c12.8 0 25.6-12.8 25.6-25.6v-147.2c0-12.8-12.8-32-25.6-32h-147.2c-12.8 0-25.6 12.8-25.6 25.6v153.6c0 12.8 12.8 25.6 25.6 25.6zM844.8 960h147.2c19.2 0 32-12.8 32-25.6v-147.2c0-12.8-12.8-32-25.6-32h-147.2c-12.8 0-25.6 12.8-25.6 32v147.2c-6.4 12.8 6.4 25.6 19.2 25.6zM25.6 550.4h147.2c12.8 0 32-12.8 32-25.6v-147.2c0-12.8-12.8-25.6-32-25.6h-147.2c-12.8-6.4-25.6 6.4-25.6 19.2v153.6c0 12.8 12.8 25.6 25.6 25.6zM435.2 550.4h147.2c12.8 0 25.6-12.8 25.6-25.6v-147.2c0-12.8-12.8-25.6-25.6-25.6h-147.2c-12.8 0-25.6 12.8-25.6 25.6v147.2c0 12.8 12.8 25.6 25.6 25.6zM844.8 550.4h147.2c12.8 0 25.6-12.8 25.6-25.6v-147.2c0-12.8-12.8-25.6-25.6-25.6h-147.2c-12.8 0-25.6 12.8-25.6 25.6v147.2c0 12.8 12.8 25.6 25.6 25.6zM25.6 140.8h147.2c12.8 0 32-12.8 32-25.6v-147.2c0-19.2-12.8-32-25.6-32h-153.6c-12.8 0-25.6 12.8-25.6 25.6v147.2c0 19.2 12.8 32 25.6 32zM435.2 140.8h147.2c12.8 0 25.6-12.8 25.6-25.6v-147.2c0-12.8-12.8-25.6-25.6-25.6h-147.2c-12.8 0-25.6 12.8-25.6 25.6v147.2c0 12.8 12.8 25.6 25.6 25.6zM844.8 140.8h147.2c12.8 0 25.6-12.8 25.6-25.6v-147.2c0-12.8-12.8-25.6-25.6-25.6h-147.2c-12.8 0-25.6 12.8-25.6 25.6v147.2c0 12.8 12.8 25.6 25.6 25.6z" />
<glyph unicode="&#xf664;" glyph-name="moicons-04" d="M1011.2 3.2l-300.8 278.4c147.2 166.4 134.4 425.6-32 572.8s-425.6 144-572.8-22.4c-153.6-166.4-134.4-425.6 32-579.2 140.8-128 364.8-140.8 518.4-25.6l307.2-284.8c19.2-12.8 41.6-12.8 54.4 0 12.8 25.6 12.8 48-6.4 60.8v0 0zM60.8 553.6c0 192 153.6 345.6 345.6 345.6s345.6-153.6 345.6-345.6-153.6-345.6-345.6-345.6-345.6 153.6-345.6 345.6c0 0 0 0 0 0zM198.4 480v0zM118.4 480c-38.4 160 60.8 320 220.8 355.2l6.4-32c-140.8-38.4-233.6-179.2-198.4-320 0 3.2-28.8-3.2-28.8-3.2z" />
<glyph unicode="&#xf665;" glyph-name="more1" d="M233.6 448c0-64-51.2-115.2-115.2-115.2s-118.4 51.2-118.4 115.2 51.2 115.2 115.2 115.2 118.4-51.2 118.4-115.2zM627.2 448c0-64-51.2-115.2-115.2-115.2s-115.2 51.2-115.2 115.2 51.2 115.2 115.2 115.2 115.2-51.2 115.2-115.2zM1024 448c0-64-51.2-115.2-115.2-115.2s-118.4 51.2-118.4 115.2 51.2 115.2 115.2 115.2 118.4-51.2 118.4-115.2z" />
<glyph unicode="&#xf666;" glyph-name="more22" d="M112 336c-60.8 0-112 51.2-112 112s51.2 112 112 112 112-51.2 112-112c0-60.8-51.2-112-112-112zM505.6 336c-60.8 0-112 51.2-112 112s51.2 112 112 112 112-51.2 112-112c0-60.8-51.2-112-112-112zM912 336c-60.8 0-112 51.2-112 112s51.2 112 112 112 112-51.2 112-112c0-60.8-51.2-112-112-112z" />
<glyph unicode="&#xf667;" glyph-name="mute1-new" horiz-adv-x="1344" d="M803.2-64c-217.6 0-380.8 96-467.2 268.8h-144c-99.2 0-192 22.4-192 185.6v112c0 121.6 60.8 182.4 192 182.4h144c80 176 249.6 275.2 467.2 275.2 12.8 0 22.4-9.6 22.4-22.4v-979.2c0-12.8-9.6-22.4-22.4-22.4v0zM192 633.6c-108.8 0-147.2-38.4-147.2-134.4v-112c0-121.6 48-144 147.2-144h160c9.6 0 16-3.2 22.4-12.8 73.6-160 217.6-246.4 412.8-256v940.8c-179.2 0-342.4-105.6-416-268.8-9.6-9.6-12.8-12.8-22.4-12.8-3.2 0-156.8 0-156.8 0zM1158.4 460.8l185.6 185.6c9.6 9.6 9.6 22.4 3.2 28.8-9.6 9.6-22.4 9.6-28.8 3.2 0 0 0 0-3.2-3.2l-185.6-185.6-185.6 182.4c-9.6 9.6-22.4 9.6-28.8 0s-9.6-22.4 0-28.8c0 0 0 0 3.2-3.2l185.6-182.4-192-179.2c-9.6-9.6-9.6-22.4-3.2-28.8 9.6-9.6 22.4-9.6 28.8-3.2 0 0 0 0 3.2 3.2l185.6 182.4 185.6-182.4c9.6-9.6 22.4-9.6 28.8 0s9.6 22.4 0 28.8c0 0 0 0-3.2 3.2l-179.2 179.2z" />
<glyph unicode="&#xf668;" glyph-name="newtab" d="M995.2 643.2c-16 0-28.8 12.8-28.8 28.8v227.2h-230.4c-16 0-28.8 12.8-28.8 28.8s12.8 32 28.8 32h256c19.2 0 32-12.8 32-28.8v-256c0-19.2-12.8-32-28.8-32zM518.4 428.8c-6.4 0-16 3.2-22.4 9.6-12.8 12.8-12.8 32 0 41.6l460.8 454.4c12.8 12.8 32 12.8 41.6 0s12.8-32 0-41.6l-457.6-454.4c-6.4-6.4-12.8-9.6-22.4-9.6zM742.4-64h-563.2c-99.2 0-179.2 80-179.2 179.2v563.2c0 99.2 80 179.2 179.2 179.2h361.6c16 0 28.8-12.8 28.8-28.8s-9.6-28.8-28.8-28.8h-361.6c-64 0-118.4-54.4-118.4-121.6v-563.2c0-67.2 54.4-121.6 121.6-121.6h563.2c67.2 0 121.6 54.4 121.6 121.6v377.6c0 16 12.8 28.8 28.8 28.8s28.8-12.8 28.8-28.8v-374.4c0-102.4-80-182.4-182.4-182.4z" />
<glyph unicode="&#xf669;" glyph-name="newuser" d="M931.2-64h-838.4c-51.2 0-92.8 41.6-92.8 92.8l3.2 73.6c76.8 160 195.2 195.2 201.6 198.4h70.4c48 0 89.6 38.4 89.6 89.6v25.6c-22.4 32-41.6 64-51.2 99.2l-3.2 6.4c-35.2 32-44.8 86.4-22.4 128 0 0 3.2 3.2 3.2 6.4v35.2c0 22.4 0 44.8 0 70.4-3.2 44.8 9.6 83.2 28.8 112 25.6 35.2 64 64 112 76.8 44.8 12.8 96 12.8 144 3.2 44.8-9.6 80-28.8 108.8-57.6 32-32 51.2-83.2 51.2-137.6 0-25.6 0-51.2 0-73.6v-25.6c0 0 3.2-3.2 3.2-3.2 25.6-38.4 19.2-92.8-16-128l-6.4-6.4c-12.8-41.6-32-76.8-54.4-105.6v-28.8c0-48 38.4-89.6 89.6-89.6h67.2c6.4 0 124.8-35.2 201.6-198.4l3.2-12.8v-60.8c0-48-41.6-89.6-92.8-89.6v0zM64 80v-51.2c0-16 12.8-28.8 28.8-28.8h838.4c16 0 28.8 12.8 28.8 28.8v51.2c-57.6 115.2-134.4 150.4-153.6 156.8h-54.4c-83.2 0-153.6 67.2-153.6 153.6v51.2l9.6 6.4c22.4 25.6 41.6 60.8 51.2 96 3.2 12.8 12.8 22.4 19.2 25.6 16 16 16 38.4 6.4 51.2-3.2 6.4-12.8 16-9.6 32v32c0 25.6 0 48 0 73.6 0 38.4-12.8 73.6-35.2 96s-51.2 32-73.6 38.4c-41.6 6.4-80 3.2-118.4-3.2-32-6.4-57.6-25.6-73.6-51.2-12.8-19.2-22.4-48-22.4-80 0-22.4 0-44.8 0-67.2v-38.4c3.2-12.8-6.4-25.6-9.6-32-9.6-19.2-6.4-41.6 6.4-54.4 12.8-9.6 16-22.4 19.2-32 9.6-35.2 25.6-64 48-89.6l6.4-9.6v-51.2c0-83.2-67.2-153.6-153.6-153.6h-51.2c-19.2 0-96-35.2-153.6-150.4v0z" />
<glyph unicode="&#xf66a;" glyph-name="next-step" horiz-adv-x="786" d="M666.555 942.098v-446.956l-666.555 464.858v-1024l666.555 464.858v-446.956h119.347v988.196zM119.347 164.55v566.9l406.378-283.45z" />
<glyph unicode="&#xf66b;" glyph-name="notifi-exclamation" horiz-adv-x="224" d="M108.8 224c-32 0-54.4 22.4-54.4 54.4l-54.4 627.2c0 28.8 80 54.4 108.8 54.4s108.8-25.6 108.8-54.4l-54.4-627.2c0-32-22.4-54.4-54.4-54.4zM108.8 153.6c60.8 0 108.8-48 108.8-108.8s-51.2-108.8-108.8-108.8-108.8 48-108.8 108.8 48 108.8 108.8 108.8z" />
<glyph unicode="&#xf66c;" d="M851.2 339.2c28.8-16 25.6-89.6 16-96h-704c-9.6 9.6-12.8 80 16 96 76.8 44.8 102.4 163.2 112 281.6s108.8 208 224 208 214.4-89.6 224-208 35.2-236.8 112-281.6v0z" />
<glyph unicode="&#xf66d;" d="M515.2 131.2c60.8 0 105.6 48 105.6 105.6h-214.4c0-57.6 48-105.6 108.8-105.6zM515.2 825.6c28.8 0 51.2 22.4 51.2 51.2s-22.4 54.4-51.2 54.4-51.2-22.4-51.2-51.2 22.4-54.4 51.2-54.4z" />
<glyph unicode="&#xf66e;" d="M137.6 416c-6.4 9.6-22.4 9.6-28.8 0-3.2-3.2-6.4-3.2-6.4-6.4-9.6-6.4-9.6-22.4-3.2-28.8 3.2-3.2 9.6-6.4 16-6.4s9.6 3.2 12.8 6.4c3.2 0 6.4 3.2 9.6 3.2 6.4 9.6 6.4 22.4 0 32v0zM150.4 428.8c3.2-3.2 6.4-3.2 12.8-3.2s12.8 3.2 16 9.6c35.2 51.2 38.4 99.2 48 188.8 0 12.8-6.4 22.4-19.2 22.4s-22.4-6.4-22.4-19.2c-6.4-83.2-9.6-128-38.4-166.4-6.4-12.8-3.2-25.6 3.2-32zM793.6 662.4c3.2-9.6 9.6-16 19.2-16 0 0 3.2 0 3.2 0 12.8 3.2 19.2 12.8 16 25.6 0 3.2-3.2 6.4-3.2 12.8-3.2 12.8-16 19.2-25.6 16s-12.8-19.2-9.6-28.8c0-3.2 0-6.4 0-9.6v0zM928 409.6c-60.8 51.2-76.8 102.4-83.2 201.6 0 12.8-12.8 19.2-22.4 19.2-12.8 0-19.2-12.8-19.2-22.4 9.6-108.8 25.6-169.6 99.2-230.4 3.2-3.2 9.6-6.4 12.8-6.4 6.4 0 12.8 3.2 16 6.4 6.4 12.8 3.2 25.6-3.2 32zM880 332.8c0 0 0 3.2 0 0-6.4 9.6-12.8 16-19.2 22.4-57.6 32-92.8 121.6-102.4 265.6-6.4 105.6-83.2 192-182.4 217.6 6.4 12.8 12.8 25.6 12.8 38.4 0 41.6-32 73.6-73.6 73.6s-73.6-32-73.6-73.6c0-16 3.2-28.8 12.8-38.4-102.4-25.6-176-112-185.6-217.6-9.6-144-44.8-230.4-102.4-265.6-16-9.6-25.6-28.8-32-57.6-3.2-19.2-3.2-57.6 12.8-73.6 3.2-3.2 9.6-6.4 16-6.4h224c9.6-60.8 64-105.6 124.8-105.6s115.2 48 128 105.6h224c6.4 0 9.6 3.2 16 6.4 16 16 12.8 54.4 12.8 73.6-3.2 12.8-6.4 25.6-12.8 35.2zM515.2 912c16 0 32-12.8 32-32s-12.8-32-32-32c-16 0-32 12.8-32 32s12.8 32 32 32zM515.2 153.6c-41.6 0-73.6 28.8-83.2 64h166.4c-9.6-35.2-44.8-64-83.2-64zM848 259.2h-672c0 6.4 0 16 0 28.8 3.2 19.2 6.4 28.8 9.6 28.8 70.4 41.6 112 137.6 121.6 297.6 6.4 105.6 96 188.8 201.6 188.8s195.2-83.2 201.6-188.8c6.4-76.8 19.2-140.8 38.4-188.8h-80c-12.8 0-22.4-9.6-22.4-22.4s9.6-22.4 22.4-22.4h99.2c9.6-16 19.2-32 32-41.6h-211.2c-12.8 0-22.4-9.6-22.4-22.4s9.6-22.4 22.4-22.4h252.8c0-3.2 3.2-9.6 3.2-12.8 6.4-3.2 6.4-12.8 3.2-22.4v0zM723.2-16h-419.2c-12.8 0-22.4-9.6-22.4-22.4s9.6-22.4 22.4-22.4h419.2c12.8 0 22.4 9.6 22.4 22.4 0 16-9.6 22.4-22.4 22.4zM521.6 345.6h-12.8c-12.8 0-22.4-9.6-22.4-22.4s9.6-22.4 22.4-22.4h12.8c12.8 0 22.4 9.6 22.4 22.4s-12.8 22.4-22.4 22.4z" />
<glyph unicode="&#xf66f;" horiz-adv-x="1408" d="M0 892.8c0 0 368 99.2 633.6 54.4l-108.8-86.4c0 0 636.8-307.2 870.4-924.8 0 0-352 566.4-953.6 739.2l6.4-150.4c-3.2 0-44.8 83.2-448 368z" />
<glyph unicode="&#xf670;" horiz-adv-x="1408" d="M1392-64c-233.6 617.6-870.4 924.8-870.4 924.8l108.8 86.4c-262.4 48-630.4-51.2-630.4-51.2s620.8-60.8 1120-576c57.6-64 115.2-134.4 163.2-208 3.2 3.2 108.8-176 108.8-176z" />
<glyph unicode="&#xf671;" glyph-name="overview-new3" horiz-adv-x="1120" d="M470.4 256c-9.6 0-9.6 0-19.2 0l-291.2 121.6h-112c-28.8 0-48 28.8-48 48s19.2 48 48 48h121.6c9.6 0 9.6 0 19.2 0l281.6-112 499.2 300.8c9.6 0 19.2 0 28.8 0h92.8c28.8 0 48-19.2 48-48s-19.2-48-48-48h-83.2l-515.2-300.8c-12.8-9.6-12.8-9.6-22.4-9.6v0zM169.6 518.4c48 0 83.2-38.4 83.2-83.2s-38.4-83.2-83.2-83.2-92.8 38.4-92.8 83.2 35.2 83.2 92.8 83.2zM92.8 611.2c-28.8 0-48 19.2-48 48v150.4c0 83.2 73.6 150.4 160 150.4s732.8 0 732.8 0v0c38.4 0 73.6-9.6 102.4-38.4 19.2-19.2 28.8-28.8 28.8-48 0-9.6 0-9.6 0-19.2v-9.6c3.2-25.6-16-44.8-44.8-44.8s-48 19.2-48 48c9.6 19.2-28.8 19.2-38.4 19.2-28.8 0-656 0-742.4 0-28.8 0-57.6-28.8-57.6-57.6v0-140.8c3.2-28.8-16-48-44.8-57.6zM460.8-64c-121.6 0-233.6 0-272 0h-9.6c-73.6 19.2-131.2 83.2-131.2 160v92.8c0 28.8 19.2 48 48 48s48-19.2 48-48v-92.8c0-38.4 28.8-67.2 67.2-67.2 102.4 0 713.6 0 742.4 0s48 0 48 57.6v291.2c0 28.8 19.2 48 48 48s48-19.2 48-48v-291.2c0-150.4-92.8-150.4-131.2-150.4-35.2 0-291.2 0-505.6 0zM985.6 707.2c48 0 83.2-38.4 83.2-83.2s-38.4-83.2-83.2-83.2-83.2 38.4-83.2 83.2 38.4 83.2 83.2 83.2zM460.8 425.6c67.2 0 112-48 112-112s-48-112-112-112-112 48-112 112 54.4 112 112 112z" />
<glyph unicode="&#xf672;" glyph-name="p-star" d="M1020.8 566.4c-3.2 12.8-12.8 22.4-25.6 22.4l-310.4 51.2-144 278.4c-3.2 9.6-16 19.2-28.8 19.2s-25.6-6.4-28.8-19.2l-144-278.4-310.4-51.2c-12.8-3.2-22.4-9.6-25.6-22.4s0-25.6 9.6-35.2l220.8-224-51.2-307.2c-3.2-12.8 3.2-25.6 12.8-32s22.4-9.6 35.2-3.2l281.6 140.8 281.6-140.8c6.4-3.2 9.6-3.2 16-3.2s12.8 3.2 19.2 6.4c9.6 6.4 16 19.2 12.8 32l-48 310.4 220.8 224c9.6 6.4 12.8 19.2 6.4 32z" />
<glyph unicode="&#xf673;" glyph-name="p-star1" d="M979.2 601.6l-281.6 25.6c-19.2 3.2-32 12.8-41.6 28.8l-102.4 246.4c-16 41.6-73.6 41.6-89.6 0l-99.2-246.4c-6.4-16-22.4-28.8-41.6-28.8l-281.6-25.6c-41.6-3.2-57.6-57.6-28.8-86.4l211.2-185.6c12.8-12.8 19.2-28.8 16-48l-64-262.4c-9.6-41.6 35.2-73.6 70.4-54.4l236.8 137.6c16 9.6 35.2 9.6 48 0l236.8-137.6c38.4-22.4 83.2 12.8 70.4 54.4l-64 262.4c-3.2 19.2 0 35.2 16 48l211.2 185.6c38.4 32 19.2 83.2-22.4 86.4z" />
<glyph unicode="&#xf674;" glyph-name="p-star2" d="M1020.8 572.8c-3.2 12.8-16 19.2-28.8 19.2h-339.2l-112 320c-6.4 12.8-16 19.2-28.8 19.2s-25.6-6.4-28.8-19.2l-112-320h-339.2c-16 0-25.6-6.4-28.8-19.2-3.2-16 0-25.6 9.6-35.2l272-214.4-99.2-323.2c-3.2-16 0-25.6 9.6-35.2 12.8-6.4 25.6-9.6 35.2 0l281.6 195.2 278.4-195.2c6.4-3.2 12.8-6.4 19.2-6.4 16 0 32 12.8 32 32 0 3.2 0 6.4-3.2 12.8l-99.2 323.2 272 214.4c12.8 6.4 16 19.2 9.6 32 0 0 0 0 0 0zM684.8 361.6c-9.6-6.4-12.8-22.4-9.6-32l80-262.4-224 156.8c-12.8 6.4-22.4 6.4-35.2 0l-224-156.8 80 262.4c3.2 12.8 0 25.6-9.6 32l-217.6 169.6h275.2c12.8 0 22.4 6.4 28.8 19.2l83.2 262.4 89.6-259.2c6.4-12.8 16-19.2 28.8-19.2h272c0 0-217.6-172.8-217.6-172.8z" />
<glyph unicode="&#xf675;" horiz-adv-x="1504" d="M284.8-64l-284.8 816 460.8-243.2 294.4 451.2 294.4-451.2 460.8 243.2-288-816c0 0-937.6 0-937.6 0z" />
<glyph unicode="&#xf676;" horiz-adv-x="1504" d="M1276.8 73.6h-1033.6l-60.8 172.8h1155.2l-60.8-172.8z" />
<glyph unicode="&#xf677;" glyph-name="pen-01" d="M999.936 783.36l-152.32 151.040c-13.363 11.549-30.905 18.584-50.091 18.584-23.497 0-44.529-10.552-58.617-27.176l-0.092-0.112-686.080-685.056c-3.431-3.47-5.878-7.92-6.884-12.892l-0.028-0.164-51.2-267.52c-0.403-1.702-0.634-3.655-0.634-5.663 0-7.219 2.988-13.741 7.795-18.394l0.007-0.007c4.573-4.412 10.797-7.14 17.658-7.168h6.15l267.52 51.2c5.163 0.935 9.637 3.402 13.051 6.907l0.005 0.005 543.744 546.56 141.056 141.056c13.571 13.972 22.819 32.209 25.547 52.512l0.053 0.48c0.53 3.174 0.833 6.831 0.833 10.558 0 17.447-6.636 33.344-17.522 45.304l0.049-0.054zM274.688 29.696l-223.488-42.496 42.752 223.488 521.728 521.472 180.736-181.76zM955.392 710.144l-123.392-123.136-180.736 180.736 123.136 123.136c13.312 13.312 30.72 15.872 37.632 8.96l152.064-152.064c6.912-6.912 4.608-24.32-8.704-37.632z" />
<glyph unicode="&#xf678;" glyph-name="pen2" d="M995.2 774.4l-156.8 156.8c-16 19.2-41.6 28.8-70.4 28.8s-51.2-9.6-70.4-28.8l-649.6-649.6c-6.4-6.4-9.6-12.8-12.8-22.4l-35.2-278.4c-3.2-12.8 3.2-25.6 12.8-32 6.4-9.6 16-12.8 25.6-12.8 3.2 0 3.2 0 6.4 0l275.2 38.4c9.6 0 16 6.4 22.4 12.8l649.6 649.6c22.4 16 32 41.6 32 67.2s-9.6 54.4-28.8 70.4zM297.6 51.2l-211.2-28.8 28.8 211.2 460.8 460.8 182.4-182.4c0 0-460.8-460.8-460.8-460.8zM937.6 691.2l-124.8-124.8-182.4 182.4 124.8 124.8c6.4 6.4 12.8 6.4 12.8 6.4s9.6 0 12.8-6.4l156.8-156.8c6.4-6.4 6.4-9.6 6.4-12.8 0 0 0-6.4-6.4-12.8z" />
<glyph unicode="&#xf679;" glyph-name="plus" d="M512 873.6c12.8 0 22.4-3.2 28.8-12.8s12.8-19.2 12.8-28.8v-342.4h342.4c12.8 0 22.4-3.2 28.8-12.8 9.6-9.6 12.8-19.2 12.8-28.8 0-12.8-3.2-22.4-12.8-28.8-9.6-9.6-19.2-12.8-28.8-12.8h-342.4v-342.4c0-12.8-3.2-22.4-12.8-28.8-9.6-9.6-19.2-12.8-28.8-12.8-12.8 0-22.4 3.2-28.8 12.8-9.6 9.6-12.8 19.2-12.8 28.8v342.4h-342.4c-12.8 0-22.4 3.2-28.8 12.8s-12.8 16-12.8 28.8 3.2 22.4 12.8 28.8c9.6 9.6 19.2 12.8 28.8 12.8h342.4v342.4c0 12.8 3.2 22.4 12.8 28.8 6.4 9.6 16 12.8 28.8 12.8z" />
<glyph unicode="&#xf67a;" glyph-name="power-button" d="M512-64c-118.4 0-240 48-323.2 134.4s-134.4 204.8-134.4 323.2 48 240 134.4 323.2c28.8 28.8 70.4 28.8 99.2 0s28.8-70.4 0-99.2c-57.6-64-89.6-140.8-89.6-224s35.2-160 89.6-224 140.8-89.6 224-89.6 160 35.2 224 89.6c64 64 89.6 140.8 89.6 224s-35.2 160-89.6 224c-28.8 28.8-28.8 70.4 0 99.2s70.4 28.8 99.2 0c83.2-83.2 134.4-204.8 134.4-323.2s-48-240-134.4-323.2-204.8-134.4-323.2-134.4v0zM512 470.4c-41.6 0-70.4 28.8-70.4 70.4v352c0 38.4 28.8 67.2 70.4 67.2s70.4-28.8 70.4-70.4v-352c0-41.6-35.2-67.2-70.4-67.2z" />
<glyph unicode="&#xf67b;" glyph-name="printing2" d="M972.8 281.6v0zM972.8 281.6v0zM0 281.6v0zM1024 281.6v0zM678.4 294.4h-332.8c-12.8 0-25.6-12.8-25.6-25.6s12.8-25.6 25.6-25.6h332.8c12.8 0 25.6 12.8 25.6 25.6s-12.8 25.6-25.6 25.6zM678.4 166.4h-332.8c-12.8 0-25.6-12.8-25.6-25.6s12.8-25.6 25.6-25.6h332.8c12.8 0 25.6 12.8 25.6 25.6s-12.8 25.6-25.6 25.6zM678.4 294.4h-332.8c-12.8 0-25.6-12.8-25.6-25.6s12.8-25.6 25.6-25.6h332.8c12.8 0 25.6 12.8 25.6 25.6s-12.8 25.6-25.6 25.6zM678.4 166.4h-332.8c-12.8 0-25.6-12.8-25.6-25.6s12.8-25.6 25.6-25.6h332.8c12.8 0 25.6 12.8 25.6 25.6s-12.8 25.6-25.6 25.6zM678.4 166.4h-332.8c-12.8 0-25.6-12.8-25.6-25.6s12.8-25.6 25.6-25.6h332.8c12.8 0 25.6 12.8 25.6 25.6s-12.8 25.6-25.6 25.6zM678.4 294.4h-332.8c-12.8 0-25.6-12.8-25.6-25.6s12.8-25.6 25.6-25.6h332.8c12.8 0 25.6 12.8 25.6 25.6s-12.8 25.6-25.6 25.6zM345.6 243.2h332.8c12.8 0 25.6 12.8 25.6 25.6s-12.8 25.6-25.6 25.6h-332.8c-12.8 0-25.6-12.8-25.6-25.6s12.8-25.6 25.6-25.6zM678.4 166.4h-332.8c-12.8 0-25.6-12.8-25.6-25.6s12.8-25.6 25.6-25.6h332.8c12.8 0 25.6 12.8 25.6 25.6s-12.8 25.6-25.6 25.6zM921.6 691.2h-89.6v179.2c0 12.8-12.8 25.6-25.6 25.6h-588.8c-12.8 0-25.6-12.8-25.6-25.6v-179.2h-89.6c-57.6 0-102.4-44.8-102.4-102.4v-307.2c0-57.6 44.8-102.4 102.4-102.4h89.6v-153.6c0-12.8 12.8-25.6 25.6-25.6h588.8c12.8 0 25.6 12.8 25.6 25.6v153.6h89.6c57.6 0 102.4 44.8 102.4 102.4v307.2c0 57.6-44.8 102.4-102.4 102.4zM243.2 844.8h537.6v-153.6h-537.6c0 0 0 153.6 0 153.6zM780.8 51.2h-537.6v307.2h537.6v-307.2zM972.8 281.6c0-28.8-22.4-51.2-51.2-51.2h-89.6v153.6c0 12.8-12.8 25.6-25.6 25.6h-588.8c-12.8 0-25.6-12.8-25.6-25.6v-153.6h-89.6c-28.8 0-51.2 22.4-51.2 51.2v307.2c0 28.8 22.4 51.2 51.2 51.2h819.2c28.8 0 51.2-22.4 51.2-51.2 0 0 0-307.2 0-307.2zM345.6 243.2h332.8c12.8 0 25.6 12.8 25.6 25.6s-12.8 25.6-25.6 25.6h-332.8c-12.8 0-25.6-12.8-25.6-25.6s12.8-25.6 25.6-25.6zM345.6 115.2h332.8c12.8 0 25.6 12.8 25.6 25.6s-12.8 25.6-25.6 25.6h-332.8c-12.8 0-25.6-12.8-25.6-25.6s12.8-25.6 25.6-25.6zM678.4 166.4h-332.8c-12.8 0-25.6-12.8-25.6-25.6s12.8-25.6 25.6-25.6h332.8c12.8 0 25.6 12.8 25.6 25.6s-12.8 25.6-25.6 25.6zM678.4 294.4h-332.8c-12.8 0-25.6-12.8-25.6-25.6s12.8-25.6 25.6-25.6h332.8c12.8 0 25.6 12.8 25.6 25.6s-12.8 25.6-25.6 25.6zM678.4 294.4h-332.8c-12.8 0-25.6-12.8-25.6-25.6s12.8-25.6 25.6-25.6h332.8c12.8 0 25.6 12.8 25.6 25.6s-12.8 25.6-25.6 25.6zM678.4 166.4h-332.8c-12.8 0-25.6-12.8-25.6-25.6s12.8-25.6 25.6-25.6h332.8c12.8 0 25.6 12.8 25.6 25.6s-12.8 25.6-25.6 25.6z" />
<glyph unicode="&#xf67c;" glyph-name="products2" d="M1014.4 761.6v0l-502.4 198.4-499.2-198.4h-3.2v-627.2l502.4-198.4 502.4 195.2v630.4zM512 921.6l169.6-60.8-464-179.2-156.8 60.8 451.2 179.2zM492.8-19.2l-188.8 76.8-92.8 35.2-166.4 64v553.6l163.2-64v-137.6l16 3.2 9.6-12.8 12.8 3.2 12.8-12.8 12.8 3.2 19.2-19.2v140.8l201.6-80v-553.6zM512 563.2l-182.4 73.6 451.2 182.4 185.6-76.8-454.4-179.2zM979.2 156.8l-448-176v553.6l448 176v-553.6z" />
<glyph unicode="&#xf67d;" glyph-name="pull-down" d="M982.4 403.2h-630.4c-22.4 0-38.4 16-38.4 38.4s16 38.4 38.4 38.4h630.4c22.4 0 38.4-16 38.4-38.4-3.2-22.4-19.2-38.4-38.4-38.4zM982.4 707.2h-940.8c-22.4 0-38.4 16-38.4 38.4s16 38.4 38.4 38.4h937.6c22.4 0 38.4-16 38.4-38.4s-16-38.4-35.2-38.4zM982.4 99.2h-940.8c-22.4 0-38.4 16-38.4 38.4s16 38.4 38.4 38.4h937.6c22.4 0 38.4-16 38.4-38.4s-16-38.4-35.2-38.4z" />
<glyph unicode="&#xf67e;" glyph-name="recent3" d="M512-64c-278.4 0-512 227.2-512 512s233.6 512 512 512c284.8 0 512-233.6 512-512v0c0-284.8-227.2-512-512-512zM512 892.8c-246.4 0-444.8-198.4-444.8-444.8s198.4-444.8 444.8-444.8 444.8 198.4 444.8 444.8v0c0 246.4-198.4 444.8-444.8 444.8v0zM716.8 307.2c-6.4 0-12.8 0-12.8 6.4l-204.8 102.4c-12.8 6.4-19.2 19.2-19.2 32v352c0 19.2 12.8 32 32 32s32-12.8 32-32v-332.8l185.6-92.8c19.2-6.4 25.6-19.2 25.6-38.4s-16-35.2-38.4-28.8v0z" />
<glyph unicode="&#xf67f;" glyph-name="reports-new3" d="M252.8-64h-179.2c-35.2 0-73.6 38.4-73.6 73.6v876.8c0 35.2 38.4 73.6 73.6 73.6h176c38.4 0 73.6-38.4 73.6-73.6v-873.6c3.2-38.4-25.6-76.8-70.4-76.8zM92.8 28.8h140.8v838.4h-140.8v-838.4zM604.8-64h-185.6c-38.4 0-73.6 38.4-73.6 73.6v614.4c0 38.4 38.4 73.6 73.6 73.6h176c38.4 0 73.6-38.4 73.6-73.6v-614.4c0-35.2-25.6-73.6-64-73.6zM448 28.8h140.8v576h-140.8c0 0 0-576 0-576zM950.4-64h-176c-38.4 0-73.6 38.4-73.6 73.6v400c0 38.4 38.4 73.6 73.6 73.6h176c38.4 0 73.6-38.4 73.6-73.6v-400c0-35.2-38.4-73.6-73.6-73.6zM790.4 28.8h140.8v364.8h-140.8v-364.8z" />
<glyph unicode="&#xf680;" d="M134.4 243.2h28.8c76.8 0 134.4-60.8 134.4-134.4v0c0-76.8-60.8-134.4-134.4-134.4h-28.8c-73.6-3.2-134.4 57.6-134.4 134.4v0c0 73.6 60.8 134.4 134.4 134.4z" />
<glyph unicode="&#xf681;" d="M512-28.8c-86.4 0-156.8 70.4-156.8 156.8v0 256c0 76.8 64 137.6 137.6 137.6h19.2c86.4 0 156.8-70.4 156.8-156.8v0-236.8c3.2-86.4-67.2-156.8-156.8-156.8v0zM496 489.6c-60.8 0-105.6-44.8-105.6-105.6v-256c-3.2-70.4 48-124.8 115.2-128 70.4-3.2 124.8 48 128 115.2 0 3.2 0 9.6 0 12.8v240c0 70.4-57.6 121.6-121.6 121.6v0h-16zM876.8-28.8c-83.2 0-147.2 67.2-147.2 147.2v89.6c6.4 83.2 76.8 144 160 137.6 76.8-6.4 131.2-64 137.6-137.6v-89.6c-3.2-80-70.4-147.2-150.4-147.2zM876.8 326.4c-64 0-115.2-54.4-115.2-115.2v-89.6c-3.2-64 41.6-118.4 105.6-124.8 64-3.2 118.4 41.6 124.8 105.6 0 6.4 0 12.8 0 16v89.6c0 67.2-51.2 118.4-115.2 118.4v0 0zM86.4 432c-9.6 0-16 6.4-16 16 0 3.2 3.2 9.6 6.4 12.8l332.8 294.4c19.2 16 41.6 19.2 67.2 12.8l182.4-70.4c9.6-3.2 22.4 0 32 6.4l134.4 144c6.4 6.4 16 6.4 22.4 0s6.4-16 0-22.4l-131.2-144c-19.2-19.2-44.8-25.6-70.4-16l-179.2 70.4c-9.6 3.2-22.4 3.2-32-6.4l-336-294.4c-3.2-3.2-9.6-3.2-12.8-3.2zM60.8 377.6c-22.4 0-41.6 19.2-41.6 41.6s19.2 41.6 41.6 41.6 41.6-19.2 41.6-41.6v0c0-19.2-19.2-41.6-41.6-41.6zM60.8 432c-6.4 0-9.6-3.2-9.6-9.6s3.2-9.6 9.6-9.6c6.4 0 9.6 3.2 9.6 9.6v0c0 6.4-3.2 9.6-9.6 9.6v0zM854.4 825.6c-22.4 0-41.6 19.2-41.6 41.6s16 41.6 41.6 41.6 41.6-19.2 41.6-41.6v0c3.2-22.4-16-41.6-41.6-41.6zM854.4 876.8c-6.4 0-9.6-3.2-9.6-9.6s3.2-9.6 9.6-9.6c6.4 0 9.6 3.2 9.6 9.6v0c0 6.4-6.4 9.6-9.6 9.6v0z" />
</font>
</defs>
</svg>
